<svg width="65" height="38" viewBox="0 0 65 38" fill="none" xmlns="http://www.w3.org/2000/svg">
<rect width="65" height="38" rx="4" fill="url(#paint0_radial)"/>
<mask id="mask0" mask-type="alpha" maskUnits="userSpaceOnUse" x="0" y="0" width="65" height="38">
<rect width="65" height="38" rx="4" fill="white"/>
</mask>
<g mask="url(#mask0)">
</g>
<path d="M16.5205 27.4121H10.5156L9.26953 31H6.3584L12.2559 15.3594H14.1035H14.7588L20.6777 31H17.7666L16.5205 27.4121ZM15.7363 25.167L13.5127 18.7539L11.2891 25.167H15.7363ZM32.2686 28.7656V31H24.459H22.418V15.3594H25.2002V28.7656H32.2686ZM41.4209 22.9648C42.3161 23.2728 42.9785 23.749 43.4082 24.3936C43.8379 25.0381 44.0527 25.7793 44.0527 26.6172C44.0527 27.5697 43.8236 28.3932 43.3652 29.0879C42.9069 29.7826 42.2767 30.3125 41.4746 30.6777C40.6725 31.0358 39.7666 31.2148 38.7568 31.2148C37.833 31.2148 36.9772 31.0465 36.1895 30.71C35.4089 30.3662 34.7822 29.8613 34.3096 29.1953C33.8441 28.5293 33.6113 27.7272 33.6113 26.7891H36.2861C36.2861 27.2331 36.39 27.6305 36.5977 27.9814C36.8053 28.3252 37.099 28.5938 37.4785 28.7871C37.8581 28.9733 38.2985 29.0664 38.7998 29.0664C39.609 29.0664 40.2393 28.8516 40.6904 28.4219C41.1488 27.9922 41.3779 27.387 41.3779 26.6064C41.3779 25.7471 41.1273 25.1097 40.626 24.6943C40.1318 24.279 39.4336 24.0713 38.5312 24.0713H36.9736V22.5996V21.9658H38.5312C39.3835 21.9658 40.0316 21.751 40.4756 21.3213C40.9196 20.8916 41.1416 20.3151 41.1416 19.5918C41.1416 18.8613 40.9447 18.2956 40.5508 17.8945C40.1569 17.4935 39.5732 17.293 38.7998 17.293C38.3486 17.293 37.944 17.3825 37.5859 17.5615C37.2279 17.7334 36.945 17.9805 36.7373 18.3027C36.5368 18.625 36.4365 19.001 36.4365 19.4307H33.7617C33.7617 18.6143 33.9766 17.8802 34.4062 17.2285C34.8359 16.5768 35.4303 16.0684 36.1895 15.7031C36.9557 15.3307 37.8115 15.1445 38.7568 15.1445C39.7738 15.1445 40.6618 15.3128 41.4209 15.6494C42.18 15.986 42.7673 16.4873 43.1826 17.1533C43.6051 17.8193 43.8164 18.6322 43.8164 19.5918C43.8164 20.2507 43.6087 20.8916 43.1934 21.5146C42.778 22.1377 42.1872 22.6211 41.4209 22.9648ZM56.6963 24.4258C56.6963 28.9518 54.9883 31.2148 51.5723 31.2148C49.9466 31.2148 48.679 30.6742 47.7695 29.5928C46.8672 28.5114 46.416 26.7891 46.416 24.4258V21.8691C46.416 19.513 46.8636 17.805 47.7588 16.7451C48.654 15.6781 49.918 15.1445 51.5508 15.1445C53.1836 15.1445 54.4476 15.6781 55.3428 16.7451C56.2451 17.805 56.6963 19.513 56.6963 21.8691V24.4258ZM54.0215 21.4717C54.0215 19.9678 53.8174 18.8971 53.4092 18.2598C53.001 17.6152 52.3815 17.293 51.5508 17.293C50.7344 17.293 50.1185 17.6152 49.7031 18.2598C49.2949 18.8971 49.0908 19.9678 49.0908 21.4717V24.8018C49.0908 26.3057 49.2985 27.3942 49.7139 28.0674C50.1364 28.7334 50.7559 29.0664 51.5723 29.0664C52.3958 29.0664 53.0081 28.737 53.4092 28.0781C53.8174 27.4121 54.0215 26.32 54.0215 24.8018V21.4717Z" fill="white"/>
<path d="M23.1975 7.34766C23.5913 7.44857 23.8843 7.64225 24.0764 7.92871C24.2684 8.21191 24.3645 8.53581 24.3645 8.90039C24.3645 9.59049 24.1431 10.113 23.7004 10.4678C23.2577 10.8226 22.6148 11 21.7717 11H19.6086H19.0227V3.89062H21.5324C22.3885 3.89062 23.0477 4.05339 23.51 4.37891C23.9755 4.70443 24.2082 5.19271 24.2082 5.84375C24.2082 6.18229 24.1236 6.48503 23.9543 6.75195C23.7883 7.01562 23.536 7.21419 23.1975 7.34766ZM20.5559 5.13086V6.85938H21.5324C21.9198 6.85938 22.2063 6.78939 22.3918 6.64941C22.5806 6.50618 22.675 6.2946 22.675 6.01465C22.675 5.70215 22.5839 5.47754 22.4016 5.34082C22.2225 5.20085 21.9328 5.13086 21.5324 5.13086H20.5559ZM21.7717 9.76465C22.1232 9.76465 22.3885 9.6849 22.5676 9.52539C22.7466 9.36263 22.8361 9.14941 22.8361 8.88574C22.8361 8.24772 22.5025 7.92871 21.8352 7.92871H20.5559V9.76465H21.7717ZM31.6176 7.60156C31.6176 8.3112 31.489 8.92969 31.2318 9.45703C30.9779 9.98438 30.6215 10.3896 30.1625 10.6729C29.7035 10.9561 29.1745 11.0977 28.5756 11.0977C27.9766 11.0977 27.446 10.9561 26.9838 10.6729C26.5215 10.3896 26.1618 9.98438 25.9047 9.45703C25.6475 8.92969 25.5189 8.3112 25.5189 7.60156V7.29395C25.5189 6.58431 25.6475 5.96582 25.9047 5.43848C26.1618 4.90788 26.5199 4.50098 26.9789 4.21777C27.4379 3.93457 27.9669 3.79297 28.5658 3.79297C29.1648 3.79297 29.6938 3.93457 30.1527 4.21777C30.615 4.50098 30.9747 4.90788 31.2318 5.43848C31.489 5.96582 31.6176 6.58431 31.6176 7.29395V7.60156ZM30.0648 7.28418C30.0648 6.56152 29.9346 6.00977 29.6742 5.62891C29.4138 5.24479 29.0443 5.05273 28.5658 5.05273C28.084 5.05273 27.7146 5.24316 27.4574 5.62402C27.2003 6.00488 27.0717 6.55827 27.0717 7.28418V7.60156C27.0717 8.32096 27.2019 8.87435 27.4623 9.26172C27.7227 9.64909 28.0938 9.84277 28.5756 9.84277C29.0541 9.84277 29.4219 9.64909 29.6791 9.26172C29.9363 8.87435 30.0648 8.32096 30.0648 7.60156V7.28418ZM37.2301 11L34.4664 6.41504V11H32.9332V3.89062H34.4664L37.2301 8.47559V3.89062H38.7584V11H37.2301ZM46.1824 7.60156C46.1824 8.3112 46.0538 8.92969 45.7967 9.45703C45.5428 9.98438 45.1863 10.3896 44.7273 10.6729C44.2684 10.9561 43.7394 11.0977 43.1404 11.0977C42.5415 11.0977 42.0109 10.9561 41.5486 10.6729C41.0864 10.3896 40.7267 9.98438 40.4695 9.45703C40.2124 8.92969 40.0838 8.3112 40.0838 7.60156V7.29395C40.0838 6.58431 40.2124 5.96582 40.4695 5.43848C40.7267 4.90788 41.0848 4.50098 41.5438 4.21777C42.0027 3.93457 42.5317 3.79297 43.1307 3.79297C43.7296 3.79297 44.2586 3.93457 44.7176 4.21777C45.1798 4.50098 45.5395 4.90788 45.7967 5.43848C46.0538 5.96582 46.1824 6.58431 46.1824 7.29395V7.60156ZM44.6297 7.28418C44.6297 6.56152 44.4995 6.00977 44.2391 5.62891C43.9786 5.24479 43.6092 5.05273 43.1307 5.05273C42.6489 5.05273 42.2794 5.24316 42.0223 5.62402C41.7651 6.00488 41.6365 6.55827 41.6365 7.28418V7.60156C41.6365 8.32096 41.7667 8.87435 42.0271 9.26172C42.2876 9.64909 42.6587 9.84277 43.1404 9.84277C43.6189 9.84277 43.9868 9.64909 44.2439 9.26172C44.5011 8.87435 44.6297 8.32096 44.6297 7.60156V7.28418Z" fill="white"/>
<defs>
<radialGradient id="paint0_radial" cx="0" cy="0" r="1" gradientUnits="userSpaceOnUse" gradientTransform="translate(32.5 19) rotate(90) scale(19 32.5)">
<stop stop-color="#707070"/>
<stop offset="1" stop-color="#707070"/>
</radialGradient>
</defs>
</svg>
