<svg width="241" height="220" viewBox="0 0 241 220" fill="none" xmlns="http://www.w3.org/2000/svg">
<g filter="url(#filter0_b)">
<path d="M176.791 13.7554C181.209 13.7554 184.791 17.3371 184.791 21.7554L184.791 69.2355C184.791 73.6538 181.209 77.2355 176.791 77.2355L131.628 77.2355C127.21 77.2355 123.628 73.6537 123.628 69.2355L123.628 21.7554C123.628 17.3371 127.209 13.7554 131.628 13.7554L176.791 13.7554Z" fill="#EBEFFB" fill-opacity="0.7"/>
</g>
<g filter="url(#filter1_b)">
<path d="M180.621 78.6258L130.701 78.6257C126.283 78.6257 122.701 75.044 122.701 70.6258L122.701 18.3892" stroke="#BACAFA" stroke-width="2"/>
</g>
<path d="M214.785 195.271L206.676 202.318L185.052 174.647L175.321 182.796L123.963 115.218L78.5514 195.271L66.1176 181.521L43.4116 218.828H233.707L214.785 195.271Z" fill="#EBEFFB"/>
<path d="M89.6376 77.5418C89.6376 77.5418 126.778 140.95 139.207 203.681L143.787 206.366L121.883 213.596C121.883 213.596 73.3594 140.686 70.4595 131.43C67.5595 122.174 72.5309 77.5417 72.5309 77.5417" fill="url(#paint0_linear)"/>
<g filter="url(#filter2_b)">
<path d="M80.5949 106.845C80.5949 106.845 86.56 137.694 84.9171 156.601C79.314 148.103 73.5476 137.604 71.6424 133.541L80.5949 106.845Z" fill="#98B0F8" fill-opacity="0.6"/>
</g>
<path d="M78.9613 10.1357V21.6941L64.3233 25.2132V5.70791L78.9613 2.18872V10.1357Z" fill="#EBEFFB"/>
<path d="M89.417 77.925L44.8609 90.0554L44.4571 53.4561C44.4571 40.8337 53.0135 29.8421 65.1845 26.8294C71.0214 25.3846 77.1937 26.7222 81.9239 30.4569C86.654 34.1916 89.417 39.9089 89.417 45.9621L89.417 77.925Z" fill="#EBEFFB"/>
<path d="M44.8258 89.3596L79.8547 80.6814C79.8547 80.6814 82.2117 166.514 68.3814 213.13L70.6817 217.782H47.7207C47.7207 217.782 43.1526 108.139 44.8258 89.3596Z" fill="#FF584B"/>
<g filter="url(#filter3_b)">
<path d="M58.4613 94.2869L48.6396 74.2447L60.141 60.7966C60.141 60.7966 53.1337 80.8996 58.4613 94.2869Z" fill="#98B0F8" fill-opacity="0.6"/>
</g>
<g filter="url(#filter4_b)">
<path d="M14.5923 217.883C14.5923 217.883 12.5127 214.219 17.7917 213.423C20.9286 212.94 24.1385 213.326 27.07 214.538C27.07 214.538 23.3907 210.078 29.1496 208.166C34.9085 206.255 40.8274 210.715 40.8274 210.715C40.8274 210.715 35.0685 200.042 39.5476 199.246C44.0268 198.449 46.4264 203.069 46.4264 203.069C46.4264 203.069 45.9464 189.848 55.2247 189.529C64.503 189.21 63.5432 206.414 63.5432 206.414C63.5432 206.414 67.5424 198.768 74.2612 198.449C80.9799 198.131 77.6205 211.257 77.6205 211.257C77.6205 211.257 78.9003 208.166 83.3794 207.848C87.8586 207.529 87.5387 211.267 87.5387 211.267C87.5387 211.267 93.2976 203.228 99.6964 203.706C106.095 204.184 103.376 212.148 103.376 212.148C109.934 211.671 111.374 218.829 111.374 218.829H9.95318L14.5923 217.883Z" fill="#98B0F8" fill-opacity="0.6"/>
</g>
<path d="M35.7421 218.828H239.994" stroke="#98B0F8" stroke-linecap="round" stroke-linejoin="round"/>
<ellipse rx="0.515799" ry="0.51618" transform="matrix(-1 0 0 1 71.3315 12.8721)" fill="#6177B9"/>
<ellipse rx="0.515792" ry="0.51618" transform="matrix(-1 0 0 1 76.4893 12.8721)" fill="#6177B9"/>
<path d="M74.942 15.4532V9.25903H78.0367" stroke="#98B0F8" stroke-linecap="round" stroke-linejoin="round"/>
<path d="M69.784 9.25879H72.8787" stroke="#98B0F8" stroke-linecap="round" stroke-linejoin="round"/>
<path d="M79.0682 8.2268H79.0681" stroke="#98B0F8" stroke-linecap="round" stroke-linejoin="round"/>
<path d="M65.6578 12.3418V14.4206C65.1107 14.4206 64.5859 14.2067 64.199 13.8259C63.8121 13.4451 63.5947 12.9287 63.5947 12.3902C63.5947 12.3279 63.5975 12.2663 63.6031 12.2054C63.7187 10.9447 65.6578 11.0759 65.6578 12.3418Z" fill="#EDEEEF"/>
<path d="M65.6578 14.4207C65.1107 14.4207 64.5859 14.2032 64.199 13.8159C63.8121 13.4287 63.5947 12.9036 63.5947 12.356" stroke="#98B0F8" stroke-linecap="round" stroke-linejoin="round"/>
<path d="M67.7209 23.7122L64.6262 24.7445" stroke="#98B0F8" stroke-linecap="round" stroke-linejoin="round"/>
<path d="M74.942 15.2913L73.9104 15.6145" stroke="#98B0F8" stroke-linecap="round" stroke-linejoin="round"/>
<path d="M79.0898 13.3887C79.0898 13.3887 81.907 21.8341 78.1316 24.5995C74.3561 27.3648 63.1301 25.7537 66.1754 14.4194" stroke="#98B0F8" stroke-linecap="round" stroke-linejoin="round"/>
<path d="M76.9199 15.6055C77.0241 15.7743 77.0333 15.9864 76.9441 16.1639C76.8549 16.3414 76.6805 16.458 76.4849 16.4709C75.6873 16.6521 74.4816 15.055 73.4382 15.9245C73.4382 15.9245 73.2045 14.6974 70.6064 15.4313C68.0084 16.1653 68.9003 14.4207 68.9003 14.4207" stroke="#98B0F8" stroke-linecap="round" stroke-linejoin="round"/>
<path d="M80.0999 5.12964C80.0999 5.12964 79.1256 9.66547 70.2273 6.9707C70.2273 6.9707 69.6892 9.44105 68.1576 9.55327C66.6259 9.66549 66.6898 11.3238 66.6898 11.3238" stroke="#98B0F8" stroke-linecap="round" stroke-linejoin="round"/>
<path d="M79.4645 9.32487C79.4645 9.32487 88.8622 1.43228 77.8244 1.03213C66.7866 0.631982 60.8106 3.96421 64.8718 11.3236" stroke="#98B0F8" stroke-linecap="round" stroke-linejoin="round"/>
<path d="M79.9512 80.4917C79.9512 80.4917 82.2519 166.796 68.7525 213.666" stroke="#98B0F8" stroke-linecap="round" stroke-linejoin="round"/>
<path d="M59.4683 30.9385C59.4683 30.9385 32.8891 46.8425 33.697 73.3147C34.5048 99.7869 53.3556 110.43 53.3556 110.43" stroke="#98B0F8" stroke-linecap="round" stroke-linejoin="round"/>
<path d="M60.4998 94.9451C60.4998 94.9451 56.6645 109.479 50.1841 112.495" stroke="#98B0F8" stroke-linecap="round" stroke-linejoin="round"/>
<path d="M63.5946 56.7476L49.1526 74.6149L59.5245 97.0097" stroke="#98B0F8" stroke-linecap="round" stroke-linejoin="round"/>
<path d="M122.394 218.828H0.668559" stroke="#98B0F8" stroke-linecap="round" stroke-linejoin="round"/>
<path d="M73.9104 17.3551C72.7397 17.7642 71.3542 17.3748 70.8157 16.4854" stroke="#FF584B" stroke-linecap="round" stroke-linejoin="round"/>
<rect x="127.798" y="18.8525" width="13.2057" height="13.2057" stroke="#BACAFA"/>
<rect x="127.798" y="32.0581" width="13.2057" height="13.2057" stroke="#BACAFA"/>
<rect x="127.798" y="45.2637" width="13.2057" height="13.2057" stroke="#BACAFA"/>
<rect x="127.798" y="58.4692" width="13.2057" height="13.2057" stroke="#BACAFA"/>
<rect x="141.004" y="18.8523" width="13.2057" height="13.2057" stroke="#BACAFA"/>
<rect x="141.004" y="32.0581" width="13.2057" height="13.2057" stroke="#BACAFA"/>
<rect x="141.004" y="45.2637" width="13.2057" height="13.2057" stroke="#BACAFA"/>
<rect x="141.004" y="58.4692" width="13.2057" height="13.2057" stroke="#BACAFA"/>
<rect x="154.209" y="18.8523" width="13.2057" height="13.2057" stroke="#BACAFA"/>
<rect x="154.209" y="32.0581" width="13.2057" height="13.2057" stroke="#BACAFA"/>
<rect x="154.209" y="45.2637" width="13.2057" height="13.2057" stroke="#BACAFA"/>
<rect x="154.209" y="58.4692" width="13.2057" height="13.2057" stroke="#BACAFA"/>
<rect x="167.415" y="18.8523" width="13.2057" height="13.2057" stroke="#BACAFA"/>
<rect x="167.415" y="32.0581" width="13.2057" height="13.2057" stroke="#BACAFA"/>
<rect x="167.415" y="45.2637" width="13.2057" height="13.2057" stroke="#BACAFA"/>
<rect x="167.415" y="58.4692" width="13.2057" height="13.2057" stroke="#BACAFA"/>
<path fill-rule="evenodd" clip-rule="evenodd" d="M84.2261 33.4955L103.663 48.7535C103.663 48.7535 126.068 20.4574 131.018 18.9561C135.968 17.4548 141.994 20.5999 141.994 20.5999V22.4581L136.262 23.491C136.262 23.491 137.107 30.1032 133.46 33.202C133.46 33.202 122.152 74.167 105.174 74.2958C93.5656 74.3839 89.2374 71.191 89.2374 71.191" fill="white"/>
<path d="M84.2261 33.4955L103.663 48.7535C103.663 48.7535 126.068 20.4574 131.018 18.9561C135.968 17.4548 141.994 20.5999 141.994 20.5999V22.4581L136.262 23.491C136.262 23.491 137.107 30.1032 133.46 33.202C133.46 33.202 122.152 74.167 105.174 74.2958C93.5656 74.3839 89.2374 71.191 89.2374 71.191L84.2261 33.4955Z" stroke="#98B0F8" stroke-linecap="round" stroke-linejoin="round"/>
<path d="M190.909 12.3831C190.791 11.5631 190.031 10.9941 189.211 11.1122L175.849 13.0368C175.029 13.1549 174.46 13.9154 174.578 14.7354C174.696 15.5553 175.456 16.1243 176.276 16.0062L188.154 14.2954L189.864 26.1729C189.983 26.9928 190.743 27.5618 191.563 27.4437C192.383 27.3256 192.952 26.5652 192.834 25.7452L190.909 12.3831ZM134.696 61.4648L139.194 52.598L136.518 51.2409L132.02 60.1076L134.696 61.4648ZM149.45 46.3003H158.821V43.3003H149.45V46.3003ZM170.431 40.487L190.626 13.4955L188.224 11.6983L168.029 38.6897L170.431 40.487ZM158.821 46.3003C163.39 46.3003 167.693 44.146 170.431 40.487L168.029 38.6897C165.857 41.5917 162.445 43.3003 158.821 43.3003V46.3003ZM139.194 52.598C141.153 48.7347 145.118 46.3003 149.45 46.3003V43.3003C143.988 43.3003 138.989 46.3697 136.518 51.2409L139.194 52.598Z" fill="#D52B1E"/>
<defs>
<filter id="filter0_b" x="112.755" y="2.88224" width="82.9095" height="85.2263" filterUnits="userSpaceOnUse" color-interpolation-filters="sRGB">
<feFlood flood-opacity="0" result="BackgroundImageFix"/>
<feGaussianBlur in="BackgroundImage" stdDeviation="5.43656"/>
<feComposite in2="SourceAlpha" operator="in" result="effect1_backgroundBlur"/>
<feBlend mode="normal" in="SourceGraphic" in2="effect1_backgroundBlur" result="shape"/>
</filter>
<filter id="filter1_b" x="110.828" y="7.51603" width="80.666" height="82.9828" filterUnits="userSpaceOnUse" color-interpolation-filters="sRGB">
<feFlood flood-opacity="0" result="BackgroundImageFix"/>
<feGaussianBlur in="BackgroundImage" stdDeviation="5.43656"/>
<feComposite in2="SourceAlpha" operator="in" result="effect1_backgroundBlur"/>
<feBlend mode="normal" in="SourceGraphic" in2="effect1_backgroundBlur" result="shape"/>
</filter>
<filter id="filter2_b" x="58.051" y="93.2541" width="40.7438" height="76.9387" filterUnits="userSpaceOnUse" color-interpolation-filters="sRGB">
<feFlood flood-opacity="0" result="BackgroundImageFix"/>
<feGaussianBlur in="BackgroundImage" stdDeviation="6.7957"/>
<feComposite in2="SourceAlpha" operator="in" result="effect1_backgroundBlur"/>
<feBlend mode="normal" in="SourceGraphic" in2="effect1_backgroundBlur" result="shape"/>
</filter>
<filter id="filter3_b" x="35.0482" y="47.2052" width="38.6842" height="60.673" filterUnits="userSpaceOnUse" color-interpolation-filters="sRGB">
<feFlood flood-opacity="0" result="BackgroundImageFix"/>
<feGaussianBlur in="BackgroundImage" stdDeviation="6.7957"/>
<feComposite in2="SourceAlpha" operator="in" result="effect1_backgroundBlur"/>
<feBlend mode="normal" in="SourceGraphic" in2="effect1_backgroundBlur" result="shape"/>
</filter>
<filter id="filter4_b" x="-3.63822" y="175.933" width="128.604" height="56.4868" filterUnits="userSpaceOnUse" color-interpolation-filters="sRGB">
<feFlood flood-opacity="0" result="BackgroundImageFix"/>
<feGaussianBlur in="BackgroundImage" stdDeviation="6.7957"/>
<feComposite in2="SourceAlpha" operator="in" result="effect1_backgroundBlur"/>
<feBlend mode="normal" in="SourceGraphic" in2="effect1_backgroundBlur" result="shape"/>
</filter>
<linearGradient id="paint0_linear" x1="131.233" y1="50.055" x2="217.267" y2="132.29" gradientUnits="userSpaceOnUse">
<stop stop-color="#FF4E40"/>
<stop offset="1" stop-color="#821642"/>
</linearGradient>
</defs>
</svg>
