<svg width="16" height="17" viewBox="0 0 16 17" fill="none" xmlns="http://www.w3.org/2000/svg">
<path d="M7.71875 0.550781L7.47266 0.796875C7.29688 0.972656 7.29688 1.21875 7.47266 1.39453L13.7305 7.65234H0.546875C0.300781 7.65234 0.125 7.86328 0.125 8.07422V8.42578C0.125 8.67188 0.300781 8.84766 0.546875 8.84766H13.7305L7.47266 15.1406C7.29688 15.3164 7.29688 15.5625 7.47266 15.7383L7.71875 15.9844C7.89453 16.1602 8.14062 16.1602 8.31641 15.9844L15.7344 8.56641C15.9102 8.39062 15.9102 8.14453 15.7344 7.96875L8.31641 0.550781C8.14062 0.375 7.89453 0.375 7.71875 0.550781Z" fill="#00817f"/>
</svg>
