<svg width="49" height="29" viewBox="0 0 49 29" fill="none" xmlns="http://www.w3.org/2000/svg">
<rect x="0.940857" y="0.473145" width="47.6923" height="27.8817" rx="2.93491" fill="url(#paint0_radial)"/>
<mask id="mask0" mask-type="alpha" maskUnits="userSpaceOnUse" x="0" y="0" width="49" height="29">
<rect x="0.940857" y="0.473145" width="47.6923" height="27.8817" rx="2.93491" fill="white"/>
</mask>
<g mask="url(#mask0)">
</g>
<path d="M18.3976 16.7215C18.3976 17.5727 18.2084 18.2979 17.8301 18.8969C17.457 19.4959 16.9447 19.9478 16.2931 20.2526C15.6415 20.5521 14.9085 20.7018 14.0941 20.7018C13.2586 20.7018 12.5151 20.5521 11.8635 20.2526C11.2172 19.9478 10.7101 19.4985 10.3423 18.9048C9.97975 18.3057 9.79847 17.578 9.79847 16.7215V9.06823H11.832V16.7215C11.832 17.5097 12.029 18.0982 12.4231 18.487C12.8225 18.8706 13.3794 19.0624 14.0941 19.0624C14.8192 19.0624 15.3762 18.8706 15.765 18.487C16.1591 18.1034 16.3562 17.5149 16.3562 16.7215V9.06823H18.3976V16.7215ZM27.7454 17.5254C27.7454 18.4345 27.4696 19.1622 26.9178 19.7087C26.3714 20.2499 25.6173 20.5731 24.6557 20.6782V22.2151H23.4025V20.6782C22.8035 20.6151 22.2597 20.4496 21.771 20.1816C21.2823 19.9136 20.8882 19.5196 20.5887 18.9993C20.2945 18.4739 20.1473 17.8197 20.1473 17.0368H22.1099C22.1099 17.7724 22.2912 18.3005 22.6537 18.621C23.0163 18.9363 23.463 19.0939 23.9937 19.0939C24.5664 19.0939 25.0078 18.9547 25.3178 18.6762C25.6331 18.3977 25.7907 18.0194 25.7907 17.5412C25.7907 17.0946 25.6488 16.7268 25.3651 16.4377C25.0814 16.1435 24.6006 15.8781 23.9227 15.6417C23.1871 15.3895 22.5802 15.1136 22.102 14.8141C21.6239 14.5146 21.2508 14.1441 20.9828 13.7028C20.7201 13.2614 20.5887 12.7228 20.5887 12.087C20.5887 11.5037 20.7096 10.9861 20.9513 10.5343C21.1982 10.0824 21.545 9.71979 21.9917 9.44656C22.4383 9.17332 22.9611 9.00255 23.5602 8.93424V7.216H24.8213V8.95C25.725 9.07611 26.4318 9.45707 26.9415 10.0929C27.4512 10.7287 27.706 11.572 27.706 12.6229H25.7434C25.7434 11.9661 25.5989 11.4512 25.3099 11.0781C25.0262 10.705 24.6295 10.5185 24.1198 10.5185C23.5943 10.5185 23.2002 10.6604 22.9375 10.9441C22.6748 11.2226 22.5434 11.6009 22.5434 12.0791C22.5434 12.3786 22.6012 12.6361 22.7168 12.8515C22.8377 13.0617 23.0347 13.2561 23.3079 13.4348C23.5812 13.6082 23.9595 13.7842 24.4429 13.9629C25.1838 14.2308 25.7907 14.5146 26.2636 14.8141C26.7365 15.1136 27.1017 15.484 27.3592 15.9254C27.6167 16.3616 27.7454 16.8949 27.7454 17.5254ZM33.2706 15.6102C32.062 15.2371 31.1294 14.7773 30.4725 14.2308C29.8157 13.6844 29.4873 12.9724 29.4873 12.0949C29.4873 11.4801 29.6581 10.931 29.9996 10.4476C30.3464 9.96413 30.8298 9.58843 31.4499 9.32045C32.0699 9.04721 32.7793 8.91059 33.578 8.91059C34.4135 8.91059 35.1438 9.06823 35.7691 9.3835C36.3997 9.69352 36.8831 10.1165 37.2194 10.6525C37.5557 11.1832 37.7238 11.7717 37.7238 12.418H35.6903C35.6903 11.8453 35.509 11.3881 35.1465 11.0466C34.7892 10.705 34.2584 10.5343 33.5543 10.5343C32.8923 10.5343 32.3878 10.6788 32.041 10.9678C31.6995 11.2515 31.5287 11.6246 31.5287 12.087C31.5287 12.4968 31.7231 12.8436 32.112 13.1274C32.5008 13.4111 33.113 13.6739 33.9484 13.9156C34.8207 14.173 35.5327 14.4673 36.0844 14.7983C36.6414 15.1294 37.0565 15.5208 37.3297 15.9727C37.603 16.4246 37.7396 16.9527 37.7396 17.557C37.7396 18.198 37.5714 18.755 37.2352 19.2279C36.8989 19.7008 36.4207 20.066 35.8007 20.3235C35.1859 20.5757 34.466 20.7018 33.641 20.7018C32.8739 20.7018 32.1435 20.5652 31.4499 20.292C30.7615 20.0135 30.2019 19.5984 29.7711 19.0466C29.3454 18.4949 29.1326 17.8302 29.1326 17.0525H31.174C31.174 17.7409 31.3973 18.2532 31.844 18.5895C32.2959 18.9205 32.8949 19.086 33.641 19.086C34.3031 19.086 34.8102 18.9494 35.1622 18.6762C35.5143 18.403 35.6903 18.0351 35.6903 17.5727C35.6903 17.2575 35.6246 16.9947 35.4933 16.7846C35.3619 16.5691 35.1228 16.3694 34.776 16.1855C34.4345 16.0016 33.9327 15.8098 33.2706 15.6102Z" fill="white"/>
<defs>
<radialGradient id="paint0_radial" cx="0" cy="0" r="1" gradientUnits="userSpaceOnUse" gradientTransform="translate(24.787 14.414) rotate(90) scale(13.9408 23.8462)">
<stop stop-color="#707070"/>
<stop offset="1" stop-color="#707070"/>
</radialGradient>
</defs>
</svg>
