<svg xmlns="http://www.w3.org/2000/svg" width="89" height="36" viewBox="0 0 89 36">
    <g fill="none">
        <path fill="#231F20" d="M10.45 25.693c.05 0 .093.032.107.076l.006.034v5.666c0 1.53.729 2.375 2.051 2.375 1.305 0 2.018-.751 2.069-2.17l.003-.166v-5.705c0-.048.031-.09.075-.104l.034-.006h1.682c.052 0 .094.032.109.076l.006.034v5.666c0 2.517-1.497 4.024-3.996 4.024-2.386 0-3.84-1.398-3.916-3.751l-.003-.198v-5.74c0-.049.032-.09.076-.105l.034-.006h1.664zm-6.885-.128c.972 0 1.952.198 2.766.565.034.015.056.046.063.082v.036l-.238 1.534c-.008.039-.03.069-.06.082-.015.012-.033.017-.053.017l-.024-.004-.024-.013c-.894-.465-1.709-.692-2.482-.692-.82 0-1.443.43-1.443 1.005 0 .602.395.85 1.724 1.315l.18.062c1.883.657 2.9 1.317 2.9 2.92 0 1.77-1.424 2.96-3.548 2.96-1.015 0-2.175-.254-3.26-.712-.036-.016-.059-.048-.065-.083L0 34.603l.242-1.501c.006-.032.027-.063.06-.082.015-.008.03-.014.05-.014l.025.005.027.013c.95.495 2.13.82 2.998.82 1.046 0 1.716-.46 1.716-1.17 0-.674-.4-.951-1.597-1.372l-.176-.06c-2.01-.705-3.03-1.341-3.03-2.863 0-1.656 1.337-2.814 3.25-2.814zm35.262.128c2.282 0 3.643 1.12 3.643 3.002 0 1.227-.612 2.159-1.731 2.652l-.164.067 2.46 3.435c.025.032.029.067.016.106-.01.022-.028.041-.047.054l-.032.012-1.735.393h-.008c-.025 0-.047-.005-.066-.018l-.026-.026-2.587-3.694H37.7v3.516c0 .048-.03.093-.074.109l-.034.006h-1.668c-.047 0-.086-.035-.1-.08l-.006-.035v-9.388c0-.049.03-.09.073-.105l.033-.006h2.904zm-5.286 0c.046 0 .09.032.105.076l.006.035v1.46c0 .053-.034.094-.077.108l-.034.006h-4.05v2.093h3.215c.042 0 .078.023.098.056l.014.037.238 1.465c.006.031-.002.064-.024.091-.014.014-.033.024-.053.03l-.032.004h-3.455v2.468h4.178c.048 0 .088.033.102.075l.005.034v1.462c0 .047-.03.092-.073.108l-.034.007h-5.956c-.047 0-.09-.036-.104-.08l-.006-.035v-9.39c0-.048.033-.09.076-.104l.034-.006h5.827zm31.74 0c.05 0 .093.032.108.076l.006.035v1.46c0 .053-.033.094-.078.108l-.037.006h-4.045v2.093h3.218c.04 0 .08.026.097.063l.008.03.242 1.465c.006.031-.004.064-.022.091-.016.014-.035.024-.055.03l-.032.004h-3.456v2.468h4.177c.048 0 .091.033.107.075l.006.034v1.462c0 .047-.034.092-.078.108l-.035.007H59.46c-.048 0-.088-.036-.103-.08l-.005-.035v-9.39c0-.048.03-.09.074-.104l.034-.006h5.821zm23.184 0c.047 0 .09.032.105.076l.005.035v1.46c0 .053-.033.094-.076.108l-.034.006H84.41v2.093h3.218c.048 0 .085.026.101.063l.008.03.245 1.465c.004.031-.008.064-.026.091-.014.014-.033.024-.054.03l-.03.004H84.41v2.469h4.185c.047 0 .089.032.104.074l.005.034v1.462c0 .047-.032.092-.075.108l-.034.007H82.64c-.051 0-.092-.036-.106-.08l-.005-.035v-9.39c0-.048.03-.09.075-.104l.036-.006h5.824zm-66.164 0c2.131 0 3.453 1.142 3.453 2.981 0 1.872-1.25 2.967-3.45 3.032l-.209.003h-1.072v3.485c0 .047-.032.091-.075.107l-.035.006h-1.666c-.047 0-.086-.035-.1-.079l-.005-.034v-9.39c0-.049.03-.09.072-.105l.033-.006h3.054zm33.882 0c.05 0 .094.032.109.076l.006.034v9.39c0 .048-.033.092-.079.108l-.036.006h-1.68c-.048 0-.092-.035-.108-.079l-.006-.034v-9.39c0-.049.035-.09.079-.105l.034-.006h1.681zm20.904 0c.047 0 .088.032.102.075l.005.035v7.834h3.445c.041 0 .08.027.097.064l.009.03.242 1.444c.001.034-.005.065-.027.09-.014.02-.033.031-.052.037l-.03.004h-5.456c-.048 0-.089-.034-.103-.078l-.006-.034v-9.39c0-.05.031-.09.075-.105l.034-.006h1.665zm-7.313 0c.051 0 .091.032.105.075l.006.035v7.834h3.438c.042 0 .077.023.096.057l.014.036.241 1.445c.005.034-.004.065-.024.09-.014.02-.034.031-.054.037l-.03.004H68.11c-.047 0-.088-.034-.102-.078l-.005-.034v-9.39c0-.05.03-.09.073-.105l.034-.006h1.664zm-24.326.003c.031 0 .066.018.087.046l.016.032 2.583 7.035 2.632-7.032c.01-.034.035-.058.069-.068l.036-.005h1.678c.036 0 .074.015.093.046.014.02.02.045.018.07l-.009.035-3.714 9.373c-.012.03-.038.053-.069.063l-.032.004h-1.543c-.035 0-.064-.014-.084-.04l-.017-.027-3.656-9.384c-.012-.031-.009-.063.01-.093.01-.019.024-.034.043-.044l.031-.011h1.828zm-6.537 1.666l-1.212-.001v2.794h1.11c1.143 0 1.774-.513 1.774-1.444 0-1.069-.885-1.33-1.672-1.349zm-16.778-.04h-1.11v2.782h1.072c1.224 0 1.812-.458 1.812-1.393 0-1.098-.884-1.367-1.672-1.388l-.102-.001z"/>
        <path fill="#821642" d="M88.495 11.34c-4.286-.676-8.458-2.082-11.176-3.377-1.575 4.13-4.612 8.558-7.79 11.604-.174.147-.037.405.248.206 6.79-4.704 13.866-6.964 18.724-7.908.266-.06.269-.451-.006-.525"/>
        <path fill="#EE2527" d="M65.195.384c1.61 4.172 3.453 12.63-.864 21.921-.052.121.102.227.266.121 5.173-3.392 9.684-9.898 11.168-15.212-5.15-2.642-8.248-5.37-10.122-7.12-.25-.24-.556.023-.448.29"/>
    </g>
</svg>
