<svg xmlns="http://www.w3.org/2000/svg" xmlns:xlink="http://www.w3.org/1999/xlink" width="130" height="110" viewBox="0 0 130 110">
    <defs>
        <filter id="prefix__a" width="106.3%" height="106.3%" x="-1.6%" y="-1.6%" filterUnits="objectBoundingBox">
            <feOffset dx="2" dy="2" in="SourceAlpha" result="shadowOffsetOuter1"/>
            <feColorMatrix in="shadowOffsetOuter1" values="0 0 0 0 0.921568627 0 0 0 0 0.921568627 0 0 0 0 0.921568627 0 0 0 1 0"/>
        </filter>
        <circle id="prefix__b" cx="31.5" cy="31.5" r="31.5"/>
    </defs>
    <g fill="none" fill-rule="evenodd">
        <g transform="translate(33 32)">
            <use fill="#000" filter="url(#prefix__a)" xlink:href="#prefix__b"/>
            <circle cx="31.5" cy="31.5" r="31.5" fill="#3E3D40"/>
            <circle cx="30.5" cy="29.5" r="28.5" fill="#FFF"/>
        </g>
        <g>
            <path fill="#3E3D40" d="M60.41 61.827l.092-.042c.385-.201.567-.668.408-1.081-.171-.446-.677-.671-1.124-.5l-.918.353-.101.033c-.478.125-.983-.126-1.165-.596-.193-.505.059-1.072.563-1.266l1.954-.75.092-.042c.384-.201.566-.668.407-1.081-.17-.446-.677-.671-1.123-.5l-.86.33-.102.034c-.476.125-.983-.126-1.164-.596-.193-.505.06-1.072.564-1.266l1.718-.66.092-.042c.384-.201.567-.667.408-1.082-.172-.445-.677-.67-1.123-.499l-1.718.66-.102.033c-.477.126-.984-.126-1.164-.596-.194-.504.058-1.072.562-1.265l8.96-3.446.093-.042c.384-.202.567-.667.407-1.081-.17-.446-.677-.671-1.123-.5l-13.868 5.328-.101.033c-.247.066-.5.026-.713-.09-.2-.093-.352-.264-.434-.477l-.017-.03-.007-.038-.027-.075-1.335-6.957c-.048-.255-.195-.476-.41-.622-.215-.146-.475-.199-.73-.15-.526.1-.872.611-.771 1.14l1.066 5.57c.005.022.011.042.013.065.07.496-.108.841-.361 1.032-1.414.812-2.243 1.773-2.427 3.348l-.021.219c-.006.069-.006 1.383-.032 1.473.103 2.773 1.07 5.587 3.014 7.566 1.894 1.927 3.902 1.472 7.158.253l5.47-2.098zm-14.632-12.14l-.95-4.963c-.282-1.466.682-2.887 2.147-3.167.708-.137 1.429.012 2.03.417.598.406 1.002 1.02 1.138 1.73l1.111 5.794.384-.148.092-.041 2.422-.924 10.088-3.877.156-.056c1.484-.473 3.108.35 3.57 1.887.432 1.443-.436 2.964-1.842 3.504l-4.577 1.758.106.138c.135.188.247.397.334.624.352.915.194 1.903-.332 2.651.344.295.627.679.801 1.132.374.972.172 2.023-.437 2.786.396.36.696.847.835 1.421.342 1.402-.514 2.828-1.861 3.345l-5.318 2.041-.819.301c-2.968 1.055-5.972 1.634-8.574-1.112-2.722-2.874-3.527-7.443-3.459-10.016.07-2.573 1.281-4.12 2.955-5.226z" transform="translate(0 29)"/>
            <path fill="#FFF" d="M64.943 46.337l-13.868 5.328-.101.033c-.247.066-.5.026-.713-.09-.2-.093-.352-.264-.434-.477l-.017-.03-.007-.038-.027-.075-1.335-6.957c-.048-.255-.195-.476-.41-.622-.215-.146-.475-.199-.73-.15-.526.1-.872.611-.771 1.14l.893 4.66-.003.076c-.074 1.081-1.47 1.254-1.77.046l-.027-.13c-.115-.684-.746-.559-1.892.375l-.234.475c-.658 1.359-.873 2.019-.72 2.172 1.961 1.967 1.82 4.336 2.196 5.988.376 1.653.865 3.632 2.81 5.61 1.893 1.928 3.901 1.473 7.157.254l5.47-2.098.092-.042c.385-.201.567-.668.408-1.081-.171-.446-.677-.671-1.124-.5l-.918.353-.101.033c-.478.125-.983-.126-1.165-.596-.193-.505.059-1.072.563-1.266l1.954-.75.092-.042c.384-.201.566-.668.407-1.081-.17-.446-.677-.671-1.123-.5l-.86.33-.102.034c-.476.125-.983-.126-1.164-.596-.193-.505.06-1.072.564-1.266l1.718-.66.092-.042c.384-.201.567-.667.408-1.082-.172-.445-.677-.67-1.123-.499l-1.718.66-.102.033c-.477.126-.984-.126-1.164-.596-.194-.504.058-1.072.562-1.265l8.96-3.446.093-.042c.384-.202.567-.667.407-1.081-.17-.446-.677-.671-1.123-.5z" transform="translate(0 29)"/>
        </g>
        <path fill="#3E3D40" d="M67.864 66.907c.396.384.407 1.017.022 1.414-.384.396-1.017.407-1.414.023-2.427-2.35-5.985-3.353-10.744-2.969-.55.045-1.033-.365-1.077-.916-.045-.55.365-1.033.916-1.077 5.291-.428 9.414.734 12.297 3.525zm1.982-8.517c1.1-4.105 7.258-2.456 6.158 1.65-1.1 4.105-7.258 2.455-6.158-1.65zM52.13 53.375c1.1-4.105 7.258-2.455 6.158 1.65-1.1 4.105-7.258 2.455-6.158-1.65z"/>
    </g>
</svg>
