<svg width="241" height="202" viewBox="0 0 241 202" fill="none" xmlns="http://www.w3.org/2000/svg">
<path d="M124.212 30.0544C93.3493 26.6607 37.2047 33.9029 14.8462 89.9199C-7.51228 145.937 32.319 183.344 52.9844 175.671C98.433 158.793 149.968 212.696 174.741 186.021C197.272 161.756 207.744 39.2417 124.212 30.0544Z" fill="#EBEFFB" fill-opacity="0.5"/>
<path d="M125.272 90.8777C125.272 90.8777 83.0673 58.719 69.8231 51.539C65.6907 49.3007 58.2616 46.9098 55.3359 51.8618C53.3112 55.2857 58.8727 62.3822 62.7712 65.0237C74.7357 73.1225 108.862 96.6754 108.862 96.6754C109.295 96.9684 109.452 97.5054 109.208 97.8785L109.156 97.955C108.912 98.3238 108.367 98.3845 107.935 98.0915L52.9878 61.107C48.4976 58.0625 39.6414 55.6176 37.8086 59.7728C35.1968 65.6942 41.121 71.837 45.6155 74.8813L98.9603 111.816C99.393 112.109 99.5502 112.646 99.3064 113.019L99.2543 113.095C99.0102 113.464 98.4654 113.525 98.0328 113.232L49.2655 80.3134C45.3713 77.6718 40.8302 77.3432 38.6554 80.6654C36.4808 83.9919 42.1871 92.288 46.0856 94.9294L90.5151 125.049C90.9478 125.342 90.7473 126.1 90.5075 126.469C90.2635 126.838 89.7187 126.898 89.286 126.605L57.9027 106.345C54.4058 103.972 48.7503 101.915 46.7995 104.9C44.8488 107.885 48.429 114.126 51.9301 116.499C51.9301 116.499 104.348 158.587 122.45 163.776C129.867 165.902 135.515 176.104 135.515 176.104L143.227 193.7L183.603 164.911L171.393 148.012C169.607 145.541 171.757 141.809 171.916 138.748C172.372 129.754 171.986 114.843 168.118 109.051C160.677 97.9102 152.216 77.4928 148.735 68.9298C147.79 66.6052 145.132 65.4685 142.873 66.4905C138.025 68.6897 132.061 75.5763 140.869 97.1227" stroke="#97AEFB" stroke-width="1.70603" stroke-miterlimit="10"/>
<g filter="url(#filter0_b)">
<path d="M106.177 182.206L49.4338 172.111C43.4817 171.053 39.4997 165.284 40.5394 159.223L65.0879 16.161C66.1276 10.1009 71.7938 6.0466 77.7458 7.10517L134.489 17.2001C140.441 18.2587 144.423 24.0278 143.383 30.0879L118.834 173.15C117.795 179.21 112.129 183.265 106.177 182.206Z" fill="#98B0F8" fill-opacity="0.3"/>
</g>
<path d="M104.602 179.172L47.8595 169.077C41.9075 168.019 37.9255 162.25 38.9652 156.189L63.5137 13.1271C64.5534 7.06699 70.2196 3.01266 76.1716 4.07124L132.914 14.1662C138.866 15.2248 142.848 20.9939 141.809 27.054L117.26 170.116C116.221 176.176 110.554 180.231 104.602 179.172Z" stroke="#97AEFB" stroke-width="1.13735" stroke-miterlimit="10"/>
<path d="M141.645 95.4738C141.645 95.4738 130.361 114.055 142.607 137.342" stroke="#97AEFB" stroke-width="1.70603" stroke-miterlimit="10"/>
<path d="M131.982 17.9715L123.455 16.456L123.073 18.678C122.715 20.7596 120.768 22.1501 118.728 21.7854L86.9797 16.1384C84.9353 15.7739 83.5696 13.7917 83.9278 11.7145L84.3093 9.49246L75.7824 7.97699C71.5383 7.22052 67.5 10.1129 66.7568 14.4298L42.307 156.939C41.564 161.26 44.4049 165.372 48.6447 166.128L104.844 176.127C109.088 176.883 113.126 173.991 113.87 169.674L138.324 27.1651C139.062 22.8398 136.226 18.7279 131.982 17.9715Z" stroke="#97AEFB" stroke-width="1.13735" stroke-miterlimit="10"/>
<path d="M58.3208 108.747L113.672 117.314" stroke="#6075BB" stroke-width="1.13735" stroke-miterlimit="10"/>
<path d="M57.0532 116.089L112.205 125.903" stroke="#6075BB" stroke-width="1.13735" stroke-miterlimit="10"/>
<path d="M51.6445 122.589L106.996 131.16" stroke="#6075BB" stroke-width="1.13735" stroke-miterlimit="10"/>
<path d="M119.974 82.4391L110.571 80.7649C112.35 70.3925 105.513 60.4819 95.3254 58.6708C85.138 56.8597 75.4041 63.8209 73.6253 74.1933L64.2228 72.5191C66.9103 56.8681 81.5979 46.3612 96.9697 49.0975C112.342 51.8338 122.657 66.7883 119.974 82.4391Z" stroke="#97AEFB" stroke-width="2.27471" stroke-miterlimit="10"/>
<path d="M64.2182 72.5241L73.6207 74.1983C74.5123 69.012 77.3895 64.6808 81.3202 61.8675L75.835 53.918C69.9036 58.1592 65.5619 64.6986 64.2182 72.5241Z" fill="white" stroke="#97AEFB" stroke-width="1.13735" stroke-miterlimit="10"/>
<path d="M110.568 80.7694L119.97 82.4436C121.314 74.6181 119.406 66.9646 115.241 60.9298L107.433 66.5145C110.192 70.5125 111.459 75.5831 110.568 80.7694Z" fill="#E7446C" stroke="#97AEFB" stroke-width="1.13735" stroke-miterlimit="10"/>
<path d="M96.9653 49.0962C89.2793 47.7281 81.7624 49.6708 75.8352 53.9118L81.3203 61.8613C85.2512 59.0524 90.2314 57.7616 95.3209 58.6695L96.9653 49.0962Z" fill="#EBEFFC" stroke="#97AEFB" stroke-width="1.13735" stroke-miterlimit="10"/>
<path d="M107.432 66.5093L115.24 60.9245C111.075 54.8854 104.652 50.4649 96.966 49.0967L95.3217 58.67C100.415 59.5778 104.674 62.5113 107.432 66.5093Z" fill="#97AEFB" stroke="#97AEFB" stroke-width="1.13735" stroke-miterlimit="10"/>
<path d="M91.6761 84.1206C90.4426 83.9005 89.6783 82.6258 90.0544 81.4058L93.0703 71.6105C93.1818 71.2437 93.5438 71.0218 93.9147 71.0869C94.2856 71.152 94.5491 71.4879 94.5367 71.8718L94.113 82.1275C94.0518 83.4066 92.9097 84.3407 91.6761 84.1206Z" fill="#6075BB"/>
<path d="M118.303 103.891L63.9238 94.2153L62.2157 104.167L116.595 113.843L118.303 103.891Z" fill="#F7F9FD"/>
<path d="M128.549 177.463L173.817 143.877L188.649 169.81L139.26 194.433L128.549 177.463Z" fill="#97AEFB"/>
<path d="M128.775 182.382L178.507 146.676L195.138 174.724L180.394 189.219L140.774 200.745L128.775 182.382Z" fill="#E7446C"/>
<g filter="url(#filter1_b)">
<ellipse cx="18.6686" cy="24.9502" rx="18.6686" ry="19.0156" fill="#EBEFFB" fill-opacity="0.5"/>
</g>
<path d="M37.3378 24.3762C37.3378 35.1965 28.7756 43.9681 18.2139 43.9681" stroke="#98B0F8" stroke-width="1.13735" stroke-linecap="round" stroke-linejoin="round"/>
<ellipse cx="18.4481" cy="25.1521" rx="12.2933" ry="12.5325" fill="#E7446C"/>
<path d="M18.1313 24.8135C16.7859 24.8135 15.573 24.1533 15.058 23.1408C14.543 22.1282 14.8278 20.9627 15.7793 20.1878C16.7307 19.4128 18.1612 19.181 19.4041 19.6004C20.6476 20.0198 21.458 21.0078 21.458 22.1038" stroke="white" stroke-width="1.61504" stroke-linecap="round" stroke-linejoin="round"/>
<path d="M18.1314 24.8142C19.4768 24.8142 20.6897 25.4744 21.2047 26.4869C21.7197 27.4995 21.4349 28.665 20.4835 29.4399C19.532 30.2149 18.1015 30.4467 16.8586 30.0273C15.6151 29.6079 14.8047 28.6199 14.8047 27.5239" stroke="white" stroke-width="1.61504" stroke-linecap="round" stroke-linejoin="round"/>
<path d="M18.1315 17.3608V32.2345" stroke="white" stroke-width="1.61504" stroke-linecap="round" stroke-linejoin="round"/>
<ellipse cx="13.0392" cy="62.7661" rx="5.43906" ry="5.53781" fill="#DAE3FD"/>
<ellipse cx="209.194" cy="121.768" rx="8.49854" ry="8.65283" fill="#EBEFFC"/>
<g filter="url(#filter2_b)">
<ellipse cx="217.006" cy="74.9649" rx="23.5357" ry="23.1259" transform="rotate(90 217.006 74.9649)" fill="#EBEFFB" fill-opacity="0.5"/>
</g>
<path d="M217.706 98.4993C204.547 98.4993 193.879 87.7049 193.879 74.3896" stroke="#98B0F8" stroke-width="1.13735" stroke-linecap="round" stroke-linejoin="round"/>
<g clip-path="url(#clip0)">
<path d="M205.883 83.1467L218.316 83.3897" stroke="#6075BB" stroke-width="1.13735" stroke-miterlimit="22.9256" stroke-linecap="round" stroke-linejoin="round"/>
<path d="M206.727 83.001L206.934 72.0073L211.114 72.089L210.907 83.0827" fill="#E7446C"/>
<path d="M213.374 83.1312L213.671 67.373L217.851 67.4547L217.554 83.2128" fill="#E7446C"/>
<path d="M220.155 75.8367L220.41 62.3066L224.59 62.3883L224.374 73.8446" fill="#E7446C"/>
<path d="M224.785 74.1301C221.143 74.0589 218.133 77.0079 218.063 80.7162C217.993 84.4244 220.89 87.4888 224.532 87.5599C228.174 87.6311 231.184 84.6821 231.254 80.9739C231.324 77.2656 228.427 74.2013 224.785 74.1301Z" stroke="#6075BB" stroke-width="1.13735" stroke-miterlimit="22.9256" stroke-linecap="round" stroke-linejoin="round"/>
<path d="M227.213 77.9645C226.701 78.1704 222.411 82.7757 221.678 83.4555" stroke="#6075BB" stroke-width="1.13735" stroke-miterlimit="22.9256" stroke-linecap="round" stroke-linejoin="round"/>
<path d="M227.123 82.7289L227.213 77.9645L222.533 77.873" stroke="#6075BB" stroke-width="1.13735" stroke-miterlimit="22.9256" stroke-linecap="round" stroke-linejoin="round"/>
</g>
<defs>
<filter id="filter0_b" x="25.5889" y="-7.84836" width="132.745" height="205.008" filterUnits="userSpaceOnUse" color-interpolation-filters="sRGB">
<feFlood flood-opacity="0" result="BackgroundImageFix"/>
<feGaussianBlur in="BackgroundImage" stdDeviation="7.39281"/>
<feComposite in2="SourceAlpha" operator="in" result="effect1_backgroundBlur"/>
<feBlend mode="normal" in="SourceGraphic" in2="effect1_backgroundBlur" result="shape"/>
</filter>
<filter id="filter1_b" x="-10.6223" y="-4.68774" width="58.5818" height="59.2759" filterUnits="userSpaceOnUse" color-interpolation-filters="sRGB">
<feFlood flood-opacity="0" result="BackgroundImageFix"/>
<feGaussianBlur in="BackgroundImage" stdDeviation="5.31116"/>
<feComposite in2="SourceAlpha" operator="in" result="effect1_backgroundBlur"/>
<feBlend mode="normal" in="SourceGraphic" in2="effect1_backgroundBlur" result="shape"/>
</filter>
<filter id="filter2_b" x="183.258" y="40.8069" width="67.4964" height="68.316" filterUnits="userSpaceOnUse" color-interpolation-filters="sRGB">
<feFlood flood-opacity="0" result="BackgroundImageFix"/>
<feGaussianBlur in="BackgroundImage" stdDeviation="5.31116"/>
<feComposite in2="SourceAlpha" operator="in" result="effect1_backgroundBlur"/>
<feBlend mode="normal" in="SourceGraphic" in2="effect1_backgroundBlur" result="shape"/>
</filter>
<clipPath id="clip0">
<rect width="26.4161" height="26.2785" fill="white" transform="matrix(0.999809 0.0195358 -0.0188455 0.999822 205.747 61.4646)"/>
</clipPath>
</defs>
</svg>
