<svg xmlns="http://www.w3.org/2000/svg" width="94" height="80" viewBox="0 0 94 80">
    <g fill="none" fill-rule="evenodd">
        <g transform="translate(1) translate(11.429)">
            <circle cx="40" cy="40" r="40" fill="#FFF"/>
            <path fill="#939393" d="M32.332 40.784c-.773.108-1.316.82-1.206 1.598.547 3.913 3.374 7.17 7.256 8.21 3.883 1.041 7.96-.367 10.39-3.482.484-.618.37-1.506-.245-1.987-.615-.483-1.507-.37-1.987.245-1.737 2.226-4.65 3.231-7.424 2.488-2.775-.743-4.795-3.07-5.186-5.866-.108-.774-.824-1.317-1.598-1.206zm20.051-4.126c-1.466 5.474 6.744 7.674 8.21 2.2 1.467-5.473-6.743-7.673-8.21-2.2zM29.73 27.655c-1.844-.494-3.779-.239-5.462.678-.686.373-.939 1.233-.565 1.92.376.687 1.235.943 1.923.566 1.052-.572 2.242-.73 3.37-.427 1.84.493 3.18 2.126 3.43 4.14l.023.217c.066.78.751 1.356 1.532 1.29.78-.066 1.356-.751 1.29-1.531-.276-3.268-2.448-6.024-5.541-6.853z"/>
        </g>
        <path fill="#333" fill-rule="nonzero" d="M61.149 1.197C82.579 6.54 95.62 28.244 90.277 49.675 84.934 71.105 63.23 84.145 41.8 78.803 29.416 75.715 19.834 67.164 14.982 56.36l-.3-.685c-5.239.305-7.572-3.26-9.536-7.152l-.254-.51-3.372-6.908c-.901-1.849-.131-4.086 1.717-4.987.533-.26 1.1-.382 1.655-.376.098-1.283.849-2.478 2.084-3.08.575-.28 1.192-.397 1.79-.372.165-1.195.902-2.29 2.062-2.856.29-.141.585-.24.885-.301l.225-.039L9.015 23.1c-.902-1.848-.132-4.085 1.717-4.987 1.782-.87 3.926-.184 4.885 1.523l.101.194.564 1.157C24.749 5.288 43.046-3.316 61.149 1.197zm-.691 2.772C42.943-.398 25.232 8.459 17.855 24.214l4.109 8.426c.272-.265.593-.491.95-.666 1.783-.869 3.927-.184 4.886 1.524l.101.194 1.26 2.586c1.962 4.093 3.574 8.283-.042 12.376l-.232.256 1.619 3.319c.312.64.045 1.415-.595 1.727-.598.291-1.312.078-1.659-.472l-.068-.123-2.027-4.155c-.24-.49-.138-1.073.227-1.456l.304-.286c2.947-2.854 2.312-5.435.365-9.596l-.287-.606-1.185-2.435c-.276-.566-.966-.804-1.532-.528-.526.257-.768.87-.58 1.41l.052.123.784 1.607c.312.64.045 1.415-.595 1.727-.598.292-1.312.079-1.659-.471l-.068-.123-8.588-17.609c-.276-.566-.967-.804-1.533-.528-.525.257-.768.87-.579 1.41l.051.123 5.546 11.38c.312.64.046 1.415-.595 1.727-.597.291-1.312.078-1.658-.472l-.069-.123-1.064-2.182c-.276-.566-.967-.804-1.533-.528-.525.257-.768.87-.579 1.41l.052.123 1.064 2.182c.312.64.046 1.415-.595 1.727-.597.292-1.312.079-1.658-.471l-.069-.123-.532-1.092c-.276-.566-.967-.804-1.533-.528-.526.256-.768.87-.58 1.41l.052.123 1.21 2.48c.312.64.045 1.414-.595 1.726-.598.292-1.312.079-1.659-.472l-.068-.123-.569-1.166c-.276-.566-.967-.804-1.533-.528-.525.257-.768.87-.579 1.41l.051.123 3.228 6.615c2.271 4.6 3.841 6.988 8.062 6.451l.299-.042.148-.027c.525-.093 1.043.14 1.321.582l.07.125 2.027 4.155c.058.12.096.245.116.37 4.946 8.8 13.296 15.307 23.379 17.821 19.9 4.962 40.053-7.148 45.014-27.047 4.962-19.9-7.148-40.054-27.047-45.015z" transform="translate(1)"/>
    </g>
</svg>
