<svg width="327" height="251" viewBox="0 0 327 251" fill="none" xmlns="http://www.w3.org/2000/svg">
<path d="M294 235.311L31.5 235.812" stroke="#98B0F8" stroke-width="1.20397" stroke-linecap="round" stroke-linejoin="round"/>
<g filter="url(#filter0_b)">
<rect x="47.2212" y="190.818" width="68.2229" height="14.1956" fill="#EBEFFB" fill-opacity="0.4"/>
</g>
<rect x="47.2212" y="208.243" width="68.2229" height="14.1956" fill="#98B0F8" fill-opacity="0.2"/>
<g filter="url(#filter1_b)">
<rect x="47.2212" y="225.579" width="68.2233" height="9.7506" fill="#EBEFFB" fill-opacity="0.4"/>
</g>
<rect x="47.2212" y="172.976" width="68.2229" height="14.1956" fill="#98B0F8" fill-opacity="0.2"/>
<g filter="url(#filter2_b)">
<rect x="47.2217" y="155.138" width="68.2229" height="14.1956" fill="#EBEFFB" fill-opacity="0.4"/>
</g>
<ellipse cx="98.0609" cy="186.195" rx="30.639" ry="30.6781" fill="#98B0F8" fill-opacity="0.7"/>
<path d="M97.2719 185.365C93.9189 185.365 90.8959 183.749 89.6124 181.27C88.3289 178.792 89.0386 175.939 91.4099 174.042C93.7813 172.145 97.3466 171.577 100.444 172.604C103.544 173.631 105.563 176.049 105.563 178.732" stroke="white" stroke-width="3.31655" stroke-linecap="round" stroke-linejoin="round"/>
<path d="M97.2719 185.366C100.625 185.366 103.648 186.982 104.931 189.46C106.215 191.939 105.505 194.792 103.134 196.689C100.763 198.586 97.1972 199.153 94.0996 198.127C91.0002 197.1 88.9805 194.682 88.9805 191.999" stroke="white" stroke-width="3.31655" stroke-linecap="round" stroke-linejoin="round"/>
<path d="M97.2715 167.123V203.532" stroke="white" stroke-width="3.31655" stroke-linecap="round" stroke-linejoin="round"/>
<path d="M252.718 230.576V223.375L246.081 229.468L243.869 210.359L226.447 222.821L224.235 214.513L218.151 220.606V210.636L210.685 219.498L204.048 199.559L195.752 220.066L183.584 204.82L174.458 225.591V215.621L169.204 225.314L165.609 212.298L155.653 227.806L140.444 208.698L135.743 227.529L131.318 222.268L128 235.311H255.76L256.866 230.299L252.718 230.576Z" fill="#EBEFFB"/>
<path d="M192.453 98.1111L170.425 99.5246L195.831 144.651L176.768 197.299L201.223 212.886L200.985 205.088C200.985 205.088 217.578 187.091 230.197 146.531C242.816 105.971 192.453 98.1111 192.453 98.1111Z" fill="#6177B9"/>
<path d="M281.192 90.6306H211.09L215.898 48.5569H286L281.192 90.6306Z" fill="#EBEFFB"/>
<path fill-rule="evenodd" clip-rule="evenodd" d="M278.408 87.0412H208.306L213.115 44.9675H283.217L278.408 87.0412Z" stroke="#98B0F8" stroke-width="1.30379" stroke-linecap="round" stroke-linejoin="round"/>
<path d="M248.153 102.992L249.976 87.041H238.764L236.941 102.992H248.153Z" fill="black"/>
<g filter="url(#filter3_b)">
<path d="M249.528 196.224C249.528 196.224 244.613 101.023 179.366 101.328L148.396 108.944C148.396 108.944 140.697 151.19 205.131 148.773L228.488 209.207L253.859 200.343L249.528 196.224Z" fill="#98B0F8" fill-opacity="0.6"/>
</g>
<path d="M249.528 196.224C249.528 196.224 244.613 101.023 179.366 101.328" stroke="#98B0F8" stroke-width="1.30379" stroke-linecap="round" stroke-linejoin="round"/>
<path d="M148.396 108.944C148.396 108.944 140.697 151.19 205.131 148.773L228.488 209.207" stroke="#98B0F8" stroke-width="1.30379" stroke-linecap="round" stroke-linejoin="round"/>
<path d="M177.546 31.3964V42.8983L163.304 46.4004V26.9904L177.546 23.4883V31.3964Z" fill="#EBEFFB"/>
<ellipse cx="169.5" cy="34.9955" rx="0.380795" ry="0.380969" fill="#6177B9"/>
<ellipse cx="175.349" cy="34.9955" rx="0.380795" ry="0.380969" fill="#6177B9"/>
<path d="M173.633 37.2675V31.3962H176.573" stroke="#98B0F8" stroke-width="1.30379" stroke-linecap="round" stroke-linejoin="round"/>
<path d="M168.784 31.3974H171.724" stroke="#98B0F8" stroke-width="1.30379" stroke-linecap="round" stroke-linejoin="round"/>
<path d="M164.242 34.4048V36.4436C163.143 36.4436 162.251 35.5521 162.251 34.4523C162.251 34.3912 162.254 34.3308 162.26 34.271C162.371 33.0345 164.242 33.1632 164.242 34.4048Z" fill="#EDEEEF"/>
<path d="M164.242 36.4438C163.143 36.4438 162.251 35.5522 162.251 34.4524" stroke="#98B0F8" stroke-width="1.30379" stroke-linecap="round" stroke-linejoin="round"/>
<path d="M171.605 39.0631C170.492 39.0631 169.59 38.1607 169.59 37.0476" stroke="#FF584B" stroke-width="1.30379" stroke-linecap="round" stroke-linejoin="round"/>
<path d="M177.546 42.8987L163.304 46.4007" stroke="#98B0F8" stroke-width="1.30379" stroke-linecap="round" stroke-linejoin="round"/>
<path d="M173.633 37.2717L172.348 37.5879" stroke="#98B0F8" stroke-width="1.30379" stroke-linecap="round" stroke-linejoin="round"/>
<path d="M192.453 66.9979V98.1119L148.396 108.945V74.2928C148.396 62.0057 156.781 51.306 168.707 48.3733H168.707C174.427 46.9669 180.475 48.269 185.11 51.9045C189.745 55.54 192.453 61.1054 192.453 66.9979V66.9979Z" fill="#FF584B"/>
<path d="M164.241 33.4057C165.334 32.064 166.112 30.4945 166.519 28.8125C166.519 28.8125 174.968 31.5994 178.433 26.9323C180.003 24.8169 179.273 22.7526 178.536 21.5332C178.424 21.3398 178.22 21.2189 177.997 21.2145C177.774 21.2103 177.565 21.3231 177.447 21.512C177.104 22.1126 176.296 22.6051 174.406 21.8958C171.219 20.7005 164.588 21.09 163.532 25.1191C163.532 25.1191 158.833 26.4286 162.869 33.4632" stroke="#98B0F8" stroke-width="1.30379" stroke-linecap="round" stroke-linejoin="round"/>
<path d="M188.299 102.993H284.229" stroke="#98B0F8" stroke-width="1.30379" stroke-linecap="round" stroke-linejoin="round"/>
<path d="M158.951 53.0273C158.951 53.0273 140.79 67.9478 136.226 92.0633C131.662 116.179 167.853 110.384 185.091 103.285" stroke="#98B0F8" stroke-width="1.30379" stroke-linecap="round" stroke-linejoin="round"/>
<path d="M155.423 90.6302C155.423 90.6302 196.368 83.3895 199.187 101.328" stroke="#98B0F8" stroke-width="1.30379" stroke-linecap="round" stroke-linejoin="round"/>
<path d="M186.417 53.0273C186.417 53.0273 199.266 66.2927 202.655 90.6307C202.655 90.6307 215.688 91.0792 216.21 101.329" stroke="#98B0F8" stroke-width="1.30379" stroke-linecap="round" stroke-linejoin="round"/>
<path d="M151.369 60.8899C151.369 60.8899 145.53 48.7587 140.697 59.2345C135.864 69.7103 114.747 138.743 137.031 150.293C159.316 161.844 191.903 155.5 191.903 155.5" stroke="#98B0F8" stroke-width="1.30379" stroke-linecap="round" stroke-linejoin="round"/>
<path d="M167.276 157.234V234.977H140.697" stroke="#98B0F8" stroke-width="1.30379" stroke-linecap="round" stroke-linejoin="round"/>
<defs>
<filter id="filter0_b" x="33.045" y="176.641" width="96.5754" height="42.5481" filterUnits="userSpaceOnUse" color-interpolation-filters="sRGB">
<feFlood flood-opacity="0" result="BackgroundImageFix"/>
<feGaussianBlur in="BackgroundImage" stdDeviation="7.08812"/>
<feComposite in2="SourceAlpha" operator="in" result="effect1_backgroundBlur"/>
<feBlend mode="normal" in="SourceGraphic" in2="effect1_backgroundBlur" result="shape"/>
</filter>
<filter id="filter1_b" x="33.045" y="211.402" width="96.5758" height="38.1031" filterUnits="userSpaceOnUse" color-interpolation-filters="sRGB">
<feFlood flood-opacity="0" result="BackgroundImageFix"/>
<feGaussianBlur in="BackgroundImage" stdDeviation="7.08812"/>
<feComposite in2="SourceAlpha" operator="in" result="effect1_backgroundBlur"/>
<feBlend mode="normal" in="SourceGraphic" in2="effect1_backgroundBlur" result="shape"/>
</filter>
<filter id="filter2_b" x="33.0454" y="140.962" width="96.5754" height="42.548" filterUnits="userSpaceOnUse" color-interpolation-filters="sRGB">
<feFlood flood-opacity="0" result="BackgroundImageFix"/>
<feGaussianBlur in="BackgroundImage" stdDeviation="7.08812"/>
<feComposite in2="SourceAlpha" operator="in" result="effect1_backgroundBlur"/>
<feBlend mode="normal" in="SourceGraphic" in2="effect1_backgroundBlur" result="shape"/>
</filter>
<filter id="filter3_b" x="130.39" y="83.6069" width="141.19" height="143.32" filterUnits="userSpaceOnUse" color-interpolation-filters="sRGB">
<feFlood flood-opacity="0" result="BackgroundImageFix"/>
<feGaussianBlur in="BackgroundImage" stdDeviation="8.86015"/>
<feComposite in2="SourceAlpha" operator="in" result="effect1_backgroundBlur"/>
<feBlend mode="normal" in="SourceGraphic" in2="effect1_backgroundBlur" result="shape"/>
</filter>
</defs>
</svg>
