<svg width="360" height="176" viewBox="0 0 360 176" fill="none" xmlns="http://www.w3.org/2000/svg">
<g opacity="0.5">
<rect y="65" width="40" height="40" rx="20" fill="#882345"/>
<path d="M24.0957 87.6865C24.0957 88.6885 23.7939 89.4883 23.1904 90.0859C22.5869 90.6836 21.7578 91.0381 20.7031 91.1494V92.8281H19.3936V91.1582C18.749 91.0879 18.166 90.9092 17.6445 90.6221C17.123 90.335 16.7012 89.9102 16.3789 89.3477C16.0625 88.7852 15.9043 88.0791 15.9043 87.2295H17.5479C17.5479 88.1377 17.7852 88.791 18.2598 89.1895C18.7344 89.582 19.3115 89.7783 19.9912 89.7783C20.7646 89.7783 21.3682 89.5938 21.8018 89.2246C22.2354 88.8496 22.4521 88.3428 22.4521 87.7041C22.4521 87.165 22.2617 86.708 21.8809 86.333C21.5059 85.958 20.873 85.6211 19.9824 85.3223C18.8047 84.9648 17.9111 84.4873 17.3018 83.8896C16.6982 83.292 16.3965 82.498 16.3965 81.5078C16.3965 80.8633 16.5225 80.2949 16.7744 79.8027C17.0322 79.3105 17.3955 78.915 17.8643 78.6162C18.3389 78.3174 18.8984 78.1299 19.543 78.0537V76.1289H20.8701V78.0625C21.8604 78.1914 22.625 78.6074 23.1641 79.3105C23.709 80.0078 23.9814 80.9482 23.9814 82.1318H22.3467C22.3467 81.6045 22.2617 81.1387 22.0918 80.7344C21.9277 80.3242 21.6816 80.0049 21.3535 79.7764C21.0312 79.542 20.6416 79.4248 20.1846 79.4248C19.4756 79.4248 18.9395 79.6094 18.5762 79.9785C18.2188 80.3477 18.04 80.8486 18.04 81.4814C18.04 81.8682 18.1162 82.2021 18.2686 82.4834C18.4209 82.7588 18.6787 83.0078 19.042 83.2305C19.4053 83.4531 19.9092 83.6729 20.5537 83.8896C21.3447 84.1475 21.998 84.4404 22.5137 84.7686C23.0293 85.0908 23.4219 85.4893 23.6914 85.9639C23.9609 86.4385 24.0957 87.0127 24.0957 87.6865Z" fill="white"/>
</g>
<path d="M1.4002 130V120.047H3.16387V130H1.4002ZM8.99238 122.467C9.74434 122.467 10.3231 122.686 10.7287 123.123C11.1389 123.556 11.3439 124.258 11.3439 125.229V130H9.6418V125.215C9.6418 124.723 9.5347 124.374 9.32051 124.169C9.11087 123.959 8.78731 123.854 8.34981 123.854C8.03079 123.854 7.74596 123.932 7.49531 124.087C7.24466 124.242 7.04414 124.458 6.89375 124.736V130H5.1916V122.604H6.79121L6.8459 123.458C7.11022 123.139 7.42468 122.895 7.78926 122.727C8.15384 122.553 8.55488 122.467 8.99238 122.467ZM14.0689 119.773C14.3652 119.773 14.5999 119.86 14.773 120.033C14.9462 120.202 15.0328 120.418 15.0328 120.683C15.0328 120.942 14.9462 121.157 14.773 121.325C14.5999 121.494 14.3652 121.578 14.0689 121.578C13.7727 121.578 13.538 121.496 13.3648 121.332C13.1917 121.163 13.1051 120.947 13.1051 120.683C13.1051 120.418 13.1917 120.202 13.3648 120.033C13.538 119.86 13.7727 119.773 14.0689 119.773ZM13.2145 130V122.604H14.9166V130H13.2145ZM22.8916 127.539C22.8779 128.013 22.7344 128.448 22.4609 128.845C22.1875 129.241 21.8229 129.556 21.3672 129.788C20.9115 130.021 20.4124 130.137 19.8701 130.137C19.1364 130.137 18.5143 129.973 18.0039 129.645C17.498 129.316 17.1198 128.872 16.8691 128.312C16.6185 127.746 16.4932 127.115 16.4932 126.418V126.186C16.4932 125.488 16.6185 124.859 16.8691 124.299C17.1243 123.734 17.5049 123.287 18.0107 122.959C18.5166 122.631 19.1341 122.467 19.8633 122.467C20.4512 122.467 20.9707 122.585 21.4219 122.822C21.8776 123.055 22.2331 123.383 22.4883 123.807C22.7435 124.23 22.8779 124.716 22.8916 125.263H21.2852C21.2715 124.998 21.2054 124.759 21.0869 124.545C20.9684 124.326 20.8021 124.153 20.5879 124.025C20.3783 123.898 20.1299 123.834 19.8428 123.834C19.2367 123.834 18.8105 124.055 18.5645 124.497C18.3184 124.939 18.1953 125.502 18.1953 126.186V126.418C18.1953 127.986 18.7467 128.77 19.8496 128.77C20.1094 128.77 20.3464 128.717 20.5605 128.612C20.7747 128.507 20.9456 128.362 21.0732 128.175C21.2008 127.988 21.2715 127.776 21.2852 127.539H22.8916ZM25.1928 119.773C25.489 119.773 25.7237 119.86 25.8969 120.033C26.0701 120.202 26.1566 120.418 26.1566 120.683C26.1566 120.942 26.0701 121.157 25.8969 121.325C25.7237 121.494 25.489 121.578 25.1928 121.578C24.8965 121.578 24.6618 121.496 24.4887 121.332C24.3155 121.163 24.2289 120.947 24.2289 120.683C24.2289 120.418 24.3155 120.202 24.4887 120.033C24.6618 119.86 24.8965 119.773 25.1928 119.773ZM24.3383 130V122.604H26.0404V130H24.3383ZM33.783 128.277C33.783 128.952 33.8764 129.487 34.0633 129.884V130H32.327C32.254 129.84 32.1902 129.61 32.1355 129.31C31.9031 129.56 31.6251 129.761 31.3016 129.911C30.978 130.062 30.6111 130.137 30.201 130.137C29.7179 130.137 29.285 130.041 28.9021 129.85C28.5193 129.658 28.2208 129.394 28.0066 129.057C27.7924 128.719 27.6854 128.341 27.6854 127.922C27.6854 127.133 27.977 126.53 28.5604 126.11C29.1482 125.691 29.9799 125.481 31.0555 125.481H32.0809V125.003C32.0809 124.611 31.9738 124.306 31.7596 124.087C31.5454 123.864 31.2286 123.752 30.8094 123.752C30.5587 123.752 30.3377 123.795 30.1463 123.882C29.9549 123.968 29.8068 124.087 29.702 124.237C29.5971 124.388 29.5447 124.556 29.5447 124.743H27.8426C27.8426 124.347 27.9679 123.975 28.2186 123.629C28.4738 123.278 28.8338 122.998 29.2986 122.788C29.768 122.574 30.3035 122.467 30.9051 122.467C31.4702 122.467 31.9692 122.562 32.4021 122.754C32.8351 122.945 33.1723 123.232 33.4139 123.615C33.66 123.998 33.783 124.465 33.783 125.017V128.277ZM30.5291 128.776C30.8846 128.776 31.199 128.692 31.4725 128.523C31.7505 128.355 31.9533 128.152 32.0809 127.915V126.534H31.1922C30.5997 126.534 30.1508 126.641 29.8455 126.855C29.5402 127.07 29.3875 127.37 29.3875 127.758C29.3875 128.059 29.4878 128.305 29.6883 128.496C29.8888 128.683 30.1691 128.776 30.5291 128.776ZM38.9279 122.467C39.0236 122.467 39.1307 122.476 39.2492 122.494C39.3723 122.512 39.4634 122.533 39.5227 122.556L39.509 124.162C39.2811 124.126 39.0555 124.107 38.8322 124.107C38.0712 124.107 37.5607 124.392 37.301 124.962V130H35.5988V122.604H37.2189L37.2668 123.438C37.4536 123.128 37.6861 122.888 37.9641 122.72C38.2421 122.551 38.5633 122.467 38.9279 122.467Z" fill="#6B6B6B"/>
<line opacity="0.5" x1="44" y1="87" x2="114.5" y2="87" stroke="#882345" stroke-width="2"/>
<path fill-rule="evenodd" clip-rule="evenodd" d="M170.5 140C199.219 140 222.5 116.719 222.5 88C222.5 59.2812 199.219 36 170.5 36C141.781 36 118.5 59.2812 118.5 88C118.5 116.719 141.781 140 170.5 140ZM218.166 88.0017C218.166 114.327 196.825 135.668 170.5 135.668C144.174 135.668 122.833 114.327 122.833 88.0017C122.833 61.6762 144.174 40.3351 170.5 40.3351C196.825 40.3351 218.166 61.6762 218.166 88.0017ZM219.611 88.0017C219.611 115.125 197.623 137.113 170.5 137.113C143.376 137.113 121.389 115.125 121.389 88.0017C121.389 60.8784 143.376 38.8906 170.5 38.8906C197.623 38.8906 219.611 60.8784 219.611 88.0017Z" fill="#882345"/>
<path d="M170.5 64.8906C157.733 64.8906 147.389 75.2347 147.389 88.0017C147.389 100.769 157.733 111.113 170.5 111.113C183.267 111.113 193.611 100.769 193.611 88.0017C193.611 75.2347 183.267 64.8906 170.5 64.8906ZM190.629 88.0017C190.629 99.0913 181.589 108.131 170.5 108.131C159.41 108.131 150.371 99.1845 150.371 88.0017C150.371 77.0053 159.317 67.8727 170.5 67.8727C181.496 67.8727 190.629 76.9121 190.629 88.0017ZM176.744 96.2956C177.209 96.6684 177.955 96.482 178.235 96.0161L179.073 94.991C179.446 94.4318 179.26 93.7795 178.794 93.4068L172.27 88.6541V74.9551C172.27 74.396 171.711 73.8369 171.152 73.8369H169.847C169.195 73.8369 168.729 74.396 168.729 74.9551V89.8655C168.729 90.2383 168.822 90.5179 169.102 90.7974L176.744 96.2956Z" fill="white"/>
<line x1="226.5" y1="87" x2="297" y2="87" stroke="#707070" stroke-width="2" stroke-dasharray="4 4"/>
<rect x="310.5" y="65" width="40" height="40" rx="20" fill="#F4F4F4"/>
<path d="M324.715 81.4902V91H323.15L323.124 90.0596C322.491 90.8037 321.562 91.1758 320.338 91.1758C319.359 91.1758 318.595 90.8887 318.044 90.3145C317.493 89.7402 317.218 88.8438 317.218 87.625V81.4902H318.861V87.6426C318.861 88.4336 319.022 88.9932 319.345 89.3213C319.673 89.6436 320.092 89.8047 320.601 89.8047C321.832 89.8047 322.655 89.3447 323.071 88.4248V81.4902H324.715ZM334.912 87.6865C334.912 88.6885 334.61 89.4883 334.007 90.0859C333.403 90.6836 332.574 91.0381 331.52 91.1494V92.8281H330.21V91.1582C329.565 91.0879 328.982 90.9092 328.461 90.6221C327.939 90.335 327.518 89.9102 327.195 89.3477C326.879 88.7852 326.721 88.0791 326.721 87.2295H328.364C328.364 88.1377 328.602 88.791 329.076 89.1895C329.551 89.582 330.128 89.7783 330.808 89.7783C331.581 89.7783 332.185 89.5938 332.618 89.2246C333.052 88.8496 333.269 88.3428 333.269 87.7041C333.269 87.165 333.078 86.708 332.697 86.333C332.322 85.958 331.689 85.6211 330.799 85.3223C329.621 84.9648 328.728 84.4873 328.118 83.8896C327.515 83.292 327.213 82.498 327.213 81.5078C327.213 80.8633 327.339 80.2949 327.591 79.8027C327.849 79.3105 328.212 78.915 328.681 78.6162C329.155 78.3174 329.715 78.1299 330.359 78.0537V76.1289H331.687V78.0625C332.677 78.1914 333.441 78.6074 333.98 79.3105C334.525 80.0078 334.798 80.9482 334.798 82.1318H333.163C333.163 81.6045 333.078 81.1387 332.908 80.7344C332.744 80.3242 332.498 80.0049 332.17 79.7764C331.848 79.542 331.458 79.4248 331.001 79.4248C330.292 79.4248 329.756 79.6094 329.393 79.9785C329.035 80.3477 328.856 80.8486 328.856 81.4814C328.856 81.8682 328.933 82.2021 329.085 82.4834C329.237 82.7588 329.495 83.0078 329.858 83.2305C330.222 83.4531 330.726 83.6729 331.37 83.8896C332.161 84.1475 332.814 84.4404 333.33 84.7686C333.846 85.0908 334.238 85.4893 334.508 85.9639C334.777 86.4385 334.912 87.0127 334.912 87.6865ZM340.267 86.8252C339.136 86.5908 338.28 86.2627 337.7 85.8408C337.126 85.4189 336.839 84.8359 336.839 84.0918C336.839 83.5879 336.986 83.125 337.279 82.7031C337.571 82.2812 337.985 81.9443 338.518 81.6924C339.057 81.4404 339.672 81.3145 340.363 81.3145C341.102 81.3145 341.746 81.4463 342.297 81.71C342.848 81.9736 343.267 82.3311 343.554 82.7822C343.847 83.2275 343.993 83.7256 343.993 84.2764H342.35C342.35 84.0068 342.271 83.7461 342.112 83.4941C341.954 83.2422 341.723 83.0371 341.418 82.8789C341.119 82.7148 340.768 82.6328 340.363 82.6328C339.936 82.6328 339.581 82.7002 339.3 82.835C339.019 82.9639 338.811 83.1367 338.676 83.3535C338.547 83.5645 338.483 83.793 338.483 84.0391C338.483 84.291 338.541 84.502 338.658 84.6719C338.781 84.8359 338.998 84.9854 339.309 85.1201C339.625 85.2549 340.079 85.3867 340.671 85.5156C341.468 85.6973 342.115 85.9111 342.613 86.1572C343.112 86.4033 343.481 86.7051 343.721 87.0625C343.967 87.4199 344.09 87.8535 344.09 88.3633C344.09 88.9141 343.938 89.4033 343.633 89.8311C343.328 90.2529 342.898 90.584 342.341 90.8242C341.784 91.0586 341.14 91.1758 340.407 91.1758C339.599 91.1758 338.899 91.0322 338.307 90.7451C337.721 90.4521 337.276 90.0684 336.971 89.5938C336.666 89.1191 336.514 88.6123 336.514 88.0732H338.157C338.181 88.4951 338.304 88.8408 338.527 89.1104C338.749 89.374 339.025 89.5645 339.353 89.6816C339.687 89.7988 340.038 89.8574 340.407 89.8574C340.835 89.8574 341.201 89.7988 341.506 89.6816C341.817 89.5586 342.051 89.3945 342.209 89.1895C342.367 88.9785 342.446 88.7412 342.446 88.4775C342.446 88.2139 342.391 87.9854 342.279 87.792C342.168 87.5986 341.954 87.4199 341.638 87.2559C341.321 87.0918 340.864 86.9482 340.267 86.8252Z" fill="#707070"/>
<path d="M307.76 127.717H303.939L303.146 130H301.293L305.046 120.047H306.222H306.639L310.406 130H308.553L307.76 127.717ZM307.261 126.288L305.846 122.207L304.431 126.288H307.261ZM317.547 127.539C317.533 128.013 317.389 128.448 317.116 128.845C316.843 129.241 316.478 129.556 316.022 129.788C315.567 130.021 315.068 130.137 314.525 130.137C313.791 130.137 313.169 129.973 312.659 129.645C312.153 129.316 311.775 128.872 311.524 128.312C311.274 127.746 311.148 127.115 311.148 126.418V126.186C311.148 125.488 311.274 124.859 311.524 124.299C311.779 123.734 312.16 123.287 312.666 122.959C313.172 122.631 313.789 122.467 314.518 122.467C315.106 122.467 315.626 122.585 316.077 122.822C316.533 123.055 316.888 123.383 317.143 123.807C317.399 124.23 317.533 124.716 317.547 125.263H315.94C315.927 124.998 315.86 124.759 315.742 124.545C315.624 124.326 315.457 124.153 315.243 124.025C315.033 123.898 314.785 123.834 314.498 123.834C313.892 123.834 313.466 124.055 313.22 124.497C312.973 124.939 312.85 125.502 312.85 126.186V126.418C312.85 127.986 313.402 128.77 314.505 128.77C314.764 128.77 315.001 128.717 315.216 128.612C315.43 128.507 315.601 128.362 315.728 128.175C315.856 127.988 315.927 127.776 315.94 127.539H317.547ZM322.213 122.467C322.309 122.467 322.416 122.476 322.534 122.494C322.657 122.512 322.749 122.533 322.808 122.556L322.794 124.162C322.566 124.126 322.341 124.107 322.117 124.107C321.356 124.107 320.846 124.392 320.586 124.962V130H318.884V122.604H320.504L320.552 123.438C320.739 123.128 320.971 122.888 321.249 122.72C321.527 122.551 321.849 122.467 322.213 122.467ZM330.188 126.835H325.369C325.401 127.213 325.499 127.548 325.663 127.84C325.827 128.132 326.048 128.359 326.326 128.523C326.608 128.688 326.936 128.77 327.31 128.77C328.076 128.77 328.691 128.469 329.156 127.867L330.065 128.749C329.796 129.146 329.422 129.476 328.944 129.74C328.465 130.005 327.887 130.137 327.208 130.137C326.488 130.137 325.859 129.982 325.321 129.672C324.783 129.357 324.371 128.929 324.084 128.387C323.796 127.844 323.653 127.236 323.653 126.562V126.281C323.653 125.52 323.799 124.853 324.09 124.278C324.382 123.7 324.783 123.253 325.294 122.938C325.804 122.624 326.378 122.467 327.016 122.467C327.713 122.467 328.299 122.619 328.773 122.925C329.247 123.23 329.6 123.659 329.833 124.21C330.07 124.757 330.188 125.393 330.188 126.117V126.835ZM328.506 125.475C328.484 124.996 328.354 124.604 328.117 124.299C327.88 123.989 327.511 123.834 327.009 123.834C326.563 123.834 326.203 123.989 325.929 124.299C325.656 124.609 325.48 125.044 325.403 125.604H328.506V125.475ZM337.746 119.5V130H336.208L336.126 129.228C335.634 129.834 334.975 130.137 334.15 130.137C333.567 130.137 333.054 129.975 332.612 129.651C332.175 129.328 331.838 128.881 331.601 128.312C331.364 127.742 331.245 127.099 331.245 126.384V126.24C331.245 125.493 331.361 124.834 331.594 124.265C331.831 123.695 332.168 123.253 332.605 122.938C333.048 122.624 333.567 122.467 334.164 122.467C334.939 122.467 335.565 122.738 336.044 123.28V119.5H337.746ZM334.581 128.742C335.256 128.742 335.743 128.446 336.044 127.854V124.723C335.748 124.144 335.265 123.854 334.595 123.854C334.039 123.854 333.624 124.076 333.351 124.518C333.082 124.96 332.947 125.534 332.947 126.24V126.384C332.947 127.086 333.079 127.655 333.344 128.093C333.613 128.526 334.025 128.742 334.581 128.742ZM340.533 119.773C340.829 119.773 341.064 119.86 341.237 120.033C341.41 120.202 341.496 120.418 341.496 120.683C341.496 120.942 341.41 121.157 341.237 121.325C341.064 121.494 340.829 121.578 340.533 121.578C340.236 121.578 340.002 121.496 339.829 121.332C339.655 121.163 339.569 120.947 339.569 120.683C339.569 120.418 339.655 120.202 339.829 120.033C340.002 119.86 340.236 119.773 340.533 119.773ZM339.678 130V122.604H341.38V130H339.678ZM346.149 128.729C346.332 128.729 346.525 128.706 346.73 128.66V129.973C346.402 130.082 346.033 130.137 345.623 130.137C345.021 130.137 344.547 129.97 344.201 129.638C343.855 129.305 343.681 128.774 343.681 128.045V123.861H342.478V122.604H343.681V120.799H345.384V122.604H346.682V123.861H345.384V127.929C345.384 128.239 345.447 128.451 345.575 128.564C345.703 128.674 345.894 128.729 346.149 128.729ZM353.899 128.277C353.899 128.952 353.992 129.487 354.179 129.884V130H352.443C352.37 129.84 352.306 129.61 352.251 129.31C352.019 129.56 351.741 129.761 351.417 129.911C351.094 130.062 350.727 130.137 350.317 130.137C349.834 130.137 349.401 130.041 349.018 129.85C348.635 129.658 348.336 129.394 348.122 129.057C347.908 128.719 347.801 128.341 347.801 127.922C347.801 127.133 348.093 126.53 348.676 126.11C349.264 125.691 350.096 125.481 351.171 125.481H352.196V125.003C352.196 124.611 352.089 124.306 351.875 124.087C351.661 123.864 351.344 123.752 350.925 123.752C350.674 123.752 350.453 123.795 350.262 123.882C350.071 123.968 349.922 124.087 349.818 124.237C349.713 124.388 349.66 124.556 349.66 124.743H347.958C347.958 124.347 348.084 123.975 348.334 123.629C348.589 123.278 348.949 122.998 349.414 122.788C349.884 122.574 350.419 122.467 351.021 122.467C351.586 122.467 352.085 122.562 352.518 122.754C352.951 122.945 353.288 123.232 353.529 123.615C353.776 123.998 353.899 124.465 353.899 125.017V128.277ZM350.645 128.776C351 128.776 351.315 128.692 351.588 128.523C351.866 128.355 352.069 128.152 352.196 127.915V126.534H351.308C350.715 126.534 350.266 126.641 349.961 126.855C349.656 127.07 349.503 127.37 349.503 127.758C349.503 128.059 349.603 128.305 349.804 128.496C350.004 128.683 350.285 128.776 350.645 128.776ZM359.044 122.467C359.139 122.467 359.246 122.476 359.365 122.494C359.488 122.512 359.579 122.533 359.638 122.556L359.625 124.162C359.397 124.126 359.171 124.107 358.948 124.107C358.187 124.107 357.676 124.392 357.417 124.962V130H355.714V122.604H357.335L357.382 123.438C357.569 123.128 357.802 122.888 358.08 122.72C358.358 122.551 358.679 122.467 359.044 122.467Z" fill="#707070"/>
</svg>
