<svg width="361" height="104" viewBox="0 0 361 104" fill="none" xmlns="http://www.w3.org/2000/svg">
<g opacity="0.5">
<rect x="0.277344" y="29" width="40" height="40" rx="20" fill="#882345"/>
<path d="M24.373 51.6865C24.373 52.6885 24.0713 53.4883 23.4678 54.0859C22.8643 54.6836 22.0352 55.0381 20.9805 55.1494V56.8281H19.6709V55.1582C19.0264 55.0879 18.4434 54.9092 17.9219 54.6221C17.4004 54.335 16.9785 53.9102 16.6562 53.3477C16.3398 52.7852 16.1816 52.0791 16.1816 51.2295H17.8252C17.8252 52.1377 18.0625 52.791 18.5371 53.1895C19.0117 53.582 19.5889 53.7783 20.2686 53.7783C21.042 53.7783 21.6455 53.5938 22.0791 53.2246C22.5127 52.8496 22.7295 52.3428 22.7295 51.7041C22.7295 51.165 22.5391 50.708 22.1582 50.333C21.7832 49.958 21.1504 49.6211 20.2598 49.3223C19.082 48.9648 18.1885 48.4873 17.5791 47.8896C16.9756 47.292 16.6738 46.498 16.6738 45.5078C16.6738 44.8633 16.7998 44.2949 17.0518 43.8027C17.3096 43.3105 17.6729 42.915 18.1416 42.6162C18.6162 42.3174 19.1758 42.1299 19.8203 42.0537V40.1289H21.1475V42.0625C22.1377 42.1914 22.9023 42.6074 23.4414 43.3105C23.9863 44.0078 24.2588 44.9482 24.2588 46.1318H22.624C22.624 45.6045 22.5391 45.1387 22.3691 44.7344C22.2051 44.3242 21.959 44.0049 21.6309 43.7764C21.3086 43.542 20.9189 43.4248 20.4619 43.4248C19.7529 43.4248 19.2168 43.6094 18.8535 43.9785C18.4961 44.3477 18.3174 44.8486 18.3174 45.4814C18.3174 45.8682 18.3936 46.2021 18.5459 46.4834C18.6982 46.7588 18.9561 47.0078 19.3193 47.2305C19.6826 47.4531 20.1865 47.6729 20.8311 47.8896C21.6221 48.1475 22.2754 48.4404 22.791 48.7686C23.3066 49.0908 23.6992 49.4893 23.9688 49.9639C24.2383 50.4385 24.373 51.0127 24.373 51.6865Z" fill="white"/>
</g>
<path opacity="0.5" d="M1.67754 94V84.0469H3.44121V94H1.67754ZM9.26973 86.4668C10.0217 86.4668 10.6005 86.6855 11.0061 87.123C11.4162 87.556 11.6213 88.2578 11.6213 89.2285V94H9.91914V89.2148C9.91914 88.7227 9.81204 88.374 9.59785 88.1689C9.38822 87.9593 9.06465 87.8545 8.62715 87.8545C8.30814 87.8545 8.02331 87.932 7.77266 88.0869C7.52201 88.2419 7.32149 88.4583 7.17109 88.7363V94H5.46895V86.6035H7.06856L7.12324 87.458C7.38757 87.139 7.70202 86.8952 8.0666 86.7266C8.43119 86.5534 8.83223 86.4668 9.26973 86.4668ZM14.3463 83.7734C14.6425 83.7734 14.8772 83.86 15.0504 84.0332C15.2236 84.2018 15.3102 84.4183 15.3102 84.6826C15.3102 84.9424 15.2236 85.1566 15.0504 85.3252C14.8772 85.4938 14.6425 85.5781 14.3463 85.5781C14.0501 85.5781 13.8154 85.4961 13.6422 85.332C13.469 85.1634 13.3824 84.9469 13.3824 84.6826C13.3824 84.4183 13.469 84.2018 13.6422 84.0332C13.8154 83.86 14.0501 83.7734 14.3463 83.7734ZM13.4918 94V86.6035H15.1939V94H13.4918ZM23.1689 91.5391C23.1553 92.013 23.0117 92.4482 22.7383 92.8447C22.4648 93.2412 22.1003 93.5557 21.6445 93.7881C21.1888 94.0205 20.6898 94.1367 20.1475 94.1367C19.4137 94.1367 18.7917 93.9727 18.2813 93.6445C17.7754 93.3164 17.3971 92.8721 17.1465 92.3115C16.8958 91.7464 16.7705 91.1152 16.7705 90.418V90.1855C16.7705 89.4883 16.8958 88.8594 17.1465 88.2988C17.4017 87.7337 17.7822 87.2871 18.2881 86.959C18.7939 86.6309 19.4115 86.4668 20.1406 86.4668C20.7285 86.4668 21.248 86.5853 21.6992 86.8223C22.1549 87.0547 22.5104 87.3828 22.7656 87.8066C23.0208 88.2305 23.1553 88.7158 23.1689 89.2627H21.5625C21.5488 88.9984 21.4827 88.7591 21.3643 88.5449C21.2458 88.3262 21.0794 88.153 20.8652 88.0254C20.6556 87.8978 20.4072 87.834 20.1201 87.834C19.514 87.834 19.0879 88.055 18.8418 88.4971C18.5957 88.9391 18.4727 89.502 18.4727 90.1855V90.418C18.4727 91.9857 19.0241 92.7695 20.127 92.7695C20.3867 92.7695 20.6237 92.7171 20.8379 92.6123C21.0521 92.5075 21.223 92.3617 21.3506 92.1748C21.4782 91.988 21.5488 91.776 21.5625 91.5391H23.1689ZM25.4701 83.7734C25.7663 83.7734 26.001 83.86 26.1742 84.0332C26.3474 84.2018 26.434 84.4183 26.434 84.6826C26.434 84.9424 26.3474 85.1566 26.1742 85.3252C26.001 85.4938 25.7663 85.5781 25.4701 85.5781C25.1739 85.5781 24.9392 85.4961 24.766 85.332C24.5928 85.1634 24.5063 84.9469 24.5063 84.6826C24.5063 84.4183 24.5928 84.2018 24.766 84.0332C24.9392 83.86 25.1739 83.7734 25.4701 83.7734ZM24.6156 94V86.6035H26.3178V94H24.6156ZM34.0604 92.2773C34.0604 92.9518 34.1538 93.4873 34.3406 93.8838V94H32.6043C32.5314 93.8405 32.4676 93.6104 32.4129 93.3096C32.1805 93.5602 31.9025 93.7607 31.5789 93.9111C31.2553 94.0615 30.8885 94.1367 30.4783 94.1367C29.9952 94.1367 29.5623 94.041 29.1795 93.8496C28.7967 93.6582 28.4982 93.3939 28.284 93.0566C28.0698 92.7194 27.9627 92.3411 27.9627 91.9219C27.9627 91.1335 28.2544 90.5296 28.8377 90.1104C29.4256 89.6911 30.2573 89.4814 31.3328 89.4814H32.3582V89.0029C32.3582 88.611 32.2511 88.3057 32.0369 88.0869C31.8227 87.8636 31.506 87.752 31.0867 87.752C30.8361 87.752 30.615 87.7952 30.4236 87.8818C30.2322 87.9684 30.0841 88.0869 29.9793 88.2373C29.8745 88.3877 29.8221 88.5563 29.8221 88.7432H28.1199C28.1199 88.3467 28.2452 87.9753 28.4959 87.6289C28.7511 87.278 29.1111 86.9977 29.576 86.7881C30.0454 86.5739 30.5809 86.4668 31.1824 86.4668C31.7475 86.4668 32.2466 86.5625 32.6795 86.7539C33.1124 86.9453 33.4497 87.2324 33.6912 87.6152C33.9373 87.998 34.0604 88.4652 34.0604 89.0166V92.2773ZM30.8064 92.7764C31.1619 92.7764 31.4764 92.6921 31.7498 92.5234C32.0278 92.3548 32.2306 92.152 32.3582 91.915V90.5342H31.4695C30.8771 90.5342 30.4282 90.6413 30.1229 90.8555C29.8175 91.0697 29.6648 91.3704 29.6648 91.7578C29.6648 92.0586 29.7651 92.3047 29.9656 92.4961C30.1661 92.6829 30.4464 92.7764 30.8064 92.7764ZM39.2053 86.4668C39.301 86.4668 39.4081 86.4759 39.5266 86.4941C39.6496 86.5124 39.7408 86.5329 39.8 86.5557L39.7863 88.1621C39.5585 88.1257 39.3329 88.1074 39.1096 88.1074C38.3485 88.1074 37.8381 88.3923 37.5783 88.9619V94H35.8762V86.6035H37.4963L37.5441 87.4375C37.731 87.1276 37.9634 86.8883 38.2414 86.7197C38.5194 86.5511 38.8407 86.4668 39.2053 86.4668Z" fill="#C7C7C7"/>
<line opacity="0.5" x1="44.2773" y1="51" x2="119.777" y2="51" stroke="#882345" stroke-width="2"/>
<g opacity="0.5">
<rect x="128.277" y="29" width="40" height="40" rx="20" fill="#882345"/>
<path d="M148.277 39.5C143.029 39.5 138.777 43.752 138.777 49C138.777 54.248 143.029 58.5 148.277 58.5C153.525 58.5 157.777 54.248 157.777 49C157.777 43.752 153.525 39.5 148.277 39.5ZM156.552 49C156.552 53.5585 152.836 57.2742 148.277 57.2742C143.719 57.2742 140.003 53.5968 140.003 49C140.003 44.4798 143.681 40.7258 148.277 40.7258C152.798 40.7258 156.552 44.4415 156.552 49ZM150.844 52.4093C151.035 52.5625 151.342 52.4859 151.457 52.2944L151.802 51.873C151.955 51.6431 151.878 51.375 151.687 51.2218L149.005 49.2681V43.6371C149.005 43.4073 148.775 43.1774 148.545 43.1774H148.009C147.741 43.1774 147.55 43.4073 147.55 43.6371V49.7661C147.55 49.9194 147.588 50.0343 147.703 50.1492L150.844 52.4093Z" fill="white"/>
</g>
<path opacity="0.5" d="M131.551 92.5781V94H126.321H125.022V84.0469H126.793H131.51V85.4756H126.793V88.1758H130.86V89.5703H126.793V92.5781H131.551ZM135.438 90.9102C134.59 90.7324 133.936 90.4704 133.476 90.124C133.015 89.7777 132.785 89.3083 132.785 88.7158C132.785 88.3102 132.902 87.9365 133.134 87.5947C133.371 87.2484 133.706 86.9749 134.139 86.7744C134.576 86.5693 135.08 86.4668 135.65 86.4668C136.256 86.4668 136.782 86.5693 137.229 86.7744C137.68 86.9795 138.026 87.262 138.268 87.6221C138.509 87.9775 138.63 88.3786 138.63 88.8252H136.928C136.928 88.6292 136.878 88.4492 136.778 88.2852C136.682 88.1165 136.538 87.9821 136.347 87.8818C136.155 87.7816 135.923 87.7314 135.65 87.7314C135.262 87.7314 134.964 87.818 134.754 87.9912C134.544 88.1644 134.44 88.3809 134.44 88.6406C134.44 88.8047 134.483 88.9437 134.57 89.0576C134.661 89.1715 134.816 89.2741 135.034 89.3652C135.253 89.4564 135.556 89.543 135.944 89.625C136.545 89.7526 137.044 89.9076 137.441 90.0898C137.837 90.2721 138.142 90.5091 138.357 90.8008C138.571 91.0924 138.678 91.457 138.678 91.8945C138.678 92.3275 138.553 92.7148 138.302 93.0566C138.056 93.3984 137.705 93.665 137.249 93.8564C136.793 94.0433 136.267 94.1367 135.67 94.1367C135.023 94.1367 134.462 94.0182 133.988 93.7812C133.515 93.5443 133.154 93.2367 132.908 92.8584C132.662 92.4801 132.539 92.0814 132.539 91.6621H134.187C134.205 92.0768 134.358 92.3822 134.645 92.5781C134.936 92.7741 135.287 92.8721 135.697 92.8721C136.112 92.8721 136.433 92.7923 136.661 92.6328C136.894 92.4688 137.01 92.2523 137.01 91.9834C137.01 91.8102 136.969 91.6621 136.887 91.5391C136.805 91.416 136.648 91.3021 136.415 91.1973C136.187 91.0924 135.862 90.9967 135.438 90.9102ZM143.823 86.4668C144.438 86.4668 144.962 86.6217 145.395 86.9316C145.833 87.2415 146.163 87.679 146.386 88.2441C146.61 88.8092 146.721 89.4701 146.721 90.2266V90.3701C146.721 91.0947 146.607 91.7419 146.379 92.3115C146.156 92.8812 145.828 93.3278 145.395 93.6514C144.962 93.9749 144.445 94.1367 143.843 94.1367C143.05 94.1367 142.408 93.8701 141.916 93.3369V96.8438H140.213V86.6035H141.779L141.847 87.3486C142.344 86.7607 143.003 86.4668 143.823 86.4668ZM145.019 90.2266C145.019 89.5247 144.88 88.9551 144.602 88.5176C144.329 88.0755 143.912 87.8545 143.351 87.8545C142.686 87.8545 142.207 88.1302 141.916 88.6816V91.9287C142.212 92.4893 142.695 92.7695 143.365 92.7695C143.921 92.7695 144.336 92.5462 144.609 92.0996C144.882 91.653 145.019 91.0765 145.019 90.3701V90.2266ZM154.457 90.835H149.638C149.67 91.2132 149.768 91.5482 149.932 91.8398C150.096 92.1315 150.317 92.3594 150.595 92.5234C150.877 92.6875 151.205 92.7695 151.579 92.7695C152.345 92.7695 152.96 92.4688 153.425 91.8672L154.334 92.749C154.065 93.1455 153.691 93.4759 153.213 93.7402C152.734 94.0046 152.156 94.1367 151.477 94.1367C150.757 94.1367 150.128 93.9818 149.59 93.6719C149.052 93.3574 148.64 92.929 148.353 92.3867C148.065 91.8444 147.922 91.236 147.922 90.5615V90.2812C147.922 89.5202 148.068 88.8525 148.359 88.2783C148.651 87.6995 149.052 87.2529 149.562 86.9385C150.073 86.624 150.647 86.4668 151.285 86.4668C151.982 86.4668 152.568 86.6195 153.042 86.9248C153.516 87.2301 153.869 87.6585 154.102 88.21C154.339 88.7568 154.457 89.3926 154.457 90.1172V90.835ZM152.775 89.4746C152.753 88.9961 152.623 88.6042 152.386 88.2988C152.149 87.9889 151.78 87.834 151.278 87.834C150.832 87.834 150.472 87.9889 150.198 88.2988C149.925 88.6087 149.749 89.0439 149.672 89.6045H152.775V89.4746ZM159.151 86.4668C159.246 86.4668 159.354 86.4759 159.472 86.4941C159.595 86.5124 159.686 86.5329 159.746 86.5557L159.732 88.1621C159.504 88.1257 159.278 88.1074 159.055 88.1074C158.294 88.1074 157.784 88.3923 157.524 88.9619V94H155.822V86.6035H157.442L157.49 87.4375C157.676 87.1276 157.909 86.8883 158.187 86.7197C158.465 86.5511 158.786 86.4668 159.151 86.4668ZM166.606 92.2773C166.606 92.9518 166.7 93.4873 166.887 93.8838V94H165.15C165.077 93.8405 165.013 93.6104 164.959 93.3096C164.726 93.5602 164.448 93.7607 164.125 93.9111C163.801 94.0615 163.434 94.1367 163.024 94.1367C162.541 94.1367 162.108 94.041 161.725 93.8496C161.343 93.6582 161.044 93.3939 160.83 93.0566C160.616 92.7194 160.509 92.3411 160.509 91.9219C160.509 91.1335 160.8 90.5296 161.384 90.1104C161.971 89.6911 162.803 89.4814 163.879 89.4814H164.904V89.0029C164.904 88.611 164.797 88.3057 164.583 88.0869C164.369 87.8636 164.052 87.752 163.633 87.752C163.382 87.752 163.161 87.7952 162.97 87.8818C162.778 87.9684 162.63 88.0869 162.525 88.2373C162.42 88.3877 162.368 88.5563 162.368 88.7432H160.666C160.666 88.3467 160.791 87.9753 161.042 87.6289C161.297 87.278 161.657 86.9977 162.122 86.7881C162.591 86.5739 163.127 86.4668 163.728 86.4668C164.293 86.4668 164.792 86.5625 165.225 86.7539C165.658 86.9453 165.996 87.2324 166.237 87.6152C166.483 87.998 166.606 88.4652 166.606 89.0166V92.2773ZM163.352 92.7764C163.708 92.7764 164.022 92.6921 164.296 92.5234C164.574 92.3548 164.776 92.152 164.904 91.915V90.5342H164.015C163.423 90.5342 162.974 90.6413 162.669 90.8555C162.363 91.0697 162.211 91.3704 162.211 91.7578C162.211 92.0586 162.311 92.3047 162.512 92.4961C162.712 92.6829 162.992 92.7764 163.352 92.7764ZM171.751 86.4668C171.847 86.4668 171.954 86.4759 172.072 86.4941C172.196 86.5124 172.287 86.5329 172.346 86.5557L172.332 88.1621C172.104 88.1257 171.879 88.1074 171.655 88.1074C170.894 88.1074 170.384 88.3923 170.124 88.9619V94H168.422V86.6035H170.042L170.09 87.4375C170.277 87.1276 170.509 86.8883 170.787 86.7197C171.065 86.5511 171.387 86.4668 171.751 86.4668Z" fill="#C7C7C7"/>
<line opacity="0.5" x1="176.777" y1="51" x2="252.277" y2="51" stroke="#882345" stroke-width="2"/>
<path fill-rule="evenodd" clip-rule="evenodd" d="M308.277 104C336.996 104 360.277 80.7188 360.277 52C360.277 23.2812 336.996 0 308.277 0C279.559 0 256.277 23.2812 256.277 52C256.277 80.7188 279.559 104 308.277 104ZM356.388 52C356.388 78.571 334.848 100.111 308.277 100.111C281.706 100.111 260.166 78.571 260.166 52C260.166 25.429 281.706 3.88889 308.277 3.88889C334.848 3.88889 356.388 25.429 356.388 52ZM357.388 52C357.388 79.1233 335.4 101.111 308.277 101.111C281.154 101.111 259.166 79.1233 259.166 52C259.166 24.8767 281.154 2.88889 308.277 2.88889C335.4 2.88889 357.388 24.8767 357.388 52Z" fill="#882345"/>
<path d="M298.465 62.1111V45.8931H295.439V57.1131C293.977 58.6771 292.345 59.7311 290.747 59.7311C288.979 59.7311 288.265 58.6091 288.265 56.9431V45.8931H285.239V57.6911C285.239 60.6151 286.837 62.4511 289.931 62.4511C292.209 62.4511 294.147 61.1931 295.677 59.7651L296.051 62.1111H298.465ZM312.691 39.2291L313.065 36.9511L310.821 36.4411L310.413 38.9911C310.277 38.9911 310.107 38.9911 309.971 38.9911C305.721 38.9911 302.729 41.0311 302.729 45.0091C302.729 48.3071 304.497 49.8031 308.543 51.2311C308.577 51.2311 307.285 59.5271 307.285 59.5271C305.551 59.2211 304.021 58.6091 302.593 57.7931L302.185 60.6491C303.307 61.2271 304.939 61.7711 306.809 62.0431L306.231 65.7831L308.407 66.2591L309.053 62.2471C309.155 62.2471 309.257 62.2471 309.359 62.2471C314.289 62.2471 317.077 59.7651 317.077 55.8211C317.077 52.4551 315.173 50.6191 311.059 49.1571C311.059 49.1231 312.215 41.7451 312.215 41.7451C313.541 42.0511 314.731 42.5611 315.683 43.1391L316.125 40.2831C315.207 39.8411 314.051 39.4671 312.691 39.2291ZM309.393 59.7311L310.617 51.9451C313.575 53.0671 314.255 54.2911 314.255 55.9911C314.255 58.3711 312.793 59.7311 309.597 59.7311C309.529 59.7311 309.461 59.7311 309.393 59.7311ZM310.073 41.4731C310.073 41.4731 309.019 48.4091 308.985 48.4431C306.333 47.4231 305.483 46.5051 305.483 44.7371C305.483 42.7311 306.843 41.4731 309.563 41.4731C309.733 41.4731 309.903 41.4731 310.073 41.4731ZM332.289 57.5891C332.289 54.4951 330.487 53.3391 326.475 52.3191C323.925 51.6731 323.109 51.0611 323.109 49.9731C323.109 48.8171 324.061 48.1031 325.897 48.1031C327.597 48.1031 329.399 48.6811 330.827 49.4971L331.303 46.6411C329.773 45.9611 327.971 45.5531 325.965 45.5531C322.429 45.5531 320.253 47.4571 320.253 50.0411C320.253 52.9311 321.783 54.0871 325.591 55.0391C328.515 55.7531 329.433 56.2971 329.433 57.7931C329.433 59.1531 328.209 59.9351 326.135 59.9351C323.925 59.9351 321.953 59.1191 320.423 58.0651L319.981 60.9211C321.375 61.7031 323.755 62.4511 325.897 62.4511C330.079 62.4511 332.289 60.5471 332.289 57.5891Z" fill="white"/>
</svg>
