<?xml version="1.0" encoding="UTF-8"?>
<svg width="24px" height="20px" viewBox="0 0 24 20" version="1.1" xmlns="http://www.w3.org/2000/svg" xmlns:xlink="http://www.w3.org/1999/xlink">
    <!-- Generator: sketchtool 61.2 (101010) - https://sketch.com -->
    <title>CBE22D30-363D-4682-9CF8-C778B40CE64D</title>
    <desc>Created with sketchtool.</desc>
    <g id="V2" stroke="none" stroke-width="1" fill="none" fill-rule="evenodd">
        <g id="Prueba-07.4-Aviso-Tarjeta-con-Cuenta" transform="translate(-176.000000, -404.000000)" fill="#FFA100">
            <g id="Tarjetas" transform="translate(-10.000000, 339.000000)">
                <path d="M209.688039,82.8423508 L199.259738,65.8420394 C198.566086,64.7087413 197.42998,64.7246992 196.736232,65.8579757 L186.30793,82.8347702 C185.614278,83.9680683 186.132641,84.8435688 187.45997,84.8435688 L208.534941,84.8435688 C209.863214,84.8435688 210.381571,83.9736836 209.687917,82.8422812 L209.688039,82.8423508 Z M197.989586,69.6047417 C198.656986,69.6047417 199.17443,70.3424521 199.139754,71.2442049 L198.927908,76.6773262 C198.894164,77.5781431 198.469521,78.3158535 197.986776,78.3158535 C197.503096,78.3158535 197.078449,77.5781431 197.044709,76.6773262 L196.835675,71.2442049 C196.801931,70.3424521 197.320291,69.6047417 197.989586,69.6047417 Z M197.989586,82.4082482 C197.14689,82.4082482 196.568518,81.7923937 196.586324,80.950633 C196.586324,80.0901308 197.165631,79.4930178 197.989586,79.4930178 C198.848217,79.4930178 199.390953,80.0910667 199.409719,80.950633 C199.40878,81.7923937 198.848241,82.4082482 197.989586,82.4082482 Z" id="Alert"></path>
            </g>
        </g>
    </g>
</svg>