<svg width="48" height="48" viewBox="0 0 48 48" fill="none" xmlns="http://www.w3.org/2000/svg">
<rect width="48" height="48" fill="white"/>
<path d="M26.2 30.1C30.5631 30.1 34.1 26.5631 34.1 22.2C34.1 17.837 30.5631 14.3 26.2 14.3C21.837 14.3 18.3 17.837 18.3 22.2C18.3 26.5631 21.837 30.1 26.2 30.1Z" stroke="#D52B1E" stroke-width="2.2" stroke-miterlimit="10" stroke-linecap="round" stroke-linejoin="round"/>
<path d="M15.8 39.4H7.39999V43.3H15.8V39.4Z" stroke="#D52B1E" stroke-width="2.2" stroke-miterlimit="10" stroke-linecap="round" stroke-linejoin="round"/>
<path d="M41 39.4H32.6V43.3H41V39.4Z" stroke="#D52B1E" stroke-width="2.2" stroke-miterlimit="10" stroke-linecap="round" stroke-linejoin="round"/>
<path d="M42.4 39.4H6C3.8 39.4 2 37.6 2 35.4V9C2 6.8 3.8 5 6 5H42.4C44.6 5 46.4 6.8 46.4 9V35.4C46.4 37.6 44.6 39.4 42.4 39.4Z" stroke="#D52B1E" stroke-width="2.2" stroke-miterlimit="10" stroke-linecap="round" stroke-linejoin="round"/>
<path d="M10 12.9V10C10 9.4 10.4 9 11 9H41.4C42 9 42.4 9.4 42.4 10V34.4C42.4 34.9 41.9 35.4 41.4 35.4H11C10.4 35.4 10 35 10 34.4V31.4M10 19.4V24.9" stroke="#D52B1E" stroke-width="2.2" stroke-miterlimit="10" stroke-linecap="round" stroke-linejoin="round"/>
<path d="M10.6 19.2H9.60001C8.50001 19.2 7.60001 18.3 7.60001 17.2V15C7.60001 13.9 8.50001 13 9.60001 13H10.6C11.7 13 12.6 13.9 12.6 15V17.2C12.6 18.3 11.8 19.2 10.6 19.2Z" stroke="#D52B1E" stroke-width="2.2" stroke-miterlimit="10" stroke-linecap="round" stroke-linejoin="round"/>
<path d="M10.6 31.4H9.60001C8.50001 31.4 7.60001 30.5 7.60001 29.4V27.2C7.60001 26.1 8.50001 25.2 9.60001 25.2H10.6C11.7 25.2 12.6 26.1 12.6 27.2V29.4C12.6 30.5 11.8 31.4 10.6 31.4Z" stroke="#D52B1E" stroke-width="2.2" stroke-miterlimit="10" stroke-linecap="round" stroke-linejoin="round"/>
<path d="M26.2 22C27.5255 22 28.6 20.9255 28.6 19.6C28.6 18.2745 27.5255 17.2 26.2 17.2C24.8745 17.2 23.8 18.2745 23.8 19.6C23.8 20.9255 24.8745 22 26.2 22Z" fill="#D52B1E"/>
<path d="M26.5 19.6H25.8L23.8 27.1H28.5L26.5 19.6Z" fill="#D52B1E"/>
</svg>
