<svg width="48" height="48" viewBox="0 0 48 48" fill="none" xmlns="http://www.w3.org/2000/svg">
<rect width="48" height="48" fill="white"/>
<path d="M17.2747 5.79541C9.53286 8.52134 4 15.8111 4 24.3606C4 35.2643 13.004 44.0823 24.0908 44.0823" stroke="#D52B1E" stroke-width="2.2" stroke-miterlimit="10" stroke-linecap="round"/>
<path d="M30.506 42.8855C37.7924 40.1389 42.9998 32.8698 42.9998 24.3203C42.9998 13.4166 34.5254 4.59863 24.0908 4.59863" stroke="#D52B1E" stroke-width="2.2" stroke-miterlimit="10" stroke-linecap="round"/>
<path d="M15.9891 10.1446L17.7444 5.71241L13.0996 4" stroke="#D52B1E" stroke-width="2.2" stroke-miterlimit="10" stroke-linecap="round"/>
<path d="M31.129 39.0037L29.289 43.3092L34.0288 44.9639" stroke="#D52B1E" stroke-width="2.2" stroke-miterlimit="10" stroke-linecap="round"/>
<path d="M34.9465 24.3403C34.9465 30.7355 29.817 35.9286 23.5001 35.9286C22.8589 35.9286 22.2415 35.8805 21.624 35.7843C16.1858 34.8707 12.0537 30.1104 12.0537 24.3403C12.0537 18.5701 16.2096 13.8098 21.624 12.8962C22.2415 12.8 22.8589 12.752 23.5001 12.752C29.817 12.752 34.9465 17.921 34.9465 24.3403Z" stroke="#D52B1E" stroke-width="2.2" stroke-miterlimit="10" stroke-linecap="round"/>
<path d="M19.842 26.5949C19.842 26.1581 20.2265 25.8054 20.6989 25.8054C21.1359 25.8054 21.4954 26.1059 21.5481 26.4958L21.5547 26.5949C21.5547 27.5858 22.4265 28.3891 23.4995 28.3891C24.5735 28.3891 25.4442 27.5858 25.4442 26.5949C25.4442 25.6536 24.6584 24.8816 23.659 24.8067L23.4995 24.8008C21.6268 24.8008 20.0559 23.4942 19.8631 21.7753C19.6773 20.1169 20.8299 18.592 22.5564 18.168L22.7506 18.1254L22.7506 17.3828C22.7506 16.9469 23.134 16.5932 23.6065 16.5932C24.0435 16.5932 24.4038 16.8946 24.4567 17.2838L24.4634 17.3828L24.4634 18.1733C26.0533 18.575 27.1549 19.9069 27.158 21.4274C27.158 21.8633 26.7735 22.218 26.3011 22.218C25.8803 22.218 25.5305 21.9377 25.458 21.5693L25.4442 21.4274C25.4421 20.5167 24.7028 19.7515 23.7219 19.646C23.6245 19.6597 23.526 19.6567 23.4285 19.6372C22.3703 19.6724 21.5367 20.4844 21.5558 21.4616C21.5749 22.39 22.3559 23.1428 23.3421 23.2158L23.4995 23.2216C25.3319 23.2206 26.8816 24.4715 27.1241 26.1464C27.3587 27.7593 26.3135 29.287 24.6572 29.795L24.4634 29.8491L24.4634 30.6162C24.4634 31.053 24.0799 31.4067 23.6065 31.4067C23.1704 31.4067 22.8101 31.1053 22.7573 30.7154L22.7506 30.6162L22.7506 29.8979C21.058 29.5686 19.8451 28.1907 19.842 26.5949Z" fill="#D52B1E"/>
</svg>
