<svg width="48" height="48" viewBox="0 0 48 48" fill="none" xmlns="http://www.w3.org/2000/svg">
<rect width="48" height="48" fill="white"/>
<path d="M18.7975 19H28.5806" stroke="#D52B1E" stroke-width="2.2" stroke-miterlimit="10" stroke-linecap="round" stroke-linejoin="round"/>
<path d="M18.7975 24H24.9514" stroke="#D52B1E" stroke-width="2.2" stroke-miterlimit="10" stroke-linecap="round" stroke-linejoin="round"/>
<path d="M32.5254 30.1802V14.8423C32.5254 14.2945 32.1309 13.9032 31.5786 13.9032H16.2729C15.7206 13.9032 15.3261 14.2945 15.3261 14.8423V34.1711C15.3261 34.7189 15.7206 35.1102 16.2729 35.1102H28.0283L32.5254 30.1802Z" stroke="#D52B1E" stroke-width="2.2" stroke-miterlimit="10" stroke-linecap="round" stroke-linejoin="round"/>
<path d="M25.5435 32.4031V28.1804H29.8007" stroke="#D52B1E" stroke-width="2.2" stroke-miterlimit="10" stroke-linecap="round" stroke-linejoin="round"/>
<path d="M5.1087 31.5536C7.79632 39.4457 15.1262 45.071 23.6777 45.071C32.555 45.071 40.0477 39.0259 42.5725 30.714" stroke="#D52B1E" stroke-width="2" stroke-miterlimit="10" stroke-linecap="round" stroke-linejoin="round"/>
<path d="M42.5725 15.7939C39.8178 8.23339 32.305 2.84448 23.5401 2.84448C14.5247 2.84448 6.92848 8.47468 4.25726 16.357" stroke="#D52B1E" stroke-width="2" stroke-miterlimit="10" stroke-linecap="round" stroke-linejoin="round"/>
<path d="M4.25722 25.6469C5.1977 25.6469 5.96012 24.8907 5.96012 23.9579C5.96012 23.025 5.1977 22.2688 4.25722 22.2688C3.31673 22.2688 2.55432 23.025 2.55432 23.9579C2.55432 24.8907 3.31673 25.6469 4.25722 25.6469Z" fill="#D52B1E" stroke="#D52B1E" stroke-width="2" stroke-miterlimit="10" stroke-linecap="round" stroke-linejoin="round"/>
<path d="M42.5725 25.6468C43.9832 25.6468 45.1268 24.5124 45.1268 23.1132C45.1268 21.7139 43.9832 20.5796 42.5725 20.5796C41.1617 20.5796 40.0181 21.7139 40.0181 23.1132C40.0181 24.5124 41.1617 25.6468 42.5725 25.6468Z" stroke="#D52B1E" stroke-width="2" stroke-miterlimit="10" stroke-linecap="round" stroke-linejoin="round"/>
<path d="M9.00014 15.2964L4.10935 17.6833L1.70289 12.8322" stroke="#D52B1E" stroke-width="2" stroke-linecap="round" stroke-linejoin="round"/>
<path d="M38.3152 31.7612L43.4214 29.8695L45.3287 34.9342" stroke="#D52B1E" stroke-width="2" stroke-linecap="round" stroke-linejoin="round"/>
</svg>
