<svg width="48" height="48" viewBox="0 0 48 48" fill="none" xmlns="http://www.w3.org/2000/svg">
<rect width="48" height="48" fill="white"/>
<path d="M27.9954 24.784C28.5241 25.6299 28.8414 26.5817 28.8414 27.6391C28.8414 30.4943 26.5149 32.8207 23.6598 32.8207C20.8046 32.8207 18.4781 30.4943 18.4781 27.6391C18.4781 24.784 20.8046 22.4575 23.6598 22.4575C23.977 22.4575 24.4 22.4575 24.7172 22.5633" stroke="#D52B1E" stroke-width="2.2" stroke-miterlimit="10" stroke-linecap="round" stroke-linejoin="round"/>
<path d="M24.7172 22.5632L27.2552 10.1908C26.092 9.97928 24.9287 9.87354 23.7655 9.87354C13.931 9.87354 6 17.8046 6 27.6391C6 37.4735 13.931 45.4046 23.7655 45.4046C33.6 45.4046 41.531 37.4735 41.531 27.6391C41.531 24.0436 40.4736 20.6597 38.5701 17.8046L27.9954 24.7839" stroke="#D52B1E" stroke-width="2.2" stroke-miterlimit="10" stroke-linecap="round" stroke-linejoin="round"/>
<path d="M26.9379 31.446L36.9839 39.377" stroke="#D52B1E" stroke-width="2.2"/>
<path d="M42.8 9.45057C40.5793 6.17241 37.1954 3.74023 33.177 3L30.2161 17.8046L42.8 9.45057Z" stroke="#D52B1E" stroke-width="2.2" stroke-miterlimit="10" stroke-linecap="round" stroke-linejoin="round"/>
</svg>
