<svg width="40" height="41" viewBox="0 0 40 41" fill="none" xmlns="http://www.w3.org/2000/svg">
<rect y="0.5" width="40" height="40" rx="20" fill="#882345"/>
<path d="M14.2146 16.9902V26.5H12.6502L12.6238 25.5596C11.991 26.3037 11.0623 26.6758 9.8377 26.6758C8.85918 26.6758 8.09453 26.3887 7.54375 25.8145C6.99297 25.2402 6.71758 24.3438 6.71758 23.125V16.9902H8.36113V23.1426C8.36113 23.9336 8.52227 24.4932 8.84453 24.8213C9.17266 25.1436 9.5916 25.3047 10.1014 25.3047C11.3318 25.3047 12.1551 24.8447 12.5711 23.9248V16.9902H14.2146ZM24.4121 23.1865C24.4121 24.1885 24.1104 24.9883 23.5068 25.5859C22.9033 26.1836 22.0742 26.5381 21.0195 26.6494V28.3281H19.71V26.6582C19.0654 26.5879 18.4824 26.4092 17.9609 26.1221C17.4395 25.835 17.0176 25.4102 16.6953 24.8477C16.3789 24.2852 16.2207 23.5791 16.2207 22.7295H17.8643C17.8643 23.6377 18.1016 24.291 18.5762 24.6895C19.0508 25.082 19.6279 25.2783 20.3076 25.2783C21.0811 25.2783 21.6846 25.0938 22.1182 24.7246C22.5518 24.3496 22.7686 23.8428 22.7686 23.2041C22.7686 22.665 22.5781 22.208 22.1973 21.833C21.8223 21.458 21.1895 21.1211 20.2988 20.8223C19.1211 20.4648 18.2275 19.9873 17.6182 19.3896C17.0146 18.792 16.7129 17.998 16.7129 17.0078C16.7129 16.3633 16.8389 15.7949 17.0908 15.3027C17.3486 14.8105 17.7119 14.415 18.1807 14.1162C18.6553 13.8174 19.2148 13.6299 19.8594 13.5537V11.6289H21.1865V13.5625C22.1768 13.6914 22.9414 14.1074 23.4805 14.8105C24.0254 15.5078 24.2979 16.4482 24.2979 17.6318H22.6631C22.6631 17.1045 22.5781 16.6387 22.4082 16.2344C22.2441 15.8242 21.998 15.5049 21.6699 15.2764C21.3477 15.042 20.958 14.9248 20.501 14.9248C19.792 14.9248 19.2559 15.1094 18.8926 15.4785C18.5352 15.8477 18.3564 16.3486 18.3564 16.9814C18.3564 17.3682 18.4326 17.7021 18.585 17.9834C18.7373 18.2588 18.9951 18.5078 19.3584 18.7305C19.7217 18.9531 20.2256 19.1729 20.8701 19.3896C21.6611 19.6475 22.3145 19.9404 22.8301 20.2686C23.3457 20.5908 23.7383 20.9893 24.0078 21.4639C24.2773 21.9385 24.4121 22.5127 24.4121 23.1865ZM29.7668 22.3252C28.6359 22.0908 27.7805 21.7627 27.2004 21.3408C26.6262 20.9189 26.3391 20.3359 26.3391 19.5918C26.3391 19.0879 26.4855 18.625 26.7785 18.2031C27.0715 17.7812 27.4846 17.4443 28.0178 17.1924C28.5568 16.9404 29.1721 16.8145 29.8635 16.8145C30.6018 16.8145 31.2463 16.9463 31.7971 17.21C32.3479 17.4736 32.7668 17.8311 33.0539 18.2822C33.3469 18.7275 33.4934 19.2256 33.4934 19.7764H31.8498C31.8498 19.5068 31.7707 19.2461 31.6125 18.9941C31.4543 18.7422 31.2229 18.5371 30.9182 18.3789C30.6193 18.2148 30.2678 18.1328 29.8635 18.1328C29.4357 18.1328 29.0812 18.2002 28.8 18.335C28.5187 18.4639 28.3107 18.6367 28.176 18.8535C28.0471 19.0645 27.9826 19.293 27.9826 19.5391C27.9826 19.791 28.0412 20.002 28.1584 20.1719C28.2814 20.3359 28.4982 20.4854 28.8088 20.6201C29.1252 20.7549 29.5793 20.8867 30.1711 21.0156C30.968 21.1973 31.6154 21.4111 32.1135 21.6572C32.6115 21.9033 32.9807 22.2051 33.2209 22.5625C33.467 22.9199 33.59 23.3535 33.59 23.8633C33.59 24.4141 33.4377 24.9033 33.133 25.3311C32.8283 25.7529 32.3977 26.084 31.841 26.3242C31.2844 26.5586 30.6398 26.6758 29.9074 26.6758C29.0988 26.6758 28.3986 26.5322 27.8068 26.2451C27.2209 25.9521 26.7756 25.5684 26.4709 25.0938C26.1662 24.6191 26.0139 24.1123 26.0139 23.5732H27.6574C27.6809 23.9951 27.8039 24.3408 28.0266 24.6104C28.2492 24.874 28.5246 25.0645 28.8527 25.1816C29.1867 25.2988 29.5383 25.3574 29.9074 25.3574C30.3352 25.3574 30.7014 25.2988 31.0061 25.1816C31.3166 25.0586 31.551 24.8945 31.7092 24.6895C31.8674 24.4785 31.9465 24.2412 31.9465 23.9775C31.9465 23.7139 31.8908 23.4854 31.7795 23.292C31.6682 23.0986 31.4543 22.9199 31.1379 22.7559C30.8215 22.5918 30.3645 22.4482 29.7668 22.3252Z" fill="white"/>
</svg>
