<svg width="40" height="40" viewBox="0 0 40 40" fill="none" xmlns="http://www.w3.org/2000/svg">
<rect width="40" height="40" rx="20" fill="#f4f4f4"/>
<path d="M14.2146 16.4902V26H12.6502L12.6238 25.0596C11.991 25.8037 11.0623 26.1758 9.8377 26.1758C8.85918 26.1758 8.09453 25.8887 7.54375 25.3145C6.99297 24.7402 6.71758 23.8438 6.71758 22.625V16.4902H8.36113V22.6426C8.36113 23.4336 8.52227 23.9932 8.84453 24.3213C9.17266 24.6436 9.5916 24.8047 10.1014 24.8047C11.3318 24.8047 12.1551 24.3447 12.5711 23.4248V16.4902H14.2146ZM24.4121 22.6865C24.4121 23.6885 24.1104 24.4883 23.5068 25.0859C22.9033 25.6836 22.0742 26.0381 21.0195 26.1494V27.8281H19.71V26.1582C19.0654 26.0879 18.4824 25.9092 17.9609 25.6221C17.4395 25.335 17.0176 24.9102 16.6953 24.3477C16.3789 23.7852 16.2207 23.0791 16.2207 22.2295H17.8643C17.8643 23.1377 18.1016 23.791 18.5762 24.1895C19.0508 24.582 19.6279 24.7783 20.3076 24.7783C21.0811 24.7783 21.6846 24.5938 22.1182 24.2246C22.5518 23.8496 22.7686 23.3428 22.7686 22.7041C22.7686 22.165 22.5781 21.708 22.1973 21.333C21.8223 20.958 21.1895 20.6211 20.2988 20.3223C19.1211 19.9648 18.2275 19.4873 17.6182 18.8896C17.0146 18.292 16.7129 17.498 16.7129 16.5078C16.7129 15.8633 16.8389 15.2949 17.0908 14.8027C17.3486 14.3105 17.7119 13.915 18.1807 13.6162C18.6553 13.3174 19.2148 13.1299 19.8594 13.0537V11.1289H21.1865V13.0625C22.1768 13.1914 22.9414 13.6074 23.4805 14.3105C24.0254 15.0078 24.2979 15.9482 24.2979 17.1318H22.6631C22.6631 16.6045 22.5781 16.1387 22.4082 15.7344C22.2441 15.3242 21.998 15.0049 21.6699 14.7764C21.3477 14.542 20.958 14.4248 20.501 14.4248C19.792 14.4248 19.2559 14.6094 18.8926 14.9785C18.5352 15.3477 18.3564 15.8486 18.3564 16.4814C18.3564 16.8682 18.4326 17.2021 18.585 17.4834C18.7373 17.7588 18.9951 18.0078 19.3584 18.2305C19.7217 18.4531 20.2256 18.6729 20.8701 18.8896C21.6611 19.1475 22.3145 19.4404 22.8301 19.7686C23.3457 20.0908 23.7383 20.4893 24.0078 20.9639C24.2773 21.4385 24.4121 22.0127 24.4121 22.6865ZM29.7668 21.8252C28.6359 21.5908 27.7805 21.2627 27.2004 20.8408C26.6262 20.4189 26.3391 19.8359 26.3391 19.0918C26.3391 18.5879 26.4855 18.125 26.7785 17.7031C27.0715 17.2812 27.4846 16.9443 28.0178 16.6924C28.5568 16.4404 29.1721 16.3145 29.8635 16.3145C30.6018 16.3145 31.2463 16.4463 31.7971 16.71C32.3479 16.9736 32.7668 17.3311 33.0539 17.7822C33.3469 18.2275 33.4934 18.7256 33.4934 19.2764H31.8498C31.8498 19.0068 31.7707 18.7461 31.6125 18.4941C31.4543 18.2422 31.2229 18.0371 30.9182 17.8789C30.6193 17.7148 30.2678 17.6328 29.8635 17.6328C29.4357 17.6328 29.0812 17.7002 28.8 17.835C28.5187 17.9639 28.3107 18.1367 28.176 18.3535C28.0471 18.5645 27.9826 18.793 27.9826 19.0391C27.9826 19.291 28.0412 19.502 28.1584 19.6719C28.2814 19.8359 28.4982 19.9854 28.8088 20.1201C29.1252 20.2549 29.5793 20.3867 30.1711 20.5156C30.968 20.6973 31.6154 20.9111 32.1135 21.1572C32.6115 21.4033 32.9807 21.7051 33.2209 22.0625C33.467 22.4199 33.59 22.8535 33.59 23.3633C33.59 23.9141 33.4377 24.4033 33.133 24.8311C32.8283 25.2529 32.3977 25.584 31.841 25.8242C31.2844 26.0586 30.6398 26.1758 29.9074 26.1758C29.0988 26.1758 28.3986 26.0322 27.8068 25.7451C27.2209 25.4521 26.7756 25.0684 26.4709 24.5938C26.1662 24.1191 26.0139 23.6123 26.0139 23.0732H27.6574C27.6809 23.4951 27.8039 23.8408 28.0266 24.1104C28.2492 24.374 28.5246 24.5645 28.8527 24.6816C29.1867 24.7988 29.5383 24.8574 29.9074 24.8574C30.3352 24.8574 30.7014 24.7988 31.0061 24.6816C31.3166 24.5586 31.551 24.3945 31.7092 24.1895C31.8674 23.9785 31.9465 23.7412 31.9465 23.4775C31.9465 23.2139 31.8908 22.9854 31.7795 22.792C31.6682 22.5986 31.4543 22.4199 31.1379 22.2559C30.8215 22.0918 30.3645 21.9482 29.7668 21.8252Z" fill="#707070"/>
</svg>
