<svg xmlns="http://www.w3.org/2000/svg" width="26" height="26" viewBox="0 0 26 26">
    <defs>
        <linearGradient id="xwe2bnjwha" x1="0%" x2="100%" y1="50%" y2="50%">
            <stop offset="0%" stop-color="#FFC86B"/>
            <stop offset="100%" stop-color="#F9A81D"/>
        </linearGradient>
        <linearGradient id="2jxcdvm87b" x1="0%" x2="100%" y1="50%" y2="50%">
            <stop offset="0%" stop-color="#FFB639"/>
            <stop offset="100%" stop-color="#FFA100"/>
        </linearGradient>
    </defs>
    <g fill="none">
        <path fill="url(#xwe2bnjwha)" d="M10.489 0l.309.004c5.65.164 10.18 4.795 10.18 10.485 0 5.793-4.697 10.489-10.49 10.489C4.697 20.978 0 16.282 0 10.488.006 4.699 4.699.007 10.489 0z" transform="translate(2.511 2.511)"/>
        <path fill="#000" d="M10.489 0l-.31.004c-.095.003-.19.007-.286.013 5.517.31 9.897 4.878 9.903 10.472 0 5.595-4.38 10.166-9.898 10.473.195.01.392.016.59.016 5.794 0 10.49-4.696 10.49-10.49C20.97 4.699 16.277.007 10.487 0z" opacity=".1" transform="translate(2.511 2.511)"/>
        <path fill="url(#2jxcdvm87b)" d="M10.489 2.216l.243.004c4.457.129 8.03 3.782 8.03 8.269 0 4.569-3.704 8.273-8.273 8.273-4.57 0-8.273-3.704-8.273-8.273.005-4.567 3.706-8.268 8.273-8.273z" transform="translate(2.511 2.511)"/>
        <path fill="#000" d="M10.489 2.216l.243.004c4.457.129 8.03 3.782 8.03 8.269 0 4.569-3.704 8.273-8.273 8.273-.199 0-.396-.007-.591-.021 4.293-.303 7.681-3.882 7.681-8.252 0-4.37-3.387-7.948-7.679-8.252.195-.013.39-.02.589-.02z" opacity=".1" transform="translate(2.511 2.511)"/>
        <path fill="#000" d="M10.397 3.714c.263 0 .489.175.561.418l.02.095.005.083v.657l.117.145.194.048c1.28.36 2.177 1.53 2.18 2.874 0 .323-.263.585-.586.585-.264 0-.49-.174-.561-.417l-.02-.095-.012-.246c-.084-.916-.86-1.64-1.806-1.64-1.002 0-1.813.811-1.813 1.813 0 .89.644 1.638 1.501 1.786l.163.021.342.012c1.445.095 2.624 1.216 2.774 2.67.145 1.396-.7 2.692-2.008 3.134l-.19.057-.162.039-.113.143v.69l-.01.105c-.05.273-.289.48-.576.48-.263 0-.49-.174-.562-.417l-.02-.094-.004-.083v-.725l-.109-.142-.201-.063c-1.188-.417-1.995-1.541-1.998-2.816 0-.323.263-.586.586-.586.324 0 .587.263.587.586.001.92.691 1.694 1.605 1.8.105-.01.171-.008.237.006 1.024-.032 1.801-.853 1.783-1.84-.016-.879-.658-1.609-1.505-1.753l-.16-.02-.336-.012c-1.414-.09-2.58-1.164-2.77-2.582-.18-1.354.58-2.647 1.824-3.157l.19-.07.162-.049.105-.141V4.3l.01-.105c.05-.274.288-.48.576-.48z" opacity=".3" transform="translate(2.511 2.511)"/>
    </g>
</svg>
