<svg xmlns="http://www.w3.org/2000/svg" xmlns:xlink="http://www.w3.org/1999/xlink" width="130" height="110" viewBox="0 0 130 110">
    <defs>
        <filter id="prefix__a" width="103.9%" height="105.8%" x="-1%" y="-1.5%" filterUnits="objectBoundingBox">
            <feOffset dx="2" dy="2" in="SourceAlpha" result="shadowOffsetOuter1"/>
            <feColorMatrix in="shadowOffsetOuter1" values="0 0 0 0 0.921568627 0 0 0 0 0.921568627 0 0 0 0 0.921568627 0 0 0 1 0"/>
        </filter>
        <filter id="prefix__c" width="106.3%" height="106.3%" x="-1.6%" y="-1.6%" filterUnits="objectBoundingBox">
            <feOffset dx="2" dy="2" in="SourceAlpha" result="shadowOffsetOuter1"/>
            <feColorMatrix in="shadowOffsetOuter1" values="0 0 0 0 0.921568627 0 0 0 0 0.921568627 0 0 0 0 0.921568627 0 0 0 1 0"/>
        </filter>
        <circle id="prefix__d" cx="31.5" cy="31.5" r="31.5"/>
        <path id="prefix__b" d="M31.215 61.96c.276-.012.51.202.522.478.012.275-.201.51-.477.521l-.843.045-.798.054c-7.044.538-10.425 2.38-10.172 5.012.275 2.856 4.572 6.737 11.937 10.609.245.128.339.43.21.675-.128.244-.43.338-.675.21-7.65-4.023-12.148-8.084-12.467-11.398-.352-3.65 4.09-5.817 12.763-6.206zm67.498-5.717l.968.474c10.84 5.342 17.219 9.565 17.219 13.057 0 2.451-1.807 3.645-5.228 3.839-2.745.155-6.412-.261-12.65-1.317-.273-.046-.456-.304-.41-.576.046-.273.304-.456.576-.41l1.032.173c5.542.915 8.902 1.273 11.395 1.131 2.958-.167 4.285-1.044 4.285-2.84 0-2.958-6.83-7.373-17.625-12.632-.248-.12-.351-.42-.23-.668.12-.249.42-.352.668-.23zM49.51 32.793c.259.096.39.384.294.643-.096.258-.384.39-.642.294l-1.102-.405-1.09-.392c-15.528-5.533-27.298-7.138-31.407-3.846-2.39 1.915-.294 5.615 5.335 10.378 4.159 3.52 10.288 7.515 13.451 9.05.249.12.353.42.232.668-.12.248-.42.352-.668.231-3.24-1.57-9.439-5.612-13.661-9.185l-.579-.497c-5.666-4.933-7.806-8.965-4.736-11.425 4.703-3.768 17.605-1.818 34.573 4.486zM81.24 29.6c.72 0 1.2.48 1.2 1.2s-.6 1.2-1.2 1.2c-.72 0-1.2-.48-1.2-1.2-.12-.72.48-1.2 1.2-1.2zM82.2 11c3.96 0 6.48 2.16 6.48 5.64 0 2.4-1.08 3.72-3.12 5.16l-.755.64-.399.346c-1.377 1.224-1.846 1.952-1.846 3.694v.72c0 .72-.48 1.08-1.2 1.08s-1.2-.36-1.2-1.08v-.84c0-1.688.21-2.637.83-3.54l.297-.42.149-.197c.382-.478.87-.882 2.084-1.723 1.92-1.44 2.52-2.28 2.52-3.72 0-2.16-1.56-3.48-4.08-3.48-2.4 0-3.84 1.32-4.44 3.24-.24.72-.6.96-1.08.96h-.48c-.48-.12-.96-.48-.96-1.08l.004-.151c.01-.116.036-.249.116-.329.36-1.2 1.08-2.4 2.04-3.24C78.36 11.6 79.92 11 82.2 11zm-3.642 10.01c.27.058.443.323.386.593-.058.27-.323.443-.593.386l-.718-.147-.693-.132c-3.174-.58-5.478-.664-6.297-.164-.44.268-.325.712.466 1.472.735.705 1.93 1.459 2.743 1.776.257.1.384.39.284.648-.1.257-.39.384-.648.284-.934-.365-2.24-1.189-3.071-1.987-1.193-1.144-1.496-2.314-.295-3.047 1.254-.766 4.247-.566 8.436.319zm13.516-3.402l.086.025c3.446 1.351 4.724 3.325 3.06 4.494-1.108.78-3.143 1.034-6.09.91-.275-.011-.49-.244-.478-.52.012-.276.245-.49.52-.479 2.733.115 4.606-.12 5.473-.73.72-.505-.01-1.63-2.85-2.744-.257-.1-.383-.391-.283-.648.09-.229.33-.354.562-.308z"/>
    </defs>
    <g fill="none" fill-rule="evenodd">
        <use fill="#000" filter="url(#prefix__a)" xlink:href="#prefix__b"/>
        <path fill="#333" d="M31.215 61.96c.276-.012.51.202.522.478.012.275-.201.51-.477.521l-.843.045-.798.054c-7.044.538-10.425 2.38-10.172 5.012.275 2.856 4.572 6.737 11.937 10.609.245.128.339.43.21.675-.128.244-.43.338-.675.21-7.65-4.023-12.148-8.084-12.467-11.398-.352-3.65 4.09-5.817 12.763-6.206zm67.498-5.717l.968.474c10.84 5.342 17.219 9.565 17.219 13.057 0 2.451-1.807 3.645-5.228 3.839-2.745.155-6.412-.261-12.65-1.317-.273-.046-.456-.304-.41-.576.046-.273.304-.456.576-.41l1.032.173c5.542.915 8.902 1.273 11.395 1.131 2.958-.167 4.285-1.044 4.285-2.84 0-2.958-6.83-7.373-17.625-12.632-.248-.12-.351-.42-.23-.668.12-.249.42-.352.668-.23zM49.51 32.793c.259.096.39.384.294.643-.096.258-.384.39-.642.294l-1.102-.405-1.09-.392c-15.528-5.533-27.298-7.138-31.407-3.846-2.39 1.915-.294 5.615 5.335 10.378 4.159 3.52 10.288 7.515 13.451 9.05.249.12.353.42.232.668-.12.248-.42.352-.668.231-3.24-1.57-9.439-5.612-13.661-9.185l-.579-.497c-5.666-4.933-7.806-8.965-4.736-11.425 4.703-3.768 17.605-1.818 34.573 4.486zM81.24 29.6c.72 0 1.2.48 1.2 1.2s-.6 1.2-1.2 1.2c-.72 0-1.2-.48-1.2-1.2-.12-.72.48-1.2 1.2-1.2zM82.2 11c3.96 0 6.48 2.16 6.48 5.64 0 2.4-1.08 3.72-3.12 5.16l-.755.64-.399.346c-1.377 1.224-1.846 1.952-1.846 3.694v.72c0 .72-.48 1.08-1.2 1.08s-1.2-.36-1.2-1.08v-.84c0-1.688.21-2.637.83-3.54l.297-.42.149-.197c.382-.478.87-.882 2.084-1.723 1.92-1.44 2.52-2.28 2.52-3.72 0-2.16-1.56-3.48-4.08-3.48-2.4 0-3.84 1.32-4.44 3.24-.24.72-.6.96-1.08.96h-.48c-.48-.12-.96-.48-.96-1.08l.004-.151c.01-.116.036-.249.116-.329.36-1.2 1.08-2.4 2.04-3.24C78.36 11.6 79.92 11 82.2 11zm-3.642 10.01c.27.058.443.323.386.593-.058.27-.323.443-.593.386l-.718-.147-.693-.132c-3.174-.58-5.478-.664-6.297-.164-.44.268-.325.712.466 1.472.735.705 1.93 1.459 2.743 1.776.257.1.384.39.284.648-.1.257-.39.384-.648.284-.934-.365-2.24-1.189-3.071-1.987-1.193-1.144-1.496-2.314-.295-3.047 1.254-.766 4.247-.566 8.436.319zm13.516-3.402l.086.025c3.446 1.351 4.724 3.325 3.06 4.494-1.108.78-3.143 1.034-6.09.91-.275-.011-.49-.244-.478-.52.012-.276.245-.49.52-.479 2.733.115 4.606-.12 5.473-.73.72-.505-.01-1.63-2.85-2.744-.257-.1-.383-.391-.283-.648.09-.229.33-.354.562-.308z"/>
        <g transform="translate(33 32)">
            <use fill="#000" filter="url(#prefix__c)" xlink:href="#prefix__d"/>
            <circle cx="31.5" cy="31.5" r="31.5" fill="#3E3D40"/>
            <circle cx="30.5" cy="29.5" r="28.5" fill="#FFF"/>
        </g>
        <g fill="#3E3D40">
            <path d="M36.726 42.31c.587 0 1.062.476 1.062 1.063 0 .586-.475 1.061-1.062 1.061h-6.37c-.586 0-1.061-.475-1.061-1.061 0-.587.475-1.062 1.061-1.062zm-11.678-9.554c0 4.246-6.37 4.246-6.37 0s6.37-4.246 6.37 0zm23.355 0c0 4.246-6.37 4.246-6.37 0s6.37-4.246 6.37 0zM10.185 19c.387 0 .746.202.945.533.09.178 2.24 4.409 2.24 7.562 0 3.052-1.072 4.6-3.185 4.6S7 30.146 7 27.094c0-3.15 2.15-7.384 2.24-7.562.199-.331.557-.533.945-.533zm0 3.652c-.603 1.409-.96 2.911-1.062 4.443 0 2.316.58 2.465.982 2.475h.16c.4-.01.981-.159.981-2.475-.1-1.532-.459-3.034-1.061-4.443z" transform="translate(34 33)"/>
        </g>
    </g>
</svg>
