<svg data-name="Capa 1" id="Capa_1" viewBox="0 0 424.44 266.77" xmlns="http://www.w3.org/2000/svg" xmlns:xlink="http://www.w3.org/1999/xlink">
	<defs>
		<style>.cls-1{fill:none;}.cls-2{clip-path:url(#clip-path);}.cls-3{clip-path:url(#clip-path-2);}.cls-4{clip-path:url(#clip-path-3);}.cls-5{clip-path:url(#clip-path-4);}.cls-6{clip-path:url(#clip-path-7);}.cls-7{clip-path:url(#clip-path-9);}.cls-8{fill:#4b4747;}.cls-9{fill:#e1261d;}</style>
		<clipPath id="clip-path">
			<path class="cls-1" d="M203.89-164.14a44.36,44.36,0,0,1-11.37,3.21,3.08,3.08,0,0,0-2.61,3.5,3.1,3.1,0,0,0,1.2,2,3.09,3.09,0,0,0,2.29.58,50.88,50.88,0,0,0,12.94-3.65,3.08,3.08,0,0,0,1.61-4.06,3.09,3.09,0,0,0-2.83-1.86,3.15,3.15,0,0,0-1.23.25m-42-.14a3.08,3.08,0,0,0,.64,3.69,3,3,0,0,0,.67.47,50.53,50.53,0,0,0,16.35,5.22,3.09,3.09,0,0,0,3.48-2.64,3.09,3.09,0,0,0-2.63-3.48,44.11,44.11,0,0,1-14.35-4.57,3,3,0,0,0-1.42-.35,3.07,3.07,0,0,0-2.74,1.66m-14-12.39a3.09,3.09,0,0,0-.38,4.35,50.56,50.56,0,0,0,6.36,6.31v0a3.08,3.08,0,0,0,4.34-.41,3.09,3.09,0,0,0-.41-4.35,44.93,44.93,0,0,1-5.58-5.54,3.06,3.06,0,0,0-2.36-1.1,3.1,3.1,0,0,0-2,.72m73.94-1.66-.06.07a45.26,45.26,0,0,1-5.26,5.88,3.07,3.07,0,0,0-.15,4.36,3.42,3.42,0,0,0,.4.36,3.1,3.1,0,0,0,4-.21,52.21,52.21,0,0,0,6-6.69l.06-.07a3.09,3.09,0,0,0-.62-4.32,3.05,3.05,0,0,0-1.85-.62,3.08,3.08,0,0,0-2.47,1.24m8.8-25.07a44.29,44.29,0,0,1-3.05,14.75,3.09,3.09,0,0,0,1,3.6,3.16,3.16,0,0,0,.72.4,3.07,3.07,0,0,0,4-1.74,50,50,0,0,0,3.47-16.8,3.09,3.09,0,0,0-3-3.19h-.1a3.08,3.08,0,0,0-3.08,3m-2.07-23.3a3.09,3.09,0,0,0-1.6,4.06,44.81,44.81,0,0,1,3.23,11.37,3,3,0,0,0,1.2,2,3.06,3.06,0,0,0,2.29.59,3.1,3.1,0,0,0,2.62-3.5,50.94,50.94,0,0,0-3.68-12.94,3.1,3.1,0,0,0-2.83-1.86,3.16,3.16,0,0,0-1.23.26m-73.89-17.71a51.07,51.07,0,0,0-6.49,6.18h0a3.06,3.06,0,0,0,.29,4.33,3.1,3.1,0,0,0,4.37-.29,44.64,44.64,0,0,1,5.69-5.4,3.09,3.09,0,0,0,.49-4.34,3.1,3.1,0,0,0-2.42-1.16,3.1,3.1,0,0,0-1.92.67m57.52-.4a3.08,3.08,0,0,0,.62,4.32l.06,0a45.17,45.17,0,0,1,5.82,5.22,2.71,2.71,0,0,0,.41.36,3.08,3.08,0,0,0,3.95-.22,3.08,3.08,0,0,0,.15-4.36,51.23,51.23,0,0,0-6.63-5.93l-.06-.05a3.14,3.14,0,0,0-1.85-.62,3.08,3.08,0,0,0-2.47,1.24M179-255A50.51,50.51,0,0,0,166-251.3a3.07,3.07,0,0,0-1.6,4.05,3.08,3.08,0,0,0,1,1.24,3.09,3.09,0,0,0,3.08.37,44.52,44.52,0,0,1,11.37-3.23,3.07,3.07,0,0,0,2.61-3.49,3.09,3.09,0,0,0-3.05-2.65,2.25,2.25,0,0,0-.44,0m5.78,2.48a3.11,3.11,0,0,0,1.24,2.58,3.07,3.07,0,0,0,1.74.61,44.29,44.29,0,0,1,14.75,3.05,3.08,3.08,0,0,0,4-1.74,3.09,3.09,0,0,0-1.74-4,50.54,50.54,0,0,0-16.8-3.48h-.11a3.09,3.09,0,0,0-3.08,3"/>
		</clipPath>
		<clipPath id="clip-path-2">
			<rect class="cls-1" height="596" width="842" x="-206.52" y="-406.18"/>
		</clipPath>
		<clipPath id="clip-path-3">
			<rect class="cls-1" height="1025.67" transform="translate(204.48 131.83) rotate(-60.85)" width="930.66" x="-250.86" y="-621.02"/>
		</clipPath>
		<clipPath id="clip-path-4">
			<path class="cls-1" d="M123.63-166.78a38.39,38.39,0,0,1-10.27.27,2.68,2.68,0,0,0-3,2.38,2.62,2.62,0,0,0,.58,2,2.68,2.68,0,0,0,1.8,1,43.92,43.92,0,0,0,11.68-.3,2.69,2.69,0,0,0,2.23-3.07,2.68,2.68,0,0,0-2.65-2.26,3,3,0,0,0-.42,0m16.24-6.61-.07,0a40,40,0,0,1-5.93,3.45,2.68,2.68,0,0,0-1.29,3.57,3.38,3.38,0,0,0,.24.41,2.68,2.68,0,0,0,3.33.88,44.2,44.2,0,0,0,6.74-3.93l.07,0a2.67,2.67,0,0,0,.64-3.73,2.68,2.68,0,0,0-2.19-1.14,2.68,2.68,0,0,0-1.54.49M88.6-175.54a2.68,2.68,0,0,0-.21,3.24,2.68,2.68,0,0,0,.47.54A44,44,0,0,0,101.61-164a2.69,2.69,0,0,0,3.48-1.52,2.68,2.68,0,0,0-1.52-3.47,38.31,38.31,0,0,1-11.18-6.8,2.65,2.65,0,0,0-1.76-.66,2.68,2.68,0,0,0-2,.92m7.71-67.92a44.92,44.92,0,0,0-6.47,4.35h0a2.66,2.66,0,0,0-.39,3.76,2.7,2.7,0,0,0,3.79.39,38.87,38.87,0,0,1,5.66-3.8,2.67,2.67,0,0,0,1-3.64,2.66,2.66,0,0,0-2.35-1.39,2.75,2.75,0,0,0-1.29.33m30.13-1.84a2.71,2.71,0,0,0,.49,2.44,2.67,2.67,0,0,0,1.34.89A38.41,38.41,0,0,1,140-236.24a2.69,2.69,0,0,0,3.74-.61,2.67,2.67,0,0,0-.61-3.74,43.57,43.57,0,0,0-13.4-6.53,2.48,2.48,0,0,0-.75-.11,2.68,2.68,0,0,0-2.58,1.93m-18.14-2.61a2.68,2.68,0,0,0-2.07,3.18,2.71,2.71,0,0,0,.62,1.23,2.71,2.71,0,0,0,2.56.84,38.7,38.7,0,0,1,10.24-.79,2.68,2.68,0,0,0,2.83-2.52A2.68,2.68,0,0,0,120-248.8c-.82,0-1.65-.07-2.48-.07a44.14,44.14,0,0,0-9.17,1"/>
		</clipPath>
		<clipPath id="clip-path-7">
			<path class="cls-1" d="M57.35-174.17a2.07,2.07,0,0,0,1.11,2.24,2.12,2.12,0,0,0,.52.17,33.8,33.8,0,0,0,11.44.21,2.07,2.07,0,0,0,1.72-2.35,2.07,2.07,0,0,0-2.35-1.72,29.43,29.43,0,0,1-10-.18,1.72,1.72,0,0,0-.39,0,2.05,2.05,0,0,0-2,1.67m-12.44-6.41a2.07,2.07,0,0,0,.44,2.88,34.37,34.37,0,0,0,5.11,3.09h0a2.05,2.05,0,0,0,2.75-.94,2.07,2.07,0,0,0-.95-2.76A29.11,29.11,0,0,1,47.78-181a2,2,0,0,0-1.21-.4,2.05,2.05,0,0,0-1.66.84m38.68-1.12a29.69,29.69,0,0,1-6.78,4,2.07,2.07,0,0,0-1.09,2.7,2,2,0,0,0,1.13,1.1,2,2,0,0,0,1.57,0,34,34,0,0,0,7.72-4.58,2.05,2.05,0,0,0,.34-2.88,2.05,2.05,0,0,0-1.62-.79,2,2,0,0,0-1.27.45M34.68-196.57A2.06,2.06,0,0,0,33.4-194a33.82,33.82,0,0,0,4,8,2,2,0,0,0,.79.7,2.06,2.06,0,0,0,2.06-.15,2.06,2.06,0,0,0,.55-2.86,29.92,29.92,0,0,1-3.52-7,2,2,0,0,0-1.94-1.39,2,2,0,0,0-.67.11m-2.51-14.64a33.54,33.54,0,0,0-.2,11.44,2,2,0,0,0,1.13,1.53,2.06,2.06,0,0,0,1.21.19A2.06,2.06,0,0,0,36-200.4a29.43,29.43,0,0,1,.18-10,2.06,2.06,0,0,0-1.64-2.41l-.38,0a2,2,0,0,0-2,1.67m5.93-13.63A33.8,33.8,0,0,0,35-219.72h0A2,2,0,0,0,36-217a2.07,2.07,0,0,0,2.76-1,30.17,30.17,0,0,1,2.7-4.47,2.06,2.06,0,0,0-.45-2.88,2,2,0,0,0-1.21-.4,2.06,2.06,0,0,0-1.66.85m39.26-9.42a2.06,2.06,0,0,0,.94,2.75l0,0a29.51,29.51,0,0,1,4.46,2.69,1.73,1.73,0,0,0,.31.19,2.07,2.07,0,0,0,2.57-.63,2.06,2.06,0,0,0-.45-2.88,33.9,33.9,0,0,0-5.08-3.06l0,0a2,2,0,0,0-.91-.22,2.07,2.07,0,0,0-1.85,1.16m-23-2.54a34.07,34.07,0,0,0-8,4,2.06,2.06,0,0,0-.54,2.86,2.1,2.1,0,0,0,.79.69,2.06,2.06,0,0,0,2.06-.15,29.8,29.8,0,0,1,7-3.52A2.05,2.05,0,0,0,57-235.52,2,2,0,0,0,55-236.91a1.91,1.91,0,0,0-.66.11m5.81-1.44a2.06,2.06,0,0,0-1.72,2.35,2.06,2.06,0,0,0,1.13,1.53,2.1,2.1,0,0,0,1.22.19,29.43,29.43,0,0,1,10,.17,2.05,2.05,0,0,0,2.4-1.64,2.06,2.06,0,0,0-1.63-2.4,33.13,33.13,0,0,0-6.27-.6,34.52,34.52,0,0,0-5.17.4"/>
		</clipPath>
		<clipPath id="clip-path-9">
			<rect class="cls-1" height="742.36" transform="translate(23.89 38.04) rotate(-10.73)" width="938.25" x="-254.65" y="-479.36"/>
		</clipPath>
	</defs>
	<g class="cls-2">
	</g>
	<g class="cls-5">
	</g>
	<g class="cls-6">
	</g>
	<path class="cls-8" d="M63.46,195.2c-5.44-1.85-7-2.74-7-5,0-2.11,2.28-3.69,5.32-3.69A19.8,19.8,0,0,1,70.9,189a.32.32,0,0,0,.19.05.33.33,0,0,0,.17,0,.41.41,0,0,0,.23-.3l.89-5.66a.4.4,0,0,0-.24-.42A25.36,25.36,0,0,0,62,180.54c-7.06,0-12,4.26-12,10.35,0,5.6,3.76,7.94,11.17,10.52,4.91,1.68,6.54,2.67,6.54,5.27S65.19,211,61.34,211a26.2,26.2,0,0,1-11.05-3,.38.38,0,0,0-.19,0,.58.58,0,0,0-.18,0,.47.47,0,0,0-.22.31l-.89,5.5a.4.4,0,0,0,.25.44,31.74,31.74,0,0,0,12,2.62c7.83,0,13.08-4.37,13.08-10.89,0-5.87-3.76-8.3-10.69-10.72"/>
	<path class="cls-8" d="M109.53,181h-6.19a.41.41,0,0,0-.41.41v21c0,5.61-2.64,8.57-7.63,8.57s-7.57-3.08-7.57-8.71V181.42a.41.41,0,0,0-.41-.41H81.19a.41.41,0,0,0-.4.41v21.1c0,9.08,5.39,14.5,14.45,14.5s14.7-5.53,14.7-14.77V181.42a.41.41,0,0,0-.41-.41"/>
	<path class="cls-8" d="M130.24,197.23h-4V187h4.09c3,0,6.54.89,6.54,5.11,0,3.44-2.18,5.11-6.67,5.11M131,181H119.74a.41.41,0,0,0-.4.41v34.51a.4.4,0,0,0,.4.41h6.13a.41.41,0,0,0,.41-.41V203.14h4c8.57,0,13.49-4.07,13.49-11.15,0-6.78-4.89-11-12.75-11"/>
	<path class="cls-8" d="M172.88,210.15h-15.4v-9.06h12.75a.43.43,0,0,0,.3-.14.36.36,0,0,0,.09-.33l-.88-5.38a.43.43,0,0,0-.4-.34H157.48v-7.68H172.4a.4.4,0,0,0,.4-.41v-5.39a.39.39,0,0,0-.4-.4H150.94a.4.4,0,0,0-.4.4v34.52a.4.4,0,0,0,.4.4h21.94a.4.4,0,0,0,.41-.4v-5.38a.41.41,0,0,0-.41-.41"/>
	<path class="cls-8" d="M198.36,192.12c0,3.42-2.32,5.3-6.54,5.3h-4.08V187.14h4.08c3,0,6.54.87,6.54,5m0,9.92a10.17,10.17,0,0,0,7-10c0-6.91-5-11-13.42-11h-10.7a.4.4,0,0,0-.4.39v34.52a.41.41,0,0,0,.4.4h6.14a.41.41,0,0,0,.41-.4V203h3.12l9.54,13.58a.4.4,0,0,0,.32.17h.1l6.34-1.43a.42.42,0,0,0,.29-.26.46.46,0,0,0,0-.38Z"/>
	<path class="cls-8" d="M242.45,181.05h-6.2a.41.41,0,0,0-.37.27l-9.71,25.84-9.5-25.85a.42.42,0,0,0-.4-.28h-6.73a.4.4,0,0,0-.27.2.42.42,0,0,0,0,.35l13.47,34.47a.4.4,0,0,0,.37.26h5.67a.43.43,0,0,0,.39-.26l13.68-34.44a.4.4,0,0,0,0-.38.42.42,0,0,0-.34-.18"/>
	<path class="cls-8" d="M255.85,181h-6.19a.41.41,0,0,0-.42.41v34.51a.41.41,0,0,0,.42.41h6.19a.41.41,0,0,0,.41-.41V181.42a.42.42,0,0,0-.41-.41"/>
	<path class="cls-8" d="M289.84,210.15H274.45v-9.06H287.2a.44.44,0,0,0,.3-.14.4.4,0,0,0,.1-.33l-.89-5.38a.41.41,0,0,0-.41-.34H274.45v-7.68h14.92a.41.41,0,0,0,.41-.41v-5.39a.4.4,0,0,0-.41-.4H267.91a.41.41,0,0,0-.41.4v34.52a.41.41,0,0,0,.41.4h21.93a.41.41,0,0,0,.42-.4v-5.38a.41.41,0,0,0-.42-.41"/>
	<path class="cls-8" d="M346,210.22H333.27v-28.8a.41.41,0,0,0-.41-.41h-6.12a.41.41,0,0,0-.41.41v34.52a.4.4,0,0,0,.41.4h20.1a.36.36,0,0,0,.3-.15.37.37,0,0,0,.1-.32l-.88-5.31a.43.43,0,0,0-.41-.34"/>
	<path class="cls-8" d="M375.27,210.15h-15.4v-9.06h12.75a.43.43,0,0,0,.3-.14.4.4,0,0,0,.1-.33l-.89-5.38a.41.41,0,0,0-.4-.34H359.87v-7.68H374.8a.41.41,0,0,0,.4-.41v-5.39a.4.4,0,0,0-.4-.4H353.33a.4.4,0,0,0-.4.4v34.52a.4.4,0,0,0,.4.4h21.94a.4.4,0,0,0,.41-.4v-5.38a.41.41,0,0,0-.41-.41"/>
	<path class="cls-8" d="M319,210.22H306.34v-28.8a.42.42,0,0,0-.41-.41H299.8a.41.41,0,0,0-.41.41v34.52a.4.4,0,0,0,.41.4h20.1a.37.37,0,0,0,.3-.15.4.4,0,0,0,.1-.32l-.89-5.31a.42.42,0,0,0-.4-.34"/>
	<path class="cls-9" d="M48.76,102.67a54.57,54.57,0,0,1,3.52-19.21A51.59,51.59,0,0,1,79,54.39a50.89,50.89,0,0,1,22.16-4.64q14.67,0,25.38,6.43a41.14,41.14,0,0,1,16,16.75l-15.87,10.9a27.14,27.14,0,0,0-5.1-7.54,25.35,25.35,0,0,0-6.43-4.86,29,29,0,0,0-7.19-2.62,34.69,34.69,0,0,0-7.34-.82A27.93,27.93,0,0,0,87,71.13a29.74,29.74,0,0,0-9.58,8.15,35.42,35.42,0,0,0-5.77,11.36,42.86,42.86,0,0,0-2,12.63A41.08,41.08,0,0,0,72,116.8a36.11,36.11,0,0,0,6.36,11.44,31.75,31.75,0,0,0,9.89,7.92,27.09,27.09,0,0,0,12.65,3,33.1,33.1,0,0,0,7.48-.9,28.45,28.45,0,0,0,7.42-2.84,27.74,27.74,0,0,0,6.51-5,23.23,23.23,0,0,0,4.8-7.41L144,132.72a32,32,0,0,1-7.26,10.54A47.18,47.18,0,0,1,126.1,151a54.63,54.63,0,0,1-12.65,4.79,55.87,55.87,0,0,1-13.18,1.64,45.27,45.27,0,0,1-20.82-4.79,54,54,0,0,1-16.24-12.48,57.8,57.8,0,0,1-10.64-17.49,54.62,54.62,0,0,1-3.81-20"/>
	<path class="cls-9" d="M155,49.75h20.07v81.63a9.86,9.86,0,0,0,2.1,6.72,7.52,7.52,0,0,0,6,2.39,15.46,15.46,0,0,0,4-.59,27.21,27.21,0,0,0,4.12-1.5l2.69,15.25a38.71,38.71,0,0,1-9.43,3,51.38,51.38,0,0,1-9.74,1q-9.44,0-14.6-5T155,138.4Z"/>
	<path class="cls-9" d="M226.6,158q-12.14,0-18.42-7.77t-6.29-23v-49H222v44.71q0,18.08,13,18.08a20.63,20.63,0,0,0,11.3-3.51,25.21,25.21,0,0,0,8.92-10.69V78.15h20.06v55.32c0,2.09.37,3.59,1.13,4.48a4.89,4.89,0,0,0,3.66,1.5v17a44.46,44.46,0,0,1-5,.75c-1.35.1-2.57.15-3.67.15a14.5,14.5,0,0,1-8.76-2.47,9.69,9.69,0,0,1-4-6.8l-.45-6.28A33.41,33.41,0,0,1,244.72,154a40.62,40.62,0,0,1-18.12,4"/>
	<path class="cls-9" d="M339,158a31.61,31.61,0,0,1-16-4,29.47,29.47,0,0,1-11.09-11.07v13.61H294.36V49.75h20.07V91.91a30.18,30.18,0,0,1,11-11.14,31.17,31.17,0,0,1,15.95-4,29.59,29.59,0,0,1,13.92,3.29,34.89,34.89,0,0,1,10.86,8.82,39.8,39.8,0,0,1,7,13,49.66,49.66,0,0,1,2.47,15.7,44.55,44.55,0,0,1-2.77,15.85,40,40,0,0,1-7.71,12.78,36.16,36.16,0,0,1-11.69,8.59A33.84,33.84,0,0,1,339,158m-5.54-17a21,21,0,0,0,15.72-6.88,22.3,22.3,0,0,0,4.42-7.32,25.26,25.26,0,0,0,1.58-9,27.34,27.34,0,0,0-1.51-9.11A23.4,23.4,0,0,0,349.4,101a21.29,21.29,0,0,0-6.51-5.23,17.69,17.69,0,0,0-8.24-2,18.39,18.39,0,0,0-12.06,4.42,29.13,29.13,0,0,0-8.16,10.84v18.68a16.91,16.91,0,0,0,3.07,5.38,22,22,0,0,0,4.57,4.11,21.71,21.71,0,0,0,5.54,2.69,18.75,18.75,0,0,0,5.84,1"/>
</svg>