<svg width="14" height="14" viewBox="0 0 14 14" fill="none" xmlns="http://www.w3.org/2000/svg">
<path fill-rule="evenodd" clip-rule="evenodd" d="M6.99992 1.33301C3.87525 1.33301 1.33325 3.87501 1.33325 6.99967C1.33325 10.1243 3.87525 12.6663 6.99992 12.6663C10.1246 12.6663 12.6666 10.1243 12.6666 6.99967C12.6666 3.87501 10.1246 1.33301 6.99992 1.33301ZM6.99992 13.6663C3.32392 13.6663 0.333252 10.6757 0.333252 6.99967C0.333252 3.32367 3.32392 0.333008 6.99992 0.333008C10.6759 0.333008 13.6666 3.32367 13.6666 6.99967C13.6666 10.6757 10.6759 13.6663 6.99992 13.6663Z" fill="#993706"/>
<path fill-rule="evenodd" clip-rule="evenodd" d="M6.99599 7.91501C6.71999 7.91501 6.49599 7.69101 6.49599 7.41501V4.46901C6.49599 4.19301 6.71999 3.96901 6.99599 3.96901C7.27199 3.96901 7.49599 4.19301 7.49599 4.46901V7.41501C7.49599 7.69101 7.27199 7.91501 6.99599 7.91501Z" fill="#993706"/>
<path fill-rule="evenodd" clip-rule="evenodd" d="M7.00252 10.1969C6.63385 10.1969 6.33252 9.89894 6.33252 9.53028C6.33252 9.16161 6.62785 8.86361 6.99585 8.86361H7.00252C7.37119 8.86361 7.66919 9.16161 7.66919 9.53028C7.66919 9.89894 7.37119 10.1969 7.00252 10.1969Z" fill="#993706"/>
</svg>
