<?xml version="1.0" encoding="UTF-8"?>
<svg width="42px" height="42px" viewBox="0 0 42 42" version="1.1" xmlns="http://www.w3.org/2000/svg" xmlns:xlink="http://www.w3.org/1999/xlink">
    <title>547CA96A-475A-41A4-A36A-DAA0ACEC0EF8</title>
    <g id="Extracción-sin-Tarjeta" stroke="none" stroke-width="1" fill="none" fill-rule="evenodd">
        <g id="M---Ext-sin-TD---Feedback" transform="translate(-166.000000, -92.000000)" fill="#5EBE4B">
            <g id="Intro-Copy" transform="translate(15.000000, 92.000000)">
                <g id="Desktop/icon/custom/Big/OK/Outlined" transform="translate(151.000000, 0.000000)">
                    <path d="M21,3.55271368e-15 C32.5714281,3.55271368e-15 42,9.38485714 42,20.9562857 C42,32.5277143 32.5714281,41.8709989 21,41.8709989 C9.428571,41.8709989 -7.46069873e-14,32.4861429 -7.46069873e-14,20.9147143 C-7.46069873e-14,9.34328571 9.428571,3.55271368e-15 21,3.55271368e-15 Z M20.9984456,0.793285286 C9.88281632,0.793285286 0.878785929,9.81636468 0.878785929,20.9126621 C0.878785929,32.0075782 9.88281632,41.0789996 20.9984456,41.0789996 C32.1140749,41.0789996 41.1645002,32.0540795 41.1645002,20.9126621 C41.1645002,9.77124467 32.1140749,0.793285286 20.9984456,0.793285286 Z M28.2004281,12.7282286 L30.0436281,14.0139429 L19.799571,28.7995714 L11.9147139,21.5575714 L13.4147139,19.9286571 L19.4584281,25.4563714 L28.2004281,12.7282286 Z" id="-↳Color"></path>
                </g>
            </g>
        </g>
    </g>
</svg>