<?xml version="1.0" encoding="UTF-8"?>
<svg width="21px" height="21px" viewBox="0 0 21 21" version="1.1" xmlns="http://www.w3.org/2000/svg" xmlns:xlink="http://www.w3.org/1999/xlink">
    <!-- Generator: sketchtool 61.2 (101010) - https://sketch.com -->
    <title>D59A896E-0EDC-46CE-BDE9-135D94ABD984</title>
    <desc>Created with sketchtool.</desc>
    <g id="UI-Cortes" stroke="none" stroke-width="1" fill="none" fill-rule="evenodd">
        <g id="CORTE-1---S---02-Navegación---Menu-Desplegado---Resumen" transform="translate(-20.000000, -181.000000)" fill="#EE2527" fill-rule="nonzero">
            <g id="Nav-Drawer/1.-Group/A.-Side/_Light-Copy-4" transform="translate(0.000000, 70.000000)">
                <g id="Line-items" transform="translate(0.000000, 60.000000)">
                    <g id="Principales">
                        <g id="Navbar/Primary/⏺-Line-item/Enabled" transform="translate(0.000000, 41.000000)">
                            <g id="icon/custom/accounts" transform="translate(20.000000, 10.000000)">
                                <path d="M9.49891581,3.81856352 C10.0855467,3.8043871 10.5956959,4.18650854 10.7609232,4.72912001 L10.7930455,4.86340969 L17.0734391,4.86393116 C17.7148065,4.86450036 18.2489979,5.32330422 18.3667004,5.93110131 L18.3845961,6.05455568 L18.3908355,6.18143344 L18.3908355,12.8580028 C18.3818037,13.9147334 17.5564378,14.7741542 16.5190577,14.8408754 L16.3763394,14.8450044 L15.9876818,14.8441364 L15.9877365,15.4259574 C15.9787928,16.4672555 15.1751908,17.320186 14.1494781,17.412275 L14.0014986,17.420193 L3.91458314,17.4204551 C2.87557271,17.4192239 2.01846053,16.6319247 1.91873697,15.6175961 L1.90970519,15.471208 L1.90909091,6.78463827 C1.90909091,6.66973451 1.955514,6.55903529 2.03740215,6.47760231 C2.09175981,6.42354678 2.15889905,6.38521392 2.23421416,6.36553311 L2.31208398,6.35217816 L4.44054545,6.34963636 L4.44141225,4.25106444 C4.44141225,4.13662741 4.48741501,4.02633713 4.56862603,3.94514066 C4.62953058,3.88424702 4.7064599,3.84347461 4.78963705,3.82689426 L4.87453469,3.81852869 L9.49891581,3.81856352 Z M4.44054545,7.19059091 L2.74909091,7.19059091 L2.74946695,15.4503948 C2.74992359,15.9796107 3.11810793,16.4254996 3.61413357,16.5472012 L3.73076121,16.5694218 L3.85127247,16.579475 L13.9798977,16.5800794 C14.5601929,16.5786103 15.0442876,16.1579842 15.1330885,15.6047014 L15.1459579,15.4842147 L15.1457727,14.8441364 L6.42928237,14.8451147 C5.37967021,14.8437898 4.52038573,14.0302338 4.44655558,12.9989227 L4.44141225,12.8569955 L4.44054545,7.19059091 Z M17.5245,9.32018241 L5.30631818,9.32018241 L5.30711837,12.8568814 C5.30761323,13.4353085 5.74524798,13.9113292 6.30725529,13.9726592 L6.42947511,13.9793406 L16.3760785,13.9793406 C16.9590562,13.977852 17.4418546,13.5430977 17.5157768,12.979594 L17.5252465,12.8569835 L17.5245,9.32018241 Z M9.50725724,4.68345117 L5.30631818,4.6830006 L5.30631818,8.45536423 L17.5245,8.45536423 L17.5251635,6.1830126 C17.5222547,5.96156138 17.3630785,5.77810412 17.1538742,5.73778287 L17.073285,5.72957726 L10.386789,5.72957726 C10.2714145,5.72957726 10.1615757,5.68388381 10.0808653,5.60236348 C10.0199716,5.54145893 9.97919921,5.46452961 9.96261886,5.38135246 L9.9542533,5.29645482 L9.95437837,5.13056921 C9.95988653,5.01036458 9.91454156,4.89364363 9.829366,4.80846807 C9.76122228,4.74032812 9.67288624,4.69767813 9.57873571,4.68616225 L9.50725724,4.68345117 Z" id="-↳Color"></path>
                            </g>
                        </g>
                    </g>
                </g>
            </g>
        </g>
    </g>
</svg>