<svg xmlns="http://www.w3.org/2000/svg" width="22" height="22" viewBox="0 0 22 22">
    <path fill="#333" fill-rule="evenodd" d="M17 18c.276 0 .5.224.5.5 0 .245-.177.45-.41.492L17 19H5c-.276 0-.5-.224-.5-.5 0-.245.177-.45.41-.492L5 18h12zM10.993 2.621c.245 0 .45.177.492.41l.008.09v12.035l3.389-3.388c.173-.174.443-.193.638-.058l.069.058c.173.173.193.443.058.638l-.058.069-4.243 4.243c-.173.173-.443.192-.638.057l-.069-.057-4.243-4.243c-.195-.195-.195-.512 0-.707.174-.174.443-.193.638-.058l.07.058 3.39 3.388-.001-12.035c0-.276.223-.5.5-.5z"/>
</svg>
