<svg xmlns="http://www.w3.org/2000/svg" width="30" height="30" viewBox="0 0 30 30">
    <path fill="#333" fill-rule="evenodd" d="M23.763.035c2.01-.155 3.454.206 4.33 1.031 1.65 1.701 1.856 4.278.618 7.68 1.083 2.062 1.186 4.382 1.186 6.753v1.598l-.052.464H11.392c.103.67.412 1.288.773 1.959.464.824 1.134 1.494 1.959 2.01.825.515 1.752.722 2.732.722 1.03 0 1.958-.258 2.783-.722.722-.464 1.444-1.186 1.959-2.114l.155-.257H30l-.258.67c-.98 2.835-2.68 5.103-5 6.804-2.37 1.7-5.103 2.577-8.041 2.577-2.113 0-4.175-.464-6.03-1.34-2.269 1.031-4.176 1.546-5.774 1.546-1.546 0-2.835-.463-3.815-1.443C.361 27.251 0 26.117 0 24.571c0-1.443.258-3.093.825-4.845.567-1.753 1.495-3.712 2.783-5.825l.155-.258c.825-1.34 1.546-2.526 3.505-4.536-1.65 1.083-3.35 2.371-4.897 3.711l-.825-.567c1.701-4.226 4.124-6.185 6.547-7.68 3.196-1.959 5.464-2.938 8.556-2.938.31 0 .568 0 .877.051C19.794.705 21.856.138 23.763.035zm3.608 1.752c-.618-.618-1.804-.876-3.505-.773-1.804.103-3.815.67-5.98 1.65l-.154.051h-.155c-.309-.051-.618-.051-.928-.051-2.835 0-5 .98-7.99 2.783C6.857 6.581 5.053 7.973 3.558 10.5c2.165-1.753 4.536-3.3 6.546-4.227l.567.876c-.206.155-.515.516-1.082 1.134l-.619.619c-2.577 2.526-3.35 3.814-4.278 5.258l-.155.257c-1.237 2.01-2.165 3.918-2.68 5.567-.567 1.701-.825 3.248-.825 4.588 0 1.237.258 2.165.825 2.629 1.7 1.701 4.536 1.546 8.556-.412l.207-.104.206.155c1.804.876 3.763 1.34 5.824 1.34 2.732 0 5.258-.824 7.423-2.422 1.959-1.444 3.454-3.3 4.382-5.62H22.32c-.619.98-1.34 1.753-2.165 2.269-.98.567-2.114.876-3.3.876-1.185 0-2.319-.309-3.298-.876-.98-.567-1.753-1.392-2.32-2.371-.464-.98-.928-1.907-.928-2.99v-.515h18.557v-1.031c0-2.423-.103-4.588-1.186-6.495l-.103-.206.103-.206c1.186-3.093 1.083-5.413-.309-6.805zM4.124 18.592l.412 1.134c1.031 2.835 1.856 4.072 4.485 5.67l.824.515-.876.413c-1.753.773-3.093 1.237-4.175 1.237-.825 0-1.443-.258-2.062-.877-1.701-1.649-.773-3.762.876-7.061l.516-1.031zm-.103 2.525c-1.392 2.836-1.495 3.918-.567 4.794.824.825 1.804.773 4.226-.257-1.958-1.29-2.835-2.526-3.66-4.537zm12.577-13.35c1.701 0 3.093.515 4.175 1.546 1.134 1.083 1.753 2.475 1.856 4.072l.103.568H10.258l.051-.568c.103-1.443.825-2.835 2.114-4.072 1.134-1.03 2.474-1.546 4.175-1.546zm0 1.03c-1.443 0-2.577.413-3.505 1.29-.928.876-1.495 1.855-1.701 2.835h10.206c-.155-1.134-.67-2.062-1.495-2.835-.928-.877-2.01-1.29-3.505-1.29zm4.69-6.236c2.269-.928 3.145-1.031 4.279-.464.722.36 1.289.98 1.598 1.65.31.72.155 1.34-.464 3.092l-.258.876-.567-.67c-1.804-2.113-2.113-2.32-4.587-3.505l-1.031-.515zm3.918.515c-.618-.258-1.03-.412-2.37.052 1.442.721 2.061 1.185 3.298 2.577.31-.98.31-1.186.206-1.495-.206-.464-.618-.876-1.134-1.134z"/>
</svg>
