<svg width="40" height="40" viewBox="0 0 40 40" fill="none" xmlns="http://www.w3.org/2000/svg">
<path d="M0 20C0 8.95431 8.95431 0 20 0C31.0457 0 40 8.95431 40 20C40 31.0457 31.0457 40 20 40C8.95431 40 0 31.0457 0 20Z" fill="white"/>
<path fill-rule="evenodd" clip-rule="evenodd" d="M17.0163 11.439C14.6227 11.439 13.4086 12.3811 13.4086 14.2414V28.3671C13.4086 28.4573 13.4593 28.5063 13.5015 28.5312C13.5438 28.5581 13.6104 28.5772 13.6874 28.5331L19.6803 25.0986C19.8944 24.9767 20.1564 24.9758 20.3714 25.0995L26.3126 28.5283C26.3906 28.5744 26.4572 28.5533 26.4995 28.5274C26.5417 28.5015 26.5915 28.4525 26.5915 28.3623V14.4169C26.5915 13.6811 26.5915 11.439 22.9875 11.439H17.0163ZM13.5954 30C13.3184 30 13.0414 29.9242 12.7897 29.7726C12.2949 29.4781 12 28.9514 12 28.3672V14.2414C12 11.5455 13.8283 10 17.0163 10H22.9875C26.1727 10 28 11.6108 28 14.4169V28.3624C28 28.9476 27.7051 29.4743 27.2093 29.7688C26.7154 30.0643 26.1201 30.07 25.6205 29.7822L20.0239 26.552L14.3757 29.7889C14.1316 29.929 13.864 30 13.5954 30Z" fill="#C52D52"/>
<path fill-rule="evenodd" clip-rule="evenodd" d="M19.7472 15.9961H16.5279C16.1391 15.9961 15.8236 15.6738 15.8236 15.2766C15.8236 14.8794 16.1391 14.5571 16.5279 14.5571H19.7472C20.1359 14.5571 20.4515 14.8794 20.4515 15.2766C20.4515 15.6738 20.1359 15.9961 19.7472 15.9961Z" fill="#C52D52"/>
<path fill-rule="evenodd" clip-rule="evenodd" d="M23.6207 19.5938H16.5279C16.1391 19.5938 15.8236 19.2714 15.8236 18.8743C15.8236 18.4771 16.1391 18.1547 16.5279 18.1547H23.6207C24.0094 18.1547 24.3249 18.4771 24.3249 18.8743C24.3249 19.2714 24.0094 19.5938 23.6207 19.5938Z" fill="#C52D52"/>
<path fill-rule="evenodd" clip-rule="evenodd" d="M23.6207 23.1914H16.5279C16.1391 23.1914 15.8236 22.8691 15.8236 22.4719C15.8236 22.0747 16.1391 21.7524 16.5279 21.7524H23.6207C24.0094 21.7524 24.3249 22.0747 24.3249 22.4719C24.3249 22.8691 24.0094 23.1914 23.6207 23.1914Z" fill="#C52D52"/>
<path d="M20 39C9.50659 39 1 30.4934 1 20H-1C-1 31.598 8.40202 41 20 41V39ZM39 20C39 30.4934 30.4934 39 20 39V41C31.598 41 41 31.598 41 20H39ZM20 1C30.4934 1 39 9.50659 39 20H41C41 8.40202 31.598 -1 20 -1V1ZM20 -1C8.40202 -1 -1 8.40202 -1 20H1C1 9.50659 9.50659 1 20 1V-1Z" fill="#F2F2F8"/>
</svg>
