<svg width="40" height="40" viewBox="0 0 40 40" fill="none" xmlns="http://www.w3.org/2000/svg">
<path d="M0 20C0 8.95431 8.95431 0 20 0C31.0457 0 40 8.95431 40 20C40 31.0457 31.0457 40 20 40C8.95431 40 0 31.0457 0 20Z" fill="#F9F8FF"/>
<path fill-rule="evenodd" clip-rule="evenodd" d="M11.9 13.3257C11.8846 13.3461 11.8795 13.353 11.8846 13.3439C11.8717 13.3666 11.8576 13.3885 11.8424 13.4096C11.6396 13.6914 11.2667 14.431 11.7018 15.8918C12.1492 17.3937 13.4526 19.6529 16.6787 22.856C19.905 26.0587 22.182 27.3541 23.698 27.799C25.1747 28.2324 25.9246 27.8606 26.2104 27.6577C26.2321 27.6423 26.2546 27.628 26.2778 27.615C26.2753 27.6165 26.278 27.6146 26.2856 27.6096C26.3255 27.5829 26.4991 27.4667 26.7308 27.2712C26.9991 27.0447 27.3118 26.7393 27.5612 26.3869C27.8127 26.0317 27.9705 25.6703 27.9961 25.3218C28.02 24.9978 27.936 24.6152 27.5713 24.1728C26.3982 22.759 25.6647 22.2839 25.2037 22.148C24.8107 22.0322 24.5246 22.1306 24.021 22.3726C23.987 22.3889 23.9517 22.4061 23.9152 22.4239C23.4388 22.6563 22.751 22.9917 21.8662 22.8818C20.924 22.7648 19.9047 22.1747 18.6431 20.9226L18.643 20.9225C17.3783 19.6667 16.7922 18.6326 16.7121 17.6618C16.6378 16.7622 17.024 16.0602 17.2915 15.5739C17.3119 15.5366 17.3317 15.5007 17.3506 15.466C17.6388 14.9348 17.756 14.6367 17.6582 14.2479C17.5454 13.7993 17.0995 13.0725 15.6764 11.9088C15.2437 11.5571 14.8447 11.4726 14.4782 11.507C14.0853 11.5439 13.6731 11.7246 13.27 11.9986C12.871 12.2698 12.5224 12.6043 12.2647 12.8871C12.0646 13.1067 11.9427 13.2689 11.9 13.3257ZM14.3381 10.0136C15.0986 9.94222 15.8875 10.147 16.6236 10.7457L16.6251 10.7469L16.6251 10.7469C18.1032 11.9554 18.8767 12.9427 19.1129 13.882C19.3642 14.8813 18.9601 15.6449 18.6689 16.1814L18.6602 16.1975C18.3509 16.7675 18.1708 17.0994 18.207 17.5384C18.2434 17.979 18.5278 18.6943 19.6998 19.8579C20.8754 21.0248 21.5996 21.3372 22.0511 21.3933C22.4841 21.4471 22.7999 21.2953 23.3412 21.0351L23.3713 21.0206C23.9054 20.7639 24.6511 20.4213 25.6278 20.7092C26.5364 20.977 27.5104 21.7502 28.7264 23.2159L28.7277 23.2175C29.3204 23.9358 29.5465 24.6945 29.4921 25.4321C29.4395 26.1455 29.1304 26.7663 28.7856 27.2535C28.1588 28.1391 27.2982 28.7451 27.0577 28.8956C26.3748 29.3714 25.1514 29.7888 23.2756 29.2383C21.4196 28.6936 18.9317 27.2061 15.622 23.9206L15.6219 23.9205C12.3132 20.6354 10.8138 18.165 10.2642 16.32C9.7069 14.4487 10.1318 13.2286 10.6133 12.5497C10.7014 12.4152 10.8996 12.1582 11.156 11.8769C11.4631 11.5398 11.8998 11.1163 12.4267 10.7581C12.9495 10.4027 13.6037 10.0825 14.3381 10.0136Z" fill="#898999"/>
</svg>
