<?xml version="1.0" encoding="UTF-8"?>
<svg width="21px" height="21px" viewBox="0 0 21 21" version="1.1" xmlns="http://www.w3.org/2000/svg" xmlns:xlink="http://www.w3.org/1999/xlink">
    <!-- Generator: sketchtool 61.2 (101010) - https://sketch.com -->
    <title>33D2C6DA-CC69-498A-B7EE-C7E4F38C8E3D</title>
    <desc>Created with sketchtool.</desc>
    <g id="UI-Cortes" stroke="none" stroke-width="1" fill="none" fill-rule="evenodd">
        <g id="CORTE-1---S---02-Navegación---Menu-Desplegado---Resumen" transform="translate(-20.000000, -530.000000)" fill="#EE2527" fill-rule="nonzero">
            <g id="Nav-Drawer/1.-Group/A.-Side/_Light-Copy-4" transform="translate(0.000000, 70.000000)">
                <g id="Line-items" transform="translate(0.000000, 60.000000)">
                    <g id="Secundarios" transform="translate(0.000000, 390.000000)">
                        <g id="Navbar/Primary/⏺-Line-item/Enabled">
                            <g id="icon/custom/help" transform="translate(20.000000, 10.000000)">
                                <path d="M10.3690909,15.7636364 C10.7945455,15.7636364 11.0781818,16.0472727 11.0781818,16.4727273 C11.0781818,16.8981818 10.7236364,17.1818182 10.3690909,17.1818182 C9.94363636,17.1818182 9.66,16.8981818 9.66,16.4727273 C9.58909091,16.0472727 9.94363636,15.7636364 10.3690909,15.7636364 Z M10.9363636,4.77272727 C13.2763636,4.77272727 14.7654545,6.04909091 14.7654545,8.10545455 C14.7654545,9.52363636 14.1272727,10.3036364 12.9218182,11.1545455 L12.4757648,11.5322266 C11.4785629,12.387456 11.1490909,12.7968 11.1490909,13.92 L11.1490909,14.3454545 C11.1490909,14.7709091 10.8654545,14.9836364 10.44,14.9836364 C10.0145455,14.9836364 9.73090909,14.7709091 9.73090909,14.3454545 L9.73090909,13.8490909 C9.73090909,12.8519318 9.85555398,12.2910298 10.2216983,11.7573939 L10.3966145,11.5085425 C10.6416861,11.1695124 10.9029947,10.9376471 11.7163636,10.3745455 C12.8509091,9.52363636 13.2054545,9.02727273 13.2054545,8.17636364 C13.2054545,6.9 12.2836364,6.12 10.7945455,6.12 C9.37636364,6.12 8.52545455,6.9 8.17090909,8.03454545 C8.02909091,8.46 7.81636364,8.60181818 7.53272727,8.60181818 L7.24909091,8.60181818 C6.96545455,8.53090909 6.68181818,8.31818182 6.68181818,7.96363636 C6.68181818,7.89272727 6.68181818,7.75090909 6.75272727,7.68 C6.96545455,6.97090909 7.39090909,6.26181818 7.95818182,5.76545455 C8.66727273,5.12727273 9.58909091,4.77272727 10.9363636,4.77272727 Z" id="-↳Color"></path>
                            </g>
                        </g>
                    </g>
                </g>
            </g>
        </g>
    </g>
</svg>