<svg xmlns="http://www.w3.org/2000/svg" width="26" height="26" viewBox="0 0 26 26">
    <path fill="#EE2527" d="M13 23.49l-.31-.005C7.042 23.32 2.512 18.69 2.512 13 2.511 7.207 7.207 2.51 13 2.51c5.793 0 10.488 4.696 10.488 10.49C23.482 18.79 18.79 23.483 13 23.489zm0-1.172c5.143-.006 9.311-4.174 9.317-9.317 0-5.146-4.171-9.317-9.317-9.317S3.683 7.855 3.683 13 7.854 22.318 13 22.318zm0-6.363c-.29 0-.532-.239-.582-.554l-.01-.121V7.176c0-.373.265-.675.592-.675.29 0 .531.239.581.554l.01.121v8.104c0 .373-.265.675-.591.675zm0 3.546c-.29 0-.532-.21-.582-.485l-.01-.106v-1.182c0-.326.265-.59.592-.59.29 0 .531.208.581.484l.01.106v1.182c0 .326-.265.59-.591.59z"/>
</svg>
