<svg xmlns="http://www.w3.org/2000/svg" width="23" height="22" viewBox="0 0 23 22">
    <path transform="translate(1, 0)" fill="#EE2527" d="M16.576 4.773c2.97 0 5.379 2.555 5.379 5.688 0 3.132-2.408 5.688-5.38 5.688-1.584 0-3.064-.737-4.078-1.984l-.156-.2-.108-.154-.126.144c-.711.767-1.638 1.272-2.646 1.438l-.254.035-.238.019-.234.006c-1.418 0-2.746-.67-3.642-1.815l-.055-.074-.046.04c-.451.357-.971.6-1.527.711l-.24.04-.244.024-.215.006c-2.056 0-3.72-1.764-3.72-3.924s1.663-3.925 3.72-3.925c.742 0 1.457.232 2.068.664l.204.156.066-.087c.736-.935 1.767-1.554 2.906-1.741l.245-.034.249-.02.231-.006c1.198 0 2.337.48 3.204 1.327l.17.174.123.14.125-.174c.857-1.147 2.1-1.904 3.473-2.107l.259-.032.252-.018.235-.005zm0 .996c-1.54 0-2.96.866-3.752 2.27l-.105.195-.2.397c-.078.152-.275.18-.39.072l-.045-.054-.233-.38c-.693-1.128-1.863-1.805-3.116-1.805-1.226 0-2.365.646-3.061 1.719l-.119.193-.173.304c-.075.13-.242.161-.358.081l-.046-.041-.23-.264c-.518-.593-1.229-.924-1.982-.924-1.497 0-2.724 1.31-2.724 2.929 0 1.618 1.227 2.928 2.724 2.928.69 0 1.345-.278 1.849-.781l.133-.143.23-.263c.098-.113.269-.112.366-.01l.038.05.173.303c.681 1.188 1.882 1.912 3.18 1.912 1.18 0 2.285-.6 2.989-1.61l.127-.195.233-.38c.089-.145.287-.156.394-.04l.04.058.201.398c.769 1.517 2.246 2.465 3.857 2.465 2.411 0 4.382-2.101 4.382-4.692s-1.971-4.692-4.382-4.692zm1.253 1.567c.421 0 .74.32.74.758 0 .198-.054.355-.16.48l-1.07 1.174c.937.1 1.547.74 1.547 1.654 0 .795-.344 1.398-1.023 1.81-.679.41-1.572.612-2.69.603-.335 0-.558-.247-.584-.585-.008-.183.043-.338.172-.475.103-.11.217-.167.343-.171l.095.006c.688.073 1.28 0 1.78-.21.498-.22.747-.53.747-.941 0-.466-.3-.74-.79-.74-.104 0-.241.018-.422.064l-.094.018c-.126.024-.206.036-.24.036-.276 0-.534-.228-.534-.557 0-.163.069-.31.199-.434l.025-.023L17.02 8.57h-1.847c-.318 0-.593-.283-.593-.62 0-.33.244-.599.567-.613h2.681zm-9.157.492c.505 0 .891.14 1.173.418.282.279.42.627.42 1.045 0 .3-.086.579-.25.836-.163.251-.498.558-.989.92-.046.028-.177.133-.236.181-.052.035-.177.133-.23.188l-.05.044c-.148.132-.278.262-.306.382l-.004.02h1.724c.255 0 .452.21.452.467 0 .263-.185.455-.428.467H7.663c-.334 0-.55-.216-.55-.585 0-.593.353-1.143 1.055-1.652l.22-.16c.319-.235.547-.415.683-.537l.073-.069c.144-.14.216-.3.216-.474 0-.3-.203-.578-.668-.578-.264 0-.494.097-.683.287l-.09.103c-.08.097-.158.16-.236.188-.236.077-.492-.063-.564-.293-.046-.16-.026-.3.06-.418.307-.425.818-.78 1.493-.78zm-5.713.98c.2 0 .333.174.342.354v2.812c0 .208-.146.37-.342.37-.175 0-.326-.16-.337-.35V9.783l-.51.306c-.176.102-.372.042-.468-.134-.082-.165-.03-.38.118-.486l1.016-.607c.055-.037.115-.053.18-.053z"/>
</svg>
