<?xml version="1.0" encoding="UTF-8"?>
<svg width="21px" height="21px" viewBox="0 0 21 21" version="1.1" xmlns="http://www.w3.org/2000/svg" xmlns:xlink="http://www.w3.org/1999/xlink">
    <!-- Generator: sketchtool 61.2 (101010) - https://sketch.com -->
    <title>422F4A63-0D16-43E0-8101-61B83FF95EED</title>
    <desc>Created with sketchtool.</desc>
    <g id="UI-Cortes" stroke="none" stroke-width="1" fill="none" fill-rule="evenodd">
        <g id="CORTE-1---S---02-Navegación---Menu-Desplegado---Resumen" transform="translate(-20.000000, -304.000000)" fill="#EE2527" fill-rule="nonzero">
            <g id="Nav-Drawer/1.-Group/A.-Side/_Light-Copy-4" transform="translate(0.000000, 70.000000)">
                <g id="Line-items" transform="translate(0.000000, 60.000000)">
                    <g id="Principales">
                        <g id="Navbar/Primary/⏺-Line-item/Enabled" transform="translate(0.000000, 164.000000)">
                            <g id="icon/custom/loans" transform="translate(20.000000, 10.000000)">
                                <g id="Group" transform="translate(0.954545, 2.863636)">
                                    <path d="M3.19482866,9.54545529 C3.37726446,9.54508669 3.52780329,9.68122049 3.54988361,9.85761461 L3.55267159,9.90249619 L3.55387916,10.4990353 C4.83757526,9.77802854 6.38456896,9.71016607 7.72314627,10.30972 L8.11929481,10.4982302 C8.44775356,10.6560192 8.80388204,10.7463831 9.1667601,10.7642333 L9.3031149,10.7675181 L11.8909351,10.7634928 C12.6749855,10.76272 13.4022782,11.1648153 13.8199633,11.8234108 L13.8705432,11.9070606 L16.6330584,10.502658 C17.4819793,10.0441843 18.5414198,10.3335983 19.0393408,11.159978 C19.1290027,11.3086767 19.0985927,11.4972867 18.9726042,11.6107811 L18.9358923,11.6397854 L12.6571376,15.9634357 L12.6347976,15.9753604 C12.0177299,16.2808753 11.3422963,16.4487274 10.6543845,16.4684511 C10.3945157,16.4761795 10.1346469,16.4622683 9.87745723,16.4271297 L9.67308383,16.3945378 L5.22676467,15.2850335 C4.93731405,15.2118475 4.63256091,15.2441159 4.36573142,15.3736732 L4.28687351,15.4154509 L3.56233214,15.8312572 L3.56273467,16.1291242 C3.56310623,16.3082159 3.43177417,16.4571256 3.25896814,16.4834074 L3.20529426,16.4877722 L0.367507245,16.4921999 C0.185443005,16.4921999 0.0345897771,16.3556946 0.0121422961,16.1795621 L0.0092617926,16.1347595 L7.46743234e-07,9.90772899 C-0.000367854004,9.72529319 0.135765948,9.57475436 0.31216006,9.55267404 L0.357041648,9.54988606 L3.19482866,9.54545529 Z M2.8381933,10.2611442 L0.715689624,10.2643644 L0.724545129,15.775709 L2.84624376,15.7728913 L2.8381933,10.2611442 Z M3.66577926,11.2675612 L3.55508673,11.3431259 L3.56112458,15.0076952 L3.93144572,14.795163 C4.3462054,14.5562254 4.83284674,14.4764793 5.30071703,14.5686882 L5.4006546,14.5910839 L9.82277206,15.6948019 C10.6134219,15.8327015 11.4258219,15.7331321 12.1576184,15.4095171 L12.2938606,15.346217 L18.2101434,11.2706718 C17.8862308,10.9880533 17.4289647,10.9229365 17.0413746,11.0981413 L14.1281579,12.5788715 C14.1599572,12.7310252 14.1760581,12.8863991 14.1764606,13.0413704 C14.1768322,13.2204622 14.0455001,13.3693718 13.8730107,13.3956536 L13.8190202,13.4000184 L9.56555988,13.4068613 C9.36751857,13.4068613 9.20731443,13.2470596 9.2069119,13.0494209 C9.2069119,12.8673566 9.34307423,12.7161604 9.51947054,12.6936602 L9.56435231,12.6907729 L13.4189124,12.6855401 C13.257277,12.004501 12.6652745,11.5164367 11.972506,11.481218 L11.8921427,11.4791787 L9.30432246,11.4832039 C8.83373651,11.4832039 8.36880583,11.3870642 7.93705079,11.2014379 L7.80854707,11.143072 L7.54167433,11.0138621 C6.29268326,10.4090588 4.82005922,10.5080193 3.66577926,11.2675612 Z" id="-↳Color"></path>
                                    <path d="M13.70452,0.191970978 C13.8576301,0.287295101 14.0362584,0.510780754 14.0362584,0.893033675 C14.0362584,1.65849595 13.4525264,2.23554164 12.9931962,2.5830443 C14.2308358,3.57135461 14.9549187,5.03756077 14.9549187,6.63160965 C14.9549187,7.87528658 14.2914419,9.34149274 11.1367369,9.34149274 C7.97884217,9.34149274 7.31855509,7.87528658 7.31855509,6.63160965 C7.31855509,5.03756077 8.04263803,3.57135461 9.27708779,2.5830443 C8.82094744,2.23554164 8.23402559,1.65849595 8.23402559,0.893033675 C8.23402559,0.510780754 8.41584377,0.287295101 8.56576402,0.191970978 C9.02190438,-0.155531678 9.72684855,0.0325660895 10.4062744,0.255414123 L10.8777685,0.373260344 C10.98571,0.397896068 11.0774979,0.414819011 11.1335471,0.414819011 C11.2451899,0.414819011 11.5928773,0.322682986 11.8640096,0.255414123 L12.1559547,0.163495595 C12.7397705,-0.010245509 13.3135426,-0.105888442 13.70452,0.191970978 Z M12.135142,2.9971782 L10.135142,2.9971782 C8.89431267,3.79452145 8.15428077,5.16540349 8.15428077,6.63160965 L8.15814754,6.77938313 C8.20046686,7.55607837 8.62569346,8.51290614 11.1367369,8.51290614 C13.8097832,8.51290614 14.1160033,7.42863409 14.1160033,6.63160965 C14.1160033,5.16540349 13.3759714,3.79452145 12.135142,2.9971782 Z M12.1000543,1.05243856 L11.7448059,1.14468086 C11.5761013,1.18718883 11.4206875,1.22164685 11.2781658,1.23621912 L11.1239777,1.24372443 C10.8624147,1.24372443 10.5402457,1.14840031 10.1670399,1.05243856 L9.83043707,0.951419541 C9.53313245,0.866569276 9.19128237,0.784733995 9.07294106,0.82959053 C9.07613085,0.861471508 9.06975127,0.861471508 9.06975127,0.893033675 C9.06975127,1.40344813 9.77150565,1.94542475 10.1191931,2.16827278 L12.151091,2.16827278 C12.4987784,1.94542475 13.2005328,1.40344813 13.2005328,0.893033675 C13.2005328,0.861471508 13.1909634,0.82959053 13.1909634,0.82959053 C13.0538023,0.765509765 12.4094642,0.959983728 12.1000543,1.05243856 Z" id="Combined-Shape"></path>
                                </g>
                            </g>
                        </g>
                    </g>
                </g>
            </g>
        </g>
    </g>
</svg>