<svg xmlns="http://www.w3.org/2000/svg" width="21" height="21" viewBox="0 0 21 21">
    <path fill="#EE2527" d="M14.382 1.91c1.039 0 1.884.81 1.959 1.83l2.75 4.13v.12c0 .798-.31 1.521-.806 2.074v8.453c0 .215-.174.39-.39.39H3.105c-.216 0-.39-.175-.39-.39v-8.453c-.495-.553-.806-1.276-.806-2.075V7.87l2.752-4.133c.076-1.019.92-1.828 1.958-1.828zm-1.149 7.56c-.529.973-1.549 1.643-2.733 1.643-1.183 0-2.203-.67-2.733-1.643-.53.973-1.55 1.643-2.734 1.643-.562 0-1.082-.161-1.537-.421v7.435h1.43v-5.662c0-.215.175-.39.39-.39H9.33c.216 0 .39.175.39.39v5.662h7.786v-7.435c-.456.26-.976.421-1.538.421-1.183 0-2.203-.67-2.734-1.643zM8.94 12.856H5.707v5.27H8.94v-5.27zm6.745-.781c.215 0 .39.175.39.39v3.473c0 .217-.175.39-.39.39h-4.012c-.216 0-.39-.173-.39-.39v-3.473c0-.215.174-.39.39-.39zm-.39.78h-3.232v2.693h3.231v-2.692zM12.801 8.38H8.199c.188 1.105 1.143 1.953 2.301 1.953 1.158 0 2.114-.848 2.302-1.953zm-5.466 0H2.733c.188 1.105 1.142 1.953 2.3 1.953S7.15 9.485 7.336 8.38zm10.931 0h-4.603c.187 1.105 1.145 1.953 2.303 1.953s2.113-.848 2.3-1.953zm-2.509-4.106h-3.281l1.027 3.325h4.468l-2.214-3.325zm-7.236 0h-3.28L3.028 7.599H7.48l1.042-3.325zm3.139 0H9.34L8.298 7.599h4.404l-1.041-3.325zm2.721-1.584H6.62c-.52 0-.964.336-1.126.803h10.016c-.162-.467-.606-.803-1.127-.803z"/>
</svg>
