<?xml version="1.0" encoding="UTF-8"?>
<svg width="21px" height="21px" viewBox="0 0 21 21" version="1.1" xmlns="http://www.w3.org/2000/svg" xmlns:xlink="http://www.w3.org/1999/xlink">
    <!-- Generator: sketchtool 61.2 (101010) - https://sketch.com -->
    <title>338697CA-3D4A-4387-9295-00EB8721C1D9</title>
    <desc>Created with sketchtool.</desc>
    <g id="UI-Cortes" stroke="none" stroke-width="1" fill="none" fill-rule="evenodd">
        <g id="CORTE-1---S---02-Navegación---Menu-Desplegado---Resumen" transform="translate(-20.000000, -427.000000)" fill="#EE2527" fill-rule="nonzero">
            <g id="Nav-Drawer/1.-Group/A.-Side/_Light-Copy-4" transform="translate(0.000000, 70.000000)">
                <g id="Line-items" transform="translate(0.000000, 60.000000)">
                    <g id="Principales">
                        <g id="Navbar/Primary/⏺-Line-item/Enabled" transform="translate(0.000000, 287.000000)">
                            <g id="icon/custom/Club-SPV" transform="translate(20.000000, 10.000000)">
                                <path d="M11.1257399,8.50645856 L11.1257399,11.3775471 C11.1257399,12.1525091 11.4047145,12.5395496 11.9626636,12.5395496 C12.2128597,12.5395496 12.4545397,12.4646669 12.6888784,12.3140207 C12.9226297,12.1636681 13.113507,11.9346153 13.2612167,11.6274496 L13.2612167,8.50645856 L14.5500791,8.50645856 L14.5500791,12.0594197 C14.5500791,12.1939148 14.574159,12.2899407 14.6226125,12.3474976 C14.6704786,12.4053481 14.7491788,12.4370631 14.8581257,12.4435236 L14.8581257,13.5382784 C14.7295038,13.5638266 14.6226125,13.5796841 14.5359835,13.5861446 C14.4490609,13.5926051 14.3706544,13.5961289 14.3001766,13.5961289 C14.0693619,13.5961289 13.8817148,13.5432706 13.7372353,13.4375539 C13.5930495,13.3318373 13.5078889,13.1864768 13.4826344,13.0005917 L13.4535623,12.5974001 C13.2289143,12.9430348 12.9405428,13.2023343 12.5878602,13.3750049 C12.234884,13.5479691 11.8472562,13.6343044 11.4238022,13.6343044 C10.9043222,13.6343044 10.510234,13.4680943 10.2406565,13.1347931 C9.9713726,12.8023729 9.83658384,12.3090285 9.83658384,11.656228 L9.83658384,8.50645856 L11.1257399,8.50645856 Z M17.0655779,6.68181818 L17.0655779,9.38963324 C17.2452962,9.08246758 17.4808095,8.84431142 17.772705,8.67428377 C18.0643068,8.50484344 18.4058304,8.41997645 18.796982,8.41997645 C19.1244101,8.41997645 19.4224723,8.49045423 19.6917562,8.63111613 C19.9613337,8.77207169 20.1936167,8.96089341 20.3891926,9.19787495 C20.5847684,9.43485649 20.7354147,9.71295006 20.841425,10.0330367 C20.9471417,10.3534169 21,10.6896546 21,11.0414562 C21,11.4064724 20.9406812,11.7459404 20.8220436,12.0592728 C20.703406,12.3731926 20.5383705,12.6468813 20.3266435,12.880339 C20.1149165,13.1140903 19.8650141,13.2982135 19.5763488,13.4324149 C19.2876836,13.5672037 18.9767004,13.6341576 18.6431056,13.6341576 C18.2584143,13.6341576 17.9151288,13.5478223 17.61413,13.3748581 C17.3125438,13.2021875 17.0752686,12.965206 16.9020107,12.6642071 L16.9020107,13.5381316 L15.7767155,13.5381316 L15.7767155,6.68181818 L17.0655779,6.68181818 Z M8.11396005,6.68202374 L8.1136664,11.9249833 C8.1136664,12.1105748 8.15859598,12.2547606 8.24845515,12.357247 C8.33831432,12.4597335 8.46634896,12.5108299 8.63314637,12.5108299 C8.71008462,12.5108299 8.79524527,12.4982026 8.88804101,12.4723607 C8.98113041,12.4468125 9.0695213,12.4148039 9.15292,12.3766284 L9.32588422,13.3556823 C9.15292,13.439081 8.95059004,13.5030983 8.72006897,13.5477342 C8.48896058,13.5926638 8.28075747,13.6149818 8.09457866,13.6149818 C7.69050606,13.6149818 7.37805456,13.5080905 7.15634321,13.2934269 C6.93521917,13.079057 6.82480398,12.7733596 6.82480398,12.3766284 L6.82480398,6.68202374 L8.11396005,6.68202374 Z M3.36678231,6.68193564 C3.99520919,6.68193564 4.53876907,6.81995463 4.99746196,7.09511163 C5.45556753,7.37026864 5.79709111,7.72882434 6.02173904,8.1704851 L5.00216048,8.87144536 C4.91230131,8.67939341 4.80335441,8.51788183 4.67473246,8.38661696 C4.54669782,8.2553521 4.40867884,8.15139737 4.26126281,8.07445913 C4.11355313,7.99752088 3.95967664,7.94143232 3.79963335,7.90648708 C3.6392964,7.87124819 3.48218968,7.85362875 3.32801953,7.85362875 C2.99471836,7.85362875 2.70429117,7.9208763 2.45761894,8.05537139 C2.21065305,8.18986649 2.00568017,8.36400534 1.84211299,8.57837526 C1.67854581,8.79303883 1.55491603,9.03618717 1.47181099,9.3084076 C1.38841228,9.58033437 1.34671292,9.85079286 1.34671292,10.1197831 C1.34671292,10.4207819 1.39487274,10.7103281 1.49089872,10.9887154 C1.58721835,11.2673962 1.72347539,11.5123065 1.89966985,11.7234462 C2.07615795,11.9345859 2.2875913,12.1043199 2.53485084,12.2323545 C2.78152308,12.3603892 3.05256887,12.4244065 3.34740092,12.4244065 C3.50127741,12.4244065 3.6613207,12.4053187 3.82841177,12.3668496 C3.99520919,12.3283805 4.15407785,12.2675934 4.30443045,12.1841947 C4.45537036,12.1010897 4.59485764,11.9941984 4.72289227,11.8626398 C4.85122057,11.7316686 4.95400066,11.5730936 5.03093891,11.3872085 L6.11776502,12.0115241 C6.00852446,12.2675934 5.85347334,12.4931223 5.65143703,12.6886982 C5.44940073,12.8836867 5.22181623,13.0484285 4.96838988,13.1832172 C4.71496352,13.3177123 4.44421138,13.4199051 4.15554614,13.4903829 C3.86658724,13.560567 3.58467612,13.5960996 3.3089318,13.5960996 C2.82146048,13.5960996 2.37598218,13.4936131 1.97190957,13.2886403 C1.56813062,13.083961 1.21985292,12.8164391 0.928251102,12.4866619 C0.636355628,12.1571782 0.408771128,11.782765 0.245203945,11.3634222 C0.0816367626,10.9440794 0,10.5168079 0,10.0813139 C0,9.66520137 0.0751762993,9.25408098 0.226116213,8.84736545 C0.376762469,8.44094359 0.596418219,8.07768936 0.885083462,7.75760277 C1.17345505,7.43751618 1.52643127,7.17821668 1.94313114,6.97970427 C2.35983102,6.78148551 2.83438141,6.68193564 3.36678231,6.68193564 Z M18.3644247,9.51473131 C18.0757594,9.51473131 17.8173409,9.60899534 17.5897564,9.79811071 C17.3621719,9.98693244 17.1871521,10.2189218 17.0655779,10.4943725 L17.0655779,11.6945503 C17.1105075,11.822585 17.1762867,11.9379923 17.2629157,12.0401851 C17.3495446,12.1426716 17.4470389,12.2307688 17.5562794,12.3041831 C17.6652263,12.3778911 17.7838639,12.435448 17.9121922,12.4771474 C18.0402269,12.5188467 18.1653249,12.5394027 18.2871928,12.5394027 C18.4924593,12.5394027 18.6815747,12.4994653 18.8548326,12.4195905 C19.0280904,12.339422 19.1752128,12.2322371 19.2973743,12.097742 C19.4189485,11.9632469 19.5137998,11.8064338 19.5810474,11.6273028 C19.6485886,11.4481718 19.6820655,11.2558261 19.6820655,11.0511469 C19.6820655,10.846174 19.6500568,10.6508919 19.5857459,10.4653004 C19.5217286,10.2797089 19.4304011,10.1164354 19.3117635,9.9754798 C19.1928322,9.83511155 19.0536386,9.72293442 18.8933017,9.63953571 C18.7326711,9.55643066 18.5567703,9.51473131 18.3644247,9.51473131 Z" id="-↳Color"></path>
                            </g>
                        </g>
                    </g>
                </g>
            </g>
        </g>
    </g>
</svg>