<svg width="14" height="15" viewBox="0 0 14 15" fill="none" xmlns="http://www.w3.org/2000/svg">
<path d="M6.99992 9.36034C6.72392 9.36034 6.49992 9.13634 6.49992 8.86034V2.04418L5.41056 3.13811C5.31322 3.23677 5.18456 3.28544 5.05656 3.28544C4.92922 3.28544 4.80122 3.23677 4.70389 3.13944C4.50856 2.94477 4.50722 2.62877 4.70256 2.43277L6.62985 0.496887C6.72133 0.396231 6.85329 0.333008 6.99992 0.333008C7.14683 0.333008 7.279 0.39647 7.37051 0.497458L9.29789 2.43277C9.49256 2.62877 9.49189 2.94477 9.29656 3.13944C9.10056 3.33411 8.78456 3.33411 8.58989 3.13811L7.49992 2.04402V8.86034C7.49992 9.13634 7.27592 9.36034 6.99992 9.36034Z" fill="#3B3A45"/>
<path d="M10.7102 14.0251H3.29016C1.66016 14.0251 0.333496 12.6991 0.333496 11.0684V7.81839C0.333496 6.18839 1.66016 4.86239 3.29016 4.86239H3.91216C4.18816 4.86239 4.41216 5.08639 4.41216 5.36239C4.41216 5.63839 4.18816 5.86239 3.91216 5.86239H3.29016C2.21083 5.86239 1.3335 6.73972 1.3335 7.81839V11.0684C1.3335 12.1477 2.21083 13.0251 3.29016 13.0251H10.7102C11.7888 13.0251 12.6668 12.1477 12.6668 11.0684V7.81239C12.6668 6.73705 11.7922 5.86239 10.7175 5.86239H10.0888C9.81283 5.86239 9.58883 5.63839 9.58883 5.36239C9.58883 5.08639 9.81283 4.86239 10.0888 4.86239H10.7175C12.3435 4.86239 13.6668 6.18572 13.6668 7.81239V11.0684C13.6668 12.6991 12.3402 14.0251 10.7102 14.0251Z" fill="#3B3A45"/>
</svg>
