<svg xmlns="http://www.w3.org/2000/svg" width="30" height="30" viewBox="0 0 30 30">
    <g fill="none" fill-rule="evenodd">
        <g fill="#FFF">
            <g>
                <g>
                    <g>
                        <g>
                            <path d="M15 2.898l.357.005C21.876 3.092 27.102 8.435 27.102 15c0 6.685-5.418 12.103-12.102 12.103S2.898 21.685 2.898 15C2.905 8.32 8.319 2.905 15 2.898zm0 1.351C9.066 4.256 4.256 9.066 4.25 15 4.25 20.938 9.062 25.75 15 25.75S25.75 20.937 25.75 15 20.937 4.25 15 4.25zm0 7.342c.335 0 .613.276.67.64l.012.14v9.35c0 .43-.305.779-.682.779-.335 0-.613-.276-.67-.64l-.012-.14v-9.35c0-.43.305-.78.682-.78zM15 7.5c.335 0 .613.241.67.56l.012.122v1.363c0 .377-.305.682-.682.682-.335 0-.613-.24-.67-.559l-.012-.123V8.182c0-.377.305-.682.682-.682z" transform="translate(-644 -565) translate(581 319) translate(40 60) translate(9 165) translate(14 21) rotate(-180 15 15)"/>
                        </g>
                    </g>
                </g>
            </g>
        </g>
    </g>
</svg>
