<svg xmlns="http://www.w3.org/2000/svg" width="30" height="30" viewBox="0 0 30 30">
    <path fill="#333" fill-rule="evenodd" d="M15 0c8.283 0 15 6.717 15 15 0 8.283-6.717 15-15 15-8.283 0-15-6.717-15-15C0 6.717 6.717 0 15 0zm0 1.304C7.435 1.304 1.304 7.434 1.304 15c0 7.565 6.13 13.696 13.696 13.696 7.565 0 13.696-6.13 13.696-13.696 0-7.565-6.13-13.696-13.696-13.696zm0 23.805c.359 0 .652.293.652.652v.326c0 .359-.293.652-.652.652-.359 0-.652-.293-.652-.652v-.326c0-.359.293-.652.652-.652zm7.141-2.968c.261-.26.652-.26.913 0l.229.229c.26.26.26.652 0 .913-.13.13-.294.195-.457.195-.163 0-.326-.065-.456-.195l-.229-.229c-.26-.26-.26-.652 0-.913zm-.326-14.837c.261-.163.587-.097.783.098.195.196.26.522.098.783l-5.055 9.228c-.065.098-.163.196-.26.26l-9.229 5.055c-.098.033-.228.065-.326.065-.163 0-.326-.065-.456-.195-.196-.228-.229-.522-.098-.783l5.054-9.228c.065-.098.163-.196.261-.26zm-8.739 6.685L9.49 20.48l6.522-3.555-2.935-2.935zm7.435-4.467l-6.522 3.554 2.935 2.935 3.587-6.49zm5.576 4.826c.359 0 .652.293.652.652 0 .359-.293.652-.652.652h-.326c-.359 0-.652-.293-.652-.652 0-.359.293-.652.652-.652zm-21.848 0c.359 0 .652.293.652.652 0 .359-.293.652-.652.652h-.326c-.359 0-.652-.293-.652-.652 0-.359.293-.652.652-.652zm2.478-7.63c.261-.261.653-.261.913 0l.229.228c.26.26.26.652 0 .913-.13.13-.294.195-.457.195-.163 0-.326-.065-.456-.195l-.229-.229c-.26-.26-.26-.652 0-.913zM15 3.26c.359 0 .652.293.652.652v.326c0 .359-.293.652-.652.652-.359 0-.652-.293-.652-.652v-.326c0-.359.293-.652.652-.652z"/>
</svg>
