<svg width="18" height="18" viewBox="0 0 18 18" fill="none" xmlns="http://www.w3.org/2000/svg">
<path d="M17.5762 0.148682H16.5918C16.3457 0.148682 16.1699 0.359619 16.1699 0.605713L16.2402 4.05103C14.6934 1.69556 11.9863 0.148682 8.96289 0.183838C4.14648 0.183838 0.244141 4.12134 0.279297 8.90259C0.279297 13.719 4.18164 17.5862 8.99805 17.5862C11.2129 17.5862 13.2871 16.7424 14.834 15.3713C15.0098 15.1956 15.0098 14.9143 14.834 14.7385L14.1309 14.0354C13.9902 13.8948 13.7441 13.8948 13.5684 14.0354C12.3379 15.1252 10.7559 15.7581 8.99805 15.7581C5.16602 15.7581 2.10742 12.6995 2.10742 8.86743C2.10742 5.07056 5.16602 1.97681 8.99805 1.97681C11.7754 1.97681 14.166 3.66431 15.2559 6.05493L10.8262 5.94946C10.5801 5.94946 10.4043 6.12524 10.4043 6.37134V7.32056C10.4043 7.56665 10.5801 7.74243 10.8262 7.74243H17.5762C17.7871 7.74243 17.998 7.56665 17.998 7.32056V0.570557C17.998 0.359619 17.7871 0.148682 17.5762 0.148682Z" fill="#D52B1E"/>
</svg>
