<svg xmlns="http://www.w3.org/2000/svg" width="22" height="22" viewBox="0 0 22 22">
    <path fill="#3E3D40" fill-rule="evenodd" d="M9.614 4.938c.04.04.063.094.063.15V6.36c0 .056-.023.11-.063.15-.04.04-.094.063-.15.063H5.572v11.853h3.89c.057 0 .111.023.151.063.04.04.063.095.063.151v1.272c0 .056-.023.11-.063.15-.04.04-.094.063-.15.063h-4.74c-.39 0-.724-.265-.822-.638l-.02-.104-.007-.107V5.724c0-.39.265-.724.638-.822l.104-.02.107-.007h4.74c.056 0 .11.022.15.063zm4.742 3.047l3.931 4.37c.036.04.056.091.056.145 0 .054-.02.106-.056.146l-3.93 4.369c-.04.043-.096.069-.156.069-.059 0-.115-.026-.155-.07l-.833-.926c-.036-.04-.056-.092-.056-.145 0-.054.02-.106.056-.146l2.172-2.422H8.088c-.056 0-.11-.022-.15-.063-.04-.04-.063-.094-.063-.15v-1.324c0-.056.022-.11.063-.15.04-.04.094-.063.15-.063h7.298l-2.173-2.422c-.036-.04-.056-.092-.056-.146 0-.053.02-.105.056-.145l.833-.927c.04-.043.096-.069.155-.069.06 0 .116.026.155.07z"/>
</svg>
