<?xml version="1.0" encoding="UTF-8"?>
<svg width="21px" height="21px" viewBox="0 0 21 21" version="1.1" xmlns="http://www.w3.org/2000/svg" xmlns:xlink="http://www.w3.org/1999/xlink">
    <!-- Generator: sketchtool 61.2 (101010) - https://sketch.com -->
    <title>747B7D0B-7CD1-4303-8629-F9715FA4B711</title>
    <desc>Created with sketchtool.</desc>
    <g id="UI-Cortes" stroke="none" stroke-width="1" fill="none" fill-rule="evenodd">
        <g id="CORTE-1---S---02-Navegación---Menu-Desplegado---Resumen" transform="translate(-20.000000, -222.000000)" fill="#d52b1e" fill-rule="nonzero">
            <g id="Nav-Drawer/1.-Group/A.-Side/_Light-Copy-4" transform="translate(0.000000, 70.000000)">
                <g id="Line-items" transform="translate(0.000000, 60.000000)">
                    <g id="Principales">
                        <g id="Navbar/Primary/⏺-Line-item/Enabled" transform="translate(0.000000, 82.000000)">
                            <g id="icon/custom/cards" transform="translate(20.000000, 10.000000)">
                                <path d="M16.7045455,4.77272727 C17.4488008,4.77272727 18.0604283,5.34057499 18.1298092,6.06665181 L18.1363636,6.20454545 L18.1363636,12.8863636 C18.1363636,13.630619 17.5685159,14.2422465 16.8424391,14.3116274 L16.7045455,14.3181818 L15.2727273,14.3181818 L15.2727273,15.75 C15.2727273,16.4942554 14.7048796,17.1058828 13.9788027,17.1752637 L13.8409091,17.1818182 L3.34090909,17.1818182 C2.59665371,17.1818182 1.98502626,16.6139705 1.91564537,15.8878936 L1.90909091,15.75 L1.90909091,9.06818182 C1.90909091,8.32392643 2.47693862,7.71229899 3.20301544,7.6429181 L3.34090909,7.63636364 L4.77272727,7.63636364 L4.77272727,6.20454545 C4.77272727,5.46029007 5.34057499,4.84866263 6.06665181,4.77928173 L6.20454545,4.77272727 L16.7045455,4.77272727 Z M4.77272727,8.59090909 L3.34090909,8.59090909 C3.10660647,8.59090909 2.91173746,8.75974447 2.87132587,8.98239144 L2.86363636,9.06818182 L2.86363636,15.75 C2.86363636,15.9843026 3.03247174,16.1791716 3.25511871,16.2195832 L3.34090909,16.2272727 L13.8409091,16.2272727 C14.0752117,16.2272727 14.2700807,16.0584373 14.3104923,15.8357904 L14.3181818,15.75 L14.3181818,14.3181818 L6.20454545,14.3181818 C5.46029007,14.3181818 4.84866263,13.7503341 4.77928173,13.0242573 L4.77272727,12.8863636 L4.77272727,8.59090909 Z M17.1818182,10.9772727 L5.72727273,10.9772727 L5.72727273,12.8863636 C5.72727273,13.1206663 5.89610811,13.3155353 6.11875508,13.3559469 L6.20454545,13.3636364 L16.7045455,13.3636364 C16.9388481,13.3636364 17.1337171,13.194801 17.1741287,12.972154 L17.1818182,12.8863636 L17.1818182,10.9772727 Z M16.7045455,5.72727273 L6.20454545,5.72727273 C5.97024283,5.72727273 5.77537383,5.89610811 5.73496223,6.11875508 L5.72727273,6.20454545 L5.72727273,10.0227273 L17.1818182,10.0227273 L17.1818182,6.20454545 C17.1818182,5.97024283 17.0129828,5.77537383 16.7903358,5.73496223 L16.7045455,5.72727273 Z" id="-↳Color"></path>
                            </g>
                        </g>
                    </g>
                </g>
            </g>
        </g>
    </g>
</svg>