<?xml version="1.0" encoding="UTF-8"?>
<svg width="21px" height="21px" viewBox="0 0 21 21" version="1.1" xmlns="http://www.w3.org/2000/svg" xmlns:xlink="http://www.w3.org/1999/xlink">
  <!-- Generator: sketchtool 61.2 (101010) - https://sketch.com -->
  <title>61DD651B-4979-447C-BA80-AA25A9730A43</title>
  <desc>Created with sketchtool.</desc>
  <g id="UI-Cortes" stroke="none" stroke-width="1" fill="none" fill-rule="evenodd">
    <g id="CORTE-1---S---02-Navegación---Menu-Desplegado---Resumen" transform="translate(-20.000000, -140.000000)" fill="#EE2527" fill-rule="nonzero">
      <g id="Nav-Drawer/1.-Group/A.-Side/_Light-Copy-4" transform="translate(0.000000, 70.000000)">
        <g id="Line-items" transform="translate(0.000000, 60.000000)">
          <g id="Principales">
            <g id="Navbar/Primary/⏺-Line-item/Selected">
              <g id="icon/custom/resumen" transform="translate(20.000000, 10.000000)">
                <path d="M14.4993923,3.81818182 C15.4829429,3.81818182 16.3069164,4.60281328 16.3712606,5.57202405 L16.3753038,5.69409334 L16.3753038,15.5713418 L16.3192384,15.7066958 L13.945636,18.0802982 L13.810282,18.1363636 L5.69409334,18.1363636 C4.71054271,18.1363636 3.88656923,17.3517322 3.82222503,16.3825214 L3.81818182,16.2604521 L3.81818182,4.00960136 C3.81818182,3.91898585 3.88114615,3.84307645 3.96571062,3.82323734 L4.00960136,3.81818182 L14.4993923,3.81818182 Z M14.4993923,4.89013126 L4.89013126,4.88936558 L4.89013126,16.2604521 C4.89013126,16.662025 5.21567023,17.0143355 5.60889,17.0595254 L5.69409334,17.0644142 L13.4220831,17.0636485 L15.3033544,15.1104035 L15.3033544,5.69409334 C15.3033544,5.29252049 14.9778154,4.94020999 14.5845957,4.89502003 L14.4993923,4.89013126 Z M14.348142,13.4657268 C14.5793095,13.4931998 14.7868882,13.7349417 14.7673797,13.9634176 C14.7498221,14.1690459 14.5523905,14.3456529 14.3405931,14.378918 L14.2696889,14.3845406 L13.0446038,14.3845406 C12.981364,14.3845406 12.9458028,14.3998161 12.9341079,14.4133073 L12.9297521,14.4228245 L12.9297521,16.0307487 C12.9297521,16.2343021 12.6686686,16.4518717 12.4320613,16.4518717 C12.1931063,16.4518717 11.9811407,16.3264916 11.9411371,16.107259 L11.9343704,16.0307487 L11.9343704,14.4228245 C11.9343704,13.9509049 12.3597299,13.5226354 12.8658395,13.4709451 L12.968036,13.4657268 L14.348142,13.4657268 Z M13.6571463,10.5561497 C13.9160001,10.5561497 14.1548371,10.7949868 14.1548371,11.0538405 C14.1548371,11.2891621 13.9574511,11.507941 13.7270821,11.5457742 L13.6571463,11.5515314 L6.68947496,11.5515314 C6.43062123,11.5515314 6.19178415,11.3126943 6.19178415,11.0538405 C6.19178415,10.818519 6.38917017,10.5997401 6.61953918,10.5619069 L6.68947496,10.5561497 L13.6571463,10.5561497 Z M13.6571463,8.1825474 C13.9160001,8.1825474 14.1548371,8.42138448 14.1548371,8.68023821 C14.1548371,8.91555978 13.9574511,9.13433867 13.7270821,9.17217185 L13.6571463,9.17792902 L6.68947496,9.17792902 C6.43062123,9.17792902 6.19178415,8.93909194 6.19178415,8.68023821 C6.19178415,8.44491664 6.38917017,8.22613775 6.61953918,8.18830458 L6.68947496,8.1825474 L13.6571463,8.1825474 Z M13.6571463,6.26835197 C13.9160001,6.26835197 14.1548371,6.50718905 14.1548371,6.76604278 C14.1548371,7.00136435 13.9574511,7.22014324 13.7270821,7.25797642 L13.6571463,7.26373359 L6.68947496,7.26373359 C6.43062123,7.26373359 6.19178415,7.02489651 6.19178415,6.76604278 C6.19178415,6.53072121 6.38917017,6.31194232 6.61953918,6.27410915 L6.68947496,6.26835197 L13.6571463,6.26835197 Z" id="-↳Color"></path>
              </g>
            </g>
          </g>
        </g>
      </g>
    </g>
  </g>
</svg>
