<svg xmlns="http://www.w3.org/2000/svg" width="22" height="22" viewBox="0 0 22 22">
    <path fill="#00A98F" fill-rule="evenodd" d="M7.165 8.602l.067-.076 3.33-3.334c.224-.227.549-.253.794-.077l.088.076 3.333 3.337c.274.28.299.76.055 1.075-.22.283-.581.336-.852.141l-.087-.073-2.22-2.227v8.758c.004.122-.016.242-.059.35l-.05.104-.063.094c-.12.15-.286.24-.464.25-.177.008-.35-.063-.478-.198-.132-.136-.21-.327-.218-.525V7.444L8.118 9.666c-.132.138-.303.209-.475.202l-.103-.013-.101-.033c-.203-.083-.354-.27-.413-.502l-.022-.118c-.024-.22.036-.44.16-.6z"/>
</svg>
