<?xml version="1.0" encoding="UTF-8"?>
<svg width="21px" height="21px" viewBox="0 0 21 21" version="1.1" xmlns="http://www.w3.org/2000/svg" xmlns:xlink="http://www.w3.org/1999/xlink">
    <!-- Generator: sketchtool 61.2 (101010) - https://sketch.com -->
    <title>773099BA-58B6-4B59-B8E3-B78307B0D8DB</title>
    <desc>Created with sketchtool.</desc>
    <g id="UI-Cortes" stroke="none" stroke-width="1" fill="none" fill-rule="evenodd">
        <g id="CORTE-1---S---02-Navegación---Menu-Desplegado---Resumen" transform="translate(-20.000000, -612.000000)" fill="#EE2527" fill-rule="nonzero">
            <g id="Nav-Drawer/1.-Group/A.-Side/_Light-Copy-4" transform="translate(0.000000, 70.000000)">
                <g id="Line-items" transform="translate(0.000000, 60.000000)">
                    <g id="Secundarios" transform="translate(0.000000, 390.000000)">
                        <g id="Navbar/Primary/⏺-Line-item/Enabled" transform="translate(0.000000, 82.000000)">
                            <g id="icon/custom/logout" transform="translate(20.000000, 10.000000)">
                                <path d="M9.38294568,2.86363636 C9.55297253,2.86134789 9.7168455,2.92704599 9.84016093,3.04786326 C9.96032509,3.16802425 10.0281326,3.33050261 10.0281326,3.50014466 C10.0281326,3.66978562 9.96032598,3.83226101 9.83841747,3.95415165 C9.74114167,4.04944533 9.61678028,4.1105502 9.48564094,4.12992274 L9.38633286,4.13650948 L6.20454545,4.13650948 C6.12789232,4.13650948 6.07206278,4.1770105 6.05279675,4.24226321 L6.04544895,4.29559759 L6.04544895,16.2273336 C6.04544895,16.3039766 6.08594998,16.3598061 6.15120268,16.3790722 L6.20454545,16.38642 L9.38285063,16.3864454 C9.55290567,16.3839636 9.71681869,16.4496598 9.84016093,16.5705034 C9.96032509,16.6906644 10.0281326,16.8531427 10.0281326,17.0227848 C10.0281326,17.1924257 9.96032598,17.3549011 9.83841747,17.4767918 C9.74116311,17.5720644 9.61683165,17.6331663 9.48566918,17.6525727 L9.38633286,17.659192 L6.20454545,17.659192 C5.46489695,17.659192 4.84920464,17.0869799 4.77932956,16.3644689 L4.77272727,16.2273336 L4.77272727,4.29560554 C4.77272727,3.55595338 5.34491313,2.94022005 6.06741037,2.87034019 L6.20454545,2.86363636 L9.38294568,2.86363636 Z M13.778384,6.59120071 L13.8415129,6.65542395 L16.6245522,9.83604806 C16.8145193,10.0503082 16.8356267,10.3607393 16.6885994,10.5955501 L16.6255842,10.6797239 L13.8400907,13.8631304 C13.6064203,14.1253796 13.2049784,14.1487909 12.9420118,13.915591 C12.7060332,13.706445 12.6622296,13.3606807 12.8242411,13.101666 L12.8858864,13.0188471 L14.7448636,10.897192 L8.20373229,10.8977547 C8.10216904,10.902236 8.00208058,10.8827072 7.91180945,10.8420283 L7.82511974,10.7944054 L7.7468288,10.7333178 C7.6208836,10.6198321 7.54592388,10.4603397 7.5384429,10.2907923 C7.53097408,10.1215202 7.59019984,9.95634474 7.70287974,9.83388878 C7.8163659,9.70794309 7.9758566,9.63298377 8.14102451,9.62573654 L14.7448636,9.6247829 L12.8898866,7.50249872 C12.7744213,7.37725839 12.7156343,7.21337348 12.7211697,7.0489479 L12.7322708,6.95053249 L12.7591762,6.85381632 C12.8284779,6.66082765 12.9855758,6.51585492 13.1786501,6.45957424 L13.2774265,6.43914192 C13.4606297,6.41570566 13.6436376,6.47279554 13.778384,6.59120071 Z" id="-↳Color"></path>
                            </g>
                        </g>
                    </g>
                </g>
            </g>
        </g>
    </g>
</svg>