<svg xmlns="http://www.w3.org/2000/svg" width="30" height="30" viewBox="0 0 30 30">
    <path fill="#00A98F" fill-rule="evenodd" d="M15 2.045c5.648 0 10.227 4.58 10.227 10.228 0 1.865-.499 3.613-1.37 5.118l2.987 5.176c.252.437-.042.972-.52 1.02l-.114.001-4.55-.287-1.997 4.066c-.205.416-.735.495-1.056.218l-.082-.085-.065-.093-2.844-4.925c-.204.012-.41.018-.616.018-.188 0-.376-.005-.562-.015l-2.84 4.922c-.25.432-.848.45-1.133.074l-.069-.112-2.026-4.084-4.52.303c-.466.031-.8-.395-.715-.814l.03-.105.049-.102 2.96-5.125c-.891-1.517-1.401-3.284-1.401-5.17C4.773 6.625 9.352 2.046 15 2.046zM7.03 18.682L5.034 22.14l3.699-.245c.183-.012.36.05.493.166l.091.096.072.115 1.663 3.35 1.92-3.323c-2.246-.452-4.225-1.64-5.676-3.3l-.266-.317zm15.973-.04c-1.462 1.834-3.542 3.155-5.925 3.647l1.924 3.33 1.636-3.328c.081-.164.223-.286.39-.343l.13-.031.135-.005 3.733.235-2.023-3.505zM15 3.409c-4.895 0-8.864 3.968-8.864 8.864 0 4.895 3.969 8.863 8.864 8.863 4.895 0 8.864-3.968 8.864-8.863 0-4.896-3.969-8.864-8.864-8.864zm6.606 4.98c.261.256.281.658.06.937l-.06.066-6.93 6.764c-.141.139-.327.208-.513.208-.155 0-.31-.048-.44-.144l-.074-.064-3.891-3.798c-.283-.277-.283-.726 0-1.002.262-.256.674-.276.96-.06l.068.06 3.377 3.295 6.415-6.261c.284-.277.743-.277 1.028 0z"/>
</svg>
