<svg xmlns="http://www.w3.org/2000/svg" width="21" height="21" viewBox="0 0 21 21">
    <path fill="#EE2527" d="M17.301 2.864c.744 0 1.356.567 1.425 1.294l.007.137v7.637c0 .744-.568 1.356-1.294 1.425l-.138.007h-1.074v3.234c0 .8-.598 1.461-1.367 1.532l-.138.006H3.414c-.788 0-1.43-.617-1.499-1.398l-.006-.14V9.174c0-.799.598-1.46 1.368-1.531l.137-.007h1v-3.34c0-.745.569-1.356 1.295-1.426l.138-.006H17.3zm0 .954H5.847c-.235 0-.43.169-.47.392l-.008.085v3.341h3.118c.263 0 .477.214.477.478 0 .234-.169.429-.391.47l-.086.007H3.414c-.27 0-.5.209-.543.488l-.007.095v7.424c0 .293.202.532.462.576l.088.008h11.308c.27 0 .5-.21.543-.488l.008-.096V12.41c0-.263.213-.477.477-.477.234 0 .43.169.47.391l.007.085h1.074c.234 0 .43-.169.47-.391l.007-.086V4.295c0-.234-.168-.429-.391-.47l-.086-.007zm-2.506 1.91l.064.004.059.011.06.02.072.038.053.039.03.027.036.04.04.06.028.056.02.06.014.078.002.044v3.818c0 .263-.214.477-.478.477-.234 0-.429-.169-.47-.391l-.007-.086V7.356l-7.299 7.3c-.186.186-.488.186-.675 0-.165-.166-.184-.423-.055-.61l.055-.065 7.298-7.3h-2.665c-.234 0-.429-.168-.47-.39l-.007-.086c0-.235.169-.43.391-.47l.086-.008h3.818z"/>
</svg>
