<svg width="16" height="16" viewBox="0 0 16 16" fill="none" xmlns="http://www.w3.org/2000/svg">
<path d="M5.96956 9.79449C5.67681 9.50175 5.67681 9.02657 5.96956 8.73383L13.199 1.50437L10.8836 1.50921C10.6757 1.51063 10.4877 1.42578 10.3519 1.29001C10.2168 1.15495 10.1327 0.96757 10.1327 0.761095C10.132 0.347438 10.4657 0.0108549 10.8808 0.0101479L14.9745 0.00103975C15.1795 -0.00972614 15.388 0.0631129 15.5445 0.219557C15.6993 0.374393 15.7723 0.580265 15.7633 0.783185L15.7549 4.88423C15.7535 5.2986 15.4176 5.63306 15.0039 5.63235C14.5896 5.63094 14.2544 5.29577 14.2558 4.88141L14.2602 2.56452L7.03022 9.79449C6.73747 10.0872 6.2623 10.0872 5.96956 9.79449Z" fill="#3B3A45"/>
<path d="M1.5 6C1.5 3.65279 3.40279 1.75 5.75 1.75H6.75C7.16421 1.75 7.5 1.41421 7.5 1C7.5 0.585786 7.16421 0.25 6.75 0.25H5.75C2.57436 0.25 0 2.82436 0 6V10C0 13.1756 2.57436 15.75 5.75 15.75H9.75C12.9256 15.75 15.5 13.1756 15.5 10V9C15.5 8.58579 15.1642 8.25 14.75 8.25C14.3358 8.25 14 8.58579 14 9V10C14 12.3472 12.0972 14.25 9.75 14.25H5.75C3.40279 14.25 1.5 12.3472 1.5 10V6Z" fill="#3B3A45"/>
</svg>
