<svg xmlns="http://www.w3.org/2000/svg" width="21" height="21" viewBox="0 0 21 21">
  <path fill="#EE2527" d="M19.553 2.864c.752 0 1.37.574 1.44 1.307l.007.14v2.374c0 .237-.17.434-.396.475l-.086.008h-1.113c-.267 0-.483-.216-.483-.483 0-.237.17-.434.396-.474l.087-.008h.63V4.311c0-.237-.17-.434-.395-.475l-.087-.008H17.66v13.988c0 .237-.17.434-.395.474l-.087.008H3.822c-.237 0-.434-.17-.475-.395l-.008-.087V3.828H1.447c-.237 0-.434.17-.475.396l-.007.087v1.892h.63c.237 0 .434.17.475.395l.008.087c0 .237-.17.434-.396.475l-.087.008H.482c-.236 0-.433-.171-.474-.396L0 6.685V4.311c0-.753.574-1.37 1.308-1.44l.139-.007h18.106zm-2.858 12.651H4.303v1.819h12.392v-1.819zm0-11.687H4.303v10.723h12.392V3.828zM8.94 7.118c.263 0 .475.235.475.522 0 .266-.18.485-.415.517l-.06.004c-.596 0-1.078.53-1.078 1.184 0 .653.482 1.183 1.078 1.183.566 0 1.03-.478 1.075-1.086l.004-.097c0-1.14.785-2.096 1.818-2.213.997-.114 1.914.588 2.169 1.639l.025.118h.447c.262 0 .474.233.474.52 0 .267-.18.486-.415.518l-.06.004h-.475c-.241.968-1.042 1.638-1.956 1.64-.262 0-.475-.234-.475-.522 0-.256.169-.468.39-.513l.085-.008c.548-.001 1.008-.451 1.071-1.048-.008-.06-.006-.12.006-.179-.022-.644-.51-1.15-1.097-1.14-.558.012-1.01.488-1.055 1.088l-.003.096c0 1.115-.751 2.058-1.758 2.205-.97.143-1.888-.493-2.193-1.501l-.033-.118h-.461c-.263 0-.475-.233-.475-.521 0-.266.18-.485.415-.517l.06-.004h.432c.198-1.03 1.026-1.768 1.985-1.77z"/>
</svg>
