<?xml version="1.0" encoding="UTF-8"?>
<svg width="21px" height="21px" viewBox="0 0 21 21" version="1.1" xmlns="http://www.w3.org/2000/svg" xmlns:xlink="http://www.w3.org/1999/xlink">
    <!-- Generator: sketchtool 61.2 (101010) - https://sketch.com -->
    <title>B461B58C-F5B1-41AA-B4DB-6A9CD723ED2F</title>
    <desc>Created with sketchtool.</desc>
    <g id="UI-Cortes" stroke="none" stroke-width="1" fill="none" fill-rule="evenodd">
        <g id="CORTE-1---S---02-Navegación---Menu-Desplegado---Resumen" transform="translate(-20.000000, -468.000000)" fill="#EE2527" fill-rule="nonzero">
            <g id="Nav-Drawer/1.-Group/A.-Side/_Light-Copy-4" transform="translate(0.000000, 70.000000)">
                <g id="Line-items" transform="translate(0.000000, 60.000000)">
                    <g id="Principales">
                        <g id="Navbar/Primary/⏺-Line-item/Enabled" transform="translate(0.000000, 328.000000)">
                            <g id="icon/custom/Tienda-SPV" transform="translate(20.000000, 10.000000)">
                                <path d="M16.4148106,7.69065428 L16.4148106,11.3981645 C16.4148106,11.6905741 16.4829677,11.7994687 16.6666785,11.7994687 C16.7142709,11.7994687 16.7753773,11.7926138 16.8366795,11.7859548 L16.8366795,12.44559 C16.7483495,12.4796686 16.6122312,12.5002332 16.4351794,12.5002332 C16.2381506,12.5002332 16.0814677,12.4661547 15.9590591,12.3913386 C15.8094269,12.2892988 15.714242,12.1531805 15.6801635,11.9763246 C15.4422012,12.3368912 15.0475561,12.5137471 14.5034745,12.5137471 C14.0203035,12.5137471 13.6121444,12.3437461 13.2789973,11.9966934 C12.9523134,11.6498365 12.7891672,11.2279677 12.7891672,10.7177688 C12.7891672,10.20757 12.9523134,9.78589699 13.2789973,9.44569914 C13.6121444,9.09884227 14.0203035,8.92884127 14.5034745,8.92884127 C15.054411,8.92884127 15.4692291,9.17365837 15.5984925,9.50014647 L15.5984925,7.69065428 L16.4148106,7.69065428 Z M18.6665992,8.92884127 C19.2177315,8.92884127 19.6325496,9.17365837 19.761813,9.50014647 L19.761813,9.00365738 L20.5781312,9.00365738 L20.5781312,11.3981645 C20.5781312,11.6905741 20.6462882,11.7994687 20.8298031,11.7994687 C20.8773956,11.7994687 20.9386978,11.7926138 21,11.7859548 L21,12.44559 C20.9114741,12.4796686 20.7753558,12.5002332 20.5984999,12.5002332 C20.4012753,12.5002332 20.2447882,12.4661547 20.1223796,12.3913386 C19.9727474,12.2892988 19.8775625,12.1531805 19.843484,11.9763246 C19.6053259,12.3368912 19.2108766,12.5137471 18.6665992,12.5137471 C18.183624,12.5137471 17.7754649,12.3437461 17.442122,11.9966934 C17.1156339,11.6498365 16.9522919,11.2279677 16.9522919,10.7177688 C16.9522919,10.20757 17.1156339,9.78589699 17.442122,9.44569914 C17.7754649,9.09884227 18.183624,8.92884127 18.6665992,8.92884127 Z M7.19039589,8.90841373 C7.68708084,8.90841373 8.09504406,9.07155985 8.40801825,9.40490282 C8.72784732,9.73824579 8.88433441,10.1464049 8.88433441,10.6362349 C8.88433441,10.7382747 8.87747953,10.8334596 8.87062465,10.9219855 L6.20407674,10.9219855 C6.23110455,11.466067 6.6326046,11.8197787 7.23798834,11.8197787 C7.59170009,11.8197787 7.8978194,11.6907112 8.16320114,11.4253294 L8.65303121,11.9014497 C8.26524091,12.3096088 7.78912061,12.5136883 7.21076468,12.5136883 C6.67334217,12.5136883 6.23110455,12.3505422 5.89795743,12.0307132 C5.57910763,11.724977 5.40952574,11.3196095 5.39538223,10.8146106 L5.39441761,10.7179059 C5.39441761,10.1736285 5.56461446,9.73824579 5.89795743,9.40490282 C6.23815528,9.07155985 6.66668314,8.90841373 7.19039589,8.90841373 Z M4.7346453,9.00361821 L4.7346453,11.4116393 C4.7346453,11.677021 4.78909263,11.7722059 4.97260753,11.7722059 C5.03390973,11.7722059 5.08150218,11.7655469 5.11558072,11.758692 L5.11558072,12.4457467 C5.03390973,12.4798252 4.89779142,12.500194 4.70742164,12.500194 C4.18351304,12.500194 3.91832715,12.2075886 3.91832715,11.6294286 L3.91832715,9.00361821 L4.7346453,9.00361821 Z M3.42156386,7.69067386 L3.42156386,8.45939957 L2.13598028,8.45939957 L2.13598028,12.4320957 L1.28558358,12.4320957 L1.28558358,8.45939957 L0,8.45939957 L0,7.69067386 L3.42156386,7.69067386 Z M11.1427624,8.93553947 C11.9590806,8.93553947 12.4420558,9.45944807 12.4420558,10.3096489 L12.4420558,12.4321153 L11.6257376,12.4321153 L11.6257376,10.4253984 C11.6257376,9.95593716 11.3536968,9.66352761 10.8979453,9.66352761 C10.4353389,9.66352761 10.1019959,9.9900157 10.1019959,10.4592811 L10.1019959,12.4321153 L9.29253266,12.4321153 L9.29253266,9.00369655 L10.1019959,9.00369655 L10.1019959,9.49333076 C10.2653379,9.15998779 10.6529323,8.93553947 11.1427624,8.93553947 Z M14.6121733,9.67034332 C14.3197638,9.67034332 14.0816057,9.77238309 13.884381,9.96960775 C13.6938154,10.1668324 13.5986305,10.4185044 13.5986305,10.7177688 C13.5986305,11.0172291 13.6938154,11.2689011 13.884381,11.4661257 C14.0816057,11.6633504 14.3197638,11.7653902 14.6121733,11.7653902 C14.9047787,11.7653902 15.1564507,11.6633504 15.3536754,11.4661257 C15.5577549,11.2689011 15.6597947,11.0172291 15.6597947,10.7177688 C15.6597947,10.4185044 15.5577549,10.1668324 15.3536754,9.96960775 C15.1564507,9.77238309 14.9047787,9.67034332 14.6121733,9.67034332 Z M18.7754939,9.67034332 C18.4828885,9.67034332 18.2449262,9.77238309 18.0477016,9.96960775 C17.8571359,10.1668324 17.761951,10.4185044 17.761951,10.7177688 C17.761951,11.0172291 17.8571359,11.2689011 18.0477016,11.4661257 C18.2449262,11.6633504 18.4828885,11.7653902 18.7754939,11.7653902 C19.0680993,11.7653902 19.3197712,11.6633504 19.5169959,11.4661257 C19.7210754,11.2689011 19.8231152,11.0172291 19.8231152,10.7177688 C19.8231152,10.4185044 19.7210754,10.1668324 19.5169959,9.96960775 C19.3197712,9.77238309 19.0680993,9.67034332 18.7754939,9.67034332 Z M7.19039589,9.60212748 C6.93872391,9.60212748 6.71427559,9.67713944 6.53056483,9.81991678 C6.34685408,9.96269411 6.24481431,10.13955 6.22444552,10.3504844 L8.0543065,10.3504844 C8.0543065,10.1464049 7.96597648,9.96954899 7.79577963,9.82677166 C7.62577863,9.67713944 7.42855397,9.60212748 7.19039589,9.60212748 Z M4.32648623,7.63636364 C4.59167211,7.63636364 4.80946141,7.8471022 4.80946141,8.11933882 C4.80946141,8.39137959 4.59167211,8.60231401 4.32648623,8.60231401 C4.05424961,8.60231401 3.83665616,8.39137959 3.83665616,8.11933882 C3.83665616,7.8471022 4.05424961,7.63636364 4.32648623,7.63636364 Z" id="-↳Color"></path>
                            </g>
                        </g>
                    </g>
                </g>
            </g>
        </g>
    </g>
</svg>