<?xml version="1.0" encoding="UTF-8"?>
<svg width="70px" height="70px" viewBox="0 0 70 70" version="1.1" xmlns="http://www.w3.org/2000/svg" xmlns:xlink="http://www.w3.org/1999/xlink">
    <title>4A25B42E-C8E7-4FE3-B3F2-87644C0AA0FE</title>
    <g id="Recorte-02" stroke="none" stroke-width="1" fill="none" fill-rule="evenodd">
        <g id="CORTE-02---Tenencia---Sin-Movimientos" transform="translate(-1131.000000, -366.000000)">
            <g id="Desplegables-Cuentas-Movimientos" transform="translate(0.000000, 234.000000)">
                <g id="Desktop/Card/Dropdown/Opened/Movimientos-Feedback" transform="translate(852.000000, 30.000000)">
                    <g id="Group" transform="translate(236.000000, 102.000000)">
                        <g id="Desktop/icon/custom/Big/Lupa" transform="translate(43.000000, 0.000000)">
                            <g id="Group" transform="translate(8.166667, 8.166667)">
                                <path d="M23.4352479,0.00117858441 C25.2465995,-0.042594213 26.8217967,1.13728949 27.3319724,2.81272133 L27.4311569,3.22737014 L46.8232487,3.22898031 C48.8036111,3.23073783 50.4530444,4.64739531 50.8164766,6.52410205 L50.8717334,6.90529446 L50.8909989,7.29705735 L50.8909989,27.9124286 C50.8631112,31.175316 48.3146132,33.8289662 45.1114747,34.0349824 L44.6708006,34.0477316 L43.4707352,34.0450513 L43.4709041,35.8415512 C43.4432884,39.0567875 40.9619912,41.6903972 37.7948783,41.9747423 L37.3379591,41.9991908 L6.19239684,42 C2.98422439,41.9961985 0.337702678,39.5652396 0.0297843207,36.4332779 L0.00189672504,35.9812725 L-4.14483263e-15,9.15958448 C-4.14483263e-15,8.80479395 0.143341483,8.46298584 0.396189065,8.21154366 C0.564030277,8.04463536 0.771337384,7.92627425 1.0038893,7.86550546 L1.24432945,7.82426911 L7.81642076,7.81642076 L7.81909717,1.33661996 C7.81909717,0.983270569 7.96114078,0.642725136 8.2118976,0.392013251 C8.39995374,0.2039908 8.6374899,0.0780970403 8.89431756,0.0269015636 L9.15645763,0.00107105497 L23.4352479,0.00117858441 Z M7.81642076,10.4130522 L2.59368411,10.4130522 L2.59484523,35.9170071 C2.59625519,37.5510774 3.73310504,38.9278569 5.26469294,39.3036374 L5.62480634,39.3722482 L5.99691126,39.4032896 L37.2712615,39.4051561 C39.0630502,39.4006196 40.5577987,38.1018445 40.8319911,36.3934625 L40.8717281,36.0214336 L40.8711564,34.0450513 L13.9570819,34.0480722 C10.7161743,34.0439811 8.06294511,31.5319488 7.83497835,28.3475499 L7.81909717,27.9093185 L7.81642076,10.4130522 Z M48.2159982,16.9886328 L10.4896838,16.9886328 L10.4921546,27.9089661 C10.4936826,29.6949865 11.8449758,31.1648049 13.5802965,31.3541745 L13.957677,31.3748048 L44.6699951,31.3748048 C46.4700666,31.3702084 47.9608124,30.0278094 48.1890635,28.2878681 L48.2183032,27.9092813 L48.2159982,16.9886328 Z M23.4610039,2.67170878 L10.4896838,2.67031753 L10.4896838,14.3183171 L48.2159982,14.3183171 L48.218047,7.30193337 C48.2090654,6.61815419 47.7175739,6.05168968 47.0716098,5.927189 L46.8227731,5.90185238 L26.1767511,5.90185238 C25.8205069,5.90185238 25.4813555,5.76076382 25.2321444,5.50905195 C25.044122,5.32099581 24.9182282,5.08345965 24.8670327,4.82663199 L24.8412022,4.56449192 L24.8415884,4.05228372 C24.8585961,3.68112557 24.7185835,3.32072407 24.4555853,3.05772586 C24.2451766,2.84732882 23.9724198,2.71563764 23.6817094,2.68007983 L23.4610039,2.67170878 Z" id="-↳Color" fill="#939393"></path>
                                <path d="M32.7470991,31.163906 L49.0005175,45.1754736 C50.6622904,46.6080365 50.8481018,49.1164912 49.415539,50.7782641 C49.3516019,50.8524311 49.2849445,50.9242087 49.2157033,50.9934499 C47.6642966,52.5448566 45.1489694,52.5448566 43.5975627,50.9934499 C43.5283215,50.9242087 43.4616641,50.8524311 43.397727,50.7782641 L29.3861594,34.5248457 L32.7470991,31.163906 Z M10.2288035,12.0065501 C15.9830102,6.2523434 25.3124226,6.2523434 31.0666293,12.0065501 C36.8208359,17.7607568 36.8208359,27.0901692 31.0666293,32.8443759 C25.3124226,38.5985825 15.9830102,38.5985825 10.2288035,32.8443759 C4.4745968,27.0901692 4.4745968,17.7607568 10.2288035,12.0065501 Z" id="Shape" fill="#FFFFFF"></path>
                                <path d="M9.40384558,11.1815922 C15.6136639,4.97177382 25.6817688,4.97177382 31.8915872,11.1815922 C37.2253438,16.5153488 37.9778135,24.6955523 34.1489962,30.8324446 L49.7622804,44.2918287 C51.9120769,46.1451015 52.1524568,49.3902304 50.2991839,51.540027 C50.2164701,51.6359751 50.1302369,51.7288321 50.0406612,51.8184078 C48.0336429,53.8254262 44.7796232,53.8254262 42.7726048,51.8184078 L42.6407702,51.681607 L42.5140821,51.540027 L29.0536784,35.9273788 C22.9168997,39.7554767 14.7373069,39.0027951 9.40384558,33.6693338 C3.19402721,27.4595154 3.19402721,17.3914105 9.40384558,11.1815922 Z M46.7532956,44.7785225 L43.0005621,48.5312561 L44.281372,50.0165012 L44.4225206,50.168492 C45.5183156,51.264287 47.2949504,51.264287 48.3907454,50.168492 C48.4396521,50.1195853 48.4867338,50.0688871 48.531894,50.0165012 C49.5015863,48.8916581 49.4214562,47.2175815 48.3800362,46.1894599 L48.2387546,46.0591186 L46.7532956,44.7785225 Z M37.3009279,36.6312382 L34.8516278,39.0805382 L41.47274,46.7592465 L44.981286,43.2507005 L37.3009279,36.6312382 Z M32.8057322,32.754761 L30.9759755,34.5845176 L33.3238058,37.3085287 L35.5289183,35.1034162 L32.8057322,32.754761 Z M11.0537614,12.831508 C5.75516638,18.130103 5.75516638,26.7208229 11.0537614,32.0194179 C16.3523564,37.318013 24.9430763,37.318013 30.2416713,32.0194179 C35.5402664,26.7208229 35.5402664,18.130103 30.2416713,12.831508 C24.9430763,7.53291299 16.3523564,7.53291299 11.0537614,12.831508 Z" id="Shape" fill="#939393" fill-rule="nonzero"></path>
                            </g>
                        </g>
                    </g>
                </g>
            </g>
        </g>
    </g>
</svg>