<svg width="41" height="40" viewBox="0 0 41 40" fill="none" xmlns="http://www.w3.org/2000/svg">
<rect x="0.5" width="40" height="40" rx="20" fill="#f4f4f4"/>
<path d="M20.5 10.5C15.252 10.5 11 14.752 11 20C11 25.248 15.252 29.5 20.5 29.5C25.748 29.5 30 25.248 30 20C30 14.752 25.748 10.5 20.5 10.5ZM28.7742 20C28.7742 24.5585 25.0585 28.2742 20.5 28.2742C15.9415 28.2742 12.2258 24.5968 12.2258 20C12.2258 15.4798 15.9032 11.7258 20.5 11.7258C25.0202 11.7258 28.7742 15.4415 28.7742 20ZM23.0665 23.4093C23.2581 23.5625 23.5645 23.4859 23.6794 23.2944L24.0242 22.873C24.1774 22.6431 24.1008 22.375 23.9093 22.2218L21.2278 20.2681V14.6371C21.2278 14.4073 20.998 14.1774 20.7681 14.1774H20.2319C19.9637 14.1774 19.7722 14.4073 19.7722 14.6371V20.7661C19.7722 20.9194 19.8105 21.0343 19.9254 21.1492L23.0665 23.4093Z" fill="#707070"/>
</svg>
