<svg xmlns="http://www.w3.org/2000/svg" width="26" height="26" viewBox="0 0 26 26">
    <defs>
        <linearGradient id="fue1drmpra" x1="106.463%" x2="20.917%" y1="20.479%" y2="67.071%">
            <stop offset="0%" stop-color="#D1D1D1"/>
            <stop offset="100%" stop-color="#797979"/>
        </linearGradient>
        <linearGradient id="boy63ajcvb" x1="32.643%" x2="82.473%" y1="70.141%" y2="9.807%">
            <stop offset="0%" stop-color="#FEB137"/>
            <stop offset="40.7%" stop-color="#FFE177"/>
            <stop offset="100%" stop-color="#FFF9DF"/>
        </linearGradient>
    </defs>
    <g fill="none">
        <path fill="url(#fue1drmpra)" d="M17.781 16.173l1.57 2.72c.444.768.148 1.728-.574 2.144l-.227.131c.43.745.17 1.715-.575 2.145-.744.43-1.714.17-2.144-.575l-.227.13c-.722.418-1.7.195-2.145-.574l-1.57-2.72-.088-.14 5.9-3.409.08.148z" transform="translate(2.364 1.182)"/>
        <path fill="url(#boy63ajcvb)" d="M7.246 4.729c2.999-1.732 7.238-1.072 9.144 2.229 1.138 1.97 1.156 3.681 1.038 5.123l-.097 1.045c-.096 1.062-.117 1.966.37 2.9L11.8 19.434l-.056-.092c-.553-.816-1.31-1.234-2.223-1.66l-.947-.434c-1.32-.621-2.816-1.488-3.97-3.486-1.84-3.189-.457-7.034 2.345-8.852l.297-.181z" transform="translate(2.364 1.182)"/>
        <path fill="#000" d="M7.59 4.543c-2.496 1.92-3.636 5.521-1.897 8.535 1.154 1.997 2.65 2.865 3.97 3.485l.947.435c.914.425 1.67.844 2.223 1.66l.07.14-1.103.636-.056-.092c-.553-.816-1.31-1.234-2.223-1.66l-.947-.434c-1.32-.621-2.816-1.488-3.97-3.486-1.84-3.189-.457-7.034 2.345-8.852l.297-.181.206-.115z" opacity=".1" transform="translate(2.364 1.182)"/>
        <path fill="#FFE587" d="M19.435 4.944c.25-.145.57-.059.715.192.144.25.058.57-.192.715l-1.813 1.046c-.25.145-.57.06-.715-.191-.144-.25-.059-.57.192-.715l1.813-1.047zM3.117 14.365c.25-.144.57-.059.715.192.144.25.058.57-.192.715l-1.813 1.046c-.25.145-.57.06-.715-.191-.144-.25-.059-.57.192-.715l1.813-1.047zM13.079.068c.116-.067.257-.087.396-.05.28.076.443.359.368.638l-.542 2.022c-.075.28-.358.443-.637.368-.28-.075-.443-.358-.368-.637l.542-2.022c.033-.124.106-.226.203-.295l.038-.024zM.259 7.47c.117-.068.257-.087.396-.05l2.023.542c.28.075.443.358.368.637-.075.28-.358.443-.638.368L.386 8.425c-.28-.074-.443-.357-.368-.637.033-.124.106-.226.203-.294L.26 7.47zm4.877-6.358c.25-.145.57-.06.715.191l1.046 1.813c.145.25.06.57-.191.715-.25.145-.57.059-.715-.191L4.944 1.827c-.144-.25-.059-.57.192-.715z" transform="translate(2.364 1.182)"/>
        <path fill="#FFF" d="M8.68 6.053c2.285-.986 5.002-.12 6.274 2.082.254.44.428.9.536 1.371.091.276-.096.605-.378.672-.25.058-.528-.104-.615-.342l-.023-.093c-.086-.372-.227-.736-.428-1.084-.994-1.721-3.077-2.406-4.863-1.683l-.084.035c-.248.119-.581 0-.7-.248-.147-.27-.025-.505.172-.645l.11-.065z" opacity=".5" transform="translate(2.364 1.182)"/>
        <path fill="#BEBEBE" d="M17.781 16.173l1.57 2.72c.444.768.148 1.728-.574 2.144l-.227.131c.43.745.17 1.715-.575 2.145-.744.43-1.714.17-2.144-.575l-.227.13c-.722.418-1.7.195-2.145-.574l-1.57-2.72-.088-.14 5.9-3.409.08.148zm-.137 5.518l-.907.524c.15.259.456.34.715.191.26-.15.341-.455.192-.715zm.54-2.728l-4.08 2.355.261.453c.158.273.481.327.715.192l3.173-1.832c.234-.135.35-.443.192-.715l-.262-.453zm-1.048-1.813l-4.079 2.355.523.906 4.08-2.355-.524-.906z" transform="translate(2.364 1.182)"/>
    </g>
</svg>
