<?xml version="1.0" encoding="UTF-8"?>
<svg width="22px" height="22px" viewBox="0 0 22 22" version="1.1" xmlns="http://www.w3.org/2000/svg" xmlns:xlink="http://www.w3.org/1999/xlink">
    <title>ECCEFFC8-BF8A-498C-8DAD-68EEAEA5F49F</title>
    <g id="Extracción-sin-Tarjeta" stroke="none" stroke-width="1" fill="none" fill-rule="evenodd">
        <g id="M---Ext-sin-TD---Feedback" transform="translate(-25.000000, -302.000000)" fill="#D52B1E">
            <g id="Cuadro-Copy" transform="translate(15.000000, 282.000000)">
                <g id="Warning" transform="translate(10.000000, 20.000000)">
                    <g id="Desktop/icon/custom/small/eye">
                        <path d="M11.1304348,6 C13.1678261,6 15.1731739,6.74821522 16.8145652,7.97189348 C18.2689565,9.05639783 19.2608696,10.3985891 19.2608696,11.3804587 C19.2608696,12.3623283 18.2688609,13.7045196 16.8145652,14.7890239 C15.1733413,16.0127022 13.1678261,16.7609174 11.1304348,16.7609174 C9.09316304,16.7609174 7.08769565,16.0127022 5.44630435,14.7890239 C3.99191304,13.7045196 3,12.3623283 3,11.3804587 C3,10.3985891 3.9920087,9.05639783 5.44630435,7.97189348 C7.08752826,6.74821522 9.09304348,6 11.1304348,6 Z M11.1304348,7.19574783 C9.36780435,7.19574783 7.60708696,7.85242391 6.16106522,8.93037609 C4.9803587,9.81123696 4.1957,10.8723783 4.1957,11.3805065 C4.1957,11.8886348 4.98033478,12.9498 6.16106522,13.830637 C7.60706304,14.9085891 9.36780435,15.5652652 11.1304348,15.5652652 C12.8930891,15.5652652 14.6537826,14.9085891 16.0998043,13.830637 C17.2805109,12.9497761 18.0651696,11.8886348 18.0651696,11.3805065 C18.0651696,10.8723783 17.2805348,9.81121304 16.0998043,8.93037609 C14.6538065,7.85242391 12.8930652,7.19574783 11.1304348,7.19574783 Z M11.25,8.15222174 C13.0331957,8.15222174 14.4782609,9.59728696 14.4782609,11.3804826 C14.4782609,13.1636783 13.0331957,14.6087435 11.25,14.6087435 C9.46680435,14.6087435 8.02173913,13.1636783 8.02173913,11.3804826 C8.02173913,9.59728696 9.46680435,8.15222174 11.25,8.15222174 Z M11.25,9.34787391 C10.1272109,9.34787391 9.2173913,10.2576935 9.2173913,11.3804826 C9.2173913,12.5032717 10.1272109,13.4130913 11.25,13.4130913 C12.3727891,13.4130913 13.2826087,12.5032717 13.2826087,11.3804826 C13.2826087,10.2576935 12.3727891,9.34787391 11.25,9.34787391 Z" id="-↳Color"></path>
                    </g>
                </g>
            </g>
        </g>
    </g>
</svg>