<svg xmlns="http://www.w3.org/2000/svg" width="22" height="22" viewBox="0 0 22 22">
    <g fill="none" fill-rule="evenodd">
        <g fill="#D52B1E" fill-rule="nonzero">
            <path d="M17.967 4.368c.604 0 1.078.491 1.078 1.08v9.387c0 .589-.474 1.08-1.078 1.08h-7.945L7.7 17.785c-.625.503-1.54.102-1.622-.666l-.006-.113v-1.091H4.125c-.56 0-1.015-.424-1.074-.963l-.006-.117V5.449c0-.593.48-1.081 1.08-1.081zm0 1H4.125c-.043 0-.08.037-.08.08v9.387c0 .044.036.08.08.08H6.43c.354 0 .641.294.641.653v1.438l2.425-1.951c.114-.09.254-.139.394-.14h8.076c.044 0 .078-.036.078-.08V5.449c0-.045-.034-.081-.078-.081zm-6.974 3.68c.602 0 1.092.491 1.092 1.094 0 .602-.49 1.092-1.092 1.092-.603 0-1.093-.49-1.093-1.092 0-.603.49-1.094 1.093-1.094zm3.519 0c.602 0 1.093.491 1.093 1.094 0 .602-.49 1.092-1.093 1.092s-1.093-.49-1.093-1.092c0-.603.49-1.094 1.093-1.094zm-7.039.001c.603 0 1.093.49 1.093 1.092 0 .603-.49 1.093-1.093 1.093s-1.093-.49-1.093-1.093c0-.602.49-1.092 1.093-1.092z"/>
        </g>
    </g>
</svg>
