<?xml version="1.0" encoding="UTF-8"?>
<svg width="21px" height="21px" viewBox="0 0 21 21" version="1.1" xmlns="http://www.w3.org/2000/svg" xmlns:xlink="http://www.w3.org/1999/xlink">
    <!-- Generator: sketchtool 61.2 (101010) - https://sketch.com -->
    <title>5B8D67C3-9FD1-4B24-BC3E-4B3DE852EC1E</title>
    <desc>Created with sketchtool.</desc>
    <g id="UI-Cortes" stroke="none" stroke-width="1" fill="none" fill-rule="evenodd">
        <g id="CORTE-1---S---02-Navegación---Menu-Desplegado---Resumen" transform="translate(-20.000000, -386.000000)" fill="#EE2527" fill-rule="nonzero">
            <g id="Nav-Drawer/1.-Group/A.-Side/_Light-Copy-4" transform="translate(0.000000, 70.000000)">
                <g id="Line-items" transform="translate(0.000000, 60.000000)">
                    <g id="Principales">
                        <g id="Navbar/Primary/⏺-Line-item/Enabled" transform="translate(0.000000, 246.000000)">
                            <g id="icon/custom/payments" transform="translate(20.000000, 10.000000)">
                                <path d="M17.147303,1.90909091 L9.69499484,1.90909091 C9.02998094,1.90909091 8.49076047,2.44832988 8.49076047,3.11404696 L8.49076047,6.72019951 C7.84166041,6.86187349 7.2084557,7.07004516 6.60126828,7.34039558 C6.07866483,7.56953652 5.56834835,7.82613811 5.07320555,8.11021884 C4.07425984,8.67547511 3.38322864,9.65996882 3.19093011,10.7911475 L1.91586004,18.13724 C1.89489816,18.2586756 1.92308844,18.3829983 1.99392673,18.482756 C2.06476372,18.5832297 2.17246533,18.6511763 2.29318132,18.6721308 C2.54545267,18.7155016 2.78469762,18.5463577 2.82807211,18.2948056 L4.10314163,10.9414964 L4.10314163,10.9407747 C4.25204531,10.0849427 4.77681563,9.34187686 5.53363025,8.9147195 C5.99912889,8.65160434 6.47837635,8.41308163 6.96989227,8.2005577 C7.46068653,7.98370373 7.96955965,7.81022426 8.49073826,7.6822843 L8.49073826,10.7673508 C8.38086793,10.72398 8.26955424,10.6863937 8.15534461,10.6560352 C7.90886497,10.5880886 7.65370673,10.7333784 7.58575829,10.9798636 C7.5178117,11.2270649 7.66310145,11.4822231 7.90958664,11.5501716 C8.15245791,11.611612 8.37943383,11.7222059 8.57748725,11.8754433 C8.29414669,12.3142029 7.92622217,12.6915277 7.49540093,12.9857119 C7.28361718,13.1317234 7.23084241,13.4215849 7.37685754,13.6333686 C7.52286897,13.8451524 7.81273051,13.8979271 8.02451425,13.751912 C8.57241332,13.3753089 9.03793046,12.8895664 9.38994113,12.3250503 L10.8963166,9.94907538 C11.1363012,9.56742053 11.6408258,9.45248922 12.0224806,9.69319546 C12.4041355,9.93318003 12.5183451,10.4369829 12.2783605,10.8186378 L11.1536399,12.6416249 C10.7018716,13.3666303 10.474174,14.2087321 10.5002098,15.0616404 C10.5370744,16.223222 9.97904967,17.3227025 9.01985158,17.9783161 L8.89769243,18.0636107 C8.40761985,18.3982821 7.99199078,18.8312499 7.67610085,19.3350713 C7.54020767,19.5526469 7.60670906,19.8388929 7.824281,19.9747711 C8.04185665,20.1106643 8.32882408,20.0448864 8.46470246,19.8265909 C8.71262545,19.4304841 9.039359,19.0900202 9.4253439,18.8262018 L9.54750306,18.7409073 C10.2385343,18.2652873 10.7763114,17.5995517 11.0958097,16.8240291 L11.2085723,16.9389585 L11.2085723,16.938235 C11.5699832,17.3039945 12.0969352,17.4536217 12.5964081,17.3314551 C13.0958809,17.2092886 13.4941713,16.8341473 13.6459635,16.3426129 C14.1483231,16.4553755 14.6723884,16.2869551 15.0149988,15.9024099 C15.3576277,15.5178683 15.4646021,14.9779077 15.294731,14.4921651 L15.2723239,14.4271108 L17.1473826,14.4271108 C17.8123965,14.4271108 18.351617,13.8878718 18.351617,13.2228764 L18.351617,3.11406547 C18.351617,2.79456716 18.2243987,2.48809601 17.9988846,2.26184176 C17.7726304,2.03630919 17.4668809,1.90909091 17.1473826,1.90909091 L17.147303,1.90909091 Z M13.076318,11.3095505 C13.5519386,10.4985362 13.297502,9.45540183 12.5016614,8.95448562 C11.7058209,8.45356942 10.6555438,8.67547511 10.1301276,9.45540183 L9.42320108,10.5656705 L9.42320108,3.11391743 C9.42320108,2.96212335 9.54391319,2.83851529 9.69499484,2.83418525 L15.1349411,2.83418525 L15.1356628,13.4981305 L11.7419416,13.4981305 C11.8004916,13.3709122 11.8662677,13.2473023 11.939995,13.128041 L13.076318,11.3095505 Z M12.5927405,16.3281498 C12.3773299,16.503798 12.0636235,16.4857265 11.8691784,16.2869477 L11.3791058,15.7874748 C11.4159705,15.53809 11.4318732,15.2865586 11.425367,15.0342871 C11.4203061,14.8297201 11.4333184,14.6258933 11.4644004,14.4234913 L11.9805088,14.4234913 C11.9805088,14.4234913 11.9805088,14.4422845 11.9935192,14.4509594 L12.7148978,15.6241062 L12.7148978,15.6248279 C12.8572953,15.8561339 12.8045298,16.1575533 12.5927386,16.3281461 L12.5927405,16.3281498 Z M14.4243877,14.795757 L14.4251093,14.795757 C14.5053429,15.031393 14.3969196,15.2901781 14.1728378,15.3985959 C13.9480454,15.5062975 13.6784167,15.4296778 13.5439817,15.2193337 C13.529526,15.1933109 13.5165136,15.1672899 13.5013344,15.141267 L13.0625747,14.4271052 L14.2935481,14.4271052 L14.4243877,14.795757 Z M17.4241485,13.219268 L17.4248702,13.219268 C17.4248702,13.3732308 17.2990971,13.4982785 17.145138,13.4982785 L16.0608866,13.4982785 L16.0608866,2.83433328 L17.147303,2.83433328 C17.3012658,2.83433328 17.4263135,2.95938284 17.4263135,3.11406547 L17.4241485,13.219268 Z" id="-↳Color"></path>
                            </g>
                        </g>
                    </g>
                </g>
            </g>
        </g>
    </g>
</svg>