<svg xmlns="http://www.w3.org/2000/svg" width="22" height="22" viewBox="0 0 22 22">
    <path fill="#FFA100" fill-rule="evenodd" d="M10.003 2.76L8.598 7.274H4.05c-.462 0-.853.296-.996.755-.142.46.007.94.38 1.226l3.681 2.792-1.406 4.519c-.143.459.007.938.38 1.221.188.141.402.212.616.212.214 0 .43-.07.616-.212L11 14.996l3.68 2.792c.374.283.856.283 1.231 0 .374-.283.524-.762.38-1.221l-1.405-4.519 3.68-2.792c.374-.287.524-.766.38-1.226-.142-.459-.534-.755-.995-.755h-4.55l-1.405-4.516C11.853 2.297 11.462 2 11 2c-.462 0-.853.297-.997.76z"/>
</svg>
