<svg width="40" height="40" viewBox="0 0 40 40" fill="none" xmlns="http://www.w3.org/2000/svg">
<rect width="40" height="40" rx="20" fill="#882345"/>
<path d="M23.2245 21.4324C23.2245 22.2056 22.9899 22.8246 22.5206 23.2894C22.0558 23.7497 21.4145 24.0246 20.5966 24.114V25.4212H19.5307V24.114C19.0212 24.0603 18.5587 23.9196 18.143 23.6916C17.7274 23.4637 17.3922 23.1285 17.1375 22.686C16.8872 22.2391 16.762 21.6827 16.762 21.0168H18.4313C18.4313 21.6425 18.5855 22.0916 18.8939 22.3643C19.2022 22.6324 19.5821 22.7665 20.0335 22.7665C20.5207 22.7665 20.8961 22.6481 21.1598 22.4112C21.4279 22.1743 21.562 21.8525 21.562 21.4458C21.562 21.066 21.4413 20.7531 21.2 20.5073C20.9586 20.257 20.5497 20.0313 19.9732 19.8302C19.3475 19.6157 18.8313 19.3811 18.4246 19.1263C18.0179 18.8716 17.7006 18.5565 17.4727 18.1811C17.2492 17.8056 17.1375 17.3476 17.1375 16.8068C17.1375 16.3107 17.2403 15.8705 17.4458 15.4861C17.6559 15.1018 17.9509 14.7934 18.3307 14.561C18.7106 14.3286 19.1553 14.1833 19.6648 14.1252V12.6638H20.7374V14.1386C21.5061 14.2459 22.1072 14.5699 22.5408 15.1107C22.9743 15.6515 23.191 16.3688 23.191 17.2626H21.5218C21.5218 16.704 21.3989 16.266 21.1531 15.9487C20.9117 15.6314 20.5743 15.4727 20.1408 15.4727C19.6939 15.4727 19.3587 15.5934 19.1352 15.8347C18.9117 16.0716 18.8 16.3934 18.8 16.8001C18.8 17.0548 18.8492 17.2738 18.9475 17.457C19.0503 17.6358 19.2179 17.8012 19.4503 17.9531C19.6827 18.1006 20.0045 18.2503 20.4156 18.4023C21.0458 18.6302 21.562 18.8716 21.9642 19.1263C22.3665 19.3811 22.6771 19.6961 22.8961 20.0715C23.1151 20.4425 23.2245 20.8961 23.2245 21.4324Z" fill="white"/>
</svg>
