<?xml version="1.0" encoding="UTF-8"?>
<svg width="21px" height="21px" viewBox="0 0 21 21" version="1.1" xmlns="http://www.w3.org/2000/svg" xmlns:xlink="http://www.w3.org/1999/xlink">
    <!-- Generator: sketchtool 61.2 (101010) - https://sketch.com -->
    <title>B02BD4AA-07CF-4EC0-9EFD-E2F157696FEC</title>
    <desc>Created with sketchtool.</desc>
    <g id="UI-Cortes" stroke="none" stroke-width="1" fill="none" fill-rule="evenodd">
        <g id="CORTE-1---S---02-Navegación---Menu-Desplegado---Resumen" transform="translate(-20.000000, -571.000000)" fill="#EE2527" fill-rule="nonzero">
            <g id="Nav-Drawer/1.-Group/A.-Side/_Light-Copy-4" transform="translate(0.000000, 70.000000)">
                <g id="Line-items" transform="translate(0.000000, 60.000000)">
                    <g id="Secundarios" transform="translate(0.000000, 390.000000)">
                        <g id="Navbar/Primary/⏺-Line-item/Enabled" transform="translate(0.000000, 41.000000)">
                            <g id="icon/custom/Contacto" transform="translate(20.000000, 10.000000)">
                                <path d="M17.6672151,4.77272727 L17.8298542,4.77822219 C18.3236872,4.81169861 18.7765422,4.99645935 19.142351,5.28643632 C19.2618769,5.31536922 19.3715799,5.38368715 19.4525527,5.48765814 L19.4525527,5.48765814 L19.5077194,5.57379151 C19.5297421,5.61615365 19.5459576,5.6604815 19.5565017,5.70569166 C19.8626921,6.10689638 20.0454545,6.60790477 20.0454545,7.15096669 L20.0454545,7.15096669 L20.0454545,14.5781567 L20.0399596,14.7407196 C19.9561596,15.976377 18.9243682,16.9563961 17.6672151,16.9563961 L17.6672151,16.9563961 L3.33344808,16.9563961 L3.17080566,16.9508979 C1.93456451,16.8670482 0.954545455,15.8346742 0.954545455,14.5781567 L0.954545455,14.5781567 L0.954545455,7.15096669 L0.96004373,6.98832764 C1.04389454,5.75213724 2.07629498,4.77272727 3.33344808,4.77272727 L3.33344808,4.77272727 L17.6672151,4.77272727 Z M18.8243182,6.69357342 L10.9423552,12.8140415 L10.8618384,12.8662686 C10.7782129,12.9110347 10.6861937,12.9334178 10.5941746,12.9334178 L10.5941746,12.9334178 L10.5060103,12.9264749 C10.4184677,12.9126098 10.3335365,12.8780405 10.2579316,12.8233264 L10.2579316,12.8233264 L2.12697771,6.84377862 C2.10193376,6.94205381 2.08861947,7.04497642 2.08861947,7.15096669 L2.08861947,7.15096669 L2.08861947,14.5781567 C2.08861947,15.2645699 2.64703486,15.8223221 3.33344808,15.8223221 L3.33344808,15.8223221 L17.6672151,15.8223221 L17.7941958,15.8158907 C18.4205858,15.7521005 18.9113805,15.2216691 18.9113805,14.5781567 L18.9113805,14.5781567 L18.9113805,7.15096669 L18.9049418,7.02387672 C18.893178,6.90840186 18.8655634,6.79756406 18.8243182,6.69357342 Z M17.6672151,5.90680129 L3.33344808,5.90680129 L3.20635066,5.91323269 C3.09368382,5.92469643 2.98541378,5.9512307 2.8835989,5.99078347 L10.5848898,11.6554291 L17.9449824,5.9380575 C17.8556348,5.91760565 17.7626583,5.90680129 17.6672151,5.90680129 L17.6672151,5.90680129 Z" id="-↳Color"></path>
                            </g>
                        </g>
                    </g>
                </g>
            </g>
        </g>
    </g>
</svg>