<svg xmlns="http://www.w3.org/2000/svg" width="22" height="22" viewBox="0 0 22 22">
    <path fill="#333" fill-rule="evenodd" d="M18.509 5l.163.005c.52.034.997.228 1.381.533.125.03.24.102.326.211l.058.09c.023.045.04.092.051.14.32.419.512.944.512 1.512v7.781l-.005.164c-.085 1.298-1.167 2.328-2.486 2.328H3.492l-.163-.005C2.03 17.674 1 16.59 1 15.272v-7.78l.005-.164C1.09 6.03 2.173 5 3.492 5H18.51zm1.212 2.012l-8.258 6.412-.084.055c-.088.047-.184.07-.28.07l-.093-.007c-.091-.015-.18-.05-.26-.108L2.228 7.169c-.026.104-.04.211-.04.322v7.781c0 .72.585 1.304 1.304 1.304H18.51l.133-.007c.656-.067 1.17-.622 1.17-1.297v-7.78l-.007-.134c-.012-.12-.041-.237-.084-.346zm-1.212-.824H3.492l-.133.007c-.118.012-.232.04-.338.081l8.068 5.934L18.8 6.221c-.094-.021-.192-.033-.292-.033z"/>
</svg>
