<?xml version="1.0" encoding="UTF-8" standalone="no"?>
<svg
   xmlns:dc="http://purl.org/dc/elements/1.1/"
   xmlns:cc="http://creativecommons.org/ns#"
   xmlns:rdf="http://www.w3.org/1999/02/22-rdf-syntax-ns#"
   xmlns:svg="http://www.w3.org/2000/svg"
   xmlns="http://www.w3.org/2000/svg"
   xmlns:sodipodi="http://sodipodi.sourceforge.net/DTD/sodipodi-0.dtd"
   xmlns:inkscape="http://www.inkscape.org/namespaces/inkscape"
   version="1.1"
   id="Layer_1"
   x="0px"
   y="0px"
   viewBox="0 0 424.44 266.76999"
   xml:space="preserve"
   sodipodi:docname="1 2 3 Chances-Supervielle.svg"
   width="424.44"
   height="266.76999"
   inkscape:version="1.0 (b51213c273, 2020-08-10)"><metadata
   id="metadata79"><rdf:RDF><cc:Work
       rdf:about=""><dc:format>image/svg+xml</dc:format><dc:type
         rdf:resource="http://purl.org/dc/dcmitype/StillImage" /><dc:title></dc:title></cc:Work></rdf:RDF></metadata><defs
   id="defs77" /><sodipodi:namedview
   pagecolor="#ffffff"
   bordercolor="#666666"
   borderopacity="1"
   objecttolerance="10"
   gridtolerance="10"
   guidetolerance="10"
   inkscape:pageopacity="0"
   inkscape:pageshadow="2"
   inkscape:window-width="1853"
   inkscape:window-height="1025"
   id="namedview75"
   showgrid="false"
   inkscape:zoom="1"
   inkscape:cx="300.83998"
   inkscape:cy="230.01708"
   inkscape:window-x="67"
   inkscape:window-y="27"
   inkscape:window-maximized="1"
   inkscape:current-layer="Layer_1" />
<style
   type="text/css"
   id="style2">
	.st0{fill:#E1251B;}
	.st1{fill:url(#XMLID_2_);}
	.st2{fill:url(#XMLID_3_);}
	.st3{fill:url(#XMLID_4_);}
	.st4{fill:#404040;}
	.st5{fill:#00B4A0;}
</style>
<g
   id="XMLID_12349_"
   transform="matrix(0.45,0,0,0.45,-31.953471,-64.00538)">
	<path
   id="XMLID_12416_"
   class="st0"
   d="m 255.6,288.6 c -10.6,-13.3 -27,-21.9 -45.4,-21.9 -32,0 -58.1,26.1 -58.1,58.1 0,32 26.1,58.1 58.1,58.1 18.3,0 34.7,-8.6 45.4,-21.9 -5.5,-10.9 -8.5,-23.2 -8.5,-36.2 -0.1,-13 3,-25.3 8.5,-36.2 z m -34.8,64.3 c 0,3.9 -2.9,6.9 -6.8,6.9 -3.6,0 -6.7,-3.2 -6.7,-6.9 v -40.8 l -10.1,5.7 c -3.5,1.9 -7.4,0.8 -9.3,-2.5 -1.7,-3.2 -0.5,-7.4 2.7,-9.3 l 19.7,-11.1 c 1.1,-0.7 2.3,-1 3.6,-1 4.1,0 6.8,3.5 6.8,7 v 52 z" />
	
		<linearGradient
   id="XMLID_2_"
   gradientUnits="userSpaceOnUse"
   x1="958.30121"
   y1="-1170.2004"
   x2="830.31561"
   y2="-1170.2004"
   gradientTransform="matrix(0.8733,0.4871,-0.4871,0.8733,-863.1604,913.5006)">
		<stop
   offset="0"
   style="stop-color:#820040"
   id="stop5" />
		<stop
   offset="0.3207"
   style="stop-color:#A10838"
   id="stop7" />
		<stop
   offset="1"
   style="stop-color:#EC1C24"
   id="stop9" />
	</linearGradient>
	<path
   id="XMLID_12405_"
   class="st1"
   d="m 410.7,412.8 v 0 c -5.2,-4.4 -10.1,-9.2 -14.4,-14.3 -2.5,-2.9 -2.1,-7.4 0.8,-9.8 2.9,-2.5 7.4,-2.1 9.8,0.8 3.8,4.5 8.1,8.7 12.6,12.6 3,2.5 3.4,6.9 0.9,9.9 -2.4,2.9 -6.8,3.3 -9.7,0.8 z m 19.6,12.3 c -2.3,-2.1 -2.9,-5.5 -1.4,-8.3 1.8,-3.4 6,-4.7 9.4,-3 10.2,5.3 21.1,8.8 32.5,10.4 3.8,0.5 6.5,4.1 6,7.9 -0.5,3.8 -4.1,6.5 -7.9,6 -13,-1.8 -25.4,-5.8 -37,-11.8 -0.7,-0.5 -1.2,-0.8 -1.6,-1.2 z m 64.6,11.7 c -1.4,-1.1 -2.5,-2.7 -2.7,-4.6 -0.5,-3.8 2.1,-7.4 5.9,-7.9 8.9,-1.3 17.5,-3.7 25.7,-7.3 3.5,-1.5 7.6,0.1 9.2,3.6 1.5,3.5 -0.1,7.6 -3.6,9.2 -9.3,4 -19.2,6.8 -29.3,8.3 -1.9,0.3 -3.7,-0.2 -5.2,-1.3 z M 553,409.1 c -0.3,-0.2 -0.6,-0.5 -0.9,-0.8 -2.6,-2.8 -2.5,-7.2 0.3,-9.9 4.3,-4 8.3,-8.5 11.9,-13.3 l 0.1,-0.2 c 2.3,-3.1 6.7,-3.7 9.8,-1.4 3.1,2.3 3.7,6.7 1.4,9.8 l -0.1,0.2 c -4.1,5.4 -8.6,10.5 -13.6,15.1 -2.5,2.3 -6.3,2.5 -8.9,0.5 z M 398.4,259.2 c -2.9,-2.6 -3.2,-6.9 -0.7,-9.8 v 0 c 4.5,-5.1 9.5,-9.8 14.7,-14 3,-2.4 7.4,-1.9 9.8,1.1 2.4,3 1.9,7.4 -1.1,9.8 -4.6,3.7 -8.9,7.8 -12.9,12.2 -2.5,2.9 -6.9,3.2 -9.8,0.7 z m 181.4,110.5 c -2.5,-1.8 -3.5,-5.2 -2.3,-8.1 4.2,-10.7 6.5,-21.9 6.9,-33.4 0.1,-3.9 3.4,-6.9 7.2,-6.7 3.9,0.1 6.9,3.4 6.7,7.2 -0.4,13.1 -3.1,25.9 -7.9,38 -1.4,3.6 -5.5,5.4 -9.1,3.9 -0.5,-0.2 -1.1,-0.5 -1.5,-0.9 z m -143,-137.9 c -0.9,-0.7 -1.7,-1.7 -2.2,-2.8 -1.5,-3.5 0.1,-7.6 3.6,-9.2 9.3,-4.1 19.2,-6.8 29.3,-8.3 3.8,-0.6 7.4,2.1 7.9,5.9 0.6,3.8 -2.1,7.4 -5.9,7.9 -8.9,1.3 -17.5,3.7 -25.7,7.3 -2.4,1 -5.1,0.6 -7,-0.8 z m 149.3,83.1 c -1.4,-1.1 -2.4,-2.7 -2.7,-4.6 -1.3,-8.9 -3.7,-17.5 -7.3,-25.7 -1.5,-3.5 0.1,-7.6 3.6,-9.2 3.5,-1.5 7.6,0.1 9.2,3.6 4.1,9.3 6.9,19.2 8.3,29.3 0.6,3.8 -2.1,7.4 -5.9,7.9 -1.9,0.3 -3.8,-0.2 -5.2,-1.3 z m -102.7,-92 c -1.8,-1.3 -2.9,-3.5 -2.8,-5.8 0.1,-3.9 3.4,-6.9 7.2,-6.7 13.1,0.4 25.9,3.1 38,7.9 3.6,1.4 5.3,5.5 3.9,9.1 -1.4,3.6 -5.5,5.3 -9.1,3.9 -10.7,-4.2 -21.9,-6.5 -33.4,-6.9 -1.4,-0.2 -2.7,-0.7 -3.8,-1.5 z m 74.9,34.1 c -0.3,-0.2 -0.6,-0.5 -0.9,-0.8 -4,-4.3 -8.4,-8.3 -13.2,-11.8 l -0.1,-0.1 c -3.1,-2.3 -3.7,-6.7 -1.4,-9.8 2.3,-3.1 6.7,-3.7 9.8,-1.4 l 0.1,0.1 c 5.4,4 10.4,8.6 15,13.4 2.6,2.8 2.5,7.2 -0.3,9.9 -2.6,2.3 -6.4,2.5 -9,0.5 z"
   style="fill:url(#XMLID_2_)" />
	<path
   id="XMLID_12402_"
   class="st0"
   d="m 483.3,233.9 c -50.1,0 -90.9,40.8 -90.9,90.9 0,50.1 40.8,90.9 90.9,90.9 50.1,0 90.9,-40.8 90.9,-90.9 0,-50.1 -40.8,-90.9 -90.9,-90.9 z M 508.8,376 c -13.4,7.6 -31.1,11.4 -53.2,11.2 -6.6,0 -11,-4.6 -11.6,-10.9 -0.2,-3.4 0.8,-6.3 3.4,-8.8 2.5,-2.5 5.4,-3.6 8.7,-3.1 13.6,1.4 25.3,0 35.2,-3.9 9.9,-4.1 14.8,-9.9 14.8,-17.5 0,-8.7 -5.9,-13.8 -15.6,-13.8 -2,0 -4.8,0.3 -8.3,1.2 -3.6,0.7 -5.8,1 -6.6,1 -5.4,0 -10.5,-4.2 -10.5,-10.4 0,-3.2 1.5,-6.1 4.4,-8.5 l 22.8,-22.9 h -36.5 c -6.3,0 -11.7,-5.3 -11.7,-11.6 0,-6.3 5.1,-11.4 11.7,-11.4 h 52.5 c 8.3,0 14.6,5.9 14.6,14.1 0,3.9 -1.2,7 -3.6,9.3 l -20.7,21.4 c 18.5,1.9 30.6,13.8 30.6,30.8 -0.2,14.9 -7,26.1 -20.4,33.8 z" />
	<linearGradient
   id="XMLID_3_"
   gradientUnits="userSpaceOnUse"
   x1="262.25781"
   y1="324.7894"
   x2="405.93689"
   y2="324.7894">
		<stop
   offset="0"
   style="stop-color:#820040"
   id="stop14" />
		<stop
   offset="0.3207"
   style="stop-color:#A10838"
   id="stop16" />
		<stop
   offset="1"
   style="stop-color:#EC1C24"
   id="stop18" />
	</linearGradient>
	<path
   id="XMLID_5_"
   class="st2"
   d="m 296.8,406 c -9.3,-3.7 -17.8,-8.8 -25.3,-15.4 -2.5,-2.2 -6.4,-1.9 -8.6,0.6 -1.8,2.1 -2,5.1 -0.5,7.3 0.3,0.4 0.6,0.8 1.1,1.2 8.5,7.5 18.3,13.4 28.8,17.5 3.1,1.2 6.6,-0.3 7.9,-3.4 1.3,-3 -0.3,-6.5 -3.4,-7.8 z M 310,239.3 c 7.6,-1.6 15.4,-2.2 23.2,-1.8 3.3,0.2 6.2,-2.4 6.4,-5.7 0.2,-3.3 -2.4,-6.2 -5.7,-6.4 -8.9,-0.5 -17.7,0.2 -26.4,2 -3.3,0.7 -5.4,3.9 -4.7,7.2 0.2,1.1 0.7,2 1.4,2.8 1.4,1.6 3.6,2.4 5.8,1.9 z m -36.6,17.5 c 4,-3.2 8.3,-6.1 12.8,-8.6 2.9,-1.6 4,-5.3 2.4,-8.2 -1.6,-2.9 -5.3,-4 -8.2,-2.4 -5.1,2.8 -10,6.1 -14.6,9.8 v 0 c -2.6,2.1 -3,5.9 -0.9,8.5 2.1,2.6 5.9,3 8.5,0.9 z m 68.8,154.3 c -7.7,1.2 -15.5,1.4 -23.2,0.6 -3.3,-0.4 -6.3,2.1 -6.7,5.4 -0.2,1.7 0.3,3.2 1.3,4.5 1,1.2 2.4,2 4.1,2.2 8.8,0.9 17.7,0.7 26.5,-0.7 3.3,-0.5 5.6,-3.6 5,-7 -0.6,-3.3 -3.7,-5.6 -7,-5 z m 45.2,-13.5 c -1.9,-2.7 -5.7,-3.4 -8.5,-1.5 l -0.2,0.1 c -4.2,3 -8.8,5.6 -13.4,7.8 -3,1.4 -4.3,5 -2.9,8.1 0.2,0.3 0.3,0.6 0.5,0.9 1.7,2.4 4.8,3.3 7.5,2 5.3,-2.5 10.4,-5.5 15.3,-8.9 l 0.2,-0.1 c 2.8,-1.9 3.4,-5.7 1.5,-8.4 z m 0.4,-145.1 c 2,-2.7 1.3,-6.5 -1.4,-8.5 -9.2,-6.6 -19.4,-11.6 -30.3,-14.8 -3.2,-0.9 -6.6,0.9 -7.5,4.1 -0.6,2 -0.1,4 1.1,5.5 0.8,0.9 1.8,1.7 3,2 9.6,2.8 18.6,7.2 26.6,13 2.8,2 6.6,1.4 8.5,-1.3 z"
   style="fill:url(#XMLID_3_)" />
	<g
   id="XMLID_12383_">
		
			<linearGradient
   id="XMLID_4_"
   gradientUnits="userSpaceOnUse"
   x1="-90.520302"
   y1="716.24841"
   x2="-166.1436"
   y2="716.24841"
   gradientTransform="matrix(0.9825,-0.1862,0.1862,0.9825,195.7513,-401.4587)">
			<stop
   offset="0"
   style="stop-color:#820040"
   id="stop22" />
			<stop
   offset="0.3207"
   style="stop-color:#A10838"
   id="stop24" />
			<stop
   offset="1"
   style="stop-color:#EC1C24"
   id="stop26" />
		</linearGradient>
		<path
   id="XMLID_12384_"
   class="st3"
   d="m 176.6,393.4 v 0 c -4.1,-2 -8,-4.4 -11.6,-7 -2.1,-1.5 -2.5,-4.4 -1,-6.5 1.5,-2.1 4.4,-2.5 6.5,-1 3.2,2.3 6.6,4.4 10.2,6.1 2.3,1.1 3.3,3.9 2.1,6.2 -1.1,2.3 -3.9,3.3 -6.2,2.2 z m 18.1,6 c -1.8,-0.9 -2.9,-2.9 -2.5,-5.1 0.5,-2.5 2.9,-4.2 5.4,-3.7 7.5,1.4 15.1,1.6 22.7,0.4 2.5,-0.4 4.9,1.4 5.3,3.9 0.4,2.5 -1.4,4.9 -3.9,5.3 -8.6,1.3 -17.3,1.2 -25.9,-0.5 -0.3,0 -0.7,-0.1 -1.1,-0.3 z m -45.8,-30.1 c -0.7,-0.3 -1.3,-0.9 -1.8,-1.6 -3.8,-5.6 -6.9,-11.7 -9.1,-18.2 -0.8,-2.4 0.5,-5.1 2.9,-5.9 2.4,-0.8 5.1,0.5 5.9,2.9 1.9,5.7 4.6,11 8,16 1.4,2.1 0.9,5 -1.2,6.5 -1.5,0.9 -3.3,1 -4.7,0.3 z m 87.4,25.7 c -1.1,-0.4 -2,-1.3 -2.5,-2.5 -1,-2.4 0.1,-5.1 2.5,-6.1 5.5,-2.3 10.7,-5.4 15.3,-9.1 2,-1.6 4.9,-1.2 6.5,0.8 1.6,2 1.2,4.9 -0.8,6.5 -5.3,4.2 -11.2,7.7 -17.5,10.4 -1.1,0.5 -2.4,0.4 -3.5,0 z m -99,-55.1 c -1.3,-0.6 -2.3,-1.9 -2.6,-3.5 -1.3,-8.6 -1.2,-17.3 0.5,-25.9 0.5,-2.5 2.9,-4.2 5.4,-3.7 2.5,0.5 4.2,2.9 3.7,5.4 -1.4,7.5 -1.6,15.1 -0.4,22.7 0.4,2.5 -1.3,4.9 -3.9,5.3 -0.9,0.2 -1.9,0.1 -2.7,-0.3 z m 6.5,-42.5 c -2.3,-1.1 -3.3,-3.9 -2.1,-6.2 v 0 c 2,-4.1 4.4,-8 7,-11.6 1.5,-2.1 4.4,-2.5 6.5,-1 2.1,1.5 2.5,4.4 1,6.5 -2.3,3.2 -4.4,6.6 -6.1,10.1 -1.2,2.4 -4,3.4 -6.3,2.2 z m 24,-27.7 c -0.7,-0.3 -1.3,-0.9 -1.8,-1.6 -1.4,-2.1 -0.9,-5 1.2,-6.5 5.6,-3.8 11.7,-6.9 18.2,-9.1 2.4,-0.8 5.1,0.5 5.9,2.9 0.8,2.4 -0.5,5.1 -2.9,5.9 -5.7,1.9 -11,4.6 -15.9,8 -1.4,1 -3.2,1.1 -4.7,0.4 z m 29.4,-11.6 c -1.3,-0.6 -2.3,-1.9 -2.6,-3.5 -0.4,-2.5 1.3,-4.9 3.9,-5.3 8.6,-1.3 17.3,-1.2 25.9,0.4 2.5,0.5 4.2,2.9 3.7,5.4 -0.5,2.5 -2.9,4.2 -5.4,3.7 -7.5,-1.4 -15.1,-1.6 -22.7,-0.4 -1,0.3 -1.9,0.1 -2.8,-0.3 z m 53.3,13 c -0.2,-0.1 -0.5,-0.3 -0.7,-0.4 -3.2,-2.3 -6.6,-4.4 -10.1,-6.1 h -0.1 c -2.3,-1.1 -3.3,-3.9 -2.1,-6.2 1.1,-2.3 3.9,-3.3 6.2,-2.1 h 0.1 c 4,2 7.9,4.3 11.5,6.9 2.1,1.5 2.5,4.4 1,6.5 -1.3,1.8 -3.8,2.4 -5.8,1.4 z"
   style="fill:url(#XMLID_4_)" />
	</g>
	<g
   id="XMLID_12364_">
		<path
   id="XMLID_12382_"
   class="st4"
   d="m 659.9,646.8 c -5,-1.7 -6.5,-2.5 -6.5,-4.7 0,-1.9 2.1,-3.4 4.9,-3.4 2.6,0 5.4,0.8 8.5,2.4 0.1,0 0.1,0 0.2,0 0.1,0 0.1,0 0.2,0 0.1,-0.1 0.2,-0.2 0.2,-0.3 l 0.8,-5.2 c 0,-0.2 -0.1,-0.3 -0.2,-0.4 -2.8,-1.2 -6.1,-1.9 -9.4,-1.9 -6.5,0 -11.1,3.9 -11.1,9.6 0,5.2 3.5,7.3 10.3,9.7 4.5,1.6 6,2.5 6,4.9 0,2.4 -2.3,4 -5.9,4 -3,0 -7,-1.1 -10.2,-2.8 -0.1,0 -0.1,0 -0.2,0 -0.1,0 -0.1,0 -0.2,0 -0.1,0.1 -0.2,0.2 -0.2,0.3 l -0.8,5.1 c 0,0.2 0.1,0.3 0.2,0.4 3.7,1.6 7.6,2.4 11.1,2.4 7.2,0 12.1,-4.1 12.1,-10.1 0.1,-5.6 -3.4,-7.8 -9.8,-10" />
		<path
   id="XMLID_12381_"
   class="st4"
   d="m 702.5,633.6 h -5.7 c -0.2,0 -0.4,0.2 -0.4,0.4 v 19.4 c 0,5.2 -2.4,7.9 -7.1,7.9 -4.5,0 -7,-2.9 -7,-8.1 V 634 c 0,-0.2 -0.2,-0.4 -0.4,-0.4 h -5.7 c -0.2,0 -0.4,0.2 -0.4,0.4 v 19.5 c 0,8.4 5,13.4 13.4,13.4 8.5,0 13.6,-5.1 13.6,-13.7 V 634 c 0.1,-0.2 -0.1,-0.4 -0.3,-0.4" />
		<path
   id="XMLID_12378_"
   class="st4"
   d="M 722.3,633.6 H 712 c -0.2,0 -0.4,0.2 -0.4,0.4 v 32 c 0,0.2 0.2,0.4 0.4,0.4 h 5.7 c 0.2,0 0.4,-0.2 0.4,-0.4 v -11.9 h 3.7 c 7.9,0 12.5,-3.8 12.5,-10.3 -0.2,-6.3 -4.7,-10.2 -12,-10.2 m -0.6,15 H 718 v -9.5 h 3.8 c 2.8,0 6,0.8 6,4.7 0,3.3 -2,4.8 -6.1,4.8" />
		<path
   id="XMLID_12377_"
   class="st4"
   d="m 761.1,660.6 h -14.2 v -8.4 h 11.8 c 0.1,0 0.2,0 0.3,-0.1 0.1,-0.1 0.1,-0.2 0.1,-0.3 l -0.8,-5 c 0,-0.2 -0.2,-0.3 -0.4,-0.3 h -11 v -7.1 h 13.8 c 0.2,0 0.4,-0.2 0.4,-0.4 v -5 c 0,-0.2 -0.2,-0.4 -0.4,-0.4 h -19.8 c -0.2,0 -0.4,0.2 -0.4,0.4 v 32 c 0,0.2 0.2,0.4 0.4,0.4 h 20.3 c 0.2,0 0.4,-0.2 0.4,-0.4 v -5 c -0.1,-0.2 -0.3,-0.4 -0.5,-0.4" />
		<path
   id="XMLID_12374_"
   class="st4"
   d="m 784.6,653.1 c 4.2,-1.6 6.5,-4.9 6.5,-9.3 0,-6.4 -4.6,-10.2 -12.4,-10.2 h -9.9 c -0.2,0 -0.4,0.2 -0.4,0.4 v 32 c 0,0.2 0.2,0.4 0.4,0.4 h 5.7 c 0.2,0 0.4,-0.2 0.4,-0.4 v -12 h 2.9 l 8.8,12.6 c 0.1,0.1 0.2,0.2 0.3,0.2 0,0 0.1,0 0.1,0 l 5.9,-1.3 c 0.1,0 0.2,-0.1 0.3,-0.2 0,-0.1 0,-0.3 -0.1,-0.4 z m 0.1,-9.2 c 0,3.2 -2.1,4.9 -6,4.9 h -3.8 v -9.5 h 3.8 c 2.7,0 6,0.8 6,4.6" />
		<path
   id="XMLID_12373_"
   class="st4"
   d="m 825.4,633.7 h -5.7 c -0.2,0 -0.3,0.1 -0.4,0.2 l -9,23.9 -8.8,-23.9 c -0.1,-0.1 -0.2,-0.3 -0.4,-0.3 H 795 c -0.1,0 -0.2,0.1 -0.2,0.2 -0.1,0.1 -0.1,0.2 0,0.3 l 12.5,31.9 c 0.1,0.1 0.2,0.2 0.4,0.2 h 5.3 c 0.2,0 0.3,-0.1 0.3,-0.2 L 826,634.1 c 0,-0.1 0,-0.2 0,-0.3 -0.3,-0.1 -0.4,-0.1 -0.6,-0.1" />
		<path
   id="XMLID_12372_"
   class="st4"
   d="m 837.8,633.6 h -5.7 c -0.2,0 -0.4,0.2 -0.4,0.4 v 32 c 0,0.2 0.2,0.4 0.4,0.4 h 5.7 c 0.2,0 0.4,-0.2 0.4,-0.4 v -32 c 0,-0.2 -0.2,-0.4 -0.4,-0.4" />
		<path
   id="XMLID_12371_"
   class="st4"
   d="M 869.3,660.6 H 855 v -8.4 h 11.8 c 0.1,0 0.2,0 0.3,-0.1 0.1,-0.1 0.1,-0.2 0.1,-0.3 l -0.8,-5 c 0,-0.2 -0.2,-0.3 -0.4,-0.3 h -11 v -7.1 h 13.8 c 0.2,0 0.4,-0.2 0.4,-0.4 v -5 c 0,-0.2 -0.2,-0.4 -0.4,-0.4 H 849 c -0.2,0 -0.4,0.2 -0.4,0.4 v 32 c 0,0.2 0.2,0.4 0.4,0.4 h 20.3 c 0.2,0 0.4,-0.2 0.4,-0.4 v -5 c -0.1,-0.2 -0.2,-0.4 -0.4,-0.4" />
		<path
   id="XMLID_12368_"
   class="st4"
   d="M 921.1,660.7 H 909.4 V 634 c 0,-0.2 -0.2,-0.4 -0.4,-0.4 h -5.7 c -0.2,0 -0.4,0.2 -0.4,0.4 v 32 c 0,0.2 0.2,0.4 0.4,0.4 H 922 c 0.1,0 0.2,0 0.3,-0.1 0.1,-0.1 0.1,-0.2 0.1,-0.3 l -0.8,-4.9 c -0.1,-0.3 -0.3,-0.4 -0.5,-0.4" />
		<path
   id="XMLID_12366_"
   class="st4"
   d="M 948.3,660.6 H 934 v -8.4 h 11.8 c 0.1,0 0.2,0 0.3,-0.1 0.1,-0.1 0.1,-0.2 0.1,-0.3 l -0.8,-5 c 0,-0.2 -0.2,-0.3 -0.4,-0.3 h -11 v -7.1 h 13.8 c 0.2,0 0.4,-0.2 0.4,-0.4 v -5 c 0,-0.2 -0.2,-0.4 -0.4,-0.4 H 928 c -0.2,0 -0.4,0.2 -0.4,0.4 v 32 c 0,0.2 0.2,0.4 0.4,0.4 h 20.3 c 0.2,0 0.4,-0.2 0.4,-0.4 v -5 c -0.1,-0.2 -0.2,-0.4 -0.4,-0.4" />
		<path
   id="XMLID_12365_"
   class="st4"
   d="M 896.2,660.7 H 884.5 V 634 c 0,-0.2 -0.2,-0.4 -0.4,-0.4 h -5.7 c -0.2,0 -0.4,0.2 -0.4,0.4 v 32 c 0,0.2 0.2,0.4 0.4,0.4 H 897 c 0.1,0 0.2,0 0.3,-0.1 0.1,-0.1 0.1,-0.2 0.1,-0.3 l -0.8,-4.9 c 0,-0.3 -0.2,-0.4 -0.4,-0.4" />
	</g>
	<path
   id="XMLID_12361_"
   class="st0"
   d="m 396.8,287.7 c -13.2,-24.3 -39,-40.8 -68.5,-40.8 -43,0 -77.9,35 -77.9,77.9 0,43 35,77.9 77.9,77.9 29.5,0 55.3,-16.5 68.5,-40.8 -4.9,-11.4 -7.6,-23.9 -7.6,-37.1 0,-13.2 2.7,-25.7 7.6,-37.1 z m -45,80.5 h -44.7 c -6.6,0 -10.9,-4 -10.9,-10.9 0,-11 7,-21.3 20.9,-30.7 10.1,-6.9 16.6,-11.7 19.3,-14.3 2.9,-2.6 4.3,-5.6 4.3,-8.8 0,-5.6 -4,-10.8 -13.2,-10.8 -6.1,0 -11.3,2.5 -15.3,7.3 -1.6,1.8 -3.1,3 -4.7,3.5 -4.7,1.4 -9.7,-1.2 -11.1,-5.4 -0.9,-3 -0.5,-5.6 1.2,-7.8 6.1,-7.9 16.2,-14.5 29.5,-14.5 10,0 17.6,2.6 23.2,7.8 5.6,5.2 8.3,11.7 8.3,19.4 0,5.6 -1.7,10.8 -4.9,15.6 -3.2,4.7 -9.8,10.4 -19.6,17.1 -0.9,0.5 -3.5,2.5 -4.7,3.4 -1,0.6 -3.5,2.5 -4.5,3.5 -3.5,2.9 -6.7,5.7 -7.1,8.3 h 34.1 c 5.1,0 8.9,3.9 8.9,8.7 -0.1,5 -4,8.6 -9,8.6 z" />
	<path
   id="XMLID_12360_"
   class="st5"
   d="m 224.1,610.4 c -45.6,0 -76.2,-34.1 -76.2,-84.9 0,-51 30.8,-85.3 76.7,-85.3 18.2,0 33,4.3 46.6,13.6 1.1,0.8 1.7,2.1 1.5,3.4 l -3.2,21.9 c -0.2,1.2 -1,2.3 -2.1,2.7 -0.4,0.2 -0.9,0.3 -1.3,0.3 -0.8,0 -1.5,-0.2 -2.1,-0.7 -13.1,-9.9 -25.6,-14.6 -39.6,-14.6 -29.6,0 -47.3,21.9 -47.3,58.5 0,36.5 17.7,58.2 47.3,58.2 14.2,0 28.4,-5.1 42.1,-15.1 0.6,-0.4 1.3,-0.7 2.1,-0.7 0.5,0 0.9,0.1 1.3,0.3 1.1,0.5 1.9,1.5 2.1,2.7 l 3.2,20.3 c 0.2,1.3 -0.3,2.6 -1.4,3.4 -13.5,10.1 -32.1,16 -49.7,16 z" />
	<path
   id="XMLID_12359_"
   class="st5"
   d="m 367.5,607.5 c -1.9,0 -3.5,-1.6 -3.5,-3.5 v -74.1 c 0,-13.6 -7.5,-15.2 -13.1,-15.2 -8.6,0 -18.2,5.3 -27.9,15.4 V 604 c 0,1.9 -1.6,3.5 -3.5,3.5 h -20.3 c -1.9,0 -3.5,-1.6 -3.5,-3.5 V 442.6 c 0,-1.7 1.3,-3.2 3,-3.5 H 319 c 0.2,0 0.4,0 0.5,0 0.8,0 1.6,0.3 2.3,0.8 0.8,0.7 1.2,1.6 1.2,2.7 v 59.5 c 11.1,-8.5 22.1,-12.7 33.4,-12.7 21.9,0 35,13.2 35,35.4 V 604 c 0,1.9 -1.6,3.5 -3.5,3.5 z" />
	<path
   id="XMLID_12356_"
   class="st5"
   d="m 444.7,609.8 c -21.5,0 -35.4,-13.3 -35.4,-33.8 0,-32.9 32.6,-41.7 68.6,-45.8 v -1.4 c 0,-10.5 -5.2,-14.9 -17.2,-14.9 -10.9,0 -22,2.8 -36.2,9 -0.5,0.2 -0.9,0.3 -1.4,0.3 -0.6,0 -1.2,-0.1 -1.7,-0.4 -1,-0.5 -1.6,-1.5 -1.8,-2.5 l -2.7,-17.5 c -0.3,-1.6 0.6,-3.2 2.2,-3.8 13.9,-5.6 26.7,-9.4 43.5,-9.4 28.7,0 42.7,12.6 42.7,38.4 v 76 c 0,1.9 -1.6,3.5 -3.5,3.5 h -16.4 c -1.7,0 -3.2,-1.3 -3.5,-3 l -1.3,-8 c -10.6,8.9 -22.4,13.3 -35.9,13.3 z m 33.2,-57.1 c -37.1,4.2 -41.5,14.6 -41.5,22.1 0,7.1 4.5,11.1 12.7,11.1 9.9,0 20.1,-4.7 28.8,-13.2 z" />
	<path
   id="XMLID_12355_"
   class="st5"
   d="m 601.7,607.5 c -1.9,0 -3.5,-1.6 -3.5,-3.5 v -74.1 c 0,-13.6 -7.5,-15.2 -13.1,-15.2 -8.6,0 -18.2,5.3 -27.9,15.4 V 604 c 0,1.9 -1.6,3.5 -3.5,3.5 h -20.3 c -1.9,0 -3.5,-1.6 -3.5,-3.5 V 495.3 c 0,-1.9 1.6,-3.5 3.5,-3.5 h 16.2 c 1.7,0 3.2,1.3 3.5,3 l 1.5,9.5 c 8.8,-7.2 21,-14.7 36,-14.7 21.9,0 35,13.2 35,35.4 v 79 c 0,1.9 -1.6,3.5 -3.5,3.5 z" />
	<path
   id="XMLID_12354_"
   class="st5"
   d="m 698.1,609.8 c -32.9,0 -54.1,-23.6 -54.1,-60 0,-36.6 21.8,-60.3 55.5,-60.3 19,0 31.1,6.7 36.7,10.7 1.1,0.8 1.6,2.1 1.4,3.4 l -3,19.8 c -0.2,1.2 -1,2.3 -2.2,2.8 -0.4,0.2 -0.8,0.2 -1.3,0.2 -0.8,0 -1.6,-0.3 -2.2,-0.8 -9.6,-7.7 -19,-11.3 -29.7,-11.3 -17.3,0 -27.7,13.2 -27.7,35.2 0,22.5 10.3,35.5 28.4,35.5 11.5,0 21.1,-3.6 30.1,-11.2 0.6,-0.6 1.5,-0.8 2.3,-0.8 0.4,0 0.8,0.1 1.2,0.2 1.2,0.4 2.1,1.5 2.3,2.7 l 3,18.7 c 0.2,1.3 -0.3,2.6 -1.4,3.4 -10.9,8 -23.3,11.8 -39.3,11.8 z" />
	<path
   id="XMLID_12351_"
   class="st5"
   d="m 802.4,609.8 c -33.7,0 -53.9,-22.6 -53.9,-60.5 0,-35.2 21.1,-59.8 51.4,-59.8 30.7,0 49.8,22.2 49.8,58 v 4.3 c 0,1.9 -1.6,3.5 -3.5,3.5 h -70.1 c 1.1,14.5 7.2,30.1 28,30.1 15,0 25.6,-5.9 36.8,-14.7 0.6,-0.5 1.4,-0.8 2.2,-0.8 0.4,0 0.9,0.1 1.3,0.2 1.2,0.5 2,1.5 2.2,2.7 l 3,18.2 c 0.2,1.3 -0.3,2.5 -1.3,3.3 -13.3,10.4 -28.3,15.5 -45.9,15.5 z M 821.5,533 c -2.9,-14.2 -9.8,-20.5 -21.8,-20.5 -10.6,0 -18.7,7.6 -22.1,20.5 z" />
	<path
   id="XMLID_12350_"
   class="st5"
   d="m 905.2,609.8 c -15.4,0 -31.9,-5.4 -41.4,-10.7 -1.3,-0.7 -2,-2.2 -1.8,-3.6 l 3,-19.1 c 0.2,-1.2 1,-2.2 2.1,-2.7 0.4,-0.2 0.9,-0.3 1.4,-0.3 0.7,0 1.4,0.2 2,0.6 7.9,5.4 20.6,11.9 36.3,11.9 5.6,0 18.6,-1.1 18.6,-10.8 0,-7.1 -3.3,-10.2 -23.1,-15 -24.4,-6.1 -38.5,-14.1 -38.5,-36.9 0,-20.1 16.8,-33.6 41.8,-33.6 13.3,0 25.9,2.6 37.2,7.6 1.5,0.7 2.3,2.2 2,3.8 l -3.2,19.1 c -0.2,1.1 -0.9,2.1 -2,2.6 -0.5,0.2 -1,0.3 -1.5,0.3 -0.6,0 -1.2,-0.2 -1.7,-0.5 -9.9,-5.6 -21.3,-8.9 -31.3,-8.9 -6.9,0 -15.2,1.6 -15.2,9 0,3.8 1.5,7.7 19.9,12.3 27,6.9 41.6,15.1 41.6,38.7 0.2,22.7 -17.2,36.2 -46.2,36.2 z" />
</g>
<g
   id="g52"
   transform="matrix(0.45,0,0,0.45,298.43424,241.2549)">
</g>
<g
   id="g54"
   transform="matrix(0.45,0,0,0.45,298.43424,241.2549)">
</g>
<g
   id="g56"
   transform="matrix(0.45,0,0,0.45,298.43424,241.2549)">
</g>
<g
   id="g58"
   transform="matrix(0.45,0,0,0.45,298.43424,241.2549)">
</g>
<g
   id="g60"
   transform="matrix(0.45,0,0,0.45,298.43424,241.2549)">
</g>
<g
   id="g62"
   transform="matrix(0.45,0,0,0.45,298.43424,241.2549)">
</g>
<g
   id="g64"
   transform="matrix(0.45,0,0,0.45,298.43424,241.2549)">
</g>
<g
   id="g66"
   transform="matrix(0.45,0,0,0.45,298.43424,241.2549)">
</g>
<g
   id="g68"
   transform="matrix(0.45,0,0,0.45,298.43424,241.2549)">
</g>
<g
   id="g70"
   transform="matrix(0.45,0,0,0.45,298.43424,241.2549)">
</g>
<g
   id="g72"
   transform="matrix(0.45,0,0,0.45,298.43424,241.2549)">
</g>
</svg>
