<?xml version="1.0" encoding="UTF-8"?>
<svg width="21px" height="21px" viewBox="0 0 21 21" version="1.1" xmlns="http://www.w3.org/2000/svg" xmlns:xlink="http://www.w3.org/1999/xlink">
    <!-- Generator: sketchtool 61.2 (101010) - https://sketch.com -->
    <title>0B9CEFA6-EE2E-43C4-BEF4-06ADAC60D5C8</title>
    <desc>Created with sketchtool.</desc>
    <g id="UI-Cortes" stroke="none" stroke-width="1" fill="none" fill-rule="evenodd">
        <g id="CORTE-1---S---02-Navegación---Menu-Desplegado---Resumen" transform="translate(-20.000000, -263.000000)" fill="#EE2527" fill-rule="nonzero">
            <g id="Nav-Drawer/1.-Group/A.-Side/_Light-Copy-4" transform="translate(0.000000, 70.000000)">
                <g id="Line-items" transform="translate(0.000000, 60.000000)">
                    <g id="Principales">
                        <g id="Navbar/Primary/⏺-Line-item/Enabled" transform="translate(0.000000, 123.000000)">
                            <g id="icon/custom/investment" transform="translate(20.000000, 10.000000)">
                                <path d="M3.78701812,19.0981251 L1.76784609,19.1010599 L1.75932794,13.7596596 L3.77887033,13.7563579 L3.78701812,19.0981251 Z M15.5313256,6.30958004 C15.7050218,6.20759451 15.7624267,5.98454703 15.6594682,5.8124923 C15.6094704,5.72958321 15.5298442,5.67015279 15.4350334,5.64667411 C15.3398524,5.62246172 15.2417085,5.63640218 15.156527,5.68666124 C14.3798938,6.16870794 13.6643692,6.74430253 13.0292115,7.39767025 C12.7792223,6.98239104 12.6377469,6.50878199 12.6195995,6.0241673 L12.6195995,6.02380045 C12.5855269,5.37483498 12.8295904,4.737242 13.2888299,4.27427173 C14.4035965,3.17774387 16.4109172,2.80538664 17.8986307,2.68652581 C18.3841653,2.64763924 18.8022954,2.63736732 19.0833944,2.63626675 C18.8393308,3.74343339 18.1982474,6.33342558 17.2742133,7.76415781 C16.9312651,8.28875963 16.3749928,8.63396963 15.7483532,8.71137592 C14.964313,8.81482886 14.1784211,8.58004204 13.5843727,8.0668127 C13.5521518,8.03929862 13.5225235,8.00921656 13.4928951,7.97950135 C14.1013874,7.34264208 14.7872837,6.78062111 15.5313256,6.30958004 L15.5313256,6.30958004 Z M10.2604422,14.9611078 L12.8355161,14.9570724 C13.5210421,14.9570724 14.1132387,15.4057353 14.2950827,16.054334 L10.5189495,16.0602036 C10.2971073,16.0605705 10.117115,16.2392286 10.117115,16.4589744 C10.1174854,16.6783533 10.297848,16.8570114 10.5193199,16.8570114 L10.5200606,16.8570114 L14.764692,16.850408 C14.9835715,16.8438047 15.1550455,16.6684482 15.1546752,16.4512704 C15.1546752,16.3067298 15.1406017,16.1614554 15.1131955,16.0202165 L17.896779,14.617732 L17.9108524,14.6111287 C18.2737997,14.4155953 18.7226692,14.4537481 19.0463589,14.7028423 L13.2117962,18.6835796 C12.4544215,19.0482329 11.6155688,19.1656263 10.7874564,19.0229199 L6.38653545,17.9344628 C6.22283882,17.893742 6.05729042,17.873565 5.89248272,17.873565 C5.5436089,17.873565 5.19917934,17.9638112 4.88993344,18.1402682 L4.59068711,18.3104886 L4.58476144,14.8007924 C5.73211928,14.0069194 7.22464739,13.8887923 8.48607438,14.4937353 L8.75198882,14.6210337 C9.21974639,14.8433475 9.74120535,14.9611078 10.2604422,14.9611078 L10.2604422,14.9611078 Z M8.23608518,12.9742243 C8.65828916,12.2764672 9.55713922,12.0284736 10.2834041,12.4085347 C10.3819184,12.4598944 10.4959876,12.4635629 10.5967239,12.4213746 C10.698201,12.3784527 10.7741237,12.2937093 10.8048631,12.1887889 C10.8707862,11.9628066 11.0648519,11.7991896 11.3029897,11.7735097 C11.3103968,11.7735097 11.3181743,11.7738766 11.3255813,11.7731429 C11.3352106,11.7724092 11.3426176,11.7698412 11.3463212,11.7680069 C11.3563208,11.7672732 11.3666907,11.7672732 11.3766902,11.7672732 C11.6763069,11.7672732 11.9307404,11.9910544 11.9622205,12.2830705 C11.9618502,12.2922419 11.9607391,12.3248919 11.9611094,12.3336964 C11.9637019,12.4452202 12.0196254,12.551608 12.111103,12.6176418 C12.2033212,12.6847761 12.3192421,12.7042194 12.4296077,12.6730368 C12.5599725,12.6356176 12.6970036,12.6103047 12.8355161,12.599299 C13.5995572,12.5362001 14.3250814,12.9004865 14.7269159,13.5487183 C14.8132085,13.6877561 14.9832011,13.7526893 15.1424535,13.705732 C15.4046644,13.63016 15.685393,13.6741825 15.9109388,13.8249597 C16.1375957,13.9761037 16.283145,14.217127 16.3105512,14.4816291 C16.3105512,14.4937353 16.3109215,14.5058415 16.3116622,14.5153797 C16.3120326,14.5175808 16.312403,14.5197819 16.3127733,14.521983 L14.822097,15.2725672 C14.4043372,14.585082 13.6477033,14.1598977 12.8362568,14.1598977 L12.8344051,14.1598977 L10.2589608,14.1639331 L10.2567386,14.1639331 C9.85897804,14.1639331 9.45899531,14.0736869 9.10086264,13.9030996 L8.83531855,13.776168 C8.15349616,13.4489339 7.3901958,13.2930207 6.61800693,13.3231028 C6.79911022,13.1440779 7.06650608,13.0615356 7.25834964,13.0457609 C7.43945293,13.032921 7.6231487,13.0597013 7.79240064,13.1257351 C7.95906011,13.1881004 8.14497801,13.123534 8.23608518,12.9742243 L8.23608518,12.9742243 Z M12.0051816,6.8499566 C11.777784,6.8499566 11.5570528,6.76374581 11.3940969,6.61150123 C10.9422646,6.08579885 10.5745027,5.49809807 10.2996997,4.86380678 C10.88523,4.78896848 11.4774266,4.79593871 12.0625865,4.88655175 C11.9325922,5.26111011 11.8737058,5.65144321 11.8877793,6.04764599 C11.8977788,6.31801769 11.9399992,6.58765569 12.0129591,6.8499566 L12.0051816,6.8499566 Z M19.9877997,14.5729758 C19.4785625,13.7361809 18.3997202,13.4437979 17.5323502,13.9078688 L16.9994103,14.1760393 C16.9986696,14.1760393 16.9982992,14.1756725 16.9979289,14.1756725 C16.7946043,13.3740956 16.0294522,12.8546297 15.2024509,12.954781 C14.5958104,12.1601743 13.6095568,11.7555339 12.6140442,11.8942048 C12.46331,11.4969015 12.1333242,11.1997494 11.7203791,11.0885925 C11.9381475,10.147611 12.3829431,9.26275811 13.009953,8.52428016 L13.016249,8.53051669 C13.044396,8.55876448 13.0725429,8.58701227 13.1025416,8.61269208 C13.80103,9.21396647 14.7321008,9.51992305 15.6550239,9.45058757 C15.7205767,9.44545161 15.7861294,9.43811452 15.8505711,9.42931001 C16.6897941,9.32365594 17.4330953,8.8595851 17.8904829,8.15485776 C19.1419103,6.218967 19.8615089,2.50566658 19.8915076,2.34828603 C19.9115067,2.2455668 19.8852116,2.13881216 19.8200292,2.05626992 C19.7544765,1.97372767 19.6563326,1.92346862 19.5504112,1.91833266 C19.3604194,1.91026186 14.8624656,1.70445653 12.7732966,3.75920813 C12.6321916,3.8978791 12.50516,4.05085739 12.3955351,4.21447446 C11.5022404,4.04938997 10.597835,4.05122424 9.70454026,4.21961042 C9.59750785,4.24052112 9.50603032,4.30692177 9.45381035,4.40193707 C9.40196074,4.49695236 9.39529436,4.60884296 9.43529263,4.70899421 C9.46195815,4.77612857 10.1011898,6.35800482 10.8741194,7.12179572 C11.2218821,7.45379897 11.6955654,7.6177829 12.1762853,7.56825755 C12.2118394,7.56532271 12.2481341,7.56018675 12.2836881,7.55505079 C12.3555369,7.69408862 12.4359037,7.82872419 12.5236777,7.95638952 C11.7396375,8.85224801 11.2037348,9.93923765 10.973004,11.1036336 C10.6893125,11.1938798 10.4441379,11.3754727 10.2763674,11.6197977 C9.36566601,11.3211782 8.36830169,11.6179635 7.77425328,12.3645122 C7.58463184,12.3215902 7.39167722,12.3076498 7.1994633,12.3226908 C6.86836649,12.349838 6.54467677,12.4635629 6.26394816,12.6517592 C6.05247581,12.7929982 5.75248877,13.1466458 5.56027485,13.4804834 C5.21954883,13.5729307 4.89141486,13.703164 4.58328002,13.8675148 L4.58253931,13.3572203 C4.58216896,13.2504656 4.54031891,13.1503144 4.46439627,13.0751092 C4.38810327,12.9999041 4.28736688,12.9580827 4.17996411,12.9591832 L1.35601203,12.9632186 C1.24860926,12.9632186 1.14750252,13.00504 1.07195023,13.0802452 C0.996027581,13.1554503 0.954177537,13.2556016 0.954545455,13.3619894 L0.963806751,19.5005644 C0.964177105,19.6069521 1.00602715,19.7071034 1.0819498,19.7819417 C1.15787244,19.8571468 1.25860883,19.8986014 1.36564124,19.8986014 L1.36638195,19.8986014 L4.20144466,19.8938323 C4.4210648,19.8875958 4.59253888,19.7126062 4.59216852,19.4950615 L4.59179817,19.2279915 L5.29028651,18.831055 C5.56434875,18.6747751 5.88322386,18.6314862 6.1913587,18.7074251 L10.60302,19.7977164 C10.6126492,19.8002844 10.6211673,19.8021187 10.6307965,19.803953 C10.9518938,19.8611822 11.2796574,19.8857615 11.6048285,19.8751227 C12.2918359,19.8556794 12.9799543,19.6861927 13.5940019,19.3850052 C13.6114085,19.3769344 13.6280745,19.3666625 13.6439997,19.3560237 L19.8718788,15.106749 C20.0463157,14.9878882 20.0974246,14.7531013 19.9877997,14.5729758 L19.9877997,14.5729758 Z" id="-↳Color"></path>
                            </g>
                        </g>
                    </g>
                </g>
            </g>
        </g>
    </g>
</svg>