<svg xmlns="http://www.w3.org/2000/svg" width="30" height="30" viewBox="0 0 30 30">
    <path fill="#333" fill-rule="evenodd" d="M15 0C6.724 0 0 6.724 0 15s6.724 15 15 15 15-6.724 15-15S23.276 0 15 0zm0 1.364c5.053 0 9.456 2.741 11.811 6.818H15c-.027 0-.054.001-.08.004-1.653.022-3.242.643-4.471 1.748-1.23 1.106-2.016 2.62-2.212 4.262L4.026 6.901C6.508 3.541 10.496 1.364 15 1.364zM3.189 8.181l5.906 10.228c.018.03.038.06.06.087 1.23 2.058 3.449 3.318 5.845 3.322.921 0 1.833-.187 2.68-.55l-4.206 7.282C6.655 27.793 1.363 22.023 1.363 15c0-2.487.667-4.814 1.826-6.82v.002zM15 9.546v-.001c1.446 0 2.834.575 3.857 1.598 1.023 1.024 1.598 2.411 1.598 3.857 0 1.446-.575 2.834-1.598 3.856-1.024 1.024-2.411 1.599-3.857 1.599-1.446 0-2.834-.576-3.857-1.599-1.023-1.023-1.598-2.41-1.598-3.856 0-1.446.575-2.834 1.598-3.857C12.168 10.12 13.554 9.545 15 9.545v.001zm4.08 0h8.422c.729 1.67 1.134 3.514 1.134 5.455 0 7.54-6.097 13.636-13.636 13.636l5.905-10.227c.02-.035.037-.07.05-.106.563-1.01.86-2.147.863-3.304-.002-2.148-1.017-4.17-2.739-5.455v.001z"/>
</svg>
