<?xml version="1.0" encoding="UTF-8"?>
<svg width="21px" height="21px" viewBox="0 0 21 21" version="1.1" xmlns="http://www.w3.org/2000/svg" xmlns:xlink="http://www.w3.org/1999/xlink">
    <!-- Generator: sketchtool 61.2 (101010) - https://sketch.com -->
    <title>AFBC4D2C-EC5D-47AC-AB9C-E7C1741D7523</title>
    <desc>Created with sketchtool.</desc>
    <g id="UI-Cortes" stroke="none" stroke-width="1" fill="none" fill-rule="evenodd">
        <g id="CORTE-1---S---02-Navegación---Menu-Desplegado---Resumen" transform="translate(-20.000000, -345.000000)" fill="#EE2527" fill-rule="nonzero">
            <g id="Nav-Drawer/1.-Group/A.-Side/_Light-Copy-4" transform="translate(0.000000, 70.000000)">
                <g id="Line-items" transform="translate(0.000000, 60.000000)">
                    <g id="Principales">
                        <g id="Navbar/Primary/⏺-Line-item/Enabled" transform="translate(0.000000, 205.000000)">
                            <g id="icon/custom/insurance" transform="translate(20.000000, 10.000000)">
                                <path d="M10.7947861,1.78977273 L10.9141043,1.90910683 L10.9133182,3.15 L11.0559746,3.15831965 C15.4878034,3.45923338 19.0345553,6.96470476 19.40916,11.3709891 L19.4272362,11.6261809 L19.438176,11.8832732 L19.4418329,12.1406848 L19.3225267,12.2616979 L18.6066176,12.2616979 L18.4872995,12.1423797 C18.4872995,10.8360565 17.4283152,9.77707219 16.121992,9.77707219 C14.9234951,9.77707219 13.9252699,10.6712729 13.7761031,11.8356077 L13.761515,11.9889581 L13.7566268,12.1460897 L13.6373663,12.2616979 L12.9214572,12.2616979 L12.802139,12.1423797 C12.802139,11.0701143 12.0842299,10.1505043 11.0852531,9.86692606 L10.9133182,9.82513636 L10.9141043,16.121992 C10.9141043,17.8332625 9.61932931,19.2421222 7.95598589,19.4223645 L7.77640237,19.4369326 L7.59425134,19.4418449 C5.88944772,19.4418449 4.47491024,18.1533609 4.29381752,16.48138 L4.27917751,16.300813 L4.27444176,16.1252086 L4.39371658,16.0026738 L5.10962567,16.0026738 L5.22894385,16.121992 C5.22894385,17.4283152 6.2879281,18.4872995 7.59425134,18.4872995 C8.79274825,18.4872995 9.79097339,17.5930988 9.94014018,16.428764 L9.95472832,16.2754135 L9.95955882,16.1219952 L9.95877273,9.82609091 L9.93242056,9.83093279 C9.02159509,10.02857 8.31191535,10.7488279 8.12199537,11.652129 L8.09255409,11.8235601 L8.07635457,11.9889581 L8.07146637,12.1460897 L7.95220588,12.2616979 L7.23629679,12.2616979 L7.11697861,12.1423797 C7.11697861,10.8360564 6.05799436,9.77707219 4.75167112,9.77707219 C3.5531742,9.77707219 2.55494907,10.6712729 2.40578228,11.8356077 L2.39119414,11.9889581 L2.38630594,12.1460897 L2.26704545,12.2616979 L1.55113636,12.2616979 L1.43181818,12.1423797 C1.43181818,7.39084029 5.11949501,3.4779017 9.81620092,3.15841554 L9.95877273,3.15 L9.95955884,1.90902276 L10.078877,1.78977273 L10.7947861,1.78977273 Z M10.4368316,4.09191176 C7.04563365,4.09191176 4.06596323,6.20755177 2.90084205,9.30393897 L2.86077273,9.41181818 L3.02652242,9.30526581 C3.48227351,9.0275737 4.0015016,8.86213299 4.54626288,8.82879668 L4.75167112,8.82252674 C5.86560379,8.82252674 6.88122029,9.3760647 7.49123493,10.266394 L7.59436364,10.4274545 L7.69753438,10.2664375 C8.26911209,9.43176703 9.19746995,8.8930415 10.2291854,8.82896124 L10.4368316,8.82252674 C11.5507642,8.82252674 12.5663807,9.3760647 13.1763953,10.266394 L13.2786818,10.4274545 L13.3826948,10.2664375 C13.9542725,9.43176703 14.8826304,8.8930415 15.9143459,8.82896124 L16.121992,8.82252674 C16.7414126,8.82252674 17.3345195,8.9928919 17.8471268,9.305295 L18.0103636,9.41181818 L17.9727147,9.30396834 C16.8380944,6.28727006 13.9798882,4.20106751 10.6968756,4.09606613 L10.4368316,4.09191176 Z" id="Color"></path>
                            </g>
                        </g>
                    </g>
                </g>
            </g>
        </g>
    </g>
</svg>