<svg width="17" height="10" viewBox="0 0 17 10" fill="none" xmlns="http://www.w3.org/2000/svg">
  <path d="M2.1875 0H9.0625C10.2706 0 11.25 0.979377 11.25 2.1875V7.8125C11.25 9.02062 10.2706 10 9.0625 10H2.1875C0.979377 10 0 9.02062 0 7.8125V2.1875C0 0.979377 0.979377 0 2.1875 0ZM2.1875 1.25C1.66973 1.25 1.25 1.66973 1.25 2.1875V7.8125C1.25 8.33027 1.66973 8.75 2.1875 8.75H9.0625C9.58027 8.75 10 8.33027 10 7.8125V2.1875C10 1.66973 9.58027 1.25 9.0625 1.25H2.1875ZM12.9396 1.89727L15.0229 1.31303C15.7984 1.09555 16.6034 1.54791 16.8208 2.32341C16.8568 2.45158 16.875 2.58407 16.875 2.71719V7.28317C16.875 8.08858 16.2221 8.7415 15.4167 8.7415C15.2835 8.7415 15.1511 8.72328 15.0229 8.68733L12.9396 8.10309C12.3101 7.92656 11.875 7.35269 11.875 6.69893V3.30143C11.875 2.64768 12.3101 2.0738 12.9396 1.89727ZM13.2771 3.10084C13.1872 3.12606 13.125 3.20804 13.125 3.30143V6.69893C13.125 6.79232 13.1872 6.8743 13.2771 6.89952L15.3604 7.48376C15.3787 7.4889 15.3976 7.4915 15.4167 7.4915C15.5317 7.4915 15.625 7.39823 15.625 7.28317V2.71719C15.625 2.69817 15.6224 2.67925 15.6173 2.66094C15.5862 2.55015 15.4712 2.48553 15.3604 2.5166L13.2771 3.10084Z" fill="#D52B1E"/>
</svg>
