<?xml version="1.0" encoding="UTF-8"?>
<svg width="37px" height="23px" viewBox="0 0 37 23" version="1.1" xmlns="http://www.w3.org/2000/svg" xmlns:xlink="http://www.w3.org/1999/xlink">
    <!-- Generator: sketchtool 61.2 (101010) - https://sketch.com -->
    <title>32AAFAAA-91A8-4E97-B943-77DDB0B99447</title>
    <desc>Created with sketchtool.</desc>
    <g id="Mobile" stroke="none" stroke-width="1" fill="none" fill-rule="evenodd">
        <g id="Prueba-07.3-Recorte-3--Master" transform="translate(-77.000000, -393.000000)" fill-rule="nonzero">
            <g id="Tarjetas" transform="translate(0.000000, 339.000000)">
                <g id="TC-Master" transform="translate(61.000000, 37.000000)">
                    <g id="Mastercard_2019_logo" transform="translate(16.000000, 17.000000)">
                        <rect id="rect19" fill="#FF5F00" x="14" y="2" width="10" height="19"></rect>
                        <path d="M14.5274914,11.5 C14.5274914,7.82638889 16.290378,4.56805556 19,2.45972222 C17.0085911,0.926388889 14.4948454,0 11.7525773,0 C5.25601375,0 0,5.14305556 0,11.5 C0,17.8569444 5.25601375,23 11.7525773,23 C14.4948454,23 17.0085911,22.0736111 19,20.5402778 C16.290378,18.4638889 14.5274914,15.1736111 14.5274914,11.5 Z" id="XMLID_330_" fill="#EB001B"></path>
                        <path d="M37,11.5 C37,17.8569444 31.7439863,23 25.2474227,23 C22.5051546,23 19.9914089,22.0736111 18,20.5402778 C20.742268,18.4319444 22.4725086,15.1736111 22.4725086,11.5 C22.4725086,7.82638889 20.709622,4.56805556 18,2.45972222 C19.9914089,0.926388889 22.5051546,0 25.2474227,0 C31.7439863,0 37,5.175 37,11.5 Z" id="path22" fill="#F79E1B"></path>
                    </g>
                </g>
            </g>
        </g>
    </g>
</svg>