<svg xmlns="http://www.w3.org/2000/svg" xmlns:xlink="http://www.w3.org/1999/xlink" width="65" height="38" viewBox="0 0 65 38">
    <defs>
        <radialGradient id="prefix__b" cx="80.366%" cy="31.811%" r="100.276%" fx="80.366%" fy="31.811%" gradientTransform="scale(-.58461 -1) rotate(-26.49 -1.637 4.627)">
            <stop offset="0%" stop-color="#B11B36"/>
            <stop offset="100%" stop-color="#811642"/>
        </radialGradient>
        <rect id="prefix__a" width="65" height="38" x="0" y="0" rx="4"/>
    </defs>
    <g fill="none" fill-rule="evenodd">
        <mask id="prefix__c" fill="#fff">
            <use xlink:href="#prefix__a"/>
        </mask>
        <use fill="url(#prefix__b)" fill-rule="nonzero" xlink:href="#prefix__a"/>
        <g fill="#FEFEFE" mask="url(#prefix__c)">
            <path d="M26.462 9c2.142 0 4.133.635 5.79 1.725-.084.069-.17.136-.252.206-2.465 2.116-3.878 5.174-3.878 8.39 0 3.217 1.413 6.275 3.878 8.39.082.07.168.138.253.207-1.658 1.09-3.65 1.725-5.791 1.725C20.684 29.643 16 25.022 16 19.32c0-5.7 4.684-10.32 10.462-10.32zm12.93 0c5.778 0 10.462 4.621 10.462 10.321 0 5.7-4.684 10.322-10.462 10.322-2.141 0-4.132-.635-5.79-1.725.084-.069.17-.137.252-.207 2.465-2.116 3.878-5.173 3.878-8.39 0-3.216-1.413-6.274-3.878-8.39-.082-.07-.168-.137-.253-.206C35.26 9.635 37.251 9 39.392 9zm-6.465 2.21c.135.105.267.213.396.324 2.205 1.892 3.6 4.678 3.6 7.788 0 3.109-1.395 5.895-3.6 7.787-.13.11-.261.219-.396.323-.135-.104-.267-.212-.396-.323-2.204-1.892-3.6-4.678-3.6-7.787 0-3.11 1.396-5.896 3.6-7.788.13-.11.261-.219.396-.323z"/>
        </g>
    </g>
</svg>
