<svg xmlns="http://www.w3.org/2000/svg" xmlns:xlink="http://www.w3.org/1999/xlink" width="65" height="38" viewBox="0 0 65 38">
    <defs>
        <radialGradient id="prefix__b" cx="80.366%" cy="31.811%" r="100.276%" fx="80.366%" fy="31.811%" gradientTransform="scale(-.58461 -1) rotate(-26.49 -1.637 4.627)">
            <stop offset="0%" stop-color="#B11B36"/>
            <stop offset="100%" stop-color="#811642"/>
        </radialGradient>
        <rect id="prefix__a" width="65" height="38" x="0" y="0" rx="4"/>
    </defs>
    <g fill="none" fill-rule="evenodd">
        <mask id="prefix__c" fill="#fff">
            <use xlink:href="#prefix__a"/>
        </mask>
        <use fill="url(#prefix__b)" fill-rule="nonzero" xlink:href="#prefix__a"/>
        <g fill="#FFF" mask="url(#prefix__c)">
            <path d="M27.823 13.221l-5.084 12.601h-3.332l-2.52-10.036c-.17-.62-.299-.84-.769-1.106-.769-.442-2.007-.84-3.118-1.061l.085-.354h5.34c.683 0 1.281.487 1.452 1.283l1.325 7.295 3.289-8.578h3.332v-.044zM38.502 13c1.196 0 2.178.31 2.947.575l-.555 2.653c-1.41-.664-2.649-.62-3.119-.575-.897.133-1.324.619-1.324 1.061-.042 1.503 4.4 1.68 4.4 4.996 0 2.609-2.178 4.333-5.468 4.29-1.41 0-2.776-.31-3.502-.664l.555-2.741c.726.353 1.666.84 3.246.795.897 0 1.88-.397 1.88-1.238 0-.53-.385-.928-1.623-1.547-1.196-.62-2.777-1.636-2.777-3.449.043-2.432 2.221-4.156 5.34-4.156zm10.935.221L52 25.822h-2.905l-.427-1.9H44.61l-.64 1.9h-3.29l4.742-11.672c.213-.575.726-.929 1.324-.929h2.691zm-2.221 3.405l-1.666 4.73h2.606l-.94-4.73zM32.308 13.22l-2.606 12.601h-3.16l2.605-12.6h3.16z"/>
        </g>
    </g>
</svg>
