<svg width="48" height="48" viewBox="0 0 48 48" fill="none" xmlns="http://www.w3.org/2000/svg">
<rect width="48" height="48" fill="white"/>
<path d="M18.6677 16.2994H35.9718" stroke="#D52B1E" stroke-width="2.2" stroke-miterlimit="10" stroke-linecap="round" stroke-linejoin="round"/>
<path d="M31.2069 21.2712H35.9718" stroke="#D52B1E" stroke-width="2.2" stroke-miterlimit="10" stroke-linecap="round" stroke-linejoin="round"/>
<path d="M31.2069 25.9943H35.9718" stroke="#D52B1E" stroke-width="2.2" stroke-miterlimit="10" stroke-linecap="round" stroke-linejoin="round"/>
<path d="M12.5235 36.8079H8.76176C6.63009 36.8079 5 35.1921 5 33.0791V3H30.9561C33.0878 3 34.7179 4.61582 34.7179 6.72881V10.4576" stroke="#D52B1E" stroke-width="2.2" stroke-miterlimit="10" stroke-linecap="round" stroke-linejoin="round"/>
<path fill-rule="evenodd" clip-rule="evenodd" d="M36.0972 44.2655H16.2853C14.1536 44.2655 12.5235 42.6497 12.5235 40.5367V10.4576H38.4796C40.6113 10.4576 42.2414 12.0734 42.2414 14.1864V38.1751L36.0972 44.2655Z" stroke="#D52B1E" stroke-width="2.2" stroke-miterlimit="10" stroke-linecap="round" stroke-linejoin="round"/>
<path d="M32.3354 39.2937V35.9378C32.3354 35.1921 32.9624 34.4463 33.8401 34.4463H37.1003" stroke="#D52B1E" stroke-width="2.2" stroke-miterlimit="10" stroke-linecap="round" stroke-linejoin="round"/>
<path d="M17.5392 34.0734C17.5392 33.4519 18.0408 32.9548 18.7931 32.9548C19.4201 32.9548 19.9216 33.3277 20.047 33.9491V34.0734C20.047 35.4406 21.301 36.6836 22.8057 36.6836C24.3104 36.6836 25.5643 35.5649 25.5643 34.0734C25.5643 32.7062 24.4358 31.5875 22.9311 31.4632H22.6803C19.9216 31.4632 17.6646 29.5988 17.4138 27.113C17.163 24.7514 18.7931 22.5141 21.301 21.8926H21.5517V20.774C21.5517 20.1525 22.0533 19.6553 22.8057 19.6553C23.4326 19.6553 23.9342 20.0282 24.0596 20.6497V20.774V21.8926C26.3166 22.5141 27.9467 24.3785 27.9467 26.4915C27.9467 27.113 27.4452 27.6101 26.6928 27.6101C26.0658 27.6101 25.5643 27.2373 25.4389 26.7401V26.4915C25.4389 25.2486 24.3104 24.1299 22.9311 23.8813C22.8057 23.8813 22.6803 23.8813 22.5549 23.8813C21.0502 23.8813 19.7963 25.1243 19.7963 26.4915C19.7963 27.8587 20.9248 28.8531 22.4295 28.9774H22.6803C25.3135 28.9774 27.5706 30.7175 27.9467 33.2034C28.3229 35.5649 26.8182 37.6779 24.4358 38.4237L24.185 38.548V39.6666C24.185 40.2881 23.6834 40.7853 22.9311 40.7853C22.3041 40.7853 21.8025 40.4124 21.6771 39.7909V39.6666V38.6723C19.2947 38.2994 17.5392 36.3107 17.5392 34.0734Z" fill="#D52B1E"/>
</svg>
