<svg xmlns="http://www.w3.org/2000/svg" width="42" height="42" viewBox="0 0 42 42">
    <g fill="none" fill-rule="evenodd">
        <g>
            <g>
                <g>
                    <g>
                        <path fill="#E7E5E2" d="M16.104 34.135c.504.504 1.493.126 1.728-.662.345-1.165.141-2.366-.655-3.164-.206-.204-.437-.37-.69-.498.644-1.674.423-3.467-.734-4.624-.113-.11-.231-.213-.355-.309l1.298-1.296-5.914-5.915-1.638 1.638C8.05 18.223 6.38 18 4.802 18.59c-.112-.53-.359-1.012-.748-1.402-.798-.798-1.997-1.002-3.163-.656-.789.234-1.167 1.223-.663 1.727l15.876 15.876z" transform="translate(-819 -162) translate(808 162) translate(11) translate(1.91 5.727)"/>
                        <path fill="#AFAAA3" d="M15.753 25.188c-.115-.114-.235-.217-.36-.313l1.299-1.298-5.91-5.909-1.637 1.636 5.004 5.006c1.03 1.03 1.258 2.707.52 4.273l-.068.137-.085.164c-.172.311.001.64.33.615.584-.04 1.15.063 1.642.313.643-1.674.422-3.467-.735-4.624" transform="translate(-819 -162) translate(808 162) translate(11) translate(1.91 5.727)"/>
                        <path fill="#D6D1CA" d="M2.904 19.501c.08.08.22.076.326-.011.493-.394 1.027-.695 1.573-.9-.113-.528-.359-1.013-.748-1.4-.29-.291-.632-.501-1.006-.637.296.817.229 1.787-.178 2.692-.042.096-.029.195.033.256" transform="translate(-819 -162) translate(808 162) translate(11) translate(1.91 5.727)"/>
                        <path fill="#E70000" d="M14.977 6.684h-1.691c-2.205 0-4.319.874-5.878 2.434-.54.542-.54 1.418 0 1.959l3.934 3.934 6.745-6.747-.5-.5c-.693-.69-1.63-1.08-2.61-1.08" transform="translate(-819 -162) translate(808 162) translate(11) translate(1.91 5.727)"/>
                        <path fill="#C40808" d="M27.68 19.386v1.692c0 2.205-.874 4.318-2.434 5.878-.54.54-1.419.54-1.959 0l-3.935-3.935 6.747-6.744.5.5c.691.693 1.08 1.63 1.08 2.61" transform="translate(-819 -162) translate(808 162) translate(11) translate(1.91 5.727)"/>
                        <path fill="#E7E5E2" d="M30.065 14.99l-8.44 8.44-10.693-10.69 8.442-8.442C22.125 1.547 25.86 0 29.75 0h2.18c1.345 0 2.433 1.09 2.433 2.432v2.18c0 3.893-1.545 7.625-4.298 10.378" transform="translate(-819 -162) translate(808 162) translate(11) translate(1.91 5.727)"/>
                        <path fill="#D6D1CA" d="M34.363 4.612v-2.18c0-1.206-.88-2.209-2.033-2.398.021.128.035.262.035.4v2.18c0 3.89-1.547 7.624-4.3 10.375l-8.442 8.442 2.001 2 8.442-8.44c2.751-2.754 4.297-6.486 4.297-10.379" transform="translate(-819 -162) translate(808 162) translate(11) translate(1.91 5.727)"/>
                        <path fill="#FF3F3E" d="M31.93 0h-2.18c-2.36 0-4.662.569-6.724 1.63l9.706 9.706c1.062-2.062 1.63-4.362 1.63-6.724v-2.18C34.363 1.09 33.276 0 31.93 0" transform="translate(-819 -162) translate(808 162) translate(11) translate(1.91 5.727)"/>
                        <path fill="#FFC976" d="M26.26 16.044c-2.192 2.191-5.748 2.191-7.94 0-2.193-2.192-2.193-5.747 0-7.94 2.192-2.192 5.748-2.194 7.94 0 2.192 2.191 2.192 5.748 0 7.94" transform="translate(-819 -162) translate(808 162) translate(11) translate(1.91 5.727)"/>
                        <path fill="#FFAB1C" d="M26.26 8.103c-.345-.345-.725-.635-1.126-.872 1.264 2.151.973 4.965-.875 6.813-1.846 1.847-4.66 2.137-6.811.873.236.4.527.78.872 1.126 2.192 2.194 5.748 2.194 7.94 0 2.192-2.191 2.192-5.748 0-7.94" transform="translate(-819 -162) translate(808 162) translate(11) translate(1.91 5.727)"/>
                        <path fill="#B52175" d="M24.572 14.355c-1.26 1.26-3.303 1.26-4.565 0-1.26-1.26-1.26-3.302 0-4.564 1.262-1.26 3.305-1.26 4.565 0 1.26 1.262 1.26 3.304 0 4.564" transform="translate(-819 -162) translate(808 162) translate(11) translate(1.91 5.727)"/>
                        <path fill="#96003E" d="M24.572 9.792c-.216-.218-.456-.396-.712-.539.683 1.23.506 2.808-.539 3.853-1.042 1.044-2.623 1.222-3.85.538.141.254.32.495.536.712 1.262 1.26 3.305 1.26 4.565 0 1.26-1.262 1.26-3.304 0-4.564" transform="translate(-819 -162) translate(808 162) translate(11) translate(1.91 5.727)"/>
                        <path fill="#FF3F3E" d="M11.495 12.177l-2.29 2.29c-.663.663-.663 1.736 0 2.399l8.293 8.293c.662.662 1.735.662 2.397 0l2.291-2.291-10.69-10.691z" transform="translate(-819 -162) translate(808 162) translate(11) translate(1.91 5.727)"/>
                        <path fill="#E70000" d="M16.697 24.359l.8.8c.664.664 1.737.664 2.398 0l2.292-2.291-2-2-3.49 3.49zM34.363 4.612v-2.18c0-1.206-.88-2.209-2.033-2.398.021.128.035.262.035.4v2.18c0 2.36-.571 4.662-1.633 6.723l2.001 2c1.062-2.063 1.63-4.363 1.63-6.725" transform="translate(-819 -162) translate(808 162) translate(11) translate(1.91 5.727)"/>
                    </g>
                </g>
            </g>
        </g>
    </g>
</svg>
