<svg xmlns="http://www.w3.org/2000/svg" width="62" height="63" viewBox="0 0 62 63">
    <g fill="none" fill-rule="evenodd">
        <g>
            <g>
                <g>
                    <g>
                        <g>
                            <path fill="#E7E5E2" d="M34.522 13.95v7.99H29.59v-7.694c0-5.425-4.405-9.863-9.864-9.863h-.262c-5.326 0-9.601 4.309-9.601 9.568v7.99H4.93v-7.99C4.931 6.26 11.179.01 18.873.01h1.707c7.694 0 13.942 6.249 13.942 13.94" transform="translate(-809 -249) translate(581 200) translate(80 50) translate(148) translate(11.273 5.636)"/>
                            <path fill="#D6D1CA" d="M34.523 13.95v8.004H32.41v-8.003C32.41 6.34 26.266.113 18.685 0h1.888c7.694 0 13.95 6.256 13.95 13.95M18.488 4.453c-4.847.479-8.624 4.565-8.624 9.497v8.004H7.751V13.95c0-5.27 4.283-9.554 9.61-9.554h.253c.282 0 .592 0 .874.057" transform="translate(-809 -249) translate(581 200) translate(80 50) translate(148) translate(11.273 5.636)"/>
                            <path fill="#FFC976" d="M35.228 49.06h-31C1.892 49.06 0 47.167 0 44.831V23.696c0-2.334 1.89-4.227 4.227-4.227h31c2.333 0 4.227 1.893 4.227 4.227v21.136c0 2.336-1.894 4.227-4.227 4.227" transform="translate(-809 -249) translate(581 200) translate(80 50) translate(148) translate(11.273 5.636)"/>
                            <path fill="#FFAB1C" d="M19.728 45.058c-3.109 0-5.637-2.528-5.637-5.637V38.23c-1.77-1.575-2.818-3.866-2.818-6.304 0-4.661 3.794-8.455 8.455-8.455s8.454 3.794 8.454 8.455c0 2.438-1.048 4.729-2.818 6.304v1.192c0 3.109-2.528 5.637-5.636 5.637" transform="translate(-809 -249) translate(581 200) translate(80 50) translate(148) translate(11.273 5.636)"/>
                            <path fill="#5B5B5B" d="M25.363 31.927c0 2.086-1.127 3.918-2.818 4.873v2.624c0 1.55-1.269 2.818-2.819 2.818s-2.818-1.268-2.818-2.818V36.8c-1.69-.955-2.818-2.787-2.818-4.873 0-3.102 2.536-5.636 5.636-5.636s5.637 2.534 5.637 5.636" transform="translate(-809 -249) translate(581 200) translate(80 50) translate(148) translate(11.273 5.636)"/>
                            <path fill="#3E3D40" d="M25.364 31.93c0 2.085-1.127 3.917-2.818 4.875v2.621c0 1.55-1.268 2.819-2.818 2.819-.367 0-.705-.085-1.043-.226 1.015-.423 1.747-1.409 1.747-2.593v-2.62c1.691-.959 2.819-2.79 2.819-4.876 0-2.734-1.973-5.016-4.566-5.524.338-.084.676-.112 1.043-.112 3.1 0 5.636 2.536 5.636 5.636" transform="translate(-809 -249) translate(581 200) translate(80 50) translate(148) translate(11.273 5.636)"/>
                            <path fill="#FFAB1C" d="M39.455 23.701v21.137c0 2.339-1.888 4.227-4.227 4.227H31c2.339 0 4.227-1.888 4.227-4.227V23.7c0-2.339-1.888-4.227-4.227-4.227h4.227c2.339 0 4.227 1.888 4.227 4.227" transform="translate(-809 -249) translate(581 200) translate(80 50) translate(148) translate(11.273 5.636)"/>
                        </g>
                    </g>
                </g>
            </g>
        </g>
    </g>
</svg>
