<svg xmlns="http://www.w3.org/2000/svg" width="62" height="62" viewBox="0 0 62 62">
    <g fill="none" fill-rule="evenodd">
        <g>
            <g>
                <g>
                    <g>
                        <g>
                            <path fill="#FFC976" d="M50.727 25.363c0 14.009-11.355 25.363-25.364 25.363C11.357 50.726 0 39.372 0 25.363 0 11.353 11.357-.001 25.363-.001c14.01 0 25.364 11.355 25.364 25.364" transform="translate(-809 -267) translate(581 217) translate(54 50) translate(174) translate(5.636 5.636)"/>
                            <path fill="#FFAB1C" d="M25.363 0c-.668 0-1.333.027-1.99.075 13.08 1.018 23.374 11.952 23.374 25.288 0 13.338-10.294 24.27-23.374 25.287.657.051 1.322.076 1.99.076 14.01 0 25.364-11.354 25.364-25.363 0-14.01-11.355-25.364-25.364-25.364" transform="translate(-809 -267) translate(581 217) translate(54 50) translate(174) translate(5.636 5.636)"/>
                            <path fill="#FFAB1C" d="M43.278 25.363c0 9.894-8.02 17.915-17.915 17.915S7.451 35.258 7.451 25.363 15.468 7.45 25.363 7.45s17.915 8.018 17.915 17.913" transform="translate(-809 -267) translate(581 217) translate(54 50) translate(174) translate(5.636 5.636)"/>
                            <path fill="#FF9D00" d="M25.363 7.45c-.673 0-1.336.039-1.99.11 8.957.991 15.923 8.583 15.923 17.802 0 9.224-6.966 16.816-15.923 17.805.654.073 1.317.113 1.99.113 9.895 0 17.915-8.024 17.915-17.918 0-9.892-8.02-17.913-17.915-17.913" transform="translate(-809 -267) translate(581 217) translate(54 50) translate(174) translate(5.636 5.636)"/>
                            <path fill="#E7E5E2" d="M32.312 21.26c0 .763-.682 1.383-1.519 1.383-.775 0-1.412-.527-1.505-1.209l-.014-.174c0-1.734-1.544-3.14-3.446-3.14-1.906 0-3.447 1.406-3.447 3.14 0 1.648 1.392 2.998 3.165 3.13l.282.012c3.32 0 6.107 2.288 6.448 5.298.33 2.903-1.717 5.577-4.777 6.318l-.344.076v1.3c0 .763-.68 1.383-1.516 1.383-.775 0-1.415-.53-1.508-1.211l-.011-.172v-1.387c-2.821-.702-4.774-3.035-4.78-5.698 0-.764.682-1.384 1.522-1.384.744 0 1.364.493 1.494 1.136l.025.248c.003 1.595 1.313 2.936 3.052 3.12.175-.023.35-.017.521.016 1.877-.062 3.354-1.485 3.32-3.195-.034-1.627-1.42-2.943-3.167-3.072l-.28-.009c-3.249 0-5.997-2.192-6.425-5.123-.417-2.827 1.437-5.501 4.374-6.389l.344-.096v-1.344c0-.767.679-1.384 1.519-1.384.772 0 1.412.527 1.505 1.21l.01.174v1.257c3.002.578 5.153 2.993 5.158 5.786" transform="translate(-809 -267) translate(581 217) translate(54 50) translate(174) translate(5.636 5.636)"/>
                            <path fill="#FF9D00" d="M28.466 36.99l-.338.077v1.299c0 .752-.674 1.375-1.53 1.375-.7 0-1.297-.442-1.452-1.04.155.054.31.08.494.08.828 0 1.504-.624 1.504-1.376v-1.322l.361-.053c3.064-.75 5.112-3.424 4.774-6.33-.13-1.062-.544-2.023-1.192-2.855 1.192.961 1.97 2.286 2.153 3.816.336 2.906-1.713 5.577-4.774 6.33M28.777 19.66c-.544-.363-1.246-.569-1.973-.569-1.919 0-3.45 1.4-3.45 3.137 0 .572.156 1.119.469 1.558-.882-.544-1.452-1.48-1.452-2.516 0-1.74 1.556-3.14 3.45-3.14 1.27 0 2.361.623 2.956 1.53M33.292 22.228c0 .778-.702 1.375-1.53 1.375-.702 0-1.297-.44-1.454-1.037.157.054.312.076.493.076.831 0 1.505-.62 1.505-1.372 0-1.325-.468-2.542-1.297-3.528 1.4 1.09 2.283 2.697 2.283 4.486M28.803 28.715c-.493-.31-1.09-.521-1.71-.57h-.288c-2.128 0-4.021-.935-5.213-2.414 1.14.884 2.62 1.426 4.227 1.426l.284.028c1.145.076 2.128.673 2.7 1.53" transform="translate(-809 -267) translate(581 217) translate(54 50) translate(174) translate(5.636 5.636)"/>
                        </g>
                    </g>
                </g>
            </g>
        </g>
    </g>
</svg>
