<svg xmlns="http://www.w3.org/2000/svg" width="42" height="42" viewBox="0 0 42 42">
    <g fill="none" fill-rule="evenodd">
        <g>
            <g>
                <g>
                    <g>
                        <g>
                            <path fill="#FF9D00" d="M0 22.51V2.867C0 1.287 1.277.004 2.86.004L11.277 0c.79 0 1.537.326 2.08.903l2.02 2.152c.541.574 1.297.9 2.088.9h12.687c1.583 0 2.864 1.284 2.864 2.864V22.51c-1.119 1.117-1.745 1.745-2.864 2.864H2.864C1.28 25.374 0 24.09 0 22.51" transform="translate(-167 -78) translate(0 30) translate(15 48) translate(152) translate(3.818 5.727)"/>
                            <path fill="#E7E5E2" d="M1.91 13.024V8.738c0-1.58 1.282-2.863 2.863-2.863h23.47c1.583 0 2.864 1.283 2.864 2.863v4.286c0 1.58-1.281 2.864-2.864 2.864H4.773c-1.58 0-2.864-1.283-2.864-2.864" transform="translate(-167 -78) translate(0 30) translate(15 48) translate(152) translate(3.818 5.727)"/>
                            <path fill="#D6D1CA" d="M25.578 15.917c1.527 0 2.765-1.237 2.765-2.765V8.64c0-1.525-1.24-2.762-2.765-2.758 0-.002 1.314-.004 2.663-.006 1.581-.002 2.866 1.281 2.866 2.864v4.314c0 1.58-1.281 2.864-2.864 2.864h-2.665z" transform="translate(-167 -78) translate(0 30) translate(15 48) translate(152) translate(3.818 5.727)"/>
                            <path fill="#FFC976" d="M0 27.69c0-4.883.002-10.966.006-15.847 0-1.58 1.283-2.854 2.864-2.854H31.5c1.58 0 2.864 1.283 2.864 2.863v15.825c0 1.58-1.277 2.863-2.86 2.863-6.47.002-22.172.004-28.642.004C1.279 30.544 0 29.273 0 27.69" transform="translate(-167 -78) translate(0 30) translate(15 48) translate(152) translate(3.818 5.727)"/>
                            <path fill="#FFAB1C" d="M28.835 30.545c1.527 0 2.764-1.237 2.764-2.764V11.756c0-1.527-1.239-2.762-2.764-2.76 0-.002 1.314-.004 2.661-.004 1.583-.002 2.868 1.28 2.868 2.863v15.827c0 1.58-1.283 2.863-2.864 2.863h-2.665z" transform="translate(-167 -78) translate(0 30) translate(15 48) translate(152) translate(3.818 5.727)"/>
                        </g>
                    </g>
                </g>
            </g>
        </g>
    </g>
</svg>
