<svg xmlns="http://www.w3.org/2000/svg" width="22" height="22" viewBox="0 0 22 22">
    <g fill="none" fill-rule="evenodd">
        <g>
            <g>
                <g>
                    <path fill="#E7E5E2" d="M0 16.496V3.989c0-.831.671-1.504 1.5-1.504h15c.829 0 1.5.673 1.5 1.504v12.507c0 .83-.671 1.504-1.5 1.504h-15C.671 18 0 17.327 0 16.496" transform="translate(-636 -448) translate(636 448) translate(2 2)"/>
                    <path fill="#D6D1CA" d="M16.5 2.485h-15c-.829 0-1.5.673-1.5 1.504v3.594h16.552v8.913c0 .83-.672 1.504-1.5 1.504h-1.037H16.5c.829 0 1.5-.673 1.5-1.504V3.989c0-.831-.671-1.504-1.5-1.504" transform="translate(-636 -448) translate(636 448) translate(2 2)"/>
                    <path fill="#AFAAA3" d="M5.293 15.132v-.803c0-.552-.447-1-1-1H2.85c-.553 0-1 .448-1 1v.803c0 .552.447 1 1 1h1.443c.553 0 1-.448 1-1m0-4.61v-.803c0-.552-.447-1-1-1H2.85c-.553 0-1 .448-1 1v.803c0 .552.447 1 1 1h1.443c.553 0 1-.448 1-1m5.433 4.61v-.803c0-.552-.449-1-1-1H8.282c-.551 0-1 .448-1 1v.803c0 .552.449 1 1 1h1.444c.551 0 1-.448 1-1m0-4.61v-.803c0-.552-.449-1-1-1H8.282c-.551 0-1 .448-1 1v.803c0 .552.449 1 1 1h1.444c.551 0 1-.448 1-1m5.432 4.61v-.803c0-.552-.448-1-1-1h-1.442c-.552 0-1 .448-1 1v.803c0 .552.448 1 1 1h1.443c.551 0 1-.448 1-1m-1-3.61h-1.444c-.551 0-1-.448-1-1v-.803c0-.552.449-1 1-1h1.444c.551 0 1 .448 1 1v.803c0 .552-.448 1-1 1" transform="translate(-636 -448) translate(636 448) translate(2 2)"/>
                    <path fill="#FF3F3E" d="M18 6.832H0V3.99c0-.83.671-1.505 1.5-1.505h15c.829 0 1.5.674 1.5 1.505v2.843z" transform="translate(-636 -448) translate(636 448) translate(2 2)"/>
                    <path fill="#E70000" d="M14.727 2.485h.36c.83 0 1.5.673 1.5 1.504v2.844H18V3.989c0-.831-.67-1.504-1.5-1.504h-1.773zM7.101 2.485V4.46c0 .329-.128.626-.335.84-.207.217-.493.35-.809.35-.63 0-1.143-.533-1.143-1.19V2.485h2.287zM14.59 2.485V4.46c0 .329-.127.626-.333.84-.208.217-.494.35-.81.35-.631 0-1.144-.533-1.144-1.19V2.485h2.288z" transform="translate(-636 -448) translate(636 448) translate(2 2)"/>
                    <path fill="#FFC976" d="M6.399 3.778V1.191c0-.658-.512-1.19-1.144-1.19C4.624 0 4.11.532 4.11 1.19v2.587c0 .658.513 1.191 1.144 1.191.632 0 1.144-.533 1.144-1.19" transform="translate(-636 -448) translate(636 448) translate(2 2)"/>
                    <path fill="#FFAB1C" d="M5.255 0c-.157 0-.306.033-.44.092.411.18.701.604.701 1.099v2.587c0 .495-.29.92-.702 1.099.135.06.284.092.441.092.631 0 1.144-.533 1.144-1.19V1.19C6.4.534 5.886 0 5.255 0" transform="translate(-636 -448) translate(636 448) translate(2 2)"/>
                    <path fill="#FFC976" d="M13.889 3.778V1.191c0-.658-.512-1.19-1.144-1.19-.631 0-1.144.532-1.144 1.19v2.587c0 .658.513 1.191 1.144 1.191.632 0 1.144-.533 1.144-1.19" transform="translate(-636 -448) translate(636 448) translate(2 2)"/>
                    <path fill="#FFAB1C" d="M12.745 0c-.157 0-.306.033-.44.092.411.18.701.604.701 1.099v2.587c0 .495-.29.92-.702 1.099.135.06.284.092.441.092.631 0 1.144-.533 1.144-1.19V1.19C13.89.534 13.376 0 12.745 0" transform="translate(-636 -448) translate(636 448) translate(2 2)"/>
                </g>
            </g>
        </g>
    </g>
</svg>
