<svg xmlns="http://www.w3.org/2000/svg" width="22" height="22" viewBox="0 0 22 22">
    <g fill="none" fill-rule="evenodd">
        <g>
            <g>
                <g>
                    <path fill="#FCB79F" d="M1.219 9.33c-.01 0-.018 0-.026.002-.078.013-.141.055-.173.115-.03.056-.027.119.006.189.044.048.192.07.38.06.002-.025.005-.052.006-.08.006-.074-.003-.177-.071-.238-.034-.03-.08-.048-.122-.048m-.406 2.578c-.186 0-.365-.104-.451-.284-.12-.25-.014-.548.235-.667.143-.068.289-.154.416-.284-.374-.06-.711-.232-.89-.61-.168-.352-.163-.747.012-1.081.176-.336.51-.574.896-.636.35-.063.717.05.982.292.24.217.378.516.398.854.242-.048.493.084.577.324.09.26-.046.546-.307.637-.083.029-.25.084-.46.134-.217.57-.616.997-1.192 1.272-.07.034-.143.049-.216.049" transform="translate(-636 -490) translate(636 490) translate(2 2)"/>
                    <path fill="#FCB79F" d="M11.331 5.506h-4.02l-.16.03c-.59.11-1.13.28-1.62.52-1.92.89-3.09 2.6-3.09 4.66 0 1.79.88 3.269 2.53 4.269l.38 1.96c.06.34.36.59.71.59h.91c.33 0 .62-.22.71-.55l.25-.98c.8.08 1.79.06 2.53.01l.15.91c.06.35.36.61.72.61h.9c.33 0 .62-.23.7-.55l.44-1.76c1-.53 1.77-1.27 2.25-2.17.07-.13.17-.22.3-.28l1.1-.43c.28-.11.46-.38.46-.68v-1.36c0-.3-.18-.57-.46-.68l-.51-.2c-.34-.14-.59-.37-.71-.65-.21-.47-.49-.91-.83-1.29.04-.24.07-.51.08-.8.02-.55.01-1.03-.01-1.34-.01-.21-.12-.4-.28-.53-.17-.13-.38-.17-.59-.13-.3.06-.74.17-1.14.33-.39.15-.82.37-1.16.56l-.54-.07z" transform="translate(-636 -490) translate(636 490) translate(2 2)"/>
                    <path fill="#5B5B5B" d="M12.371 6.053c-.14.33-.46.56-.85.56h-5.14c-.05 0-.11 0-.16-.01-.31-.06-.57-.27-.69-.55.49-.24 1.03-.41 1.62-.52l.16-.03h4.02l.54.07c.17.07.31.18.41.33.04.05.069.1.09.15" transform="translate(-636 -490) translate(636 490) translate(2 2)"/>
                    <path fill="#E7E5E2" d="M10.753 9.999c0 .185-.165.335-.368.335-.188 0-.342-.128-.365-.293l-.002-.042c0-.421-.375-.761-.836-.761-.46 0-.835.34-.835.76 0 .4.338.728.767.759l.068.003c.804 0 1.48.554 1.562 1.283.08.703-.415 1.35-1.157 1.53l-.083.018v.315c0 .185-.165.335-.368.335-.187 0-.342-.128-.364-.293l-.003-.042v-.336c-.683-.17-1.156-.734-1.158-1.38 0-.184.165-.335.37-.335.18 0 .33.12.36.275l.006.06c.001.387.32.71.74.756.041-.006.084-.005.126.004.454-.015.812-.36.804-.774-.008-.394-.344-.713-.767-.744l-.068-.002c-.786 0-1.452-.531-1.556-1.241-.1-.684.348-1.332 1.06-1.547l.083-.024v-.325c0-.185.164-.335.367-.335.188 0 .343.128.365.293l.003.042v.305c.727.139 1.248.724 1.25 1.4" transform="translate(-636 -490) translate(636 490) translate(2 2)"/>
                    <path fill="#DDA292" d="M9.822 13.808l-.082.02v.313c0 .183-.163.333-.371.333-.17 0-.314-.106-.351-.25.037.012.075.018.119.018.2 0 .365-.15.365-.333v-.32l.088-.013c.74-.183 1.237-.83 1.155-1.534-.031-.257-.131-.49-.288-.69.288.231.477.553.52.923.083.704-.414 1.35-1.155 1.533M9.897 9.611c-.132-.088-.301-.138-.478-.138-.464 0-.835.339-.835.76 0 .139.038.271.113.377-.214-.132-.352-.358-.352-.609 0-.421.377-.76.836-.76.308 0 .57.15.716.37M10.99 10.233c0 .188-.169.333-.37.333-.17 0-.315-.106-.352-.25.037.012.075.018.12.018.2 0 .363-.15.363-.333 0-.32-.113-.616-.314-.855.34.264.553.653.553 1.087M9.903 11.804c-.119-.076-.264-.126-.415-.139H9.42c-.515 0-.974-.226-1.263-.584.277.214.635.346 1.024.346l.07.006c.276.018.515.163.653.371" transform="translate(-636 -490) translate(636 490) translate(2 2)"/>
                    <path fill="#DDA292" d="M17.48 10.924v.739c0 .3-.18.57-.46.68l-1.1.43c-.13.06-.23.15-.3.28-.48.9-1.25 1.64-2.25 2.17l-.44 1.76c-.08.32-.37.55-.7.55h-.9c-.36 0-.66-.26-.72-.61l-.15-.91c-.74.05-1.73.07-2.53-.01l-.25.98c-.09.33-.38.55-.71.55h-.91c-.35 0-.65-.25-.71-.59l-.38-1.96c-1.65-1-2.53-2.48-2.53-4.27 0-.13 0-.26.01-.38.11 1.63.98 2.98 2.52 3.91l.38 1.96c.06.34.36.59.71.59h.91c.33 0 .62-.22.71-.55l.25-.98c.8.08 1.79.06 2.53.01l.15.91c.06.35.36.61.72.61h.9c.33 0 .62-.23.7-.55l.44-1.76c1-.53 1.77-1.27 2.25-2.17.07-.13.17-.22.3-.28l1.1-.43c.28-.11.46-.38.46-.68M13.2 6.813c0 .51-.41.94-.93.94H7.13c-.3 0-.57-.15-.74-.38h5.13c.52 0 .93-.42.93-.94 0-.07-.01-.14-.02-.2l-.06-.18c-.02-.05-.05-.1-.09-.15l.34.04c.22.09.4.26.5.49.02.06.04.11.06.17.01.06.02.14.02.21M12.811 5.103c-.15.29-.33.54-.55.77-.1-.14-.23-.24-.39-.3.28-.16.62-.33.94-.47" transform="translate(-636 -490) translate(636 490) translate(2 2)"/>
                    <path fill="#3E3D40" d="M12.26 5.873c-.27.3-.59.55-.96.74h-.76c.49-.24.92-.6 1.24-1.05l.09.01c.16.06.29.16.39.3" transform="translate(-636 -490) translate(636 490) translate(2 2)"/>
                    <path fill="#FFC976" d="M12.45 3.5c0 1.934-1.566 3.5-3.5 3.5-1.932 0-3.5-1.566-3.5-3.5 0-1.933 1.568-3.5 3.5-3.5 1.934 0 3.5 1.567 3.5 3.5" transform="translate(-636 -490) translate(636 490) translate(2 2)"/>
                    <path fill="#FFAB1C" d="M11.423 3.5c0 1.365-1.107 2.473-2.472 2.473S6.479 4.865 6.479 3.5c0-1.365 1.107-2.472 2.472-2.472s2.472 1.107 2.472 2.472" transform="translate(-636 -490) translate(636 490) translate(2 2)"/>
                    <path fill="#FF9D00" d="M11.42 3.503c0 1.36-1.1 2.47-2.47 2.47-.13 0-.25-.01-.37-.03 1.19-.18 2.09-1.21 2.09-2.44 0-1.24-.9-2.27-2.09-2.45.12-.02.24-.03.37-.03 1.37 0 2.47 1.11 2.47 2.48" transform="translate(-636 -490) translate(636 490) translate(2 2)"/>
                    <path fill="#FFAB1C" d="M12.45 3.503c0 1.93-1.57 3.5-3.5 3.5-.12 0-.24-.01-.36-.02 1.75-.2 3.11-1.68 3.11-3.48 0-1.81-1.36-3.29-3.11-3.48.12-.01.24-.02.36-.02 1.93 0 3.5 1.56 3.5 3.5" transform="translate(-636 -490) translate(636 490) translate(2 2)"/>
                    <path fill="#FFCFBA" d="M12.45 6.433c0 .52-.41.94-.93.94H6.38c-.51 0-.93-.42-.93-.94 0-.14.03-.26.08-.38.12.28.38.49.69.55.05.01.11.01.16.01h5.14c.39 0 .71-.23.85-.56l.06.18c.01.06.02.13.02.2" transform="translate(-636 -490) translate(636 490) translate(2 2)"/>
                </g>
            </g>
        </g>
    </g>
</svg>
