<?xml version="1.0" encoding="UTF-8"?>
<svg width="42px" height="42px" viewBox="0 0 42 42" version="1.1" xmlns="http://www.w3.org/2000/svg" xmlns:xlink="http://www.w3.org/1999/xlink">
    <title>[00007] Banco de Galicia y BsAs</title>
    <defs>
        <polygon id="path-1" points="0 -4.33257836e-05 31.3384717 -4.33257836e-05 31.3384717 31.2715452 0 31.2715452"></polygon>
    </defs>
    <g id="[00007]-Banco-de-Galicia-y-BsAs" stroke="none" stroke-width="1" fill="none" fill-rule="evenodd">
        <g id="Group-3" transform="translate(5.000000, 5.000000)">
            <mask id="mask-2" fill="white">
                <use xlink:href="#path-1"></use>
            </mask>
            <g id="Clip-2"></g>
            <path d="M20.9051262,10.3564041 C20.6346042,10.5176001 20.3676732,10.5511161 20.0548572,10.4074761 C19.2149622,10.0220421 18.3076362,9.8935641 17.3979162,9.7978041 C17.0352252,9.7595001 16.6693422,9.7427421 16.3046562,9.7283781 C16.0361292,9.7180041 16.0205682,9.7279791 16.0385232,9.9749601 C16.1123382,11.0043801 16.2312402,12.0274161 16.5967242,13.0025721 C16.7591172,13.4354871 16.9813602,13.8372801 17.4102852,14.0663061 C17.5934262,14.1640611 17.5271922,14.3136861 17.5108332,14.4417651 C17.4298362,15.0885441 17.3364702,15.7337271 17.2474932,16.3793091 C17.0479932,17.8252851 16.8492912,19.2708621 16.6489932,20.7168381 C16.4271492,22.3176261 16.2037092,23.9176161 15.9818652,25.5184041 C15.8908932,26.1763551 15.8039112,26.8355031 15.7113432,27.4938531 C15.6925902,27.6299121 15.7209192,27.7839261 15.5812692,27.8964441 C15.2816202,25.7183031 14.9859612,23.5497381 14.6851152,21.3823701 C14.4110022,19.4073201 14.1313032,17.4326691 13.8547962,15.4580181 C13.8041232,15.0969231 13.7526522,14.7358281 13.7055702,14.3735361 C13.6912062,14.2622151 13.6529022,14.1492981 13.8013302,14.0730891 C14.2370382,13.8512451 14.4528972,13.4482551 14.6216742,13.0169361 C14.8698522,12.3817281 14.9999262,11.7165951 15.0837162,11.0426841 C15.1284042,10.6803921 15.1479552,10.3153071 15.1842642,9.9526161 C15.2006232,9.7878291 15.1475562,9.7140141 14.9704002,9.7227921 C13.6377402,9.7894251 12.3122622,9.8947611 11.0721702,10.4497701 C10.9017972,10.5263781 10.7441922,10.5199941 10.5794052,10.4721141 C10.0742712,10.3260801 9.7391112,9.8660331 9.73950984,9.3277821 C9.7399092,8.7895311 10.0754682,8.3310801 10.5806022,8.1846471 C10.7461872,8.1363681 10.9057872,8.1275901 11.0737662,8.2057941 C11.9376012,8.6099811 12.8656752,8.7540201 13.8021282,8.8509771 C14.2039212,8.8920741 14.6089062,8.9028471 15.0118962,8.9311761 C15.1571322,8.9407521 15.2273562,8.8948671 15.2193762,8.7352671 C15.1555362,7.4692401 15.0589782,6.2080011 14.5793802,5.0145921 C14.3232222,4.3757931 14.5833702,3.7693131 15.2281542,3.5522571 C15.8877012,3.3304131 16.5795672,3.7026801 16.7670972,4.3757931 C16.8105882,4.5333981 16.8065982,4.6754421 16.7343792,4.8286581 C16.3525362,5.6426181 16.2088962,6.5172261 16.1087472,7.3998141 C16.0588722,7.8399111 16.0197702,8.2820031 16.0177752,8.7264891 C16.0169772,8.8737201 16.0596702,8.9391561 16.2168762,8.9327721 C17.5503342,8.8753161 18.8758122,8.7691821 20.1182982,8.2233501 C20.3293692,8.1311811 20.5184952,8.1327771 20.7203892,8.2113801 C21.1764462,8.3893341 21.4429782,8.7276861 21.4932522,9.2068851 C21.5455212,9.7048371 21.3380412,10.0978521 20.9051262,10.3564041 M30.9942402,12.4244211 C30.3765882,9.2739171 28.8444282,6.5898441 26.5218492,4.3797831 C23.5588752,1.5612471 20.0125632,0.0693861 15.9228132,0.0274911 C10.7433942,-0.0255759 5.5631772,0.0143241 0.3833592,0.0147231 C0.0027132,0.0147231 0.0027132,0.0163191 0.0007182,0.3985611 C0.0003192,0.4380621 0.0007182,0.4767651 0.0007182,0.5162661 L0.0007182,15.6248001 C0.0007182,20.7000801 0.0003192,25.7757591 0.0007182,30.8506401 C0.0007182,31.2959241 -0.0403788,31.2711861 0.4252542,31.2711861 C5.5659702,31.2711861 10.7062872,31.2711861 15.8470032,31.2715851 C16.4873982,31.2715851 17.1250002,31.2308871 17.7586122,31.1411121 C21.4449732,30.6164271 24.6098412,29.0395791 27.1243392,26.2936611 C30.7444662,22.3403691 32.0244582,17.6812461 30.9942402,12.4244211" id="Fill-1" fill="#BF2034" mask="url(#mask-2)"></path>
        </g>
    </g>
</svg>