<?xml version="1.0" encoding="UTF-8"?>
<svg width="42px" height="42px" viewBox="0 0 42 42" version="1.1" xmlns="http://www.w3.org/2000/svg" xmlns:xlink="http://www.w3.org/1999/xlink">
    <title>[00014] Banco de La Provincia de BsAs</title>
    <defs>
        <polygon id="path-1" points="2.14422282e-05 0.1995 27.6447788 0.1995 27.6447788 32.7599287 2.14422282e-05 32.7599287"></polygon>
    </defs>
    <g id="[00014]-Banco-de-La-Provincia-de-BsAs" stroke="none" stroke-width="1" fill="none" fill-rule="evenodd">
        <g id="Group-6" transform="translate(7.000000, 4.000000)">
            <g id="Group-3" transform="translate(0.000000, 0.220668)">
                <mask id="mask-2" fill="white">
                    <use xlink:href="#path-1"></use>
                </mask>
                <g id="Clip-2"></g>
                <path d="M0.001638,11.483346 C0.001638,8.024226 0.001638,5.177046 0.001218,2.330286 C0.001218,1.937166 0.046158,1.552446 0.222138,1.195026 C0.360318,0.914466 0.563178,0.689346 0.828198,0.520506 C1.222158,0.269766 1.661898,0.200466 2.117178,0.200466 C6.400338,0.199409787 10.683918,0.200046 14.966658,0.200046 C15.014538,0.200046 15.061998,0.198366 15.110298,0.200466 C15.180018,0.204246 15.259818,0.205506 15.290058,0.278586 C15.322818,0.357126 15.285018,0.432306 15.229998,0.491946 C14.747838,1.011486 14.263578,1.529346 13.782678,2.050566 C13.466418,2.392866 13.154358,2.740206 12.838938,3.083766 C12.486558,3.468486 12.037158,3.612966 11.527278,3.611706 C10.498698,3.609606 9.470538,3.610446 8.441958,3.612126 C8.281518,3.612546 8.125698,3.623466 8.007678,3.765426 C7.937538,3.849426 7.924938,3.942666 7.911498,4.040106 C7.905618,4.082946 7.910658,4.127046 7.910658,4.170306 C7.910658,8.965866 7.906038,13.761426 7.916118,18.556986 C7.917378,19.162626 7.902678,19.771626 7.961898,20.376006 C8.002218,20.788446 8.069418,21.197946 8.187438,21.599046 C8.276478,21.901866 8.375178,22.199646 8.499498,22.488186 C8.629278,22.788906 8.787198,23.075766 8.973258,23.345406 C9.157218,23.611266 9.356718,23.864106 9.587298,24.092166 C9.771258,24.274026 9.964038,24.445386 10.172778,24.599106 C10.419318,24.779286 10.675098,24.946866 10.949778,25.079166 C11.178678,25.189206 11.409678,25.299666 11.649918,25.379466 C12.038418,25.508826 12.433638,25.620546 12.838938,25.685646 C13.495398,25.791486 14.156898,25.831386 14.821338,25.802826 C15.110298,25.789806 15.275358,25.607106 15.275358,25.309746 C15.275778,23.465526 15.275358,21.621306 15.275778,19.776666 C15.275778,19.517526 15.442518,19.305426 15.664278,19.293666 C15.811278,19.285266 15.960378,19.284006 16.106538,19.298706 C16.816338,19.370526 17.525718,19.351626 18.236778,19.304586 C18.782358,19.268466 19.319538,19.187406 19.855458,19.089126 C20.314518,19.005126 20.766018,18.888786 21.209118,18.744726 C21.535878,18.638466 21.858438,18.517086 22.176798,18.384366 C22.590498,18.211746 22.988658,18.010146 23.373798,17.784186 C23.830758,17.516226 24.260838,17.210466 24.668658,16.869426 C24.987018,16.603566 25.281438,16.316706 25.565778,16.018506 C25.766538,15.808086 25.941678,15.573306 26.123538,15.346086 C26.363778,15.046626 26.571258,14.723646 26.764038,14.393946 C26.988738,14.009226 27.199578,13.614426 27.362538,13.197366 C27.393618,13.117566 27.440658,13.043646 27.478458,12.965946 C27.497778,12.925626 27.525498,12.906726 27.570858,12.912186 C27.621258,12.918906 27.629238,12.960906 27.638478,12.997026 C27.646038,13.029786 27.643938,13.065906 27.643938,13.100346 C27.644358,18.867786 27.643518,24.635226 27.6447788,30.403086 C27.645198,30.931026 27.489798,31.410666 27.181518,31.831086 C26.923218,32.183046 26.572518,32.421186 26.157138,32.576166 C25.758138,32.725266 25.349058,32.758026 24.932838,32.758446 C20.897058,32.7599287 16.861698,32.761386 12.825498,32.757606 C11.924178,32.756766 11.025378,32.717706 10.130358,32.580366 C9.565458,32.494266 9.005598,32.392206 8.452458,32.255706 C7.904358,32.120886 7.369278,31.938186 6.846798,31.724826 C6.328518,31.513146 5.831238,31.260306 5.349918,30.972186 C4.905558,30.706326 4.485978,30.408126 4.087818,30.079686 C3.811458,29.851626 3.556518,29.598366 3.301998,29.344266 C3.049998,29.092686 2.810178,28.834386 2.595978,28.550466 C2.373378,28.255626 2.157918,27.957006 1.967238,27.639906 C1.803018,27.366486 1.642578,27.092226 1.499358,26.807466 C1.320438,26.450466 1.162518,26.083806 1.015098,25.711686 C0.894558,25.406346 0.788298,25.096806 0.696318,24.782226 C0.562338,24.322746 0.444738,23.859486 0.346878,23.390346 C0.246498,22.906506 0.173418,22.418886 0.120498,21.929586 C0.056238,21.335286 0.017598,20.738046 0.012558,20.139546 C-0.013902,17.050446 0.011298,13.960506 0.001638,11.483346" id="Fill-1" fill="#9DB73B" mask="url(#mask-2)"></path>
            </g>
            <path d="M15.323448,10.28076 C15.323448,9.3996 15.328488,8.51928 15.321348,7.63812 C15.317988,7.21602 15.665748,6.8292 16.111788,6.84096 C16.623348,6.8544 17.134908,6.82794 17.646468,6.85566 C18.022368,6.8754 18.374748,6.97494 18.718728,7.1232 C19.216008,7.33824 19.643148,7.64442 19.983768,8.06316 C20.671308,8.90778 20.929608,9.86454 20.730528,10.94436 C20.650728,11.37948 20.493648,11.78184 20.260128,12.14892 C20.010228,12.5412 19.691868,12.87678 19.301268,13.1418 C18.992148,13.35096 18.664968,13.51644 18.307968,13.61766 C18.012708,13.70208 17.709468,13.75458 17.399928,13.75668 C16.983708,13.75962 16.567488,13.7571 16.150848,13.75752 C15.692628,13.75794 15.313368,13.4001 15.319668,12.92298 C15.332268,12.04224 15.323448,11.1615 15.323448,10.28076" id="Fill-4" fill="#9DB73B"></path>
        </g>
    </g>
</svg>