<?xml version="1.0" encoding="UTF-8"?>
<svg width="42px" height="42px" viewBox="0 0 42 42" version="1.1" xmlns="http://www.w3.org/2000/svg" xmlns:xlink="http://www.w3.org/1999/xlink">
    <title>[00017] BBVA</title>
    <defs>
        <polygon id="path-1" points="0.05577 0.0470115812 4.67922 0.0470115812 4.67922 0.195 0.05577 0.195"></polygon>
        <polygon id="path-3" points="0.129672214 0.046951125 4.7166015 0.046951125 4.7166015 0.195 0.129672214 0.195"></polygon>
        <polygon id="path-5" points="0.000522563067 0.02262 9.6608675 0.02262 9.6608675 9.00566345 0.000522563067 9.00566345"></polygon>
    </defs>
    <g id="[00017]-BBVA" stroke="none" stroke-width="1" fill="none" fill-rule="evenodd">
        <g id="Group-16" transform="translate(4.000000, 15.000000)">
            <g id="Group-3" transform="translate(9.165000, 10.312458)">
                <mask id="mask-2" fill="white">
                    <use xlink:href="#path-1"></use>
                </mask>
                <g id="Clip-2"></g>
                <path d="M0.05616,0.1949805 C0.05733,0.1825005 0.05733,0.1698255 0.05577,0.1575405 C0.127725,0.0857805 0.221325,0.0955305 0.30966,0.0953355 C1.68207,0.0935805 3.05448,0.0935805 4.427085,0.0955305 C4.51503,0.0955305 4.609215,0.0853905 4.67922,0.1604655 C4.67844,0.1721655 4.677855,0.1834755 4.67766,0.1949805 L0.05616,0.1949805 Z" id="Fill-1" fill="#BCBDD2" mask="url(#mask-2)"></path>
            </g>
            <g id="Group-6" transform="translate(0.000000, 10.312458)">
                <mask id="mask-4" fill="white">
                    <use xlink:href="#path-3"></use>
                </mask>
                <g id="Clip-5"></g>
                <path d="M0.1317615,0.1949805 C0.1298115,0.1840605 0.1292265,0.1731405 0.1300065,0.1620255 C0.1988415,0.0853905 0.2926365,0.0957255 0.3803865,0.0955305 C1.7422665,0.0933855 3.1037565,0.0933855 4.4656365,0.0955305 C4.5533865,0.0955305 4.6469865,0.0855855 4.7166015,0.1610505 C4.7162115,0.1725555 4.7156265,0.1836705 4.7150415,0.1949805 L0.1317615,0.1949805 Z" id="Fill-4" fill="#BBBCD1" mask="url(#mask-4)"></path>
            </g>
            <path d="M17.705961,1.492491 C17.891991,1.492491 18.078996,1.504191 18.263856,1.489176 C18.451056,1.474161 18.552066,1.546311 18.638841,1.712061 C19.568211,3.486561 20.504991,5.256771 21.439821,7.028151 C21.455031,7.056426 21.470241,7.084701 21.484671,7.112976 C21.528936,7.198971 21.568131,7.290036 21.689811,7.285746 C21.800181,7.281651 21.836061,7.197021 21.877986,7.117266 C22.092291,6.709521 22.307181,6.301776 22.522071,5.894226 C23.256636,4.501926 23.993736,3.110991 24.722256,1.715571 C24.807861,1.551771 24.905556,1.481181 25.094901,1.488396 C25.485681,1.502631 25.877436,1.491711 26.268801,1.492881 C26.531856,1.493466 26.570466,1.558401 26.446251,1.790061 C25.136631,4.232046 23.827011,6.673836 22.517196,9.115821 C22.311471,9.499386 22.105941,9.882756 21.899436,10.265931 C21.848931,10.359726 21.816366,10.476726 21.675966,10.472631 C21.548046,10.468731 21.514896,10.360896 21.467316,10.272171 C20.154576,7.824921 18.842031,5.377086 17.529486,2.929446 C17.323761,2.545881 17.117256,2.162901 16.912701,1.778946 C16.798041,1.563861 16.841721,1.494246 17.089956,1.492686 C17.295291,1.491711 17.500626,1.492491 17.705961,1.492491" id="Fill-7" fill="#194680"></path>
            <g id="Group-11" transform="translate(24.765000, 0.172458)">
                <mask id="mask-6" fill="white">
                    <use xlink:href="#path-5"></use>
                </mask>
                <g id="Clip-10"></g>
                <path d="M8.7936615,9.0004395 C8.6076315,9.0004395 8.4204315,8.9885445 8.2355715,9.0037545 C8.0542215,9.0187695 7.9592565,8.9450595 7.8767715,8.7878895 C6.9435015,7.0077345 6.0034065,5.2312845 5.0654565,3.4536645 C5.0475165,3.4197345 5.0286015,3.3859995 5.0122215,3.3512895 C4.9749765,3.2713395 4.9227165,3.2058195 4.8265815,3.2081595 C4.7306415,3.2103045 4.6824765,3.2803095 4.6450365,3.3586995 C4.6286565,3.3934095 4.6099365,3.4269495 4.5919965,3.4610745 C3.6571665,5.2332345 2.7203865,7.0044195 1.7910165,8.7791145 C1.7052165,8.9429145 1.6061565,9.0113595 1.4183715,9.0045345 C1.0272015,8.9906895 0.6352515,9.0010245 0.2436915,9.0000495 C-0.0148785,8.9994645 -0.0558285,8.9310195 0.0670215,8.7018945 C1.1229465,6.7327845 2.1792615,4.7642595 3.2355765,2.7957345 C3.6987015,1.9326645 4.1622165,1.0697895 4.6249515,0.2065245 C4.6705815,0.1213095 4.7076315,0.0263445 4.8244365,0.0226395 C4.9527465,0.0187395 4.9915515,0.1224795 5.0399115,0.2125695 C6.5589615,3.0443595 8.0782065,5.8763445 9.5968665,8.7083295 C9.7154265,8.9292645 9.6746715,8.9984895 9.4291665,9.0000495 C9.2173965,9.0014145 9.0054315,9.0004395 8.7936615,9.0004395" id="Fill-9" fill="#194680" mask="url(#mask-6)"></path>
            </g>
            <path d="M15.081066,8.6061885 C14.901666,8.8813335 14.626716,9.0102285 14.319396,9.0833535 C14.037036,9.1504335 13.749606,9.1675935 13.460421,9.1675935 C12.601446,9.1675935 11.742666,9.1679835 10.883691,9.1673985 C10.635456,9.1672035 10.603281,9.1356135 10.603281,8.8942035 C10.602696,8.1783585 10.602891,7.4625135 10.603086,6.7468635 C10.603086,6.4765935 10.632336,6.4465635 10.897146,6.4461735 C11.396931,6.4455885 11.897106,6.4459785 12.489516,6.4459785 C12.998271,6.4645035 13.602966,6.3997635 14.200446,6.5105235 C15.173301,6.6908985 15.626286,7.7702235 15.081066,8.6061885 M10.6009197,3.0408885 C10.599381,2.8550535 10.683621,2.7934335 10.858536,2.7942062 C11.731161,2.7977235 12.603981,2.7930435 13.476606,2.7981135 C13.747266,2.7996735 14.014416,2.8408185 14.263041,2.9576235 C14.699451,3.1633485 14.864226,3.5270235 14.859936,3.9872235 C14.855841,4.4419635 14.681316,4.7937435 14.249781,4.9887435 C13.999596,5.1016485 13.733811,5.1381135 13.461786,5.1386985 C13.051116,5.1392835 12.640446,5.1388935 12.229776,5.1388935 C11.767821,5.1388935 11.305671,5.1351885 10.843716,5.1408435 C10.672116,5.1427935 10.599966,5.0761035 10.601136,4.9027485 C10.606011,4.2820635 10.606596,3.6615735 10.6009197,3.0408885 M16.755726,7.5132135 C16.686306,6.6700335 16.270761,6.0444735 15.486861,5.6829435 C15.461121,5.6710485 15.421341,5.6716335 15.418611,5.6261985 C15.528006,5.5405935 15.645396,5.4627885 15.746406,5.3676285 C16.553511,4.6082985 16.568136,3.1342935 15.779361,2.3002785 C15.248571,1.7388735 14.572506,1.5052635 13.822341,1.4974635 C12.333321,1.4816685 10.843911,1.4937585 9.354891,1.4910285 C9.175101,1.4906385 9.101391,1.5629835 9.10158561,1.7431635 C9.103926,4.5716385 9.103536,7.3999185 9.101976,10.2283935 C9.101976,10.3327185 9.121476,10.4185185 9.220731,10.4699985 C10.096866,10.4696085 10.973391,10.4686335 11.849526,10.4690235 C12.514476,10.4694135 13.179231,10.4715585 13.844181,10.4729235 C14.003886,10.4577135 14.164176,10.4477685 14.322711,10.4261235 C15.011061,10.3323285 15.656121,10.1328435 16.144401,9.6061485 C16.694301,9.0131535 16.818906,8.2813185 16.755726,7.5132135" id="Fill-12" fill="#194680"></path>
            <path d="M6.042699,8.4871605 C5.900739,8.7862905 5.652309,8.9532105 5.346549,9.0470055 C5.018169,9.1480155 4.679259,9.1671255 4.338594,9.1675155 C3.966729,9.1679055 3.594669,9.1675155 3.222999,9.1675155 C2.735694,9.1675155 2.248389,9.1682955 1.761279,9.1673205 C1.537029,9.1667355 1.491984,9.1234455 1.491399,8.8962705 C1.489644,8.1675555 1.491594,7.4390355 1.4900313,6.7103205 C1.489644,6.5556855 1.531374,6.4439505 1.713699,6.4462905 C2.745444,6.4595505 3.777774,6.4168455 4.809129,6.4710555 C4.885569,6.4751505 4.962204,6.4864605 5.037669,6.5003055 C6.028074,6.6800955 6.477354,7.5702705 6.042699,8.4871605 M1.497444,3.0505605 C1.498224,2.8417155 1.546974,2.7962805 1.764009,2.7960855 C2.623959,2.7953055 3.483909,2.7943305 4.343664,2.7968655 C4.588584,2.7976455 4.830384,2.8309905 5.061654,2.9169855 C5.523804,3.0883905 5.758779,3.4483605 5.75703376,3.9775905 C5.755269,4.5052605 5.516394,4.8601605 5.048199,5.0286405 C4.822194,5.1097605 4.587804,5.1390105 4.348539,5.1388155 C3.937869,5.1386205 3.527199,5.1388155 3.116529,5.1388155 C2.660814,5.1388155 2.205099,5.1343305 1.749579,5.1411555 C1.568814,5.1438855 1.493739,5.0744655 1.49527521,4.8931155 C1.499784,4.2790605 1.495689,3.6650055 1.497444,3.0505605 M6.337149,5.6643405 C6.323889,5.6584905 6.316479,5.6393805 6.309264,5.6300205 C6.425289,5.5389555 6.543069,5.4603705 6.644664,5.3642355 C7.540104,4.5177405 7.443189,2.8931955 6.450639,2.0888205 C5.923749,1.6621605 5.306184,1.4966055 4.641234,1.4942655 C3.204084,1.4888055 1.767129,1.4925105 0.330174,1.4925105 C0.025584,1.4927055 0.000624,1.5168855 0.000429,1.8183555 C0.000234,3.7051755 0.000234,5.5916055 0.000429,7.4784255 C0.000429,8.3803005 0.000624,9.2819805 0.000234,10.1836605 C0.000109919965,10.3008555 -0.007371,10.4192205 0.130104,10.4744055 C0.980889,10.4726505 1.831674,10.4695305 2.682654,10.4691405 C3.360669,10.4687505 4.038684,10.4720655 4.716504,10.4736255 C5.204784,10.4432055 5.686824,10.3792455 6.145659,10.1978955 C6.902844,9.8991555 7.391514,9.3656355 7.580079,8.5680855 C7.637604,8.3239455 7.664904,8.0761005 7.664904,7.8265005 C7.664904,6.8372655 7.277439,6.0816405 6.337149,5.6643405" id="Fill-14" fill="#194680"></path>
        </g>
    </g>
</svg>