<?xml version="1.0" encoding="UTF-8"?>
<svg width="42px" height="42px" viewBox="0 0 42 42" version="1.1" xmlns="http://www.w3.org/2000/svg" xmlns:xlink="http://www.w3.org/1999/xlink">
    <title>[00015] ICBC</title>
    <defs>
        <polygon id="path-1" points="0.000198 0.080388 32.787414 0.080388 32.787414 32.8678416 0.000198 32.8678416"></polygon>
    </defs>
    <g id="[00015]-ICBC" stroke="none" stroke-width="1" fill="none" fill-rule="evenodd">
        <g id="Group-8" transform="translate(5.000000, 4.000000)">
            <g id="Group-3" transform="translate(0.000000, 0.315572)">
                <mask id="mask-2" fill="white">
                    <use xlink:href="#path-1"></use>
                </mask>
                <g id="Clip-2"></g>
                <path d="M16.393806,30.3476976 C8.749422,30.3476976 2.552418,24.1506936 2.552418,16.5063096 C2.552418,8.8619256 8.749422,2.6649216 16.393806,2.6649216 C24.03819,2.6649216 30.235194,8.8619256 30.235194,16.5063096 C30.235194,24.1506936 24.03819,30.3476976 16.393806,30.3476976 M16.393806,0.0802296 C7.339662,0.0802296 0.000198,7.4204856 0.000198,16.4742336 C0.000198,25.5283776 7.339662,32.8678416 16.393806,32.8678416 C25.447554,32.8678416 32.787414,25.5283776 32.787414,16.4742336 C32.787414,7.4204856 25.447554,0.0802296 16.393806,0.0802296" id="Fill-1" fill="#C42436" mask="url(#mask-2)"></path>
            </g>
            <polygon id="Fill-4" fill="#C42436" points="7.5209112 7.9350084 15.6899952 7.9350084 15.6899952 10.5082164 10.1353032 10.5082164 10.1353032 13.0410324 15.1185672 13.0410324 15.1185672 20.5975044 10.0941192 20.5975044 10.0941192 23.0891364 15.6899952 23.0891364 15.6899952 25.5807684 7.5209112 25.5807684 7.5209112 18.0242964 12.5857512 18.0242964 12.5857512 15.4506924 7.5209112 15.4506924"></polygon>
            <polygon id="Fill-6" fill="#C42436" points="25.2666612 7.9992 17.0975772 7.9992 17.0975772 10.572408 22.6522692 10.572408 22.6522692 13.104828 17.6690052 13.104828 17.6690052 20.6613 22.6934532 20.6613 22.6934532 23.152932 17.0975772 23.152932 17.0975772 25.644564 25.2666612 25.644564 25.2666612 18.088092 20.2018212 18.088092 20.2018212 15.514884 25.2666612 15.514884"></polygon>
        </g>
    </g>
</svg>