<?xml version="1.0" encoding="UTF-8"?>
<svg width="42px" height="42px" viewBox="0 0 42 42" version="1.1" xmlns="http://www.w3.org/2000/svg" xmlns:xlink="http://www.w3.org/1999/xlink">
    <title>[00016] CitiBank</title>
    <defs>
        <polygon id="path-1" points="0 0.00840013372 12.0013643 0.00840013372 12.0013643 14.1119018 0 14.1119018"></polygon>
    </defs>
    <g id="[00016]-CitiBank" stroke="none" stroke-width="1" fill="none" fill-rule="evenodd">
        <g id="Group-12" transform="translate(4.000000, 9.000000)">
            <g id="Group-3" transform="translate(0.000000, 7.967400)">
                <mask id="mask-2" fill="white">
                    <use xlink:href="#path-1"></use>
                </mask>
                <g id="Clip-2"></g>
                <path d="M10.443321,9.8502936 C10.954881,10.4676936 11.464089,11.0824476 11.974767,11.6960256 C12.014163,11.7433596 12.007695,11.7695256 11.969181,11.8153896 C10.938417,13.0369596 9.668631,13.8636876 8.059863,14.0500836 C5.976285,14.2911636 4.058229,13.8378156 2.403009,12.5015856 C1.300215,11.6113536 0.593439,10.4538756 0.258867,9.0811896 C-0.151557,7.3968636 -0.091287,5.7301776 0.563745,4.1122956 C1.153509,2.6555256 2.171925,1.5753696 3.564309,0.8512476 C4.824099,0.1950396 6.174147,-0.0551544 7.583289,0.0218736 C9.298485,0.1159536 10.695279,0.8653596 11.824827,2.1404376 C12.020631,2.3618196 12.023865,2.3635836 11.837763,2.5896696 C11.400879,3.1206336 10.958703,3.6480696 10.523877,4.1816796 C10.452141,4.2698796 10.417155,4.2625296 10.342185,4.1863836 C9.731253,3.5686896 9.033003,3.0853536 8.188635,2.8416276 C6.108585,2.2409856 3.627813,3.2832156 2.990127,5.8019136 C2.687013,6.9996696 2.774331,8.1730236 3.362331,9.2734656 C4.033533,10.5303156 5.105751,11.2265076 6.513717,11.4058476 C7.829955,11.5737216 8.955681,11.1359556 9.949401,10.2992316 C10.118157,10.1575236 10.276035,10.0031736 10.443321,9.8502936" id="Fill-1" fill="#1C3E6E" mask="url(#mask-2)"></path>
            </g>
            <path d="M27.5111088,18.7636974 C27.4346688,19.0694574 27.3708708,19.3296474 27.3050148,19.5892494 C27.1624248,20.1469674 27.0174828,20.7043914 26.8775388,21.2624034 C26.8534308,21.3576594 26.8043328,21.4129314 26.7167208,21.4629114 C25.8432468,21.9588894 24.9003888,22.1273514 23.9181348,21.9912294 C22.7256708,21.8254134 21.9353988,21.1251054 21.5058648,20.0131974 C21.3132948,19.5148674 21.2418528,18.9924294 21.2421468,18.4585254 C21.2439108,15.9536454 21.2415588,13.4487654 21.2465568,10.9438854 C21.2468508,10.8004134 21.2080428,10.7736594 21.0728028,10.7751294 C20.3883708,10.7827734 19.7039388,10.7763054 19.0195068,10.7813034 C18.9063168,10.7821854 18.8722128,10.7536674 18.8730782,10.6369494 C18.8786808,9.8713734 18.8786808,9.1052094 18.8730782,8.3393394 C18.8722128,8.2264434 18.9066108,8.2058634 19.0112748,8.2064514 C19.7007048,8.2108614 20.3895468,8.2058634 21.0789768,8.2114494 C21.2042208,8.2126254 21.2477328,8.1896934 21.2465568,8.0512194 C21.2389128,7.2180234 21.2442048,6.3848274 21.2409708,5.5513374 C21.2406768,5.4640194 21.2644908,5.4149214 21.3453408,5.3717034 C22.1685408,4.9357014 22.9888008,4.4944074 23.8102368,4.0548774 C23.9810508,3.9634434 23.9813448,3.9640314 23.9813448,4.1651274 C23.9813448,5.4607854 23.9831088,6.7564434 23.9784048,8.0523954 C23.9781108,8.1738174 24.0004548,8.2135074 24.1330488,8.2123314 C24.9859428,8.2052754 25.8391308,8.2108614 26.6923188,8.2061574 C26.8016868,8.2055694 26.8269708,8.2340874 26.8263828,8.3413974 C26.8210908,9.1069734 26.8207968,9.8731374 26.8263828,10.6390074 C26.8272648,10.7551374 26.7943368,10.7818914 26.6820288,10.7813034 C25.8285468,10.7765994 24.9756528,10.7807154 24.1227588,10.7763054 C24.0122148,10.7757174 23.9784048,10.8004134 23.9784048,10.9168374 C23.9822268,13.2576654 23.9813448,15.5987874 23.9813448,17.9399094 C23.9813448,18.1518834 23.9848728,18.3641514 24.0289728,18.5723034 C24.1612728,19.1944074 24.5043708,19.4898774 25.1497008,19.5339774 C25.6562628,19.5686694 26.1313668,19.4363694 26.5941228,19.2467394 C26.9004708,19.1212014 27.1865328,18.9545034 27.5111088,18.7636974" id="Fill-4" fill="#1C3E6E"></path>
            <path d="M34.2518526,5.9617908 L34.1051466,5.9617908 C33.1264206,5.9617908 32.1479886,5.9609088 31.1692626,5.9635577 C31.0810626,5.9638488 31.0175586,5.9417988 30.9543486,5.8771188 C29.9382846,4.8390048 28.7711046,4.0140408 27.4445766,3.4198668 C26.4970146,2.9953308 25.5082926,2.7122088 24.4778226,2.5728528 C23.4161886,2.4290868 22.3554366,2.4382008 21.2988006,2.6060748 C20.0154906,2.8101108 18.8074446,3.2367048 17.6731926,3.8732148 C16.6974066,4.4209368 15.8233446,5.0994888 15.0430686,5.9000508 C15.0033786,5.9406228 14.9645706,5.9629668 14.9060646,5.9629668 C13.8697146,5.9614968 12.8333646,5.9617908 11.7499746,5.9617908 C14.0243586,2.7921768 17.0360946,0.8329608 20.8525086,0.1852788 C26.3603046,-0.7499352 31.5420546,1.9610388 34.2518526,5.9617908" id="Fill-6" fill="#D82A27"></path>
            <path d="M13.615875,15.0192252 C13.615875,12.7986432 13.616757,10.5783552 13.6132264,8.3577732 C13.612935,8.2307652 13.637631,8.1866652 13.776399,8.18781837 C14.610183,8.1948972 15.443967,8.1931332 16.277751,8.1890172 C16.384179,8.1884292 16.414461,8.2128312 16.414461,8.3233752 C16.411521,12.7786512 16.411815,17.2342212 16.414755,21.6894972 C16.414755,21.7944552 16.393293,21.8282782 16.281279,21.8276772 C15.437793,21.8226792 14.594307,21.8220912 13.751115,21.8282782 C13.627635,21.8291472 13.613817,21.7850472 13.613817,21.6806772 C13.616463,19.4600952 13.615875,17.2398072 13.615875,15.0192252" id="Fill-8" fill="#1C3E6E"></path>
            <path d="M32.4605694,14.9991156 C32.4605694,17.2196976 32.4593934,19.4399856 32.4635094,21.6605676 C32.4638034,21.7887516 32.4367554,21.8296176 32.3000454,21.8284794 C31.4712594,21.8213856 30.6421794,21.8210916 29.8133934,21.8284794 C29.6790354,21.8299116 29.6590434,21.7887516 29.6590434,21.6676236 C29.6619834,17.2314576 29.6622774,12.7952916 29.6581614,8.3591256 C29.6581614,8.2141836 29.7016734,8.1871356 29.8360314,8.1883116 C30.6504114,8.1941916 31.4650854,8.1944856 32.2794654,8.18798097 C32.4197034,8.1868416 32.4652734,8.2133016 32.464691,8.3664756 C32.4588054,10.5773556 32.4605694,12.7882356 32.4605694,14.9991156" id="Fill-10" fill="#1C3E6E"></path>
        </g>
    </g>
</svg>