<?xml version="1.0" encoding="UTF-8"?>
<svg width="42px" height="42px" viewBox="0 0 42 42" version="1.1" xmlns="http://www.w3.org/2000/svg" xmlns:xlink="http://www.w3.org/1999/xlink">
    <title>[00011] Banco de La Nación Argentina</title>
    <defs>
        <polygon id="path-1" points="3.3e-05 0.12375 32.87592 0.12375 32.87592 32.999967 3.3e-05 32.999967"></polygon>
    </defs>
    <g id="[00011]-Banco-de-La-Nación-Argentina" stroke="none" stroke-width="1" fill="none" fill-rule="evenodd">
        <g id="Group-6" transform="translate(5.000000, 4.000000)">
            <path d="M16.588836,7.686789 C16.440006,7.613199 16.329126,7.614189 16.183266,7.685799 C15.059286,8.236899 13.928046,8.774799 12.805716,9.329529 C12.508386,9.476709 12.190926,9.590559 11.888646,9.810009 L20.900946,9.810009 C20.784456,9.741369 20.724396,9.700779 20.659716,9.669099 C19.302426,9.009099 17.943156,8.353389 16.588836,7.686789" id="Fill-1" fill="#2D808A"></path>
            <g id="Group-5" transform="translate(0.000000, 0.206085)">
                <mask id="mask-2" fill="white">
                    <use xlink:href="#path-1"></use>
                </mask>
                <g id="Clip-4"></g>
                <path d="M25.734093,10.394307 C25.592523,10.616397 25.464153,10.847727 25.342053,11.081037 C25.257243,11.243397 25.142733,11.303127 24.956613,11.302797 C22.096503,11.297187 19.236393,11.298837 16.376283,11.299167 C13.530693,11.299497 10.685103,11.297187 7.839513,11.3037919 C7.627323,11.304447 7.496643,11.238777 7.403913,11.049687 C7.307223,10.852677 7.189083,10.666227 7.078533,10.476147 C6.924093,10.210167 6.923103,10.209837 7.189743,10.068927 C8.257953,9.501987 9.326163,8.936037 10.395033,8.369427 C12.323553,7.346757 14.253393,6.324747 16.180263,5.297787 C16.326123,5.219907 16.439313,5.217267 16.586823,5.296137 C18.306123,6.214197 20.029053,7.124667 21.750663,8.037777 C23.051193,8.728137 24.350733,9.421797 25.653573,10.107867 C25.801083,10.185417 25.823853,10.253397 25.734093,10.394307 M9.343983,12.412917 C9.343323,12.182577 9.412953,12.128127 9.630423,12.135057 C10.121133,12.150567 10.613163,12.149577 11.104203,12.136377 C11.303853,12.131427 11.348073,12.202377 11.347413,12.390477 C11.339163,15.117927 11.337513,17.845707 11.334543,20.573487 C11.333883,21.039447 11.334213,21.038787 11.801823,21.038457 C12.256563,21.037797 12.711303,21.032187 13.165713,21.042747 C13.340613,21.046377 13.386483,20.990607 13.386153,20.816037 C13.380213,18.029517 13.381533,15.242997 13.381533,12.456807 C13.381533,12.137697 13.382193,12.137697 13.709883,12.138357 C14.193993,12.138687 14.678103,12.143307 15.161883,12.137037 C15.315663,12.135057 15.384963,12.173667 15.383973,12.345267 C15.378363,13.583757 15.380343,14.822577 15.381993,16.061397 C15.383643,17.087367 15.389253,18.113667 15.389913,19.139637 C15.390573,19.674567 15.382983,20.209827 15.382323,20.745087 C15.381993,21.042417 15.385293,21.041757 15.670743,21.040767 C16.169373,21.039117 16.668003,21.032187 17.166633,21.040107 C17.322723,21.042747 17.373213,20.987307 17.371233,20.839137 C17.366943,20.479767 17.371233,20.120727 17.371233,19.761357 C17.371563,17.312427 17.374533,14.863167 17.366283,12.414237 C17.365293,12.185217 17.435913,12.126807 17.653053,12.133407 C18.136833,12.147267 18.620613,12.137037 19.104723,12.137367 C19.385553,12.137697 19.385883,12.138357 19.385883,12.432717 C19.386213,15.197127 19.385553,17.961207 19.386873,20.725617 C19.386873,21.068157 19.341993,21.033177 19.687503,21.036147 C20.178543,21.040107 20.670243,21.029217 21.161283,21.044067 C21.359283,21.050337 21.409773,20.984337 21.409113,20.795577 C21.402183,19.394727 21.404163,17.994537 21.404493,16.594017 C21.404493,15.200757 21.409113,13.807827 21.401523,12.414567 C21.400533,12.210297 21.447723,12.129117 21.667833,12.135387 C22.165803,12.149907 22.665423,12.147597 23.163723,12.134397 C23.367993,12.129117 23.424093,12.196767 23.423763,12.397077 C23.417823,15.176337 23.419803,17.955267 23.419473,20.734197 C23.419473,21.036807 23.419473,21.036807 23.732973,21.039117 C24.308823,21.043737 24.308163,21.043737 24.306183,21.617607 C24.305193,21.954537 24.295953,22.292787 24.311133,22.629057 C24.320373,22.829367 24.262953,22.892727 24.054393,22.8917484 C22.067463,22.883487 20.079873,22.886127 18.092613,22.885467 L16.398723,22.885467 L16.398723,22.886127 L8.742723,22.886127 C8.454963,22.886127 8.454963,22.886127 8.454633,22.597377 C8.454303,22.150227 8.458593,21.703077 8.45088199,21.255597 C8.448033,21.095877 8.499183,21.027567 8.665173,21.037137 C8.840733,21.047367 9.017283,21.034167 9.192843,21.039117 C9.308013,21.042417 9.352563,20.991597 9.348933,20.882037 C9.346293,20.809107 9.350253,20.735517 9.350253,20.661927 C9.350253,17.912367 9.352563,15.162807 9.343983,12.412917 M24.970803,25.703667 C22.104753,25.697397 19.238373,25.699377 16.372323,25.699377 L16.372323,25.700037 C13.513203,25.700037 10.654413,25.697727 7.795623,25.704987 C7.581783,25.704987 7.519083,25.646247 7.526013,25.434387 C7.541193,24.973377 7.535913,24.511047 7.528653,24.049377 C7.526343,23.896917 7.578153,23.841477 7.731603,23.845107 C8.076123,23.852697 8.420643,23.847417 8.765163,23.847417 C14.131293,23.847417 19.497423,23.846757 24.863223,23.848077 C25.222923,23.848077 25.218963,23.789997 25.217973,24.205467 C25.216983,24.622917 25.208733,25.041357 25.221933,25.458477 C25.228203,25.654167 25.163193,25.703997 24.970803,25.703667 M3.3e-05,16.561677 L3.3e-05,16.561677 C3.3e-05,25.640307 7.359363,32.999967 16.437993,32.999967 C25.516623,32.999967 32.876283,25.640307 32.876283,16.561677 C32.876283,7.483707 25.516623,0.123717 16.437993,0.123717 C7.359363,0.123717 3.3e-05,7.483707 3.3e-05,16.561677" id="Fill-3" fill="#2D808A" mask="url(#mask-2)"></path>
            </g>
        </g>
    </g>
</svg>