<?xml version="1.0" encoding="UTF-8"?>
<svg width="42px" height="42px" viewBox="0 0 42 42" version="1.1" xmlns="http://www.w3.org/2000/svg" xmlns:xlink="http://www.w3.org/1999/xlink">
    <title>[00020] Banco de la Provincia de Córdoba</title>
    <defs>
        <polygon id="path-1" points="0 0.128282 2.47688466 0.128282 2.47688466 15.708 0 15.708"></polygon>
    </defs>
    <g id="[00020]-Banco-de-la-Provincia-de-Córdoba" stroke="none" stroke-width="1" fill="none" fill-rule="evenodd">
        <g id="Group-16" transform="translate(4.000000, 13.000000)">
            <g id="Group-3" transform="translate(0.000000, 0.109718)">
                <mask id="mask-2" fill="white">
                    <use xlink:href="#path-1"></use>
                </mask>
                <g id="Clip-2"></g>
                <path d="M2.470202,7.9522226 C2.470202,10.4236146 2.465204,12.8952446 2.47688466,15.3663986 C2.478294,15.6493806 2.396422,15.7164966 2.125816,15.7072146 C1.516774,15.6862706 0.906542,15.6898406 0.297262,15.7062626 C0.066402,15.7122126 -0.000952,15.6527126 0.001904,15.4156646 C0.015232,14.3299086 0.007616,13.2434386 0.007616,12.1574446 C0.007616,8.2673346 0.011662,4.3772246 -8.62546756e-06,0.4875906 C-0.000952,0.1891386 0.076636,0.1177386 0.364378,0.1294006 C0.951048,0.1532006 1.539622,0.1515346 2.12653,0.1301146 C2.398088,0.1203566 2.478294,0.1893766 2.47688466,0.4714066 C2.465204,2.9649326 2.470202,5.4584586 2.470202,7.9522226" id="Fill-1" fill="#F28C22" mask="url(#mask-2)"></path>
            </g>
            <path d="M13.6626994,8.3036534 C13.4644454,8.4766794 13.2999874,8.6418514 13.1141094,8.7779874 C12.4729374,9.2482754 11.7739314,9.2577954 11.0627874,8.9793354 C10.6803214,8.8296334 10.4475574,8.5180914 10.3264154,8.1282474 C10.1733814,7.6341594 10.1381574,7.1250774 10.1869474,6.6150434 C10.2369274,6.0888254 10.5327614,5.7089774 10.9928154,5.4683594 C11.6637374,5.1180234 12.4151034,4.9814114 13.1098254,4.6922414 C13.2440574,4.6363114 13.2531014,4.7129474 13.2583374,4.8167154 C13.2647634,4.9499954 13.2523874,5.0666154 13.2616694,5.1815694 C13.2888014,5.5161974 13.1521894,5.6566174 12.8713494,5.7601474 C12.6024094,5.8593934 12.3363254,5.9772034 12.0880914,6.1197654 C11.5192714,6.4460634 11.3633814,7.3057194 11.7608414,7.8271774 C11.9498134,8.0749354 12.2023314,8.1382434 12.4979274,8.1044474 C12.9989174,8.0475654 13.4870554,7.5856074 13.4882454,7.0962794 C13.4906254,6.0219474 13.5377494,4.9469014 13.4594474,3.8735214 C13.4132754,3.2411554 13.1638514,2.9581734 12.6778554,2.9536514 C12.1218874,2.9484154 11.7694094,3.2792354 11.6989614,3.8720934 C11.6451734,4.3228654 11.6451734,4.3228654 11.1803594,4.3226274 C10.9366474,4.3223894 10.6926974,4.3233414 10.4489854,4.3221514 C10.3578314,4.3219134 10.2850034,4.3185814 10.2711994,4.1872054 C10.1783794,3.2966094 10.8711974,2.3051014 11.7720274,2.0728134 C12.4201014,1.9057374 13.0753154,1.9483394 13.7107754,2.1206514 C14.4547634,2.3227134 14.9747934,3.0581334 14.9774114,3.8851834 C14.9809814,4.9707014 14.9557534,6.0564574 14.9450434,7.1422134 C14.9414734,7.4780314 14.9191014,7.8267014 15.3501194,7.9466534 C15.4538874,7.9754514 15.4284214,8.0658914 15.4322294,8.1391954 C15.4386554,8.2717614 15.4407974,8.4048034 15.4453194,8.5376074 C15.4595994,8.9562494 15.3827254,9.0528774 14.9714614,9.1309414 C14.3195794,9.2547014 13.8514334,8.9655314 13.6626994,8.3036534" id="Fill-4" fill="#10846B"></path>
            <path d="M17.7010358,2.8501214 C18.3153138,2.0887594 19.0264578,1.9183514 19.8539838,2.0882834 C20.4377978,2.2082354 20.7955118,2.5492894 20.9402158,3.1209654 C21.0059038,3.3799094 21.0368438,3.6431374 21.0366058,3.9104114 C21.0358918,5.4728814 21.0318458,7.0351134 21.041869,8.5971074 C21.0432698,8.8255874 20.9890058,8.9105534 20.7505298,8.8941314 C20.4530298,8.8734254 20.1514838,8.8734254 19.8537458,8.8938934 C19.6216958,8.9098394 19.5809978,8.8148774 19.5819498,8.6082934 C19.5888518,7.0572474 19.5919458,5.5057254 19.5812358,3.9549174 C19.5767138,3.2870894 18.9545818,2.9281854 18.3636278,3.2409174 C17.9247558,3.4729674 17.7010358,3.8440094 17.7012738,4.3454754 C17.7019878,5.7527694 17.6938958,7.1598254 17.7076998,8.5671194 C17.7105558,8.8332034 17.6358238,8.9138854 17.3761658,8.8941314 C17.0898518,8.8719974 16.7994918,8.8753294 16.5124638,8.8936554 C16.2980258,8.9067454 16.2554238,8.8222554 16.2561378,8.6263814 C16.2618498,6.5541154 16.2625638,4.4820874 16.2549425,2.4102974 C16.2542338,2.1982394 16.3258718,2.1430234 16.5234118,2.1525434 C16.8109158,2.1665854 17.1010378,2.1758674 17.3871138,2.1506394 C17.6596238,2.1263634 17.7393538,2.2327494 17.7029398,2.4828874 C17.6908018,2.5664254 17.7010358,2.6532954 17.7010358,2.8501214" id="Fill-6" fill="#10846B"></path>
            <path d="M32.2964334,2.9828302 C32.4197174,2.8395542 32.4808834,2.7645842 32.5463334,2.6929462 C32.8124174,2.4016342 33.1215794,2.1772002 33.5090434,2.0715282 C34.1149914,1.9065942 34.2213774,1.9827542 34.2213774,2.5917962 C34.2213774,2.6363022 34.2216154,2.6803322 34.2211394,2.7248382 C34.2192354,2.9352302 34.2889694,3.1865582 34.1973394,3.3453042 C34.0790534,3.5509362 33.8346274,3.3372122 33.6401814,3.3472082 C32.9783034,3.3814802 32.2995274,4.0481182 32.2973854,4.7149942 C32.2933394,5.9994802 32.2883414,7.2839662 32.3021454,8.5684522 C32.3052394,8.8335842 32.2286034,8.9192642 31.9698974,8.8923702 C31.6098034,8.8547662 31.1264254,9.0454042 30.9205554,8.8181142 C30.7415794,8.6203362 30.8615314,8.1452882 30.8610554,7.7930482 C30.8584374,6.0216142 30.8658154,4.2497042 30.8534394,2.4782702 C30.8515354,2.2129002 30.9250774,2.1293622 31.1844974,2.1514962 C31.4374914,2.1731542 31.6964354,2.1798182 31.9475254,2.1503062 C32.2597814,2.1134162 32.3359414,2.2452682 32.2992894,2.5223002 C32.2823914,2.6482022 32.2964334,2.7779122 32.2964334,2.9828302" id="Fill-8" fill="#10846B"></path>
            <path d="M21.827694,5.4843768 C21.818412,4.8969928 21.802704,4.3098468 21.964306,3.7353148 C22.269422,2.6524148 23.347324,1.9024768 24.460926,1.9936308 C24.665368,2.0102908 24.77104,2.0802628 24.73177,2.2985088 C24.726296,2.3306388 24.732246,2.3649108 24.73177,2.3979928 C24.728914,2.5967228 24.788414,2.8282968 24.705828,2.9849008 C24.616102,3.1553088 24.361442,3.0294068 24.182466,3.0715328 C23.919476,3.1336508 23.705752,3.2614568 23.575804,3.4963628 C23.490838,3.6498728 23.40016,3.8171868 23.380406,3.9861668 C23.261644,4.9990948 23.17763,6.0148788 23.367792,7.0287588 C23.399684,7.2001188 23.472274,7.3664808 23.544626,7.5268928 C23.72027,7.9162608 24.00587,8.1487868 24.456166,8.0983308 C24.688454,8.0723888 24.75676,8.1549748 24.7560515,8.3898808 C24.753904,9.1933688 24.763186,9.1936068 23.955176,9.1005488 C22.810396,8.9689348 22.03761,8.1787748 21.898142,7.0113848 C21.837452,6.5032548 21.842926,5.9936968 21.827694,5.4843768" id="Fill-10" fill="#10846B"></path>
            <path d="M8.0941182,5.5489938 C8.0941182,5.9250338 8.0726982,6.3010738 8.0593702,6.6763998 C8.0488982,6.9653318 7.9786882,7.2468858 7.8523102,7.5086858 C7.5322002,8.1734198 6.7503702,8.2755218 6.2767502,7.7059878 C6.0397022,7.4206258 5.8938082,7.0955178 5.9004722,6.7051978 C5.9133242,5.9640658 5.9166562,5.2224578 5.8995202,4.4815638 C5.8895242,4.0393598 6.0749262,3.6835498 6.3422002,3.3705798 C6.8079662,2.8250838 7.5524302,2.9395618 7.8606402,3.5893018 C8.0446142,3.9774798 8.0834082,4.3965978 8.0931662,4.8190478 C8.0988782,5.0620458 8.0941182,5.3057578 8.0941182,5.5489938 M9.4250142,3.9760518 C9.3881242,3.7506658 9.3295762,3.5288498 9.2379462,3.3198858 C8.6024862,1.8721318 6.9871802,1.6105698 5.9716342,2.7386898 C5.9633042,2.7482098 5.9471202,2.7453538 5.9433122,2.7332158 C5.9068982,2.6225458 5.9068982,2.5109238 5.9064222,2.4133438 C5.9026142,1.7926398 5.8966642,1.1716978 5.9088022,0.5512318 C5.9130862,0.3360798 5.8578702,0.2468298 5.6224882,0.2639658 C5.3383162,0.2846718 5.0520022,0.2849098 4.7678302,0.2627758 C4.5136462,0.2430218 4.4562882,0.3327478 4.45722862,0.5788398 C4.4662842,3.2503898 4.4653322,5.9219398 4.4581922,8.5934898 C4.4574782,8.8164958 4.5012702,8.9145518 4.7454582,8.8938458 C4.9986902,8.8721878 5.2554922,8.8788518 5.5099142,8.8919418 C5.7541022,8.9045558 5.9704442,8.9036038 5.9264142,8.5430338 C6.8569942,9.2770258 7.5474322,9.3446178 8.3706742,8.8081658 C8.9585342,8.4252238 9.3357642,7.8916278 9.4526222,7.2016658 C9.6349302,6.1249538 9.6008962,5.0482418 9.4250142,3.9760518" id="Fill-12" fill="#10846B"></path>
            <path d="M28.833343,6.0865882 C28.838341,6.5071342 28.818349,6.9291082 28.686735,7.3358502 C28.525133,7.8356502 28.191933,8.1069702 27.729023,8.1136342 C27.272539,8.1198222 26.940767,7.8801562 26.759649,7.3977302 C26.507845,6.7263322 26.554731,6.0244702 26.561395,5.2809582 C26.607329,4.8428002 26.559729,4.3508542 26.683727,3.8729502 C26.826051,3.3229322 27.112841,3.0480422 27.569087,3.0259082 C28.107919,2.9994902 28.485387,3.2603382 28.660793,3.8101182 C28.897841,4.5533922 28.824299,5.3247502 28.833343,6.0865882 M30.169951,4.1699742 C29.907199,2.6967542 28.927591,1.8430482 27.185193,2.0420162 C26.255327,2.1481642 25.552989,2.8709702 25.284049,3.9364962 C25.136013,4.5234042 25.161003,5.1238782 25.111737,5.8471602 C25.103883,6.2074922 25.122685,6.6942022 25.223121,7.1735342 C25.465643,8.3297382 26.346719,9.1156142 27.446517,9.1615482 C28.806687,9.2184302 29.831753,8.4261282 30.144961,7.0433482 C30.360351,6.0911102 30.340121,5.1238782 30.169951,4.1699742" id="Fill-14" fill="#10846B"></path>
        </g>
    </g>
</svg>