<?xml version="1.0" encoding="UTF-8"?>
<svg width="42px" height="42px" viewBox="0 0 42 42" version="1.1" xmlns="http://www.w3.org/2000/svg" xmlns:xlink="http://www.w3.org/1999/xlink">
    <title>[00027] Banco Supervielle</title>
    <g id="[00027]-Banco-Supervielle" stroke="none" stroke-width="1" fill="none" fill-rule="evenodd">
        <g id="Group" transform="translate(5.000000, 6.000000)" fill-rule="nonzero">
            <path d="M31.3927224,14.725453 C25.827422,13.847669 20.4092849,12.0228022 16.8801095,10.3409328 C14.8346486,15.7044352 10.8903413,21.4545807 6.76317787,25.4095587 C6.53749074,25.6009553 6.71650289,25.9347993 7.08605866,25.6768539 C15.9032303,19.568115 25.092703,16.6339183 31.4009596,15.4079906 C31.7463537,15.330442 31.749649,14.8217012 31.3927224,14.725453" id="Path" fill="#821642"></path>
            <path d="M1.13624982,0.498030608 C3.22673824,5.91598209 5.61924101,16.9003823 0.0133055543,28.965513 C-0.0542358307,29.1222602 0.146740988,29.2597577 0.359249264,29.1222602 C7.07714665,24.7168402 12.9345777,16.2689938 14.8619784,9.36771934 C8.17428241,5.93743171 4.15090216,2.39494612 1.7172156,0.122387444 C1.39378569,-0.188906897 0.995126756,0.15153691 1.13624982,0.498030608" id="Path" fill="#EE2527"></path>
        </g>
    </g>
</svg>