<?xml version="1.0" encoding="UTF-8"?>
<svg width="42px" height="42px" viewBox="0 0 42 42" version="1.1" xmlns="http://www.w3.org/2000/svg" xmlns:xlink="http://www.w3.org/1999/xlink">
    <title>[00029] Banco de La Ciudad de BsAs</title>
    <defs>
        <polygon id="path-1" points="0.325042586 0.060408 22.85532 0.060408 22.85532 28.4399116 0.325042586 28.4399116"></polygon>
        <polygon id="path-3" points="0 0.019836 22.5399773 0.019836 22.5399773 28.2193736 0 28.2193736"></polygon>
    </defs>
    <g id="[00029]-Banco-de-La-Ciudad-de-BsAs" stroke="none" stroke-width="1" fill="none" fill-rule="evenodd">
        <g id="Group-7" transform="translate(8.000000, 4.000000)">
            <g id="Group-3" transform="translate(3.600000, 5.020164)">
                <mask id="mask-2" fill="white">
                    <use xlink:href="#path-1"></use>
                </mask>
                <g id="Clip-2"></g>
                <path d="M20.194164,23.175648 C22.021164,20.366568 22.679604,17.198568 22.806324,13.895568 C22.895964,12.571848 22.834404,11.247048 22.839444,9.922968 C22.675284,6.404328 21.964644,3.054528 19.827684,0.060408 C17.815644,2.917728 15.825204,5.694768 13.756644,8.415288 C12.095964,10.599048 10.441764,12.787848 8.672364,14.887008 C6.036444,18.013968 3.319164,21.068928 0.574164,24.099408 C0.268164,24.437448 0.219564,24.652728 0.566604,24.989328 C1.175004,25.579008 1.799964,26.140248 2.523204,26.584488 C5.556924,28.446768 8.867484,28.719288 12.288204,28.219968 C12.288204,28.219968 16.664004,27.924768 20.194164,23.175648" id="Fill-1" fill="#144B96" mask="url(#mask-2)"></path>
            </g>
            <g id="Group-6" transform="translate(0.000000, 0.340164)">
                <mask id="mask-4" fill="white">
                    <use xlink:href="#path-3"></use>
                </mask>
                <g id="Clip-5"></g>
                <path d="M14.781168,0.049356 C17.460288,0.261756 19.871208,1.116756 21.891168,2.957436 C22.719888,3.712716 22.747248,3.732156 22.016088,4.549716 C17.461368,9.642276 12.910608,14.737356 8.890128,20.274876 C7.107408,22.730436 5.341968,25.199316 3.577248,27.667476 C3.055968,28.397556 3.050208,28.406556 2.608488,27.675036 C0.901008,24.847956 0.213768,21.729636 0.055008,18.480996 C-0.101592,15.278076 0.035928,12.091356 0.994968,8.996076 C2.391408,4.489596 5.141448,1.349676 9.905328,0.297036 C10.620648,0.139356 11.364408,0.109116 12.094488,0.019836 C12.989088,0.115236 13.885488,0.061956 14.781168,0.049356" id="Fill-4" fill="#1D9CD7" mask="url(#mask-4)"></path>
            </g>
        </g>
    </g>
</svg>