<?xml version="1.0" encoding="UTF-8"?>
<svg width="42px" height="42px" viewBox="0 0 42 42" version="1.1" xmlns="http://www.w3.org/2000/svg" xmlns:xlink="http://www.w3.org/1999/xlink">
    <title>[00034] Banco Patagonia</title>
    <defs>
        <polygon id="path-1" points="0.192068295 0.0762 3.75333188 0.0762 3.75333188 5.66455851 0.192068295 5.66455851"></polygon>
        <polygon id="path-3" points="0.135937503 0.0104889459 4.38388135 0.0104889459 4.38388135 5.6 0.135937503 5.6"></polygon>
        <polygon id="path-5" points="0 0.159558246 3.23375747 0.159558246 3.23375747 5.57497089 0 5.57497089"></polygon>
    </defs>
    <g id="[00034]-Banco-Patagonia" stroke="none" stroke-width="1" fill="none" fill-rule="evenodd">
        <g id="Group-32" transform="translate(4.000000, 14.000000)">
            <path d="M27.13058,11.42666 L27.13058,11.31266 C27.13058,9.98406 27.13158,8.65566 27.12878,7.32726 C27.12858,7.24246 27.14438,7.21086 27.23618,7.21486 C27.40858,7.22286 27.58158,7.22126 27.75418,7.21546 C27.82818,7.21306 27.84778,7.23306 27.8471933,7.30766 C27.84318,7.74466 27.84518,8.18146 27.84518,8.61846 C27.84518,9.92246 27.84438,11.22606 27.8471933,12.52986 C27.84738,12.61426 27.83198,12.64426 27.74018,12.64146 C27.49718,12.63426 27.25378,12.63666 27.01058,12.64066 C26.94238,12.64186 26.90398,12.62326 26.87178,12.55946 C26.25358,11.32866 25.63298,10.09866 25.01258,8.86886 C24.91978,8.68506 24.82638,8.50166 24.71478,8.32026 L24.71478,8.42986 C24.71478,9.79346 24.71378,11.15706 24.71718,12.52086 C24.71738,12.61606 24.69498,12.64646 24.59758,12.64146 C24.42878,12.63286 24.25938,12.63666 24.09018,12.64026 C24.02438,12.64186 23.998579,12.62706 23.998579,12.55366 C24.00078,10.80226 24.00098,9.05106 23.998579,7.29966 C23.99838,7.22346 24.02818,7.21546 24.09098,7.21606 C24.36218,7.21886 24.63378,7.22026 24.90498,7.21526 C24.97358,7.21426 25.00238,7.24166 25.03058,7.29766 C25.51958,8.27486 26.01038,9.25106 26.50138,10.22726 C26.70318,10.62866 26.90658,11.02906 27.10918,11.43006 C27.11638,11.42886 27.12358,11.42766 27.13058,11.42666" id="Fill-1" fill="#17467A"></path>
            <path d="M11.64776,4.49444 L11.64776,4.38204 C11.64776,3.05704 11.64876,1.73164 11.64576,0.40644 C11.64556,0.31284 11.66476,0.27744 11.76576,0.28264 C11.93456,0.29184 12.10396,0.28784 12.27316,0.28404 C12.33816,0.28244 12.3641612,0.29524 12.3641612,0.36924 C12.36196,2.11744 12.36196,3.86564 12.3641612,5.61384 C12.36436,5.68704 12.33976,5.69944 12.27456,5.69864 C12.02056,5.69524 11.76676,5.69444 11.51296,5.69904 C11.44476,5.70024 11.41536,5.67304 11.38696,5.61624 C10.97536,4.79664 10.56156,3.97784 10.14816,3.15884 C9.85836,2.58464 9.56836,2.01064 9.27836,1.43644 C9.26916,1.41824 9.25936,1.40044 9.23216,1.38284 L9.23216,1.49044 C9.23216,2.85464 9.23116,4.21864 9.23396,5.58264 C9.23416,5.67024 9.22136,5.70604 9.12216,5.70004 C8.95356,5.69004 8.78376,5.69264 8.61476,5.69924 C8.53456,5.70224 8.51516,5.67844 8.51555398,5.59944 C8.51876,4.92284 8.51756,4.24604 8.51756,3.56924 C8.51756,2.51884 8.51736,1.46844 8.51776,0.41824 C8.51776,0.26724 8.50016,0.28604 8.65496,0.28544 C8.90896,0.28464 9.16256,0.28804 9.41636,0.28344 C9.48336,0.28224 9.51496,0.30564 9.54376,0.36324 C10.00236,1.27744 10.46296,2.19044 10.92336,3.10404 C11.15736,3.56824 11.39176,4.03244 11.62596,4.49684 C11.63336,4.49604 11.64056,4.49524 11.64776,4.49444" id="Fill-3" fill="#17467A"></path>
            <path d="M17.53274,8.20458 C17.23954,7.61058 16.08574,7.57038 15.70434,8.36398 C15.56054,8.66398 15.48634,8.98018 15.46414,9.30818 C15.42494,9.88938 15.42874,10.46898 15.57854,11.03858 C15.61434,11.17498 15.66374,11.30638 15.72814,11.43178 C15.94534,11.85458 16.29454,12.07578 16.76734,12.09318 C17.05754,12.10398 17.34254,12.06538 17.61754,11.96418 C17.71314,11.92898 17.75834,11.87858 17.75654,11.76498 C17.74934,11.25058 17.75174,10.73598 17.75514,10.22178 C17.75574,10.14138 17.73854,10.11358 17.65214,10.11518 C17.33134,10.12058 17.01074,10.11518 16.68994,10.11878 C16.61694,10.11978 16.59274,10.10038 16.59554,10.02538 C16.60134,9.87438 16.59934,9.72258 16.59614,9.57098 C16.59514,9.51138 16.60574,9.48318 16.67574,9.48358 C17.25014,9.48598 17.82454,9.48598 18.39894,9.48338 C18.46854,9.48298 18.47894,9.50878 18.47874,9.56938 C18.47734,10.42918 18.47674,11.28898 18.4797408,12.14858 C18.47994,12.21618 18.44394,12.24218 18.40074,12.27138 C17.90394,12.60458 17.35274,12.73878 16.75994,12.72238 C16.43314,12.71338 16.11694,12.65638 15.81914,12.51558 C15.30734,12.27358 14.98534,11.86258 14.81394,11.33738 C14.51214,10.41118 14.47414,9.46838 14.75354,8.53338 C15.07574,7.45498 15.91154,7.07618 16.90074,7.14238 C17.25674,7.16618 17.59414,7.25538 17.89514,7.45578 C18.15314,7.62778 18.15294,7.62898 17.93254,7.83418 C17.80154,7.95658 17.66954,8.07798 17.53274,8.20458" id="Fill-5" fill="#17467A"></path>
            <path d="M12.17804,7.94912 C12.06904,8.29032 11.96264,8.62112 11.85744,8.95252 C11.47604,10.15392 11.09464,11.35572 10.71484,12.55792 C10.69644,12.61672 10.67284,12.64232 10.60644,12.64092 C10.39144,12.63632 10.17604,12.63352 9.96144,12.64152 C9.85424,12.64532 9.85984,12.60752 9.88724,12.52812 C10.21624,11.56792 10.54324,10.60712 10.87064,9.64632 C11.13564,8.86852 11.40124,8.09052 11.66424,7.31172 C11.68664,7.24512 11.71424,7.21832 11.78924,7.21992 C12.04964,7.22532 12.31084,7.22532 12.57164,7.21992 C12.64544,7.21852 12.67604,7.24412 12.69884,7.31052 C13.09484,8.47792 13.49284,9.64472 13.89064,10.81152 C14.08784,11.38972 14.28384,11.96852 14.48484,12.54532 C14.51124,12.62112 14.50524,12.64232 14.42164,12.64052 C14.20304,12.63632 13.98424,12.63612 13.76584,12.64092 C13.69604,12.64252 13.67024,12.61652 13.65024,12.55312 C13.47084,11.97992 13.28664,11.40852 13.10784,10.83512 C13.08644,10.76652 13.06024,10.74132 12.98584,10.74252 C12.68984,10.74752 12.39364,10.74092 12.09764,10.74672 C12.00284,10.74852 11.99444,10.72132 12.02324,10.64072 C12.07624,10.49192 12.12384,10.34112 12.16684,10.18892 C12.18344,10.13052 12.20864,10.11172 12.26884,10.11312 C12.44864,10.11732 12.62844,10.11372 12.80804,10.11532 C12.85624,10.11572 12.87884,10.11192 12.85944,10.05212 C12.64004,9.36612 12.42304,8.67952 12.20484,7.99332 C12.20084,7.98112 12.19124,7.97072 12.17804,7.94912" id="Fill-7" fill="#17467A"></path>
            <path d="M32.0093,10.74462 C32.0735,10.54042 32.1357,10.35062 32.1923,10.15942 C32.2087,10.10382 32.2465,10.11502 32.2827,10.11502 C32.4831,10.11442 32.6833,10.11482 32.8949,10.11482 C32.6647,9.39042 32.4381,8.67622 32.2113,7.96222 C32.2039,7.96282 32.1967,7.96342 32.1891,7.96402 L31.8851,8.92322 C31.5005,10.13482 31.1153,11.34642 30.7327,12.55882 C30.7135,12.62022 30.6867,12.64162 30.6221,12.64042 C30.4039,12.63662 30.1851,12.63422 29.9667,12.64122 C29.8691,12.64462 29.8771,12.61042 29.9013,12.54002 C30.3569,11.20742 30.8109,9.87442 31.2649,8.54142 C31.4045,8.13242 31.5449,7.72402 31.6795,7.31362 C31.7041,7.23882 31.7397,7.21902 31.8143,7.22016781 C32.0717,7.22462 32.3291,7.22442 32.5863,7.22016781 C32.6569,7.21902 32.6893,7.23822 32.7133,7.30842 C33.3087,9.05702 33.9069,10.80462 34.5059,12.55182 C34.5289,12.61862 34.5243,12.64242 34.4451,12.64062 C34.2267,12.63602 34.0079,12.63502 33.7895,12.64122 C33.7141,12.64342 33.6867,12.61582 33.6657,12.54882 C33.4895,11.98582 33.3083,11.42422 33.1337,10.86062 C33.1069,10.77422 33.0731,10.73942 32.9763,10.74162 C32.6593,10.74922 32.3421,10.74462 32.0093,10.74462" id="Fill-9" fill="#17467A"></path>
            <path d="M5.77082,1.01864 C5.69022,1.27184 5.61062,1.52044 5.53162,1.76924 C5.12542,3.04784 4.71862,4.32584 4.31562,5.60524 C4.29162,5.68064 4.25742,5.70064 4.18282,5.69884 C3.97502,5.69404 3.76662,5.69184 3.55882,5.69944 C3.46002,5.70324 3.45122,5.67724 3.48122,5.59064 C3.78582,4.70404 4.08742,3.81624 4.38982,2.92904 C4.67982,2.07804 4.97082,1.22764 5.25782,0.37564 C5.28402,0.29704 5.32102,0.27684 5.40002,0.27864 C5.65722,0.28404 5.91462,0.28204 6.17182,0.27944 C6.23142,0.27884 6.26362,0.29024 6.28542,0.35484 C6.88222,2.10624 7.48162,3.85704 8.08042,5.60804 C8.08922,5.63424 8.09622,5.66124 8.10702,5.69724 C7.84062,5.69724 7.58062,5.69544 7.32082,5.69824 C7.26282,5.69884 7.26202,5.65804 7.25122,5.62404 C7.07202,5.06224 6.89062,4.50064 6.71802,3.93664 C6.68662,3.83404 6.64482,3.80144 6.53762,3.80484 C6.24882,3.81384 5.95962,3.80584 5.67062,3.80924 C5.59822,3.81024 5.58882,3.79204 5.61122,3.72644 C5.66602,3.56704 5.71602,3.40604 5.76302,3.24424 C5.77882,3.18944 5.80642,3.17564 5.86022,3.17664 C6.04002,3.18004 6.21962,3.17704 6.39962,3.17864 C6.44582,3.17904 6.47522,3.17544 6.45662,3.11664 C6.23542,2.42424 6.01522,1.73164 5.79422,1.03944 C5.79242,1.03384 5.78422,1.03044 5.77082,1.01864" id="Fill-11" fill="#17467A"></path>
            <path d="M5.00714,7.95186 C4.91954,8.22766 4.83354,8.49746 4.74794,8.76706 C4.34994,10.02266 3.95114,11.27806 3.55554,12.53426 C3.53034,12.61426 3.49774,12.64506 3.40994,12.64166 C3.20234,12.63366 2.99394,12.63526 2.78614,12.64086 C2.69854,12.64326 2.68694,12.62166 2.71454,12.54086 C3.12434,11.34486 3.53154,10.14766 3.93914,8.95086 C4.12374,8.40866 4.31054,7.86746 4.48994,7.32366 C4.51754,7.23966 4.55454,7.21806 4.63794,7.22006 C4.88814,7.22566 5.13854,7.22566 5.38874,7.21986 C5.46934,7.21806 5.50414,7.24246 5.53014,7.31906 C5.94394,8.53626 6.36054,9.75246 6.77654,10.96886 C6.95274,11.48386 7.12914,11.99866 7.30574,12.51366 C7.34874,12.63926 7.34894,12.63926 7.22074,12.63926 C7.01974,12.63926 6.81894,12.63566 6.61814,12.64086 C6.53994,12.64286 6.50374,12.62406 6.47854,12.54246 C6.30134,11.96886 6.11554,11.39766 5.93634,10.82466 C5.91694,10.76246 5.89154,10.74246 5.82754,10.74306 C5.52434,10.74646 5.22094,10.74226 4.91794,10.74626 C4.83754,10.74726 4.82294,10.72926 4.85074,10.65246 C4.90574,10.50066 4.95414,10.34646 4.99814,10.19106 C5.01614,10.12746 5.04714,10.11186 5.10914,10.11326 C5.28534,10.11726 5.46154,10.11366 5.63774,10.11526 C5.68594,10.11586 5.71094,10.11066 5.69234,10.05246 C5.47014,9.36026 5.24954,8.66766 5.02794,7.97506 C5.02614,7.96926 5.01914,7.96466 5.00714,7.95186" id="Fill-13" fill="#17467A"></path>
            <g id="Group-17" transform="translate(12.800000, 0.123840)">
                <mask id="mask-2" fill="white">
                    <use xlink:href="#path-1"></use>
                </mask>
                <g id="Clip-16"></g>
                <path d="M1.05948,2.7329 C1.06308,3.2025 1.09468,3.6683 1.25368,4.1157 C1.52028,4.8669 2.08308,5.1195 2.81508,5.0071 C3.05388,4.9705 3.27888,4.8921 3.48928,4.7749 C3.54148,4.7457 3.56308,4.7457 3.58268,4.8091 C3.63168,4.9665 3.68888,5.1215 3.74308,5.2775 C3.75648,5.3163 3.76548,5.3463 3.71188,5.3685 C3.09388,5.6213 2.45888,5.7495 1.79488,5.6023 C1.12888,5.4543 0.69968,5.0287 0.45028,4.4073 C0.27608,3.9741 0.21088,3.5193 0.19648,3.0561 C0.17908,2.4979 0.20728,1.9441 0.38808,1.4089 C0.54988,0.9299 0.81428,0.5299 1.27588,0.2889 C1.62608,0.1061 2.00428,0.0595 2.39248,0.0809 C2.76068,0.1013 3.10728,0.1925 3.40908,0.4165 C3.57888,0.5427 3.57888,0.5435 3.42908,0.6847 C3.29308,0.8125 3.15688,0.9401 3.02008,1.0669 C2.99388,1.0911 2.97088,1.1289 2.93368,1.0689 C2.73228,0.7415 2.41768,0.6777 2.06968,0.7187 C1.69068,0.7631 1.45028,0.9969 1.29568,1.3297 C1.11228,1.7241 1.06928,2.1463 1.05968,2.5743 C1.05848,2.6273 1.05948,2.6799 1.05948,2.7329" id="Fill-15" fill="#17467A" mask="url(#mask-2)"></path>
            </g>
            <path d="M8.98586,10.2415 C8.98586,11.0063 8.98466,11.7709 8.98786,12.5359 C8.98826,12.6181 8.96766,12.6439 8.88346,12.6411 C8.68986,12.6349 8.49566,12.6345 8.30206,12.6413 C8.21506,12.6443 8.19826,12.6139 8.19846,12.5337 C8.20066,11.0183 8.19906,9.5029 8.20266,7.9873 C8.20286,7.8819 8.18286,7.8461 8.06886,7.8487 C7.69546,7.8571 7.32166,7.8499 6.94806,7.8537 C6.87586,7.8541 6.85026,7.8381 6.85346,7.7619 C6.85966,7.6139 6.86086,7.4655 6.85326,7.3179 C6.84866,7.2319 6.87846,7.2153 6.95866,7.2155 C7.97026,7.2183 8.98166,7.2167 9.99346,7.2183 C10.10486,7.2185 10.25386,7.1701 10.31686,7.2393 C10.37206,7.2999 10.33366,7.4465 10.33386,7.5551 C10.33426,7.6499 10.36686,7.7763 10.31926,7.8309 C10.26366,7.8947 10.13386,7.8501 10.03666,7.8509 C9.72666,7.8537 9.41626,7.8553 9.10626,7.8497 C9.01346,7.8481 8.98266,7.8679 8.98326,7.9685 C8.98806,8.7261 8.98586,9.4839 8.98586,10.2415" id="Fill-18" fill="#17467A"></path>
            <path d="M29.46046,9.93526 C29.46046,10.80206 29.45926,11.66906 29.46226,12.53606 C29.4626651,12.61846 29.44186,12.64386 29.35786,12.64106 C29.16066,12.63486 28.96306,12.63486 28.76586,12.64126 C28.68486,12.64386 28.668054,12.61926 28.66826,12.54166 C28.67086,11.47046 28.67006,10.39886 28.67006,9.32766 C28.67006,8.65806 28.67166,7.98866 28.668054,7.31906 C28.66766,7.23686 28.68726,7.21246 28.77106,7.21506 C28.96466,7.22186 29.15886,7.22226 29.35246,7.21506 C29.43986,7.21206 29.46306,7.23466 29.4626651,7.32386 C29.45886,8.19426 29.46046,9.06466 29.46046,9.93526" id="Fill-20" fill="#17467A"></path>
            <path d="M19.89034,4.10752 C19.81614,4.40092 19.69674,4.67232 19.47454,4.88812 C19.06634,5.28492 18.14814,5.32072 17.77614,4.50412 C17.58374,4.08252 17.53114,3.63452 17.51894,3.17832 C17.51714,3.11492 17.51874,3.05152 17.51874,2.98812 C17.51434,2.52492 17.55014,2.06692 17.71474,1.62872 C17.82514,1.33512 17.98954,1.08052 18.28274,0.93672 C18.81834,0.67332 19.43914,0.88772 19.71994,1.42832 C19.88354,1.74292 19.95394,2.08252 19.98714,2.43032 C20.04094,2.99392 20.02974,3.55512 19.89034,4.10752 M20.87094,2.67112 C20.85134,2.26492 20.79454,1.86592 20.65454,1.48212 C20.44794,0.91672 20.08974,0.49672 19.50154,0.30752 C19.17894,0.20372 18.84694,0.18392 18.50994,0.21252 C17.71334,0.27992 17.17574,0.69032 16.89134,1.43232 C16.69954,1.93252 16.64954,2.45652 16.65294,3.03932 C16.64574,3.33392 16.67394,3.67732 16.74034,4.01692 C16.80754,4.36112 16.91734,4.68932 17.11134,4.98512 C17.36494,5.37112 17.71754,5.61512 18.16674,5.71912 C18.60394,5.82012 19.04194,5.81812 19.47134,5.68832 C20.12714,5.49052 20.49694,5.01232 20.69454,4.38332 C20.86954,3.82572 20.89894,3.25112 20.87094,2.67112" id="Fill-22" fill="#17467A"></path>
            <g id="Group-26" transform="translate(19.000000, 7.123840)">
                <mask id="mask-4" fill="white">
                    <use xlink:href="#path-3"></use>
                </mask>
                <g id="Clip-25"></g>
                <path d="M3.32434,4.11492 C3.22974,4.39312 3.08734,4.64192 2.83394,4.80772 C2.35874,5.11812 1.70414,4.98592 1.38514,4.51612 C1.19694,4.23912 1.11494,3.92332 1.06394,3.59812 C1.02254,3.33332 1.00814,3.06632 1.01414,2.85172 C1.01134,2.31332 1.04814,1.83392 1.23414,1.37932 C1.36714,1.05392 1.57414,0.79412 1.92694,0.68892 C2.49454,0.51952 3.01254,0.77332 3.26194,1.33772 C3.42034,1.69732 3.47694,2.07872 3.49674,2.46732 C3.52514,3.02532 3.50654,3.57912 3.32434,4.11492 M4.22014,1.52552 C4.13074,1.16192 3.96894,0.83232 3.70634,0.55792 C3.33134,0.16612 2.85454,0.02312 2.33194,0.01132 C1.38994,-0.00968 0.65554,0.36512 0.34214,1.38492 C0.07014,2.26932 0.08134,3.16912 0.29314,4.06552 C0.39014,4.47652 0.57474,4.84612 0.89294,5.13572 C1.27994,5.48792 1.75114,5.59932 2.25874,5.60012 C3.26014,5.59952 3.91514,5.12732 4.19474,4.16452 C4.44814,3.29132 4.43714,2.40632 4.22014,1.52552" id="Fill-24" fill="#17467A" mask="url(#mask-4)"></path>
            </g>
            <g id="Group-29" transform="translate(0.000000, 0.123840)">
                <mask id="mask-6" fill="white">
                    <use xlink:href="#path-5"></use>
                </mask>
                <g id="Clip-28"></g>
                <path d="M2.44172,4.14676 C2.40192,4.57116 2.04352,4.89576 1.57312,4.93596 C1.33752,4.95616 1.10192,4.94576 0.86612,4.95116 C0.80292,4.95256 0.79112,4.92796 0.79152,4.87136 C0.79392,4.57556 0.79272,4.27976 0.79272,3.98396 C0.79272,3.69516 0.79192,3.40636 0.79372,3.11756 C0.79392,3.08616 0.76792,3.03176 0.83672,3.03356 C1.13812,3.04056 1.44212,3.00676 1.73972,3.08756 C2.24652,3.22536 2.49332,3.59556 2.44172,4.14676 M0.83592,0.79156 C1.10612,0.79936 1.37872,0.76576 1.64612,0.82676 C1.98032,0.90296 2.15872,1.10916 2.18472,1.45276 C2.19252,1.55396 2.19412,1.65836 2.17872,1.75816 C2.11992,2.14036 1.87312,2.36316 1.46572,2.39376 C1.26252,2.40916 1.05732,2.39876 0.85332,2.40436 C0.78572,2.40636 0.79232,2.36736 0.79232,2.32396 C0.79292,2.08436 0.79272,1.84496 0.79272,1.60556 C0.79272,1.35916 0.79212,1.11256 0.79332,0.86616 C0.79352,0.83556 0.77512,0.78976 0.83592,0.79156 M2.13012,2.69656 C2.31912,2.61796 2.47872,2.53896 2.60872,2.41296 C2.96252,2.07096 3.01932,1.64156 2.95612,1.18436 C2.89092,0.71256 2.61232,0.41236 2.16852,0.25716 C1.99092,0.19496 1.80692,0.16376 1.61992,0.16256 C1.11592,0.15936 0.61192,0.16316 0.10792,0.159558246 C0.02812,0.15936 0.00012,0.17616 0.00032,0.26296 C0.00312,2.00036 0.00312,3.73756 -8e-05,5.47496 C-8e-05,5.56516 0.03252,5.57536 0.10832,5.57497089 C0.59112,5.57196 1.07392,5.57236 1.55692,5.57416 C1.73372,5.57476 1.90912,5.56116 2.08212,5.52716 C2.55632,5.43376 2.94012,5.21696 3.12792,4.74116 C3.21612,4.51776 3.23472,4.28456 3.23372,4.04696 C3.23052,3.32016 2.86252,2.85736 2.13012,2.69656" id="Fill-27" fill="#17467A" mask="url(#mask-6)"></path>
            </g>
            <path d="M2.32198,8.91904 C2.26518,9.19724 2.09278,9.36164 1.82578,9.43584 C1.69598,9.47184 1.56318,9.48524 1.42878,9.48504 C1.25958,9.48464 1.09038,9.47904 0.92158,9.48724 C0.82358,9.49184 0.78778,9.47064 0.79238,9.36344 C0.80138,9.13144 0.79498,8.89844 0.79498,8.66604 C0.79498,8.41944 0.79598,8.17304 0.79418,7.92624 C0.79378,7.87644 0.80018,7.84844 0.86138,7.85064 C1.14618,7.86104 1.43178,7.83464 1.71618,7.87264 C2.08658,7.92204 2.31138,8.15704 2.33618,8.53024 C2.34498,8.65984 2.34838,8.78984 2.32198,8.91904 M3.14638,8.13044 C3.04078,7.73044 2.78658,7.47284 2.39758,7.34044 C2.13738,7.25204 1.86778,7.22804 1.59678,7.22364 C1.10358,7.21584 0.61038,7.22124 0.11738,7.21501704 C0.03038,7.21424 0.00737153346,7.23404 0.00778,7.32324 C0.01138,8.18984 0.00978,9.05644 0.00978,9.92324 C0.00978,10.79004 0.01198,11.65664 0.00737153346,12.52344 C0.00678,12.62444 0.03798,12.64444 0.12978,12.64104 C0.31638,12.63444 0.50358,12.63344 0.68998,12.64144 C0.78238,12.64544 0.79758,12.61344 0.79718,12.52924 C0.79358,11.82104 0.79478,11.11304 0.79538,10.40484 C0.79558,10.31384 0.76578,10.19344 0.81158,10.13944 C0.86558,10.07564 0.98998,10.11964 1.08358,10.11824 C1.43178,10.11384 1.78118,10.13524 2.12438,10.05104 C2.66618,9.91844 3.05238,9.62004 3.17238,9.05024 C3.23698,8.74384 3.22698,8.43504 3.14638,8.13044" id="Fill-30" fill="#17467A"></path>
        </g>
    </g>
</svg>