<?xml version="1.0" encoding="UTF-8"?>
<svg width="42px" height="42px" viewBox="0 0 42 42" version="1.1" xmlns="http://www.w3.org/2000/svg" xmlns:xlink="http://www.w3.org/1999/xlink">
    <title>[00044] Banco Hipotecario</title>
    <defs>
        <polygon id="path-1" points="0 0.119 16.4457006 0.119 16.4457006 23.479244 0 23.479244"></polygon>
    </defs>
    <g id="[00044]-Banco-Hipotecario" stroke="none" stroke-width="1" fill="none" fill-rule="evenodd">
        <g id="Group-6" transform="translate(13.000000, 4.000000)">
            <g id="Group-3" transform="translate(0.000000, 0.221136)">
                <mask id="mask-2" fill="white">
                    <use xlink:href="#path-1"></use>
                </mask>
                <g id="Clip-2"></g>
                <path d="M16.435158,23.479244 C15.757878,23.085184 15.130918,22.721384 14.504978,22.355884 C12.729498,21.318544 10.939398,20.304664 9.186018,19.230944 C8.491738,18.805604 7.924618,18.840624 7.239518,19.253044 C4.955398,20.629024 2.640678,21.954004 0.336498,23.296664 C0.248438,23.348004 0.170918,23.430624 0.009758,23.420084 L0.009758,23.044384 C0.009758,15.558944 0.013498,8.073844 -0.000105022968,0.588744 C-0.000782,0.190944 0.113118,0.118184 0.485078,0.118859302 C5.655118,0.131444 10.825158,0.130084 15.995198,0.121244 C16.312758,0.120904 16.446378,0.153544 16.4457006,0.537064 C16.431418,8.049024 16.435158,15.560984 16.435158,23.072604 L16.435158,23.479244 Z" id="Fill-1" fill="#F27423" mask="url(#mask-2)"></path>
            </g>
            <path d="M8.231978,33.193486 C5.626218,33.193486 3.020798,33.187026 0.415038,33.2009884 C0.079798,33.202666 -0.000442,33.107806 0.00221185401,32.780046 C0.017918,30.772006 0.016218,28.763966 0.002958,26.755586 C0.000918,26.492086 0.087618,26.357446 0.308278,26.229266 C2.685218,24.851586 5.061138,23.472546 7.423458,22.070726 C7.978338,21.741606 8.460118,21.735486 9.016698,22.064946 C11.391938,23.471186 13.780098,24.855666 16.168598,26.240146 C16.362738,26.352686 16.441958,26.471686 16.440938,26.704246 C16.430738,28.752066 16.429378,30.800226 16.441636,32.848046 C16.442978,33.127866 16.367498,33.200626 16.088698,33.199946 C13.470018,33.189066 10.850998,33.193486 8.231978,33.193486" id="Fill-4" fill="#F27423"></path>
        </g>
    </g>
</svg>