<?xml version="1.0" encoding="UTF-8"?>
<svg width="42px" height="42px" viewBox="0 0 42 42" version="1.1" xmlns="http://www.w3.org/2000/svg" xmlns:xlink="http://www.w3.org/1999/xlink">
    <title>[00065] Banco Municipal de Rosario</title>
    <g id="[00065]-Banco-Municipal-de-Rosario" stroke="none" stroke-width="1" fill="none" fill-rule="evenodd">
        <g id="Group-8" transform="translate(4.000000, 4.000000)" fill="#9D1C30">
            <path d="M19.375678,17.9746386 C18.7480566,16.6459252 17.8760134,15.730664 16.5727506,15.3277762 C14.849793,14.7952344 13.2929846,15.1395378 12.0050882,16.4115876 C9.2016806,19.1823416 6.4155602,21.970863 3.644326,24.7747508 C3.2544036,25.1694752 3.1180268,25.1142522 2.8769664,24.6628642 C-2.3639364,14.8418138 3.38982,2.99335904 14.374395,1.00341024 C22.5651664,-0.48040776 30.8750274,4.97418404 32.7521292,13.0693956 C32.876501,13.6043384 32.9816648,14.1445634 33.0844276,14.6847884 C33.1180416,14.8619822 33.1953538,15.0924782 32.8721792,15.0876762 C31.0891966,15.063186 29.8781322,16.0893734 28.7722316,17.3124428 C28.6017606,17.5011614 28.4288886,17.6865186 28.2046352,17.9309404 C27.6970638,16.8841044 27.0281452,16.0687248 26.021646,15.5741188 C24.307332,14.7308876 22.3452348,14.9988392 20.9564964,16.3112258 C20.420113,16.818317 19.9365516,17.3811114 19.375678,17.9746386" id="Fill-4"></path>
            <path d="M32.9741257,19.51464 C32.4262175,24.3272044 28.6369593,30.160674 22.0923135,32.3042868 C15.7709607,34.3749092 9.06256666,32.1948012 5.29731846,27.9128578 C7.11343486,27.8033722 8.15738966,26.547169 9.28922106,25.4105356 C11.8155533,22.8731588 14.3615737,20.3540296 16.8807029,17.8094498 C17.2144419,17.4728296 17.3709871,17.4867554 17.6230921,17.8694748 C18.1863667,18.7242308 18.1748419,19.0747768 17.4482993,19.8032402 C15.3075677,21.9473332 13.1745193,24.10055 11.0092975,26.2211132 C10.6083305,26.6139168 10.7110933,26.780066 11.0933325,27.0542602 C12.9973255,28.419949 15.3632709,28.1923342 17.0900701,26.4650548 C19.9645473,23.5881766 22.8529503,20.7252242 25.7077393,17.8300984 C26.0885379,17.4440176 26.2388405,17.5189288 26.4880643,17.9030888 C27.0551805,18.7765726 27.0383735,19.0459648 26.2959843,19.7893144 C24.1542923,21.9343678 22.0217241,24.088545 19.8593835,26.2124696 C19.4694611,26.5961494 19.5395703,26.7637392 19.9338145,27.0528196 C21.7134357,28.3604042 24.1648567,28.2048194 25.7427939,26.6374466 C28.0285459,24.3675412 30.3027731,22.086111 32.5837231,19.8114036 C32.6989711,19.697116 32.7777239,19.5276054 32.9741257,19.51464" id="Fill-6"></path>
        </g>
    </g>
</svg>