<?xml version="1.0" encoding="UTF-8"?>
<svg width="42px" height="42px" viewBox="0 0 42 42" version="1.1" xmlns="http://www.w3.org/2000/svg" xmlns:xlink="http://www.w3.org/1999/xlink">
    <title>[00072] Banco Santander Río</title>
    <g id="[00072]-Banco-Santander-Río" stroke="none" stroke-width="1" fill="none" fill-rule="evenodd">
        <g id="Logo" transform="translate(4.000000, 5.000000)" fill="#EC0000">
            <path d="M23.6846548,14.0284 C23.6465045,12.9438 23.3413018,11.8966 22.7690467,10.9242 L17.7332018,2.397 C17.3516984,1.7612 17.0846461,1.0506 16.9320447,0.34 L16.7031427,0.714 C15.4441815,2.8084 15.4441815,5.4264 16.7031427,7.5208 L20.7089283,14.3276 C21.9678895,16.422 21.9678895,19.04 20.7089283,21.1344 L20.4800263,21.5084 C20.3274249,20.7978 20.0603726,20.0872 19.6788692,19.4514 L16.0164366,13.2056 L13.6511155,9.2038 C13.2696121,8.568 13.0025597,7.8574 12.8499584,7.1468 L12.6210563,7.5208 C11.4002455,9.6152 11.3620951,12.2332 12.6210563,14.3276 L16.6649923,21.1718 C17.9239535,23.2662 17.9239535,25.8842 16.6649923,27.978974 L16.4360903,28.352974 C16.2834889,27.642 16.0164366,26.9314 15.6349332,26.295974 L10.7135393,17.7684 C10.0268332,16.609 9.72163051,15.3374 9.79793119,14.0658 C4.38058295,15.4122 0.68,18.3294 0.68,21.7328 C0.68,26.4452 7.85226386,30.26 16.741293,30.26 C25.5921718,30.26 32.7644357,26.4452 32.7644357,21.7328 C32.7644357,18.3294 29.0638527,15.4122 23.6846548,14.0284 L23.6846548,14.0284 Z" id="🎨-Color"></path>
        </g>
    </g>
</svg>