<?xml version="1.0" encoding="UTF-8"?>
<svg width="42px" height="42px" viewBox="0 0 42 42" version="1.1" xmlns="http://www.w3.org/2000/svg" xmlns:xlink="http://www.w3.org/1999/xlink">
    <title>[00083] Banco del Chubut</title>
    <defs>
        <polygon id="path-1" points="0.329716294 0.19158642 20.1210912 0.19158642 20.1210912 4.704 0.329716294 4.704"></polygon>
    </defs>
    <g id="[00083]-Banco-del-Chubut" stroke="none" stroke-width="1" fill="none" fill-rule="evenodd">
        <g id="Group-8" transform="translate(4.000000, 10.000000)">
            <path d="M28.1992032,6.8312832 L27.2019552,6.8312832 C18.3974112,6.8312832 9.5925312,6.8228832 0.7879872,6.8467392 C0.0659232,6.8487552 -0.1649088,6.7308192 0.1163232,5.9936352 C0.4217472,5.1929472 0.6888672,4.3798272 1.1485152,3.6490272 C1.7035872,2.7673632 2.4491712,2.3245152 3.5452032,2.3285472 C11.4371712,2.3554272 19.3294752,2.3429952 27.2214432,2.3429952 L28.2660672,2.3429952 C27.7177152,1.5429792 27.2321952,0.8336832 26.6908992,0.0444192 C28.6259232,-0.0698208 30.4124352,-0.0940128 31.6384992,1.6804032 C32.2325472,2.5398912 32.8860672,3.3577152 33.5160672,4.1920032 C33.6870912,4.4181312 33.7909152,4.6180512 33.5926752,4.9063392 C32.7244512,6.1686912 31.8132192,7.3890432 30.6610752,8.4178752 C29.4934752,9.4604832 28.1084832,9.1332192 26.5780032,9.1641312 C27.1434912,8.3500032 27.6185952,7.6659072 28.1992032,6.8312832" id="Fill-1" fill="#C12226"></path>
            <path d="M24.919944,10.0294992 C23.868936,11.9383152 22.422792,13.3458192 20.561352,14.3397072 C20.309352,14.4744432 20.036856,14.4307632 19.771752,14.4307632 C13.492248,14.4327792 7.213416,14.4327792 0.934248,14.4317712 C0.01596,14.4314352 -0.011928,14.4062352 0.285096,13.5380112 C0.64092,12.4977552 1.039416,11.4826992 1.827336,10.6601712 C2.290344,10.1770032 2.829624,9.9488592 3.467352,9.94851262 C10.550904,9.9481872 17.634456,9.9559152 24.718008,9.9629712 C24.743544,9.9629712 24.76908,9.9790992 24.919944,10.0294992" id="Fill-3" fill="#B2B1B1"></path>
            <g id="Group-7" transform="translate(0.000000, 17.299531)">
                <mask id="mask-2" fill="white">
                    <use xlink:href="#path-1"></use>
                </mask>
                <g id="Clip-6"></g>
                <path d="M20.1210912,0.2315712 C19.4964672,2.6460672 16.8941472,4.7020512 14.4809952,4.7027232 C10.2638592,4.7044032 6.0463872,4.7030592 1.8295872,4.7030592 C1.7220672,4.7030592 1.6145472,4.7054112 1.5073632,4.7027232 C0.2245152,4.6657632 0.1435392,4.5542112 0.5406912,3.3647712 C0.9059232,2.2694112 1.2587232,1.1696832 2.3127552,0.4943232 C2.6164992,0.2994432 2.9239392,0.1912512 3.2905152,0.19158642 C8.7972192,0.1972992 14.3039232,0.1956192 19.8102912,0.1972992 C19.9127712,0.1972992 20.0152512,0.2194752 20.1210912,0.2315712" id="Fill-5" fill="#D6D6D7" mask="url(#mask-2)"></path>
            </g>
        </g>
    </g>
</svg>