<?xml version="1.0" encoding="UTF-8"?>
<svg width="42px" height="42px" viewBox="0 0 42 42" version="1.1" xmlns="http://www.w3.org/2000/svg" xmlns:xlink="http://www.w3.org/1999/xlink">
    <title>[00086] Banco de Santa Cruz</title>
    <g id="[00086]-Banco-de-Santa-Cruz" stroke="none" stroke-width="1" fill="none" fill-rule="evenodd">
        <g id="Group-29" transform="translate(5.000000, 5.000000)">
            <g id="Group-3" transform="translate(0.000000, 0.299792)" fill="#396FB6">
                <path d="M0.0842457,19.8485456 C-0.0143913,19.6755266 0.0367059,19.49798 0.0367059,19.3307822 C0.0331485,13.1046854 0.0409101,6.87891204 0.0208467197,0.65249184 C0.0192423,0.12502644 0.1731807,0.02283204 0.6705699,0.023475799 C10.8062493,0.03867864 20.9419287,0.03835524 31.0776081,0.02412564 C31.5649719,0.023475799 31.7363739,0.10723944 31.7350876,0.64699404 C31.7159997,9.20803884 31.7172933,17.7687602 31.7328165,26.329805 C31.7334633,26.82299 31.6086309,26.9578478 31.1170629,26.9213036 C27.8911479,26.6813408 24.9401229,25.6108868 22.1892825,23.9644574 C17.5895643,21.2107064 13.9141233,17.4786704 10.8347085,13.1289404 C10.2716691,12.3336998 9.7147743,11.535872 8.9790393,10.8864848 C8.2536531,10.2467996 7.7908677,10.2102554 6.9804273,10.740308 C6.0338355,11.3589722 5.3110365,12.2114546 4.6179903,13.084958 C3.0420621,15.0709574 1.7080371,17.2183334 0.4283433,19.4019302 C0.3371445,19.557809 0.3002769,19.7673722 0.0842457,19.8485456" id="Fill-1"></path>
            </g>
            <g id="Group-6" transform="translate(0.000000, 12.912392)" fill="#B2B0AF">
                <path d="M7.87077984,0.19442808 L7.87077984,16.3033055 C7.91055804,16.3123607 7.95033624,16.3214159 7.99011444,16.3307945 C9.32090544,12.6417707 10.6520198,8.95274688 12.0093296,5.18869428 C12.514157,5.78763108 12.9808232,6.34420248 13.4510468,6.89753988 C15.7824374,9.64094208 18.4892954,11.9312609 21.6317732,13.7025227 C23.8325102,14.9427617 26.1574328,15.8447243 28.63403,16.3547261 C29.5159418,16.5361535 30.4065854,16.6512839 31.3011098,16.7243723 C31.6080164,16.7492741 31.7558102,16.8356219 31.7480397,17.1593453 C31.7347892,17.6719343 31.740287,18.1848467 31.745138,18.6977591 C31.7474018,18.9616535 31.6358288,19.0939241 31.3641728,19.0796945 C31.240634,19.0729031 31.1164484,19.0793711 30.9925862,19.0793711 L0.69970824,19.0793711 C0.02638944,19.0793711 0.02606604,19.0787243 0.02606604,18.3814739 C0.02606604,16.6309097 0.08298444,14.8777583 0.00633864,13.1304281 C-0.04572876,11.9532521 0.22883784,10.9377761 0.81516204,9.92294688 C2.15015724,7.61225388 3.48935664,5.30835228 5.10668004,3.18005688 C5.86472964,2.18301468 6.63894924,1.19664468 7.60720884,0.38555748 C7.67027184,0.33284328 7.74077304,0.28821408 7.87077984,0.19442808" id="Fill-4"></path>
            </g>
            <path d="M16.6976271,6.28951554 C16.6497639,6.29307294 16.6015773,6.29663034 16.5537141,6.30018774 C16.4560473,6.22903974 16.3583805,6.15724494 16.1614299,6.01300854 C16.5252549,5.99586834 16.6106325,6.14333874 16.6976271,6.28951554" id="Fill-7" fill="#A7B6DD"></path>
            <path d="M25.3735436,15.0229002 C25.4123516,14.9840922 25.451483,14.9452842 25.490291,14.9064762 C25.605098,14.986356 25.6749524,15.0924312 25.6865948,15.2399016 C25.4857634,15.3003774 25.4524532,15.1280052 25.3735436,15.0229002" id="Fill-9" fill="#B4C0E2"></path>
            <path d="M16.6764767,15.1005809 C16.6797107,15.1477973 16.6832681,15.1953371 16.6861787,15.2425535 C16.6421963,15.3457181 16.5587591,15.3929345 16.4093483,15.4155725 C16.4368373,15.2393195 16.5539081,15.1678481 16.6764767,15.1005809" id="Fill-11" fill="#A9B7DD"></path>
            <polygon id="Fill-13" fill="#FEFEFE" points="21.0904016 2.13172344 21.0904016 10.7254316 19.6043786 9.24102564"></polygon>
            <polygon id="Fill-15" fill="#FEFEFE" points="16.2731646 5.84231802 19.604508 9.24157542 18.4299192 9.24157542"></polygon>
            <polygon id="Fill-17" fill="#FEFEFE" points="29.6942646 10.7255287 21.090531 10.7255287 22.5762306 9.24144606"></polygon>
            <polygon id="Fill-19" fill="#FEFEFE" points="26.0033004 5.91398346 22.5762306 9.24112266 22.6004856 8.06815086"></polygon>
            <polygon id="Fill-21" fill="#FEFEFE" points="21.0904016 19.3189781 21.0904016 10.7255933 22.5764246 12.2096759"></polygon>
            <polygon id="Fill-23" fill="#FEFEFE" points="25.9316026 15.6327356 22.5763276 12.2095466 23.750593 12.2334782"></polygon>
            <polygon id="Fill-25" fill="#FEFEFE" points="12.4865063 10.7255287 21.0902399 10.7255287 19.6045403 12.2096113"></polygon>
            <polygon id="Fill-27" fill="#FEFEFE" points="16.2011758 15.5607144 19.604314 12.2096436 19.604314 13.3826154"></polygon>
        </g>
    </g>
</svg>