<?xml version="1.0" encoding="UTF-8"?>
<svg width="42px" height="42px" viewBox="0 0 42 42" version="1.1" xmlns="http://www.w3.org/2000/svg" xmlns:xlink="http://www.w3.org/1999/xlink">
    <title>[00093] Banco de La Pampa Sociedad de Economía</title>
    <defs>
        <polygon id="path-1" points="0 0.0304383571 3.43617705 0.0304383571 3.43617705 5.09032398 0 5.09032398"></polygon>
        <polygon id="path-3" points="0.010965567 0.118791107 4.26073074 0.118791107 4.26073074 5.508 0.010965567 5.508"></polygon>
    </defs>
    <g id="[00093]-Banco-de-La-Pampa-Sociedad-de-Economía" stroke="none" stroke-width="1" fill="none" fill-rule="evenodd">
        <g id="Group-31" transform="translate(4.000000, 15.000000)">
            <path d="M20.0048136,7.3907005 C20.5137528,6.4950997 22.130461,6.40344658 22.5805748,7.4061229 C22.6010645,7.36558402 22.6116399,7.33804402 22.6277232,7.31402914 C23.0357559,6.7176229 23.7744888,6.58146514 24.4222296,6.74890834 C24.901646,6.87272818 25.1614032,7.23184978 25.2105346,7.82517154 C25.275529,8.60752786 25.2268383,9.3923077 25.2387356,10.1759859 C25.2442436,10.5414968 25.2398372,10.5414968 24.8674964,10.5414968 C24.619416,10.5414968 24.3706748,10.5300402 24.123696,10.5454626 C23.9562528,10.5558176 23.926069,10.4925858 23.9280519,10.3414463 C23.9362037,9.74746354 23.931577,9.15370114 23.9311364,8.55993874 C23.930916,8.45066002 23.9302551,8.3413813 23.904698,8.23320418 C23.8504992,8.00495266 23.749813,7.81790098 23.4920386,7.78198882 C23.2358064,7.74629698 23.0260618,7.8346453 22.8799896,8.05210114 C22.7334768,8.27043826 22.6885316,8.52138274 22.6843455,8.7765133 C22.6759733,9.30682354 22.6761936,9.8373541 22.6817016,10.3676643 C22.6830236,10.4978735 22.6568055,10.5500893 22.5129365,10.5450219 C22.1901677,10.5337856 21.866738,10.5355482 21.5439692,10.5441407 C21.4115568,10.5478861 21.3659506,10.5143975 21.3677132,10.3733927 C21.3756447,9.77985058 21.3714586,9.18586786 21.3705773,8.59210546 C21.370357,8.47114978 21.3723399,8.3501941 21.343478,8.23078066 C21.2901605,8.01046066 21.1952026,7.82649346 20.9458004,7.7850733 C20.6893479,7.74255154 20.4767391,7.82561218 20.3280231,8.03976322 C20.1563938,8.28718258 20.1222442,8.57470018 20.1196004,8.86530226 C20.115194,9.3669709 20.113872,9.86863954 20.1213629,10.3700879 C20.1233458,10.5040424 20.0896368,10.549208 19.949954,10.5448016 C19.6216772,10.5346669 19.2925191,10.5370904 18.9638016,10.5439203 C18.847693,10.5461235 18.80429,10.5172616 18.8049435,10.3918995 C18.8093573,9.23301634 18.809137,8.07435346 18.8049435,6.91547026 C18.8045103,6.79892098 18.8424053,6.76675426 18.9532263,6.76873714 C19.2585898,6.77424514 19.5646143,6.77446546 19.8701981,6.76873714 C19.9785956,6.76653394 20.0107623,6.80641186 20.0065762,6.90952162 C19.9999666,7.06969426 20.0048136,7.23008722 20.0048136,7.3907005" id="Fill-1" fill="#F7C721"></path>
            <g id="Group-5" transform="translate(0.000000, 5.453625)">
                <mask id="mask-2" fill="white">
                    <use xlink:href="#path-1"></use>
                </mask>
                <g id="Clip-4"></g>
                <path d="M0.002798064,2.55090902 C0.002798064,1.76679014 0.005441904,0.982671264 -8.70870308e-05,0.198552384 C-0.000947376,0.073630944 0.025491024,0.026702784 0.160767504,0.030668544 C0.500721264,0.040362624 0.841556304,0.040142304 1.18151006,0.030888864 C1.3163459,0.027143424 1.35666446,0.063275904 1.3560035,0.202518144 C1.3504955,1.4303615 1.35578318,2.65842518 1.34917358,3.88648886 C1.3482923,4.0433567 1.38706862,4.09028486 1.54790222,4.08764102 C2.12447966,4.0775063 2.70127742,4.08653942 3.27807518,4.08103142 C3.39594638,4.07992982 3.44067134,4.10967302 3.4358243,4.23437414 C3.42657086,4.47033686 3.4281131,4.70718086 3.43538366,4.94314358 C3.4391291,5.0557271 3.40409822,5.09053766 3.28997246,5.09009702 C2.24014766,5.08635158 1.19054318,5.08591094 0.140498064,5.09032398 C0.018440784,5.0909783 0.000594864,5.04228758 0.001035504,4.9378559 C0.004340304,4.14228038 0.002798064,3.34648454 0.002798064,2.55090902" id="Fill-3" fill="#F7C721" mask="url(#mask-2)"></path>
            </g>
            <path d="M4.37971925,1.1253505 C4.57756661,0.821308896 4.92831605,0.768652416 5.21627429,0.851052096 C5.47647221,0.925520256 5.58949637,1.12689274 5.63047589,1.3787185 C5.64435605,1.46530426 5.64744053,1.55255098 5.64699989,1.64067898 C5.64567797,1.9570585 5.64501701,2.27387866 5.647892,2.5904785 C5.64832181,2.65150714 5.63554325,2.68058938 5.56878629,2.67265786 C5.48572565,2.66296378 5.37776885,2.7083497 5.32467173,2.65349002 C5.27554037,2.60281642 5.31145253,2.49706282 5.31079157,2.41554442 C5.30858837,2.15821066 5.30902901,1.90109722 5.30924933,1.64376346 C5.30924933,1.56687178 5.29999589,1.4910817 5.28325157,1.41683386 C5.20680053,1.07930362 4.84437413,0.971787456 4.58814197,1.20951274 C4.46013605,1.32782458 4.40924213,1.48160794 4.39205717,1.64816986 C4.36033109,1.95551626 4.38104117,2.26396426 4.37971925,2.5717513 C4.37927861,2.65393066 4.35746693,2.68367386 4.27594853,2.67287818 C4.23144389,2.66714986 4.18517669,2.66803114 4.14045173,2.67287818 C4.06510229,2.68125034 4.03778261,2.65789642 4.03843189,2.57637802 C4.04218901,2.03350954 4.04152805,1.49064106 4.03888421,0.947772576 C4.03866389,0.877049856 4.05937397,0.851713056 4.13009669,0.857882016 C4.20588677,0.864491616 4.30282757,0.835409376 4.35261989,0.872643456 C4.40703893,0.913182336 4.36385621,1.0151905 4.37222837,1.0900993 C4.37310965,1.0978105 4.37531285,1.10530138 4.37971925,1.1253505" id="Fill-6" fill="#939086"></path>
            <path d="M7.30585526,2.35173974 C7.32436214,2.41364966 7.32149798,2.4735767 7.33097174,2.53152086 C7.3448519,2.6178863 7.31488838,2.6575439 7.22852294,2.67803366 C6.62242262,2.82300422 6.12273686,2.51896262 6.01500038,1.95957014 C5.9237879,1.4865431 6.13948118,0.988399584 6.64577654,0.852241824 C6.85287734,0.796721184 7.06019846,0.810160704 7.26531638,0.867884544 C7.28139974,0.872290944 7.2985847,0.877798944 7.31136326,0.887493024 C7.32656534,0.898729344 7.3051943,1.13975942 7.28955158,1.1516567 C7.27280726,1.16443526 7.25760518,1.1505551 7.24284374,1.14548774 C7.17013814,1.12169318 7.0969919,1.10230502 7.02054086,1.09393286 C6.63035414,1.05052982 6.43757414,1.31403254 6.37632518,1.56541766 C6.34107398,1.71148982 6.34415846,1.8566807 6.3842567,2.00054966 C6.48031622,2.34336758 6.79118774,2.51279366 7.13929334,2.41254806 C7.19327174,2.39712566 7.24504694,2.37421238 7.30585526,2.35173974" id="Fill-8" fill="#939086"></path>
            <g id="Group-12" transform="translate(25.777440, 6.555225)">
                <mask id="mask-4" fill="white">
                    <use xlink:href="#path-3"></use>
                </mask>
                <g id="Clip-11"></g>
                <path d="M2.7744457,2.64923784 C2.54156746,3.13085736 1.9460425,3.21986664 1.58097226,2.82901896 C1.23683242,2.46130488 1.2277993,1.75848408 1.56224506,1.38063528 C1.88831866,1.01226024 2.47018378,1.05720552 2.73456778,1.47250872 C2.85243898,1.65757752 2.90068906,1.86247512 2.89540138,2.08059192 C2.8978249,2.27910024 2.86103146,2.470338 2.7744457,2.64923784 M3.9972217,1.01137896 C3.49951882,0.01443096 2.14168666,-0.18870408 1.41991834,0.61215912 C1.35646618,0.68222088 1.30226746,0.76043448 1.22030842,0.86464584 C1.22030842,0.69654168 1.20995338,0.56434968 1.22295226,0.4345812 C1.2399169,0.26669736 1.1958529,0.19795752 1.0096825,0.2109564 C0.745739136,0.22902264 0.479151936,0.22395528 0.214547616,0.212058 C0.060984576,0.20522808 0.010310976,0.24334344 0.010965567,0.4081428 C0.017581536,2.0451204 0.015158016,3.68187768 0.015158016,5.31885528 C0.015158016,5.3477172 0.017140896,5.37657912 0.014937696,5.40522072 C0.008768736,5.47858728 0.039613536,5.50833048 0.114742656,5.50788984 C0.477830016,5.50568664 0.841358016,5.505246 1.20444538,5.50812033 C1.28684506,5.50877112 1.31636794,5.47726536 1.31460538,5.39640792 C1.31108026,5.2177284 1.3137241,5.0392692 1.3137241,4.86036936 L1.3137241,3.51817992 C1.48821754,3.7162476 1.67196442,3.86738712 1.90241914,3.96146376 C2.66384506,4.2725556 3.54380314,3.98746152 3.93839626,3.26723544 C4.34025994,2.53356984 4.37374858,1.76575464 3.9972217,1.01137896" id="Fill-10" fill="#F7C721" mask="url(#mask-4)"></path>
            </g>
            <path d="M12.3387792,7.76484792 C12.1270517,7.83358776 11.9078333,7.82323272 11.6894962,7.82455539 C11.6055543,7.82477496 11.5996056,7.77630456 11.599826,7.71263208 C11.6013682,7.51720824 11.6002666,7.32156408 11.6004869,7.12636056 C11.6004869,6.93666504 11.6015885,6.74696952 11.599826,6.55749432 C11.5993853,6.49139832 11.6106216,6.44733432 11.69214,6.44820262 C11.9045285,6.45085944 12.1180186,6.43741992 12.3253397,6.50021112 C12.6177044,6.58900008 12.7728096,6.8018292 12.7765551,7.11842904 C12.7805208,7.44868872 12.6315845,7.66944936 12.3387792,7.76484792 M13.003705,5.62774392 C12.7816224,5.56385112 12.5544725,5.52661704 12.3235772,5.510754 C11.6901572,5.46669 11.0556356,5.499738 10.4217749,5.48475624 C10.2869391,5.48167176 10.2459596,5.51692296 10.2472507,5.6561652 C10.2538911,6.43962312 10.250366,7.22352168 10.250366,8.00742024 C10.250366,8.7968268 10.2527895,9.58623336 10.2479424,10.3758602 C10.2472507,10.4976972 10.2695338,10.5488114 10.4067932,10.5448457 C10.7524752,10.534711 11.0988183,10.534711 11.44428,10.5448457 C11.5824207,10.5490318 11.6042324,10.4959346 11.6026901,10.374979 C11.5965212,9.89666424 11.604673,9.4181292 11.5971821,8.9400348 C11.5951992,8.81246952 11.6271456,8.77016808 11.759558,8.77347288 C12.0702092,8.78074344 12.381301,8.78404824 12.6910709,8.732934 C13.5044924,8.59765752 14.0207021,8.127054 14.1070676,7.37157672 C14.2055506,6.51144744 13.879477,5.87956968 13.003705,5.62774392" id="Fill-13" fill="#F7C721"></path>
            <path d="M6.12443333,9.20596104 C5.97703925,9.61134984 5.59632629,9.829026 5.19776741,9.73583064 C5.00190293,9.69000408 4.87477829,9.56442168 4.85296661,9.39565656 C4.82917205,9.20838456 4.92324869,9.03785688 5.11030037,8.95061016 C5.33612837,8.84507688 5.57759909,8.84265336 5.82017141,8.85785544 C5.84903333,8.85917736 5.87767493,8.8607196 5.90653685,8.8618212 C6.21101909,8.87526072 6.23239013,8.90941032 6.12443333,9.20596104 M7.45758965,10.4320418 C7.40030645,10.1130185 7.40515349,9.78958872 7.40581445,9.46681992 C7.40691605,9.0457884 7.41066149,8.62475688 7.40515349,8.20394568 C7.39567973,7.4594844 7.00351013,6.93886824 6.29319845,6.76966248 C5.58464933,6.60089736 4.88447237,6.67867032 4.19927717,6.9141924 C4.13119829,6.937326 4.09748933,6.97015368 4.09903157,7.04990952 C4.10453957,7.30217592 4.10101445,7.55488296 4.10101445,7.83887544 C4.20985253,7.79194728 4.26669509,7.76550888 4.32530021,7.74237528 C4.75822901,7.57206792 5.20481765,7.50883608 5.66506613,7.5905748 C5.95412597,7.64168904 6.13588997,7.82477496 6.17025989,8.06580504 C6.18414005,8.16208488 6.17025989,8.19997992 6.05789669,8.1854388 C5.88120005,8.16296616 5.70141893,8.14820472 5.52318005,8.15217048 C5.10699557,8.16142392 4.69389557,8.20108152 4.30899653,8.38196424 C3.52553861,8.74967832 3.38034773,9.80170632 4.03954517,10.3300337 C4.66172885,10.8281772 5.65955813,10.7120686 6.14690597,10.0848175 C6.17070053,10.054193 6.19625765,10.0248905 6.23106821,9.98258904 C6.27469157,10.1341692 6.26433653,10.2729708 6.26874293,10.4093489 C6.27204773,10.4999004 6.29297813,10.545066 6.39608789,10.5433034 C6.71907701,10.5380158 7.04228645,10.5399986 7.36527557,10.5422018 C7.44811589,10.5428628 7.47345269,10.522373 7.45758965,10.4320418" id="Fill-15" fill="#F7C721"></path>
            <path d="M32.8535015,8.95746211 C32.8120813,9.33244675 32.5569508,9.74532643 32.051757,9.76163011 C31.6818397,9.76163011 31.4542492,9.51839683 31.5421569,9.21766003 C31.5824754,9.07863811 31.6789756,8.99359459 31.8063205,8.93961619 C32.1279877,8.80345843 32.4639757,8.86140259 32.7964386,8.87197795 C32.8521796,8.87396083 32.8581282,8.91361843 32.8535015,8.95746211 M34.1280527,10.3983549 C34.0967673,10.2115236 34.0806839,10.0205061 34.0784807,9.83125123 C34.0714305,9.28353571 34.0789213,8.73604051 34.0729727,8.18854531 C34.0654818,7.46126899 33.6849892,6.95166883 32.9837106,6.77585347 C32.2705348,6.59673331 31.5648498,6.67715011 30.8745873,6.91487539 C30.8331671,6.92897587 30.779409,6.93602611 30.779409,6.99793603 C30.7787481,7.27047187 30.7789684,7.54256707 30.7789684,7.83735523 C30.8721637,7.79703667 30.9239389,7.77368275 30.9765954,7.75187107 C31.4130493,7.57341187 31.8647053,7.50973939 32.3311228,7.58971555 C32.553646,7.62783091 32.7318849,7.73512675 32.8147252,7.95963283 C32.8940404,8.17378387 32.878618,8.19361267 32.657637,8.17642771 C32.5944052,8.17158067 32.531614,8.16210691 32.4683821,8.15990371 C31.8924657,8.13941395 31.3209556,8.16232723 30.8133383,8.47738483 C30.168021,8.87792659 30.1188897,9.86650243 30.7119911,10.331598 C31.3500378,10.832165 32.3320041,10.7105484 32.829046,10.0702984 C32.8490951,10.0443007 32.8612127,10.0081682 32.9213601,9.99913507 C32.92819,10.1412415 32.938545,10.2727725 32.9394263,10.4043036 C32.9398669,10.5052101 32.9748978,10.5459693 33.0821937,10.5437661 C33.3877775,10.5373768 33.6935817,10.5380378 33.9989452,10.5433255 C34.1104271,10.5453084 34.1489831,10.5228357 34.1280527,10.3983549" id="Fill-17" fill="#F7C721"></path>
            <path d="M16.8742868,9.10785254 C16.7531108,9.57647318 16.3501455,9.84129782 15.9183183,9.73576454 C15.7206912,9.68729414 15.5962104,9.56171174 15.5783645,9.39250598 C15.5574341,9.19576022 15.6462231,9.03646886 15.8370202,8.94856118 C16.0632888,8.84457014 16.3047596,8.8408247 16.5720077,8.85933158 C16.5995477,8.86043318 16.6511026,8.86307702 16.7030981,8.8650599 C16.9284855,8.87431334 16.9331122,8.88070262 16.8742868,9.10785254 M18.1794624,10.4174346 C18.1616165,10.2922929 18.1479567,10.1660495 18.1402455,10.0395858 C18.1010285,9.38898086 18.1453128,8.7372743 18.1160103,8.08666934 C18.086928,7.44443654 17.7214172,6.96876566 17.101657,6.79559414 C16.3664492,6.59003558 15.6402744,6.67375718 14.9257767,6.91258406 C14.8590197,6.9350567 14.8211247,6.9681047 14.8224466,7.04786054 C14.8270733,7.30034726 14.8242092,7.55283398 14.8242092,7.83902966 C14.9255564,7.79518598 14.9722642,7.77381494 15.0198533,7.75442678 C15.4618152,7.57376438 15.9187589,7.50634646 16.391125,7.59116966 C16.6420695,7.63633526 16.8249351,7.7722727 16.8886076,8.0344535 C16.913724,8.13778358 16.9190117,8.21930198 16.765669,8.1831695 C16.682388,8.16356102 16.59426,8.16245942 16.5076743,8.15915462 C15.9729576,8.13778358 15.4477148,8.17413638 14.9572824,8.41913222 C14.1810951,8.80645478 14.2344125,9.83689142 14.6653584,10.2506524 C15.2492064,10.8107058 16.3428749,10.7481349 16.8467468,10.1171385 C16.8795744,10.0761589 16.893014,10.0113849 16.9641773,9.9997079 C16.9758543,10.1466613 16.991497,10.2889881 16.9965644,10.4321961 C16.9992082,10.5121722 17.0263076,10.5434577 17.1084869,10.5425764 C17.431476,10.5394919 17.7544652,10.5383903 18.077234,10.5432373 C18.1770389,10.5445593 18.19158,10.5022578 18.1794624,10.4174346" id="Fill-19" fill="#F7C721"></path>
            <path d="M0.961542576,2.3474435 C0.791675856,2.38732142 0.618504336,2.37035678 0.446654736,2.37366158 C0.399946896,2.37476318 0.400607856,2.34369806 0.400607856,2.31131102 C0.400828176,2.19255854 0.400607856,2.07402638 0.400607856,1.95549422 C0.400607856,1.83696206 0.401048496,1.7184299 0.400377654,1.59967742 C0.400167216,1.56552782 0.403251696,1.53908942 0.448637616,1.53930838 C0.629079696,1.54063166 0.810403056,1.53071726 0.985777776,1.58667854 C1.1853877,1.6501307 1.27615954,1.78540718 1.26822802,2.00396462 C1.26161842,2.18044094 1.15432258,2.3022779 0.961542576,2.3474435 M0.399940655,0.539277264 C0.399506256,0.491467824 0.422419536,0.483095664 0.462297456,0.484197264 C0.524648016,0.486180144 0.586778256,0.484637904 0.660585456,0.484637904 C0.736375536,0.487722384 0.823401936,0.480892464 0.910868976,0.498297744 C1.11532594,0.539497584 1.2283501,0.663317424 1.2294517,0.855216144 C1.23077362,1.06099502 1.1225965,1.18789934 0.908886096,1.22755694 C0.757746576,1.25553758 0.604624176,1.24760606 0.451942416,1.24892798 C0.409640976,1.24936862 0.399940655,1.22976014 0.400167216,1.19208542 C0.401268816,0.974629584 0.401709456,0.756733104 0.399940655,0.539277264 M1.09351426,1.4088803 C1.1589493,1.38310286 1.20653842,1.36635854 1.25236498,1.34586878 C1.46431282,1.25091086 1.57469314,1.08346766 1.58438722,0.854995824 C1.59364066,0.635997744 1.52820562,0.446522544 1.33057858,0.324905904 C1.18450642,0.235235664 1.02036802,0.202628304 0.852484176,0.197781264 C0.615199536,0.191171664 0.377474256,0.197560944 0.139969296,0.191832624 C0.062196336,0.189849744 0.040825296,0.211661424 0.0412592949,0.289875024 C0.044130096,1.0530635 0.043028496,1.8164723 0.043028496,2.57966078 C0.043028496,2.59376126 0.043909776,2.60808206 0.043028496,2.62196222 C0.040604976,2.65765406 0.056468016,2.67307646 0.092820816,2.67219518 C0.423080496,2.66492462 0.754882416,2.69466782 1.08315922,2.63804558 C1.4310445,2.57789822 1.63175602,2.37211934 1.6436533,2.06829806 C1.6579741,1.69838078 1.48810738,1.48863614 1.09351426,1.4088803" id="Fill-21" fill="#939086"></path>
            <path d="M11.9870163,1.75985006 C11.9903211,1.92046334 11.9570528,2.0643323 11.8777376,2.19586334 C11.7750685,2.36573006 11.6254712,2.45077358 11.4258613,2.43733406 C11.2388096,2.42477582 11.1202775,2.31197198 11.0462499,2.15223998 C10.9301413,1.90195646 10.9279381,1.6424195 11.0270821,1.38706862 C11.0922968,1.21874414 11.2143541,1.1081435 11.4058122,1.09250078 C11.6199632,1.07487518 11.7790343,1.16124062 11.8850082,1.34476718 C11.9603576,1.4749763 11.9916431,1.61730302 11.9870163,1.75985006 M12.3102258,0.026592624 C12.2582303,-0.026284176 12.1544595,0.018000144 12.0740427,0.008085744 C11.9986933,-0.001167696 11.9856944,0.034964784 11.9863554,0.101060784 C11.9892195,0.400475664 11.9878976,0.700110864 11.9870163,0.999746064 C11.9870163,1.02618446 11.9960495,1.05460574 11.9768816,1.08214574 C11.9693907,1.07553614 11.9630015,1.07112974 11.9579341,1.06540142 C11.5952874,0.649657584 10.9039232,0.756953424 10.6959411,1.26699422 C10.5481064,1.62942062 10.5677149,1.99316894 10.7477163,2.33995262 C10.8719768,2.57922014 11.0792979,2.7021587 11.3520541,2.71053086 C11.6045408,2.71824206 11.8178106,2.63628302 11.992304,2.4322667 C12.0167595,2.51731022 11.9687298,2.61006494 12.0196237,2.6558915 C12.0705176,2.70171806 12.1608488,2.6636027 12.2326731,2.67285614 C12.3091242,2.68277054 12.3265295,2.65324766 12.3263091,2.57922014 C12.323445,1.80479534 12.3249872,1.03037054 12.3238856,0.255945744 C12.3238856,0.177511824 12.3580352,0.075283344 12.3102258,0.026592624" id="Fill-23" fill="#939086"></path>
            <path d="M3.05350301,2.32419974 C2.90676989,2.44339286 2.73734381,2.47269542 2.55998621,2.40902294 C2.45269037,2.37046694 2.38064573,2.29203302 2.37029069,2.17085702 C2.35971533,2.04307142 2.42008301,1.95296054 2.52759917,1.89391478 C2.66816333,1.81636214 2.82282797,1.8027023 2.97969581,1.80688838 C3.03058973,1.80688838 3.08170397,1.80953222 3.13215725,1.80622742 C3.18569501,1.80292262 3.20486285,1.81988726 3.20618477,1.87717046 C3.21015053,2.0461559 3.19582973,2.20853174 3.05350301,2.32419974 M3.54239309,1.8192263 C3.53952893,1.6639007 3.54878237,1.50879542 3.52719101,1.35369014 C3.49083821,1.08798422 3.33617357,0.900712224 3.08500877,0.846072864 C2.84750381,0.794517984 2.61043949,0.803110464 2.38637405,0.903356064 C2.17905293,0.996110784 2.21342285,0.953148384 2.23016717,1.16774006 C2.23237037,1.1957207 2.23435325,1.22370134 2.23809869,1.26886694 C2.42052365,1.1340311 2.61132077,1.07983238 2.82260765,1.09172966 C3.06517997,1.10560982 3.20111741,1.24595366 3.20486285,1.48786502 C3.20574413,1.53919958 3.19230461,1.5570455 3.13898717,1.55528294 C3.01450637,1.55131718 2.88980525,1.5493343 2.76532445,1.55462198 C2.58796685,1.56233318 2.41854077,1.60617686 2.26607933,1.7002535 C2.07021485,1.8214295 1.99200125,2.00054966 2.01513485,2.2268183 C2.03606525,2.43039398 2.13785309,2.5782287 2.32975181,2.65247654 C2.59435613,2.75492534 2.97506909,2.74765478 3.19825325,2.48481302 C3.20640509,2.47511894 3.21389597,2.46013718 3.23152157,2.4647639 C3.26633213,2.52931766 3.19582973,2.62934294 3.27073853,2.66349254 C3.33419069,2.69257478 3.42077645,2.67098342 3.49722749,2.6718647 C3.50273549,2.67208502 3.50824349,2.67164438 3.51419213,2.6718647 C3.54834173,2.67340694 3.55495133,2.6575439 3.55274813,2.6244959 C3.53203805,2.35636646 3.54724013,2.08757606 3.54239309,1.8192263" id="Fill-25" fill="#939086"></path>
            <path d="M13.9307234,1.58879362 C13.795447,1.58725138 13.6599502,1.58813266 13.5244534,1.58813266 C13.392041,1.58813266 13.2594084,1.58725138 13.1269961,1.58879362 C13.0862369,1.58923426 13.0604594,1.5819637 13.0692722,1.53283234 C13.1199458,1.25522914 13.3193354,1.01970706 13.6751522,1.10783506 C13.8586788,1.1534413 13.9908708,1.34313682 13.9906508,1.53217138 C13.9906508,1.57931986 13.9719233,1.58923426 13.9307234,1.58879362 M14.3495518,1.75733842 C14.340739,1.71944338 14.3460266,1.67824354 14.3429422,1.63902658 C14.3325871,1.49692018 14.3043862,1.35855922 14.2453404,1.22879074 C14.1052169,0.922325616 13.8527302,0.811945296 13.529741,0.818775216 C13.155197,0.826927056 12.8531383,1.04702674 12.7515708,1.39997938 C12.6753401,1.6656853 12.687017,1.93073026 12.7804327,2.19048754 C12.8430036,2.36454034 12.951401,2.5062061 13.1170817,2.59036834 C13.4654076,2.76706498 13.8205634,2.74437202 14.1761599,2.60843458 C14.2014967,2.5987405 14.2109705,2.58287746 14.2107502,2.55732034 C14.2107502,2.46522658 14.2107502,2.3729125 14.2107502,2.26781986 C14.0664406,2.3508805 13.9256561,2.40441826 13.7742962,2.43107698 C13.4314783,2.49166498 13.1054047,2.26098994 13.0672894,1.93271314 C13.0595782,1.86441394 13.0727974,1.83841618 13.1488078,1.83907714 C13.5222502,1.84260226 13.8956926,1.8397381 14.269135,1.84172098 C14.3330278,1.84216162 14.366957,1.83180658 14.3495518,1.75733842" id="Fill-27" fill="#939086"></path>
            <path d="M8.89929763,2.22177298 C8.70034867,2.5062061 8.27138563,2.51678146 8.05877683,2.24314402 C7.85740435,1.9840477 7.85542147,1.55838946 8.05415011,1.29929314 C8.28901123,0.992607696 8.73229507,1.02367282 8.92926115,1.3605421 C8.99844163,1.47907426 9.03259123,1.6128085 9.03237091,1.78509874 C9.03501475,1.93161154 8.99535715,2.08517458 8.89929763,2.22177298 M8.47760515,0.819654102 C7.92702547,0.818554896 7.55204083,1.19772562 7.54960611,1.75777906 C7.54719379,2.3002069 7.93826179,2.7077989 8.46394531,2.71067834 C8.99866195,2.71352722 9.38928931,2.3134261 9.38928931,1.7626261 C9.38928931,1.20036946 9.02223619,0.820758096 8.47760515,0.819654102" id="Fill-29" fill="#939086"></path>
        </g>
    </g>
</svg>