<?xml version="1.0" encoding="UTF-8"?>
<svg width="42px" height="42px" viewBox="0 0 42 42" version="1.1" xmlns="http://www.w3.org/2000/svg" xmlns:xlink="http://www.w3.org/1999/xlink">
    <title>[00097] Banco Provincia de Neuquén</title>
    <defs>
        <polygon id="path-1" points="8.51921445e-05 0.0364374484 33.142824 0.0364374484 33.142824 33.176 8.51921445e-05 33.176"></polygon>
    </defs>
    <g id="[00097]-Banco-Provincia-de-Neuquén" stroke="none" stroke-width="1" fill="none" fill-rule="evenodd">
        <g id="Group-6" transform="translate(4.000000, 4.000000)">
            <path d="M31.4837952,14.2528958 C29.9883012,5.2464698 20.6358152,-0.4566562 11.9728752,2.3555818 C4.5880692,4.7531198 0.1933932,12.1813978 1.6591432,19.7878538 C2.8511912,25.9728898 8.2946292,31.1143118 14.3386672,31.8021418 C15.0310732,31.8810778 15.3965812,31.7861258 15.4083072,30.9961938 C15.4609312,27.4537978 15.5478752,23.9119738 15.6059332,20.3695778 C15.6213772,19.4289238 15.2206912,19.1683778 14.3918632,19.6308398 C13.8124272,19.9540198 13.2467192,20.3221018 12.5954972,20.4087598 C11.8593332,20.5071438 11.0419452,20.7559638 10.4061672,19.9980638 C11.0059092,19.6737398 11.7151892,20.1367738 12.2188352,19.5702078 C11.6591332,19.4014678 11.1288892,19.2598978 10.6123732,19.0791458 C10.3518272,18.9881978 10.0383712,18.8183138 10.1770812,18.4882698 C10.2909092,18.2174278 10.6072252,18.3755858 10.8368832,18.4007538 C11.6173772,18.4865538 12.3672692,18.8354738 13.2767492,18.7533918 C12.8168612,18.1516478 12.0967132,18.3798758 11.6291032,18.0006398 C12.5723312,17.2967938 13.2278432,17.3831658 14.2514372,18.4133378 C14.6092232,18.7731258 14.9867432,18.8523478 15.3737012,18.6984798 C15.8507492,18.5088618 15.5861992,18.0280958 15.5907752,17.6843238 C15.5970672,17.1969798 15.1689252,17.2118518 14.8303012,17.1872558 C14.0357932,17.1291978 13.2372812,17.1586558 12.4493512,16.9744718 C11.2555872,16.6947638 10.0340812,16.3547098 9.1775112,17.6909018 C9.0948572,17.8204598 8.8946572,17.8988238 8.7327812,17.9488738 C8.3581212,18.0647038 7.8830752,18.4490878 7.6122332,17.9631738 C7.3050692,17.4111938 7.9560052,17.3531358 8.2543032,17.1366338 C8.3930132,17.0356758 8.5820592,16.9964938 8.7041812,16.8823798 C8.8717772,16.7256518 9.3628392,16.6941918 9.0656852,16.3123818 C8.8042812,15.9769038 8.5749092,16.3115238 8.3872932,16.4871278 C7.8227292,17.0150838 7.1197412,17.1798198 6.3895832,17.2610438 C6.0867092,17.2945058 5.6968912,17.3236778 5.6291092,16.9241358 C5.5601832,16.5203038 5.9700212,16.6000978 6.2036832,16.4939918 C6.5955032,16.3158138 7.0859932,16.3595718 7.4883952,15.9045458 C7.0279352,15.9045458 6.6692912,15.8953938 6.3115052,15.9065478 C5.6376892,15.9274258 4.9944752,15.8153138 4.4190432,15.4523798 C4.1885272,15.3073778 3.8876552,15.0914478 4.0418092,14.7997278 C4.1962492,14.5074358 4.5168552,14.6441438 4.7819772,14.7551118 C5.2922012,14.9684678 5.7789732,15.3256818 6.5600392,15.0877298 C5.9663032,14.6624478 5.4766712,14.3592878 5.0468132,13.9872018 C4.7293532,13.7126418 4.0704092,13.3934658 4.3584112,12.9847718 C4.7413652,12.4422298 5.0754132,13.1806818 5.4440672,13.3294018 C5.5310112,13.3642938 5.6299672,13.3694418 5.8564792,13.4154878 C5.6545632,12.7905778 5.4966912,12.2377398 5.2953472,11.7009178 C5.1800892,11.3943258 5.1769432,11.1160478 5.4903992,11.0010758 C5.8004232,10.8872478 5.8693492,11.2155758 5.9745972,11.4186358 C6.3106472,12.0681418 6.3918712,12.8534978 6.9764552,13.4163458 C7.1972472,12.9922078 6.9146792,12.6916218 6.8720652,12.3590038 C6.8294512,12.0209518 6.8726372,11.6677418 7.2458672,11.6134018 C7.7011792,11.5473358 7.6665732,11.9508818 7.6940292,12.2586178 C7.7563772,12.9521678 7.8805012,13.6359938 8.1544892,14.2769198 C8.2700332,14.5471898 8.4053112,14.9641778 8.7819732,14.8403398 C9.1103012,14.7322318 8.9235432,14.3630058 8.8649132,14.1133278 C8.8122892,13.8911058 8.7682452,13.6820398 9.0333672,13.6065358 C9.2687452,13.5396118 9.4472092,13.7069218 9.5161352,13.9042618 C9.6408312,14.2617618 9.6997472,14.6415698 9.8175792,15.0019298 C9.8833592,15.2032738 10.0432332,15.3791638 10.2657412,15.3831678 C10.3564032,15.3845978 10.4833872,15.2330178 10.5360112,15.1231938 C10.6684292,14.8469178 10.3895792,14.2986558 10.9166772,14.3149578 C11.3010612,14.3269698 11.2936252,14.8343338 11.4329072,15.1394958 C11.5184212,15.3273978 11.6102272,15.5152998 11.7214812,15.6886158 C11.8696292,15.9177018 12.1218812,16.0395378 12.3483932,15.9062618 C12.6206652,15.7461018 12.4779512,15.4829818 12.3566872,15.2687678 C12.2205512,15.0273838 12.0515252,14.8017298 11.9388412,14.5500498 C11.8227252,14.2895038 11.7600912,13.9791938 12.0992872,13.8376238 C12.4473492,13.6920498 12.5983572,13.9311458 12.6744332,14.2365938 C12.7925512,14.7107818 12.9575732,15.1672378 13.2756052,15.5461878 C13.4812392,15.7912898 13.7357792,16.0157998 14.0818392,15.8988258 C14.5474472,15.7415258 14.1656372,15.4426558 14.1487632,15.2135698 C14.1301732,14.9661798 14.0452312,14.7084938 14.3921492,14.6401398 C14.6249532,14.5943798 14.7936932,14.7187898 14.8866432,14.9287138 C15.0147712,15.2175738 14.9612892,15.7383798 15.4703692,15.5930918 C15.9416972,15.4580998 15.8001272,14.9704698 15.8135692,14.6035318 C15.8247232,14.2943658 15.8158572,13.9846278 15.8158572,13.5879458 C14.8992272,13.9477338 14.0406552,14.3727298 12.8817832,13.7366658 C13.4532112,13.5350358 13.7500792,13.4300738 14.2168312,13.2656238 C13.2753192,13.0005018 12.5528832,12.8260418 11.7254852,13.0854438 C10.9378412,13.3325478 10.0849892,13.3757338 9.2810432,13.0142298 C9.0270752,12.9001158 8.7053252,12.7688418 8.8122892,12.4367958 C8.9478532,12.0183778 9.2507272,12.3178198 9.5004052,12.3532838 C9.7449352,12.3878898 9.9791692,12.6859018 10.2634532,12.4056218 C10.0815572,12.0446898 9.6903092,12.0486938 9.3960152,11.9051218 C8.2065412,11.3256858 7.0599672,10.6841878 6.0990072,9.7581198 C5.9285512,9.5939558 5.6986072,9.3886078 5.8928012,9.1400738 C6.0824192,8.8975458 6.3109332,9.0485538 6.5328692,9.1855478 C6.8866512,9.4049098 7.1692192,9.7735638 7.6579932,9.8427758 C7.6579932,9.6557318 7.6765832,9.5513418 7.6548472,9.4558178 C7.5616112,9.0496978 7.1426212,8.4799858 7.8035672,8.3332678 C8.3724212,8.2068558 8.2385732,8.8866778 8.3724212,9.2473238 C8.5443072,9.7092138 8.5337252,10.3418458 9.3339532,10.4379418 C9.2264172,9.9594638 9.1183092,9.5650698 9.0542452,9.1638118 C9.0104872,8.8881078 9.0276472,8.5323238 9.3236572,8.4528158 C9.7063252,8.3498558 9.7149052,8.7276618 9.7872632,8.9899238 C9.9159632,9.4563898 10.0432332,9.9242858 10.1999612,10.3821718 C10.2946272,10.6595918 10.3689872,11.0788678 10.7487952,11.0002178 C11.1243132,10.9224258 10.9298332,10.5549158 10.9023772,10.2920818 C10.8706312,9.9860618 10.9489952,9.7143618 11.3096412,9.6972018 C11.6139452,9.6829018 11.7083252,9.9454498 11.7578032,10.1856898 C11.8204372,10.4908518 11.8021332,10.8180358 11.8996592,11.1086118 C11.9926092,11.3851738 12.1098692,11.7995878 12.5036912,11.6854738 C12.8414572,11.5879478 12.6875892,11.2144318 12.6398272,10.9661838 C12.5688992,10.5981018 12.3169332,10.0996038 12.8117132,9.9840598 C13.3385252,9.8616518 13.2833272,10.4150618 13.3293732,10.7765658 C13.3468192,10.9121298 13.3988712,11.0439758 13.4394832,11.1761078 C13.5367232,11.4909938 13.6802952,11.7807118 14.0658232,11.7609778 C14.4856712,11.7395278 14.4078792,11.3986158 14.3995852,11.1343518 C14.3924352,10.9104138 14.4047332,10.6827578 14.6489772,10.6344238 C14.8912192,10.5863758 15.0001852,10.8168918 15.1005712,10.9967858 C15.2181172,11.2081398 15.2970532,11.4429458 15.4303292,11.6422878 C15.5784772,11.8636518 15.7632332,11.8636518 15.9090932,11.6219818 C16.3412392,10.9061238 15.8149992,9.9076978 14.9901752,9.8536438 C13.3705572,9.7478238 11.8684852,9.2641978 10.4833872,8.4176378 C9.7978452,7.9986478 9.1703612,7.5087298 8.6609952,6.8823898 C8.4745232,6.6535898 8.3435352,6.3687338 8.6315372,6.1513738 C8.8677732,5.9729098 9.0708332,6.1633858 9.2538732,6.3455678 C9.5867772,6.6761838 9.7775392,7.1738238 10.3761372,7.3019518 C10.4725192,6.6996358 10.1078692,6.2288798 10.0163492,5.7057858 C9.9591492,5.3780298 9.9694452,5.0233898 10.3409592,4.9330138 C10.6996032,4.8454978 10.7691012,5.1875538 10.8414592,5.4592538 C10.9750212,5.9608978 11.0788392,6.4736958 11.2607352,6.9570358 C11.3642672,7.2324538 11.2678852,7.6897678 11.7818272,7.7286638 C11.9391272,7.2373158 11.7921232,6.7545478 11.8273012,6.2800738 C11.8501812,5.9717658 11.6302472,5.4672618 12.1459052,5.4423798 C12.5797672,5.4215018 12.4499232,5.8945458 12.4948252,6.1816898 C12.5594612,6.5932438 12.6040772,7.0085158 12.6855872,7.4163518 C12.7725312,7.8522158 12.7773932,8.3552898 13.4432012,8.5875218 C13.4034472,8.2780698 13.3705572,8.0801578 13.3539692,7.8808158 C13.3288012,7.5736518 13.2327052,7.1549478 13.6196632,7.0857358 C14.0086232,7.0162378 14.0592452,7.4252178 14.1195912,7.7352418 C14.1676392,7.9817738 14.0317892,8.3246878 14.4888172,8.4102018 C14.6998852,8.1078998 14.4047332,7.4214998 14.9767332,7.4252178 C15.6408252,7.4297938 15.3202192,8.0312518 15.3765612,8.3913258 C15.4080212,8.5932418 15.5195612,8.7222278 15.7114672,8.7087858 C15.8947932,8.6962018 16.0246372,8.5686458 16.0226352,8.3624398 C16.0166292,7.7378158 16.2314152,7.0937438 15.2052472,6.9238598 C13.9039472,6.7082158 13.0611052,5.7366738 13.0942812,4.8251918 C13.1040052,4.5663618 13.1371812,4.3224038 13.4357652,4.2646318 C13.6997432,4.2131518 13.8092812,4.4302258 13.8687692,4.6252778 C14.0046192,5.0708658 14.0080512,5.8116058 14.6266692,5.6096898 C15.0662512,5.4658318 14.5574572,4.8972638 14.4610752,4.5274658 C14.3795652,4.2148678 14.3641212,3.9474578 14.6990272,3.8490738 C14.9916052,3.7632738 15.0882732,4.0163838 15.1946652,4.2557658 C15.4314732,4.7862958 15.3425272,5.4638298 15.9411252,5.9957898 C16.1727852,5.2719238 16.0146272,4.6472998 16.1012852,4.0512758 C16.1530512,3.6954918 16.1481892,3.1875558 16.6850112,3.2336018 C17.1723552,3.2753578 17.0227772,3.7406798 17.0679652,4.0658618 C17.1245932,4.4728398 16.8783472,4.9427378 17.2710252,5.3156818 C17.6322432,5.0591398 17.6176572,4.6939178 17.7266232,4.3750278 C17.8361612,4.0547078 17.7995532,3.4749858 18.3661192,3.6420098 C18.8417372,3.7827218 18.6927312,4.2145818 18.6166552,4.6109778 C18.5368612,5.0242478 18.0200592,5.6371458 18.4587832,5.8127498 C19.0339292,6.0432658 19.0556652,5.2258778 19.3162112,4.8600838 C19.3353732,4.8329138 19.3422372,4.7960198 19.3513892,4.7622718 C19.4134512,4.5340438 19.5470132,4.3873258 19.7972632,4.4502458 C20.0126212,4.5042998 19.9897412,4.7076458 20.0028972,4.8749558 C20.0638152,5.6285658 19.6880112,6.1493718 19.0545212,6.4651158 C18.6575532,6.6627418 18.2125372,6.8183258 17.7746712,6.8666598 C17.1037152,6.9407338 17.1137252,7.3714498 17.1646332,7.8359138 C17.1998112,8.1585218 17.0948492,8.6309938 17.5570252,8.6921978 C18.0838372,8.7619818 18.2128232,8.2895098 18.3561092,7.8945438 C18.3915732,7.7970178 18.4516332,7.7089298 18.4911012,7.6128338 C18.6020692,7.3431358 18.7433532,7.0685758 19.0862672,7.1701058 C19.4497732,7.2776418 19.3585392,7.5962458 19.3064872,7.8693758 C19.2604412,8.1096158 18.9641452,8.3369858 19.3147812,8.6455798 C20.1516172,8.0475538 20.3847072,7.1821178 20.4470552,6.2317398 C20.4673612,5.9208578 20.5900552,5.6588818 20.9358292,5.6846218 C21.3493852,5.7152238 21.2412772,6.0624278 21.2432792,6.3269778 C21.2478552,6.8689478 20.8071292,7.3299798 20.9072292,7.9159938 C21.4583512,7.9119898 21.5587372,7.5021518 21.6808592,7.1658158 C21.8807732,6.6155518 22.0229152,6.0446958 22.1990912,5.4852798 C22.2914692,5.1912718 22.3724072,4.8083178 22.8011212,4.9681918 C23.1637692,5.1037558 23.1391732,5.4432378 23.0367852,5.7692778 C22.8760532,6.2795018 22.5194112,6.7296658 22.5008212,7.2784998 C22.7456372,7.4069138 22.8711912,7.2899398 23.0227712,7.2072858 C23.3204972,7.0451238 23.6007772,6.4519598 23.9491252,6.8889678 C24.2969012,7.3245458 23.7329092,7.6225578 23.4483392,7.8545038 C21.9193832,9.1003198 20.1072872,9.7012058 18.1782172,9.8164638 C17.3365192,9.8667998 17.1717832,10.1539438 17.2655912,10.8583618 C17.3027712,11.1369258 17.3099212,11.4200658 17.3405232,11.8290458 C17.8367332,11.4083398 17.5530212,10.6421458 18.1656332,10.5686438 C18.7762432,10.4951418 18.3955772,11.2507538 18.7745272,11.4749778 C19.7126072,9.4252158 19.5006812,11.8227538 19.9565652,11.7409578 C20.4999652,11.3808838 20.3546772,10.7473938 20.5462972,10.2523278 C20.6232312,10.0524138 20.6864372,9.8259018 20.9458392,9.8527858 C21.2172532,9.8810998 21.2195412,10.1241998 21.2226872,10.3324078 C21.2286932,10.7145038 21.2244032,11.0968858 21.2244032,11.6528698 C21.8006932,11.1972718 21.6248032,10.7219398 21.7729512,10.3607218 C21.8650432,10.1356398 21.9542752,9.8642258 22.2628692,9.9182798 C22.5196972,9.9634678 22.6961592,10.1422178 22.6326672,10.4410878 C22.5923412,10.6295618 22.4035812,10.8620798 22.7084572,10.9573178 C23.0267752,11.0565598 23.1351692,10.7745638 23.1946572,10.5466218 C23.3259312,10.0455498 23.4366132,9.5378998 23.5244152,9.0273898 C23.5879072,8.6593078 23.5327092,8.1184818 24.0672432,8.2254458 C24.5720332,8.3264038 24.3549592,8.8560758 24.2989032,9.2041378 C24.2271172,9.6471518 24.0792552,10.0784398 23.9642832,10.5151618 C24.7095992,9.9219978 25.0270592,9.1200538 25.3888492,8.3461378 C25.5349952,8.0338258 25.6574032,7.5702198 26.0855452,7.7815738 C26.6295172,8.0504138 26.1630512,8.4119178 26.0263432,8.7265178 C25.8956412,9.0273898 25.5410012,9.2210118 25.5850452,9.6179798 C25.9697152,9.7755658 26.1518972,9.4280758 26.4184492,9.3133898 C26.6295172,9.2224418 26.8348652,9.1978458 26.9561292,9.4260738 C27.0628072,9.6265598 26.8700432,9.7406738 26.7513532,9.8467798 C26.5448612,10.0312498 26.3149172,10.1896938 26.0978432,10.3627238 C25.1323072,11.1340658 23.9945992,11.6291318 22.8594652,12.2629078 C23.3093432,12.5111558 23.6353832,12.3755918 23.9571332,12.2763498 C24.1793552,12.2077098 24.4364692,12.0158038 24.5623092,12.3558578 C24.6629812,12.6292738 24.4384712,12.8200358 24.2242572,12.9347218 C23.6963012,13.2170038 23.1031372,13.4540978 22.5294212,13.2776358 C21.0556632,12.8237538 19.5924872,13.1171898 18.1218752,13.2009878 C17.6903012,13.2255838 17.2075332,13.1892618 17.3036292,13.8224658 C17.3868552,14.3684398 16.9321152,15.1635198 17.5670352,15.3986118 C17.9691512,15.5479038 17.9485592,14.7170738 18.1579112,14.3481338 C18.1919452,14.2877878 18.2205452,14.2240098 18.2488592,14.1608038 C18.3389492,13.9580298 18.4676492,13.7872878 18.7144672,13.8347638 C19.0599552,13.9014018 18.9558512,14.1811098 18.9701512,14.4144858 C19.0010392,14.9209918 18.5840512,15.3642918 18.7519332,15.9794778 C19.2181132,15.7023438 19.3044852,15.2175738 19.5927732,14.9003998 C19.7137512,14.7674098 19.8324412,14.6510078 20.0320692,14.6933358 C20.2165392,14.7328038 20.1930872,14.8909618 20.2173972,15.0193758 C20.2611552,15.2513218 19.9542772,15.6603018 20.4130212,15.6728858 C20.8048412,15.6834678 20.8703352,15.2284418 21.0407912,14.9332898 C21.2793152,14.5205918 21.0393612,13.5144438 21.8724792,13.8290438 C22.7204692,14.1493638 21.9353992,14.7310878 21.7560772,15.1809658 C21.6765692,15.3805938 21.5681752,15.5696398 21.7503572,15.7495338 C21.9425492,15.9391518 22.1470392,15.7995838 22.3220712,15.7086358 C22.7819592,15.4692538 22.9607092,14.9993558 23.2141052,14.5875158 C23.4191672,14.2546118 23.4757952,13.6096818 23.9685732,13.7420998 C24.5136892,13.8885318 24.0117592,14.4728298 24.1516132,14.8371938 C24.1724912,14.8906758 24.2179652,14.9347198 24.2522852,14.9836258 C25.0199092,14.3329758 25.0342092,14.3020878 25.3742632,12.2285878 C25.4177352,11.9634658 25.3673992,11.5893778 25.7520692,11.6116858 C26.1453192,11.6348518 26.1639092,12.0020758 26.1905072,12.3252558 C26.2191072,12.6721738 25.9045072,13.0145158 26.1773512,13.4724018 C26.7121712,12.8346218 26.8503092,12.1167618 27.1177192,11.4601058 C27.2306892,11.1841158 27.3419432,10.8003038 27.7629352,10.9650398 C28.1759192,11.1263438 28.0294872,11.4618218 27.9005012,11.7541138 C27.6416712,12.3404138 27.3774072,12.9241398 27.1154312,13.5084378 L27.3282152,13.6477198 C27.4657812,13.5032898 27.6119272,13.3657238 27.7394832,13.2129998 C27.9599892,12.9495938 28.1667672,12.5589178 28.5588732,12.9227098 C28.9649932,13.2993718 28.5417132,13.5619198 28.3120552,13.7624058 C27.8109832,14.2002718 27.2635792,14.5849418 26.6569732,15.0508358 C27.4388972,15.1729578 27.9662812,14.7479618 28.5651652,14.6252678 C28.7573572,14.5855138 28.9738592,14.4019018 29.1225792,14.6461458 C29.2795932,14.9035458 29.1191472,15.1111818 28.9092232,15.2627618 C28.5969112,15.4884158 28.2308312,15.5845118 27.8696132,15.7086358 C27.1460332,15.9571698 26.3864172,15.7549678 25.4772232,15.8993978 C26.0240552,16.4256378 26.5420012,16.5088638 27.0882612,16.5240218 C27.3110552,16.5305998 27.5106832,16.5812218 27.5132572,16.8597858 C27.5155452,17.1131818 27.3307892,17.2496038 27.1268712,17.2850678 C26.5605912,17.3828798 26.0503672,17.1500758 25.5172632,16.9987818 C25.0139032,16.8560678 24.6844312,15.9391518 24.3355112,16.2955078 C23.9694312,16.6695958 24.7167492,17.1989818 24.9283892,17.6826078 C25.0213392,17.8953918 25.2066672,18.1416378 24.9415452,18.3329718 C24.7176072,18.4945618 24.4633532,18.4064738 24.2854612,18.2125658 C24.0529432,17.9588838 23.7569332,17.7134958 23.6459652,17.4071898 C23.3382292,16.5583418 22.8145632,16.5177298 22.0352132,16.7256518 C20.9315392,17.0202318 19.7932592,17.1663778 18.6401072,17.1715258 C18.2196872,17.1732418 17.6571252,17.0425398 17.5212752,17.6525778 C17.4529212,17.9580258 17.2999112,18.4121938 17.6762872,18.5960918 C18.1750712,18.8397638 18.5912012,18.5131518 18.9930312,18.2137098 C19.6348152,17.7360898 20.3126352,17.3585698 21.1960892,17.7641178 C20.9029392,18.3758718 20.1110052,18.1730978 19.8421652,18.7940038 C20.5176972,18.9101198 21.0785432,18.6329858 21.6651292,18.4854098 C21.9176672,18.4216318 22.2637272,17.9912018 22.4490552,18.4622438 C22.6272332,18.9149818 22.1527592,19.0516898 21.8424492,19.1291958 C21.1383172,19.3047998 20.4173112,19.4114778 19.6496872,19.5561938 C20.2285512,19.9851938 20.8151372,19.8613558 21.3942872,19.7884258 C21.5927712,19.7638298 21.8521732,19.6488578 21.9059412,19.9400058 C21.9514152,20.1853938 21.6994492,20.2528898 21.5038252,20.3186698 C20.4473412,20.6738818 19.4543492,20.5345998 18.5334292,19.9176978 C18.2691652,19.7403778 18.0103352,19.5092898 17.6897292,19.6977638 C17.3931472,19.8716518 17.5484452,20.2048418 17.5515912,20.4610978 C17.5919172,23.7257878 17.6496892,26.9901918 17.6957352,30.2548818 C17.7194732,31.9542938 17.8052732,32.0300838 19.4972492,31.7300698 C19.5653172,31.7180578 19.6319552,31.6974658 19.6997372,31.6825938 C27.7826692,29.9171158 32.8420092,22.4336398 31.4837952,14.2528958" id="Fill-1" fill="#0773AE"></path>
            <g id="Group-5" transform="translate(0.000000, 0.249678)">
                <mask id="mask-2" fill="white">
                    <use xlink:href="#path-1"></use>
                </mask>
                <g id="Clip-4"></g>
                <path d="M16.5620884,32.3636803 C7.7939004,32.3459136 0.8066344,25.3269016 0.808921838,16.5395516 C0.8112104,7.8977756 7.9094444,0.8567416 16.6210044,0.8558836 C25.3128304,0.8547396 32.3387064,7.8866216 32.345575,16.5933196 C32.3521484,25.3786676 25.3431464,32.3816636 16.5620884,32.3636803 M16.6610444,0.0364374484 C7.5293504,0.0127556 -0.0170456,7.5185396 8.51921445e-05,16.6073336 C0.0172744,25.7762076 7.4446944,33.1761716 16.6295844,33.1761716 C25.7469784,33.1761716 33.1437964,25.7667696 33.1429384,16.6350756 C33.1423664,7.4948016 25.7592764,0.0599456 16.6610444,0.0364374484" id="Fill-3" fill="#0773AE" mask="url(#mask-2)"></path>
            </g>
        </g>
    </g>
</svg>