<?xml version="1.0" encoding="UTF-8"?>
<svg width="42px" height="42px" viewBox="0 0 42 42" version="1.1" xmlns="http://www.w3.org/2000/svg" xmlns:xlink="http://www.w3.org/1999/xlink">
    <title>[00094] Banco de Corrientes</title>
    <g id="[00094]-Banco-de-Corrientes" stroke="none" stroke-width="1" fill="none" fill-rule="evenodd">
        <g id="Group-12" transform="translate(4.000000, 4.000000)">
            <g id="Group-3" transform="translate(0.000000, 0.119861)" fill="#ECB21E">
                <path d="M34.0849043,17.203506 C34.0849043,26.6155112 26.4548081,34.245888 17.0425223,34.245888 C7.63023648,34.245888 -0.000140352,26.6155112 -0.000140352,17.203506 C-0.000140352,7.79122022 7.63023648,0.160843392 17.0425223,0.160843392 C26.4548081,0.160843392 34.0849043,7.79122022 34.0849043,17.203506" id="Fill-1"></path>
            </g>
            <path d="M14.5562147,6.84331089 C14.5562147,6.84331089 9.76459741,14.7294091 18.2497179,16.0271037 C18.2497179,16.0271037 17.7506262,18.2483144 14.7308126,20.2196986 C14.7308126,20.2196986 15.0825347,21.6083413 14.9250598,22.0891872 C14.8936209,22.185188 14.784427,22.2320656 14.6917947,22.1916442 L13.8325598,21.8169044 C13.8325598,21.8169044 11.8608949,26.3839584 16.1781224,30.2523403 C16.1781224,30.2523403 13.5827332,30.0274964 10.7377982,27.4570898 C10.7377982,27.4570898 11.062292,26.2590452 11.5613837,26.0844473 C11.5613837,26.0844473 9.64221047,25.6765844 10.0374417,27.9421463 C10.0582138,28.060042 10.017231,28.182429 9.92431799,28.2576576 C9.80305386,28.3561847 9.59449079,28.4314134 9.2655057,28.2806754 C8.66676407,28.0061469 7.31882346,24.4872415 8.64178141,21.2181627 C8.64178141,21.2181627 9.2584881,19.7947127 10.7001838,18.3353326 C10.8076935,18.2267002 10.8879748,18.0916816 10.9202558,17.9420663 C10.9778001,17.6751168 10.9264313,17.303184 10.2387065,17.2248676 C9.14059242,17.100235 7.42801732,21.3498129 7.76794986,23.1398623 C7.76794986,23.1398623 7.2581914,19.5662197 8.31504196,18.1646646 C9.37161181,16.7628288 11.0322567,14.8647084 11.0322567,14.8647084 C11.0322567,14.8647084 12.1323357,13.1395016 10.1912675,13.0962732 C8.25019933,13.0530448 6.41720221,18.0136459 7.17173457,22.0894679 C7.17173457,22.0894679 6.08344516,19.0463559 6.5567121,14.8492697 C6.59629137,14.498109 6.54829098,14.1421763 6.41832503,13.8134719 C6.21790237,13.3053977 5.83810986,12.5699532 5.17761335,11.9953521 C5.02462967,11.8622984 4.95361156,11.6562617 4.99010308,11.4569618 C5.03417361,11.2155564 5.18687658,10.9429928 5.64049425,10.8963959 C6.48176413,10.8102198 9.06985501,10.9182909 9.06985501,10.9182909 C9.06985501,10.9182909 10.7372368,8.13370717 14.5562147,6.84331089" id="Fill-4" fill="#154882"></path>
            <path d="M14.5044248,27.3686961 C14.5044248,27.3686961 16.7708289,31.1817793 18.929162,31.7751875 C18.929162,31.7751875 19.8479062,31.8445214 18.979408,30.7579162 C18.9482498,30.7188984 18.9022144,30.6944771 18.8522491,30.6911087 L18.210279,30.6484417 C18.1479627,30.6439504 18.0949097,30.600722 18.0803131,30.5398092 C18.0615059,30.4612121 18.0626287,30.3545446 18.1712612,30.2868949 C18.2116825,30.262193 18.2633321,30.2613509 18.3059991,30.2824037 C18.5176499,30.3865448 19.3201826,30.7003719 20.6198422,30.2520876 C22.1303104,29.731101 25.3791785,28.5310914 25.8558139,25.7787887 C25.8678841,25.7077706 25.8496384,25.6342261 25.8052871,25.5775239 C25.6444438,25.3712065 25.1613522,24.921238 24.0202904,24.9532382 C23.9416933,24.9552031 23.8684295,24.9959052 23.8257625,25.0618707 C23.6068134,25.4026453 23.1105287,26.2326871 22.9940366,26.9369734 L22.8329125,26.9372541 C22.8329125,26.9372541 22.9696153,25.5988574 23.6051292,24.7396225 C23.6051292,24.7396225 23.1815469,24.7272715 22.8576144,24.4156901 C22.8576144,24.4156901 21.8487643,25.6738054 21.798799,26.9939563 L21.5624462,27.0439216 C21.5624462,27.0439216 21.4375329,25.5738748 22.2723466,24.129372 C22.2723466,24.129372 21.761746,23.9174405 21.6244818,23.5561744 C21.6244818,23.5561744 20.478648,24.7272715 20.2417339,26.9566227 L20.0053811,27.006588 C20.0053811,27.006588 19.6912733,25.2791356 20.9311429,23.0610126 C20.9673537,22.9961699 20.9662309,22.9167307 20.9266516,22.8532916 C20.7380185,22.5501313 20.1479787,21.6937034 19.4821488,21.6631066 C18.6725985,21.6254923 17.9708385,27.1716419 19.2952,28.7118648 C19.2952,28.7118648 17.5708353,29.5688541 14.5044248,27.3686961" id="Fill-6" fill="#154882"></path>
            <path d="M24.4384271,13.494929 C23.8436153,13.5350697 21.3240162,13.6232107 20.5032377,12.3314109 C20.4122896,12.1882519 20.3668156,12.0206716 20.3679181,11.8508457 C20.3741139,10.9379963 20.6012034,7.51930226 23.6075432,6.63957592 C23.6740701,6.61992664 23.7467724,6.61964594 23.8113343,6.64575141 C23.9236159,6.69066405 24.0229852,6.81782296 23.75379,7.17628197 C23.3231901,7.75032165 22.5071836,8.71397848 22.7000272,11.4606671 C22.7000272,11.4617899 22.6705533,11.9213024 23.1359605,12.1486726 C23.6022099,12.376885 24.8336583,12.8425729 24.8137283,13.1016627 C24.8022195,13.2538043 24.753377,13.3004011 24.6961134,13.366928 C24.63099,13.4424374 24.538077,13.4881921 24.4384271,13.494929 M22.673641,14.0232139 C22.3789018,14.0473545 19.6953716,14.2163383 18.4858181,12.5152721 C18.4723443,12.4959035 18.4863795,12.4692366 18.5096779,12.4692366 L19.8301095,12.4692366 C19.8416184,12.4692366 19.851443,12.4754121 19.856215,12.4855174 C19.9182506,12.6205361 20.4226757,13.5448943 22.6747639,13.8491775 C22.6890798,13.8511424 22.7000272,13.8632127 22.7000272,13.8775286 L22.7000272,13.9943014 C22.7000272,14.0094594 22.6887991,14.0220911 22.673641,14.0232139 M19.3217546,6.90315698 C19.1081388,7.24000178 18.7359253,7.38652927 18.4908707,7.23101925 C18.2455354,7.07522853 18.2208335,6.67578674 18.4347299,6.33922264 C18.6489071,6.00237784 19.0208399,5.85556965 19.2658945,6.01136037 C19.5109491,6.1674318 19.5359317,6.56631218 19.3217546,6.90315698 M23.4924546,11.8264244 C23.3804537,11.7817925 23.3010145,11.6813005 23.2822073,11.562282 C22.8774321,9.01573528 24.0681785,7.4378981 24.1276878,7.3607045 C24.129372,7.35873957 24.1313369,7.35733605 24.1338632,7.35621324 C24.5995512,7.1569134 24.6441831,6.52925925 24.6453059,6.3083452 C24.6455866,6.26736242 24.6691658,6.22862527 24.7076222,6.21402866 C24.9206766,6.1323438 24.9355539,5.84742924 24.9355539,5.84742924 C24.9355539,5.84742924 25.0949937,4.95563263 22.4266215,4.83998258 C20.3235871,4.74903448 17.0362626,5.96897407 15.8544988,6.43943397 C15.5552683,6.55873317 15.3107751,6.78385778 15.1693003,7.0727022 C14.8251572,7.7744622 14.2455034,9.21896498 14.3125917,10.8801713 C14.3196093,11.0603832 14.4088732,11.2276828 14.5517515,11.3377188 C15.0907032,11.75288 16.4852407,12.5043246 18.3839225,11.148805 C18.4080631,11.1311206 18.4246246,11.1047345 18.4293966,11.0755412 C18.5093972,10.5800987 19.3371933,6.18006348 23.567964,5.4802684 C23.6942808,5.45949631 23.8236853,5.46174194 23.9480372,5.49093516 C24.1818636,5.54595314 24.5324629,5.66328741 24.467901,5.86511359 C24.4412341,5.94932479 24.3556194,6.00097432 24.2674783,5.99732517 C23.8368784,5.97992152 22.0892153,6.05458879 20.6303966,8.23369394 C20.6303966,8.23369394 19.4267379,10.0748315 19.7944601,11.8971618 C19.7975479,11.9114777 19.788846,11.9257937 19.7745301,11.9294428 C19.6027393,11.9729519 18.6185911,12.201445 18.4959234,11.7472659 C18.49059,11.7259324 18.4642039,11.7189148 18.4490458,11.7346342 C18.2039912,11.9923205 16.7622955,13.3444717 14.5267688,12.0613737 C14.5040318,12.0481806 14.4762421,12.068672 14.4824176,12.0942161 C15.1549844,14.7294652 17.9053222,15.4208392 18.5385904,15.4208392 C19.0475068,15.4208392 19.7425299,14.7053247 20.0173391,14.3979538 C20.094252,14.3114969 20.207095,14.2654615 20.322745,14.2730405 C24.8314127,14.5669376 25.209521,13.6734568 25.2903637,13.0999785 C25.3554871,12.6393432 23.9999674,12.0276892 23.4924546,11.8264244" id="Fill-8" fill="#154882"></path>
            <path d="M20.6925164,11.687897 C20.6975691,11.6281071 20.7208675,11.5714049 20.7587626,11.5250887 C20.9255007,11.3238239 21.4436803,10.8365218 22.0797556,11.6000367 C22.7065676,12.351762 23.137729,12.4904297 23.280888,12.5159738 C23.3221515,12.5235528 23.358643,12.5457284 23.3850292,12.5785708 C23.4653105,12.6782207 23.5795571,12.9196262 23.3328182,13.0498728 C22.9816575,13.2354182 20.5704102,13.1573825 20.6925164,11.687897" id="Fill-10" fill="#154882"></path>
        </g>
    </g>
</svg>