<?xml version="1.0" encoding="UTF-8"?>
<svg width="42px" height="42px" viewBox="0 0 42 42" version="1.1" xmlns="http://www.w3.org/2000/svg" xmlns:xlink="http://www.w3.org/1999/xlink">
    <title>[00147] Banco Interfinanzas</title>
    <g id="[00147]-Banco-Interfinanzas" stroke="none" stroke-width="1" fill="none" fill-rule="evenodd">
        <g id="Group-9" transform="translate(4.000000, 11.000000)">
            <g id="Group-5" transform="translate(0.000000, 0.087588)" stroke="#1E7B3D" stroke-width="1.4896">
                <polygon id="Stroke-1" points="0.148989792 4.61492976 8.13086243 0.1794968 15.8818471 4.95932528 15.8818471 13.9588926 8.01556739 18.6526222 0.148989792 14.0881899"></polygon>
                <polygon id="Stroke-3" points="33.5685531 4.76070202 25.5866804 0.325269056 17.8356958 5.10509754 17.8356958 14.1049628 25.7022734 18.7983945 33.5685531 14.2342601"></polygon>
            </g>
            <polygon id="Fill-6" fill="#1E7B3D" points="24.7041222 13.2934883 26.70108 13.2934883 26.70108 6.122256 24.7041222 6.122256"></polygon>
            <path d="M10.4238931,8.89609974 L5.62201853,8.89609974 L5.62201853,7.14313846 L10.4748374,7.14313846 C10.4748374,7.14313846 11.0337353,7.11751734 11.0337353,8.01991702 C11.0337353,8.92172086 10.4238931,8.89609974 10.4238931,8.89609974 M10.4238931,11.8210783 L5.62201853,11.8210783 L5.62201853,10.068117 L10.4748374,10.068117 C10.4748374,10.068117 11.0337353,10.0427938 11.0337353,10.9445977 C11.0337353,11.8466994 10.4238931,11.8210783 10.4238931,11.8210783 M11.2002726,5.94877718 L3.61493149,5.94877718 L3.61493149,13.0374857 L11.4657193,13.0374857 C11.4657193,13.0374857 12.7616713,12.7327135 12.8138073,11.1829337 C12.8659433,9.63315382 11.7392099,9.36294038 11.7392099,9.36294038 C11.7392099,9.36294038 12.6672307,9.18418838 12.6663369,7.67671318 C12.6654432,5.87638262 11.2002726,5.94877718 11.2002726,5.94877718" id="Fill-7" fill="#1E7B3D"></path>
        </g>
    </g>
</svg>