<?xml version="1.0" encoding="UTF-8"?>
<svg width="42px" height="42px" viewBox="0 0 42 42" version="1.1" xmlns="http://www.w3.org/2000/svg" xmlns:xlink="http://www.w3.org/1999/xlink">
    <title>[00143] Brubank</title>
    <g id="[00143]-Brubank" stroke="none" stroke-width="1" fill="none" fill-rule="evenodd">
        <g id="Group-6" transform="translate(8.000000, 6.000000)">
            <g id="Group-3" transform="translate(0.000000, 0.244160)" fill="#5F58A4">
                <path d="M2.923144,0.03584 C3.098144,0.06748 3.275944,0.08316 3.446184,0.1372 C4.505984,0.47348 5.154184,1.18356 5.381824,2.2736 C5.418504,2.44944 5.426904,2.62836 5.426904,2.80728 C5.427184,7.5124 5.427744,12.21752 5.426904,16.92264 C5.426624,17.9452 5.631024,18.9238 6.048224,19.85704 C6.401584,20.64776 6.881784,21.35252 7.486304,21.97328 C8.431024,22.9432 9.557744,23.60568 10.858344,23.97388 C11.420304,24.13348 11.994024,24.22028 12.577824,24.2452 C13.778744,24.29644 14.928424,24.0828 16.025464,23.59168 C17.162264,23.08292 18.116224,22.33812 18.880064,21.35476 C19.620104,20.4022 20.096664,19.33204 20.299384,18.14148 C20.455064,17.22616 20.434904,16.31504 20.235824,15.40756 C19.960024,14.14896 19.373424,13.0522 18.499264,12.11112 C17.774344,11.33076 16.915304,10.73772 15.931384,10.32584 C15.141504,9.99516 14.320544,9.79944 13.466824,9.74428 C13.226024,9.7286 12.983824,9.73532 12.743584,9.71348 C11.637584,9.6152 10.842664,9.05912 10.410904,8.0388 C10.045504,7.17556 10.133424,6.32268 10.641064,5.5342 C11.091864,4.8342 11.745104,4.42764 12.573624,4.32012 C12.992504,4.2658 13.413624,4.30108 13.832784,4.32684 C14.280784,4.35428 14.725144,4.41084 15.167824,4.48616 C15.950144,4.61888 16.714264,4.82132 17.459344,5.09348 C18.409664,5.44068 19.307624,5.8926 20.151824,6.45036 C20.944224,6.97396 21.671664,7.57652 22.329664,8.26168 C23.279144,9.2512 24.050824,10.36364 24.637984,11.60404 C25.020464,12.4124 25.311384,13.2524 25.512144,14.12348 C25.641784,14.68544 25.729984,15.2544 25.779544,15.8298 C25.823504,16.34024 25.840024,16.85124 25.821824,17.3628 C25.764704,18.9896 25.412184,20.54948 24.752224,22.03852 C24.353504,22.93816 23.857624,23.7804 23.262624,24.56356 C22.599304,25.43716 21.837424,26.2136 20.975864,26.89316 C20.115424,27.5716 19.184984,28.13328 18.182584,28.5754 C17.359944,28.93828 16.509024,29.21268 15.628424,29.39748 C14.867664,29.55708 14.099904,29.64808 13.323184,29.67356 C12.614224,29.69652 11.909744,29.65844 11.206664,29.56912 C10.148544,29.43444 9.124024,29.16928 8.132264,28.77812 C6.927424,28.30352 5.818344,27.66288 4.805024,26.8548 C3.951584,26.1744 3.194744,25.40048 2.539544,24.52856 C1.569064,23.23608 0.866544,21.812 0.440944,20.25128 C0.256984,19.57592 0.131544,18.88992 0.060424,18.1944 C0.017304,17.773 -5.6e-05,17.34992 0.000220670715,16.926 C0.000504,12.20996 0.000504,7.49336 0.000504,2.77704 C0.000504,1.46608 0.867104,0.38164 2.146704,0.09408 C2.262064,0.06832 2.379944,0.05488 2.496704,0.03584 L2.923144,0.03584 Z" id="Fill-1"></path>
            </g>
            <path d="M16.519832,17.026408 C16.498832,19.187728 14.712712,20.866608 12.576032,20.759088 C10.554992,20.657448 8.940792,18.960368 9.023672,16.862328 C9.104872,14.798168 10.841432,13.162968 12.966352,13.272168 C14.979272,13.375488 16.517312,15.034208 16.519832,17.026408" id="Fill-4" fill="#5F58A6"></path>
        </g>
    </g>
</svg>