<?xml version="1.0" encoding="UTF-8"?>
<svg width="42px" height="42px" viewBox="0 0 42 42" version="1.1" xmlns="http://www.w3.org/2000/svg" xmlns:xlink="http://www.w3.org/1999/xlink">
    <title>[00150] HSBC</title>
    <defs>
        <polygon id="path-1" points="0 0.0903936 8.476248 0.0903936 8.476248 17.1598416 0 17.1598416"></polygon>
        <polygon id="path-3" points="0.1926936 0.114972 8.64996 0.114972 8.64996 17.139276 0.1926936 17.139276"></polygon>
    </defs>
    <g id="[00150]-HSBC" stroke="none" stroke-width="1" fill="none" fill-rule="evenodd">
        <g id="Group-9" transform="translate(4.000000, 13.000000)">
            <path d="M25.4809896,0.2640528 C25.4701656,0.3506448 25.3933416,0.3870768 25.3413336,0.4393488 C22.6279416,3.1640928 19.9145496,5.8893648 17.1956136,8.6080368 C17.0424936,8.7614208 17.0142456,8.8350768 17.1871656,9.0072048 C19.8939576,11.7013248 22.5915096,14.4046848 25.2914376,17.1056688 C25.3471416,17.1613728 25.4091816,17.2110048 25.5060696,17.2975968 L8.5316616,17.2975968 C8.5976616,17.2255248 8.6560056,17.1566208 8.7196296,17.0929968 C11.4132216,14.3980848 14.1060216,11.7026448 16.8048936,9.0130128 C16.9580136,8.8606848 16.9836216,8.7888768 16.8130776,8.6185968 C14.1097176,5.9210448 11.4158616,3.2139888 8.7177816,0.5111568 C8.6462376,0.4396128 8.5971336,0.3332208 8.4762216,0.3221328 C8.4624936,0.3097248 8.4574776,0.2970528 8.4614376,0.2838528 C8.4656616,0.2703888 8.4696216,0.2640528 8.4743736,0.2640528 L25.4809896,0.2640528 Z" id="Fill-1" fill="#DA2126"></path>
            <g id="Group-5" transform="translate(0.000000, 0.173659)">
                <mask id="mask-2" fill="white">
                    <use xlink:href="#path-1"></use>
                </mask>
                <g id="Clip-4"></g>
                <path d="M8.4744,0.0903936 C8.474928,0.1096656 8.47572,0.1289376 8.476248,0.1484736 C8.475456,5.6988096 8.474664,11.2491456 8.473872,16.7992176 L8.473872,17.1075696 C8.451432,17.1247296 8.428728,17.1424176 8.406288,17.1598416 C8.357976,17.0909376 8.318112,17.0135856 8.259504,16.9547136 C5.552448,14.2497696 2.845392,11.5448256 0.13068,8.8475376 C-0.043032,8.6748816 -0.045408,8.5774656 0.13464,8.4246096 C0.30096,8.2833696 0.441408,8.1120336 0.593208,7.9538976 C0.646272,7.8702096 0.704352,7.8034176 0.771672,7.7297616 C0.97416,7.5098496 1.192752,7.3049856 1.406064,7.0953696 C3.664584,4.8767136 5.847072,2.5822896 8.095296,0.3536016 C8.195616,0.2546016 8.29356,0.1545456 8.4216,0.0903936 L8.4744,0.0903936 Z" id="Fill-3" fill="#DA2126" mask="url(#mask-2)"></path>
            </g>
            <g id="Group-8" transform="translate(25.344000, 0.173659)">
                <mask id="mask-4" fill="white">
                    <use xlink:href="#path-3"></use>
                </mask>
                <g id="Clip-7"></g>
                <path d="M0.1926936,17.139276 L0.1926936,0.114972 C0.2676696,0.186252 0.3162456,0.230076 0.3621816,0.276276 C3.0895656,3.009732 5.8161576,5.744508 8.5451256,8.47638 C8.6496696,8.580924 8.7069576,8.641116 8.5667736,8.780772 C5.8069176,11.531652 3.0528696,14.288604 0.2975016,17.044236 C0.2747976,17.067468 0.2494536,17.088324 0.1926936,17.139276" id="Fill-6" fill="#DA2126" mask="url(#mask-4)"></path>
            </g>
        </g>
    </g>
</svg>