<?xml version="1.0" encoding="UTF-8"?>
<svg width="42px" height="42px" viewBox="0 0 42 42" version="1.1" xmlns="http://www.w3.org/2000/svg" xmlns:xlink="http://www.w3.org/1999/xlink">
    <title>[00165] Banco Chase Morgan, National Association</title>
    <defs>
        <polygon id="path-1" points="0 0.16247 9.02630538 0.16247 9.02630538 20.9064131 0 20.9064131"></polygon>
        <polygon id="path-3" points="0.155715 0.0664701738 20.8722267 0.0664701738 20.8722267 9.1 0.155715 9.1"></polygon>
        <polygon id="path-5" points="0.0586734092 0.104454532 9.03455 0.104454532 9.03455 20.91299 0.0586734092 20.91299"></polygon>
    </defs>
    <g id="[00165]-Banco-Chase-Morgan,-National-Association" stroke="none" stroke-width="1" fill="none" fill-rule="evenodd">
        <g id="Group-12" transform="translate(5.000000, 5.000000)">
            <g id="Group-3" transform="translate(0.000000, 0.695345)">
                <mask id="mask-2" fill="white">
                    <use xlink:href="#path-1"></use>
                </mask>
                <g id="Clip-2"></g>
                <path d="M9.01439,0.16247 L9.01439,0.82957 C9.01439,7.26677 9.00739,13.70362 9.02630538,20.14082 C9.02769,20.70327 8.93459,20.91817 8.30284,20.90592 C6.03029,20.86252 3.75634,20.89087 1.48274,20.88772 C0.40299,20.88632 0.00574,20.49677 0.00434,19.43277 C0.00119,16.30412 0.00644,13.17582 -0.000211689668,10.04717 C-0.00056,9.74092 0.05334,9.48997 0.27769,9.25512 C3.11969,6.27417 5.95364,3.28552 8.79039,0.30002 C8.81979,0.26922 8.86459,0.25347 9.01439,0.16247" id="Fill-1" fill="#2679BE" mask="url(#mask-2)"></path>
            </g>
            <g id="Group-6" transform="translate(0.700000, 22.745345)">
                <mask id="mask-4" fill="white">
                    <use xlink:href="#path-3"></use>
                </mask>
                <g id="Clip-5"></g>
                <path d="M0.155715,0.071925 L17.802365,0.071925 C18.680165,0.071925 19.557965,0.082425 20.434715,0.066675 C20.749365,0.061425 20.873615,0.155925 20.8722267,0.485975 C20.861715,2.960825 20.879915,5.435675 20.854715,7.910525 C20.847015,8.640975 20.378715,9.085125 19.643715,9.088625 C16.381015,9.104725 13.118315,9.094225 9.855965,9.10017591 C9.608515,9.100525 9.432815,9.000075 9.262365,8.837325 C6.283515,5.995675 3.301865,3.156475 0.322315,0.315525 C0.278215,0.273525 0.250915,0.212975 0.155715,0.071925" id="Fill-4" fill="#2679BE" mask="url(#mask-4)"></path>
            </g>
            <path d="M30.922535,9.024715 L30.247385,9.024715 C23.833635,9.024715 17.419535,9.013865 11.006135,9.04119351 C10.358635,9.043965 10.239985,8.840965 10.248385,8.251565 C10.280235,5.979365 10.259585,3.706465 10.262385,1.433565 C10.263785,0.408765 10.661385,0.005215 11.695285,0.003815 C14.823935,-0.001435 17.951885,0.002765 21.080185,-3.5e-05 C21.353185,-3.5e-05 21.589085,0.018865 21.814835,0.234815 C24.805935,3.096765 27.808235,5.947865 30.805985,8.803165 C30.836085,8.831515 30.847285,8.879465 30.922535,9.024715" id="Fill-7" fill="#2679BE"></path>
            <g id="Group-11" transform="translate(22.750000, 10.145345)">
                <mask id="mask-6" fill="white">
                    <use xlink:href="#path-5"></use>
                </mask>
                <g id="Clip-10"></g>
                <path d="M0.070595,20.91299 L0.070595,20.13389 C0.070595,13.69774 0.077595,7.26089 0.0586734092,0.82439 C0.056945,0.28434 0.160545,0.09534 0.746795,0.10479 C3.041745,0.14189 5.338095,0.11669 7.633745,0.12194 C8.644195,0.12439 9.030595,0.49959 9.031995,1.50094 C9.037945,4.67439 9.031995,7.84749 9.033745,11.02059 C9.033745,11.27469 9.006795,11.49729 8.814995,11.69889 C5.946745,14.71449 3.084095,17.73534 0.070595,20.91299" id="Fill-9" fill="#2679BE" mask="url(#mask-6)"></path>
            </g>
        </g>
    </g>
</svg>