<?xml version="1.0" encoding="UTF-8"?>
<svg width="42px" height="42px" viewBox="0 0 42 42" version="1.1" xmlns="http://www.w3.org/2000/svg" xmlns:xlink="http://www.w3.org/1999/xlink">
    <title>[00198] Banco de Valores</title>
    <defs>
        <polygon id="path-1" points="0.0779333767 0.149382088 7.04397791 0.149382088 7.04397791 14.7 0.0779333767 14.7"></polygon>
    </defs>
    <g id="[00198]-Banco-de-Valores" stroke="none" stroke-width="1" fill="none" fill-rule="evenodd">
        <g id="Group-30" transform="translate(3.000000, 15.000000)">
            <g id="Group-3" transform="translate(28.500000, 0.030750)">
                <mask id="mask-2" fill="white">
                    <use xlink:href="#path-1"></use>
                </mask>
                <g id="Clip-2"></g>
                <path d="M1.28235,0.149382088 C1.38975,0.1482 1.47015,0.2073 1.51605,0.3255 C1.75875,0.948 2.00115,1.5708 2.24295,2.1936 C3.12015,4.4517 3.99735,6.7095 4.87335,8.9679 C5.59095,10.8174 6.30705,12.6675 7.02435,14.5173 C7.04475,14.5698 7.05885,14.6205 7.01625,14.6682 C6.97605,14.7135 6.92535,14.7009 6.87495,14.688 C6.78255,14.664 6.69015,14.6391 6.59715,14.6181 C6.30105,14.5518 6.09675,14.3775 5.97495,14.1015 C5.53395,13.1025 5.09175,12.1038 4.65075,11.1051 C3.53235,8.5722 2.41425,6.0396 1.29645,3.5067 C0.90105,2.6115 0.50595,1.7166 0.11115,0.8211 C0.05145,0.6867 0.06675,0.6504 0.20205,0.5985 C0.52575,0.4746 0.84165,0.3339 1.15395,0.1845 C1.19505,0.165 1.23675,0.15 1.28235,0.149382088" id="Fill-1" fill="#BE253B" mask="url(#mask-2)"></path>
            </g>
            <path d="M27.64689,0.977894977 C27.78489,0.97671 27.85269,1.04751 27.90069,1.15011 C28.08639,1.54761 28.27389,1.94451 28.46079,2.34111 C30.05799,5.73501 31.65519,9.12921 33.25269,12.52311 C33.50289,13.05531 33.75159,13.58751 34.00179,14.11971 C34.02819,14.17551 34.05339,14.23131 34.00629,14.28621 C33.95799,14.34291 33.89769,14.32011 33.84039,14.30271 C33.74589,14.27391 33.65259,14.24391 33.55809,14.21541 C33.24459,14.12091 33.01089,13.92891 32.85849,13.63911 C32.45799,12.87861 32.05749,12.11811 31.65819,11.35671 C30.72039,9.57021 29.78319,7.78341 28.84599,5.99631 C28.04349,4.46571 27.24129,2.93451 26.43969,1.40391 C26.38449,1.29921 26.41449,1.23231 26.52429,1.21551 C26.87859,1.16061 27.22809,1.08081 27.57549,0.99291 C27.60399,0.98541 27.63369,0.98061 27.64689,0.977894977" id="Fill-4" fill="#BE253B"></path>
            <path d="M25.43763,1.34472 C25.53153,1.34592 25.60203,1.40412 25.65423,1.49862 C26.02443,2.17032 26.39673,2.84112 26.76843,3.51252 C28.27053,6.22572 29.77263,8.93892 31.27473,11.65242 C31.62903,12.29232 31.98243,12.93252 32.33673,13.57242 C32.36673,13.62642 32.39823,13.67982 32.34753,13.73682 C32.29773,13.79202 32.23923,13.77042 32.18163,13.74942 C32.02773,13.69272 31.87383,13.63572 31.71933,13.58022 C31.45203,13.48392 31.25733,13.30482 31.11063,13.06362 C30.22353,11.60352 29.33313,10.14552 28.44573,8.68572 C27.16743,6.58272 25.89063,4.47882 24.61293,2.37582 C24.45183,2.11002 24.29133,1.84422 24.13083,1.57812 C24.07383,1.48392 24.10593,1.39572 24.20283,1.39452 C24.60933,1.39002 25.01553,1.37142 25.43763,1.34472" id="Fill-6" fill="#BE253B"></path>
            <path d="M21.79659,1.29432 C22.16199,1.31532 22.54389,1.33572 22.92579,1.36122 C23.09109,1.37202 23.21769,1.45332 23.30769,1.59492 C23.72259,2.24802 24.13839,2.90052 24.55389,3.55302 C26.34369,6.36312 28.13319,9.17292 29.92299,11.98272 C30.10269,12.26472 30.28179,12.54762 30.46119,12.82992 C30.47409,12.85032 30.48999,12.86952 30.49779,12.89142 C30.51249,12.93192 30.51729,12.97482 30.48429,13.00962 C30.45039,13.04532 30.40959,13.05582 30.36219,13.03572 C30.09909,12.92322 29.82789,12.82632 29.57619,12.68952 C29.38749,12.58722 29.23299,12.44082 29.11029,12.26322 C26.66409,8.72172 24.21759,5.17992 21.77139,1.63842 C21.73599,1.58682 21.70239,1.53372 21.66519,1.48302 C21.63309,1.43922 21.61209,1.39242 21.63999,1.34172 C21.66939,1.28772 21.72189,1.27602 21.79659,1.29432" id="Fill-8" fill="#BE253B"></path>
            <path d="M19.15638,1.03212 C19.52178,1.07172 19.88748,1.11072 20.25288,1.15092 C20.32698,1.15902 20.40198,1.16532 20.47428,1.18362 C20.62188,1.22082 20.71818,1.32642 20.80368,1.44522 C22.16178,3.32982 23.52078,5.21352 24.87768,7.09902 C26.02668,8.69562 27.17358,10.29402 28.32138,11.89152 C28.32288,11.89392 28.32498,11.89632 28.32678,11.89872 C28.36668,11.95002 28.40448,12.00312 28.35468,12.06732 C28.30128,12.13632 28.23828,12.10602 28.17708,12.07812 C28.08468,12.03642 27.99198,11.99472 27.89988,11.95272 C27.72858,11.87502 27.55728,11.79792 27.38688,11.71872 C27.16848,11.61732 26.98668,11.47062 26.83908,11.28012 C24.45198,8.19282 22.06458,5.10582 19.67718,2.01882 C19.47258,1.75362 19.26858,1.48842 19.06248,1.22442 C19.02768,1.18002 19.00938,1.13682 19.03428,1.08492 C19.05858,1.03392 19.10508,1.02582 19.15638,1.03212" id="Fill-10" fill="#BE253B"></path>
            <path d="M25.94679,10.88934 C25.94859,10.98054 25.87149,11.02464 25.78059,10.98474 C25.58679,10.89954 25.39389,10.81194 25.20099,10.72524 C25.08099,10.67124 24.96249,10.61514 24.84099,10.56444 C24.61599,10.47024 24.42999,10.32564 24.27129,10.14084 C22.39989,7.95804 20.52669,5.77614 18.65529,3.59304 C17.89089,2.70084 17.12979,1.80624 16.36779,0.91194 C16.31919,0.85524 16.24119,0.80244 16.29309,0.71184 C16.34289,0.62424 16.42659,0.66594 16.49649,0.67554 C16.90479,0.73254 17.31309,0.79164 17.72109,0.85044 C17.87319,0.87234 17.99379,0.94614 18.09039,1.06674 C19.48569,2.80764 20.88129,4.54794 22.27809,6.28764 C23.48169,7.78734 24.68649,9.28614 25.89069,10.78524 C25.91649,10.81764 25.94919,10.84674 25.94679,10.88934" id="Fill-12" fill="#BE253B"></path>
            <path d="M13.50852,0.20361 C13.76832,0.24291 14.02842,0.28101 14.28852,0.32181 C14.45652,0.34791 14.62362,0.38331 14.79192,0.40611 C15.01332,0.43551 15.18792,0.53691 15.33522,0.70521 C15.87432,1.32201 16.41852,1.93461 16.96182,2.54751 C19.02972,4.88211 21.09822,7.21611 23.16612,9.55011 C23.17992,9.56601 23.19342,9.58221 23.20782,9.59721 C23.25582,9.64731 23.29662,9.70131 23.24532,9.77031 C23.19312,9.83991 23.13012,9.80931 23.06772,9.78231 C22.81302,9.67251 22.55922,9.55941 22.30152,9.45681 C21.96132,9.32181 21.64812,9.14871 21.39612,8.87691 C21.22932,8.69721 21.05952,8.52021 20.89152,8.34141 C20.33022,7.74441 19.76922,7.14711 19.20762,6.55011 C18.19962,5.47821 17.19072,4.40721 16.18302,3.33501 C15.32892,2.42601 14.47662,1.51611 13.62312,0.60651 C13.55562,0.53451 13.48842,0.46221 13.42122,0.38991 C13.38792,0.35361 13.37742,0.31131 13.39812,0.26601 C13.41912,0.21981 13.45722,0.20031 13.50852,0.20361" id="Fill-14" fill="#BE253B"></path>
            <path d="M11.26407,0.00993 C11.49087,0.02313 11.71767,0.03483 11.94417,0.04923 C12.13677,0.06123 12.30267,0.13443 12.43827,0.27393 C12.96117,0.81243 13.48437,1.35063 14.00787,1.88943 C14.53287,2.42973 15.05787,2.97063 15.58257,3.51183 C16.41717,4.37313 17.25177,5.23443 18.08607,6.09603 C18.71247,6.74253 19.33827,7.38993 19.96407,8.03703 C20.07417,8.15103 20.18307,8.26623 20.29377,8.37963 C20.33847,8.42583 20.35767,8.47593 20.31957,8.53203 C20.28327,8.58513 20.23167,8.58633 20.17587,8.56353 C19.75077,8.38923 19.32357,8.22003 18.90117,8.03973 C18.59787,7.91013 18.37137,7.67613 18.14037,7.44963 C17.25597,6.58263 16.37037,5.71683 15.48447,4.85133 C14.97987,4.35783 14.47407,3.86523 13.96947,3.37173 C13.15017,2.57103 12.33147,1.76943 11.51187,0.96843 C11.25327,0.71583 10.99467,0.46263 10.73517,0.21003 C10.69497,0.17073 10.65987,0.13023 10.68327,0.06933 C10.70847,0.00333 10.76517,-0.00027 10.82457,1.50859584e-05 C10.97097,0.00093 11.11767,0.00033 11.26407,0.00033 L11.26407,0.00993 Z" id="Fill-16" fill="#BE253B"></path>
            <path d="M9.19572,0.02136 C9.30942,0.02196 9.42222,0.01236 9.53532,0.03576 C9.71742,0.07356 9.84762,0.18966 9.97662,0.31236 C11.08542,1.36836 12.19512,2.42376 13.30452,3.47916 C14.25162,4.38006 15.19842,5.28126 16.14582,6.18186 C16.45572,6.47676 16.76652,6.77016 17.07702,7.06446 C17.09442,7.08066 17.11092,7.09866 17.12832,7.11486 C17.17692,7.15956 17.21862,7.20756 17.17632,7.27746 C17.13312,7.34766 17.07222,7.33146 17.01012,7.30776 C16.83732,7.24176 16.66452,7.17636 16.49082,7.11186 C16.26732,7.02816 16.04412,6.94386 15.81912,6.86436 C15.51462,6.75606 15.26232,6.57276 15.02472,6.35706 C13.28742,4.78296 11.54682,3.21276 9.80742,1.64046 C9.31722,1.19736 8.82822,0.75276 8.33862,0.30906 C8.29272,0.26736 8.24832,0.22536 8.27052,0.15636 C8.29392,0.08496 8.35692,0.08436 8.41782,0.07986 C8.67702,0.06096 8.93652,0.04086 9.19572,0.02136" id="Fill-18" fill="#BE253B"></path>
            <path d="M7.09923,0.24138 C7.30803,0.24768 7.46943,0.30708 7.60773,0.42888 C8.66583,1.36248 9.72393,2.29608 10.78233,3.22878 C11.80083,4.12608 12.81963,5.02278 13.83813,5.92008 C13.86063,5.93958 13.88523,5.95848 13.90263,5.98188 C13.93113,6.02148 13.93563,6.06618 13.90533,6.10728 C13.87023,6.15438 13.82343,6.16038 13.76883,6.14238 C13.57653,6.07878 13.38183,6.01998 13.19043,5.95368 C12.88623,5.84808 12.57063,5.77698 12.27993,5.63208 C11.95173,5.46858 11.67963,5.23158 11.40303,4.99848 C9.71883,3.58188 8.03523,2.16498 6.35133,0.74808 C6.28743,0.69438 6.22143,0.64248 6.15993,0.58548 C6.08613,0.51738 6.10323,0.41838 6.19803,0.39828 C6.50493,0.33438 6.81273,0.27438 7.09923,0.24138" id="Fill-20" fill="#BE253B"></path>
            <path d="M5.07306,0.67176 C5.32116,0.66906 5.47596,0.72966 5.61276,0.84186 C6.53736,1.60056 7.46256,2.35806 8.38686,3.11676 C9.14706,3.74076 9.90636,4.36596 10.66626,4.99056 C10.68936,5.00976 10.71186,5.02926 10.73346,5.04996 C10.77366,5.08776 10.78026,5.13336 10.75506,5.18016 C10.73136,5.22516 10.68846,5.24436 10.64106,5.23146 C10.20636,5.11326 9.75786,5.05056 9.33486,4.88796 C9.00666,4.76166 8.73006,4.55586 8.45706,4.34046 C7.10466,3.27426 5.75016,2.21076 4.39656,1.14636 C4.36116,1.11846 4.32426,1.09266 4.29186,1.06236 C4.22886,1.00326 4.23576,0.91356 4.31466,0.88656 C4.58526,0.79446 4.85436,0.69516 5.07306,0.67176" id="Fill-22" fill="#BE253B"></path>
            <path d="M3.44328,1.26384 C3.62178,1.26234 3.76698,1.31094 3.89448,1.40874 C5.17518,2.39274 6.45558,3.37704 7.73658,4.36074 C7.78578,4.39854 7.81878,4.44294 7.79688,4.50594 C7.77738,4.56174 7.72848,4.58274 7.67358,4.57014 C7.29198,4.48434 6.89958,4.44894 6.52548,4.33104 C6.15708,4.21434 5.83428,4.01394 5.52498,3.78294 C4.60488,3.09594 3.67878,2.41704 2.75508,1.73454 C2.70978,1.70124 2.65758,1.67154 2.66418,1.60224 C2.67108,1.52814 2.73138,1.50954 2.78598,1.48614 C2.93118,1.42404 3.07608,1.36104 3.22278,1.30164 C3.29838,1.27104 3.37848,1.26084 3.44328,1.26384" id="Fill-24" fill="#BE253B"></path>
            <path d="M1.96701,1.93944 C2.13621,1.94064 2.27961,1.98174 2.40801,2.07474 C3.23601,2.67384 4.06461,3.27264 4.89411,3.87084 C4.94751,3.90954 4.98531,3.95274 4.96071,4.02054 C4.94091,4.07514 4.89441,4.09464 4.83741,4.08564 C4.43961,4.02414 4.03491,4.00404 3.64851,3.87474 C3.40641,3.79374 3.17691,3.68784 2.96691,3.54234 C2.42211,3.16374 1.87791,2.78394 1.33341,2.40504 C1.20651,2.31654 1.20861,2.23584 1.34721,2.16864 C1.52571,2.08194 1.69191,1.96224 1.89891,1.94484 C1.92561,1.94244 1.95261,1.94064 1.96701,1.93944" id="Fill-26" fill="#BE253B"></path>
            <path d="M1.99953,3.82059 C1.36053,3.80379 0.78573,3.60489 0.26643,3.23709 C0.20313,3.19209 0.13593,3.15249 0.07203,3.10839 C-0.02187,3.04389 -0.02487,2.96259 0.06903,2.90199 C0.22683,2.80149 0.37413,2.67969 0.57213,2.65929 C0.74463,2.64159 0.90813,2.66709 1.05243,2.76429 C1.47153,3.04599 1.88763,3.33249 2.30553,3.61629 C2.35563,3.65049 2.38143,3.69219 2.36253,3.75249 C2.34363,3.81129 2.29653,3.82239 2.24133,3.82119 C2.16063,3.81939 2.08023,3.82059 1.99953,3.82059" id="Fill-28" fill="#BE253B"></path>
        </g>
    </g>
</svg>