<?xml version="1.0" encoding="UTF-8"?>
<svg width="42px" height="42px" viewBox="0 0 42 42" version="1.1" xmlns="http://www.w3.org/2000/svg" xmlns:xlink="http://www.w3.org/1999/xlink">
    <title>[00191] Banco Credicoop</title>
    <g id="[00191]-Banco-Credicoop" stroke="none" stroke-width="1" fill="none" fill-rule="evenodd">
        <path d="M6.36829092,21.2714024 C6.45940614,21.2974353 6.49093489,21.3364847 6.48862086,21.4319387 C6.48167874,21.7032596 6.48167874,21.9745804 6.48862086,22.2459013 C6.49047209,22.32481 6.46973831,22.3592891 6.41294258,22.3669625 L6.36337359,22.3679668 C6.249118,22.3601569 6.12039968,22.3971815 6.02234235,22.3563966 C5.96044186,22.3310868 5.94887167,22.2804672 5.9490163,22.2230863 L5.95348367,22.1048053 C5.95301765,22.0854212 5.95099287,22.0666598 5.94597912,22.0492081 C5.86816962,21.777598 5.69750937,21.6234253 5.40160186,21.5858222 C4.67239088,21.4935499 4.16908778,21.8290853 4.00160933,22.5458584 C3.88185791,23.0575499 3.88908927,23.5721339 4.10631952,24.0627098 C4.34292983,24.5969631 4.90205907,24.8653915 5.46408087,24.7279955 C5.75998838,24.6556818 5.91069006,24.492253 5.95523527,24.1928744 L5.96763707,24.1075081 L5.96763707,24.1075081 L5.97287981,24.0219249 C5.97114428,23.9337022 6.00845813,23.9102726 6.09465602,23.9082478 L6.25965705,23.9057905 C6.41831189,23.9076793 6.46590834,23.9334039 6.48018727,24.0584659 L6.48608017,24.1917503 L6.48608017,24.1917503 L6.48630682,24.4832861 C6.48630682,24.6345662 6.48486055,24.7858464 6.48717458,24.9371266 C6.48804235,24.9998949 6.47965396,25.0435723 6.40531552,25.0641094 C5.73800503,25.2451828 5.06346317,25.3345625 4.38024368,25.1792328 C3.65016493,25.0132006 3.15177916,24.4511788 3.04359792,23.6968027 C2.98401146,23.2811437 2.97562307,22.8649063 3.08149028,22.4547432 C3.28628257,21.6633424 3.95966741,21.1357419 4.8074728,21.0836761 C5.34056913,21.0509903 5.85775645,21.1235932 6.36829092,21.2714024 Z M25.425776,21.27658 C25.4972219,21.2971171 25.52123,21.334431 25.5197838,21.4096372 C25.515445,21.6913712 25.5145772,21.9731052 25.520073,22.2551285 C25.5214615,22.3275579 25.501931,22.3594453 25.4494856,22.3666374 L25.4037927,22.3676486 C25.2889586,22.3607065 25.158794,22.3985988 25.0630507,22.3554999 C25.0076584,22.330624 24.9941358,22.280366 24.9912432,22.2232744 L24.9903754,22.1054754 C24.9895077,22.0861556 24.987507,22.0674505 24.9832164,22.050047 C24.9172663,21.7813294 24.7269368,21.6181898 24.4235086,21.5849255 C23.6494632,21.4998846 23.1183916,21.9106262 23.0084749,22.6820684 C22.9422355,23.1471899 22.9433926,23.6079726 23.1371932,24.0482181 C23.3691754,24.5766864 23.887809,24.846561 24.4559052,24.7401153 C24.8096636,24.673876 24.9728032,24.4896207 25.0046212,24.0687552 C25.014022,23.9450989 25.0531517,23.9140442 25.1369084,23.908634 L25.1926368,23.9079296 C25.4887283,23.9139777 25.5156458,23.9107026 25.5180928,24.1538917 L25.518916,24.9388332 C25.5194945,25.0007337 25.5134202,25.0441219 25.4376355,25.064659 C24.7755315,25.2451539 24.1064855,25.3313518 23.4273156,25.1815179 C22.6761213,25.0163535 22.1554629,24.4097865 22.0686865,23.6299559 C22.022695,23.2171895 22.0137281,22.8067372 22.1346365,22.4052517 C22.3570734,21.6659168 22.8716574,21.2519934 23.6182237,21.1180685 C24.2328898,21.0078625 24.8330932,21.1070768 25.425776,21.27658 Z M33.3937004,21.1451427 C34.1434485,21.3406789 34.6467516,21.9272873 34.734685,22.6967047 C34.7818335,23.1094711 34.780098,23.5184772 34.6696027,23.9208304 C34.4543973,24.7058675 33.8061776,25.217559 32.9896117,25.2487985 C32.6815555,25.2606579 32.3740778,25.2600794 32.0741207,25.1730138 C31.3287115,24.9566513 30.9243334,24.4423565 30.7840449,23.697815 C30.7635657,23.5896917 30.7542286,23.4807352 30.7496607,23.389377 L30.7449956,23.2355861 L30.7449956,23.2355861 C30.74326,22.8910838 30.7666897,22.6330687 30.8404496,22.3802601 C31.0588369,21.6299335 31.6512304,21.1431179 32.4299039,21.0878703 C32.7524229,21.0650192 33.0758096,21.0621266 33.3937004,21.1451427 Z M28.8484974,21.1618906 C29.47618,21.3461458 29.8776655,21.7583337 30.0546893,22.3805204 C30.1984489,22.8858483 30.1975811,23.4001431 30.0627885,23.9086528 C29.8525003,24.702946 29.1990741,25.2195549 28.3770123,25.2490588 C28.0689561,25.2600505 27.7617677,25.2580257 27.4615213,25.1724064 C26.6961535,24.9543083 26.2049991,24.3286505 26.1474375,23.4929938 C26.1399168,23.3839448 26.1462804,23.2740281 26.1462804,23.1646898 C26.1335532,22.8927904 26.1575614,22.6243621 26.2362386,22.3620081 C26.4563614,21.6238302 27.05454,21.139618 27.8242467,21.0872629 C28.1681705,21.0641225 28.5120943,21.0629655 28.8484974,21.1618906 Z M17.1465846,21.1831219 C17.4436492,21.2010556 17.7343501,21.2591958 18.0152164,21.3636168 C18.6923615,21.6155576 19.0226903,22.1246458 19.0871941,22.8208817 C19.1190121,23.1587311 19.1094667,23.4986054 19.0229796,23.8303805 C18.8329393,24.5561204 18.3391816,24.9460357 17.6247226,25.094134 C17.3739388,25.1459106 17.1216364,25.1589271 16.8781563,25.1608434 L16.4060231,25.1580714 L16.4060231,25.1580714 L15.0144886,25.1629767 L15.0144886,25.1629767 C14.9381254,25.1641337 14.8902711,25.1451123 14.8885494,25.0896217 L14.8993652,25.008522 L14.8993652,25.008522 L14.8830947,24.8989956 C14.8815038,24.8523172 14.9016793,24.8144248 15.0006044,24.8097967 C15.2629583,24.797648 15.3370075,24.7264914 15.3783709,24.46703 C15.3905196,24.3900882 15.3913874,24.3111217 15.3913874,24.2330229 L15.3910981,22.0896459 L15.3910981,22.0896459 C15.3910981,22.0066299 15.3890734,21.9224568 15.3748999,21.8405977 C15.3323795,21.5935742 15.2690327,21.5313845 15.0136208,21.519525 C14.9131048,21.5148969 14.8885905,21.476643 14.886638,21.4286991 L14.8977732,21.3145711 L14.8977732,21.3145711 L14.8950264,21.2797329 C14.8721753,21.1831219 14.9248196,21.1565104 15.0173811,21.1573782 L16.0821998,21.1570166 C16.4371153,21.1571612 16.7919584,21.161717 17.1465846,21.1831219 Z M9.06770214,21.1784649 C9.30865126,21.1920598 9.54526157,21.2313985 9.77001244,21.3196211 C10.1677376,21.4755294 10.3491003,21.7604452 10.3551746,22.2238312 C10.3606704,22.6687048 10.1876962,22.9487033 9.80269821,23.1156033 C9.77492977,23.127752 9.74079772,23.1286197 9.7243102,23.173165 C10.0124078,23.2206027 10.1165395,23.4384115 10.1882747,23.6808069 C10.2634809,23.9350617 10.331745,24.1913413 10.4026124,24.4467532 C10.4569096,24.6426199 10.5760235,24.7604941 10.7572217,24.7978257 L10.8529819,24.8097678 C10.9183534,24.8132388 10.9490144,24.8294371 10.9438078,24.8988582 C10.939469,24.9558414 10.9397583,25.0136923 10.9438078,25.0709647 C10.9484359,25.1377826 10.92356,25.1623692 10.8547174,25.16208 C10.5102151,25.1594767 10.1654236,25.1580304 9.82092126,25.1627114 C9.75103733,25.1638209 9.7278044,25.1275787 9.70975491,25.0835649 L9.69654176,25.0495599 C9.63464126,24.8914822 9.58799895,24.7292104 9.54753945,24.5652391 L9.43389853,24.0551024 C9.31588263,23.4653122 9.14551164,23.3779572 8.46923426,23.3976266 C8.41277175,23.3994778 8.401109,23.4257653 8.3988505,23.4618272 L8.39836686,23.4904773 C8.40010239,23.8086574 8.39258177,24.1271268 8.40473047,24.4450177 C8.41456513,24.6984047 8.5250604,24.805429 8.77873674,24.8089 C8.96197956,24.811431 8.89829382,24.9251352 8.8946239,25.0095236 L8.8976204,25.0434856 C8.9193145,25.1266463 8.88255505,25.1529604 8.81713797,25.159087 L8.77468717,25.1606337 C8.23175618,25.1565841 7.68853594,25.1551378 7.14560495,25.1617907 C7.05628312,25.1627114 7.03027334,25.1364289 7.02240561,25.0777449 L7.01920067,25.0275765 C7.01688663,24.8933624 7.00705197,24.7924125 7.20316663,24.8022472 C7.36341371,24.810057 7.47217346,24.7004295 7.49328905,24.530637 C7.50514849,24.4325797 7.51787569,24.3339439 7.51816495,24.235308 L7.51874346,22.0910633 C7.51874346,22.0230884 7.51903271,21.9548243 7.51035507,21.8880065 C7.47795855,21.6378334 7.4220217,21.5574706 7.21212043,21.5274643 L7.12593564,21.5183391 C7.06114259,21.5134796 7.03337415,21.4967722 7.0239699,21.4492604 L7.02006843,21.4075545 C7.01492613,21.1864354 7.01138365,21.1607239 7.17968304,21.158959 L8.46240999,21.1592991 C8.66422403,21.1617202 8.86599522,21.1671839 9.06770214,21.1784649 Z M14.2813148,21.1764658 C14.3773474,21.1761797 14.3906531,21.2143614 14.3894961,21.2962204 C14.3854465,21.583161 14.383711,21.8701017 14.3903638,22.156753 C14.3917522,22.2342733 14.3744432,22.2742136 14.3178511,22.2801282 L14.2129422,22.2744435 L14.2129422,22.2744435 L14.1583816,22.27824 C14.0631686,22.2929438 14.0215882,22.2680759 14.0117121,22.1895754 L14.0094154,22.1359267 C14.0154898,21.8212176 13.9211928,21.718243 13.60793,21.671673 C13.2703698,21.6216319 12.9304956,21.6598135 12.5917784,21.6476648 C12.5301671,21.64564 12.5107871,21.6725407 12.5110763,21.7315487 C12.5128119,22.0861749 12.5136796,22.4410903 12.5104978,22.7957166 C12.5102086,22.8741046 12.5446299,22.8960879 12.6146295,22.8920384 L12.8804545,22.8807574 L12.8804545,22.8807574 C13.1795438,22.8515427 13.2460724,22.7980306 13.2749979,22.5038586 C13.2851218,22.4018963 13.3169398,22.3720469 13.3888651,22.366938 L13.4369805,22.3664626 C13.5890561,22.3714523 13.6272377,22.369771 13.6368238,22.4570897 L13.6400372,22.5776185 L13.6400372,22.5776185 L13.6408729,23.752346 C13.6396676,23.7839229 13.6316649,23.811378 13.599184,23.8160543 L13.5208559,23.809631 L13.5208559,23.809631 L13.3992689,23.8281387 C13.3466607,23.8313205 13.3008862,23.8137483 13.2816507,23.7193067 L13.2588425,23.5857139 C13.2416372,23.4970305 13.2113618,23.4144323 13.1135938,23.369887 C13.0079001,23.3212923 12.8967916,23.3084146 12.7843294,23.3066999 L12.5588033,23.3108791 L12.5588033,23.3108791 C12.5191031,23.3115299 12.5125949,23.3372374 12.5118221,23.3649381 L12.5110763,24.5977731 C12.5110763,24.6498389 12.5159937,24.6900453 12.5842578,24.688599 C12.9079337,24.6822354 13.2333452,24.7140534 13.5547071,24.67269 C13.9156969,24.6255415 14.0047874,24.5115752 14.0426797,24.1225277 C14.0496218,24.052528 14.0071014,23.9463716 14.0762333,23.9203387 C14.1632989,23.8873636 14.2711909,23.9061652 14.370116,23.90819 C14.4088183,23.9090577 14.4187802,23.9290857 14.4206199,23.9532165 L14.4195785,24.002487 C14.4204463,24.3574024 14.4163967,24.7120286 14.4221818,25.0669441 C14.4235317,25.1423432 14.3931278,25.1588628 14.3533392,25.1615839 L11.2811655,25.1627559 C11.1982459,25.1634165 11.1380247,25.1536894 11.1331435,25.0816293 L11.1393709,24.9951694 L11.1393709,24.9951694 L11.1333847,24.920092 C11.1308311,24.8709413 11.1392873,24.827413 11.2075649,24.8124305 L11.2707524,24.8069042 C11.5183543,24.8092182 11.622486,24.6848387 11.6291389,24.4120716 L11.6331161,23.9738508 L11.6331161,23.9738508 L11.6302959,21.970473 L11.6302959,21.970473 C11.6276926,21.6352269 11.5614533,21.5623347 11.2319922,21.5166325 C11.1344721,21.5030788 11.1251687,21.4550507 11.1310044,21.4014771 L11.1419775,21.3205735 L11.1419775,21.3205735 L11.1388522,21.2837825 C11.1177367,21.204816 11.1593893,21.1767583 11.2418269,21.1770475 C12.255086,21.1790723 13.2680558,21.1796508 14.2813148,21.1764658 Z M21.416128,21.1655641 C21.4959623,21.1634815 21.5384017,21.1856499 21.5400401,21.2413997 L21.5305615,21.3223356 L21.5305615,21.3223356 L21.5430746,21.4307383 C21.54246,21.4765852 21.5202597,21.5135374 21.4230701,21.5184548 C21.135551,21.5332068 21.0383614,21.6309748 21.0366259,21.9164692 C21.03113,22.7460515 21.0314193,23.5759231 21.0363366,24.4057947 C21.0378793,24.6575106 21.1251271,24.7771263 21.3364758,24.8024283 L21.4216238,24.8075695 C21.5232762,24.8086025 21.5409561,24.8516955 21.5397038,24.9044866 L21.5332761,24.9704198 L21.5332761,24.9704198 L21.5332117,25.0004182 L21.5332117,25.0004182 L21.5405674,25.064796 C21.5443808,25.1176868 21.5316129,25.1633652 21.4213346,25.1619723 C20.8677012,25.1538073 20.3140677,25.1572783 19.7604343,25.1607494 C19.6779968,25.1613279 19.6456002,25.138766 19.6545671,25.05575 C19.660063,25.0042626 19.658906,24.9510398 19.6548564,24.8992632 C19.6502283,24.8434949 19.6694811,24.8232702 19.7105414,24.8147453 L19.7453931,24.8101727 C20.0522923,24.7852968 20.1364654,24.6993882 20.1480356,24.3728197 C20.158738,24.0757552 20.1523744,23.7778229 20.1526637,23.4804691 C20.1532422,23.0211327 20.1541099,22.5617963 20.1517959,22.1024599 C20.1515066,22.0090307 20.1448538,21.9147337 20.1298125,21.8227507 C20.0996939,21.6329273 20.0348059,21.5432041 19.8762402,21.5258709 L19.8023763,21.5227936 C19.6658842,21.5246014 19.6487097,21.4673155 19.6513509,21.3998039 L19.6577366,21.2969758 L19.6577366,21.2969758 L19.6560134,21.2777949 C19.640311,21.1734566 19.6908715,21.1631261 19.7487689,21.1656349 L19.817996,21.1696137 L19.817996,21.1696137 L20.6015869,21.1690352 L20.6015869,21.1690352 L20.6012976,21.1678781 C20.8729077,21.1678781 21.1448071,21.1725062 21.416128,21.1655641 Z M35.328332,21.1588038 L36.4337669,21.1588534 L36.4337669,21.1588534 L36.8246785,21.1614353 C37.1006917,21.163385 37.4026735,21.1736054 37.70157,21.2389769 C38.5161111,21.417447 38.8773902,22.3546321 38.3934672,23.0421904 C38.2016913,23.3146683 37.9133044,23.4118579 37.6023557,23.464213 C37.3327703,23.5093367 37.0605817,23.5015268 36.7898393,23.4911137 C36.6656251,23.486403 36.6253538,23.5212198 36.6211187,23.6150547 L36.6217824,23.6669805 C36.6368236,23.932227 36.6099229,24.1989198 36.6402947,24.4641663 C36.664339,24.6775278 36.7351115,24.7768371 36.913846,24.8025937 L36.9972349,24.8092471 C37.1055608,24.8121397 37.1294966,24.8522738 37.1292074,24.9025679 L37.1130588,25.0214499 L37.1130588,25.0214499 L37.1158293,25.0568491 C37.1364628,25.1359121 37.1027165,25.15481 37.0562429,25.1585382 L36.1755709,25.1578743 L36.1755709,25.1578743 L35.3687312,25.1604478 C35.2971407,25.1608883 35.2378033,25.1545375 35.2360825,25.0918115 L35.2451619,25.0128689 L35.2451619,25.0128689 L35.2338561,24.9363339 C35.2239638,24.8719973 35.227828,24.8129713 35.3574503,24.8095364 C35.6203828,24.8028835 35.7340599,24.6958593 35.7360846,24.4346624 C35.7424482,23.5845429 35.7427375,22.7341342 35.7363739,21.8840148 C35.7343491,21.6259997 35.6310852,21.5267853 35.368442,21.5201325 C35.2437009,21.5170591 35.2320629,21.4616714 35.2364272,21.3987415 L35.2431309,21.322471 L35.2431309,21.322471 L35.2405914,21.2869932 C35.2220309,21.1966011 35.2593126,21.1658678 35.328332,21.1588038 Z M28.1397078,21.5645862 C27.7017763,21.5637231 27.3760755,21.8014905 27.2117789,22.2446286 C27.1250025,22.4785778 27.087839,22.720117 27.0802953,22.9656918 L27.0798788,23.1505742 C27.0726474,23.4759857 27.1056224,23.795612 27.2305804,24.0996187 C27.4032655,24.5181702 27.7214456,24.7400285 28.1408648,24.7383131 C28.5808212,24.7368467 28.9108607,24.5144099 29.0638764,24.0761891 C29.2767679,23.4675973 29.2759001,22.8474353 29.0693723,22.2379757 C28.9169351,21.7870277 28.5894988,21.5657479 28.1397078,21.5645862 Z M32.7558071,21.5647644 C32.3190326,21.5604256 31.9872575,21.7979037 31.8226716,22.2381493 C31.7356638,22.4714042 31.696788,22.7128046 31.6890128,22.9584998 L31.6887467,23.1435164 C31.6800691,23.4585147 31.7124656,23.7680172 31.8244072,24.0645032 C31.9913071,24.505038 32.326264,24.7445409 32.7584104,24.7384665 C33.2024163,24.7321029 33.5339022,24.5006992 33.6834468,24.05409 C33.8839003,23.4538866 33.8818755,22.8438485 33.6817113,22.2442236 C33.5312989,21.7941434 33.2044411,21.5691033 32.7558071,21.5647644 Z M16.4046175,21.6364707 C16.292676,21.6324211 16.2657753,21.6688672 16.2672216,21.7764699 L16.2706926,22.4724166 L16.2706926,22.4724166 L16.2698249,23.1683633 C16.2698249,23.6323278 16.2727174,24.0962923 16.2675108,24.5602567 C16.2663538,24.6606281 16.2918082,24.6970742 16.3965184,24.6909998 L16.8815985,24.6849255 L16.8815985,24.6849255 C17.5055208,24.6600496 17.9240722,24.3499686 18.0799805,23.7945997 C18.1771701,23.4486511 18.1881617,23.0925786 18.1421702,22.7405557 C18.0637822,22.1429556 17.7340319,21.8027921 17.1526301,21.6847762 C17.0291183,21.659611 16.9045942,21.6497764 16.7797085,21.6451122 L16.4046175,21.6364707 L16.4046175,21.6364707 Z M36.9039358,21.6298178 L36.7472321,21.6250451 C36.6503318,21.6172352 36.6214064,21.6554169 36.6228526,21.7502924 L36.6252028,22.2670097 L36.6252028,22.2670097 L36.6242989,22.78351 C36.6242989,23.0005667 36.6242989,23.043978 36.7626228,23.052216 L37.0509495,23.0533846 L37.0509495,23.0533846 C37.41946,23.031112 37.6364009,22.8520634 37.7037973,22.5159495 C37.8044579,22.0123571 37.5695831,21.6895489 37.0602057,21.636326 L36.9039358,21.6298178 L36.9039358,21.6298178 Z M8.48196146,21.6473466 C8.4222593,21.6450326 8.40383956,21.6682655 8.39930405,21.7089 L8.39880542,22.6024378 C8.40041324,22.9138099 8.41933614,22.9840036 8.64204401,22.9806492 L8.80161469,22.9711519 C8.83278276,22.968545 8.86636161,22.965538 8.90253773,22.9622983 C9.32916424,22.9241167 9.54165995,22.6941653 9.52086408,22.2985116 L9.50476592,22.1555671 L9.50476592,22.1555671 C9.46224549,21.883957 9.32398176,21.7399081 9.05873524,21.6797432 C8.96328121,21.6581937 8.86717635,21.6516855 8.7708907,21.6497692 L8.48196146,21.6473466 L8.48196146,21.6473466 Z M26.2839946,17.0579744 C26.7103559,17.1742548 26.9984536,17.5285918 27.0476269,18.0064405 C27.0733705,18.2554887 27.071635,18.5062725 26.9915115,18.7495357 C26.8494874,19.1802358 26.544613,19.4165569 26.1049459,19.483664 C25.924451,19.5114324 25.7393281,19.5117217 25.5591224,19.4744078 C24.9678859,19.3523424 24.6621437,18.9297413 24.6630115,18.1987948 C24.6601189,18.0506964 24.6847056,17.8615239 24.755573,17.6784257 C24.881688,17.3530142 25.1162735,17.1447508 25.4486271,17.0550819 C25.7245761,16.9801649 26.0068886,16.9821897 26.2839946,17.0579744 Z M24.2090842,17.1170402 C24.2715632,17.1343955 24.2984638,17.1630317 24.2973068,17.2263785 L24.2933296,17.3849624 L24.2933296,17.3849624 L24.294125,17.5431123 C24.3036704,17.7788549 24.2299105,17.8291852 23.9956142,17.7586071 C23.9010279,17.3400556 23.6528475,17.2041059 23.2510727,17.3472869 C22.9655784,17.4491046 22.8438022,17.6805083 22.799257,17.9535647 C22.756158,18.2167864 22.7567365,18.484347 22.8559509,18.7400481 C22.9895865,19.0851289 23.3173121,19.263599 23.6702027,19.1866573 C23.8467307,19.1482278 23.9412284,19.0719708 23.9708184,18.9068831 L23.9802837,18.8167006 C23.9845812,18.7216598 24.0091856,18.6973624 24.0544746,18.6943164 L24.1914396,18.702445 C24.2859295,18.703602 24.3019992,18.7218572 24.3015377,18.7568677 L24.2961498,18.8219072 L24.2961498,18.8219072 C24.2921002,18.9731874 24.2912325,19.1244675 24.2964391,19.2751692 C24.2990424,19.352111 24.2724309,19.3810364 24.196357,19.4007057 C23.9626392,19.46116 23.7268966,19.4970275 23.485369,19.4976061 C23.0156195,19.5036804 22.5918614,19.3937636 22.367689,18.936452 C22.1527728,18.4982312 22.1498803,18.0365808 22.3595899,17.5934427 C22.5302501,17.2330314 22.8524798,17.0664207 23.235453,17.0186937 C23.5652033,16.9776195 23.889747,17.0265035 24.2090842,17.1170402 Z M20.2157212,17.0512348 C20.2722994,17.0494993 20.2876414,17.0583852 20.2989849,17.0833282 L20.3273735,17.1562342 L20.3273735,17.1562342 C20.4972624,17.5247447 20.6971052,17.8967262 20.8880775,18.2672078 L21.2278232,18.9496131 L21.2278232,18.9496131 L21.2275339,17.4677615 L21.2275339,17.4677615 C21.2272929,17.3617015 21.1746245,17.2954139 21.0882766,17.2755946 L21.0325763,17.2693328 C20.9567916,17.2687543 20.9428431,17.2370649 20.9408504,17.1972334 L20.9405933,17.1342509 C20.9350975,17.0387969 21.0016261,17.0564414 21.057163,17.0590447 C21.2311014,17.0673367 21.4051684,17.070872 21.5791069,17.0676795 L21.8398861,17.0575984 C21.889175,17.0545902 21.9353169,17.0528778 21.9491364,17.0977794 L21.9529846,17.1409038 C21.9499764,17.1890357 21.9621482,17.2382784 21.9151547,17.2588641 L21.8676545,17.2684651 C21.6993083,17.2780105 21.6605482,17.3974726 21.6605482,17.5435462 C21.6614159,18.1275514 21.6564986,18.712135 21.6631515,19.2961402 C21.6645977,19.4202304 21.6249698,19.4367179 21.508111,19.454941 L21.3225233,19.4615202 C21.1764537,19.4634445 21.1369865,19.4480739 21.0965552,19.3854342 L21.0217391,19.2522761 L21.0217391,19.2522761 L20.9825353,19.1882482 C20.8827424,19.0329184 20.7878669,18.8749854 20.7025368,18.710978 L20.2749675,17.9107377 L20.2749675,17.9107377 L20.1847709,17.7249089 C20.1633661,17.6792067 20.1387794,17.6355292 20.112168,17.5831741 C20.0739864,17.620488 20.0867136,17.6578018 20.0867136,17.6901983 L20.0913417,18.9577122 L20.0913417,18.9577122 C20.0916309,19.1113065 20.1327051,19.2301901 20.3117537,19.2351075 C20.371803,19.2370165 20.3830145,19.2627718 20.3836879,19.2938169 L20.3823318,19.3574622 C20.3921665,19.4393212 20.3447287,19.4592798 20.238283,19.4442386 C20.0634286,19.4197242 19.8867844,19.4113178 19.7111571,19.4232902 L19.5359727,19.4422138 C19.4335284,19.4573997 19.3835114,19.4500879 19.3738696,19.3965089 L19.37393,19.2896886 C19.3762301,19.2684736 19.3840006,19.2506184 19.4078491,19.240918 L19.4570062,19.2330827 C19.5949807,19.2322149 19.66122,19.1454385 19.6652696,19.0103566 C19.6806001,18.5044502 19.6803108,17.9988331 19.6655588,17.4929267 C19.6621842,17.3803584 19.6152205,17.3017374 19.5201481,17.2768159 L19.4572955,17.2684651 C19.3951636,17.2669031 19.3789537,17.2430569 19.3748023,17.2114842 L19.3725438,17.14235 L19.3725438,17.14235 C19.3662959,17.0738545 19.3972578,17.0573786 19.4429183,17.0536761 L19.4795681,17.0526811 C19.724856,17.0544166 19.9704332,17.0581769 20.2157212,17.0512348 Z M15.7651044,17.0758504 C16.2172094,17.1238667 16.4503487,17.441179 16.3346468,17.8391934 C16.2805562,18.0237379 16.1443173,18.1174564 15.9670042,18.188613 C16.390473,18.3604303 16.5157202,18.5788176 16.4280761,18.9629477 C16.3760102,19.1903019 16.2250193,19.3207558 16.0118386,19.3869951 C15.8767567,19.4286477 15.7364682,19.4477386 15.5953119,19.4480278 L14.498169,19.4480278 C14.4382933,19.4474493 14.3570128,19.4801351 14.3558557,19.3621192 C14.3551615,19.2924667 14.3633532,19.2513231 14.4189364,19.2361708 L14.4701113,19.2296405 C14.5756893,19.2261695 14.6425071,19.1555913 14.6427964,19.0439391 C14.6442426,18.5169171 14.6448211,17.9898951 14.6427964,17.4628731 C14.642565,17.3684604 14.5969784,17.3042227 14.5208466,17.280527 L14.4582519,17.2705188 C14.3578805,17.267337 14.3578805,17.2172959 14.356145,17.1420897 C14.3547566,17.0733628 14.3846539,17.0566554 14.4292501,17.0536102 L14.465194,17.0532885 C14.8984975,17.0628339 15.3326687,17.0301481 15.7651044,17.0758504 Z M18.2650456,17.078309 C18.3850863,17.1598789 18.394921,17.3525225 18.4513256,17.4968605 L18.9951244,18.9095803 C19.048058,19.0449514 19.0978098,19.1846614 19.2612387,19.2349918 C19.3396267,19.2589999 19.2988418,19.3324706 19.3014451,19.3836686 C19.3037591,19.4394369 19.2684932,19.4470733 19.2300061,19.4478971 L18.2925248,19.4487509 C18.2274425,19.449908 18.1788477,19.4432551 18.1846328,19.3587927 L18.1889416,19.2914728 C18.1948493,19.2617883 18.2126905,19.2393306 18.2708307,19.2297852 C18.4811189,19.1959424 18.5103336,19.1369344 18.4591355,18.9289603 L18.4213936,18.7862513 C18.3862665,18.6739557 18.3498898,18.6458818 18.2304161,18.6388634 L18.0802119,18.6365239 C17.9705844,18.6365239 17.8603784,18.6313173 17.7513294,18.6379701 L17.6931383,18.6356145 L17.6931383,18.6356145 L17.5728268,18.6247662 C17.5356727,18.6261917 17.5040166,18.6369288 17.4855043,18.6697882 C17.4140584,18.7970602 17.3550505,18.9434231 17.3643066,19.0996206 C17.3712487,19.2147439 17.4710416,19.2248678 17.5482726,19.2292067 C17.6526935,19.235281 17.6443051,19.2937104 17.6457514,19.3645778 C17.6469084,19.4358502 17.6104855,19.4465873 17.5653618,19.4478832 L16.6431277,19.4470964 C16.6249069,19.4450369 16.6091298,19.438951 16.6007391,19.4227296 L16.5854433,19.3194911 C16.5819306,19.2835865 16.5883521,19.2497437 16.6431948,19.2315207 C16.7649131,19.1912564 16.8231343,19.0971214 16.868508,18.9942856 L16.9009207,18.9162331 C17.1300104,18.3466907 17.3605463,17.7780161 17.5812476,17.2050026 C17.6171152,17.1124411 17.6576108,17.0602364 17.7378339,17.05061 L17.8059985,17.0514084 C17.9604605,17.0687636 18.1450049,16.99645 18.2650456,17.078309 Z M25.863158,17.2980758 C25.6083246,17.297217 25.429276,17.4224642 25.3257228,17.6564712 C25.2641116,17.7957474 25.2389464,17.9407182 25.2313128,18.096997 L25.2288225,18.2572532 C25.2224589,18.4481612 25.2421282,18.6552676 25.333822,18.8482004 C25.4396892,19.0709265 25.6126634,19.1889424 25.8674968,19.1860499 C26.1217516,19.1834466 26.3022465,19.0668769 26.3919155,18.8372088 C26.5437742,18.4487397 26.5405924,18.0513039 26.3956758,17.6608101 C26.3065854,17.4207287 26.1177021,17.2989525 25.863158,17.2980758 Z M15.2784624,18.3368271 C15.1966033,18.3293065 15.1682564,18.3599675 15.1708597,18.4426943 L15.1736437,18.6848366 L15.1736437,18.6848366 L15.1723059,18.9271959 C15.1723059,19.1013272 15.1723059,19.140023 15.2765558,19.147125 L15.5035025,19.1476079 C15.7681705,19.1366162 15.9191614,19.0076087 15.9275498,18.7857503 C15.9370952,18.5196361 15.8089554,18.3784798 15.5280892,18.3504221 L15.2784624,18.3368271 Z M18.2265766,18.2579626 L17.9372912,17.3561671 L17.9372912,17.3561671 L17.5867145,18.3355833 L17.5867145,18.3355833 L17.9601744,18.3337407 C18.0198894,18.3340406 18.0788331,18.3351012 18.1377447,18.3376081 C18.2266905,18.3412238 18.2405104,18.3145079 18.2265766,18.2579626 L18.2265766,18.2579626 Z M15.4147988,17.350718 L15.2939086,17.3518861 C15.1536201,17.3573498 15.1498348,17.4214679 15.1643114,17.4937498 L15.1828816,17.5811754 C15.1869486,17.6094692 15.1863701,17.6358377 15.1735786,17.6570498 C15.1663473,17.6686199 15.1724216,17.6874215 15.1724216,17.7033305 L15.1740112,17.8750085 C15.1795747,18.0397096 15.2046102,18.0869545 15.3172704,18.0913837 L15.4368849,18.0864356 C15.460927,18.0844436 15.4871548,18.0820131 15.5157669,18.0793616 C15.7405178,18.0585352 15.8666328,17.9040732 15.8481205,17.6735373 C15.8325972,17.480733 15.741482,17.3839934 15.518567,17.3577323 L15.4147988,17.350718 Z" id="Shape" fill="#6A6E66"></path>
    </g>
</svg>