<?xml version="1.0" encoding="UTF-8"?>
<svg width="42px" height="42px" viewBox="0 0 42 42" version="1.1" xmlns="http://www.w3.org/2000/svg" xmlns:xlink="http://www.w3.org/1999/xlink">
    <title>[00247] Banco Roela</title>
    <defs>
        <polygon id="path-1" points="0 0.246469665 15.0051437 0.246469665 15.0051437 14.65448 0 14.65448"></polygon>
        <polygon id="path-3" points="0.27312 0.00898271605 15.28632 0.00898271605 15.28632 14.4 0.27312 14.4"></polygon>
    </defs>
    <g id="[00247]-Banco-Roela" stroke="none" stroke-width="1" fill="none" fill-rule="evenodd">
        <g id="Group-11" transform="translate(6.000000, 6.000000)">
            <path d="M25.4996,10.91812 C25.4884,10.73892 25.4272,10.57932 25.362,10.42292 C25.102,9.79532 24.7448,9.22332 24.3564,8.66932 C23.7904,7.86212 23.148,7.12332 22.4008,6.47732 C22.0392,6.16492 21.6504,5.89212 21.2388,5.64852 C20.8788,5.43652 20.7972,5.07452 21.0128,4.71572 C21.0756,4.61132 21.1512,4.51772 21.2388,4.43332 C21.382,4.29492 21.5252,4.15692 21.67,4.01972 C22.9036,2.84972 24.138,1.68052 25.37,0.50932 C25.4408,0.44252 25.5072,0.40092 25.61,0.40132 C27.3396,0.40452 29.0692,0.40372 30.7984,0.40412 C30.818,0.40412 30.8412,0.39772 30.8648,0.43652 C30.846,0.49612 30.7816,0.53132 30.732,0.57572 C29.3368,1.82172 27.9404,3.06692 26.5436,4.31212 C26.4428,4.40212 26.3416,4.49172 26.2416,4.58212 C26.1036,4.70732 26.104,4.70772 26.222,4.84052 C26.8604,5.55972 27.442,6.32292 27.966,7.12892 C28.9516,8.64452 29.7472,10.25092 30.2704,11.98572 C30.4388,12.54372 30.5708,13.11052 30.6516,13.68932 C30.6748,13.85532 30.6652,14.01732 30.624,14.17532 C30.5328,14.52212 30.292,14.71132 29.9472,14.77292 C29.8144,14.79652 29.6796,14.80812 29.5436,14.80773 C25.416,14.80692 21.2884,14.80692 17.16,14.80773 C17.0096,14.80773 16.8604,14.79452 16.7152,14.76292 C16.212,14.65292 15.9044,14.26692 15.8748,13.71852 C15.8716,13.65452 15.874,13.59052 15.874,13.52652 C15.8736,9.24492 15.8736,4.96332 15.874,0.68172 C15.874,0.36172 15.8576,0.40412 16.1452,0.40372 C17.284,0.40252 18.4228,0.40332 19.5612,0.40332 C19.604,0.40332 19.6472,0.40812 19.6892,0.40292 C19.8068,0.38852 19.84,0.44692 19.8308,0.55252 C19.826,0.60892 19.83,0.66612 19.83,0.72292 C19.83,4.04412 19.8296,7.36572 19.8304,10.68732 C19.8308,10.96812 19.7944,10.94012 20.078,10.94012 C21.808,10.94092 23.5372,10.94052 25.2664,10.93972 C25.3368,10.93972 25.4084,10.95172 25.4996,10.91812" id="Fill-1" fill="#686C71"></path>
            <g id="Group-5" transform="translate(0.000000, 0.153560)">
                <mask id="mask-2" fill="white">
                    <use xlink:href="#path-1"></use>
                </mask>
                <g id="Clip-4"></g>
                <path d="M-4e-05,0.24968 L0.20556,0.24968 C1.86356,0.24968 3.52156,0.25168 5.17956,0.246469665 C5.33436,0.24568 5.44196,0.29128 5.55396,0.39808 C6.86636,1.64968 8.18436,2.89608 9.49996,4.14408 C9.63916,4.27608 9.78036,4.40688 9.87676,4.57688 C10.07636,4.93008 9.99316,5.29328 9.64276,5.49488 C8.83236,5.96168 8.14276,6.57248 7.52156,7.26368 C6.79556,8.07088 6.16596,8.94568 5.67596,9.91768 C5.57076,10.12728 5.47636,10.34208 5.41316,10.56888 C5.35636,10.77248 5.36756,10.78648 5.57676,10.78648 C6.57996,10.78728 7.58356,10.78688 8.58676,10.78688 C9.33396,10.78688 10.08116,10.78728 10.82836,10.78688 C11.06196,10.78648 11.04796,10.80488 11.04796,10.56808 C11.04796,7.23288 11.04756,3.89768 11.04836,0.56208 C11.04836,0.19448 11.01476,0.25128 11.37076,0.25048 C12.48796,0.24808 13.60516,0.24968 14.72236,0.24968 C14.77916,0.24968 14.83636,0.25288 14.89276,0.24968 C14.97596,0.24488 15.00916,0.28368 15.00476,0.36408 C15.00196,0.41368 15.00436,0.46368 15.00436,0.51328 L15.00436,13.37768 C15.00436,13.53408 15.00636,13.68968 14.96356,13.84288 C14.84196,14.27688 14.55716,14.53328 14.11836,14.61728 C13.97956,14.64368 13.83716,14.65448 13.69396,14.65448 C9.57396,14.65328 5.45356,14.65328 1.33356,14.65448 C1.19756,14.65448 1.06316,14.64208 0.92996,14.62008 C0.51436,14.55128 0.25196,14.25408 0.22396,13.83088 C0.20316,13.52168 0.27316,13.22288 0.33476,12.92448 C0.62476,11.51528 1.14396,10.18848 1.79356,8.91008 C2.57356,7.37488 3.52796,5.95768 4.67436,4.67048 C4.78356,4.54808 4.77116,4.54528 4.65236,4.43968 C3.82916,3.70608 3.00636,2.97248 2.18316,2.23888 C1.49276,1.62328 0.80276,1.00808 0.11276,0.39208 C0.07636,0.35928 0.03236,0.33288 -4e-05,0.24968" id="Fill-3" fill="#686C71" mask="url(#mask-2)"></path>
            </g>
            <g id="Group-8" transform="translate(15.600000, 15.753560)">
                <mask id="mask-4" fill="white">
                    <use xlink:href="#path-3"></use>
                </mask>
                <g id="Clip-7"></g>
                <path d="M10.50232,10.1044 C12.09912,11.5292 13.68312,12.9428 15.28632,14.3728 C15.18792,14.408 15.11792,14.3964 15.04992,14.3964 C13.39152,14.3972 11.73312,14.3956 10.07512,14.4000027 C9.92832,14.4004 9.82672,14.356 9.72032,14.2544 C8.39232,12.9876 7.05912,11.726 5.72672,10.4632 C5.60192,10.3456 5.48272,10.224 5.39792,10.0732 C5.19912,9.7192 5.28952,9.3628 5.64232,9.1584 C6.02512,8.9364 6.38832,8.6872 6.72312,8.3992 C7.93032,7.362 8.88912,6.128 9.61632,4.714 C9.73312,4.4864 9.82832,4.2488 9.89032,3.9988 C9.91232,3.908 9.89072,3.8612 9.79192,3.8628 C9.74912,3.8636 9.70632,3.8624 9.66352,3.8624 C7.94832,3.8624 6.23312,3.8624 4.51792,3.8628 C4.16272,3.8628 4.23112,3.8596 4.23112,4.1468 C4.22912,7.4756 4.23032,10.8044 4.22952,14.1328 C4.22912,14.424 4.26712,14.3964 3.96992,14.3964 C2.81672,14.3976 1.66392,14.3972 0.51072,14.3968 C0.25512,14.3968 0.27392,14.4176 0.27392,14.1504 C0.27352,9.8472 0.27392,5.5444 0.27312,1.2412 C0.27312,1.098 0.28032,0.956 0.31552,0.818 C0.43992,0.3336 0.82712,0.0384 1.36912,0.0108 C1.43312,0.0076 1.49712,0.0096 1.56112,0.0096 C5.70352,0.0092 9.84552,0.0092 13.98832,0.01 C14.08032,0.01 14.17352,0.012 14.26472,0.0236 C14.93072,0.1112 15.10512,0.5896 15.05512,1.0808 C15.02952,1.3348 14.97752,1.5864 14.92312,1.836 C14.58352,3.4052 13.97232,4.87 13.20792,6.2752 C12.46032,7.6484 11.56832,8.9208 10.50232,10.1044" id="Fill-6" fill="#686C71" mask="url(#mask-4)"></path>
            </g>
            <path d="M0.01364,30.10912 C0.38804,29.77472 0.75324,29.44792 1.11924,29.12112 C2.28164,28.08432 3.44524,27.04832 4.60644,26.00952 C4.80284,25.83392 4.80044,25.88672 4.62964,25.69072 C2.79484,23.58272 1.41924,21.21592 0.59764,18.53672 C0.43884,18.01952 0.32604,17.49232 0.23724,16.95912 C0.22404,16.88272 0.22284,16.80312 0.22204,16.72552 C0.21564,16.12512 0.54324,15.78432 1.14604,15.76352 C1.19564,15.76192 1.24564,15.76312 1.29524,15.76312 C5.44444,15.762688 9.59364,15.762688 13.74284,15.762688 C13.85684,15.762688 13.96964,15.76672 14.08284,15.78752 C14.64844,15.89192 14.98524,16.27672 15.00284,16.84832 C15.00524,16.91912 15.00444,16.99032 15.00444,17.06152 C15.00444,21.33592 15.00484,25.61032 15.00404,29.88472 C15.00404,30.17672 15.04204,30.15032 14.74604,30.15032 C13.59284,30.15112 12.44004,30.15072 11.28724,30.15072 C11.24444,30.15072 11.20164,30.14872 11.15884,30.15072 C11.07484,30.15472 11.04484,30.11272 11.04804,30.03392 C11.05044,29.97712 11.04804,29.91992 11.04804,29.86312 C11.04804,26.54152 11.04844,23.21992 11.04764,19.89872 C11.04764,19.58632 11.08404,19.61632 10.75964,19.61632 C9.05164,19.61592 7.34364,19.61592 5.63564,19.61632 C5.35244,19.61632 5.34404,19.62432 5.43244,19.90472 C5.55044,20.27992 5.73084,20.62672 5.92804,20.96472 C6.62964,22.16552 7.48724,23.23872 8.54724,24.14472 C8.88324,24.43192 9.24364,24.68392 9.62684,24.90552 C9.91164,25.06952 10.02124,25.30512 9.97044,25.59992 C9.95044,25.71512 9.89284,25.81272 9.83084,25.90832 C9.75644,26.02232 9.65884,26.11632 9.56084,26.20952 C8.35684,27.34912 7.15324,28.48832 5.95004,29.62792 C5.81564,29.75512 5.67644,29.87872 5.55244,30.01512 C5.45804,30.11752 5.35604,30.15392 5.21684,30.1535233 C3.65124,30.14912 2.08564,30.15072 0.51964,30.15072 C0.39884,30.15072 0.27764,30.15192 0.15644,30.14992 C0.11644,30.14912 0.07204,30.16352 0.01364,30.10912" id="Fill-9" fill="#686C71"></path>
        </g>
    </g>
</svg>