<?xml version="1.0" encoding="UTF-8"?>
<svg width="42px" height="42px" viewBox="0 0 42 42" version="1.1" xmlns="http://www.w3.org/2000/svg" xmlns:xlink="http://www.w3.org/1999/xlink">
    <title>[00259] Banco Itau</title>
    <defs>
        <polygon id="path-1" points="0.443542744 0.0494456454 9.961 0.0494456454 9.961 9.98167457 0.443542744 9.98167457"></polygon>
        <polygon id="path-3" points="0.19967863 0.266906615 9.28673219 0.266906615 9.28673219 10.5 0.19967863 10.5"></polygon>
    </defs>
    <g id="[00259]-Banco-Itau" stroke="none" stroke-width="1" fill="none" fill-rule="evenodd">
        <g id="Group-13" transform="translate(5.000000, 23.000000)">
            <g id="Group-3" transform="translate(22.000000, 3.193450)">
                <mask id="mask-2" fill="white">
                    <use xlink:href="#path-1"></use>
                </mask>
                <g id="Clip-2"></g>
                <path d="M7.21555,8.3835 C6.91455,8.779 6.60805,9.12 6.20555,9.3585 C4.98505,10.083 3.70505,10.173 2.40305,9.643 C1.41955,9.243 0.93255,8.405 0.64855,7.4305 C0.49055,6.8885 0.44655,6.33 0.44655,5.7675 C0.44655,3.925 0.44805,2.0825 0.443542744,0.2405 C0.44305,0.1005 0.46805,0.0475 0.62505,0.0494456454 C1.47655,0.0585 2.32855,0.057 3.18055,0.05 C3.32755,0.049 3.36955,0.0855 3.36905,0.237 C3.36305,1.8645 3.36655,3.4925 3.36455,5.1205 C3.36405,5.506 3.38805,5.8875 3.48155,6.2635 C3.78855,7.4995 5.07905,8.003 6.13455,7.284 C6.69355,6.903 7.00155,6.375 6.99955,5.677 C6.99355,3.866 6.99905,2.0555 6.99455,0.2445 C6.99405,0.102 7.02305,0.0545 7.17705,0.056 C8.04105,0.064 8.90555,0.0625 9.76955,0.057 C9.90855,0.056 9.96155,0.079 9.9610535,0.237 C9.95555,3.348 9.95605,6.458 9.95955,9.569 C9.95955,9.7005 9.94155,9.7565 9.78855,9.7545 C9.10705,9.7455 8.42605,9.747 7.74455,9.754 C7.61855,9.755 7.56955,9.711 7.54005,9.597 C7.43905,9.202 7.33005,8.8095 7.21555,8.3835" id="Fill-1" fill="#FAED2C" mask="url(#mask-2)"></path>
            </g>
            <path d="M10.56465,10.6448 C10.56465,11.3693 10.56315,12.0758 10.5666568,12.7818 C10.56715,12.8658 10.54015,12.9053 10.46215,12.9313 C9.32415,13.3113 8.20765,13.3028 7.14265,12.7018 C6.40815,12.2873 6.07565,11.5928 5.90915,10.7998 C5.80265,10.2908 5.78565,9.7748 5.78565,9.2578 C5.78565,8.0518 5.78315,6.8468 5.78865,5.6418 C5.78915,5.5008 5.76365,5.4438 5.60615,5.4498 C5.25965,5.4638 4.91165,5.4503 4.56515,5.4563 C4.46065,5.4583 4.42565,5.4318 4.42662926,5.3218 C4.43165,4.6723 4.43065,4.0223 4.42715,3.3718 C4.42662926,3.2728 4.45465,3.2433 4.55415,3.2448 C4.90115,3.2503 5.24865,3.2378 5.59515,3.2513 C5.75965,3.2578 5.79015,3.2003 5.78915,3.0488 C5.78265,2.0958 5.78865,1.1433 5.78265,0.1903 C5.78165,0.0448 5.81565,-0.0007 5.96815,0.000756232093 C6.80715,0.0088 7.64665,0.0088 8.48565,0.000756232093 C8.63965,-0.0007 8.68765,0.0358 8.68615,0.1963 C8.67915,1.1488 8.68665,2.1013 8.67915,3.0543 C8.67765,3.2153 8.72365,3.2538 8.87915,3.2508 C9.37715,3.2408 9.87615,3.2508 10.37415,3.2438 C10.49665,3.2423 10.53315,3.2743 10.53215,3.3998 C10.52565,4.0368 10.52565,4.6743 10.53215,5.3113 C10.53315,5.4303 10.49965,5.4583 10.38465,5.4568 C9.86665,5.4503 9.34965,5.4573 8.83215,5.4518 C8.72065,5.4503 8.67865,5.4743 8.68015,5.5963 C8.69815,6.8643 8.65315,8.1328 8.70815,9.4008 C8.71415,9.5318 8.73265,9.6643 8.76165,9.7928 C8.93315,10.5598 9.42065,10.7788 10.23165,10.7028 C10.33715,10.6933 10.44115,10.6668 10.56465,10.6448" id="Fill-4" fill="#FAED2C"></path>
            <path d="M2.9919,6.48415 C2.9919,8.57265 2.9899,10.66115 2.99540511,12.74965 C2.9959,12.90515 2.9599,12.94865 2.8004,12.9471872 C1.9299,12.93865 1.0589,12.93915 0.1884,12.94665 C0.0384,12.94815 0.000395651643,12.90715 0.000395651643,12.75815 C0.0039,8.56815 0.0039,4.37815 0.000395651643,0.18865 C-0.0001,0.03615 0.0424,0.00015 0.1899,0.00165 C1.0664,0.00865 1.9434,0.00865 2.8209,0.00111231701 C2.9669,-0.00035 2.99540511,0.04265 2.9949,0.18065 C2.9904,2.28165 2.9919,4.38315 2.9919,6.48415" id="Fill-6" fill="#FAED2C"></path>
            <path d="M26.11885,2.596 C26.20335,2.4725 26.28635,2.3495 26.37085,2.2275 C26.85185,1.5275 27.33385,0.8285 27.81385,0.1275 C27.86535,0.0525 27.91335,-0.0005 28.02135,-3.50789372e-06 C28.88435,0.005 29.74835,0.0025 30.61135,0.003 C30.63385,0.003 30.65685,0.006 30.68085,0.0075 C30.68285,0.0805 30.63035,0.104 30.59835,0.1375 C29.83585,0.925 29.06985,1.7105 28.31035,2.501 C28.21935,2.5955 28.12885,2.6335 27.99885,2.632 C27.43785,2.626 26.87685,2.63 26.31635,2.6285 C26.25585,2.628 26.19185,2.648 26.11885,2.596" id="Fill-8" fill="#FAED2C"></path>
            <g id="Group-12" transform="translate(11.500000, 2.693450)">
                <mask id="mask-4" fill="white">
                    <use xlink:href="#path-3"></use>
                </mask>
                <g id="Clip-11"></g>
                <path d="M6.53295,6.3879 C6.52695,6.5824 6.55245,6.8169 6.50845,7.0479 C6.38195,7.7129 5.72745,8.3324 5.00395,8.4764 C4.68495,8.5399 4.36445,8.5469 4.04845,8.4664 C2.98695,8.1969 2.96295,6.9354 3.50895,6.3944 C3.85895,6.0469 4.30145,5.8924 4.76645,5.7899 C5.29745,5.6724 5.83895,5.6499 6.38145,5.6389 C6.51245,5.6359 6.54145,5.6819 6.53545,5.8004 C6.52695,5.9829 6.53295,6.1664 6.53295,6.3879 M9.24545,3.9824 C9.21345,3.1634 8.97595,2.3944 8.46845,1.7329 C7.72195,0.7594 6.66845,0.4079 5.50145,0.2994 C4.71845,0.2269 3.93945,0.2804 3.16645,0.4134 C2.42545,0.5409 1.71245,0.7569 1.04495,1.1109 C0.96545,1.1534 0.89795,1.1824 0.93695,1.3074 C1.10995,1.8644 1.27245,2.4249 1.43545,2.9859 C1.45995,3.0714 1.47795,3.0969 1.56945,3.0459 C2.36495,2.6089 3.21945,2.3744 4.12495,2.3294 C4.66345,2.3024 5.19745,2.3354 5.69295,2.5784 C6.08045,2.7684 6.34945,3.0624 6.43995,3.4964 C6.48945,3.7309 6.46895,3.7534 6.23245,3.7574 C5.27895,3.7739 4.33095,3.8444 3.40545,4.0894 C2.51995,4.3244 1.68945,4.6724 1.03845,5.3509 C-0.23205,6.6739 -0.13855,9.1534 1.86695,10.1274 C2.92045,10.6394 4.01595,10.5849 5.10095,10.1999 C5.64895,10.0054 6.11645,9.6799 6.50845,9.2164 C6.60995,9.5334 6.70595,9.8234 6.79545,10.1154 C6.82495,10.2119 6.86745,10.2544 6.97995,10.2534 C7.69245,10.2474 8.40595,10.2479 9.11895,10.2529 C9.24095,10.2539 9.28245,10.2234 9.28145,10.0959 C9.26145,8.0584 9.32495,6.0194 9.24545,3.9824" id="Fill-10" fill="#FAED2C" mask="url(#mask-4)"></path>
            </g>
        </g>
    </g>
</svg>