<?xml version="1.0" encoding="UTF-8"?>
<svg width="42px" height="42px" viewBox="0 0 42 42" version="1.1" xmlns="http://www.w3.org/2000/svg" xmlns:xlink="http://www.w3.org/1999/xlink">
    <title>[00254] Banco Mariva</title>
    <defs>
        <polygon id="path-1" points="0.264453079 0.310410887 9.20650143 0.310410887 9.20650143 21.96 0.264453079 21.96"></polygon>
    </defs>
    <g id="[00254]-Banco-Mariva" stroke="none" stroke-width="1" fill="none" fill-rule="evenodd">
        <g id="Group-8" transform="translate(6.000000, 10.000000)">
            <path d="M19.507248,12.973536 C19.507248,15.941736 19.507248,18.910296 19.506888,21.878496 C19.506888,22.029696 19.519488,22.006656 19.375128,22.006656 C16.481448,22.007016 13.588128,22.006656 10.694448,22.009176 C10.598688,22.009176 10.570608,21.990096 10.570608,21.888936 C10.573488,16.023456 10.571328,10.157976 10.574928,4.292496 C10.575288,3.427056 10.900368,2.672496 11.468808,2.034576 C12.490488,0.888336 13.774968,0.302256 15.317568,0.373896 C16.383168,0.423216 17.311248,0.856296 18.116208,1.548936 C18.724968,2.072736 19.177848,2.705256 19.397808,3.488616 C19.470528,3.748176 19.507248,4.012416 19.507248,4.282056 C19.506888,7.178976 19.507248,10.076256 19.507248,12.973536" id="Fill-1" fill="#263E8D"></path>
            <g id="Group-5" transform="translate(20.880000, 0.049788)">
                <mask id="mask-2" fill="white">
                    <use xlink:href="#path-1"></use>
                </mask>
                <g id="Clip-4"></g>
                <path d="M9.204696,12.924108 C9.204696,15.892668 9.203976,18.861228 9.20650143,21.830148 C9.206856,21.928428 9.189576,21.960108 9.081576,21.960108 C6.184296,21.956508 3.287016,21.956508 0.389736,21.960108 C0.284256,21.960108 0.264816,21.931668 0.264816,21.831948 C0.267336,16.016868 0.269856,10.201788 0.264453079,4.386708 C0.263376,3.471228 0.561816,2.676348 1.154016,1.993068 C1.971936,1.048428 3.012336,0.495108 4.249296,0.343548 C5.459976,0.195228 6.543216,0.552348 7.516656,1.263708 C8.184456,1.752588 8.697456,2.368908 8.998056,3.149388 C9.135936,3.507588 9.204336,3.879108 9.204336,4.262508 C9.204696,7.149708 9.204696,10.036548 9.204696,12.924108" id="Fill-3" fill="#263E8D" mask="url(#mask-2)"></path>
            </g>
            <path d="M8.9361,13.022784 C8.9361,15.977664 8.93538,18.932184 8.93826413,21.887064 C8.93862,21.985344 8.91558,22.009464 8.81658,22.009464 C5.91606,22.006224 3.0159,22.006584 0.11574,22.009464 C0.01962,22.009464 0.00018,21.982104 0.00018,21.891384 C0.00234,16.012224 0.00054,10.133424 0.00378,4.254264 C0.00378,3.531744 0.25326,2.883384 0.6795,2.307744 C1.4463,1.273464 2.47878,0.649944 3.73986,0.430344 C5.19894,0.176904 6.46506,0.631584 7.57026,1.575504 C8.1513,2.071584 8.57826,2.680344 8.80362,3.419064 C8.89218,3.709584 8.93574,4.007664 8.93574,4.311504 C8.9361,7.214904 8.9361,10.119024 8.9361,13.022784" id="Fill-6" fill="#263E8D"></path>
        </g>
    </g>
</svg>