<?xml version="1.0" encoding="UTF-8"?>
<svg width="42px" height="42px" viewBox="0 0 42 42" version="1.1" xmlns="http://www.w3.org/2000/svg" xmlns:xlink="http://www.w3.org/1999/xlink">
    <title>[00269] Banco de la Rep. O. del Uruguay</title>
    <defs>
        <polygon id="path-1" points="0.000148276238 0.220185548 31.6047247 0.220185548 31.6047247 31.903375 0.000148276238 31.903375"></polygon>
    </defs>
    <g id="[00269]-Banco-de-la-Rep.-O.-del-Uruguay" stroke="none" stroke-width="1" fill="none" fill-rule="evenodd">
        <g id="Group-16" transform="translate(5.000000, 5.000000)">
            <g id="Group-3" transform="translate(0.000000, 0.095710)">
                <mask id="mask-2" fill="white">
                    <use xlink:href="#path-1"></use>
                </mask>
                <g id="Clip-2"></g>
                <path d="M30.2154969,29.5551918 C30.2177081,30.3246633 30.0019654,30.4987105 29.2678719,30.4964993 C20.2916521,30.4728087 11.3151163,30.4690182 2.33889644,30.4984123 C1.52836119,30.5009216 1.36157919,30.2340072 1.36652316,29.4904375 C1.39569369,25.0028013 1.38116344,20.5148493 1.38116344,16.0268973 L1.39095556,16.0268973 C1.39095556,11.4824037 1.40611756,6.93759421 1.37453006,2.39341646 C1.37010781,1.73386946 1.56910906,1.59551621 2.18980344,1.59677117 C11.2516254,1.61541634 20.3131316,1.61288934 29.3749536,1.60088609 C29.9451079,1.60025434 30.2293954,1.66753571 30.2268851,2.37256871 C30.1959127,11.4334431 30.1895952,20.4943175 30.2154969,29.5551918 M31.6047247,1.06832084 C31.6062946,0.387926088 31.4123473,0.218617088 30.7430082,0.220185548 C20.7670439,0.243255338 10.7910797,0.244518838 0.815115437,0.224302838 C0.190314687,0.223039338 -0.0014214375,0.343703588 0.000148276238,1.00261884 C0.0219533125,11.0632376 0.0194263125,21.1238563 0.0036325625,31.1841592 C0.0030008125,31.7312547 0.126192062,31.879716 0.699505187,31.8765572 C5.70170169,31.8484443 10.7035823,31.8601317 15.7057788,31.8601317 L15.7057788,31.8910875 C20.7929457,31.8910875 25.8797967,31.8806636 30.9669636,31.9034223 C31.6524123,31.9062495 31.5832357,31.5230931 31.5832357,31.0789728 C31.5822881,21.0755275 31.5800769,11.0717662 31.6047247,1.06832084" id="Fill-1" fill="#F4D211" mask="url(#mask-2)"></path>
            </g>
            <path d="M9.52044091,23.5462701 C9.77598379,23.546586 10.033106,23.5645909 10.2867537,23.5434273 C11.3980019,23.4518235 12.1756862,23.5121556 12.6299144,24.9348566 C13.2477659,26.8708545 16.0539994,27.8936577 18.4435938,27.3895212 C20.3416867,26.9893076 21.8262992,26.063478 22.3029545,24.029243 C22.3970853,23.6290294 22.5929278,23.5374256 22.9508142,23.5396367 C24.313183,23.549113 25.6761837,23.5525876 27.0388684,23.5412161 C27.7988637,23.5348986 27.7691714,23.8728849 27.4435043,24.3795484 C26.7435253,25.4680536 25.8540213,26.369245 24.7948924,27.1115512 C20.5817517,30.0668777 13.4868833,29.9402119 9.38271941,26.831686 C8.51469491,26.1743501 7.77870616,25.3919277 7.19117866,24.4758902 C7.04777141,24.2522507 6.77011729,24.0333494 6.94700729,23.7200014 C7.10304954,23.442979 7.40565779,23.5560623 7.64667041,23.5506924 C8.27115529,23.5361621 8.89564016,23.5456384 9.52044091,23.5462701" id="Fill-4" fill="#255399"></path>
            <path d="M8.48029612,29.1582949 C7.532987,29.1582949 6.77330762,29.137763 6.0155235,29.1671394 C5.65258312,29.1813538 5.52560137,28.953292 5.36797975,28.7173334 C3.1903375,25.4467636 2.25092525,21.877692 2.78159525,17.9576833 C2.89531025,17.1190351 3.21876625,16.358724 3.84577812,15.7819363 C4.1758675,15.4783804 4.26210137,15.1602943 4.26083787,14.7357583 C4.24757112,11.2402855 4.2567315,7.74512865 4.25009812,4.24997177 C4.2491505,3.77647515 4.18565962,3.39868865 4.91469912,3.39324015 C5.6516355,3.38731715 5.65195137,3.7253034 5.64942437,4.2686084 C5.632683,7.87748028 5.63236712,11.486668 5.64721325,15.0955399 C5.64942437,15.6426354 5.55624125,16.0719095 5.07358425,16.4190562 C4.47563287,16.8492779 4.31074612,17.505982 4.30316512,18.2264929 C4.26368075,22.0539503 5.61657337,25.3835887 7.90382425,28.3844012 C8.056076,28.5846659 8.20453725,28.7877735 8.48029612,29.1582949" id="Fill-6" fill="#255398"></path>
            <path d="M23.2042723,17.2481964 C23.1044558,17.4345627 22.9676819,17.5637556 22.7370931,17.5441713 C18.7914985,17.2147137 14.8383229,17.4917361 10.8902013,17.3947624 C10.5632706,17.3862338 10.2072795,17.5122679 9.91572689,17.2485123 C14.345242,17.2485123 18.775073,17.2481964 23.2042723,17.2481964" id="Fill-8" fill="#244F88"></path>
            <path d="M21.1846939,21.3755455 C19.8794984,21.3755455 18.5743029,21.3755455 17.2691074,21.3749138 C15.7374295,21.374282 14.2044881,21.3474327 12.673442,21.3859694 C11.9087086,21.4052378 11.5479794,21.1399028 11.62221,20.3540058 C11.6459006,20.1009899 11.632318,19.8432359 11.6241052,19.5886407 C11.6067321,19.0576548 11.8635385,18.7999008 12.3891545,18.7999008 C15.6518274,18.7999008 18.9148161,18.7995849 22.1778049,18.7999008 C22.6591984,18.7999008 22.8765204,19.024172 22.9122142,19.5238863 C23.0401436,21.3329024 23.0123466,21.3755455 21.1846939,21.3755455 M28.0622402,17.2161035 C26.4427491,17.2252639 24.8238897,17.2372672 23.2043986,17.2483228 C23.0524627,17.3282392 22.8948411,17.3850967 22.7192146,17.3787792 C18.7594056,17.2388465 14.7980172,17.3566679 10.8375765,17.3143407 C10.530546,17.3111819 10.2149869,17.3784633 9.91553736,17.2486387 C8.77965086,17.2369513 7.64344849,17.2211575 6.50724611,17.2154529 C5.90961061,17.2126289 5.64143274,17.5300833 5.63069299,18.1204537 C5.60542299,19.4610272 5.69639499,20.780437 6.06912749,22.0831055 C6.25738899,22.7401255 6.57357986,23.0035653 7.26629374,23.00167 C13.9745311,22.9849287 20.6827685,22.986508 27.3910059,23.0051555 C27.9867461,23.0070399 28.2773511,22.7606574 28.4374997,22.2363049 C28.8484531,20.8903615 28.9738555,19.5090402 28.9615364,18.1116092 C28.9564824,17.5345055 28.659244,17.2129448 28.0622402,17.2161035" id="Fill-10" fill="#255399"></path>
            <path d="M21.991028,13.4743431 C18.7504663,13.4623398 15.5099047,13.4490731 12.2702907,13.4847669 C11.627801,13.4920321 11.6110596,13.2039541 11.6122716,12.7238241 C11.6132707,12.2285321 11.5902118,11.8753838 12.2965083,11.9000221 C13.914736,11.9559319 15.5361223,11.9177111 17.1562452,11.9177111 L17.1562452,11.9233968 C18.7763681,11.9233968 20.3968068,11.9316096 22.0169297,11.9183428 C22.544441,11.9142364 22.9086448,12.0330054 22.9118299,12.6568586 C22.9152782,13.2974531 22.5744491,13.4765542 21.991028,13.4743431 M26.532047,12.6391696 C25.7493087,12.0295308 24.9327718,11.4603241 24.1800417,10.8162549 C23.7122308,10.4163572 23.2219928,10.2757928 22.6256208,10.2802151 C20.2407646,10.2972723 17.8559083,10.2871643 15.4710521,10.2862167 C13.0009096,10.2852691 10.531083,10.2865326 8.0606246,10.2840056 C7.4730971,10.2833738 6.9803321,10.3484441 6.99120523,11.1356046 C7.0131831,12.6966588 7.01128785,14.2583448 6.99201947,15.8197149 C6.9841226,16.4315648 7.29052135,16.6059278 7.8357216,16.5980309 C8.8010356,16.5831848 9.76729722,16.5689704 10.7313477,16.5999262 C11.3820502,16.6207739 11.7134031,16.3892376 11.6192723,15.7132651 C11.5466211,15.1911237 11.7500446,15.0347656 12.2750288,15.0382402 C15.5114841,15.0594038 18.7482552,15.0540339 21.9847105,15.0420307 C22.557076,15.0398196 22.9171735,15.1829109 22.9070655,15.8437214 C22.8994845,16.3608088 23.1885101,16.6049802 23.7179166,16.5980309 C24.7394563,16.5844483 25.7619437,16.5910817 26.7841152,16.5942404 C27.1138887,16.5951881 27.3991238,16.5468592 27.5381088,16.1842347 C27.9174747,15.1939666 27.393754,13.3104039 26.532047,12.6391696" id="Fill-12" fill="#255399"></path>
            <path d="M15.9082863,8.15721918 C15.2553726,8.16164143 14.6018273,8.15848268 13.9485978,8.1594303 C13.3519099,8.16006205 12.7555379,8.15469218 12.1591659,8.1619573 C11.848029,8.1657478 11.6019624,8.14774293 11.6101751,7.7222593 C11.6177562,7.3229933 11.8669815,7.35300143 12.1263149,7.3533173 C13.3762323,7.35426493 14.6258338,7.35394905 15.8757511,7.3558443 C16.1954166,7.35616018 16.5640428,7.34921093 16.5536189,7.7917518 C16.5441426,8.19007018 16.1903627,8.15532393 15.9082863,8.15721918 M11.8609799,5.02658205 C12.0438715,5.0423758 12.1493738,5.17535918 12.1632723,5.3633048 C12.1800137,5.5907348 12.0716685,5.72687693 11.8499243,5.77457405 C11.6136498,5.76825655 11.6010148,5.59642055 11.605437,5.42742743 C11.610491,5.24737868 11.5517383,5.00036443 11.8609799,5.02658205 M21.7304943,8.93048118 C20.882054,8.26461668 19.9770722,7.66350655 19.1782243,6.9439433 C18.1636338,6.03074868 17.0422775,5.59768405 15.681488,5.76541368 C15.446477,5.79447418 15.0784827,5.9053463 14.9682423,5.65738443 C14.5942463,4.81431405 13.7369615,4.52876305 13.1330085,3.9570293 C12.7978652,3.64020668 12.4346089,3.40961793 11.9285772,3.41846243 C10.5936894,3.44183718 9.25753815,3.4415213 7.9226504,3.41972593 C7.21824915,3.40803855 6.9737619,3.7207548 6.98829215,4.4043083 C7.01830028,5.85291105 7.02335428,7.30309318 6.98544928,8.75106418 C6.96554915,9.49305455 7.24762553,9.75554668 7.9820349,9.7451228 C10.1982139,9.71543055 12.4147088,9.73438305 14.6312037,9.73533068 C16.9042402,9.7362783 19.1775925,9.73691005 21.450629,9.73533068 C21.7017497,9.73533068 22.0173088,9.80134855 22.1269174,9.51042768 C22.2453705,9.19739555 21.918124,9.07767893 21.7304943,8.93048118" id="Fill-14" fill="#255499"></path>
        </g>
    </g>
</svg>