<?xml version="1.0" encoding="UTF-8"?>
<svg width="42px" height="42px" viewBox="0 0 42 42" version="1.1" xmlns="http://www.w3.org/2000/svg" xmlns:xlink="http://www.w3.org/1999/xlink">
    <title>[00266] BNP Paribas</title>
    <g id="[00266]-BNP-Paribas" stroke="none" stroke-width="1" fill="none" fill-rule="evenodd">
        <path d="M25.3445051,31.2665726 C24.2620195,32.0122925 23.3172717,32.5940134 22.0703501,33.177517 C22.0078524,32.6053032 21.9696256,32.1234077 21.9441411,31.4816727 C21.2390691,32.3997103 20.647464,33.1038363 19.8671521,33.9487875 C18.5443838,34.3011475 17.4989114,34.4366249 16.2149766,34.4419727 C16.9952886,34.8400862 17.7889496,35.0819252 18.6074883,35.2429532 C17.7889496,35.9767891 17.0711354,36.5026553 16.2780812,37 C17.6251205,36.6874513 19.3756648,36.1199911 20.6850841,35.3665466 C21.3652782,35.388532 22.0454724,35.3594162 22.5108684,35.2738515 C22.3980084,34.8769265 22.3094193,34.5798269 22.1965592,34.0717867 C23.442874,33.1311695 24.3245173,32.2862183 25.3445051,31.2665726 M6.51932755,24.6994838 C6.26690938,26.8094849 6.18499482,28.3472723 6.48777528,30.0330152 C5.50540743,30.2944628 4.80579648,30.5137223 4,30.8654882 C5.13345469,31.5476288 6.06606703,32.0835964 7.33725952,32.6534334 C8.00471143,34.0741635 8.69097334,35.0171575 9.82442803,36.1063245 C9.55987436,35.1775913 9.50344434,34.4324656 9.6041689,33.455008 C11.027055,33.860846 12.2102652,34.0824823 13.8224649,34.1329892 C12.286112,33.5786014 11.1908841,32.9273592 9.98218939,31.8209604 C10.3468608,30.8518216 10.7625013,30.0757975 11.4293465,29.1078471 C10.195774,29.2807591 9.28925295,29.4275263 8.21890281,29.6319308 C7.35000178,28.1387084 6.95923903,26.6924277 6.51932755,24.6994838 M17.7895563,13.0466446 C17.0711354,13.1506295 15.0439019,14.0407398 13.6968626,15.0811825 C13.6968626,15.0811825 12.8024771,14.9742266 11.3037442,15.0193857 C9.80561802,15.0841535 7.84088232,15.4537453 7.08544812,15.7591637 C8.54595424,15.8263082 10.5361745,16.1834218 11.3037442,16.9309244 C11.3037442,16.9309244 9.07566834,18.8983177 6.89674126,23.1890296 C6.89674126,23.1890296 10.9008459,19.5364875 12.6259057,18.6267687 C12.6259057,18.6267687 13.507549,21.5965759 14.1367741,23.0660304 C14.1367741,23.0660304 14.6974337,19.6416608 15.616697,17.6707023 C15.616697,17.6707023 15.8751829,17.5138337 17.1597245,17.3932113 C18.4309169,17.2826902 20.225149,17.2024734 23.6758754,17.7942957 C23.6758754,17.7942957 20.5091195,15.8251198 16.5923903,15.2968767 C16.7440839,14.7716047 17.298069,13.644409 17.7895563,13.0466446 M24.0854481,5 C25.2565228,5.4765477 29.9790484,8.00427081 30.5706535,8.79217885 C28.064675,9.11779998 23.2917871,10.5052549 20.8743977,11.7512905 C23.6443231,11.1570914 27.5046222,10.8403833 30.1610808,10.7037175 C29.1283506,12.1981283 28.5622301,12.9622684 26.8869258,14.7418948 C29.7581825,13.053775 30.5579113,12.9361236 33.2149766,11.412597 C34.20948,12.8624429 34.4679659,16.2155086 34.5055859,18.8733613 C35.3744869,17.1852416 36.4260271,10.8391949 35.984902,9.68644855 C37.5843595,8.66026665 37.5843595,8.25324024 38,7.55921566 C36.3878003,7.69944665 35.4812792,7.72559141 34.6002427,7.99060423 C32.3843024,6.65603298 27.8122568,5.28343299 24.0854481,5" id="Fill-2" fill="#00925C"></path>
    </g>
</svg>