<?xml version="1.0" encoding="UTF-8"?>
<svg width="42px" height="42px" viewBox="0 0 42 42" version="1.1" xmlns="http://www.w3.org/2000/svg" xmlns:xlink="http://www.w3.org/1999/xlink">
    <title>[00268] Banco Provincia de Tierra del Fuego</title>
    <defs>
        <polygon id="path-1" points="0 0.085122126 32.567612 0.085122126 32.567612 32.648 0 32.648"></polygon>
    </defs>
    <g id="[00268]-Banco-Provincia-de-Tierra-del-Fuego" stroke="none" stroke-width="1" fill="none" fill-rule="evenodd">
        <g id="Group-14" transform="translate(5.000000, 4.000000)">
            <g id="Group-3" transform="translate(0.000000, 0.222992)">
                <mask id="mask-2" fill="white">
                    <use xlink:href="#path-1"></use>
                </mask>
                <g id="Clip-2"></g>
                <path d="M-1.30439173e-05,16.3534448 C0.0105336,7.3860248 7.2275896,0.2182488 16.0083616,0.0870408 C25.2745416,-0.0521752 32.5233216,7.4035808 32.5678823,16.2545768 C32.6126416,25.3094688 25.3841896,32.4513728 16.6890416,32.6438728 C7.3304616,32.8508488 -0.0270424,25.3190168 -1.30439173e-05,16.3534448" id="Fill-1" fill="#084055" mask="url(#mask-2)"></path>
            </g>
            <path d="M26.368496,27.0953452 C25.79654,27.6023132 25.215344,28.0981932 24.580248,28.5266212 C23.683044,29.1321492 22.745492,29.6606772 21.73094,30.0472172 C21.192556,30.2523452 20.650476,30.4362212 20.09238,30.5871412 C19.48716,30.7506892 18.795392,30.4497732 18.622296,29.8781252 C18.4415,29.2812212 18.6571,28.5645052 19.438188,28.3510612 C20.303052,28.1410052 21.670264,27.4880452 21.670264,27.4880452 C22.224048,27.2287092 22.722084,26.8788212 23.250612,26.5794452 C23.293424,26.5554212 23.335004,26.5295492 23.375352,26.5018292 C24.880548,25.4632532 26.061112,24.1305372 26.970944,22.5455692 C27.51826,21.5916932 27.849976,20.5552732 28.208488,19.5250132 C28.44226,18.8526492 29.208872,18.7269852 29.672412,18.8973092 C30.207408,19.0938132 30.517564,19.6506772 30.383276,20.2389572 C30.144576,21.2458092 29.713068,22.2246332 29.713068,22.2246332 C29.1214,23.6306532 28.336616,24.9165532 27.337464,26.0687812 C27.337464,26.0687812 26.859756,26.6663012 26.368496,27.0953452" id="Fill-4" fill="#0B9DD5"></path>
            <path d="M21.1926792,16.6212508 C21.1926792,15.2161548 21.1899072,13.8104428 21.1939112,12.4053468 C21.1954512,11.8746628 21.2604392,11.8142948 21.7840392,11.8139868 C23.4934392,11.8127548 25.2031472,11.8127548 26.9122392,11.8149108 C27.3988792,11.8155268 27.4346072,11.8580308 27.4299872,12.3739308 C27.4259832,12.8359308 27.3828632,12.8762788 26.8919112,12.8759708 C25.5240832,12.8756628 24.1565632,12.8818228 22.7893512,12.8698108 C22.5124592,12.8673468 22.4095872,12.9437308 22.4154392,13.2323268 C22.4308392,14.0297388 22.4308392,14.8277668 22.4108192,15.6251788 C22.4040432,15.9085388 22.5112272,15.9535068 22.7631712,15.9510428 C24.0672432,15.9393388 25.3713152,15.9445748 26.6756952,15.9461148 C27.1318432,15.9467308 27.1882072,16.0086388 27.1878992,16.4826508 C27.1878992,16.9782228 27.1444712,17.0299668 26.6944832,17.0308908 C25.3904112,17.0336628 24.0860312,17.0413628 22.7819592,17.0268868 C22.5016792,17.0238068 22.4108192,17.0912588 22.4148232,17.3826268 C22.4305312,18.5471748 22.4222152,19.7120308 22.4197512,20.8768868 C22.4188272,21.3185588 22.3187272,21.4075708 21.8431752,21.4106508 C21.2921632,21.4143468 21.1945272,21.3373468 21.1936032,20.8753468 C21.1914472,19.4573148 21.1926792,18.0392828 21.1926792,16.6212508" id="Fill-6" fill="#F9FAFA"></path>
            <path d="M17.5378588,17.1244304 C17.5378588,18.3893864 17.5390908,19.6546504 17.5372428,20.9196064 C17.5366268,21.3369464 17.4550068,21.4043984 16.9705228,21.4096344 C16.4364508,21.4161024 16.3147908,21.3314024 16.3141748,20.9149864 C16.3107868,18.3847664 16.3037028,15.8545464 16.3209508,13.3243264 C16.3234148,12.9534944 16.2196188,12.8487744 15.8586428,12.8687944 C15.3162548,12.8986704 14.7707868,12.8687944 14.2271668,12.8811144 C13.9000708,12.8881984 13.7774868,12.7529864 13.7836468,12.4268144 C13.7931948,11.8955144 13.8209148,11.8212864 14.2219308,11.8197464 C16.0563788,11.8132784 17.8911348,11.8200544 19.7258908,11.8126527 C20.1210548,11.8108144 20.0911788,12.0744624 20.0917948,12.3294864 C20.0924108,12.5996024 20.1176668,12.8829624 19.7067948,12.8771104 C19.1246748,12.8684864 18.5422468,12.8937424 17.9610508,12.8687944 C17.6305668,12.8546264 17.5246148,12.9507224 17.5301588,13.2913704 C17.5492548,14.5686464 17.5375508,15.8468464 17.5378588,17.1244304" id="Fill-8" fill="#FBFCFC"></path>
            <path d="M12.2293864,18.5754184 C12.1918104,19.4236504 11.7467504,20.0190144 10.9767504,20.1499144 C10.1895024,20.2835864 9.3883944,20.1831784 8.5937544,20.2075104 C8.3827744,20.2139784 8.4015624,20.0550504 8.4018704,19.9146024 C8.4021784,19.4596864 8.4018704,19.0053864 8.4021784,18.5504704 C8.4021784,18.0958624 8.4009464,17.6412544 8.4031024,17.1863384 C8.4037184,17.0656024 8.3713784,16.9002064 8.5623384,16.9066744 C9.4170384,16.9365504 10.2828264,16.7865544 11.1248984,17.0289504 C11.8930504,17.2504024 12.2644984,17.7832424 12.2293864,18.5754184 M8.3990984,15.4981904 C8.4169624,15.0940944 8.4040264,14.6890744 8.4040264,14.2843624 L8.4018704,14.2843624 C8.4018704,13.8799584 8.4040264,13.4752464 8.4006384,13.0708424 C8.3994064,12.9042144 8.4135744,12.7659224 8.6362584,12.7739304 C9.3043104,12.7982624 9.9745184,12.7212624 10.6413384,12.8450784 C11.1954304,12.9476424 11.6084584,13.1992784 11.7735464,13.7656904 C11.9537264,14.3856944 11.7904864,14.9213064 11.3232504,15.3491184 C10.9881464,15.6565024 10.5711144,15.8138904 10.1140424,15.8262104 C9.6464984,15.8388384 9.1780304,15.8175864 8.7107944,15.8339104 C8.4511504,15.8428424 8.3883184,15.7387384 8.3990984,15.4981904 M12.8419984,17.0529744 C12.4896464,16.7807024 12.1145024,16.5669504 11.7254984,16.3652104 C11.7464424,16.3279424 11.7535264,16.2980664 11.7723144,16.2857464 C11.8237504,16.2512504 11.8813464,16.2266104 11.9340144,16.1939624 C12.5937504,15.7830904 13.0409664,15.2114424 13.0828544,14.4235784 C13.1601624,12.9547264 12.2173744,11.9546504 10.7026304,11.8496224 C9.6794544,11.7790904 8.6544304,11.8252904 7.6300224,11.8142024 C7.3235624,11.8111224 7.1698704,11.9278544 7.17079026,12.2638824 C7.1784944,15.1473784 7.1772624,18.0308744 7.1720264,20.9146784 C7.1714104,21.2537864 7.3164784,21.3939264 7.6518904,21.3905983 C8.5118264,21.3809904 9.3720704,21.3917704 10.2320064,21.3809904 C10.8938984,21.3729824 11.5342304,21.2568664 12.1489984,20.9913704 C13.7546024,20.2974464 13.8968984,17.8673264 12.8419984,17.0529744" id="Fill-10" fill="#FAFCFB"></path>
            <path d="M6.3176652,6.1423208 C6.8893132,5.6350448 7.4705092,5.1388568 8.1049892,4.7101208 C9.0018852,4.1042848 9.9391292,3.5751408 10.9536812,3.1882928 C11.4920652,2.9831648 12.0344532,2.7989808 12.5922412,2.6477528 C13.1971532,2.4842048 13.8892292,2.7848128 14.0626332,3.3561528 C14.2437372,3.9533648 14.0284452,4.6700808 13.2473572,4.8835248 C12.3828012,5.0941968 11.0152812,5.7474648 11.0152812,5.7474648 C10.4621132,6.0074168 9.9640772,6.3573048 9.4358572,6.6569888 C9.3930452,6.6810128 9.3511572,6.7065768 9.3108092,6.7346048 C7.8062292,7.7737968 6.6262812,9.1071288 5.7170652,10.6924048 C5.1700572,11.6462808 4.8392652,12.6830088 4.4810612,13.7132688 C4.2469812,14.3856328 3.4809852,14.5119128 3.0174452,14.3415888 C2.4821412,14.1453928 2.1719852,13.5885288 2.3056572,13.0005568 C2.5440492,11.9937048 2.9749412,11.0142648 2.9749412,11.0142648 C3.5659932,9.6082448 4.3504692,8.3220368 5.3486972,7.1691928 C5.3486972,7.1691928 5.8267132,6.5713648 6.3176652,6.1423208" id="Fill-12" fill="#EF852C"></path>
        </g>
    </g>
</svg>