<?xml version="1.0" encoding="UTF-8"?>
<svg width="42px" height="42px" viewBox="0 0 42 42" version="1.1" xmlns="http://www.w3.org/2000/svg" xmlns:xlink="http://www.w3.org/1999/xlink">
    <title>[00263] Banco de América, Nacional Association</title>
    <defs>
        <polygon id="path-1" points="0.141297413 0.158640656 19.8953955 0.158640656 19.8953955 12.21472 0.141297413 12.21472"></polygon>
    </defs>
    <g id="[00263]-Banco-de-América,-Nacional-Association" stroke="none" stroke-width="1" fill="none" fill-rule="evenodd">
        <g id="Group-14" transform="translate(4.000000, 13.000000)">
            <g id="Group-3" transform="translate(14.002240, 5.967218)">
                <mask id="mask-2" fill="white">
                    <use xlink:href="#path-1"></use>
                </mask>
                <g id="Clip-2"></g>
                <path d="M19.8954253,1.6378152 C16.3245562,3.13575696 13.0513092,5.05317008 9.86654435,7.13056624 C7.53889539,8.64846864 5.29645155,10.2825598 3.17019651,12.0727611 C2.98399651,12.229765 2.87525571,12.2801134 2.65479491,12.1016594 C1.88139459,11.4757294 1.08982115,10.8718456 0.289012192,10.281964 C0.053953312,10.1088725 0.129624992,10.0427342 0.305993632,9.90539312 C5.01998179,6.23710416 9.93923683,2.9054648 15.5019991,0.62756848 C17.1188109,-0.03440976 17.1205984,-0.0305368 18.6122839,0.86441488 C19.0195405,1.10870928 19.4253076,1.35449328 19.8954253,1.6378152" id="Fill-1" fill="#E11F38" mask="url(#mask-2)"></path>
            </g>
            <path d="M28.5502396,4.52921818 C27.1026464,4.99695258 25.78584,5.48792474 24.4955484,6.04801434 C20.2186089,7.90375802 16.3298592,10.4042006 12.6130092,13.1897526 C12.3752691,13.3679087 12.1065452,13.5183583 11.9078326,13.7331587 C11.5512224,14.1186671 11.254494,14.0578915 10.8719648,13.757886 C10.3470297,13.3458627 9.78276925,12.9818044 9.22029629,12.6204275 C8.95991421,12.4532943 8.90152189,12.3743455 9.19288765,12.1520972 C10.848727,10.8889164 12.5459772,9.68472378 14.315622,8.5871865 C17.5659292,6.57116186 20.9538755,4.83875706 24.6185894,3.69116922 C24.8727152,3.61162458 25.130416,3.54161338 25.3794771,3.4480665 C25.8367843,3.27646458 26.2395721,3.31906714 26.6733436,3.58153466 C27.2402854,3.92503642 27.8572777,4.18482266 28.5502396,4.52921818" id="Fill-4" fill="#E11F38"></path>
            <path d="M14.4548996,5.80264742 C11.7920907,7.15311878 9.38966381,8.76605766 7.06976077,10.5011437 C6.62258285,10.8357079 6.29933965,10.8958877 5.84024493,10.5717508 C5.40796301,10.2660849 4.92205549,10.0343031 4.45134189,9.7855399 C4.21598509,9.66100934 4.22343309,9.58235846 4.43674381,9.43280262 C6.80490989,7.76981318 9.24725805,6.22777926 11.8248619,4.9070999 C11.9765032,4.82934278 12.1212923,4.75843782 12.3244737,4.85526182 C13.0040292,5.17910086 13.6993745,5.4701687 14.4548996,5.80264742" id="Fill-6" fill="#232C64"></path>
            <path d="M9.9494257,3.92202742 C7.25265386,5.22453366 4.79183466,6.71264406 2.40519754,8.32528502 C2.16835114,8.48526806 1.98810954,8.51774134 1.72653578,8.38635862 C1.1861089,8.1149535 0.625423456,7.88376758 8.9376e-05,7.60282902 C0.901893216,7.0618063 1.7581153,6.54431926 2.61821034,6.03279062 C4.2234033,5.07795702 5.86583626,4.19253878 7.55534058,3.3944111 C7.7418385,3.3065247 7.8952673,3.28209526 8.09904458,3.3512127 C8.68594698,3.55111702 9.2835745,3.7191439 9.9494257,3.92202742" id="Fill-8" fill="#232C64"></path>
            <path d="M19.1864055,3.60173363 C18.4600765,3.92169971 17.7674125,4.22110931 17.0807069,4.53362739 C16.9424721,4.59648851 16.8337313,4.58427379 16.7059236,4.52171059 C14.7405453,3.56002483 12.6744701,2.87570259 10.5723466,2.28909811 C10.5178273,2.27390419 10.4680746,2.24143091 10.4081927,2.21312851 C10.6307389,2.04837875 12.3571853,1.29106611 12.5475562,1.32085811 C12.8967185,1.37507955 13.2408161,1.46862643 13.5822324,1.56276915 C15.4424449,2.07578739 17.2660132,2.69337555 19.0267204,3.48763027 C19.0660458,3.50550547 19.098817,3.53827667 19.1864055,3.60173363" id="Fill-10" fill="#E11F38"></path>
            <path d="M23.5894546,2.17904646 C22.8419733,2.40874278 22.2032328,2.59762406 21.5713445,2.80646598 C21.4250658,2.85472902 21.3464149,2.77011974 21.2439304,2.72602758 C19.1841115,1.83763014 17.0751358,1.09342598 14.8869134,0.523207104 C15.8036133,0.327473664 16.6181266,-0.226657536 17.674253,0.101650304 C19.6441,0.714471744 21.5984552,1.35827686 23.5894546,2.17904646" id="Fill-12" fill="#E11F38"></path>
        </g>
    </g>
</svg>