<?xml version="1.0" encoding="UTF-8"?>
<svg width="42px" height="42px" viewBox="0 0 42 42" version="1.1" xmlns="http://www.w3.org/2000/svg" xmlns:xlink="http://www.w3.org/1999/xlink">
    <title>[00277] Banco Saenz</title>
    <g id="[00277]-Banco-Saenz" stroke="none" stroke-width="1" fill="none" fill-rule="evenodd">
        <path d="M31.7708587,10.5554251 C30.448482,10.5554251 29.1261053,10.5557628 27.8037285,10.5554251 C25.3419856,10.5547498 22.8809143,10.552724 20.4195071,10.5533993 C19.9762524,10.5537369 19.5380346,10.6026945 19.1192931,10.7607094 C18.7106257,10.9150103 18.4473592,11.2219238 18.3835574,11.6432968 C18.3163976,12.0852658 18.4268755,12.4917827 18.8190888,12.7801261 C19.2005565,13.0607038 19.6357521,13.2180434 20.0773279,13.3608646 C20.4144701,13.4699219 20.7633654,13.536099 21.1092384,13.6137559 C21.5702905,13.7170733 22.0293278,13.8315328 22.4880294,13.9459923 C23.2264515,14.130343 23.9500985,14.3626384 24.6586345,14.6388268 C25.1069263,14.813386 25.5390997,15.0230596 25.9564979,15.2668347 C26.288939,15.4613145 26.6055975,15.6770656 26.9024439,15.9208407 C27.1398538,16.1159959 27.3520788,16.3371492 27.5441559,16.5809243 C27.7731708,16.8709559 27.9659195,17.1798952 28.1257599,17.5128069 C28.2919804,17.8595618 28.4017867,18.2231986 28.4770057,18.5993281 C28.5220027,18.8228448 28.5508815,19.0487251 28.5710294,19.274943 C28.5989007,19.5940115 28.6083031,19.9137553 28.5908416,20.2331614 C28.5787528,20.4647815 28.5636418,20.6970769 28.5317409,20.9266712 C28.4837217,21.2666733 28.4135397,21.6012732 28.3144789,21.9324967 C28.1449004,22.5010802 27.8846561,23.020706 27.5549014,23.5096068 C27.3282371,23.8458949 27.0713508,24.1561848 26.7738328,24.4313603 C26.4037822,24.7737259 25.9991444,25.0671338 25.5572328,25.3129348 C24.8144453,25.7258668 24.0212879,25.9875368 23.190521,26.145214 C22.8063669,26.218144 22.4191906,26.2660886 22.028992,26.2920868 C21.8530333,26.3042418 21.6770746,26.3106569 21.5007801,26.3089688 C21.2982933,26.3221367 21.0961422,26.3221367 20.8936554,26.3093064 C20.7875429,26.3072806 20.6810946,26.3055924 20.5746463,26.3039042 C20.5054717,26.2836459 20.4326033,26.3099817 20.3634287,26.2887104 C20.0497924,26.2873599 19.739514,26.245155 19.4282283,26.2083524 C18.9863167,26.1570314 18.5487705,26.0793745 18.1162613,25.9780829 C17.4147771,25.8136529 16.7290754,25.5992523 16.0652007,25.3163112 C16.0101296,25.2926764 16.0000556,25.2649901 16.0000556,25.2126561 C16.0020704,24.8064768 16.0013988,24.4002975 16.0017346,23.9941182 C15.9886385,23.8107805 15.9970334,23.6274427 15.9963618,23.4441049 C15.9950187,23.0733777 15.9956902,22.7029881 15.9956902,22.3319232 C16.0020704,22.106043 15.9832657,21.8794874 16.0061,21.6539448 C16.2092585,21.639764 16.4124169,21.6438157 16.6145679,21.6688009 C16.6921375,21.6559707 16.7697071,21.6590094 16.8472767,21.6671127 C17.2126261,21.676229 17.578647,21.6735279 17.9433248,21.6985131 C18.1330513,21.711681 18.3217704,21.6934486 18.5104894,21.7120187 C18.8043136,21.7410556 19.0991452,21.7265371 19.3933052,21.7326146 C19.460465,21.7339652 19.5246026,21.7660409 19.5931056,21.7511848 C19.6773912,21.7370039 19.7616768,21.7417309 19.8462981,21.7484837 C20.042069,21.75186 20.2378398,21.7548988 20.4336107,21.7582752 C20.5252838,21.7704302 20.616957,21.7609763 20.7089659,21.7636774 C21.0182369,21.7592881 21.327172,21.7738065 21.6364429,21.756587 C22.0461178,21.7413932 22.4437039,21.6748784 22.8144261,21.4861384 C23.3198036,21.2288578 23.5256485,20.7632541 23.4571455,20.2037869 C23.4074472,19.7976076 23.1589559,19.5528196 22.8392752,19.3566515 C22.4077734,19.0916052 21.9353041,18.9197471 21.4520892,18.7826658 C20.3466387,18.4686619 19.2233909,18.2215104 18.1320439,17.8568607 C17.5833482,17.6735229 17.0380105,17.4817442 16.5228948,17.2153473 C15.8654002,16.8746699 15.2562607,16.4644389 14.7549127,15.9103739 C14.5030634,15.6321597 14.2891594,15.3249085 14.1024551,14.9973991 C13.8522848,14.5588065 13.6981531,14.0854371 13.6031219,13.5941729 C13.5473793,13.3058295 13.5047328,13.0124215 13.5154784,12.7159748 C13.5020464,12.4441757 13.5020464,12.1723766 13.5154784,11.9005775 C13.5285745,11.1803942 13.6853927,10.4895856 13.9547035,9.82477511 C14.4889598,8.50730913 15.4124073,7.54672721 16.652849,6.88529311 C17.5208896,6.42272818 18.451053,6.16375934 19.4262135,6.06044192 C19.8254786,6.01789945 20.2250795,5.99966696 20.6263593,6 C23.0028093,6.00203043 25.3792593,6.00236807 27.7553735,6.00338099 C27.7892892,6.00338099 27.8232049,6.00540682 27.8571206,6.00641973 C27.8974165,6.01621125 27.938384,6.01148431 27.9790157,6.01148431 C30.4766891,6.01148431 32.9750341,6.01148431 35.4727076,6.01182195 C35.5136751,6.01182195 35.5546426,6.00743265 35.5949384,6.01621125 C35.7000435,6.01654889 35.8061561,6.02161347 35.9109254,6.01519834 C35.9861444,6.0104714 36.0079713,6.03917068 35.9975615,6.10804896 C35.9952109,6.12459326 35.9972257,6.14215047 35.9972257,6.1590324 C35.9972257,10.5554251 35.9962183,14.9514802 35.9978973,19.3471976 C35.9985689,20.8719737 35.8239534,22.3714269 35.3810344,23.8334022 C34.761821,25.876116 33.7097625,27.6686396 32.2809375,29.241698 C31.5593053,30.0358241 30.7681627,30.7539814 29.9108677,31.397183 C29.3027356,31.8529952 28.6768061,32.2834845 28.0206547,32.6667043 C27.5774,32.9260108 27.134481,33.1859926 26.6878683,33.4398968 C26.2503221,33.6894118 25.8090821,33.9325116 25.3675063,34.1749361 C24.9877176,34.3832592 24.6052425,34.5871929 24.2237747,34.7928148 C23.6948912,35.0784571 23.1703731,35.3725404 22.6351094,35.6460277 C22.2895721,35.8226127 21.913813,35.9164762 21.5283156,35.9681349 C21.410786,35.984004 21.2935921,35.9975095 21.1743834,35.9904191 C21.0675993,36.0032494 20.9604794,36.0032494 20.8530237,35.9900815 C20.3788754,36.0052752 19.9262183,35.9070223 19.4947165,35.7135554 C18.9057249,35.4488467 18.3607231,35.0990531 17.7898647,34.79923 C17.4503718,34.6202815 17.1135653,34.437619 16.7767589,34.2539436 C16.0218826,33.8426997 15.2676779,33.4290924 14.522204,32.9999537 C13.9808959,32.6879756 13.4473112,32.3648554 12.931188,32.0123606 C12.4046551,31.6521002 11.8965911,31.2682051 11.4046454,30.8616882 C10.8509128,30.4041878 10.3317674,29.9095472 9.8408292,29.3858697 C9.35929334,28.8723213 8.91603858,28.3250091 8.5114007,27.7466341 C8.10407644,27.1635321 7.74074185,26.5537568 7.42744132,25.9149445 C6.97881377,25.0012943 6.63495553,24.0481404 6.39888879,23.0561581 C6.27061355,22.5145857 6.17222442,21.9679488 6.10943,21.4142214 C6.0711489,21.0738816 6.02883822,20.7338795 6.03018142,20.3908387 C6.00701128,20.3199346 6.03387521,20.2456541 6.01372726,20.17475 C6.01070507,20.0667056 6.00801868,19.9589989 6.00533229,19.8506169 C5.99492251,19.7253529 6.00365329,19.5997514 6.0006311,19.4741498 L6.0006311,18.0607944 C6.0006311,15.4950784 6.0006311,12.9297 6.0009669,10.3646593 C6.0009669,10.3234674 5.99727311,10.2822755 6.00432489,10.2417588 C6.00499649,8.87938692 6.00533229,7.51701501 6.00600388,6.1546431 C6.00633968,5.99527766 5.98518434,6.01756181 6.13830872,6.01722417 C7.45934223,6.01654889 8.78003995,6.01688653 10.1014093,6.01722417 C10.1383472,6.01722417 10.1756209,6.01992528 10.2128946,6.02161347 C10.2327067,6.06415594 10.2222969,6.10939952 10.2222969,6.1529549 C10.2229685,10.5084933 10.2229685,14.8647071 10.2233043,19.2202455 C10.2233043,19.2644762 10.21726,19.3090445 10.2286771,19.3529375 C10.2306919,19.4998103 10.2323709,19.6466831 10.2343857,19.7935559 C10.25722,19.8641224 10.2303561,19.9387405 10.2505041,20.0096447 C10.2427807,20.2436282 10.275689,20.4765989 10.3008739,20.7072061 C10.3428488,21.0863743 10.4036284,21.4645296 10.4855634,21.8379579 C10.5926833,22.3258457 10.7340547,22.8025915 10.912364,23.2681952 C11.1272754,23.8300259 11.3992727,24.3634949 11.7166028,24.8743422 C11.9389018,25.2319015 12.1867215,25.571566 12.4523385,25.8956991 C12.7350813,26.241441 13.0456955,26.5625354 13.3647046,26.8762017 C13.70319,27.209451 14.064174,27.5170398 14.4362394,27.8094349 C14.9359084,28.2010957 15.4587475,28.5620314 16.0034136,28.8892032 C16.3785012,29.1140706 16.7589615,29.3301593 17.1411009,29.5428716 C17.5484251,29.7697648 17.9544062,29.9980085 18.3654242,30.2178113 C18.7206997,30.4079018 19.0739603,30.6006935 19.4278925,30.7928099 C19.6720184,30.9251642 19.9137937,31.060895 20.158927,31.1908858 C20.5155457,31.3806388 20.8939912,31.4545816 21.2962785,31.3944819 C21.5172343,31.3613933 21.7136767,31.2644911 21.907097,31.160836 C22.271439,30.9653432 22.6364525,30.771201 22.9981081,30.570306 C24.2079922,29.899418 25.4370167,29.2609434 26.5918297,28.4948413 C27.9236088,27.611241 29.1066289,26.5645612 30.0297405,25.2427059 C30.8383447,24.0852807 31.35749,22.8083313 31.593221,21.4138838 C31.6983261,20.7933039 31.7510466,20.1686725 31.7577625,19.539314 C31.7715303,19.359015 31.7617921,19.1783783 31.7638069,18.9980793 C31.7678365,18.6503115 31.7574267,18.3025437 31.7691797,17.9551135 C31.7705229,16.5198117 31.7715303,15.0848475 31.7735451,13.6495456 C31.7745525,12.8841188 31.7772389,12.1190297 31.7785821,11.3536029 C31.7826117,11.0875436 31.7983942,10.8211467 31.7708587,10.5554251" id="Fill-1" fill="#233369"></path>
    </g>
</svg>