<?xml version="1.0" encoding="UTF-8"?>
<svg width="42px" height="42px" viewBox="0 0 42 42" version="1.1" xmlns="http://www.w3.org/2000/svg" xmlns:xlink="http://www.w3.org/1999/xlink">
    <title>[00285] Banco Macro</title>
    <defs>
        <polygon id="path-1" points="2.48221723e-05 0.2744343 31.8052898 0.2744343 31.8052898 15.9775922 2.48221723e-05 15.9775922"></polygon>
        <polygon id="path-3" points="0.0898754999 0.00995993826 9.44607449 0.00995993826 9.44607449 9.261 0.0898754999 9.261"></polygon>
    </defs>
    <g id="[00285]-Banco-Macro" stroke="none" stroke-width="1" fill="none" fill-rule="evenodd">
        <g id="Group-9" transform="translate(5.000000, 10.000000)">
            <g id="Group-3" transform="translate(0.000000, 0.034358)">
                <mask id="mask-2" fill="white">
                    <use xlink:href="#path-1"></use>
                </mask>
                <g id="Clip-2"></g>
                <path d="M29.4690885,15.9684027 C28.9748598,15.9684027 28.4793963,15.9461763 27.9867111,15.9745767 C27.4415469,16.0060641 27.2248395,15.7930611 27.1658778,15.236475 C26.6778231,10.6241883 24.3097854,7.34517693 20.0006421,5.62540923 C13.1780634,2.90236653 5.64115293,7.36524243 4.66720443,14.6246316 C4.48692363,15.9684027 4.48692363,15.9687114 3.10456503,15.9684027 C2.31367563,15.9684027 1.52278623,15.9724158 0.73189683,15.9671679 C0.09720963,15.9628461 -0.03120957,15.8328834 0.00583443,15.1830699 C0.24662043,10.9859847 1.89909153,7.42111713 4.97436093,4.57737273 C13.9510482,-3.72295287 28.5182925,0.56242053 31.4074158,12.4831797 C31.6219623,13.3682226 31.7312421,14.2690092 31.79823,15.174735 C31.8436089,15.7887393 31.6781457,15.9603765 31.0706241,15.9671679 C30.5368818,15.9733419 30.0028308,15.9684027 29.4690885,15.9684027" id="Fill-1" fill="#222B54" mask="url(#mask-2)"></path>
            </g>
            <path d="M23.8811246,16.0142138 C23.3671391,16.0142138 22.8519188,15.99137 22.3394768,16.0206965 C21.8202434,16.050023 21.5896445,15.8259068 21.5146304,15.3230345 C21.1494383,12.8880089 19.4790626,11.1089708 17.0894159,10.5826373 C14.8899284,10.0985957 12.4941077,11.0441438 11.2160897,12.9117788 C10.7305046,13.6211714 10.400813,14.3987867 10.3097465,15.2600597 C10.2523283,15.8064587 10.0121597,16.0518752 9.42254271,16.0259444 C8.43593751,15.9824177 7.44593661,16.0157573 6.45747921,16.0135964 C5.68943361,16.0117442 5.54804901,15.8561594 5.62182831,15.1081793 C6.03023841,10.9604861 9.02246751,7.40302731 13.0485329,6.27935931 C19.0354607,4.60805751 25.0183754,8.35907121 26.0806121,14.4963359 C26.3260286,15.9148124 26.385299,16.0694711 24.8300684,16.0157573 C24.5142683,16.0049528 24.1975421,16.0142138 23.8811246,16.0142138" id="Fill-4" fill="#222B54"></path>
            <g id="Group-8" transform="translate(11.113200, 11.456258)">
                <mask id="mask-4" fill="white">
                    <use xlink:href="#path-3"></use>
                </mask>
                <g id="Clip-7"></g>
                <path d="M4.82041224,0.01006362 C7.42306194,0.02704212 9.46264284,2.09440602 9.44597304,4.69859922 C9.43022934,7.21512162 7.28630784,9.29051172 4.73490234,9.26087652 C2.18411424,9.23062392 0.08279334,7.12868562 0.0898754999,4.61401542 C0.09637614,2.06353602 2.22424524,-0.00691488 4.82041224,0.01006362" id="Fill-6" fill="#222B54" mask="url(#mask-4)"></path>
            </g>
        </g>
    </g>
</svg>