<?xml version="1.0" encoding="UTF-8"?>
<svg width="42px" height="42px" viewBox="0 0 42 42" version="1.1" xmlns="http://www.w3.org/2000/svg" xmlns:xlink="http://www.w3.org/1999/xlink">
    <title>[00281] Banco Meridian</title>
    <defs>
        <polygon id="path-1" points="0.288044646 0.11052 10.4074753 0.11052 10.4074753 14.038488 0.288044646 14.038488"></polygon>
        <polygon id="path-3" points="0.004356 0.034824541 13.93344 0.034824541 13.93344 10.1587169 0.004356 10.1587169"></polygon>
        <polygon id="path-5" points="0.281442215 0.141912 10.4011957 0.141912 10.4011957 14.04 0.281442215 14.04"></polygon>
    </defs>
    <g id="[00281]-Banco-Meridian" stroke="none" stroke-width="1" fill="none" fill-rule="evenodd">
        <g id="Group-20" transform="translate(5.000000, 5.000000)">
            <path d="M13.921308,15.273504 C13.506948,15.251904 13.133268,15.227064 12.758868,15.214824 C11.606508,15.177024 10.455228,15.181704 9.312588,15.355224 C8.707788,15.446664 8.106948,15.565464 7.503588,15.668064 C6.680268,15.807744 5.851548,15.829704 5.018868,15.775704 C3.375828,15.669144 1.765188,15.353784 0.157068,15.021504 C0.069948,15.003504 0.044028,14.968584 0.037908,14.887224 C-0.146052,12.463344 0.330588,10.200024 1.673748,8.148024 C2.272788,7.231824 3.006108,6.434784 3.837708,5.725944 C3.887388,5.683824 3.922308,5.658264 3.991428,5.703984 C5.414148,6.641424 6.825348,7.593624 8.104788,8.726904 C8.921268,9.450864 9.586188,10.299384 10.185228,11.204784 C11.012868,12.456504 12.024108,13.546944 13.127868,14.556744 C13.380588,14.787504 13.636188,15.015744 13.921308,15.273504" id="Fill-1" fill="#074E73"></path>
            <path d="M14.881068,14.26662 C14.438268,13.76262 13.993308,13.27662 13.532868,12.80466 C12.660228,11.91114 11.709828,11.11086 10.661508,10.43334 C9.397548,9.61578 8.358948,8.56746 7.449948,7.37802 C6.708708,6.40782 6.020028,5.40126 5.352588,4.37922 C5.310828,4.31514 5.292468,4.2723 5.353668,4.20102 C6.815988,2.49246 8.592228,1.27422 10.785708,0.70254 C11.601828,0.48978 12.431628,0.38142 13.275108,0.36954 C13.683708,0.36414 14.090868,0.37782 14.498388,0.40194 C14.592708,0.4077 14.630868,0.43182 14.651748,0.53154 C14.948388,1.93806 15.213348,3.35034 15.361308,4.7817 C15.489108,6.02262 15.450948,7.25598 15.191028,8.47926 C14.882868,9.93078 14.783508,11.39922 14.838228,12.8799 C14.854068,13.30146 14.877468,13.72302 14.896908,14.14494 C14.898708,14.18022 14.910588,14.21658 14.881068,14.26662" id="Fill-3" fill="#074E73"></path>
            <path d="M17.28612,15.261552 C17.59572,14.981112 17.89056,14.715072 18.1836,14.447592 C19.35504,13.378752 20.38608,12.190032 21.25152,10.858752 C21.98592,9.727992 22.93308,8.798472 23.98788,7.970832 C25.01892,7.162272 26.1,6.426432 27.1944,5.708952 C27.26496,5.662872 27.30708,5.666112 27.37188,5.721192 C29.16648,7.255512 30.40812,9.133272 30.9384,11.453472 C31.19364,12.571272 31.25088,13.702392 31.16736,14.843592 C31.15944,14.954112 31.122,14.997312 31.01076,15.019992 C29.97108,15.236712 28.92924,15.439032 27.87768,15.588432 C26.8794,15.730272 25.87824,15.830352 24.86772,15.784632 C24.12828,15.751152 23.40396,15.612552 22.67892,15.475752 C21.84372,15.318072 21.00096,15.225552 20.15064,15.197472 C19.24956,15.167592 18.35064,15.200352 17.45208,15.261192 C17.40348,15.264792 17.35452,15.261552 17.28612,15.261552" id="Fill-5" fill="#074E73"></path>
            <g id="Group-9" transform="translate(15.480000, 0.249588)">
                <mask id="mask-2" fill="white">
                    <use xlink:href="#path-1"></use>
                </mask>
                <g id="Clip-8"></g>
                <path d="M0.813636,14.038488 C0.825516,13.824648 0.835596,13.637808 0.846396,13.450248 C0.918396,12.211488 0.924516,10.973088 0.777996,9.738648 C0.703836,9.111888 0.579276,8.493768 0.464796,7.873488 C0.284076,6.895368 0.249156,5.912928 0.327276,4.921488 C0.451116,3.354768 0.753516,1.817568 1.067076,0.281448 C1.078956,0.223128 1.077876,0.160128 1.176156,0.152208 C2.700756,0.030528 4.196556,0.166968 5.649876,0.662688 C7.538796,1.307448 9.086436,2.443248 10.369836,3.957768 C10.413036,4.008528 10.421316,4.040928 10.382796,4.099968 C9.507276,5.435208 8.610876,6.754968 7.574076,7.973568 C6.828156,8.850888 5.961276,9.585648 5.001516,10.216368 C4.032036,10.853208 3.143916,11.589768 2.325636,12.410928 C1.827396,12.910608 1.348956,13.429368 0.885636,13.961088 C0.868356,13.981248 0.849996,13.999968 0.813636,14.038488" id="Fill-7" fill="#074E73" mask="url(#mask-2)"></path>
            </g>
            <path d="M13.901616,16.66782 C13.867776,16.7517 13.791456,16.78338 13.734216,16.8345 C13.550616,16.99758 13.367016,17.15994 13.186296,17.32626 C12.741696,17.73522 12.306816,18.15462 11.893536,18.59454 C11.249136,19.28034 10.665576,20.01582 10.143936,20.80062 C9.637776,21.56202 9.088776,22.29102 8.421336,22.92138 C7.950096,23.36634 7.452936,23.78322 6.938496,24.17814 C5.997816,24.90066 5.013936,25.56126 4.023576,26.21322 C3.957336,26.25642 3.916296,26.27226 3.845376,26.21286 C3.405456,25.84134 2.995416,25.44066 2.614176,25.00938 C2.319336,24.6753 2.047536,24.32538 1.793376,23.95998 C1.402416,23.39766 1.085976,22.7961 0.814536,22.16898 C0.502416,21.4479 0.290016,20.69658 0.154296,19.92474 C0.086976,19.54242 0.059256,19.15506 0.029736,18.7677 C0.000576,18.38718 0.006696,18.00738 0.009576,17.62722 C0.010656,17.43858 0.043056,17.24958 0.050976,17.06094 C0.055296,16.95978 0.108936,16.92846 0.194616,16.9119 C0.756216,16.80138 1.316376,16.6833 1.879056,16.57962 C2.373696,16.48818 2.869056,16.3989 3.367296,16.33374 C3.847536,16.27074 4.329216,16.21242 4.814136,16.18146 C5.234976,16.15482 5.655456,16.11738 6.077376,16.13358 C6.631416,16.15446 7.182576,16.21062 7.729416,16.3089 C8.388216,16.42662 9.044496,16.55478 9.709416,16.6365 C10.669896,16.75458 11.633256,16.75458 12.597336,16.73874 C13.030416,16.7319 13.462776,16.69266 13.901616,16.66782" id="Fill-10" fill="#C1C2C6"></path>
            <g id="Group-14" transform="translate(17.280000, 16.089588)">
                <mask id="mask-4" fill="white">
                    <use xlink:href="#path-3"></use>
                </mask>
                <g id="Clip-13"></g>
                <path d="M0.004356,0.566964 C0.289116,0.582444 0.537516,0.595764 0.785916,0.610524 C0.822636,0.612684 0.858996,0.624204 0.896076,0.624204 C1.470996,0.625284 2.046276,0.681804 2.621556,0.649764 C3.189276,0.619164 3.756636,0.595404 4.322196,0.524124 C5.055876,0.431604 5.777676,0.275364 6.506676,0.158004 C7.213356,0.044604 7.926516,0.015804 8.640036,0.046044 C9.300276,0.073764 9.958716,0.143964 10.611396,0.243684 C11.418516,0.366084 12.224916,0.495684 13.023036,0.672444 C13.271076,0.727164 13.520556,0.775044 13.770036,0.820044 C13.836996,0.831564 13.860036,0.859644 13.876956,0.923004 C13.927716,1.110204 13.898916,1.301724 13.914036,1.490364 C13.941036,1.827324 13.939956,2.166804 13.910796,2.505924 C13.888836,2.759004 13.873716,3.012444 13.848156,3.265524 C13.794156,3.800844 13.688316,4.325004 13.545756,4.841964 C13.350636,5.550084 13.080636,6.230124 12.735036,6.878124 C12.381156,7.542324 11.958876,8.160444 11.470356,8.734284 C11.187036,9.067284 10.882116,9.378684 10.569996,9.682524 C10.410516,9.837684 10.236636,9.977364 10.073196,10.128204 C10.009836,10.186524 9.961596,10.149084 9.912276,10.116324 C9.468396,9.821844 9.021276,9.531684 8.583156,9.228924 C8.130276,8.915004 7.682076,8.594964 7.240716,8.265924 C6.683436,7.851204 6.149556,7.408044 5.636556,6.938604 C4.894956,6.260724 4.302036,5.465484 3.744756,4.638204 C3.291516,3.965364 2.796516,3.325284 2.246076,2.727684 C1.848996,2.296764 1.432116,1.886724 1.012716,1.479204 C0.697716,1.173564 0.361836,0.888804 0.004356,0.566964" id="Fill-12" fill="#C1C2C6" mask="url(#mask-4)"></path>
            </g>
            <g id="Group-17" transform="translate(5.040000, 17.529588)">
                <mask id="mask-6" fill="white">
                    <use xlink:href="#path-5"></use>
                </mask>
                <g id="Clip-16"></g>
                <path d="M9.849132,0.141912 C9.787572,1.165032 9.776412,2.175912 9.807372,3.186072 C9.828612,3.882672 9.909972,4.576032 10.041372,5.263272 C10.147572,5.816232 10.243692,6.371352 10.323972,6.928632 C10.422612,7.610472 10.410372,8.300232 10.376892,8.984592 C10.342692,9.680472 10.248012,10.372392 10.140012,11.062152 C9.990252,12.015432 9.812412,12.962952 9.608652,13.905792 C9.592452,13.980312 9.560772,13.985352 9.499572,13.995072 C9.191412,14.044752 8.879292,14.029632 8.570412,14.038272 C8.239572,14.046912 7.905132,14.024592 7.572132,13.999752 C7.198092,13.972032 6.828732,13.919112 6.460092,13.855752 C5.795892,13.741272 5.156892,13.544352 4.531212,13.297752 C3.552372,12.912192 2.663172,12.373632 1.851012,11.710152 C1.290132,11.251512 0.780732,10.737432 0.312012,10.183032 C0.261972,10.123992 0.281052,10.093032 0.314532,10.041912 C0.998532,8.995392 1.698372,7.960392 2.466972,6.972552 C2.949372,6.352992 3.464532,5.764752 4.030092,5.220432 C4.431852,4.833792 4.873572,4.497552 5.331492,4.181832 C6.002172,3.719592 6.678252,3.263832 7.296372,2.730672 C7.577172,2.488752 7.849332,2.236032 8.116452,1.977912 C8.536212,1.571112 8.937972,1.147392 9.336132,0.720072 C9.511812,0.532152 9.678132,0.334872 9.849132,0.141912" id="Fill-15" fill="#C1C2C6" mask="url(#mask-6)"></path>
            </g>
            <path d="M16.300332,17.63532 C16.585452,17.9532 16.849332,18.25092 17.118252,18.54396 C17.420292,18.873 17.739972,19.18332 18.054612,19.49832 C18.727812,20.17224 19.468692,20.76408 20.253132,21.30228 C20.825892,21.69468 21.405492,22.0788 21.925332,22.54104 C22.278492,22.85532 22.606452,23.19552 22.921452,23.5494 C23.374332,24.05844 23.794092,24.5934 24.196932,25.1424 C24.777612,25.93368 25.330932,26.7444 25.861212,27.57096 C25.900452,27.63288 25.899372,27.66672 25.851492,27.7236 C25.490052,28.15524 25.091892,28.54872 24.676092,28.92672 C24.343092,29.22948 23.987772,29.50236 23.619492,29.76012 C22.920732,30.24936 22.167972,30.63348 21.370572,30.9312 C20.740572,31.16592 20.091492,31.33116 19.428012,31.4352 C18.762732,31.53924 18.092772,31.5666 17.419572,31.55292 C17.174412,31.54788 16.928892,31.54788 16.683732,31.52412 C16.612452,31.51728 16.578612,31.49748 16.564212,31.42188 C16.447212,30.8196 16.321572,30.21876 16.207452,29.61576 C16.127892,29.19456 16.054092,28.77192 15.992532,28.34748 C15.941052,27.99576 15.916572,27.64044 15.869412,27.288 C15.775452,26.59176 15.772572,25.89192 15.791292,25.19244 C15.805332,24.65172 15.892092,24.11748 15.992172,23.58576 C16.096932,23.02812 16.193052,22.46976 16.267572,21.90636 C16.403292,20.88108 16.374852,19.85184 16.368372,18.82368 C16.366212,18.43596 16.325172,18.04824 16.300332,17.63532" id="Fill-18" fill="#C1C2C6"></path>
        </g>
    </g>
</svg>