<?xml version="1.0" encoding="UTF-8"?>
<svg width="42px" height="42px" viewBox="0 0 42 42" version="1.1" xmlns="http://www.w3.org/2000/svg" xmlns:xlink="http://www.w3.org/1999/xlink">
    <title>[00300] Banco de Inversión y Comercio Exterior</title>
    <g id="[00300]-Banco-de-Inversión-y-Comercio-Exterior" stroke="none" stroke-width="1" fill="none" fill-rule="evenodd">
        <path d="M26.7872839,27.5018968 C26.9199799,27.5340904 27.0517639,27.570844 27.1856455,27.5976568 C27.9580183,27.7519672 27.9587479,27.7511464 27.9597511,28.5506968 C27.9602983,28.8847624 27.9451591,29.2194664 27.9609367,29.5528024 C27.9743431,29.8359784 27.8527735,29.911948 27.5846455,29.9167816 C26.8912519,29.9290936 26.8915255,29.9407672 26.7912055,29.3199688 C26.6421847,28.398028 26.3583703,28.0963384 25.5250759,27.9743128 C24.6482791,27.8459032 23.8817431,28.2210088 23.5494103,28.9430392 C23.3378263,29.4026872 23.2158007,29.889148 23.1946423,30.3913864 C23.1400135,31.6938136 23.0306647,33.000436 23.3298919,34.2900952 C23.6224615,35.5504792 25.0203751,36.1476568 26.1200647,35.4755128 C26.6226679,35.1683512 26.7351175,34.6421272 26.8135495,34.1068744 C26.8383559,33.9374248 26.7795319,33.692188 27.0181111,33.6548872 C27.2993719,33.6107464 27.5965927,33.5893144 27.8751175,33.67486 C27.9835543,33.7080568 27.9572887,33.8583544 27.9575623,33.9626872 C27.9588391,34.4941096 27.9595687,35.0256232 27.9552823,35.5571368 C27.9540967,35.7059752 27.9664087,35.8564552 27.7540951,35.905612 C26.1885559,36.2673112 24.6191863,36.4703224 23.0349511,36.0271816 C21.9953623,35.7363448 21.3879703,35.0163208 21.1875127,33.9874936 C20.9157367,32.5928632 20.9174695,31.1930344 21.2292823,29.7941176 C21.5517655,28.347412 22.5618967,27.7456744 23.9056375,27.5186776 C24.0544759,27.4935064 24.2029495,27.4670584 24.3516055,27.4412488 C25.1665687,27.3420232 25.9796167,27.3161224 26.7872839,27.5018968 Z M18.3996746,27.5957781 C18.6276746,27.9291141 18.527993,28.0735749 18.1363802,28.1135205 C17.407145,28.1878485 17.2337738,28.3919541 17.2324058,29.1397029 C17.2292138,30.9444597 17.228393,32.7493989 17.2333178,34.5541557 C17.2355066,35.3975733 17.382521,35.5569909 18.2140826,35.6438133 C18.665249,35.6909637 18.5569034,35.9182341 18.3958442,36.1699461 C18.1322762,36.2749173 17.857217,36.2162757 17.5882682,36.2184645 C16.5861626,36.2265813 15.5838746,36.2240277 14.5816778,36.2191029 C14.4347546,36.2183733 14.2772522,36.2688069 14.1409082,36.1660245 C13.951121,35.8193733 14.0075738,35.6509269 14.4487994,35.6331429 C15.1272362,35.6056005 15.3161114,35.4003093 15.3183914,34.7369205 C15.3246842,32.8086789 15.3199418,30.8803461 15.3172058,28.9521957 C15.3167498,28.6584405 15.299513,28.3666917 14.9622554,28.2371877 C14.7580586,28.1261973 14.5104506,28.2911781 14.3134586,28.1348613 C13.973921,28.0107381 13.9395386,27.8299797 14.2131386,27.5924949 C15.608681,27.5436117 17.0041322,27.5386869 18.3996746,27.5957781 Z M30.7584419,27.562864 L36.9163571,27.5624992 L36.9163571,27.5624992 C37.0061891,27.5624992 37.0981187,27.5522848 37.1822963,27.5978848 C37.2160403,27.6295312 37.2498755,27.6612688 37.2836195,27.692824 C37.3355123,28.3596784 37.3547555,29.0262592 37.2736787,29.692384 C37.1990771,29.7040576 37.1246579,29.7231184 37.0496003,29.7263104 C36.2070035,29.7624256 36.2016227,29.7626992 36.0590771,28.9512928 C35.9903123,28.5604096 35.7681491,28.3310416 35.3896691,28.244584 C34.8212195,28.1148064 34.2428291,28.1502832 33.6668099,28.142896 C33.4481123,28.1400688 33.3751523,28.2540688 33.3757907,28.4547088 C33.3782531,29.3200144 33.3810803,30.1854112 33.3745139,31.0507168 C33.3728723,31.2694144 33.4649843,31.3288768 33.6732851,31.3422832 C34.4566019,31.3927168 34.6763939,31.2580144 34.8786755,30.4632976 C34.9592051,30.1468336 35.1729779,30.280168 35.3420627,30.2549968 C35.5418819,30.2251744 35.6116499,30.3383536 35.6034419,30.5244928 C35.5727075,31.2069424 35.5603955,31.8894832 35.6036243,32.572024 C35.6162099,32.7691072 35.5539203,32.9004352 35.3246435,32.8813744 C35.1435203,32.8663264 34.9523651,32.9538784 34.8604355,32.6606704 C34.6147427,31.876168 34.5245459,31.8422416 33.6914339,31.8740704 C33.4588739,31.883008 33.3687683,31.9519552 33.3705923,32.1895312 C33.3787091,33.2217328 33.3789827,34.254208 33.3712307,35.2865008 C33.3694067,35.5327408 33.4814915,35.6040592 33.7040195,35.5963984 C34.1738819,35.5804384 34.6442003,35.6102608 35.1134243,35.5439584 C35.6637251,35.466256 35.9015747,35.2535776 36.0549731,34.7101168 C36.1355939,34.4244784 35.9929571,34.0240192 36.2760419,33.8673376 C36.4517159,33.7700956 36.6628724,33.7763799 36.8776493,33.7981521 L37.1350802,33.8260785 C37.1775953,33.8300938 37.2197453,33.83332 37.2612755,33.8350528 C37.3660643,34.5868144 37.3348739,35.3395792 37.2782387,36.0925264 C37.2471395,36.121984 37.2161315,36.1514416 37.1850323,36.1808992 C37.0874483,36.240088 36.9788291,36.2208448 36.8741315,36.220936 C34.8422867,36.2220304 32.8105331,36.2230336 30.7785971,36.219568 C30.5732147,36.2192032 30.2914067,36.295264 30.3531491,35.9123152 C30.3888995,35.8225744 30.4245587,35.7327424 30.4604003,35.6430928 C30.7121123,35.5429552 31.0029491,35.5979488 31.2416195,35.446192 C31.4126195,35.3488588 31.4385431,35.1963268 31.4409713,35.0399217 L31.4400707,34.8841264 L31.4400707,34.8841264 C31.4439923,32.888032 31.4459987,30.8918464 31.4391587,28.8958432 C31.4373347,28.3186384 31.3164947,28.1801056 30.7378307,28.1195488 C30.3610835,28.0800592 30.3072755,27.9127072 30.4511891,27.6080992 C30.5457635,27.5403376 30.6547475,27.5629552 30.7584419,27.562864 Z M9.54205698,27.5628458 C9.63015618,27.562937 9.72527778,27.5432378 9.79686978,27.620849 C9.84716007,27.6391281 9.8979808,27.6560001 9.94902169,27.6722613 L10.2554266,27.7688706 C10.458148,27.836885 10.6544625,27.9206104 10.8245114,28.0710122 C11.4325418,28.6086362 11.427617,29.3123354 11.307233,30.0083738 C11.1842954,30.7199162 10.6607162,31.1152682 10.0027082,31.3320506 C9.71825538,31.425713 9.42212898,31.4843546 9.02787138,31.5854042 C9.47238018,31.6476938 9.82568898,31.6648394 10.1619434,31.7497466 C11.595881,32.111537 11.7885866,33.2087642 11.603633,34.237409 C11.4085562,35.3215946 10.6529642,35.9453114 9.52792098,36.0877658 C9.37890018,36.1066442 9.23161218,36.1405706 9.08350338,36.1674746 C9.04465218,36.189089 9.01163778,36.2190026 8.96093058,36.2190938 C7.35307458,36.2234714 5.74521858,36.2245658 4.13727138,36.2186378 C4.08419298,36.2183642 4.05701538,36.1827962 4.02080898,36.1578074 C3.94721058,35.797385 4.06303458,35.6394266 4.46139618,35.635505 C4.95852738,35.6307626 5.17430658,35.4098762 5.17831938,34.8859322 C5.19364098,32.8838186 5.19382338,30.8816138 5.17649538,28.8795914 C5.17175298,28.327649 4.99746978,28.1684138 4.42874658,28.1300186 C4.06349058,28.1053946 3.94110018,27.9567386 4.03056738,27.6128234 C4.10735778,27.5464298 4.20102018,27.5627546 4.29003138,27.5627546 L4.29003138,27.5627546 Z M7.50857058,31.8916428 C7.20113538,31.892201 7.07327298,31.9673498 7.09123938,32.297585 C7.11741378,32.7806714 7.09789698,33.2662202 7.09789698,33.7507658 L7.09789698,33.7507658 C7.10081538,33.9778538 7.10136258,34.205033 7.10072418,34.432121 L7.10072418,34.432121 L7.10055342,34.7050185 C7.10480541,35.7552076 7.1987608,35.7423407 8.41965858,35.5285274 C8.46407298,35.5207754 8.50711938,35.5049978 8.55107778,35.4942362 C8.97752898,35.3911802 9.32919618,35.1573434 9.43061058,34.7283386 C9.89919618,32.7470186 9.39869058,31.888097 7.50857058,31.8916428 Z M7.69179138,28.0992842 C7.23524418,28.0846922 7.02858498,28.2348074 7.09251618,28.724369 C7.13547138,29.0530538 7.10072418,29.3916794 7.10017698,29.7258362 C7.09962978,30.1664234 7.09716738,30.6070106 7.10127138,31.0475066 C7.10236578,31.1611418 7.07372898,31.282985 7.24016898,31.339985 C7.73447298,31.5094346 8.74788738,31.2584522 9.05970018,30.8523386 C9.55865538,30.2023562 9.54470178,29.4809642 9.21583458,28.7842874 C8.92016418,28.1583818 8.30219298,28.1188922 7.69179138,28.0992842 Z M17.2229483,6.00620276 C23.7809579,6.00410516 30.3390587,6.00474356 36.8971595,6.00602036 C37.0183643,6.00602036 37.1394779,6.01641716 37.2606827,6.02198036 C37.3623707,6.14117876 37.3165883,6.28436276 37.3165883,6.41605556 C37.3191419,12.5821788 37.3190507,18.7482108 37.3171355,24.9142428 C37.3171355,25.047942 37.3526123,25.1885724 37.2720827,25.3144284 C37.0961579,25.3114188 37.0166315,25.1647692 36.9099275,25.0642668 C30.8065499,19.3152012 24.7045403,13.5647676 18.6025307,7.81424276 C18.0007019,7.24716116 17.3997851,6.67898516 16.7892011,6.10269236 C16.9524491,5.96324756 17.0943563,6.00629396 17.2229483,6.00620276 Z" id="Combined-Shape" fill="#099ECD"></path>
    </g>
</svg>