<?xml version="1.0" encoding="UTF-8"?>
<svg width="42px" height="42px" viewBox="0 0 42 42" version="1.1" xmlns="http://www.w3.org/2000/svg" xmlns:xlink="http://www.w3.org/1999/xlink">
    <title>[00301] Banco Piano</title>
    <defs>
        <polygon id="path-1" points="0 0.26480832 32.212416 0.26480832 32.212416 14.5190242 0 14.5190242"></polygon>
        <polygon id="path-3" points="0.11691648 0.1439424 11.3705435 0.1439424 11.3705435 12.7937116 0.11691648 12.7937116"></polygon>
    </defs>
    <g id="[00301]-Banco-Piano" stroke="none" stroke-width="1" fill="none" fill-rule="evenodd">
        <g id="Group-9" transform="translate(5.000000, 10.000000)">
            <g id="Group-3" transform="translate(0.000000, 3.772988)">
                <mask id="mask-2" fill="white">
                    <use xlink:href="#path-1"></use>
                </mask>
                <g id="Clip-2"></g>
                <path d="M12.8682547,14.5141267 C8.65867392,14.5141267 4.44909312,14.5124947 0.23951232,14.5190242 C0.04236672,14.5193491 -0.000113693643,14.4641875 0.00091392,14.2758547 C0.00972672,13.1230099 0.01103232,11.9701651 -0.000113693643,10.8176467 C-0.00202368,10.6240915 0.05509632,10.5927571 0.23265792,10.5930835 C8.05450752,10.5992851 15.8763571,10.6002643 23.6978803,10.6022227 C24.1551667,10.6025491 24.6078835,10.5640339 25.0589683,10.4814547 C25.9990003,10.3081363 26.5796659,9.73824192 26.8574323,8.85043392 C27.1420531,7.94140992 27.1737139,7.01247552 26.9498035,6.08647872 C26.6847667,4.99173312 25.8945523,4.33175232 24.7766323,4.22730432 C24.4198771,4.19433792 24.0624691,4.17964992 23.7040819,4.17997632 C21.6591859,4.18160832 19.6139635,4.18324032 17.5687411,4.17638592 C17.3888947,4.17605952 17.3350387,4.21228992 17.3360179,4.40356032 C17.3451571,5.96407872 17.3386291,7.52427072 17.3448307,9.08446272 C17.3454835,9.24407232 17.3115379,9.29433792 17.1418099,9.29335872 C15.7219699,9.28585152 14.3027827,9.28585152 12.8829427,9.29335872 C12.7223539,9.29433792 12.6897139,9.25125312 12.6900403,9.09653952 C12.6952627,6.22226112 12.6952627,3.34732992 12.6900403,0.47239872 C12.6897139,0.30919872 12.7279027,0.26480832 12.8953459,0.26480832 C16.6482931,0.27003072 20.4009139,0.26187072 24.1538611,0.27329472 C25.2061747,0.27623232 26.2601203,0.32519232 27.2954611,0.53767872 C28.8354163,0.85298112 29.9921779,1.73491392 30.8675827,3.01244352 C32.0011699,4.66663872 32.3899123,6.49839552 32.1398899,8.47540032 C31.9518835,9.96313152 31.4342131,11.3170387 30.4426099,12.4594387 C29.3987827,13.6612435 28.0700083,14.3052307 26.4830515,14.4370963 C25.6980595,14.5020499 24.9130675,14.5151059 24.1264435,14.5147795 C20.3738227,14.5131475 16.6208755,14.5141267 12.8682547,14.5141267" id="Fill-1" fill="#182D55" mask="url(#mask-2)"></path>
            </g>
            <path d="M15.1326547,23.3533325 C14.4230611,23.3533325 13.7137939,23.3484365 13.0042003,23.3569229 C12.8530771,23.3588813 12.8210899,23.3138381 12.821728,23.1692429 C12.8279443,22.0451213 12.8279443,20.9213261 12.821728,19.7972045 C12.8207635,19.6454285 12.8684179,19.6118093 13.0120339,19.6121333 C14.4380755,19.6173581 15.8637907,19.6167053 17.2895059,19.6127885 C17.4197395,19.6124621 17.4722899,19.6359629 17.4713241,19.7841485 C17.4647827,20.9226317 17.4651091,22.0604621 17.4713241,23.1982925 C17.4719635,23.3376653 17.4243091,23.3565965 17.3028883,23.3559437 C16.5795859,23.3503949 15.8562835,23.3533325 15.1326547,23.3533325" id="Fill-4" fill="#182D55"></path>
            <g id="Group-8" transform="translate(0.000000, 0.182588)">
                <mask id="mask-4" fill="white">
                    <use xlink:href="#path-3"></use>
                </mask>
                <g id="Clip-7"></g>
                <path d="M8.29291008,9.56201856 C8.10751488,10.130281 7.58005248,10.5013978 6.95956608,10.5141274 C6.30023808,10.5278362 5.63993088,10.5173914 4.98027648,10.5173914 L4.98027648,10.5232666 C4.32747648,10.5232666 3.67467648,10.5193498 3.02187648,10.5265306 C2.87238528,10.5281626 2.81428608,10.4984602 2.81619672,10.3323226 C2.82473088,9.48302976 2.82211968,8.63341056 2.81787648,7.78411776 C2.81722368,7.65518976 2.84170368,7.59806976 2.98858368,7.59903659 C4.28014848,7.60622976 5.57203968,7.59676416 6.86327808,7.61308416 C7.27029888,7.61830656 7.68221568,7.67966976 7.99653888,7.98387456 C8.46427008,8.43691776 8.47928448,8.99114496 8.29291008,9.56201856 M2.81787648,2.59435776 C2.81689728,2.46347136 2.84594688,2.41059456 2.99054208,2.41156043 C4.28863488,2.41842816 5.58738048,2.41092096 6.88547328,2.42462976 C7.28825088,2.42887296 7.68417408,2.50557696 7.99784448,2.79607296 C8.39539968,3.16359936 8.51159808,3.80954496 8.28997248,4.39673856 C8.08629888,4.93725696 7.56046848,5.31522816 6.95695488,5.32632576 C6.30448128,5.33842333 5.65168128,5.32893696 4.99888128,5.32893696 L4.99888128,5.33579136 C4.33204608,5.33579136 3.66521088,5.33252736 2.99837568,5.33842333 C2.86553088,5.33938176 2.81624448,5.30608896 2.8172094,5.16377856 C2.82309888,4.30730496 2.82244608,3.45083136 2.81787648,2.59435776 M9.57370368,6.48178176 C9.72058368,6.39528576 9.85669248,6.32445696 9.98235648,6.23861376 C11.2109261,5.40368256 11.7129293,3.61109376 11.1250829,2.17526016 C10.7448269,1.24632576 10.1328269,0.57035136 9.12261888,0.32620416 C8.56708608,0.19172736 7.99784448,0.15517056 7.43056128,0.15255936 C5.07003648,0.14276736 2.70983808,0.15060096 0.34898688,0.143744973 C0.16130688,0.14342016 0.11691648,0.19335936 0.11724288,0.37744896 C0.12279168,4.43884416 0.12279168,8.49991296 0.11691648,12.5609818 C0.11691648,12.7473562 0.16424448,12.7943578 0.34996608,12.7937116 C2.62627968,12.787177 4.90226688,12.792073 7.17858048,12.7878298 C7.73998848,12.7868506 8.30041728,12.7571482 8.85595008,12.6670618 C9.44151168,12.5720794 9.97680768,12.3723226 10.4138573,11.9473498 C11.0085581,11.368969 11.2856717,10.6528474 11.3444237,9.84239616 C11.4097037,8.94512256 11.2951373,8.08962816 10.7118605,7.35490176 C10.4096141,6.97464576 10.0182605,6.70928256 9.57370368,6.48178176" id="Fill-6" fill="#0D9AD6" mask="url(#mask-4)"></path>
            </g>
        </g>
    </g>
</svg>