<?xml version="1.0" encoding="UTF-8"?>
<svg width="42px" height="42px" viewBox="0 0 42 42" version="1.1" xmlns="http://www.w3.org/2000/svg" xmlns:xlink="http://www.w3.org/1999/xlink">
    <title>[00305] Banco Julio</title>
    <defs>
        <polygon id="path-1" points="0 0.253854096 10.0467418 0.253854096 10.0467418 17.64 0 17.64"></polygon>
        <polygon id="path-3" points="0.1444716 0.3414222 10.5211466 0.3414222 10.5211466 13.671 0.1444716 13.671"></polygon>
        <polygon id="path-5" points="0.130249357 0.3414222 0.388521 0.3414222 0.388521 1.6353162 0.130249357 1.6353162"></polygon>
    </defs>
    <g id="[00305]-Banco-Julio" stroke="none" stroke-width="1" fill="none" fill-rule="evenodd">
        <g id="Group-42" transform="translate(11.000000, 4.000000)">
            <g id="Group-3" transform="translate(0.000000, 15.651707)">
                <mask id="mask-2" fill="white">
                    <use xlink:href="#path-1"></use>
                </mask>
                <g id="Clip-2"></g>
                <path d="M9.8464716,17.6400882 C9.0341496,17.3521152 8.3444256,16.8436422 7.6300056,16.3863252 C5.2384626,14.8556142 3.0206736,13.1242482 1.3691286,10.7671032 C-1.1608884,7.1557542 -0.0870534,2.5843482 3.7849266,0.4816602 C3.9308976,0.4022802 4.0817196,0.3198132 4.2404796,0.2779182 C4.5659376,0.1919232 4.7586546,0.3396582 4.6722186,0.6690852 C4.0252716,3.1298652 5.3037306,4.7443662 7.0562646,6.1551252 C7.9228296,6.8519052 8.8784766,7.4110932 9.8451486,7.9526412 C10.0250766,8.1206622 10.0131696,8.3429262 10.0184616,8.5603392 C10.0202256,8.7698142 10.0246356,8.9788482 10.0211076,9.1883232 C10.0105236,9.3559032 10.0211076,9.5239242 10.0136106,9.6910632 C10.0127286,9.8529102 10.0118466,10.0147572 10.0087596,10.1766042 C10.0100826,10.2714192 10.0092006,10.3662342 10.0065546,10.4610492 C10.0074366,10.5545412 10.0061136,10.6480332 10.0043496,10.7410842 C10.0047906,10.8658872 10.0039086,10.9898082 10.0043496,11.1141702 C10.0065546,11.2398552 10.0065546,11.3655402 10.0069956,11.4921072 C10.0105236,11.5895682 10.0105236,11.6874702 10.0105236,11.7853722 C10.0175796,11.9560392 10.0136106,12.1271472 10.0180206,12.2982552 C10.0352196,12.4464312 10.0184616,12.5946072 10.0321326,12.7427832 C10.0581516,14.1195852 10.0413936,15.4955052 10.0418346,16.8714252 C10.0418346,17.1421992 10.0467418,17.4182652 9.8464716,17.6400882" id="Fill-1" fill="#E22026" mask="url(#mask-2)"></path>
            </g>
            <g id="Group-6" transform="translate(9.702000, 19.620707)">
                <mask id="mask-4" fill="white">
                    <use xlink:href="#path-3"></use>
                </mask>
                <g id="Clip-5"></g>
                <path d="M0.1444716,13.6710882 C0.1519686,11.9970522 0.1585836,10.3230162 0.1656396,8.6494212 C0.3914316,8.4386232 0.6749946,8.4866922 0.9422406,8.4875742 C4.4605386,8.5003632 7.1259426,6.9670062 9.0107766,4.0281822 C9.6312636,3.0615102 9.9562806,1.9832652 10.1560536,0.8604792 C10.1913336,0.6615882 10.1101896,0.3683232 10.4594616,0.3431862 L10.4559336,0.3414222 C10.5436926,0.7727202 10.5414876,1.2040182 10.4576976,1.6353162 C10.4277096,3.4504722 9.7719426,5.0658552 8.7721956,6.5326212 C6.5883636,9.7373682 3.5163576,11.8903302 0.1444716,13.6710882" id="Fill-4" fill="#0656A3" mask="url(#mask-4)"></path>
            </g>
            <path d="M11.3684508,9.7861428 C10.8255798,9.0946548 10.3982508,8.3281968 9.9603378,7.5701178 C9.8897778,7.4488428 9.8333298,7.2984618 9.8328888,7.1617518 C9.8249508,4.7781468 9.8271558,2.3941008 9.8664048,0.0003528 C10.6654968,3.3272568 12.7351098,5.9362128 14.6574288,8.6271948 C15.3731718,9.6287058 16.1519778,10.5861168 16.7671728,11.6577468 C16.5008088,12.0819888 16.2701658,11.6965548 16.1003808,11.5832178 C14.9401098,10.8083808 13.6920798,10.2730068 12.3046938,10.0860228 C11.9717388,10.0410408 11.6436348,10.0017918 11.3684508,9.7861428" id="Fill-7" fill="#0656A3"></path>
            <path d="M9.8675955,27.8925885 L9.8675955,27.3902895 C10.0157715,27.2407905 10.2018735,27.2385855 10.3932675,27.2522565 C14.5329345,27.5477265 18.4269645,24.6865185 19.0545075,20.2968045 C19.7080695,15.7240755 16.8914025,11.9733705 12.7010205,10.9886175 C12.4324515,10.9251135 12.1682925,10.8832185 11.9663145,10.6768305 L11.7039195,10.3033035 C11.8269585,10.1498355 11.9954205,10.1648295 12.1625595,10.1829105 C14.0385735,10.3857705 15.5983905,11.2518945 16.9831305,12.4844895 C17.1992205,12.6763245 17.3623905,12.9303405 17.6455125,13.0427955 C18.6651045,14.6043765 19.4765445,16.2581265 19.8813825,18.0918045 C19.9911915,19.6106085 19.8641835,21.1007475 19.2070935,22.4934255 C18.0626985,24.9180435 16.3260405,26.6692545 13.7166435,27.5697765 C12.5030115,27.9882855 11.3048145,27.9358065 10.0872135,28.0006335 C10.0012185,28.0054845 9.9310995,27.9490365 9.8675955,27.8925885" id="Fill-9" fill="#085EA9"></path>
            <path d="M9.8675955,25.8818049 L9.8675955,25.3786239 C10.1560095,25.1316639 10.5096915,25.1951679 10.8302985,25.2229509 C13.4793855,25.4500659 16.4817135,23.3363529 17.0289945,20.0866239 C17.4214845,17.7568209 16.6492935,15.7555629 14.8032675,14.2230879 C14.4667845,13.9439349 14.1064875,13.6903599 13.7501595,13.4359029 C13.5724365,13.1448429 13.3955955,12.8537829 13.2183135,12.5631639 C13.4882055,12.3316389 13.7342835,12.5049519 13.9697775,12.6226989 C16.0861365,13.6806579 17.4228075,15.3613089 17.8845345,17.6858199 C18.7696215,22.1421249 15.1966395,26.3197179 10.6569855,26.1706599 C10.3601925,26.1609579 10.0651635,26.1569889 9.8675955,25.8818049" id="Fill-11" fill="#0B6DB6"></path>
            <path d="M9.8675955,24.8779125 L9.8675955,24.2472825 C10.0576665,24.0920505 10.2697875,24.1895115 10.4708835,24.2009775 C13.4974665,24.3703215 15.8413815,22.3589205 16.0737885,19.3442445 C16.1871255,17.8739505 15.5930985,16.6135725 14.7565215,15.4488915 C14.5849725,15.0718365 14.4134235,14.6943405 14.2414335,14.3177265 C14.4905985,14.0019705 14.6819925,14.2489305 14.8610385,14.3966655 C17.3725335,16.4653965 17.7707565,20.2359465 15.7575915,22.7800755 C14.4306225,24.4576395 12.6882315,25.2214515 10.5687855,25.1645625 C10.3046265,25.1575065 10.0091565,25.1980785 9.8675955,24.8779125" id="Fill-13" fill="#0C73BA"></path>
            <path d="M9.8675955,26.761644 L9.8675955,26.387676 C10.7764965,26.287569 11.6902485,26.368713 12.6000315,26.138511 C15.9392835,25.292673 18.2734965,22.317246 18.2293965,18.878769 C18.1932345,16.013151 16.2179955,13.219857 13.5018765,12.209085 C13.2236055,12.105891 12.9651795,11.981088 12.7296855,11.804688 C12.5956215,11.712519 12.5206515,11.58066 12.4778745,11.427192 C12.6772065,11.230947 12.8999115,11.309886 13.1234985,11.367657 C16.0191045,12.116916 18.4357845,14.934906 18.8163675,17.890488 C19.1687265,20.624247 18.3003975,22.898043 16.4199735,24.842853 C15.0691905,26.087355 13.4701245,26.801334 11.6545275,26.99802 C11.0569725,27.062847 10.4047335,27.268794 9.8675955,26.761644" id="Fill-15" fill="#0A66B0"></path>
            <path d="M9.8675955,24.8779125 C11.5156125,25.2567315 13.0251555,24.8518935 14.3582985,23.9072715 C16.0671735,22.6958445 16.9028685,20.9680065 16.8742035,18.8741385 C16.8481845,17.0073855 15.9789735,15.5304765 14.5818855,14.3358075 C14.4570825,14.2290855 14.3578575,14.2705395 14.2414335,14.3177265 C14.0778225,14.0235795 13.9137705,13.7298735 13.7501595,13.4361675 C14.4972135,13.6068345 15.0100965,14.1303015 15.5115135,14.6489175 C16.9734285,16.1597835 17.5401135,18.0221265 17.2181835,20.0467575 C16.8874335,22.1256315 15.6786525,23.6761875 13.8158685,24.7292955 C12.5603415,25.4388645 11.2205835,25.3912365 9.8675955,25.3788885 L9.8675955,24.8779125 Z" id="Fill-17" fill="#0C70B8"></path>
            <path d="M14.7564774,15.4489797 C16.1284284,16.7666877 16.4732904,18.3886857 16.1103474,20.1914937 C15.5568924,22.9411287 13.0890564,24.5785617 10.3504464,24.3668817 C10.1872764,24.3536517 10.0280754,24.2883837 9.8675514,24.2473707 C9.8600544,24.0330447 9.8525574,23.8187187 9.8450604,23.6043927 L9.8926884,23.6088027 C10.8306954,23.7530097 11.7497394,23.6970027 12.6348264,23.3309727 C14.7745584,22.4458857 16.1504784,19.9502667 15.2914104,17.6288427 C15.2089434,17.4061377 15.2173224,17.1807867 15.1547004,16.9629327 C15.0224004,16.4579877 14.8892184,15.9539247 14.7564774,15.4489797" id="Fill-19" fill="#0C75BC"></path>
            <path d="M11.9662263,10.6767864 C13.9441113,10.9797534 15.6675393,11.7973674 17.0315523,13.2782454 C18.4506903,14.8186584 19.1809863,16.6276404 19.2885903,18.7497324 C19.4914503,22.7368134 16.6893363,26.2074834 13.1238513,27.1538694 C12.0517803,27.4387554 10.9686843,27.5313654 9.8675073,27.3902454 L9.8675073,27.1388754 C10.1801763,27.0008424 10.5201873,27.0158364 10.8421173,27.0237744 C12.6180243,27.0691974 14.1884253,26.5020714 15.6274083,25.4983554 C15.8703993,25.3294524 16.0600293,25.1080704 16.2778833,24.9149124 C17.2793943,24.1052364 17.9311923,23.0441904 18.3880683,21.8662794 C19.2224403,19.7141994 19.0716183,17.5687344 18.0820143,15.5220534 C17.0178813,13.3214634 15.2481483,11.9089404 12.8649843,11.2994784 C12.6396333,11.2417074 12.4253073,11.1711474 12.2277393,11.0503134 C12.0923523,10.9594674 12.0050343,10.8351054 11.9662263,10.6767864" id="Fill-21" fill="#0B61AC"></path>
            <path d="M15.1548327,16.9627563 C15.8714577,18.1975563 15.8904207,19.4799843 15.3748917,20.7787293 C14.6353347,22.6419543 12.8020977,23.8794003 10.7192547,23.875002 C10.4048217,23.8745493 10.1750607,23.6743353 9.8923797,23.6086263 C10.2076947,23.3259453 10.6098867,23.1940863 10.9688607,22.9868163 C11.6025777,22.8765663 12.2323257,22.7764593 12.8135637,22.4576163 C14.1043707,21.7511343 14.6529747,20.5917453 14.8708287,19.2136203 C15.1358697,18.4846473 15.2174547,17.7327423 15.1548327,16.9627563" id="Fill-23" fill="#1278BE"></path>
            <path d="M9.8675955,27.8925885 C10.6733025,27.6059385 11.5067925,27.9679995 12.3239655,27.7744005 C13.9336155,27.3933765 15.4435995,26.8690275 16.6770765,25.6717125 C17.9083485,24.4770435 18.9354375,23.1840315 19.4086305,21.5069085 C19.6802865,20.5428825 19.7821575,19.5598935 19.7751015,18.5619105 C19.7742195,18.3996225 19.7332065,18.2227815 19.8813825,18.0918045 C20.0780685,18.7003845 20.1861135,19.3221945 20.1614175,19.9638495 C20.0370555,20.4798195 19.9140165,20.9962305 19.7874495,21.5122005 C18.9579285,24.8893785 15.7509765,27.7033995 12.2939775,28.1620395 C11.4803325,28.2700845 10.6759485,28.2370095 9.8675955,28.2700845 L9.8675955,27.8925885 Z" id="Fill-25" fill="#035AA5"></path>
            <path d="M12.227607,11.0501811 C14.002191,11.3266881 15.499827,12.0949101 16.787106,13.3795431 C17.928414,14.5186461 18.538317,15.9139701 18.886707,17.4036681 C19.186587,18.6878601 19.140723,20.0060091 18.701046,21.3237171 C18.220356,22.7631411 17.550477,24.0248421 16.380945,25.0016571 C16.302888,24.9178671 16.307739,24.8340771 16.380945,24.7498461 C17.181801,23.6888001 18.024552,22.6674441 18.392346,21.3334191 C19.195848,18.4219371 18.599175,15.8826591 16.551612,13.6600191 C15.590232,12.6161721 14.438781,11.9224791 13.089762,11.5220511 C12.885579,11.4616341 12.688893,11.4157701 12.477654,11.4267951 C12.34359,11.3350671 12.269061,11.2040901 12.227607,11.0501811" id="Fill-27" fill="#0A63AD"></path>
            <path d="M12.7297737,11.804688 C15.8410287,12.737403 17.7236577,14.761152 18.2762307,17.99721 C18.9372897,21.86919 16.0998957,25.706331 12.2133627,26.382825 C11.4314697,26.518653 10.6500177,26.629344 9.8676837,26.387676 L9.8676837,26.136306 C11.2087647,26.188344 12.5277957,26.092206 13.7661237,25.511409 C16.0853427,24.42258 17.4484737,22.626828 17.9035857,20.086668 C18.4918797,16.802982 16.3212777,13.440798 13.4155287,12.416355 C13.2563277,12.360348 13.1244687,12.253626 12.9718827,12.185271 C12.8417877,12.089574 12.7738737,11.955069 12.7297737,11.804688" id="Fill-29" fill="#0969B2"></path>
            <path d="M12.9717945,12.1854033 C13.8145455,12.2780133 14.5139715,12.7229823 15.1476885,13.2129333 C17.1908415,14.7956823 18.3034845,16.9005753 18.1178235,19.5015933 C17.8752735,22.8889143 15.4705005,25.5318273 12.1493295,26.1368793 C11.3863995,26.2753533 10.6283205,26.3675223 9.8675955,26.1364383 L9.8675955,25.8819813 C11.7722745,26.2881423 13.4780625,25.7241033 14.9964255,24.6502683 C16.9487325,23.2690563 17.9136405,21.2647113 17.8620435,18.9066843 C17.7985395,16.0159293 16.1738955,13.7655063 13.6421145,12.6400743 C13.5142245,12.5831853 13.3603155,12.5871543 13.2183135,12.5628993 C13.1362875,12.4367733 13.0542615,12.3110883 12.9717945,12.1854033" id="Fill-31" fill="#076AB3"></path>
            <path d="M14.8710492,19.2133998 C15.0822882,20.3652918 14.4534222,21.2305338 13.7597292,21.9749418 C13.2036282,22.5720558 12.4093872,22.9133898 11.5714872,23.0774418 C11.3412852,23.1224238 11.1732642,22.9830678 10.9686402,22.9870368 C11.7941922,22.3903638 12.6589932,21.8483748 13.4038422,21.1418928 C13.9991922,20.5774128 14.4595962,19.9159128 14.8710492,19.2133998" id="Fill-33" fill="#157ABF"></path>
            <path d="M17.6453802,13.0428396 C17.3838672,13.3219926 17.2696482,13.0097646 17.1664542,12.8893716 C16.3073862,11.8860966 15.1427052,11.3295546 14.0022792,10.7619876 C13.2993252,10.4118336 12.4821522,10.4016906 11.7037872,10.3033476 C11.5917732,10.1309166 11.4806412,9.9584856 11.3686272,9.7860546 C13.1141052,9.9426096 14.7440412,10.4277096 16.1927262,11.4517116 C16.3550142,11.5663716 16.4890782,11.8371456 16.7673492,11.6576586 C17.1241182,12.0783726 17.4112092,12.5440686 17.6453802,13.0428396" id="Fill-35" fill="#065AA5"></path>
            <g id="Group-39" transform="translate(19.845000, 19.620707)">
                <mask id="mask-6" fill="white">
                    <use xlink:href="#path-5"></use>
                </mask>
                <g id="Clip-38"></g>
                <path d="M0.3146094,1.6353162 C0.3141684,1.2040182 0.3137274,0.7727202 0.3128454,0.3414222 C0.4169214,0.7727202 0.4103064,1.2040182 0.3146094,1.6353162" id="Fill-37" fill="#035AA5" mask="url(#mask-6)"></path>
            </g>
            <path d="M16.380945,24.7500225 L16.380945,25.0013925 C15.268743,26.0408295 14.007924,26.7596595 12.477213,27.0286695 C11.600946,27.1830195 10.741878,27.2028645 9.867375,27.1389195 L9.867375,26.7618645 C11.705904,27.1221615 13.361859,26.5929615 14.962248,25.7427135 C15.479541,25.4679705 15.822198,24.9568515 16.380945,24.7500225" id="Fill-40" fill="#0A63AD"></path>
        </g>
    </g>
</svg>