<?xml version="1.0" encoding="UTF-8"?>
<svg width="42px" height="42px" viewBox="0 0 42 42" version="1.1" xmlns="http://www.w3.org/2000/svg" xmlns:xlink="http://www.w3.org/1999/xlink">
    <title>[00311] Nuevo Banco del Chaco</title>
    <defs>
        <polygon id="path-1" points="0 0.163130924 29.506695 0.163130924 29.506695 31.8621163 0 31.8621163"></polygon>
    </defs>
    <g id="[00311]-Nuevo-Banco-del-Chaco" stroke="none" stroke-width="1" fill="none" fill-rule="evenodd">
        <g id="Group-16" transform="translate(6.000000, 5.000000)">
            <g id="Group-3" transform="translate(0.000000, 0.104958)">
                <mask id="mask-2" fill="white">
                    <use xlink:href="#path-1"></use>
                </mask>
                <g id="Clip-2"></g>
                <path d="M29.4803995,22.8718476 L29.4803995,18.9104863 C29.4771865,17.9420346 29.4742413,16.9733151 29.465941,16.0048633 C29.46487,15.8723271 29.4696895,15.7574623 29.4803995,15.6543786 L29.4803995,13.5335308 C29.467012,13.4192016 29.4624603,13.2890751 29.4640668,13.1380641 C29.4737058,12.4057678 29.4766511,11.6737393 29.4803995,10.9414431 L29.4803995,8.2987506 L29.4870933,8.2987506 C29.4870933,5.93853435 29.4803995,3.5777826 29.5063713,1.2178341 C29.5152071,0.40842585 29.3473278,0.1596861 28.487047,0.163130924 C19.3372263,0.1977066 10.1871378,0.1971711 1.0375848,0.163130924 C0.1904238,0.1602216 0.0190638,0.3856671 0.01129905,1.20471435 C-0.0767907,10.7082328 0.37758105,20.2071996 0.23353155,29.7104503 C0.2273733,30.1110043 0.2739618,30.5171811 0.2236248,30.9113091 C0.1325898,31.6267371 0.3355443,31.8650346 1.1227293,31.8621163 C10.27255,31.8296916 19.4226385,31.8318336 28.5721915,31.8594118 C29.3184108,31.8615538 29.5111908,31.6845711 29.5058358,30.9305871 C29.4857545,28.2442513 29.487361,25.5579156 29.4868255,22.8718476 L29.4803995,22.8718476 Z" id="Fill-1" fill="#FDFEFE" mask="url(#mask-2)"></path>
            </g>
            <path d="M10.2560031,15.1111138 C8.6639616,15.6937378 7.10324685,16.3055466 5.6988981,17.2814953 C1.7774316,20.0079936 1.76056335,24.5688471 5.68899135,27.3090006 C8.2012896,29.0611566 11.0678211,29.7377608 14.0674243,29.9297376 C16.8838866,30.1099333 19.6687544,29.8392381 22.3907009,29.0876638 C23.2825761,28.8413338 24.0218339,28.9489693 24.7059351,29.5642588 C24.8920214,29.7321381 25.0869434,30.0175596 25.3860201,29.8563741 C25.6261919,29.7273186 25.5182886,29.4365421 25.5198951,29.2175226 C25.5289986,27.9151866 25.5322116,26.6128506 25.5174854,25.3107823 C25.5148079,25.0700751 25.6596606,24.7394038 25.3206891,24.6106161 C24.9696689,24.4775443 24.7763534,24.7626981 24.5723279,24.9793078 C23.8386929,25.7576571 23.0806926,26.5092313 22.2024726,27.1274661 C19.1685973,29.2627723 15.8567976,30.0510283 12.2622539,28.9444176 C8.89717185,27.9082251 7.1956206,24.8727433 7.6700736,21.0358858 C8.08106985,17.7115018 10.4544058,15.5761956 13.9568436,15.3033583 C18.1942551,14.9732226 21.7970991,16.1548033 24.4882543,19.5900358 C24.6992413,19.8588568 24.9359323,19.9892511 25.2564291,19.9033033 C25.6457376,19.7999518 25.4647386,19.4617836 25.4684871,19.2341961 C25.4888361,18.0660028 25.4976718,16.8964708 25.4684871,15.7285453 C25.4569739,15.2578408 25.5945973,15.1199496 26.0800281,15.0971908 C28.8951516,14.9646546 28.8943484,14.9499283 28.8943484,17.7230151 C28.8943484,21.9639073 28.8734639,26.2050673 28.9140875,30.4454241 C28.9211234,31.1991403 28.7278079,31.3747843 27.9821241,31.3723746 C19.2325896,31.3442608 10.4833228,31.3437253 1.73378835,31.3729326 C0.9795366,31.3753198 0.8006796,31.1852173 0.80630235,30.4403368 C0.84271635,25.6320823 0.84432285,20.8230246 0.804830272,16.0150378 C0.79880535,15.2522181 1.00443735,15.0805903 1.7426241,15.0926391 C4.5797031,15.1386921 7.4178531,15.1111138 10.2560031,15.1111138" id="Fill-4" fill="#1C468E"></path>
            <path d="M22.7001128,8.00371688 C23.2452518,7.70249812 23.6691,7.50489863 24.05466,7.24919738 C25.5302303,6.26976788 25.497297,4.00192537 24.0179783,3.02356687 C23.234274,2.50520287 22.3386503,2.33116538 21.4513268,2.30626463 C19.0158728,2.23691738 16.5777413,2.25940838 14.140413,2.25030487 C14.0209965,2.24976938 13.8691823,2.22808163 13.7904638,2.49958012 C15.5918858,2.82650288 15.4400715,4.23486787 15.439536,5.56692412 C15.438465,7.22322562 15.4392683,8.87925937 15.2331008,10.6394479 C14.1173865,9.34139587 12.997656,8.04736012 11.887029,6.74502412 C10.7191035,5.37494738 9.56322675,3.99416063 8.3928915,2.62569038 C8.26945875,2.48110537 8.08738875,2.28939637 7.92941625,2.28618337 C6.52747725,2.25994388 5.124735,2.27092162 3.632832,2.40934837 C5.512437,2.54375888 5.186853,3.88036687 5.1970275,4.98938738 C5.2163055,7.12603237 5.17908825,9.26294512 5.20961175,11.3993224 C5.236119,13.2853534 4.55737275,14.3595664 2.2474935,14.3172619 C0.63215775,14.2875416 0.63162225,14.3119069 0.63162225,12.6601571 C0.63162225,9.05436788 0.649026,5.44857862 0.616690395,1.84305712 C0.61073775,1.13700037 0.73899,0.860146875 1.534743,0.862805156 C10.3493408,0.892544625 19.1639385,0.887457375 27.9785363,0.869250375 C28.6315785,0.868179375 28.9183388,0.980902125 28.9115009,1.72899562 C28.8749633,5.63493263 28.8835313,9.54140512 28.9057545,13.4476099 C28.9089675,14.0610251 28.795977,14.3493919 28.0936688,14.3266331 C26.5632098,14.2770994 25.0298055,14.3113714 23.4573098,14.2591601 C25.0177568,13.8184436 25.8665243,12.7768961 25.8129743,11.2140394 C25.7492498,9.35772863 24.4126418,8.53627163 22.7001128,8.00371688" id="Fill-6" fill="#9A9B9E"></path>
            <path d="M6.05385427,3.75291787 C8.98250378,7.19859262 11.9111533,10.6439996 14.8323058,14.0811064 C14.637116,14.4412301 14.336165,14.3025356 14.0981353,14.3041421 C12.2311145,14.3169941 10.3622195,14.3641181 8.49734077,14.2977161 C6.29241952,14.2189976 5.78155253,13.4427904 5.81180828,11.6992024 C5.85679027,9.07766212 5.82358928,6.45478312 5.82358928,3.83270737 C5.90016577,3.80593237 5.97701003,3.77969287 6.05385427,3.75291787" id="Fill-8" fill="#9A9B9E"></path>
            <path d="M19.073198,10.7091968 C19.073198,10.2443827 19.0729303,9.77903325 19.073198,9.3139515 C19.0745368,8.05097475 19.1580748,7.9794855 20.4411328,8.1396 C22.7930488,8.43332175 23.9218828,10.2317985 23.1820895,12.5044605 C22.7828743,13.73022 20.5032508,14.5230278 19.4839265,13.7808247 C19.1623588,13.5462757 19.089263,13.1738355 19.082837,12.8019308 C19.0707883,12.1047098 19.0790885,11.4066855 19.0790885,10.7091968 L19.073198,10.7091968 Z" id="Fill-10" fill="#9B9C9E"></path>
            <path d="M19.9872965,7.6818546 C19.269191,7.8430401 19.005725,7.52200785 19.057133,6.7200966 C19.1229995,5.6956851 19.103186,4.66243785 19.0643623,3.6350811 C19.0354453,2.87600985 19.3760233,2.6652906 20.083151,2.67519735 C22.338677,2.70625635 23.4305615,4.2760746 22.5751003,6.3029421 C22.1003795,7.4269566 21.1731613,7.7166621 19.9872965,7.6818546" id="Fill-12" fill="#9B9C9E"></path>
            <path d="M24.5795839,15.1500715 C23.1969229,16.2435625 22.0415816,15.3757847 20.8741916,15.1500715 L24.5795839,15.1500715 Z" id="Fill-14" fill="#1D4990"></path>
        </g>
    </g>
</svg>