<?xml version="1.0" encoding="UTF-8"?>
<svg width="42px" height="42px" viewBox="0 0 42 42" version="1.1" xmlns="http://www.w3.org/2000/svg" xmlns:xlink="http://www.w3.org/1999/xlink">
    <title>[00315] Banco de Formosa</title>
    <defs>
        <polygon id="path-1" points="0 0.341469481 11.791353 0.341469481 11.791353 11.1252267 0 11.1252267"></polygon>
        <polygon id="path-3" points="0.352002 0.338838138 5.16222 0.338838138 5.16222 9.5810589 0.352002 9.5810589"></polygon>
    </defs>
    <g id="[00315]-Banco-de-Formosa" stroke="none" stroke-width="1" fill="none" fill-rule="evenodd">
        <g id="Group-23" transform="translate(11.000000, 5.000000)">
            <g id="Group-3" transform="translate(0.000000, 5.593655)">
                <mask id="mask-2" fill="white">
                    <use xlink:href="#path-1"></use>
                </mask>
                <g id="Clip-2"></g>
                <path d="M9.884616,11.1252267 C9.705759,10.8199917 9.526902,10.5143997 9.347688,10.2088077 C8.508024,8.5030617 7.192479,7.2714117 5.536356,6.3781977 C4.104072,5.5064037 2.539341,5.0137437 0.877863,4.9002177 C0.167433,4.8513087 -0.019635,4.5532137 0.001428,3.9159687 C0.031059,3.0420327 0.003927,2.1666687 0.011424,1.2920187 C0.018921,0.4155837 0.138516,0.2884917 1.032444,0.3573927 C4.389672,0.6162177 7.378833,1.7986017 9.965655,3.9702327 C10.155579,4.1294547 10.353357,4.2790377 10.548279,4.4332617 C10.956687,4.8852237 11.457558,5.1961707 11.791353,5.6884737 C11.724951,7.6516167 11.037369,9.5308647 9.884616,11.1252267" id="Fill-1" fill="#213E71" mask="url(#mask-2)"></path>
            </g>
            <path d="M14.8951824,17.2871538 C16.1939484,22.5825348 15.1265184,27.3320628 11.6025714,31.5089628 C11.0427954,32.1726258 10.8475164,32.1704838 10.2227664,31.5532308 C9.5819514,30.9199128 8.9643414,30.2630328 8.3053194,29.6493498 C7.8683514,29.2427268 7.8437184,28.9157148 8.2460574,28.4491158 C9.7008324,26.7605058 10.6001154,24.8159268 10.8061044,22.5761088 C10.8418044,22.5032808 10.8778614,22.4304528 10.9142754,22.3572678 C12.6400134,20.9949558 13.9095054,19.2817128 14.8134294,17.2867968 L14.8544844,17.2957218 L14.8951824,17.2871538 Z" id="Fill-4" fill="#213E71"></path>
            <path d="M10.9141326,22.3573392 C10.8777186,22.4305242 10.8420186,22.5033522 10.8059616,22.5761802 C9.0559476,23.8756602 7.2113286,24.9909282 5.0753976,25.5482052 C3.9619146,25.8384462 3.8958696,25.7952492 3.6691746,24.6339282 C3.5028126,23.7796272 3.3232416,22.9285392 3.1376016,22.0781652 C3.0337146,21.6040692 3.1850826,21.3159702 3.6684606,21.1860222 C6.2467146,20.4905862 8.2926816,18.8362482 9.8845446,16.7188812 C10.1330166,16.9805622 10.1979906,17.4782202 10.3122306,17.8066602 C10.8259536,19.2835692 10.9669686,20.8068882 10.9141326,22.3573392" id="Fill-6" fill="#81BD42"></path>
            <path d="M5.5364631,11.9718879 C7.1925861,12.8651019 8.5077741,14.0967519 9.3477951,15.8021409 C6.8652171,16.7349819 4.3112391,16.9763139 1.6905021,16.6057479 C1.2467511,16.5432729 1.0543281,16.3001559 1.1235861,15.8946039 C1.3156521,14.7646989 1.5319941,13.6387209 1.7561901,12.5145279 C1.8393711,12.0989799 2.1774501,12.0679209 2.5212411,12.0964809 C3.3898221,12.1693089 4.2569751,12.3192489 5.1287691,12.1161159 C5.2722831,12.0832719 5.4311481,12.1079049 5.5364631,11.9718879" id="Fill-8" fill="#14B1E0"></path>
            <path d="M11.6762562,8.9450634 C11.2453572,6.8537574 10.3942692,4.9673694 8.9659122,3.3590844 C8.6642472,3.0192204 8.8099032,2.7146994 9.0833652,2.4390954 C9.7877262,1.7308074 10.4974422,1.0275174 11.1960912,0.3138744 C11.6541222,-0.1541526 12.0293292,-0.0756126 12.4473762,0.3959844 C13.2963222,1.3523874 13.9649832,2.4294564 14.6318592,3.5104524 C14.6464962,3.6014874 14.6607762,3.6925224 14.6750562,3.7832004 C14.5526052,4.1362734 14.4451482,4.4954154 14.3044902,4.8413484 C13.6840242,6.3718074 12.9893022,7.8572844 11.6762562,8.9450634" id="Fill-10" fill="#81BD42"></path>
            <path d="M10.9141326,22.3573392 C10.9669686,20.8068882 10.8259536,19.2835692 10.3122306,17.8066602 C10.1979906,17.4782202 10.1315886,17.1851232 9.9455916,16.8499002 C9.9023946,16.7695752 9.9023946,16.7695752 9.8845446,16.7188812 C10.9676826,15.0809652 11.7152406,13.3712922 11.7816426,11.4081492 C11.7912816,11.2960512 11.7862836,11.3199702 11.7912816,11.2821282 L13.4259846,13.6226202 C13.5395106,13.8703782 13.6512516,14.1188502 13.7658486,14.3655372 C14.2042446,15.3076602 14.6936916,16.2308622 14.8132866,17.2868682 C13.9097196,19.2817842 12.6398706,20.9950272 10.9141326,22.3573392" id="Fill-12" fill="#487638"></path>
            <g id="Group-16" transform="translate(14.280000, 0.952654)">
                <mask id="mask-4" fill="white">
                    <use xlink:href="#path-3"></use>
                </mask>
                <g id="Clip-15"></g>
                <path d="M0.395199,2.8305459 C0.380919,2.7398679 0.366639,2.6488329 0.352002,2.5577979 C0.416262,2.0644239 0.504441,1.5731919 0.537642,1.0780329 C0.5712,0.5868009 0.807177,0.3436839 1.288413,0.3415419 C2.335851,0.3372579 3.383289,0.3386859 4.430727,0.3415419 C4.971582,0.3433269 5.197563,0.6428499 5.157936,1.1572869 C4.917675,4.2528339 4.00911,7.1056209 2.072742,9.5810589 C1.982421,7.2148629 1.549737,4.9332759 0.395199,2.8305459" id="Fill-14" fill="#14B1E0" mask="url(#mask-4)"></path>
            </g>
            <path d="M14.675199,3.7832004 C15.829737,5.8859304 16.262421,8.1675174 16.352742,10.5337134 C16.333821,10.6033284 16.314543,10.6729434 16.295265,10.7429154 C15.423828,11.7874974 14.417088,12.6974904 13.426056,13.6228344 C12.881274,12.8424324 12.336135,12.0620304 11.791353,11.2823424 C11.790282,10.5537054 11.800635,9.8236404 11.621064,9.1085694 C11.639271,9.0543054 11.657835,8.9993274 11.676399,8.9450634 C12.989088,7.8572844 13.684167,6.3718074 14.304633,4.8413484 C14.444934,4.4954154 14.552391,4.1362734 14.675199,3.7832004" id="Fill-17" fill="#4D9D46"></path>
            <path d="M13.4260203,13.6226916 C14.4170523,12.6973476 15.4237923,11.7873546 16.2952293,10.7431296 C16.3969743,12.7348326 15.9175233,14.6165796 15.2153043,16.4565576 C15.1096323,16.7335896 15.0018183,17.0099076 14.8950753,17.2872966 L14.8543773,17.2958646 L14.8133223,17.2869396 C14.6937273,16.2309336 14.2042803,15.3077316 13.7658843,14.3656086 C13.6512873,14.1189216 13.5391893,13.8700926 13.4260203,13.6226916" id="Fill-19" fill="#81BD42"></path>
            <path d="M11.6211711,9.1085694 C11.8007421,9.8236404 11.7903891,10.5537054 11.7914601,11.2823424 C11.7518331,11.3059044 11.8143081,11.2427154 11.7914601,11.2823424 C11.4580221,10.7896824 10.9664331,10.5051534 10.5483861,10.0267734 C10.9053861,9.7208244 11.2631001,9.4145184 11.6211711,9.1085694" id="Fill-21" fill="#14B1E0"></path>
        </g>
    </g>
</svg>