<?xml version="1.0" encoding="UTF-8"?>
<svg width="42px" height="42px" viewBox="0 0 42 42" version="1.1" xmlns="http://www.w3.org/2000/svg" xmlns:xlink="http://www.w3.org/1999/xlink">
    <title>[00312] Banco Voii</title>
    <defs>
        <linearGradient x1="15.6665536%" y1="84.8678657%" x2="84.1475723%" y2="14.9700592%" id="linearGradient-1">
            <stop stop-color="#FEC931" offset="0%"></stop>
            <stop stop-color="#F99B1F" offset="100%"></stop>
        </linearGradient>
    </defs>
    <g id="[00312]-Banco-Voii" stroke="none" stroke-width="1" fill="none" fill-rule="evenodd">
        <g id="Asset-8" transform="translate(4.000000, 13.000000)" fill-rule="nonzero">
            <path d="M33.0372,2.28 C32.9429972,2.53469999 32.7638198,2.74910882 32.5299,2.88705 C32.39595,2.907 32.35605,2.79585 32.30475,2.71605 C31.80315,1.97505 31.34715,1.2027 30.86265,0.4503 C30.8028593,0.389526041 30.7819701,0.300472002 30.8085,0.21945 C30.9339,0.0969 31.1277,0.1197 31.25595,0.0057 L31.75755,0.0057 C31.668589,0.140510501 31.6814556,0.318303044 31.7889,0.4389 C32.1423,0.97755 32.48715,1.5219 32.832,2.0634 C32.8834759,2.14993526 32.9535715,2.22392505 33.0372,2.28 L33.0372,2.28 Z" id="Path" fill="#F58120"></path>
            <path d="M33.0372,2.28 C32.9517,2.33415 32.9004,2.32275 32.84055,2.22585 C32.45295,1.60455 32.0568,0.98895 31.6635,0.3705 C31.5666,0.2166 31.48395,0.06555 31.75755,0.0057 L31.8687,0.0057 C32.2695969,0.10380362 32.6265095,0.332388077 32.8833,0.6555 C33.2563945,1.11686975 33.3170171,1.75677547 33.0372,2.28 L33.0372,2.28 Z" id="Path" fill="#F57E21"></path>
            <path d="M28.2492,2.22015 C28.1904006,2.41592811 28.0730345,2.58899338 27.9129,2.71605 C27.7362,2.793 27.68205,2.64765 27.6279,2.54505 C27.303,2.0121 26.95245,1.49055 26.63325,0.9519 C26.5392,0.7923 26.42235,0.6498 26.3283,0.49305 C26.2599,0.3819 26.1516,0.26505 26.25705,0.11685 L26.41665,0 L26.9154,0 C27.1627422,0.471921776 27.4348207,0.9304596 27.7305,1.3737 C27.89295,1.66155 28.0668,1.9437 28.2492,2.22015 Z" id="Path" fill="#F7941F"></path>
            <path d="M28.2492,2.22015 C28.0782,2.1717 28.0269,2.0064 27.9642,1.881 C27.645,1.3281 27.30015,0.77805 26.93535,0.25365 C26.8697267,0.184379301 26.8614132,0.0786782365 26.9154,5.06261699e-16 L27.02655,5.06261699e-16 C27.4522166,0.0914446471 27.8306502,0.333277904 28.09245,0.68115 C28.4314515,1.12326156 28.4921052,1.71877017 28.2492,2.22015 Z" id="Path" fill="#F7911F"></path>
            <path d="M9.3708,9.0915 L10.3398,7.00815 C10.67325,6.28995 11.0124,5.58315 11.34015,4.845 C11.4226192,4.60659321 11.6595023,4.45735688 11.91015,4.4859 C12.48015,4.4859 13.07865,4.4859 13.6629,4.4859 C14.1645,4.4859 14.2785,4.67685 14.05905,5.12715 C12.88105,7.53065 11.7097,9.93035 10.545,12.32625 C10.317,12.77655 10.0947,13.2278 9.8781,13.68 C9.79143697,13.8781853 9.59565508,14.0062552 9.37935,14.0062552 C9.16304492,14.0062552 8.96726303,13.8781853 8.8806,13.68 C7.4974,10.83 6.1142,7.98 4.731,5.13 C4.5315,4.71675 4.6626,4.5087 5.1129,4.50585 C5.7228,4.50585 6.33555,4.50585 6.9483,4.50585 C7.20363098,4.48309054 7.44054018,4.64063516 7.5183,4.8849 C8.0883,6.22725 8.6811,7.56105 9.2682,8.90055 C9.291,8.9262 9.31665,8.9775 9.3708,9.0915 Z" id="Path" fill="#FEC931"></path>
            <path d="M32.98875,4.8165 C33.0328803,4.89841597 33.046994,4.99317935 33.02865,5.0844 C33.02865,7.7748 33.02865,10.46425 33.02865,13.15275 C33.0579757,13.3481017 32.9712355,13.5427111 32.80635,13.6515 C32.5755,13.61445 32.52135,13.395 32.43585,13.24395 C31.7946,12.1809 31.09065,11.1549 30.46935,10.0776 C30.3924,9.94365 30.24135,9.8553 30.22425,9.6843 C30.22425,9.20265 30.22425,8.71815 30.22425,8.2365 C30.24705,8.0655 30.3411,8.1567 30.3924,8.2023 C30.5077035,8.30876243 30.6040755,8.43404606 30.6774,8.5728 C30.9909,9.11715 31.33575,9.6387 31.67775,10.1631 C32.08815,10.7844 32.43015,11.44845 32.9004,12.0897 C32.9175,11.65935 32.9004,11.26035 32.9004,10.8642 C32.9004,10.5336 32.9004,10.203 32.9004,9.8724 C32.9004,9.5418 32.9004,9.2454 32.9004,8.9319 C32.9004,8.5272 32.9004,8.11965 32.9004,7.71495 C32.9004,7.31025 32.9004,6.897 32.9004,6.4866 C32.9004,6.0762 32.9004,5.61165 32.9004,5.17275 C32.89755,5.04735 32.88045,4.9134 32.98875,4.8165 Z" id="Path" fill="#F99B1F"></path>
            <path d="M28.1922,9.32235 L28.1922,10.7673 C28.05825,10.83855 28.0098,10.73025 27.9585,10.65045 C27.4113,9.79545 26.88405,8.9091 26.3397,8.0427 C26.03475,7.56105 25.7184,7.0851 25.41345,6.6177 L25.41345,5.10435 C25.5702,5.0844 25.60725,5.2098 25.66995,5.3067 C26.01765,5.8368 26.33115,6.3897 26.7045,6.90555 C26.92395,7.20765 27.0807,7.55535 27.29445,7.86885 C27.6190661,8.33721644 27.918733,8.82239142 28.1922,9.32235 Z" id="Path" fill="#FAA61F"></path>
            <path d="M28.1922,9.32235 C28.0656919,9.22074468 27.96753,9.08822612 27.9072,8.9376 C27.6222,8.4474 27.2631,7.99995 26.99235,7.5126 C26.7216,7.02525 26.42235,6.6291 26.13735,6.1731 C25.9453902,5.79113726 25.7059993,5.43492361 25.42485,5.1129 C25.39065,4.6113 25.5474,4.4688 26.0946,4.50585 C26.2051196,4.5757829 26.2947193,4.67424416 26.35395,4.79085 C26.8698,5.64585 27.4113,6.4809 27.9528,7.3188 C28.04685,7.46415 28.11525,7.62945 28.2036,7.7805 L28.1922,9.32235 Z" id="Path" fill="#FAA21E"></path>
            <path d="M25.41345,6.60345 C25.5512291,6.69722053 25.6614338,6.82612073 25.73265,6.9768 C26.16585,7.64655 26.58765,8.3277 27.0066,9.006 C27.3505,9.5589 27.69345,10.1137 28.03545,10.6704 C28.0663421,10.7286605 28.1262752,10.7657101 28.1922,10.7673 L28.1922,12.04125 C27.987,12.04125 27.9072,11.88165 27.83025,11.75625 C27.53575,11.28885 27.2441,10.81955 26.9553,10.34835 C26.6532,9.85245 26.32545,9.37365 26.0376,8.8692 C25.8381,8.51865 25.5816,8.2023 25.41345,7.83465 L25.41345,6.60345 Z" id="Path" fill="#FBAA20"></path>
            <path d="M25.41345,7.8261 C25.6209962,8.01851531 25.7885449,8.24998425 25.9065,8.50725 C26.2371,9.02025 26.56105,9.538 26.87835,10.0605 C27.18045,10.5621 27.5196,11.0409 27.79035,11.56245 C27.8791761,11.7550485 28.0179256,11.920367 28.1922,12.04125 L28.1922,13.31805 C28.05825,13.39215 28.0326,13.2696 27.98985,13.2012 C27.5595,12.50295 27.075,11.83035 26.67315,11.115 C26.35965,10.58205 26.0091,10.0719 25.6842,9.54465 C25.593,9.39645 25.4961,9.25965 25.3992,9.09435 L25.41345,7.8261 Z" id="Path" fill="#FBAD21"></path>
            <path d="M30.25845,9.76695 C30.5121,9.84675 30.54345,10.10325 30.6717,10.2885 C31.06785,10.9155 31.4469,11.5539 31.8573,12.17235 C32.1423,12.61695 32.4273,13.07865 32.7123,13.5318 C32.7452886,13.5744085 32.7814946,13.6144257 32.8206,13.6515 C32.8206,13.7142 32.775,13.7085 32.73225,13.7142 C32.4755251,13.7379339 32.2175078,13.7445986 31.9599,13.73415 C31.86585,13.73415 31.81455,13.68 31.7661,13.6059 C31.2531,12.8307 30.8028,12.01845 30.2784,11.25465 C30.2512623,11.2164198 30.2372613,11.1704165 30.2385,11.12355 C30.220902,10.6713184 30.2275616,10.2184686 30.25845,9.76695 L30.25845,9.76695 Z" id="Path" fill="#F99E1F"></path>
            <path d="M32.97735,7.7121 L32.97735,8.93475 C32.832,9.00315 32.8092,8.87205 32.7579,8.79795 C32.319,8.15955 31.9485,7.4784 31.51815,6.83715 C31.122,6.2472 30.78285,5.6259 30.37815,5.0445 C30.2784428,4.94450698 30.2532532,4.79222414 30.31545,4.66545 C30.45225,4.446 30.66315,4.4802 30.88545,4.4973 C31.0763551,4.61200868 31.2267761,4.78334914 31.3158,4.9875 C31.83165,5.9109 32.41875,6.8058 32.97735,7.7121 Z" id="Path" fill="#F78F1F"></path>
            <path d="M25.41345,9.10005 C25.6432407,9.31270366 25.829142,9.568318 25.96065,9.85245 C26.1801,10.25715 26.4822,10.6077 26.69025,11.01525 C26.94675,11.5254 27.2973,11.9757 27.59085,12.4602 C27.7474059,12.7736743 27.9501126,13.0618829 28.1922,13.3152 C28.2149876,13.5001315 28.0902771,13.6709848 27.9072,13.70565 C27.8274,13.7541 27.73905,13.72275 27.6564,13.7313 C27.4053701,13.4747468 27.1974861,13.1792819 27.0408,12.85635 C26.6874,12.2721 26.30835,11.685 25.9521,11.115 C25.7811,10.83 25.6101,10.545 25.41345,10.27995 L25.41345,9.10005 Z" id="Path" fill="#FCB022"></path>
            <path d="M30.3126,4.66545 C30.3126,5.02455 30.5976,5.23545 30.7743,5.52045 C31.1106,6.1104 31.4982,6.66045 31.86015,7.2447 C32.2221,7.82895 32.53845,8.3391 32.8833,8.88345 C32.89755,8.9091 32.946,8.9148 32.97735,8.9319 L32.97735,9.87525 C32.8092,9.9465 32.77215,9.80115 32.7123,9.7128 C32.28195,9.07725 31.92285,8.4018 31.4925,7.7691 C31.06215,7.1364 30.7173,6.4524 30.2499,5.8425 C30.234706,5.81868118 30.2267829,5.79095056 30.2271,5.7627 C30.2271,5.57745 30.2271,5.3922 30.2271,5.1927 C30.2146872,5.04699186 30.222359,4.90026905 30.2499,4.75665 C30.2512066,4.71661741 30.27569,4.6810052 30.3126,4.66545 Z" id="Path" fill="#F7921F"></path>
            <path d="M30.8085,0.21375 C31.3785,1.10865 31.8915,2.03205 32.5185,2.88135 C32.3099368,3.06528574 32.0413343,3.1666452 31.76325,3.16635 C31.6407,3.21765 31.57515,3.14355 31.521,3.0495 C31.0935,2.3142 30.62895,1.6017 30.17865,0.88065 C30.3023034,0.590319656 30.5257034,0.353778456 30.8085,0.21375 Z" id="Path" fill="#F68520"></path>
            <path d="M28.1922,7.7691 C27.93,7.6152 27.85875,7.31595 27.71055,7.0851 C27.3201,6.4695 26.92395,5.85675 26.53065,5.244 C26.3739,4.9989 26.24565,4.7481 26.0832,4.4973 L26.9724,4.4973 C27.3942,5.1357 27.7818,5.79405 28.1922,6.43815 L28.1922,7.7691 Z" id="Path" fill="#F99F1E"></path>
            <path d="M26.2485,0.11685 C26.2453964,0.228807058 26.2828449,0.33811627 26.35395,0.42465 C26.8299,1.1286 27.27165,1.84965 27.7134,2.58495 C27.7508816,2.66188 27.8274128,2.71217192 27.9129,2.71605 C27.7427752,2.91751022 27.5099319,3.05601188 27.2517,3.10935 C27.18045,3.13785 27.1548,3.08085 27.1263,3.03525 C26.6532,2.28285 26.13165,1.5561 25.7013,0.77805 C25.6557,0.6954 25.5702,0.6156 25.64145,0.49305 C25.7908027,0.297431524 26.0068539,0.163540641 26.2485,0.11685 Z" id="Path" fill="#F8971F"></path>
            <path d="M32.97735,7.7121 C32.89185,7.7121 32.8491,7.65795 32.8092,7.58955 C32.2905,6.69465 31.6977,5.84535 31.1961,4.93905 C31.097759,4.78401117 30.9882172,4.63636781 30.86835,4.4973 L31.75755,4.4973 C32.13375,5.1813 32.5584,5.83395 32.97735,6.4923 L32.97735,7.7121 Z" id="Path" fill="#F78C1F"></path>
            <path d="M25.65,0.50445 C25.8410014,0.901334867 26.0630414,1.28251936 26.31405,1.64445 C26.63325,2.1318 26.94675,2.62485 27.2631,3.11505 C26.9594612,3.24187567 26.6176888,3.24187567 26.31405,3.11505 C25.9578,2.5878 25.65,2.04345 25.3023,1.5162 C25.251,1.43925 25.194,1.3623 25.24245,1.26255 C25.2779969,0.96754763 25.4235394,0.696818332 25.65,0.50445 L25.65,0.50445 Z" id="Path" fill="#F89A1F"></path>
            <path d="M2.88135,11.20905 C3.09361472,11.3701384 3.23306967,11.6090576 3.26895,11.8731 C3.18552828,11.948393 3.07106672,11.979128 2.96115,11.95575 C2.33415,11.92155 1.70715,11.9928 1.08015,11.93865 C0.90345,11.92155 0.73245,11.98425 0.55575,11.97855 C0.390572547,11.9997697 0.22318029,11.9624594 0.08265,11.8731 C0.125906282,11.6067501 0.262240003,11.3643791 0.4674,11.1891 C1.2255,11.1663 1.98645,11.1891 2.7474,11.1891 C2.79300438,11.1848908 2.8389515,11.191734 2.88135,11.20905 Z" id="Path" fill="#6A2F92"></path>
            <path d="M25.41345,10.26 C25.7925,10.4766 25.89225,10.90125 26.1117,11.23185 C26.6133,11.9757 27.0807,12.7395 27.5595,13.51185 C27.5936548,13.5770666 27.6204206,13.645893 27.6393,13.71705 C27.457571,13.7469581 27.2729736,13.7555663 27.08925,13.7427 C26.8888897,13.5457569 26.7231672,13.3164432 26.59905,13.0644 C26.20765,12.4279 25.81245,11.79425 25.41345,11.16345 L25.41345,10.26 Z" id="Path" fill="#FCB222"></path>
            <path d="M30.19005,0.8835 C30.28125,0.8835 30.3183,0.9519 30.35535,1.0146 C30.7686,1.68435 31.1847,2.35695 31.5894,3.0324 C31.6228381,3.10737074 31.6931594,3.15930035 31.77465,3.1692 C30.8484,3.36585 29.8965,2.45955 30.0048,1.47915 C30.0057702,1.26656927 30.0702834,1.0591345 30.19005,0.8835 L30.19005,0.8835 Z" id="Path" fill="#F68A20"></path>
            <path d="M0.13965,6.89415 C0.0493242992,6.74017102 0.0094606583,6.56178123 0.02565,6.384 C0.0930250699,6.31727686 0.189172754,6.28843255 0.28215,6.30705 C1.16565,6.34695 2.04915,6.27855 2.93265,6.30705 C3.0666,6.30705 3.21765,6.27855 3.32595,6.3897 C3.34213934,6.56748123 3.3022757,6.74587102 3.21195,6.89985 C3.16780943,6.86711408 3.11225272,6.85373931 3.05805,6.8628 C2.6137627,6.91729669 2.16561347,6.93350634 1.71855,6.91125 C1.3167,6.8799 0.912,6.9654 0.51585,6.8571 C0.391391531,6.81119933 0.252763159,6.82485213 0.13965,6.89415 Z" id="Path" fill="#90288A"></path>
            <path d="M32.97735,6.48945 C32.69235,6.34125 32.61255,6.03345 32.45295,5.79405 C32.2335,5.4663 32.0397,5.1186 31.8231,4.788 C31.7716999,4.7023066 31.7487533,4.60253865 31.75755,4.503 C32.04255,4.503 32.3076,4.503 32.58405,4.503 C32.7854543,4.48460503 32.9648869,4.62992012 32.98875,4.83075 C32.9859,5.3751 32.9802,5.9337 32.97735,6.48945 Z" id="Path" fill="#F68920"></path>
            <path d="M25.41345,11.1549 C25.4891439,11.1573588 25.556231,11.2043198 25.58445,11.2746 C26.0319,12.01275 26.4765,12.7566 26.96385,13.47195 C27.0118013,13.5410269 27.0339906,13.6247409 27.02655,13.7085 C26.8563296,13.7384136 26.6830483,13.7470298 26.5107,13.73415 C26.3796,13.73415 26.3454,13.6344 26.2941,13.5489 C26.0091,13.0758 25.7241,12.6027 25.41345,12.1524 L25.41345,11.1549 Z" id="Path" fill="#FCB422"></path>
            <path d="M3.32595,6.384 L0.02565,6.384 C-0.00991429648,6.25260262 -0.00494725775,6.11352554 0.0399,5.985 C0.210379757,5.88071205 0.413051377,5.84220444 0.6099,5.8767 C1.4649,5.928 2.3199,5.90805 3.1578,5.8938 C3.21294333,5.88320412 3.26998606,5.89668695 3.31455,5.93085 C3.35822559,6.07825471 3.36215844,6.23458563 3.32595,6.384 Z" id="Path" fill="#93278A"></path>
            <path d="M28.1922,6.43815 C28.0713814,6.36413055 27.9728884,6.25874304 27.9072,6.1332 C27.6165,5.6544 27.3201,5.1699 27.018,4.6797 C26.9846664,4.6249262 26.9687639,4.56131624 26.9724,4.4973 C27.23745,4.4973 27.50535,4.4973 27.7704,4.4973 C27.8883104,4.48636706 28.0051458,4.52725848 28.0905041,4.60933376 C28.1758624,4.69140903 28.2213024,4.80655166 28.215,4.9248 C28.215,5.42925 28.19505,5.9337 28.1922,6.43815 Z" id="Path" fill="#F99B1F"></path>
            <path d="M0.4104,13.395 C0.271330011,13.2778641 0.175919926,13.1171734 0.13965,12.939 C0.13965,12.7851 0.27645,12.79935 0.3648,12.79935 C1.17705,12.78225 1.98645,12.79935 2.7987,12.79935 C2.94851769,12.7845606 3.09810241,12.8296409 3.2148,12.92475 C3.16787961,13.0995737 3.06839349,13.2557669 2.9298,13.3722 C2.52418325,13.407372 2.11664781,13.4149895 1.71,13.395 C1.277281,13.4238699 0.843119005,13.4238699 0.4104,13.395 L0.4104,13.395 Z" id="Path" fill="#603695"></path>
            <path d="M0.15675,5.60595 C0.212632498,5.4294003 0.317374313,5.27228758 0.45885,5.1528 C0.722673386,5.06221836 1.00547723,5.04159724 1.27965,5.09295 C1.79835,5.12715 2.31135,5.0445 2.8272,5.09295 C2.99680136,5.23013989 3.12505039,5.4116616 3.1977,5.61735 C3.1236,5.73135 3.0096,5.7057 2.89845,5.70855 C2.1546,5.70855 1.41075,5.68005 0.66405,5.7399 C0.48735,5.74275 0.285,5.7855 0.15675,5.60595 Z" id="Path" fill="#9A2687"></path>
            <path d="M0.4104,13.395 C1.25088012,13.2923953 2.10071988,13.2923953 2.9412,13.395 C2.63343033,13.7790158 2.16792831,14.0024944 1.6758,14.0024944 C1.18367169,14.0024944 0.718169666,13.7790158 0.4104,13.395 L0.4104,13.395 Z" id="Path" fill="#5D3896"></path>
            <path d="M0.08265,11.8731 L3.26895,11.8731 C3.32425026,11.9718004 3.34435014,12.0863697 3.32595,12.198 C3.306,12.3804 3.1521,12.3462 3.04095,12.33765 C2.2572,12.2721 1.4706,12.4032 0.6897,12.29205 C0.4731,12.255 0.24225,12.40035 0.0228,12.255 C0.00354638843,12.1245761 0.0244202627,11.9913809 0.08265,11.8731 Z" id="Path" fill="#673092"></path>
            <path d="M0.9747,7.77195 C0.717339436,7.68883165 0.499999145,7.51313132 0.3648,7.2789 C0.3648,7.0794 0.513,7.0965 0.6498,7.09935 C1.14429715,7.12929256 1.64015285,7.12929256 2.13465,7.09935 C2.3547307,7.10338949 2.57446399,7.11860911 2.793,7.14495 C2.89845,7.14495 3.00675,7.182 2.9469,7.33305 C2.80988982,7.53574935 2.60937207,7.68714025 2.3769,7.7634 C1.91021679,7.79759534 1.44176551,7.80045175 0.9747,7.77195 L0.9747,7.77195 Z" id="Path" fill="#89298C"></path>
            <path d="M0.15675,5.60595 C0.377080778,5.67203778 0.610778686,5.67989317 0.83505,5.62875 C1.15170933,5.60023438 1.47029067,5.60023438 1.78695,5.62875 C2.2572,5.62875 2.72745,5.62875 3.21195,5.61165 C3.27332154,5.71294267 3.31039076,5.82707684 3.32025,5.9451 C2.99442102,5.99828979 2.66393752,6.01739288 2.33415,6.0021 C2.0178,5.985 1.71,5.985 1.4079,5.985 C0.952390979,5.95507434 0.495409021,5.95507434 0.0399,5.985 C0.0424952578,5.85018614 0.0829897979,5.7188258 0.15675,5.60595 L0.15675,5.60595 Z" id="Path" fill="#962788"></path>
            <path d="M2.9355,7.3416 C2.9184,7.19055 2.80155,7.20765 2.70465,7.2162 C2.5365,7.23615 2.36265,7.1649 2.22015,7.18485 C1.881,7.23615 1.5504,7.18485 1.2198,7.20195 C1.04642401,7.22913885 0.869472676,7.22333716 0.69825,7.18485 C0.56715,7.1478 0.4389,7.125 0.3648,7.2789 C0.249396581,7.1789697 0.17024424,7.04370937 0.13965,6.89415 C0.2223,6.7146 0.38475,6.7716 0.51585,6.78015 C0.80085,6.79725 1.10295,6.81435 1.3965,6.82005 C1.69005,6.82575 1.93515,6.726 2.2002,6.8628 C2.30565,6.91695 2.44815,6.83145 2.5707,6.82005 C2.78445,6.8001 3.01815,6.71175 3.21195,6.89415 C3.17177493,7.06975014 3.07456163,7.22709538 2.9355,7.3416 Z" id="Path" fill="#8C288C"></path>
            <path d="M2.88135,11.20905 C2.61524054,11.2885111 2.33448255,11.3060584 2.06055,11.26035 C1.62165,11.23755 1.18275,11.28315 0.74385,11.26035 C0.64695,11.26035 0.5358,11.2917 0.45885,11.1834 C1.14,10.4652 2.35695,10.4766 2.88135,11.20905 Z" id="Path" fill="#6F2D91"></path>
            <path d="M0.0228,12.255 C0.413514225,12.2222334 0.806285775,12.2222334 1.197,12.255 C1.69589878,12.2772932 2.19572285,12.2668207 2.69325,12.22365 C2.84121883,12.2168273 2.98947769,12.2273489 3.135,12.255 C3.2091,12.255 3.28605,12.255 3.3345,12.18945 C3.37429352,12.3009561 3.37429352,12.4227939 3.3345,12.5343 C3.2224219,12.6173715 3.08223916,12.6531846 2.94405,12.63405 C2.33506542,12.6079054 1.72507268,12.6174216 1.1172,12.66255 C0.75254921,12.7110077 0.381576329,12.6689184 0.03705,12.54 C-0.00240589709,12.4499423 -0.00747579903,12.3485443 0.0228,12.255 Z" id="Path" fill="#643393"></path>
            <path d="M0.03705,12.54 C1.1286,12.6369 2.223,12.50865 3.31455,12.54 C3.3265007,12.6776927 3.29132978,12.8153618 3.2148,12.93045 C2.2857,12.83925 1.35375,12.88485 0.42465,12.87345 C0.32775,12.87345 0.2166,12.8364 0.13965,12.93615 C0.0623103809,12.8192005 0.0262037928,12.679789 0.03705,12.54 Z" id="Path" fill="#623594"></path>
            <path d="M25.41345,12.1524 C25.69845,12.312 25.79535,12.60555 25.9635,12.84495 C26.1297592,13.0986206 26.2819876,13.3612146 26.4195,13.63155 C26.4822,13.7427 26.5791,13.69995 26.6646,13.70565 C26.7501,13.71135 26.90685,13.70565 27.02655,13.70565 L27.93,13.70565 C27.85305,13.77975 27.75615,13.75695 27.6678,13.75695 L25.935,13.75695 C25.55595,13.75695 25.39635,13.6002 25.3935,13.224 C25.39065,12.8478 25.40775,12.5115 25.41345,12.1524 Z" id="Path" fill="#FDB724"></path>
            <path d="M2.8272,5.08155 C2.77875,5.17275 2.6904,5.1585 2.6106,5.16135 C1.8924,5.1927 1.1856,5.187 0.45885,5.16135 C0.754743097,4.82379806 1.17711887,4.62372474 1.62574514,4.60860857 C2.07437142,4.59349241 2.50925661,4.76468088 2.8272,5.08155 Z" id="Path" fill="#9F2686"></path>
            <path d="M30.25275,5.2155 L30.25275,5.82825 C30.4095,6.1503 30.3126,6.49515 30.3297,6.8286 C30.3468,7.16205 30.3297,7.4898 30.3297,7.8204 C30.3485455,7.93995105 30.3187847,8.06207311 30.24705,8.15955 L30.24705,11.20905 C30.3437133,11.3702474 30.3685164,11.5645382 30.31545,11.74485 C30.1815,12.44025 30.53775,12.9561 30.9054,13.47765 C30.990429,13.5876013 31.1262394,13.6458057 31.2645,13.63155 C31.465364,13.5981383 31.6716234,13.6249124 31.8573,13.7085 L32.7123,13.7085 C32.5375441,13.7691036 32.3503531,13.7847845 32.16795,13.7541 C31.67775,13.7541 31.18755,13.7541 30.6945,13.7541 C30.5654364,13.763191 30.4386419,13.7166793 30.3460715,13.626287 C30.253501,13.5358947 30.2039841,13.4102434 30.21,13.281 C30.21,10.5925 30.21,7.90495 30.21,5.21835 C30.2271,5.1927 30.24135,5.1927 30.25275,5.2155 Z" id="Path" fill="#FAA51F"></path>
            <path d="M25.24245,1.26255 C25.5531,1.76985 25.86375,2.28 26.1801,2.78445 C26.257679,2.87620774 26.3009951,2.99205324 26.30265,3.1122 C25.5073113,2.88367044 25.037676,2.06433368 25.24245,1.26255 L25.24245,1.26255 Z" id="Path" fill="#F99D1F"></path>
            <path d="M0.9747,7.77195 C1.43805734,7.6850123 1.91354266,7.6850123 2.3769,7.77195 C1.93868086,8.00552341 1.41291914,8.00552341 0.9747,7.77195 L0.9747,7.77195 Z" id="Path" fill="#872C8E"></path>
            <path d="M30.25275,5.2155 L30.21,5.2155 C30.1774253,5.06576684 30.191346,4.90965703 30.2499,4.76805 L30.25275,5.2155 Z" id="Path" fill="#FAA21F"></path>
            <path d="M23.80605,8.5899 C23.8193057,8.45957048 23.7986905,8.328026 23.7462,8.208 C23.6383244,7.57480471 23.4016414,6.97048695 23.0508,6.43245 C22.7403298,5.95158821 22.3396491,5.5354223 21.8709,5.20695 L21.8709,5.20695 C21.5914468,4.96487356 21.2697054,4.77646643 20.92185,4.6512 C20.567479,4.46801304 20.1796904,4.35846276 19.78185,4.32915 C19.5495443,4.26836746 19.3081734,4.25002328 19.06935,4.275 C18.8072169,4.25401695 18.5434168,4.27616075 18.28845,4.34055 C18.0583868,4.35937016 17.8330333,4.41619003 17.62155,4.5087 C17.4815313,4.53514887 17.348557,4.59047392 17.2311,4.67115 C17.0683278,4.70695362 16.9161163,4.78013223 16.7865,4.8849 C15.2995441,5.69692694 14.3619254,7.24367156 14.3298,8.9376 C14.19585,11.685 16.50435,14.16165 19.38,13.97925 C20.3119722,13.9352077 21.2043009,13.5890802 21.9222,12.99315 C22.0947389,12.8948551 22.2458979,12.7630754 22.3668,12.60555 C22.4929034,12.5091412 22.6001467,12.390304 22.68315,12.255 C22.8194459,12.1274414 22.9323066,11.9769605 23.0166,11.8104 C23.1867307,11.5939525 23.3187673,11.3501184 23.40705,11.08935 C23.5474305,10.8499718 23.6439448,10.5874529 23.69205,10.31415 C23.8605923,9.75553221 23.8995799,9.16584488 23.80605,8.5899 Z M21.12705,10.1004 L20.9589,10.4253 L20.57415,10.8927 C19.65645,11.57955 18.7929,11.6736 17.97495,11.1777 C17.2954403,10.7358212 16.8776202,9.98720977 16.8582455,9.17689195 C16.8388708,8.36657413 17.2204353,7.59884941 17.87805,7.125 L18.06045,6.9996 L18.63045,6.79155 L18.63045,6.79155 L18.64755,6.79155 L19.3515,6.77445 L19.7391,6.84855 C20.5803632,7.15162474 21.1848082,7.89538826 21.30945,8.78085 C21.3402747,9.22857123 21.2781742,9.67782938 21.12705,10.1004 Z" id="Shape" fill="url(#linearGradient-1)"></path>
            <path d="M30.25845,8.15955 L30.25845,6.84 C30.4152,6.7716 30.44085,6.91695 30.495,6.99675 C30.8427,7.5069 31.14765,8.03985 31.48395,8.5557 C31.9941,9.34515 32.48145,10.146 32.97735,10.944 L32.97735,12.23505 L32.9175,12.26355 C32.7408,11.9985 32.54415,11.742 32.38455,11.4684 C31.8744,10.57635 31.29585,9.7299 30.7515,8.8578 C30.6331836,8.59573645 30.4658257,8.35872675 30.25845,8.15955 L30.25845,8.15955 Z" id="Path" fill="#F8971F"></path>
            <path d="M32.97735,10.92975 C32.7921,10.8756 32.7465,10.69605 32.66385,10.5621 C32.09385,9.6102 31.4982,8.66685 30.8826,7.73775 C30.7173,7.48695 30.56625,7.22475 30.4095,6.9654 C30.37245,6.90555 30.34965,6.82575 30.25845,6.82575 L30.25845,5.82825 C30.4850932,6.01274991 30.6664357,6.2467402 30.78855,6.51225 C31.2303,7.1877 31.64355,7.8774 32.07675,8.5614 C32.31235,8.9414 32.54795,9.3214 32.78355,9.7014 C32.832,9.77835 32.8605,9.8724 32.97735,9.8724 L32.97735,10.92975 Z" id="Path" fill="#F7941F"></path>
            <path d="M31.8687,13.7085 C31.7312488,13.6956685 31.5929012,13.6956685 31.45545,13.7085 C31.1215969,13.7942891 30.7802138,13.5983099 30.68595,13.26675 C30.6368308,13.1386041 30.5588072,13.0235193 30.45795,12.93045 C30.2974704,12.7788901 30.2199953,12.5592003 30.2499,12.3405 C30.26985,11.9643 30.2499,11.58525 30.2499,11.2005 C30.5398235,11.4773722 30.7739528,11.8072817 30.9396,12.17235 C31.17615,12.58845 31.4583,12.9732 31.6977,13.3836 C31.7661,13.4976 31.81455,13.60305 31.8687,13.7085 Z" id="Path" fill="#FAA21F"></path>
        </g>
    </g>
</svg>