<?xml version="1.0" encoding="UTF-8"?>
<svg width="42px" height="42px" viewBox="0 0 42 42" version="1.1" xmlns="http://www.w3.org/2000/svg" xmlns:xlink="http://www.w3.org/1999/xlink">
    <title>[00319] Banco CMF</title>
    <defs>
        <polygon id="path-1" points="0.316769652 0.088 4.79319753 0.088 4.79319753 12.2208192 0.316769652 12.2208192"></polygon>
        <polygon id="path-3" points="0.475273469 0.00795934088 4.951 0.00795934088 4.951 6.72115 0.475273469 6.72115"></polygon>
        <polygon id="path-5" points="0.3166 0.01667 7.02710081 0.01667 7.02710081 4.5 0.3166 4.5"></polygon>
    </defs>
    <g id="[00319]-Banco-CMF" stroke="none" stroke-width="1" fill="none" fill-rule="evenodd">
        <g id="Group-20" transform="translate(7.000000, 7.000000)">
            <g id="Group-3" transform="translate(15.000000, 0.412150)">
                <mask id="mask-2" fill="white">
                    <use xlink:href="#path-1"></use>
                </mask>
                <g id="Clip-2"></g>
                <path d="M4.793,6.96375 C4.793,8.54075 4.7935,10.11825 4.7925,11.69525 C4.7925,12.08825 4.664,12.21925 4.27,12.21975 C3.1275,12.22125 1.9845,12.22125 0.842,12.21925 C0.452,12.21875 0.318,12.08175 0.318,11.68875 C0.3175,8.57825 0.315,5.46875 0.319,2.35825 C0.32,1.18875 1.168,0.21625 2.2705,0.10175 C3.481,-0.02375 4.505,0.70975 4.755,1.88975 C4.7875,2.04375 4.791,2.20625 4.7915,2.36475 C4.794,3.89775 4.793,5.43075 4.793,6.96375" id="Fill-1" fill="#0B71B9" mask="url(#mask-2)"></path>
            </g>
            <path d="M6.9644,12.63225 C5.4049,12.63225 3.8449,12.64475 2.2854,12.62725 C1.3884,12.61675 0.7004,12.20025 0.2949,11.39425 C-0.1041,10.60125 -0.0416,9.81075 0.4724,9.08425 C0.9164,8.45625 1.5464,8.15175 2.3154,8.15125 C5.4349,8.14925 8.5549,8.14975 11.6744,8.15125 C12.0429,8.15175 12.1704,8.28325 12.1709,8.64925 C12.1724,9.81025 12.1724,10.97175 12.1709,12.13275 C12.1704,12.49025 12.0299,12.63125 11.6704,12.63125 C10.1014,12.63325 8.5334,12.63225 6.9644,12.63225" id="Fill-4" fill="#0B71B9"></path>
            <path d="M20.5635,20.2548 C19.0035,20.2548 17.4435,20.2553 15.884,20.2543 C15.432,20.2543 15.318,20.1398 15.3175,19.6923 C15.3175,18.5663 15.317,17.4403 15.318,16.3143 C15.318,15.9038 15.445,15.7788 15.8585,15.7788 C18.9605,15.7788 22.063,15.7778 25.165,15.7793 C26.435,15.7798 27.4335,16.7523 27.4430688,17.9918 C27.4525,19.2533 26.477,20.2433 25.1905,20.2518 C23.648,20.2628 22.106,20.2543 20.5635,20.2548" id="Fill-6" fill="#0B71B9"></path>
            <path d="M7.69045,21.02825 C7.69045,19.46025 7.68995,17.89225 7.69045,16.32375 C7.69045,15.89425 7.80845,15.77875 8.24445,15.77875 C9.37845,15.77825 10.51245,15.77825 11.64645,15.77875 C12.04045,15.77925 12.17095,15.91025 12.17145,16.30425 C12.17145,19.42275 12.17295,22.54125 12.17045,25.66025 C12.16995,26.89725 11.17695,27.89775 9.95095,27.9062929 C8.70195,27.91375 7.70095,26.93775 7.69295,25.67975 C7.68245,24.12925 7.69045,22.57925 7.69045,21.02825" id="Fill-8" fill="#0B71B9"></path>
            <path d="M4.5313,18.33145 C4.5313,19.00495 4.5388,19.67795 4.5298,20.35145 C4.5153,21.44995 3.5863,22.40045 2.4923,22.49645 C1.1608,22.61395 0.0033,21.60595 0.0008,20.15395 C-0.0007,18.89595 0.0003,17.63795 0.0008,16.37995 C0.0008,15.89145 0.1253,15.76695 0.6103,15.76695 C1.7443,15.76695 2.8778,15.76645 4.0118,15.76695 C4.4178,15.76745 4.5318,15.88045 4.5323,16.28495 C4.5338,16.96695 4.5328,17.64945 4.5328,18.33145 L4.5313,18.33145 Z" id="Fill-10" fill="#0B71B9"></path>
            <path d="M9.6216,0.5048 C10.3121,0.5048 11.0026,0.5033 11.6936,0.5053 C12.0406,0.5058 12.1706,0.6368 12.1711,0.9873 C12.1726,2.1563 12.1726,3.3253 12.1711,4.4943 C12.1706,4.8348 12.0286,4.9788 11.6856,4.9798 C10.3486,4.9818 9.0111,4.9938 7.6746,4.9753 C6.5351,4.9598 5.5746,4.0883 5.4766,3.0233 C5.3631,1.7918 6.0736,0.7998 7.2611,0.5428 C7.4061,0.5113 7.5596,0.5073 7.7091,0.5063 C8.3461,0.5023 8.9841,0.5048 9.6216,0.5048" id="Fill-12" fill="#0B71B9"></path>
            <g id="Group-16" transform="translate(22.500000, 5.912150)">
                <mask id="mask-4" fill="white">
                    <use xlink:href="#path-3"></use>
                </mask>
                <g id="Clip-15"></g>
                <path d="M0.4756,4.1659 C0.4756,3.5104 0.4746,2.8549 0.4761,2.1994 C0.4791,1.0309 1.4581,0.0589 2.6061,0.0099 C3.8016,-0.0401 4.9116,0.8814 4.9371,2.1569 C4.9641,3.5209 4.9441,4.8854 4.9426,6.2494 C4.9421,6.5694 4.7956,6.7179 4.4681,6.7184 C3.2901,6.7219 2.1121,6.7224 0.9341,6.7179 C0.6071,6.7174 0.4771,6.5734 0.4761,6.2389 C0.4746,5.5479 0.4756,4.8569 0.4756,4.1659" id="Fill-14" fill="#0B71B9" mask="url(#mask-4)"></path>
            </g>
            <g id="Group-19" transform="translate(15.000000, 23.412150)">
                <mask id="mask-6" fill="white">
                    <use xlink:href="#path-5"></use>
                </mask>
                <g id="Clip-18"></g>
                <path d="M2.8931,0.02525 C3.5581,0.02525 4.2231,0.00875 4.8871,0.02875 C6.0981,0.06425 7.0281,1.04325 7.02710081,2.25575 C7.0256,3.46375 6.0811,4.46925 4.8846,4.48825 C3.5111,4.51025 2.1371,4.49525 0.7636,4.49275 C0.4701,4.49175 0.3201,4.34325 0.3196,4.04925 C0.3156,2.85225 0.3156,1.65575 0.3196,0.45925 C0.3201,0.15875 0.4711,0.02075 0.7926,0.01875 C1.4926,0.01475 2.1931,0.01775 2.8931,0.01775 L2.8931,0.02525 Z" id="Fill-17" fill="#0B71B9" mask="url(#mask-6)"></path>
            </g>
        </g>
    </g>
</svg>