<?xml version="1.0" encoding="UTF-8"?>
<svg width="42px" height="42px" viewBox="0 0 42 42" version="1.1" xmlns="http://www.w3.org/2000/svg" xmlns:xlink="http://www.w3.org/1999/xlink">
    <title>[00322] Banco Industrial</title>
    <defs>
        <polygon id="path-1" points="0.21848 0.25647177 12.5924 0.25647177 12.5924 6.99111151 0.21848 6.99111151"></polygon>
        <polygon id="path-3" points="0.207239826 0.28660029 7.01468693 0.28660029 7.01468693 12 0.207239826 12"></polygon>
        <polygon id="path-5" points="0.300144658 0.3548 6.96295162 0.3548 6.96295162 12.2219807 0.300144658 12.2219807"></polygon>
    </defs>
    <g id="[00322]-Banco-Industrial" stroke="none" stroke-width="1" fill="none" fill-rule="evenodd">
        <g id="Group-20" transform="translate(5.000000, 5.000000)">
            <g id="Group-3" transform="translate(18.800000, 12.445360)">
                <mask id="mask-2" fill="white">
                    <use xlink:href="#path-1"></use>
                </mask>
                <g id="Clip-2"></g>
                <path d="M12.59248,3.62772 C10.60088,4.74372 8.72848,5.78972 6.85968,6.84252 C6.58208,6.99892 6.31168,7.05532 6.02168,6.89572 C4.15088,5.86412 2.28088,4.83172 0.21848,3.69372 C2.29768,2.51852 4.13168,1.48452 5.96208,0.44372 C6.27088,0.26812 6.55768,0.16572 6.90608,0.36732 C8.75968,1.43852 10.61968,2.49852 12.59248,3.62772" id="Fill-1" fill="#ECCC2B" mask="url(#mask-2)"></path>
            </g>
            <g id="Group-6" transform="translate(12.000000, 19.645360)">
                <mask id="mask-4" fill="white">
                    <use xlink:href="#path-3"></use>
                </mask>
                <g id="Clip-5"></g>
                <path d="M3.51436,11.9996 C3.41196,11.8292 3.27676,11.6284 3.16556,11.4148 C2.32596,9.8052 1.46596,8.2068 0.43276,6.7104 C0.19316,6.3644 0.11516,6.0616 0.34396,5.6692 C1.30076,4.0288 2.24836,2.3832 3.17276,0.7248 C3.55276,0.0432 3.78316,0.232 4.08796,0.7776 C4.99236,2.3988 5.91636,4.0092 6.84716,5.6156 C7.08716,6.0296 7.05996,6.3944 6.82516,6.7976 C5.91196,8.3652 5.01796,9.9436 4.10636,11.5124 C3.98916,11.714 3.93876,12.0136 3.51436,11.9996" id="Fill-4" fill="#ECCC2A" mask="url(#mask-4)"></path>
            </g>
            <g id="Group-9" transform="translate(12.000000, 0.045360)">
                <mask id="mask-6" fill="white">
                    <use xlink:href="#path-5"></use>
                </mask>
                <g id="Clip-8"></g>
                <path d="M3.48584,0.35468 C4.67304,2.33948 5.74784,4.14228 6.82944,5.94068 C7.05784,6.31988 6.96384,6.66548 6.76744,7.01108 C5.87224,8.58388 4.96104,10.14828 4.08504,11.73188 C3.71184,12.40588 3.43504,12.36668 3.08344,11.72508 C2.25504,10.21308 1.40744,8.71148 0.56104,7.20908 C0.25024,6.65708 0.18744,6.14468 0.53584,5.55228 C1.51624,3.88628 2.44784,2.19188 3.48584,0.35468" id="Fill-7" fill="#ECCC2A" mask="url(#mask-6)"></path>
            </g>
            <path d="M12.9636,19.1504 C12.3944,21.1792 11.8524,23.1256 11.2996,25.0692 C11.178,25.496 10.7956,25.5952 10.422,25.6964 C8.7564,26.1464 7.09,26.594 5.428,27.0576 C4.6624,27.2712 4.4408,27.1072 4.6888,26.2808 C5.172,24.6692 5.5712,23.0316 5.9908,21.4016 C6.146,20.798 6.3744,20.3568 7.0828,20.19 C8.804,19.7844 10.5036,19.2892 12.212,18.8304 C12.5784,18.7324 12.9724,18.5884 12.9636,19.1504" id="Fill-10" fill="#ECCC2B"></path>
            <path d="M12.05072,16.16488 C9.97352,17.33248 8.17392,18.33568 6.38392,19.35648 C5.96952,19.59328 5.60032,19.57448 5.19832,19.34568 C3.62232,18.44728 2.04672,17.54808 0.45752,16.67328 C-0.16848,16.32928 -0.14208,16.11568 0.47552,15.77568 C2.10032,14.88088 3.69832,13.93728 5.30832,13.01448 C5.59472,12.85008 5.86272,12.60888 6.23552,12.82368 C8.08952,13.89208 9.94592,14.95648 12.05072,16.16488" id="Fill-12" fill="#ECCC2B"></path>
            <path d="M4.67572,5.13012 C6.91412,5.70972 8.87772,6.21132 10.83612,6.73212 C11.20532,6.83012 11.32652,7.18212 11.41732,7.50972 C11.88252,9.17852 12.32572,10.85292 12.80012,12.51892 C13.03172,13.33252 12.87052,13.61012 11.97452,13.34332 C10.35572,12.86092 8.71372,12.45892 7.08372,12.01612 C6.54292,11.86892 6.10532,11.68332 5.94492,11.00292 C5.54772,9.31932 5.04292,7.66052 4.58612,5.99052 C4.48452,5.61852 4.24092,5.16652 4.67572,5.13012" id="Fill-14" fill="#ECCC2A"></path>
            <path d="M26.47336,5.39688 C25.93456,7.54888 25.44896,9.51768 24.94416,11.48128 C24.84816,11.85408 24.49696,11.96328 24.16296,12.05048 C22.44696,12.49928 20.72616,12.93048 19.01536,13.40048 C18.32856,13.58888 18.04016,13.51608 18.28336,12.71008 C18.80816,10.97128 19.29096,9.21928 19.78496,7.47128 C19.90336,7.05168 20.04096,6.70768 20.54856,6.57968 C22.26736,6.14608 23.97376,5.66528 25.68656,5.20848 C26.04056,5.11408 26.45176,4.94728 26.47336,5.39688" id="Fill-16" fill="#ECCC2A"></path>
            <path d="M26.7796,26.79536 C26.82,27.20416 26.4772,27.15376 26.1256,27.02896 C24.3324,26.39256 22.498,25.91136 20.6324,25.54216 C20.2356,25.46416 19.976,25.28936 19.8552,24.84296 C19.3592,23.01056 18.826,21.18776 18.2876,19.36776 C18.0816,18.67296 18.4548,18.63416 18.942,18.76336 C20.776,19.24936 22.6048,19.75496 24.436,20.25336 C24.688,20.32176 24.9484,20.42256 25.0244,20.68296 C25.6044,22.66656 26.1676,24.65496 26.7796,26.79536" id="Fill-18" fill="#ECCC2A"></path>
        </g>
    </g>
</svg>