<?xml version="1.0" encoding="UTF-8"?>
<svg width="42px" height="42px" viewBox="0 0 42 42" version="1.1" xmlns="http://www.w3.org/2000/svg" xmlns:xlink="http://www.w3.org/1999/xlink">
    <title>[00321] Banco de Santiago del Estero</title>
    <defs>
        <polygon id="path-1" points="0 0.00627764139 8.53009131 0.00627764139 8.53009131 9.56173252 0 9.56173252"></polygon>
        <polygon id="path-3" points="0.198922627 0.0612864 7.94220862 0.0612864 7.94220862 10.0547711 0.198922627 10.0547711"></polygon>
    </defs>
    <g id="[00321]-Banco-de-Santiago-del-Estero" stroke="none" stroke-width="1" fill="none" fill-rule="evenodd">
        <g id="Group-11" transform="translate(4.000000, 15.000000)">
            <g id="Group-3" transform="translate(0.000000, 0.417633)">
                <mask id="mask-2" fill="white">
                    <use xlink:href="#path-1"></use>
                </mask>
                <g id="Clip-2"></g>
                <path d="M8.52381306,4.77035622 C8.52405246,6.25128462 8.51687046,7.73221302 8.53009131,9.21314142 C8.53267086,9.49515462 8.43906546,9.56290482 8.17237386,9.56146842 C6.34359726,9.55165302 4.51458126,9.55189242 2.68556526,9.56173252 C2.41408566,9.56338362 2.27571246,9.48007242 2.14476066,9.22654782 C1.56134286,8.09753742 0.94943646,6.98289102 0.33633306,5.86968102 C-0.10679634,5.06481822 -0.10607814,5.07391542 0.30305646,4.23577602 C0.95087286,2.90830302 1.58911326,1.57604202 2.22232626,0.24138702 C2.30803146,0.06064002 2.41456446,0.00627764139 2.60967546,0.00701442 C4.47843186,0.01467522 6.34694886,0.01706922 8.21570526,0.00627764139 C8.47234206,0.00485982 8.53009131,0.08649522 8.52860106,0.32757102 C8.51878566,1.80849942 8.52357366,3.28942782 8.52381306,4.77035622" id="Fill-1" fill="#118442" mask="url(#mask-2)"></path>
            </g>
            <g id="Group-6" transform="translate(17.715600, 0.178233)">
                <mask id="mask-4" fill="white">
                    <use xlink:href="#path-3"></use>
                </mask>
                <g id="Clip-5"></g>
                <path d="M4.62001302,0.06138216 C5.68893402,0.04989096 6.67645902,0.35416836 7.62232842,0.82746216 C7.75998342,0.89640936 7.78009302,0.96439896 7.72000362,1.10636316 C7.42266882,1.80900216 7.12964322,2.51355636 6.85122102,3.22385616 C6.76407942,3.44673756 6.66616482,3.36294756 6.54598602,3.27891816 C6.08514102,2.95764336 5.57761302,2.75606856 5.02124742,2.67323616 C4.81967262,2.64307176 4.62025242,2.66605416 4.43088702,2.71704636 C4.27216482,2.75965956 4.12038522,2.86547436 4.09117842,3.04430616 C4.06292922,3.21739236 4.18358682,3.32943156 4.32172062,3.41441856 C4.62288582,3.59875656 4.95900342,3.68901036 5.29775442,3.77040636 C5.52949362,3.82618656 5.76626022,3.86425116 5.99345082,3.93343776 C7.39968642,4.36148496 8.12075922,5.48355276 7.90434162,6.95442636 C7.66542042,8.57755836 6.46937802,9.72979056 4.82278482,9.98044236 C3.22215642,10.2241516 1.74649482,9.85284216 0.34361082,9.09681696 C0.18488862,9.01159056 0.16908822,8.92756116 0.23683842,8.76620556 C0.54853722,8.02526256 0.85305402,7.28048916 1.14440382,6.53092776 C1.22292702,6.32983176 1.29019842,6.32456496 1.45777842,6.43995576 C2.03353542,6.83544456 2.63490822,7.18018056 3.34592622,7.27689816 C3.56737122,7.30706256 3.78331002,7.29940176 3.99374262,7.22877876 C4.17305322,7.16868936 4.31286282,7.05808656 4.33656342,6.85651176 C4.36026402,6.65757036 4.22931222,6.54337656 4.07585682,6.46006536 C3.70335042,6.25801176 3.28679442,6.19983756 2.88077202,6.10671096 C2.11995882,5.93218836 1.46807262,5.58960696 1.04026482,4.90468356 C0.44320122,3.94899876 0.58875642,2.37231036 1.36082142,1.43745336 C2.12594382,0.51097536 3.19318902,0.06042456 4.62001302,0.06138216" id="Fill-4" fill="#2C4576" mask="url(#mask-4)"></path>
            </g>
            <path d="M26.7091159,5.21860878 C26.7091159,3.71828898 26.7148615,2.21796918 26.7033292,0.71764938 C26.7014551,0.47657358 26.7660931,0.42701778 27.0023809,0.428424215 C28.8900499,0.44018478 30.7781977,0.43970598 32.6663455,0.42917238 C32.9215459,0.42773598 33.0137149,0.48231918 33.0050965,0.75499578 C32.9842687,1.40041818 32.9794807,2.04751638 33.0062935,2.69198118 C33.0185029,2.99003418 32.9026333,3.03001398 32.6505451,3.02570478 C31.8657919,3.01229838 31.0805599,3.02714118 30.2955673,3.01349538 C30.0832195,3.00990438 30.0264817,3.07454238 30.0257635,3.28138398 C30.0226513,3.93494598 30.0145117,3.93374898 30.6558643,3.93231258 C31.2622645,3.93111558 31.8686647,3.94212798 32.4743467,3.92704578 C32.6938765,3.92153958 32.7391231,4.00149918 32.7360109,4.20067998 C32.7259561,4.83628698 32.7240409,5.47261218 32.7381655,6.10821918 C32.7429535,6.32750958 32.6859763,6.40004778 32.4573493,6.39525978 C31.7420221,6.38065638 31.0264555,6.39621738 30.3111283,6.38664138 C30.0939925,6.38352918 30.0209755,6.44697018 30.0233695,6.67463958 C30.0307909,7.39738818 30.0207361,7.39738818 30.7322329,7.39714878 C31.4176351,7.39666998 32.1035161,7.40552778 32.7889183,7.39164258 C33.0079693,7.38733338 33.0896047,7.44694398 33.0864925,7.67197998 C33.0761983,8.35738218 33.0742831,9.04326318 33.0874501,9.72866538 C33.0917593,9.94843458 33.0086875,9.98865378 32.8102249,9.98793558 C30.8629453,9.98171118 28.9151869,9.98099298 26.9674285,9.98889913 C26.7550807,9.98961138 26.7033292,9.92545218 26.7043279,9.71956818 C26.7129463,8.21924838 26.7088765,6.71916798 26.7091159,5.21860878" id="Fill-7" fill="#2C4576"></path>
            <path d="M13.8287255,7.56235872 C13.5390515,7.65237312 13.2402803,7.61813892 12.9443819,7.62508152 C12.8258789,7.62747552 12.7887719,7.57217412 12.7906871,7.46324712 C12.7940387,7.25544792 12.7916447,7.04764872 12.7916447,6.83984952 L12.7933205,6.83984952 C12.7933205,6.67155132 12.8057693,6.50229552 12.7899689,6.33543372 C12.7720139,6.14535012 12.8263577,6.06946032 13.0305659,6.07879692 C13.2879209,6.09076692 13.5457547,6.08526072 13.7971247,6.14918052 C14.1665189,6.24302532 14.3724029,6.49104372 14.3793455,6.84056772 C14.3862881,7.18123392 14.1799253,7.45343172 13.8287255,7.56235872 M12.9422273,2.73006972 C13.4772863,2.67428952 13.9134731,2.76741612 14.0255123,3.17655072 C14.1126539,3.49327692 13.9915175,3.79563912 13.7150105,3.93329412 C13.4622041,4.05945792 13.1909639,4.01923872 12.9249905,4.02498432 C12.7954751,4.02737832 12.7906871,3.93544872 12.7909265,3.84088572 C12.7914053,3.68216352 12.7909265,3.52320192 12.7909265,3.36447972 L12.7894901,3.36447972 C12.7894901,3.31492392 12.7765625,3.26058012 12.7918841,3.21629112 C12.8486219,3.05230212 12.6530321,2.76047352 12.9422273,2.73006972 M15.9287423,5.06134692 C15.9119843,5.05703772 15.8985779,5.03860392 15.8389673,4.99192092 C16.1652695,4.85426592 16.4609285,4.72235652 16.6847675,4.46883192 C17.3821397,3.67857252 17.3246837,2.15455212 16.5856559,1.33221312 C15.9364031,0.60970392 15.0590021,0.48473712 14.1885437,0.45122112 C12.7495103,0.39591972 11.3068859,0.43996932 9.86593734,0.42967512 C9.64042254,0.42799932 9.58368474,0.49407372 9.58440294,0.71647632 C9.59158494,3.70753992 9.59206374,6.69884292 9.58320077,9.68966712 C9.58248774,9.93385512 9.65646234,9.98772012 9.88700454,9.98631141 C11.3080829,9.97646832 12.7291613,9.98532612 14.1504791,9.97814412 C14.4772601,9.97646832 14.8066745,9.95587992 15.1303433,9.91087272 C16.6292267,9.70187652 17.4400745,8.94417552 17.5731809,7.58510172 C17.6947961,6.33902472 17.2308389,5.39459172 15.9287423,5.06134692" id="Fill-9" fill="#2C4576"></path>
        </g>
    </g>
</svg>