<?xml version="1.0" encoding="UTF-8"?>
<svg width="42px" height="42px" viewBox="0 0 42 42" version="1.1" xmlns="http://www.w3.org/2000/svg" xmlns:xlink="http://www.w3.org/1999/xlink">
    <title>[00336] Banco Bradesco Argentina</title>
    <defs>
        <polygon id="path-1" points="0 0.2952 29.908 0.2952 29.908 21.502042 0 21.502042"></polygon>
    </defs>
    <g id="[00336]-Banco-Bradesco-Argentina" stroke="none" stroke-width="1" fill="none" fill-rule="evenodd">
        <g id="Group-8" transform="translate(6.000000, 6.000000)">
            <g id="Group-3" transform="translate(0.000000, 0.104720)">
                <mask id="mask-2" fill="white">
                    <use xlink:href="#path-1"></use>
                </mask>
                <g id="Clip-2"></g>
                <path d="M8.78248,6.8096 C10.08768,6.6168 11.39768,6.4716 12.71568,6.432 C16.92888,6.3036 21.05608,6.7268 24.96648,8.44 C26.30688,9.0272 27.54928,9.7752 28.54288,10.8712 C30.44208,12.966 30.35088,15.468 28.32408,17.5456 C26.94408,18.9596 25.25608,19.8864 23.46688,20.6584 C22.78968,20.9504 22.09688,21.204 21.39608,21.434 C21.21048,21.4944 21.01808,21.5448 20.83048,21.4468 C20.49408,21.2708 20.47848,20.7948 20.82888,20.5964 C21.33288,20.3112 21.86688,20.08 22.37888,19.8084 C23.47528,19.2272 24.50768,18.5524 25.34568,17.6228 C25.95048,16.952 26.41808,16.2072 26.35448,15.2524 C26.29568,14.3752 25.86368,13.668 25.26648,13.0564 C24.25688,12.0212 23.00368,11.3716 21.68088,10.8416 C19.50848,9.9716 17.23728,9.5104 14.92248,9.2496 C12.78888,9.0092 10.64808,8.948 8.50448,9.0984 C8.31088,9.1116 8.11408,9.1656 7.92608,9.1428 C7.38088,9.0776 7.17008,9.3796 7.01648,9.8416 C5.76248,13.6164 6.54568,16.9652 9.10208,19.9492 C9.29048,20.1688 9.50608,20.3668 9.71688,20.5664 C9.95768,20.7948 9.99848,21.0368 9.78888,21.3028 C9.57968,21.5676 9.33168,21.534 9.08088,21.3732 C6.41928,19.6684 4.69328,17.2888 3.97048,14.208 C3.64648,12.83 3.56928,11.4308 3.81448,10.0268 C3.85928,9.77 3.80208,9.7132 3.54248,9.778 C2.62768,10.0068 1.70728,10.2112 0.79048,10.4324 C0.37608,10.5324 0.13808,10.4604 0.03488,10.1636 C-0.08912,9.8064 0.13648,9.6096 0.40608,9.4708 C1.51448,8.9012 2.65488,8.3996 3.84088,8.0152 C4.21448,7.894 4.41808,7.7048 4.57488,7.3312 C6.54408,2.6464 11.34368,-0.1708 16.42648,0.3588 C19.63848,0.694 22.26208,2.1484 24.36768,4.5736 C24.53648,4.768 24.52688,4.9768 24.37608,5.168 C24.22488,5.3608 24.02768,5.4832 23.77568,5.3564 C23.64768,5.292 23.53368,5.1976 23.41848,5.11 C19.08448,1.8048 13.19048,2.1596 9.44688,5.954 C9.20288,6.2012 8.97888,6.4684 8.74568,6.7264 C8.75768,6.754 8.77048,6.782 8.78248,6.8096" id="Fill-1" fill="#CC2431" mask="url(#mask-2)"></path>
            </g>
            <path d="M18.15396,23.78112 C18.15396,25.28312 18.15476,26.78512 18.15356,28.28712 C18.15356,28.78832 18.04116,28.89672 17.53036,28.89752 C16.87636,28.89832 16.22196,28.89032 15.56836,28.90192 C15.36316,28.90552 15.30036,28.84552 15.3007581,28.63752 C15.30716,25.88792 15.30636,23.13832 15.30196,20.38872 C15.30196,20.21032 15.35676,20.10352 15.51756,20.01392 C16.17276,19.65032 16.81596,19.26552 17.47076,18.90072 C17.91916,18.65112 18.15276,18.79592 18.15356,19.31152 C18.15516,20.80152 18.15396,22.29112 18.15396,23.78112" id="Fill-4" fill="#CC2431"></path>
            <path d="M14.40004,24.83736 C14.40004,26.08456 14.39324,27.33136 14.40564,28.57856 C14.40844,28.82976 14.34164,28.91576 14.08324,28.90336 C13.64844,28.88256 13.21164,28.89016 12.77604,28.90056 C12.47124,28.90776 12.33204,28.78176 12.3328366,28.47216 C12.33684,26.38976 12.33524,24.30736 12.33444,22.22496 C12.33404,22.01496 12.40844,21.84616 12.59124,21.73776 C13.11044,21.42936 13.63524,21.12976 14.15084,20.81496 C14.39204,20.66776 14.40244,20.79136 14.40204,20.98736 C14.39844,22.27096 14.40004,23.55416 14.40004,24.83736" id="Fill-6" fill="#CC2632"></path>
        </g>
    </g>
</svg>