<?xml version="1.0" encoding="UTF-8"?>
<svg width="42px" height="42px" viewBox="0 0 42 42" version="1.1" xmlns="http://www.w3.org/2000/svg" xmlns:xlink="http://www.w3.org/1999/xlink">
    <title>[00331] Banco Cetelem Argentina</title>
    <defs>
        <polygon id="path-1" points="0.1326 0.0730932 3.698112 0.0730932 3.698112 0.204 0.1326 0.204"></polygon>
        <polygon id="path-3" points="0.127931609 0.0622339907 7.341144 0.0622339907 7.341144 5.35628682 0.127931609 5.35628682"></polygon>
        <polygon id="path-5" points="0 0.0748131307 4.65270454 0.0748131307 4.65270454 5.36770574 0 5.36770574"></polygon>
    </defs>
    <g id="[00331]-Banco-Cetelem-Argentina" stroke="none" stroke-width="1" fill="none" fill-rule="evenodd">
        <g id="Group-22" transform="translate(4.000000, 16.000000)">
            <g id="Group-3" transform="translate(0.612000, 9.185855)">
                <mask id="mask-2" fill="white">
                    <use xlink:href="#path-1"></use>
                </mask>
                <g id="Clip-2"></g>
                <path d="M0.1326,0.2040612 C0.1326,0.1846812 0.132804,0.1655052 0.132804,0.1461252 L3.698112,0.1461252 L3.698112,0.2040612 L0.1326,0.2040612 Z" id="Fill-1" fill="#F4F6F2" mask="url(#mask-2)"></path>
            </g>
            <g id="Group-6" transform="translate(26.520000, 2.249855)">
                <mask id="mask-4" fill="white">
                    <use xlink:href="#path-3"></use>
                </mask>
                <g id="Clip-5"></g>
                <path d="M7.340532,3.3915612 C7.340532,3.8252652 7.34094,4.2587652 7.340328,4.6922652 C7.339716,5.1161772 7.168152,5.3491452 6.852972,5.3552652 C6.51474,5.3617932 6.320328,5.1261732 6.31992,4.7030772 C6.318696,3.8642292 6.320736,3.0253812 6.319104,2.1867372 C6.317676,1.5506652 5.878056,1.0898292 5.278296,1.0914612 C4.701588,1.0928892 4.251156,1.5573972 4.246668,2.1730692 C4.24014,3.0496572 4.244832,3.9262452 4.244832,4.8026292 C4.244832,5.0427372 4.14528,5.2240932 3.919248,5.3165052 C3.715044,5.3999412 3.531444,5.3487372 3.375792,5.1947172 C3.243804,5.0639532 3.229524,4.8981012 3.229932,4.7240892 C3.231768,3.8664732 3.239928,3.0086532 3.228096,2.1512412 C3.216672,1.3466652 2.459016,0.8637972 1.743588,1.2006012 C1.348848,1.3864452 1.156884,1.7165172 1.156068,2.1520572 C1.153824,3.0284412 1.156476,3.9050292 1.15464,4.7814132 C1.154232,5.0119332 1.085688,5.2038972 0.850272,5.3048772 C0.64362,5.3936172 0.463284,5.3585292 0.301104,5.2149132 C0.171768,5.1006732 0.135456,4.9464492 0.135456,4.7805972 C0.13566,3.8756532 0.114852,2.9703012 0.141576,2.0663772 C0.166464,1.2197772 0.593844,0.5945172 1.365984,0.2571012 C2.160972,-0.0903108 2.91516,0.0371892 3.569796,0.6171612 C3.702192,0.7344612 3.761556,0.7464972 3.902316,0.6228732 C4.585308,0.0225012 5.369892,-0.1068348 6.182832,0.2889252 C6.958848,0.6669372 7.348692,1.3268772 7.341144,2.2040772 C7.337676,2.5998372 7.340532,2.9958012 7.340532,3.3915612" id="Fill-4" fill="#3D9244" mask="url(#mask-4)"></path>
            </g>
            <g id="Group-9" transform="translate(0.000000, 2.249855)">
                <mask id="mask-6" fill="white">
                    <use xlink:href="#path-5"></use>
                </mask>
                <g id="Clip-8"></g>
                <path d="M-8.16e-05,2.9301744 C-8.16e-05,1.6176384 0.6523104,0.6633264 1.6912824,0.2449224 C2.5947984,-0.1190136 3.7733064,0.1174224 4.4456904,0.7973544 C4.6906944,1.0450104 4.7204784,1.3332624 4.5230064,1.5480744 C4.3137024,1.7753304 4.0166784,1.7722704 3.7445424,1.5403224 C3.1368264,1.0215504 2.4448584,0.9450504 1.7932824,1.3399944 C1.2233064,1.6853664 0.9693264,2.2122984 1.0286904,2.8638744 C1.0868304,3.5036184 1.4252664,3.9699624 2.0344104,4.2100704 C2.6502864,4.4530344 3.2163864,4.3510344 3.7137384,3.9167184 C4.0589064,3.6154104 4.4695584,3.6666144 4.6131744,4.0454424 C4.7108904,4.3032984 4.6070544,4.5011784 4.4118264,4.6672344 C3.5478864,5.4012264 2.5772544,5.5738104 1.5472584,5.1117504 C0.5354184,4.6582584 0.0386784,3.8245104 -8.16e-05,2.9301744" id="Fill-7" fill="#3D9244" mask="url(#mask-6)"></path>
            </g>
            <path d="M10.8487812,3.5450304 C10.8487812,2.8287864 10.8516372,2.1127464 10.8471492,1.3965024 C10.8457212,1.1731224 10.9095732,0.9852384 11.0992932,0.8607984 C11.4195732,0.6506784 11.8359372,0.8679384 11.8587852,1.2651264 C11.8759212,1.5658224 11.8753092,1.8687624 11.8587852,2.1694584 C11.8469532,2.3867184 11.9273292,2.4487344 12.1352052,2.4352704 C12.3885732,2.4185424 12.6441852,2.4275184 12.8985732,2.4322104 C13.1805012,2.4373104 13.3787892,2.6202984 13.3883772,2.8742784 C13.3983732,3.1435584 13.2023292,3.3377664 12.8997972,3.3451104 C12.6264372,3.3516384 12.3526692,3.3536784 12.0795132,3.3438864 C11.9265132,3.3383784 11.8585812,3.3785664 11.8602132,3.5458464 C11.8673532,4.2149664 11.8491972,4.8842904 11.8677612,5.5530024 C11.8846932,6.1613304 12.2447532,6.5250624 12.8457372,6.5919744 C13.1927412,6.6303264 13.3769532,6.8257584 13.3581852,7.1358384 C13.3402332,7.4328624 13.0864572,7.6242144 12.7372092,7.6042224 C11.6537652,7.5424104 10.8661212,6.6672504 10.8504132,5.4958824 C10.8416412,4.8457344 10.8487812,4.1953824 10.8487812,3.5450304" id="Fill-10" fill="#3D9244"></path>
            <path d="M20.2387584,3.797256 C20.2387584,4.871112 20.2410024,5.944764 20.2375344,7.01862 C20.2363104,7.421316 19.9547904,7.676112 19.6173744,7.586352 C19.3548264,7.516584 19.2261024,7.331964 19.2258984,7.066764 C19.2236544,4.8909 19.2226344,2.715036 19.2277344,0.539172 C19.2285504,0.21216 19.4645784,-0.012036 19.7536464,0.000612 C20.0482224,0.01326 20.2361064,0.217056 20.2373304,0.547536 C20.2410024,1.630776 20.2387584,2.714016 20.2387584,3.797256" id="Fill-12" fill="#3D9244"></path>
            <path d="M4.31001,9.3319392 L0.744702,9.3319392 C0.404226,9.1981152 0.26877,9.0179832 0.319974,8.7664512 C0.37281,8.5079832 0.570078,8.3798712 0.92055,8.3796672 C1.992366,8.3790552 3.063978,8.3790552 4.13559,8.3796672 C4.485246,8.3796672 4.680678,8.5077792 4.735146,8.7682872 C4.787166,9.0179832 4.642938,9.2091312 4.31001,9.3319392" id="Fill-14" fill="#3D9244"></path>
            <path d="M6.1432356,4.5172332 C6.2729796,3.8821812 6.6540516,3.4890732 7.2223956,3.2991492 C7.8645876,3.0847452 8.4272196,3.2634492 8.8878516,3.7589652 C8.9007036,3.7726332 8.9082516,3.7905852 8.9194716,3.8056812 C9.0741036,4.0074372 9.3068676,4.2393852 9.2242476,4.4656212 C9.1705956,4.6122972 8.8315476,4.5121332 8.6214276,4.5139692 C7.8025716,4.5219252 6.9837156,4.5172332 6.1432356,4.5172332 M6.4110876,5.4262572 C6.9288396,5.4456372 7.4478156,5.4315612 7.9661796,5.4315612 C8.4845436,5.4315612 9.0029076,5.4342132 9.5212716,5.4309492 C9.9651756,5.4282972 10.2626076,5.1196452 10.2434316,4.6790052 C10.2256836,4.2781452 10.1218476,3.8974812 9.9131556,3.5539452 C9.1979316,2.3762532 7.5824556,1.9768212 6.4267956,2.6679732 C5.0418396,3.4962132 4.7805156,5.1392292 5.4484116,6.2991732 C6.2937876,7.7681772 8.1783396,7.9297452 9.4892436,7.1335332 C9.7432236,6.9793092 9.8019756,6.7306332 9.6773316,6.5023572 C9.5504436,6.2697972 9.2970756,6.2006412 9.0171876,6.3318132 C8.7789156,6.4431972 8.5443156,6.5611092 8.2878876,6.6290412 C7.4231316,6.8581332 6.5408316,6.4668612 6.2301396,5.7204252 C6.1489476,5.5254012 6.1287516,5.4154452 6.4110876,5.4262572" id="Fill-16" fill="#3D9244"></path>
            <path d="M22.0255536,4.2205968 C22.2715776,3.6595968 22.7014056,3.3301368 23.3038176,3.2369088 C23.9227536,3.1412328 24.4023576,3.3962328 24.7797576,3.8684928 C24.9194976,4.0435248 25.1126856,4.2673128 25.0314936,4.4588688 C24.9674376,4.6100328 24.6732696,4.5078288 24.4823256,4.5141528 C24.1536816,4.5251688 23.8240176,4.5172128 23.4949656,4.5172128 C23.0716656,4.5172128 22.6475496,4.4998728 22.2256776,4.5233328 C21.9398736,4.5392448 21.9368136,4.4221488 22.0255536,4.2205968 M22.1814096,5.4282768 C22.7091576,5.4388848 23.2371096,5.4317448 23.7650616,5.4317448 C24.2740416,5.4317448 24.7832256,5.4329688 25.2922056,5.4313368 C25.7879256,5.4297048 26.0537376,5.1520608 26.0404776,4.6540968 C26.0021256,3.2073288 24.5722896,2.1002208 23.0518776,2.3799048 C21.9580296,2.5810488 21.2511696,3.2695488 20.9859696,4.3358568 C20.7332136,5.3536128 21.0069816,6.2663088 21.8109456,6.9625608 C22.7218056,7.7512248 24.0698376,7.8191568 25.2197856,7.1790048 C25.5037536,7.0209048 25.6149336,6.7620288 25.4984496,6.5294688 C25.3685016,6.2697768 25.1118696,6.2010288 24.7960776,6.3505608 C24.5151696,6.4837728 24.2350776,6.6131088 23.9239776,6.6641088 C23.0643216,6.8050728 22.3087056,6.4087008 22.0127016,5.6687928 C21.9353856,5.4754008 21.9767976,5.4239928 22.1814096,5.4282768" id="Fill-18" fill="#3D9244"></path>
            <path d="M14.6092356,4.2739836 C14.8207836,3.6560676 15.4817436,3.2031876 16.1665716,3.2170596 C16.8026436,3.2301156 17.4793116,3.7511316 17.6465916,4.3474236 C17.6896356,4.5010356 17.6255796,4.5204156 17.4958356,4.5191916 C17.0243916,4.5144996 16.5527436,4.5171516 16.0812996,4.5171516 C15.6475956,4.5171516 15.2134836,4.5073596 14.7799836,4.5214356 C14.5614996,4.5285756 14.5490556,4.4496276 14.6092356,4.2739836 M14.7608076,5.4273996 C15.2981436,5.4400476 15.8358876,5.4316836 16.3732236,5.4316836 C16.9013796,5.4316836 17.4295356,5.4341316 17.9576916,5.4308676 C18.3638556,5.4284196 18.6231396,5.1695436 18.6370116,4.7615436 C18.6718956,3.7280796 17.8936356,2.7095076 16.8460956,2.4328836 C15.7145076,2.1340236 14.7626436,2.4575676 14.0563956,3.3661836 C13.3617756,4.2601116 13.3087356,5.2652196 13.8383196,6.2562516 C14.6586036,7.7907396 16.6090476,7.9229316 17.9046516,7.1297796 C18.1459836,6.9820836 18.2037156,6.7050516 18.0794796,6.4894236 C17.9564676,6.2764476 17.6963676,6.2034156 17.4330036,6.3278556 C17.1604596,6.4563756 16.8911796,6.5877516 16.5945636,6.6560916 C15.7597956,6.8484636 14.8550556,6.3896676 14.6063796,5.6532276 C14.5494636,5.4847236 14.5574196,5.4227076 14.7608076,5.4273996" id="Fill-20" fill="#3D9244"></path>
        </g>
    </g>
</svg>