<?xml version="1.0" encoding="UTF-8"?>
<svg width="42px" height="42px" viewBox="0 0 42 42" version="1.1" xmlns="http://www.w3.org/2000/svg" xmlns:xlink="http://www.w3.org/1999/xlink">
    <title>[00330] Nuevo Banco de Santa Fé</title>
    <defs>
        <polygon id="path-1" points="0.263981702 -0.00125727089 15.3615735 -0.00125727089 15.3615735 16.051232 0.263981702 16.051232"></polygon>
        <polygon id="path-3" points="0 0.411945776 15.1015604 0.411945776 15.1015604 16.4828811 0 16.4828811"></polygon>
        <polygon id="path-5" points="0.0395402325 0.412482 16.9992955 0.412482 16.9992955 14.5873668 0.0395402325 14.5873668"></polygon>
    </defs>
    <g id="[00330]-Nuevo-Banco-de-Santa-Fé" stroke="none" stroke-width="1" fill="none" fill-rule="evenodd">
        <g id="Group-12" transform="translate(5.000000, 5.000000)">
            <g id="Group-3" transform="translate(16.905000, 8.040145)">
                <mask id="mask-2" fill="white">
                    <use xlink:href="#path-1"></use>
                </mask>
                <g id="Clip-2"></g>
                <path d="M15.3618271,8.1860772 C15.3478805,10.4293707 15.0224592,12.7838146 14.3606285,15.0934602 C14.2828655,15.3630949 14.172983,15.4543819 13.8851753,15.484811 C12.3151235,15.6496347 10.74803,15.8423517 9.1817817,16.0409855 C8.86354508,16.0811348 8.6340597,16.0050623 8.39781233,15.7814937 C5.75978708,13.2812442 3.11204145,10.7915603 0.4655637,8.30060857 C0.297781575,8.1421242 0.13845195,8.04618832 0.41062245,7.7921907 C3.09894007,5.28475657 5.7737337,2.76210795 8.44599158,0.236078325 C8.6442027,0.048432825 8.8250862,-0.0280623 9.10613183,0.007015575 C10.7137973,0.20776245 12.3239986,0.390759075 13.9346225,0.565725825 C14.1780545,0.591928575 14.2896275,0.68110245 14.3568248,0.920730825 C15.0135841,3.24559095 15.3542198,5.61271357 15.3618271,8.1860772" id="Fill-1" fill="#1C8040" mask="url(#mask-2)"></path>
            </g>
            <g id="Group-6" transform="translate(0.000000, 7.617520)">
                <mask id="mask-4" fill="white">
                    <use xlink:href="#path-3"></use>
                </mask>
                <g id="Clip-5"></g>
                <path d="M-4.22625e-05,8.21080076 C0.0177079875,6.02625214 0.338480362,3.68448701 0.997775363,1.38878801 C1.07257999,1.12802839 1.17992674,1.00842551 1.46477599,0.978841762 C3.11893024,0.805565512 4.77097136,0.614539012 6.42216724,0.415905262 C6.60769961,0.393506138 6.70659386,0.468733387 6.82070261,0.576080138 C8.92833349,2.56072714 11.0372322,4.54368364 13.1457084,6.52748539 C13.7462585,7.09253501 14.3387787,7.66772764 14.9511624,8.22009851 C15.1417662,8.39295214 15.1582486,8.48085814 14.9600375,8.66639051 C12.2459397,11.2101704 9.53902661,13.7619801 6.83380399,16.3154804 C6.71462374,16.4278986 6.60685436,16.4997449 6.43273286,16.4794589 C4.71180386,16.2774441 2.99087486,16.0779651 1.26867799,15.886516 C1.04722249,15.8620038 1.05863336,15.6942216 1.01932924,15.5594043 C0.342706612,13.2252464 0.0041839875,10.8429093 -4.22625e-05,8.21080076" id="Fill-4" fill="#1C8040" mask="url(#mask-4)"></path>
            </g>
            <path d="M15.3461477,17.5663236 C15.4585659,17.7442487 15.4116546,17.8993521 15.4116546,18.0447351 C15.4150356,21.2604887 15.4201071,24.476665 15.4065831,27.691996 C15.4053152,28.0317865 15.4746257,28.1446274 15.8359701,28.1361749 C16.8515379,28.1125079 16.8519606,28.1302581 16.8519606,27.1121545 C16.8519606,24.0916536 16.8515379,21.071998 16.8540737,18.0514971 C16.8540737,17.9048462 16.8126564,17.7501655 16.8950683,17.5988657 C17.6063462,18.2945065 18.3193146,18.975778 19.0145327,19.6752224 C20.7688491,21.4413722 22.5079509,23.2227366 24.2711424,24.9795887 C24.5805039,25.2876824 24.6582669,25.5298465 24.4706214,25.9490905 C23.0983581,29.0177706 20.8474573,31.0227036 17.4897017,31.5793007 C14.4759628,32.0788435 11.9017539,31.0958177 9.76327144,28.9471922 C8.88632456,28.0655965 8.25830381,27.0170639 7.76467781,25.8785121 C7.61211019,25.5264655 7.66536094,25.3105041 7.93161469,25.044673 C10.2150576,22.7595396 12.4853991,20.4608822 14.7591216,18.1656058 C14.9518386,17.9711984 15.1428651,17.7742551 15.3461477,17.5663236" id="Fill-7" fill="#1C8040"></path>
            <g id="Group-11" transform="translate(7.607250, 0.010270)">
                <mask id="mask-6" fill="white">
                    <use xlink:href="#path-5"></use>
                </mask>
                <g id="Clip-10"></g>
                <path d="M9.243654,6.36308426 C9.2453445,8.93602526 9.24449925,11.5093889 9.24449925,14.0827525 L9.24449925,14.5582056 C9.79179862,14.0278113 10.2879604,13.5616559 10.7667945,13.0798634 C12.7789121,11.0554896 14.7821546,9.02308601 16.7989211,7.00378376 C17.0072752,6.79458439 17.0550319,6.61792714 16.9333159,6.34871501 C16.732569,5.90495876 16.5411199,5.45782151 16.2985331,5.03350601 C14.4326437,1.76365639 10.8897784,-0.0675777375 7.23914362,0.521984137 C3.73051087,1.08872426 1.41072225,3.20227189 0.079030875,6.45479389 C-0.0152145,6.68554714 0.07015575,6.80979889 0.219765,6.96067601 C2.4360105,9.19593964 4.648875,11.4341616 6.85793587,13.6757646 C7.14532087,13.9669533 7.40819362,14.2830768 7.68205462,14.5873668 C7.72347187,14.5586283 7.76573437,14.5290445 7.80757425,14.4998834 L7.80757425,14.0519009 C7.80757425,11.6606886 7.75897237,9.26778589 7.83631275,6.87910939 C7.85955712,6.15599801 7.51173675,5.70886076 7.15546387,5.22410989 C7.0003605,5.01364264 6.988527,4.90249226 7.15461862,4.73513276 C7.52864175,4.35815126 7.90351012,3.98116976 8.27288438,3.59911676 C8.44320225,3.42288214 8.597883,3.41273914 8.77242712,3.59277739 C9.15152175,3.98455076 9.53695575,4.37040739 9.92069925,4.75879976 C9.92069925,4.75879976 10.085523,4.95067151 9.90844312,5.12183464 C9.76517325,5.26130089 9.27619612,5.87199401 9.243654,6.36308426" id="Fill-9" fill="#1C8040" mask="url(#mask-6)"></path>
            </g>
        </g>
    </g>
</svg>