<?xml version="1.0" encoding="UTF-8"?>
<svg width="42px" height="42px" viewBox="0 0 42 42" version="1.1" xmlns="http://www.w3.org/2000/svg" xmlns:xlink="http://www.w3.org/1999/xlink">
    <title>[00338] Banco de Servicios y Transacciones</title>
    <defs>
        <linearGradient x1="49.9675455%" y1="100.12747%" x2="49.9675455%" y2="-34.0344168%" id="linearGradient-1">
            <stop stop-color="#64B4B8" offset="0%"></stop>
            <stop stop-color="#99CAC5" offset="47%"></stop>
            <stop stop-color="#B7D7CC" offset="71%"></stop>
        </linearGradient>
    </defs>
    <g id="[00338]-Banco-de-Servicios-y-Transacciones" stroke="none" stroke-width="1" fill="none" fill-rule="evenodd">
        <g id="Asset-9" transform="translate(4.000000, 16.000000)" fill-rule="nonzero">
            <path d="M11.67936,10.57504 L10.14048,10.57504 C9.99488,10.57504 9.99264,10.57504 9.99264,10.43392 L9.99264,8.736 C9.99264,8.5792 9.99264,8.59488 10.14048,8.59488 L12.60448,8.59488 C12.8115484,8.60219908 13.0183496,8.57417108 13.216,8.512 C13.3792272,8.45947174 13.5029432,8.32517941 13.5419355,8.15820054 C13.5809278,7.99122167 13.5294824,7.81602626 13.4064,7.69664 C13.2924468,7.59051369 13.1594403,7.50690957 13.0144,7.45024 C12.72544,7.32256 12.4208,7.22624 12.1184,7.13664 C11.7545635,7.0244942 11.3996485,6.88522374 11.05664,6.72 C10.7706493,6.58378912 10.5100437,6.39969856 10.28608,6.17568 C9.98771374,5.86745509 9.80289743,5.46701975 9.76192,5.04 C9.72625536,4.69368173 9.7582072,4.34373303 9.856,4.0096 C10.0539756,3.35017566 10.5524773,2.8234255 11.2,2.58944 C11.62721,2.41121519 12.0817725,2.30742343 12.544,2.28256 C13.02112,2.2512 13.49824,2.28256 13.97536,2.26912 L15.28128,2.26912 C15.35968,2.26912 15.39328,2.28704 15.39104,2.37216 C15.39104,2.95904 15.39104,3.54368 15.39104,4.13056 C15.39104,4.24032 15.39104,4.24256 15.27904,4.24256 L12.75008,4.24256 C12.6363204,4.24509744 12.5233735,4.26241596 12.41408,4.29408 C12.2620982,4.35229994 12.1480085,4.48091085 12.1083257,4.63875035 C12.0686428,4.79658985 12.108343,4.96386545 12.21472,5.08704 C12.31389,5.18042095 12.4282815,5.25617694 12.55296,5.31104 C12.7924049,5.40740845 13.037822,5.48821653 13.28768,5.55296 C13.6383926,5.64659613 13.9832165,5.76103878 14.32032,5.89568 C14.5636501,5.99342421 14.7944968,6.11975073 15.008,6.272 C15.4184529,6.56414002 15.7070788,6.99707881 15.81888,7.48832 C15.927511,7.94412359 15.927511,8.41907641 15.81888,8.87488 C15.6856563,9.47803128 15.2681196,9.97907534 14.69888,10.21888 C14.3180561,10.3862841 13.912557,10.490685 13.49824,10.528 C12.89344,10.59072 12.2864,10.56384 11.67936,10.57504 Z" id="Path" fill="#224584"></path>
            <path d="M19.95616,5.99648 C19.95616,6.47285333 19.95616,6.94997333 19.95616,7.42784 C19.9508474,7.61415059 19.9750397,7.80012881 20.02784,7.97888 C20.118898,8.34338505 20.4570028,8.59107739 20.832,8.568 L21.87584,8.568 C21.99904,8.568 22.00128,8.568 22.00128,8.69568 L22.00128,10.45408 C22.00128,10.5728 22.00128,10.57728 21.88256,10.57504 C21.35392,10.57504 20.82528,10.59072 20.29664,10.55712 C19.8554837,10.5363609 19.4215795,10.4369878 19.01536,10.26368 C18.2543047,9.94060514 17.7122145,9.24967273 17.57952,8.4336 C17.5299454,8.17978614 17.5059321,7.92164294 17.50784,7.66304 L17.50784,0.16352 C17.50784,0.13888 17.50784,0.112 17.50784,0.08736 C17.50784,0.06272 17.52128,-0.00224 17.58624,0.00224 C17.6280233,0.00448017871 17.6698967,0.00448017871 17.71168,0.00224 L19.88896,0.00224 C19.94272,0.00224 19.96288,0.02688 19.96064,0.0784 L19.96064,2.1168 C19.96064,2.15264 19.96064,2.18848 19.96064,2.22432 C19.96064,2.26016 19.98976,2.3072 20.048,2.30272 L21.8624,2.30272 C22.01024,2.30272 21.9968,2.30272 21.9968,2.43936 L21.9968,4.088 C21.9968,4.24704 21.9968,4.23136 21.85568,4.23136 L20.01888,4.23136 C19.97184,4.23136 19.95616,4.256 19.9584,4.29856 C19.96064,4.34112 19.9584,4.37024 19.9584,4.40608 L19.95616,5.99648 Z" id="Path" fill="#224584"></path>
            <path d="M33.712,0 C33.60224,0 33.488,0 33.38496,0 L31.53248,0 C31.3936,0 31.3936,0 31.39136,0.1344 C31.386111,0.335834167 31.3651406,0.536550921 31.32864,0.73472 C31.2563177,1.16946605 31.0820699,1.58090574 30.82016,1.93536 C30.5433181,2.28555118 30.211163,2.58819818 29.8368,2.83136 C29.3011591,3.18476245 28.747913,3.51072908 28.1792,3.808 C27.6037767,4.11532415 27.0465823,4.45562406 26.5104,4.8272 C25.8731288,5.26507362 25.3085033,5.8002206 24.83712,6.41312 C24.6842969,6.60142379 24.553526,6.80659871 24.44736,7.02464 C24.187507,7.4550923 23.9884978,7.91944691 23.856,8.40448 C23.667249,9.05974064 23.5729654,9.73858247 23.575929,10.42048 C23.575929,10.5392 23.575929,10.54368 23.69696,10.54368 L25.90336,10.54368 C25.97952,10.54368 26.00864,10.52128 26.01536,10.44064 C26.03552,10.21664 26.03552,9.99264 26.06464,9.76864 C26.1362126,9.15381338 26.3628214,8.5672511 26.7232,8.064 C26.9882901,7.70171003 27.3132773,7.3873285 27.68416,7.1344 L27.68416,7.1344 C27.77152,7.11872 27.82528,7.04928 27.89248,7.00448 C28.43008,6.63936 28.99904,6.33248 29.56352,6.01664 C30.1437279,5.70682773 30.7054232,5.36352792 31.24576,4.98848 C31.8026751,4.59597902 32.2979365,4.12261177 32.7152,3.584 C33.107629,3.07394464 33.3995295,2.49394432 33.57536,1.87488 C33.6576744,1.58079793 33.7197925,1.28143365 33.76128,0.97888 C33.8033235,0.693342202 33.8242869,0.405096374 33.8240029,0.11648 C33.8240029,0.03808 33.79264,0 33.712,0 Z" id="Path" fill="url(#linearGradient-1)"></path>
            <path d="M8.32832,4.50912 C7.81104779,3.49582669 6.89893919,2.74058512 5.80694886,2.42138142 C4.71495853,2.10217773 3.53967689,2.24724661 2.55808,2.8224 C2.52240915,2.85468821 2.47626476,2.87298685 2.42816,2.87392 L2.42816,0.19264 C2.42592364,0.156834886 2.42592364,0.120925114 2.42816,0.08512 C2.42816,0.02912 2.41472,-0.00448 2.34976,3.65571289e-15 L0.0672,3.65571289e-15 C0.0224,3.45676179e-15 0,0.01792 0,0.06496 C0,0.112 0,0.12768 0,0.15904 L0,10.40704 C0,10.4384 0,10.46976 0,10.49888 C0,10.528 0.01792,10.57728 0.07168,10.57504 L1.86368,10.57504 C1.95104,10.57504 2.0608,10.61536 2.1168,10.5504 C2.1728,10.48544 2.13024,10.38912 2.13248,10.30624 C2.13248,10.11808 2.13248,9.92768 2.13248,9.74176 C2.18624,9.74176 2.20192,9.76416 2.22656,9.78208 C3.12892724,10.4690855 4.27603144,10.7505884 5.39392,10.55936 C7.23163105,10.2296834 8.62306837,8.713585 8.79424,6.8544 C8.87641972,6.04366302 8.71415524,5.2268798 8.32832,4.50912 L8.32832,4.50912 Z M4.43296,8.57696469 C3.86403283,8.57814929 3.31796753,8.35313055 2.91504467,7.95146812 C2.5121218,7.5498057 2.28539325,7.0044481 2.28478632,6.43552 C2.28063688,5.24298578 3.22749843,4.26433035 4.41952,4.22912 C5.61735164,4.25232307 6.57584597,5.23074452 6.57440469,6.4288 C6.57558929,6.99772717 6.35057055,7.54379247 5.94890812,7.94671533 C5.5472457,8.3496382 5.0018881,8.57636675 4.43296,8.57696469 Z" id="Shape" fill="#224584"></path>
        </g>
    </g>
</svg>