<?xml version="1.0" encoding="UTF-8"?>
<svg width="42px" height="42px" viewBox="0 0 42 42" version="1.1" xmlns="http://www.w3.org/2000/svg" xmlns:xlink="http://www.w3.org/1999/xlink">
    <title>[00339] Banco RCI</title>
    <defs>
        <polygon id="path-1" points="0 0.351621641 30.3857428 0.351621641 30.3857428 30.66 0 30.66"></polygon>
    </defs>
    <g id="[00339]-Banco-RCI" stroke="none" stroke-width="1" fill="none" fill-rule="evenodd">
        <g id="Group-6" transform="translate(6.000000, 5.000000)">
            <g id="Group-3" transform="translate(0.000000, 0.068460)">
                <mask id="mask-2" fill="white">
                    <use xlink:href="#path-1"></use>
                </mask>
                <g id="Clip-2"></g>
                <path d="M23.53176,11.6920451 C22.9026,11.692884 22.4112,11.200224 22.4128757,10.571484 C22.41456,9.946524 22.91394,9.447564 23.53722,9.44882162 C24.15336,9.450084 24.66282,9.960384 24.6624003,10.576104 C24.66198,11.193504 24.15714,11.691624 23.53176,11.6920451 M24.2151,19.323444 C23.7573,19.310844 23.29908,19.313364 22.8417,19.322184 C22.68882,19.325124 22.64346,19.279764 22.64472,19.125204 C22.65144,18.280164 22.64808,17.433864 22.64808,16.587984 L22.6506,16.587984 C22.6506,15.734544 22.64262,14.881104 22.65396,14.028084 C22.65984,13.594644 22.98072,13.261584 23.4171,13.190184 C23.7993,13.127604 24.21426,13.374984 24.3621,13.754664 C24.40998,13.878564 24.42972,14.007504 24.4293,14.141064 C24.42804,15.793764 24.42636,17.446464 24.4326633,19.099164 C24.43308,19.270104 24.39402,19.328484 24.2151,19.323444 M20.56446,18.148704 C19.5069,19.225164 18.2343,19.652304 16.76682,19.304544 C15.26406,18.947964 14.26446,17.984904 13.86252,16.491804 C13.23126,14.146104 14.78946,11.877264 17.20824,11.558904 C17.36112,11.538744 17.51862,11.555964 17.6736,11.555964 C18.8013,11.550504 19.75176,11.970084 20.54052,12.773124 C20.66862,12.903744 20.66526,12.977664 20.51826,13.092324 C20.1642,13.370364 19.82274,13.663944 19.4817,13.958364 C19.39266,14.036064 19.3431,14.041944 19.26288,13.945344 C18.63456,13.193124 17.6274,12.984804 16.779,13.389264 C15.88482,13.815564 15.39216,14.787864 15.53118,15.850884 C15.65214,16.776984 16.39428,17.577504 17.31744,17.729124 C18.07764,17.854284 18.72864,17.609844 19.23936,17.030244 C19.34394,16.911804 19.39938,16.918944 19.50816,17.013864 C19.84794,17.309544 20.19318,17.598504 20.54388,17.880744 C20.65938,17.974404 20.67618,18.034884 20.56446,18.148704 M11.45466,19.305384 C11.1447,19.303284 10.79526,19.383924 10.53612,19.267164 C10.2753,19.149564 10.16568,18.788784 9.99012,18.535104 C9.5802,17.941644 9.17448,17.345244 8.77758,16.742964 C8.694,16.616964 8.60622,16.568664 8.45712,16.577904 C8.24082,16.590924 8.02158,16.593024 7.8057,16.577484 C7.63308,16.565304 7.58226,16.615704 7.58478,16.792944 C7.5957,17.553984 7.58352,18.315024 7.5936,19.076064 C7.59612,19.260024 7.54446,19.316304 7.35924,19.310004 C6.97158,19.296144 6.58266,19.295724 6.195,19.310424 C6.00222,19.317564 5.94846,19.262544 5.94929035,19.066824 C5.95644,17.102064 5.9535,15.137304 5.9535,13.172544 C5.9535,12.722304 5.95896,12.272064 5.95098,11.821824 C5.94846,11.679864 5.98878,11.637444 6.13368,11.6382718 C7.31388,11.645424 8.4945,11.628204 9.6747,11.649624 C10.9578,11.673144 11.9343,12.525744 12.08256,13.678644 C12.22242,14.764764 11.85072,15.955044 10.4475,16.402764 C11.12286,17.359524 11.79402,18.309564 12.49794,19.305804 C12.11406,19.305804 11.78436,19.307904 11.45466,19.305384 M15.19644,0.351621641 C6.7956,0.347004 -0.00336,7.128744 -1.24483017e-06,15.509424 C0.00336,23.887164 6.80484,30.663864 15.2061,30.6600856 C23.58384,30.655884 30.39078,23.857764 30.3857428,15.498924 C30.38154,7.132104 23.58678,0.356244 15.19644,0.351621641" id="Fill-1" fill="#F27321" mask="url(#mask-2)"></path>
            </g>
            <path d="M7.589358,14.182854 C7.589778,13.887594 7.593558,13.592334 7.587258,13.297494 C7.585158,13.187034 7.618758,13.149234 7.732158,13.150494 C8.299158,13.155534 8.866998,13.137474 9.433578,13.158054 C10.030818,13.179474 10.450818,13.625934 10.445778,14.191254 C10.440318,14.757414 10.014858,15.186654 9.414678,15.203454 C8.863218,15.218574 8.311338,15.205974 7.759458,15.213114 C7.630518,15.215214 7.582218,15.180774 7.586418,15.045114 C7.596078,14.757834 7.589358,14.470554 7.589358,14.182854" id="Fill-4" fill="#F27321"></path>
        </g>
    </g>
</svg>