<?xml version="1.0" encoding="UTF-8"?>
<svg width="42px" height="42px" viewBox="0 0 42 42" version="1.1" xmlns="http://www.w3.org/2000/svg" xmlns:xlink="http://www.w3.org/1999/xlink">
    <title>[00341] Banco MásVentas</title>
    <defs>
        <polygon id="path-1" points="0.150577245 0.22464918 3.9427164 0.22464918 3.9427164 3.99313593 0.150577245 3.99313593"></polygon>
        <polygon id="path-3" points="6.00625386e-05 0.20407905 32.1698664 0.20407905 32.1698664 11.6801907 6.00625386e-05 11.6801907"></polygon>
    </defs>
    <g id="[00341]-Banco-MásVentas" stroke="none" stroke-width="1" fill="none" fill-rule="evenodd">
        <g id="Group-11" transform="translate(5.000000, 15.000000)">
            <g id="Group-3" transform="translate(28.227150, 0.120339)">
                <mask id="mask-2" fill="white">
                    <use xlink:href="#path-1"></use>
                </mask>
                <g id="Clip-2"></g>
                <path d="M3.94274885,3.99313593 C3.69811355,3.82831533 3.5160971,3.59730693 3.31007135,3.39257898 C2.33801915,2.42734023 1.37050925,1.45691028 0.402025995,0.48745368 C0.329998095,0.41575023 0.261214695,0.34047783 0.150577245,0.22464918 L3.94274885,0.22464918 L3.94274885,3.99313593 Z" id="Fill-1" fill="#8EAD3D" mask="url(#mask-2)"></path>
            </g>
            <g id="Group-6" transform="translate(0.000000, 0.120339)">
                <mask id="mask-4" fill="white">
                    <use xlink:href="#path-3"></use>
                </mask>
                <g id="Clip-5"></g>
                <path d="M27.169443,2.89558647 C26.7301377,2.89039527 26.5915976,3.21192522 26.4550041,3.53183292 C25.6734041,5.36529987 24.9093243,7.20622917 24.1965077,9.06759882 C24.129671,9.24247737 24.0810035,9.40016007 23.8402616,9.35992827 C23.6160666,9.32261652 23.373378,9.45239652 23.2322423,9.09939492 C22.5246168,7.32595122 21.7829241,5.56580997 21.0519383,3.80209977 C20.9841282,3.63857697 20.8975001,3.48251652 20.8313123,3.31834482 C20.722946,3.04970022 20.5483919,2.88715077 20.2411377,2.90012877 C20.0727482,2.90694222 19.973142,2.85535467 19.9806044,2.64803112 C19.9880667,2.42026722 20.1279047,2.46633912 20.2596314,2.46990807 C21.1285085,2.49651297 21.9970611,2.49132177 22.8656138,2.46633912 C22.9976649,2.46244572 23.136854,2.41994277 23.1449652,2.64575997 C23.1521031,2.85146127 23.0638527,2.90207547 22.8876764,2.89655982 C22.8149996,2.89428867 22.7419983,2.91278232 22.6689971,2.91894687 C22.4068415,2.94198282 22.3276757,3.06073152 22.4185217,3.32029152 C22.7565986,4.28585472 23.1618366,5.22513747 23.5437143,6.17318037 C23.7331931,6.64330842 23.9233208,7.11278757 24.1416756,7.65267237 C24.7185477,6.16020237 25.3392206,4.77220527 25.7915039,3.31964262 C25.8891633,3.00589947 25.8314112,2.94068502 25.492361,2.91440457 C25.3778301,2.90531997 25.2626504,2.89655982 25.148444,2.88325737 C24.9914102,2.86476372 25.0290464,2.74114827 25.0219085,2.64219102 C25.0108772,2.48872617 25.0913408,2.41280487 25.3421406,2.50008192 C25.8804032,2.68793847 26.4650621,2.66782257 27.0078669,2.49359292 C27.2430932,2.41799607 27.3219345,2.48353497 27.3194006,2.63732427 C27.3173922,2.75477517 27.3313436,2.89720872 27.169443,2.89558647 M19.4128169,9.14384457 C19.3988655,9.29601162 19.3414379,9.34922142 19.1493635,9.31872312 C18.2847042,9.18180522 17.4064181,9.19900107 16.5394877,9.32164317 C16.336382,9.35051922 16.3237284,9.25383312 16.3269729,9.12762207 C16.3295685,9.01179342 16.3152927,8.91186282 16.4908202,8.88817797 C17.1267422,8.80154982 17.1429647,8.79408747 17.1481559,8.14972977 C17.1598361,6.78217302 17.1520493,5.41396737 17.1520493,3.96302697 C17.06607,4.12557642 17.0138336,4.21966692 16.965815,4.31570412 C16.1799971,5.88377097 15.4525802,7.47909162 14.7189987,9.07181667 C14.6563799,9.20808567 14.6599488,9.40275567 14.4146646,9.40794687 C14.1473178,9.41443587 14.1573758,9.19672992 14.0934591,9.05429637 C13.3238637,7.34249817 12.4952184,5.65860267 11.6802,3.95653797 C11.5870829,4.01623677 11.6240702,4.09540257 11.6240702,4.15769697 C11.6240702,5.47236837 11.6273147,6.78703977 11.6302347,8.10203562 C11.6302347,8.18185032 11.6331548,8.26166502 11.6389949,8.34115527 C11.6730621,8.82847917 11.7029115,8.86189752 12.1905599,8.88688017 C12.3563538,8.89531587 12.4611512,8.90472492 12.4608267,9.12080862 C12.4605023,9.36122607 12.319691,9.33137667 12.1720662,9.32261652 C11.6071988,9.28854927 11.0426558,9.29471382 10.4777883,9.32229207 C10.3467105,9.32845662 10.197788,9.36901287 10.1916234,9.14514237 C10.1864322,8.95696137 10.2474288,8.89499142 10.4411255,8.88655572 C10.9806858,8.86287087 10.9917171,8.84729727 11.011833,8.29897677 C11.0718563,6.67478007 11.0728296,5.04863667 11.0092374,3.42476442 C10.9910682,2.95496082 10.9839303,2.95820532 10.5180201,2.90239992 C10.4112761,2.88942192 10.2759804,2.92738257 10.2065481,2.80246932 C10.1014263,2.61331497 10.2574868,2.43259632 10.5112067,2.47509927 C11.0267577,2.56075407 11.5507445,2.58476337 12.0653222,2.49359292 C12.462449,2.42286282 12.5818466,2.48158827 12.6833994,2.72038347 C13.3199703,4.21966692 14.058743,5.67158067 14.7543638,7.14296142 C14.7848621,7.20687807 14.8224983,7.26722577 14.8805748,7.37169867 C15.3552452,6.37758387 15.8179109,5.42013192 16.2698697,4.45716432 C16.5492212,3.86212302 16.8191636,3.26286387 17.0771013,2.65841352 C17.1423158,2.50527312 17.2166148,2.46341907 17.3781909,2.46633912 C17.97453,2.47737042 18.5708691,2.46925917 19.1672082,2.46763692 C19.2801168,2.46731247 19.4063279,2.43162297 19.4105457,2.61818172 C19.4141147,2.76710427 19.405679,2.86541262 19.2113334,2.89493757 C18.5939051,2.98870362 18.6088298,2.99584152 18.5854694,3.65934177 C18.5316107,5.20988832 18.5316107,6.76173267 18.5932562,8.31163032 C18.614021,8.82977697 18.6292701,8.86643982 19.1305454,8.88688017 C19.3167797,8.89434252 19.4332572,8.91835182 19.4128169,9.14384457 M9.07064865,7.98847812 C8.63037,8.88396012 7.832223,9.25837542 6.8796378,9.31872312 C5.96111985,9.37679967 5.0400063,9.26064657 4.12019055,9.32358987 C4.0465404,9.32845662 3.96834795,9.33364782 3.95082765,9.23241942 C3.93720075,9.15325362 3.95601885,9.07376337 4.02869565,9.04294062 C4.4358804,8.86935987 4.40700435,8.51376267 4.40700435,8.16692562 C4.406031,6.67964682 4.40700435,5.19236802 4.40635545,3.70508922 C4.40635545,3.62138112 4.4034354,3.53767302 4.39791975,3.45461382 C4.3645014,2.96047647 4.3619058,2.95885422 3.8596572,2.90272437 C3.69775665,2.88487962 3.55889205,2.88131067 3.57576345,2.64056877 C3.5942571,2.37516867 3.76783785,2.47509927 3.8908044,2.47607262 C4.76909055,2.48321052 5.64705225,2.50592202 6.52501395,2.44589877 C7.01623125,2.41280487 7.5051774,2.43064962 7.98958125,2.54226042 C9.24325605,2.83134537 9.26207415,4.18657302 8.6355612,4.82703732 C8.29975545,5.17030542 7.87797045,5.32993482 7.36339275,5.47074612 C7.57168965,5.50611117 7.7160699,5.52622707 7.8588279,5.55477867 C9.1066626,5.80492962 9.6348672,6.83992512 9.07064865,7.98847812 M31.9112798,5.22383967 C30.2380911,3.55421997 28.5652269,1.88460027 26.9001495,0.20654487 C17.9339738,0.21206052 8.967798,0.21238497 0.0019467,0.20394927 C0.01330245,3.89813697 0.01589805,7.64553447 0.00162225,11.3390733 C6.00625387e-05,11.7306844 -0.03860955,11.6777991 0.38934,11.6777991 C10.8681017,11.6777991 21.3468633,11.6700123 31.825625,11.6693634 C31.9401558,11.6693634 32.0553356,11.6609277 32.1698664,11.6563854 L32.1698664,5.43797667 C32.0465754,5.41169622 31.9897967,5.30203212 31.9112798,5.22383967" id="Fill-4" fill="#175A9E" mask="url(#mask-4)"></path>
            </g>
            <path d="M5.80580564,6.21925227 C5.79250319,5.97396807 5.87978024,5.90291352 6.10721969,5.93114067 C6.23083514,5.94638982 6.35834399,5.92497612 6.48293279,5.93730522 C6.99815939,5.98856832 7.46536739,6.15436227 7.65192614,6.68483802 C7.87806779,7.32562677 7.86638759,7.97387787 7.40664194,8.51992722 C7.02833324,8.96896602 6.49104404,8.96150367 5.95764824,8.90375157 C5.81391689,8.88850242 5.83468169,8.78370507 5.83403279,8.69577912 C5.83078829,8.26718067 5.83241054,7.83890667 5.83241054,7.41063267" id="Fill-7" fill="#175B9E"></path>
            <path d="M5.83559015,3.33278284 C5.83623905,3.22863439 5.82650555,3.11345464 5.98289045,3.11150794 C6.27392209,3.10858789 6.56754934,3.06640939 6.85501204,3.13973509 C7.40982154,3.28184419 7.64342554,3.71855389 7.5477128,4.42163704 C7.45070225,5.13769819 6.57403834,5.66557835 5.91151145,5.41153399 C5.78757155,5.36416429 5.8132031,5.26747819 5.81255419,5.17857889 C5.8099586,4.87619149 5.8274789,4.57347964 5.8274789,4.27141669" id="Fill-9" fill="#175B9E"></path>
        </g>
    </g>
</svg>