<?xml version="1.0" encoding="UTF-8"?>
<svg width="42px" height="42px" viewBox="0 0 42 42" version="1.1" xmlns="http://www.w3.org/2000/svg" xmlns:xlink="http://www.w3.org/1999/xlink">
    <title>[00389] Banco Columbia</title>
    <g id="[00389]-Banco-Columbia" stroke="none" stroke-width="1" fill="none" fill-rule="evenodd">
        <path d="M29.7935502,9.35015 C30.2041251,9.35015 30.5968183,9.52018483 30.8739551,9.82623184 C33.0457294,12.2277686 34.5056272,16.6498308 33.8629221,23.5077633 L33.8158268,23.9791291 L33.7361442,24.73055 L22.79,24.73 L22.79,27.207 L35.3370413,27.20708 L35.1263103,28.2184277 C34.9426541,29.0998375 34.4644556,30.3686368 33.5540596,31.6438109 C32.8673576,32.6056611 32.0219034,33.4117323 31.0022258,34.0068254 L30.6910803,34.1789688 L29.5349561,34.7844432 L29.462662,33.4813714 C29.4511911,33.2746128 29.3585897,32.9005481 29.1281342,32.5357326 C28.7872212,31.9960605 28.2398219,31.6545723 27.370312,31.5905248 L27.1638853,31.5807056 L26.9022409,31.5808483 C26.6393284,31.5822406 26.2319807,31.674018 25.790437,31.9362349 C25.051097,32.375302 24.4564016,33.171063 24.0998362,34.4651897 C24.0061621,34.8058914 23.8276335,35.113507 23.5704044,35.3541886 C22.2829079,36.5562633 20.4302848,37.3304018 18.0684606,37.0201553 C14.7784934,36.587989 11.1801822,34.0539523 7.29058196,28.937177 L6.99831604,28.5485687 L6,27.20708 L20.725,27.207 L20.725,24.73 L6.4319227,24.73055 L8.3290681,23.1988151 L8.45219791,23.0837632 L8.61644658,22.9155808 L8.81742367,22.6934082 C9.25735052,22.1897237 9.70126062,21.5612795 10.1183596,20.8013824 C11.5167613,18.2536864 12.2650835,14.9316373 12.0102223,10.7427732 L11.9763432,10.2555906 L11.9055894,9.35015 L29.7935502,9.35015 Z M33.0845823,29.0542595 L33.1509622,28.887 L9.38396222,28.887 L9.75058305,29.3341784 C12.7445931,32.9332923 15.4481647,34.7961125 17.8345353,35.278848 L18.072114,35.3225344 L18.2872638,35.3544647 C20.0909341,35.5913927 21.4732721,35.0137679 22.4232385,34.1268297 C22.4454307,34.1060651 22.4659573,34.0706966 22.4800686,34.0193727 C22.950547,32.3118072 23.8144957,31.1557587 24.9326104,30.491751 C25.5866581,30.1033358 26.2145172,29.9377705 26.7298231,29.90645 L26.8973047,29.9008602 L27.1822865,29.9009182 C28.7614329,29.9364376 29.8839886,30.5866018 30.5484753,31.6384974 C30.6089297,31.7341978 30.6638874,31.8296953 30.7137346,31.9244683 L30.8059622,32.115 L31.035012,31.9317136 C31.2929676,31.7125607 31.5340279,31.4721801 31.7587906,31.212428 L31.9781429,30.9462874 L32.186763,30.667645 C32.5534591,30.1540208 32.8507672,29.6068425 33.0845823,29.0542595 L33.0845823,29.0542595 Z M29.7556023,11.0996123 L29.6949622,11.03 L13.7069622,11.03 L13.7303983,11.6381708 C13.8257923,15.3560594 13.1518657,18.4498317 11.9304296,20.9543625 L11.7604973,21.2922404 L11.5910928,21.6097492 C11.3718824,22.0091204 11.1515274,22.3702311 10.9350006,22.6941405 L10.773401,22.9301139 L10.6869622,23.05 L32.2149622,23.05 L32.2382294,22.7812277 C32.4650981,19.7908315 32.2449442,17.2623624 31.6781125,15.1583838 L31.5677934,14.7688532 L31.4623198,14.4287142 C30.9683417,12.8999636 30.3515101,11.8087478 29.7556023,11.0996123 L29.7556023,11.0996123 Z M23.4733482,13.833104 C23.0697282,14.7354041 22.8402792,15.5563866 22.7286322,16.2891372 C23.4274769,16.2193169 23.9828721,16.0487329 24.3824064,15.882211 L24.6255358,15.7729487 C24.6621636,15.755222 24.6968331,15.7378331 24.7295273,15.7209258 L24.9018529,15.6264103 L24.9018529,15.6264103 L25.0696657,15.5214045 L25.0696657,15.5214045 L25.1262162,15.481226 L25.1362962,18.782426 C24.2820778,18.3212209 23.4447885,18.0898756 22.6685225,18.0027732 C22.7391548,18.7945929 22.9403612,19.4064506 23.1239096,19.8203534 L23.2307338,20.0447965 L23.2307338,20.0447965 L23.3262049,20.2208668 L23.3262049,20.2208668 L23.4325601,20.3923839 L23.4325601,20.3923839 L23.4733482,20.450204 L20.1721482,20.450204 C20.6276524,19.6123177 20.8613292,18.7901445 20.9541998,18.0257111 C20.4439633,18.0947227 19.9926558,18.2105419 19.621531,18.3319495 L19.3235564,18.4364203 L19.3235564,18.4364203 L19.0678292,18.53786 L19.0678292,18.53786 L18.7699585,18.671718 L18.7699585,18.671718 L18.5196162,18.802166 L18.5095362,15.501386 C19.3999836,15.8964556 20.2109514,16.122574 20.9359717,16.2337347 C20.8668999,15.7301307 20.75261,15.2849722 20.633216,14.9190389 L20.5305638,14.6252685 C20.5135587,14.579702 20.4966832,14.5358735 20.4800545,14.4938436 L20.3841779,14.2637318 L20.3841779,14.2637318 L20.2637436,14.0058616 L20.2637436,14.0058616 L20.1721482,13.833104 L23.4733482,13.833104 Z M22.9681722,5 L22.9681722,8.8808 L22.9414426,8.83688433 L22.9414426,8.83688433 L22.8820335,8.76586236 L22.8820335,8.76586236 L22.8191562,8.70731366 L22.8191562,8.70731366 L22.7340809,8.64250522 C22.3938896,8.40742198 21.589406,8.09985418 19.7284012,8.16645239 L19.4552922,8.17856 C17.4791695,8.28247027 16.8607954,7.77875313 16.6757586,7.38268493 L16.6367102,7.28227504 L16.6367102,7.28227504 L16.6136749,7.18957087 L16.6136749,7.18957087 L16.6030057,7.10739425 L16.6030057,7.10739425 L16.6022108,7.01004125 L16.6022108,7.01004125 L16.6110522,6.9404 L16.6110522,6.9404 L16.803245,6.98729934 L16.803245,6.98729934 L17.0747165,7.04142732 L17.0747165,7.04142732 L17.3059973,7.07842706 C17.3474053,7.08432418 17.3901453,7.09002045 17.4340699,7.09541673 L17.71065,7.12340145 C18.4798005,7.18419776 19.4765819,7.11743724 20.0962122,6.51704 C20.4133122,6.21002 20.8381189,5.93912 21.2635944,5.71437333 L21.5811541,5.55462385 C21.6335441,5.52949349 21.6855264,5.50512346 21.7368921,5.48153337 L22.0360127,5.34950882 C22.0840752,5.32911685 22.1311029,5.30954401 22.1768866,5.2908099 L22.5497107,5.14537751 L22.5497107,5.14537751 L22.9681722,5 L22.9681722,5 Z" id="Shape" fill="#203568" fill-rule="nonzero"></path>
    </g>
</svg>