<?xml version="1.0" encoding="UTF-8"?>
<svg width="42px" height="42px" viewBox="0 0 42 42" version="1.1" xmlns="http://www.w3.org/2000/svg" xmlns:xlink="http://www.w3.org/1999/xlink">
    <title>[00384] WiloBank</title>
    <defs>
        <linearGradient x1="14.5909091%" y1="85.2272727%" x2="85.1818182%" y2="14.6136364%" id="linearGradient-1">
            <stop stop-color="#62C3A9" offset="23%"></stop>
            <stop stop-color="#1BB1AB" offset="98%"></stop>
        </linearGradient>
        <linearGradient x1="50.0008015%" y1="100%" x2="50.0008015%" y2="0.0110178101%" id="linearGradient-2">
            <stop stop-color="#1E92A8" offset="4%"></stop>
            <stop stop-color="#59C1A4" offset="79%"></stop>
        </linearGradient>
        <linearGradient x1="99.910619%" y1="50.0606296%" x2="0%" y2="50.0606296%" id="linearGradient-3">
            <stop stop-color="#24ACAC" offset="16%"></stop>
            <stop stop-color="#43BEAC" offset="71%"></stop>
        </linearGradient>
    </defs>
    <g id="[00384]-WiloBank" stroke="none" stroke-width="1" fill="none" fill-rule="evenodd">
        <g id="Asset-4" transform="translate(7.000000, 7.000000)" fill-rule="nonzero">
            <path d="M18.92,0 C13.5738836,0 9.24,4.33388362 9.24,9.68 C9.24,15.0261164 13.5738836,19.36 18.92,19.36 C24.2661164,19.36 28.6,15.0261164 28.6,9.68 C28.6,7.11270438 27.5801458,4.6505585 25.7647936,2.83520636 C23.9494415,1.01985421 21.4872956,0 18.92,0 Z M18.92,13.6400609 C17.3054619,13.6488957 15.8453574,12.6819884 15.2233841,11.1920349 C14.6014108,9.70208134 14.9406931,7.98402939 16.0823612,6.84236124 C17.2240294,5.70069309 18.9420813,5.36141076 20.4320349,5.98338407 C21.9219884,6.60535738 22.8888957,8.06546192 22.8800609,9.68 C22.8679774,11.8620483 21.1020483,13.6279774 18.92,13.6400609 Z" id="Shape" fill="url(#linearGradient-1)"></path>
            <path d="M-1.30836097e-16,5.5924 L-1.30836097e-16,16.6408 C-0.00965785995,18.0848952 0.583589848,19.4675451 1.6368,20.4556 C2.5916,21.3356 4.0964,22.1012 6.44161284,22.1452 L6.44161284,11.0572 C6.44389687,10.0067264 6.13792603,8.9786644 5.5616,8.1004 C4.7564,6.8332 3.1416,5.5352 -1.30836097e-16,5.5924 Z" id="Path" fill="url(#linearGradient-2)"></path>
            <path d="M0,17.3404 C0,17.3404 0.3872,21.7404 6.4416,21.8284 C10.8944,21.8768 15.0788,21.8548 17.0016,21.8284 C18.3070435,21.8106988 19.5843532,22.2082211 20.6492,22.9636 C21.9076,23.87 23.1,25.4408 22.8492,28.1072 L10.5336,28.1072 C8.22014645,28.1198173 5.97867437,27.3034594 4.2152,25.806 C2.3936,24.244 0.6072,21.6436 0,17.3404 Z" id="Path" fill="url(#linearGradient-3)"></path>
        </g>
    </g>
</svg>