<?xml version="1.0" encoding="UTF-8"?>
<svg width="42px" height="42px" viewBox="0 0 42 42" version="1.1" xmlns="http://www.w3.org/2000/svg" xmlns:xlink="http://www.w3.org/1999/xlink">
    <title>[00435] Banco SuCrédito Regional</title>
    <defs>
        <polygon id="path-1" points="1.38955623e-05 -4.69714194e-05 31.9086 -4.69714194e-05 31.9086 20.5532319 1.38955623e-05 20.5532319"></polygon>
    </defs>
    <g id="[00435]-Banco-SuCrédito-Regional" stroke="none" stroke-width="1" fill="none" fill-rule="evenodd">
        <g id="Group-3" transform="translate(5.000000, 11.000000)">
            <mask id="mask-2" fill="white">
                <use xlink:href="#path-1"></use>
            </mask>
            <g id="Clip-2"></g>
            <path d="M24.609708,10.951956 C22.129308,13.240836 19.610028,15.488316 17.112348,17.758476 C16.768908,18.070596 16.385868,18.231876 15.989508,18.216396 C15.178068,18.246996 14.571108,17.950716 14.282388,17.268156 C13.983228,16.560396 14.099148,15.878556 14.717988,15.324516 C16.493868,13.735836 18.236988,12.110076 20.037348,10.549836 C20.745468,9.936036 20.831868,9.488556 20.080188,8.846676 C19.175148,8.074476 18.349308,7.209036 17.491428,6.382116 C16.655508,5.577156 16.521588,4.559436 17.155908,3.861036 C17.810388,3.140316 18.987588,3.115476 19.819908,3.878676 C21.430188,5.354316 23.023188,6.850116 24.590268,8.371476 C25.475868,9.230796 25.493868,10.135836 24.609708,10.951956 M9.376308,17.757036 C9.006588,18.093996 8.567028,18.253116 8.303508,18.234396 C7.314588,18.203436 6.782148,17.855676 6.478308,17.169516 C6.129828,16.383996 6.461028,15.774516 7.023708,15.260796 C8.726148,13.705956 10.399788,12.115116 12.170268,10.641996 C13.072068,9.891756 13.001148,9.374436 12.192228,8.676036 C11.290428,7.896996 10.432548,7.065756 9.574668,6.237396 C8.839908,5.528196 8.694108,4.709556 9.391788,3.913596 C10.065348,3.144636 11.005668,3.017916 11.743308,3.656196 C13.575348,5.241636 15.335028,6.914556 17.058708,8.618796 C17.754228,9.306396 17.673228,10.165716 16.947468,10.837116 C14.436828,13.158396 11.903148,15.454116 9.376308,17.757036 M30.965868,-4.69714193e-05 C24.081228,0.038916 17.196228,0.021276 10.311588,0.021636 C6.497748,0.021636 3.781548,2.147436 2.970828,5.860476 C1.979748,10.398996 1.068228,14.955156 0.072108,19.492596 C-0.113292,20.336796 0.021708,20.564676 0.918108,20.552796 C4.578588,20.503836 8.240508,20.532276 11.901708,20.532276 C15.284628,20.532636 18.667188,20.532636 22.050108,20.532636 C25.974468,20.532276 28.216908,18.758916 29.017908,14.927796 C29.984868,10.305036 30.886308,5.668596 31.849308,1.045116 C32.021748,0.218196 31.844988,-0.005004 30.965868,-4.69714193e-05" id="Fill-1" fill="#EC1D34" mask="url(#mask-2)"></path>
        </g>
    </g>
</svg>