<?xml version="1.0" encoding="UTF-8"?>
<svg width="42px" height="42px" viewBox="0 0 42 42" version="1.1" xmlns="http://www.w3.org/2000/svg" xmlns:xlink="http://www.w3.org/1999/xlink">
    <title>[00431] Banco Coinag</title>
    <g id="[00431]-Banco-Coinag" stroke="none" stroke-width="1" fill="none" fill-rule="evenodd">
        <path d="M27.7617818,11 L32.5815809,15.6363351 L30.4391781,17.8894867 L21.000135,12.5001767 L11.8920212,17.8894867 L9.68618569,15.6363351 L14.3723714,11 L9.95395231,11 L5,15.6363351 L21.3002927,32 L37,15.6363351 L32.0463176,11 L27.7617818,11 Z M13.8306299,19.869654 L21.000135,15.4999804 L28.6439001,19.7772847 L27.421945,21.0624828 L21.000135,17.2728665 L14.8871203,20.9489455 L13.8306299,19.869654 Z M16.435416,22.5307701 L21.000135,19.5331658 L25.8644718,22.7003888 L25.444197,23.1421671 L24.6668101,23.9597455 L21.000135,21.5001375 L17.7097367,23.8321879 L19.3438689,25.5019833 L21.1655996,24.0633861 L23.0966504,25.6105722 L23.3287868,25.3667282 L21.3002927,27.5000196 L19.3716713,25.5302989 L19.5800542,25.7430782 L19.3476478,25.505832 L19.3438689,25.5019833 L19.3438689,25.5019833 L16.435416,22.5307701 Z M19.3438689,25.5019833 L19.3476478,25.505832 L19.3716713,25.5302989 L19.3438689,25.5019833 Z" id="Fill-1" fill="#C22626"></path>
    </g>
</svg>