<?xml version="1.0" encoding="UTF-8"?>
<svg width="42px" height="42px" viewBox="0 0 42 42" version="1.1" xmlns="http://www.w3.org/2000/svg" xmlns:xlink="http://www.w3.org/1999/xlink">
    <title>[00436] Banco Bica</title>
    <defs>
        <polygon id="path-1" points="0.0297632494 0.06980736 4.33086238 0.06980736 4.33086238 4.8352769 0.0297632494 4.8352769"></polygon>
    </defs>
    <g id="[00436]-Banco-Bica" stroke="none" stroke-width="1" fill="none" fill-rule="evenodd">
        <g id="Group-22" transform="translate(5.000000, 18.000000)">
            <path d="M26.8772636,1.18593485 C27.4110735,1.19308493 27.9593718,1.43374157 28.3518735,1.99408205 C28.4333468,2.11055309 28.4389916,2.17245773 28.2950492,2.23266893 C28.1258934,2.30360525 27.9603126,2.38658381 27.8026345,2.48009933 C27.5849334,2.60917709 27.4191644,2.71059533 27.1856579,2.44303181 C26.9455657,2.16813005 26.5381993,2.26747853 26.3395023,2.58321101 C26.1660188,2.85867725 26.1393001,3.15107789 26.2563356,3.45457997 C26.3442063,3.68262989 26.4915356,3.85667789 26.7449871,3.89261645 C27.0227113,3.93213005 27.2390953,3.79928909 27.3653507,3.56672333 C27.445695,3.41845325 27.5409039,3.37969229 27.6897385,3.38383181 C27.9386742,3.39041741 28.188927,3.40283597 28.4363574,3.38496077 C28.6376886,3.37028429 28.6538703,3.45928397 28.6107817,3.61112909 C28.4233743,4.27062989 28.0280502,4.72691789 27.3472873,4.90661069 C26.4740367,5.13729485 25.6162153,4.88327885 25.164255,4.24372301 C24.7072143,3.59701709 24.679743,2.88803021 25.007894,2.20068173 C25.3437596,1.49733965 25.9665692,1.18668749 26.8772636,1.18593485" id="Fill-1" fill="#03AE50"></path>
            <path d="M8.13863501,2.10285734 C8.56763981,1.4642423 9.13795277,1.27024934 9.79971149,1.37242022 C10.4881889,1.47873062 10.8880289,1.99654694 10.8991304,2.73977894 C10.9091028,3.3938231 10.9047752,4.04843174 10.8985659,4.70266406 C10.8978132,4.79768486 10.9721364,4.9564919 10.8035451,4.97323814 C10.6501947,4.9884791 10.4806625,4.95705638 10.42365,4.77153062 C10.3831956,4.64057126 10.357794,4.5058487 10.3594875,4.3647287 C10.364756,3.90392486 10.3626862,3.44312102 10.3608046,2.98231718 C10.3568532,2.11659302 9.67458509,1.67554598 8.85627725,1.99711142 C8.37590477,2.1858359 8.15857997,2.5499255 8.14390349,3.03876518 C8.12678093,3.60945446 8.12696909,4.18164902 8.14427981,4.7523383 C8.15199437,4.99807526 8.02197581,4.98622118 7.85413709,4.98885542 C7.68611021,4.99148966 7.58469197,4.97831846 7.58694989,4.75760678 C7.59861581,3.69807782 7.59880397,2.63817254 7.58713805,1.57845542 C7.58469197,1.34250278 7.71320525,1.36225958 7.86674381,1.36131878 C8.02329293,1.36000166 8.16742349,1.34683046 8.14183373,1.5809015 C8.12527565,1.73124134 8.13863501,1.88496806 8.13863501,2.10285734" id="Fill-3" fill="#91C73E"></path>
            <path d="M11.7882804,3.17356301 C11.7720987,3.74218253 12.0231041,4.15048973 12.520411,4.37609357 C13.0275022,4.60564877 13.5359105,4.55202317 13.9679259,4.19282573 C14.1607899,4.03232525 14.24565,4.08952589 14.382066,4.24005389 C14.5482113,4.42294541 14.3713409,4.48390925 14.2825294,4.56067853 C13.6109864,5.14115213 12.5277492,5.16956429 11.8705064,4.58946701 C11.2947368,4.08143501 11.1411982,3.40876301 11.3199502,2.68001933 C11.4923048,1.97724173 11.9446414,1.53995789 12.6748904,1.39883789 C13.2393704,1.28970509 13.7515419,1.38453773 14.2142273,1.72360205 C14.3037915,1.78926989 14.4834843,1.84063757 14.3416116,2.01167501 C14.2394408,2.13473165 14.179794,2.29673741 13.9425243,2.13548429 C13.286034,1.68973325 12.4045044,1.81805837 12.0138843,2.37933965 C11.8451048,2.62187789 11.773604,2.89188749 11.7882804,3.17356301" id="Fill-5" fill="#91C73E"></path>
            <path d="M24.4798794,3.88337779 C24.4802557,4.17803635 24.4755517,4.47307123 24.4825137,4.76754163 C24.4853361,4.89643123 24.4473277,4.95099763 24.3110999,4.94328307 C24.081921,4.93011187 23.8516132,4.95419635 23.6233751,4.90038259 C23.2942833,4.82267251 23.1565501,4.68625651 23.1478948,4.35754099 C23.1360407,3.90652147 23.1467658,3.45531379 23.141121,3.00410611 C23.1396157,2.88650611 23.1746135,2.84210035 23.2972938,2.84454643 C23.6378634,2.85132019 23.9791857,2.85357811 24.3197553,2.84379379 C24.4672727,2.83946611 24.4836426,2.90814451 24.4811965,3.02687347 C24.4759281,3.31231219 24.4795031,3.59775091 24.4798794,3.88337779" id="Fill-7" fill="#05AE50"></path>
            <path d="M24.5160814,1.91082125 C24.5064852,2.31028493 24.1764526,2.62319501 23.78301,2.60569613 C23.37602,2.58782093 23.0982958,2.29654925 23.1024353,1.89181709 C23.1073275,1.42950797 23.380724,1.17248141 23.8569569,1.18301837 C24.245131,1.19129741 24.5260539,1.50157325 24.5160814,1.91082125" id="Fill-9" fill="#91C73E"></path>
            <g id="Group-13" transform="translate(18.439680, 0.118409)">
                <mask id="mask-2" fill="white">
                    <use xlink:href="#path-1"></use>
                </mask>
                <g id="Clip-12"></g>
                <path d="M2.58479155,3.70029811 C2.23914163,3.83351539 1.87599283,3.75561715 1.52037043,3.76860019 C1.45112755,3.77123443 1.42930099,3.71873779 1.42798387,3.65796211 C1.42629043,3.58457971 1.42610227,3.51100915 1.42610227,3.43743859 C1.42553779,2.89365619 1.42553779,2.89365619 1.96612147,2.89290355 C2.15748019,2.90212339 2.34770995,2.88556531 2.54000947,2.93580403 C2.72497075,2.98378483 2.83861939,3.07955827 2.85461299,3.26527219 C2.87192371,3.46999027 2.77652659,3.62653939 2.58479155,3.70029811 M1.42911283,1.30313971 C1.40277043,1.19626483 1.42704307,1.10406643 1.57926451,1.11648499 C1.70683699,1.12664563 1.83591475,1.11855475 1.96405171,1.11874291 C2.06490547,1.11893107 2.16575923,1.11648499 2.26680115,1.11930739 C2.55223987,1.12758643 2.70766003,1.25572339 2.71913779,1.48904179 C2.73212083,1.75415923 2.57256115,1.92858355 2.28166579,1.94344819 C2.05305139,1.95511411 1.82349619,1.94608243 1.59412915,1.94608243 C1.57587763,1.94608243 1.55216947,1.95323251 1.53993907,1.94457715 C1.29570739,1.76827123 1.48179763,1.51519603 1.42911283,1.30313971 M3.57376051,2.33707891 C3.54196147,2.32221427 3.51486643,2.29718899 3.47271859,2.26802419 C3.56040115,2.21289331 3.63660595,2.16829939 3.70923571,2.11843699 C4.33110451,1.69112563 4.35255475,0.903299712 3.75439411,0.442495872 C3.51599539,0.258663552 3.24824371,0.148966272 2.94699955,0.118296192 C2.03668147,0.025533312 1.12354099,0.099480192 0.212470272,0.071820672 C0.057802752,0.066928512 0.029390592,0.133913472 0.0297632494,0.268447872 C0.033153792,1.54944115 0.026380032,2.83062259 0.035223552,4.11161587 C0.038798592,4.59895027 0.181047552,4.77262195 0.668193792,4.80235123 C1.38508339,4.84600435 2.10517171,4.84901491 2.82300211,4.79463667 C3.01492531,4.77996019 3.20553139,4.74477427 3.38654131,4.67176819 C3.87255859,4.47570547 4.26054451,4.18330483 4.32132019,3.62033011 C4.38604723,3.01840627 4.11980083,2.59222387 3.57376051,2.33707891" id="Fill-11" fill="#03AE50" mask="url(#mask-2)"></path>
            </g>
            <path d="M30.9956532,3.87585139 C30.8400449,4.05196915 30.4065243,4.14322675 30.2018062,4.03616371 C30.0339675,3.94848115 30.0635086,3.79061491 30.0717876,3.64704883 C30.080443,3.49633267 30.1809204,3.41561203 30.3229812,3.40093555 C30.441522,3.38851699 30.5619444,3.39830131 30.6818024,3.39830131 L30.6818024,3.39265651 C30.7184936,3.39265651 30.75669,3.38607091 30.7920641,3.39378547 C30.8912244,3.41561203 31.0387419,3.32623603 31.0831476,3.46208755 C31.128306,3.60094963 31.1051624,3.75204211 30.9956532,3.87585139 M32.447684,2.57434867 C32.4446734,1.93347571 32.117275,1.48960627 31.5098945,1.29787123 C30.7898062,1.07057395 30.089851,1.20379123 29.4006209,1.43466355 C29.1494273,1.51914739 29.0833832,1.72781683 29.1390785,1.97223667 C29.1654209,2.08776691 29.2218689,2.19595891 29.2581838,2.30979571 C29.29845,2.43699187 29.346619,2.47838707 29.4954536,2.41930483 C29.8379048,2.28307699 30.1954088,2.19482995 30.5713524,2.22568819 C30.7222568,2.23810675 30.8616833,2.27498611 30.9715688,2.38656499 C31.0466446,2.46295795 31.0966952,2.56098931 31.071858,2.66165491 C31.0398708,2.79110899 30.9185076,2.72318323 30.8379752,2.72751091 C30.4253403,2.74933747 30.0089422,2.68893811 29.6000705,2.79468403 C29.0572289,2.93486323 28.7623822,3.29782387 28.7589675,3.83671411 C28.7556084,4.40928499 29.0609921,4.81439347 29.600635,4.94892787 C30.159282,5.08797811 30.6569652,4.98035059 31.0951899,4.55642611 C31.2065806,4.78842739 31.379876,4.90264051 31.604539,4.92277363 C31.8149019,4.94177779 32.0282753,4.92766579 32.2386382,4.94704627 C32.4141915,4.96322803 32.4542696,4.89812467 32.4521998,4.73085043 C32.4433563,4.01226739 32.4508827,3.29311987 32.447684,2.57434867" id="Fill-14" fill="#04AF50"></path>
            <path d="M3.15717427,3.90213734 C3.03185971,4.19171558 2.76937651,4.32342758 2.48864179,4.38326246 C1.88954035,4.51045862 1.27783219,4.42691558 0.671768832,4.44836582 C0.543255552,4.45306982 0.552287232,4.3661399 0.552287232,4.2824087 C0.552099072,3.8402327 0.556614912,3.39824486 0.549464832,2.95644518 C0.547206912,2.82153446 0.594811392,2.78239718 0.724265472,2.78634854 C0.981856512,2.79443942 1.24001203,2.78879462 1.54351411,2.78879462 C1.83666739,2.80234214 2.17723699,2.76000614 2.51404339,2.84354918 C3.07626547,2.9831639 3.35906995,3.4356887 3.15717427,3.90213734 M0.553039872,0.905877504 C0.553416192,0.838328064 0.528767232,0.738415104 0.643921152,0.744248064 C1.26541363,0.775858944 1.89876019,0.637937664 2.50783411,0.829296384 C2.98312627,0.978695424 3.15115315,1.49237222 2.88001459,1.9012439 C2.71123507,2.15638886 2.43144115,2.20568678 2.15766835,2.23090022 C1.92039859,2.25291494 1.67936563,2.23560422 1.43964979,2.23560422 L1.43964979,2.23767398 C1.20012211,2.23767398 0.960406272,2.23127654 0.721254912,2.24030822 C0.586908672,2.24520038 0.547395072,2.1966551 0.549841152,2.06626022 C0.556426752,1.67940326 0.550970112,1.29273446 0.553039872,0.905877504 M2.78066611,2.47212134 C3.22190131,2.2399319 3.36170419,2.11932134 3.44336563,1.9134743 C3.77396275,1.07917286 3.32764723,0.332553984 2.43482803,0.240920064 C1.69310131,0.164903424 0.947987712,0.217964544 0.204567552,0.198584064 C0.050840832,0.194632704 -0.000526848,0.245624064 3.30383239e-05,0.404431104 C0.005870592,1.7770583 0.000790272,3.14987366 0.005494272,4.52268902 C0.006623232,4.84858214 0.103525632,4.96768742 0.429606912,4.9748375 C1.13784115,4.99026662 1.84965043,5.0350487 2.55393331,4.93513574 C2.89939507,4.88621414 3.23225011,4.7650391 3.47064883,4.4771543 C4.02101683,3.81182054 3.80406835,2.72500838 2.78066611,2.47212134" id="Fill-16" fill="#91C73E"></path>
            <path d="M6.54495744,3.91333286 C6.2694912,4.44639014 5.39868672,4.69814822 4.87880064,4.39596326 C4.62610176,4.24919846 4.57153536,4.02077222 4.60314624,3.75810086 C4.63306368,3.51010598 4.81557888,3.40680614 5.02932864,3.34508966 C5.30836992,3.26474534 5.59550208,3.29202854 5.83164288,3.28788902 C5.9816064,3.28788902 6.0841536,3.2781047 6.18406656,3.29014694 C6.322176,3.30708134 6.5282112,3.2075447 6.5846592,3.35129894 C6.65032704,3.5189495 6.63997824,3.72912422 6.54495744,3.91333286 M7.1397312,4.73747366 C7.14180096,4.02811046 7.1444352,3.31874726 7.13427456,2.60957222 C7.12543104,1.98431654 6.80687616,1.5451511 6.26817408,1.41588518 C5.5987008,1.25519654 4.9787136,1.37844134 4.40557824,1.76360486 C4.28383872,1.84545446 4.28684928,1.91883686 4.37076864,2.00219174 C4.44114048,2.07181094 4.42985088,2.26505126 4.64059008,2.1397367 C4.99828224,1.92730406 5.38927872,1.80424742 5.8216704,1.84470182 C6.31709568,1.89080102 6.5959488,2.17849766 6.60366336,2.6590583 C6.60648576,2.82708518 6.5611392,2.8829687 6.38784384,2.8810871 C5.955264,2.87619494 5.52136704,2.87374886 5.09029248,2.9046071 C4.50530304,2.94619046 4.12390272,3.30896294 4.08702336,3.8153015 C4.0463808,4.36962086 4.38149376,4.82440358 4.94992512,4.95724454 C5.57913216,5.10400934 6.12799488,4.93654694 6.62059776,4.45711526 C6.65296128,4.63022246 6.64468224,4.7739767 6.76040064,4.87671206 C6.84940032,4.95611558 6.96116736,4.99092518 7.06597248,4.97079206 C7.19410944,4.94633126 7.13954304,4.81951142 7.1397312,4.73747366" id="Fill-18" fill="#91C73E"></path>
            <path d="M16.2364957,4.50041828 C15.5717265,4.50248064 14.931418,4.07046528 14.9543735,3.16353408 C14.9760119,2.30571264 15.4191287,1.89702912 16.2357431,1.8637248 C17.0055057,1.83230208 17.4996138,2.38003584 17.499802,3.1770816 C17.5146666,4.04957952 16.9134954,4.49815296 16.2364957,4.50041828 M16.2237009,1.35248628 C15.170193,1.35494016 14.3964791,2.130912 14.3991066,3.18197376 C14.4019357,4.22155776 15.1920196,5.00430336 16.2366839,5.00261266 C17.2836061,5.00091648 18.0535569,4.22381568 18.0531807,3.16880256 C18.0529924,2.1130368 17.2841706,1.34967168 16.2237009,1.35248628" id="Fill-20" fill="#91C73E"></path>
        </g>
    </g>
</svg>