<?xml version="1.0" encoding="UTF-8"?>
<svg width="42px" height="42px" viewBox="0 0 42 42" version="1.1" xmlns="http://www.w3.org/2000/svg" xmlns:xlink="http://www.w3.org/1999/xlink">
    <title>[00448] Banco Dino</title>
    <defs>
        <polygon id="path-1" points="2.33784716e-05 0.10773923 32.2832939 0.10773923 32.2832939 5.04 2.33784716e-05 5.04"></polygon>
        <polygon id="path-3" points="0 5.5259736 32.283384 5.5259736 32.283384 -5.04e-05 0 -5.04e-05"></polygon>
    </defs>
    <g id="[00448]-Banco-Dino" stroke="none" stroke-width="1" fill="none" fill-rule="evenodd">
        <g id="Group-18" transform="translate(5.000000, 19.000000)">
            <path d="M16.0578432,-5.04e-05 C16.6313952,0.0429576 17.2487952,-0.0371784 17.7455712,0.2470776 C18.3948912,0.6186936 18.6287472,1.2833016 18.5959872,2.0255256 C18.5874192,2.2242696 18.5677632,2.4260376 18.4533552,2.6919816 C18.2841792,1.1845176 17.2583712,0.5189016 16.0578432,-5.04e-05" id="Fill-1" fill="#EC1E24"></path>
            <path d="M29.5526448,4.1039712 C28.9911888,4.1002752 28.5014688,3.6085392 28.5135648,3.0608592 C28.5263328,2.4987312 29.0036208,2.0360592 29.5692768,2.03806864 C30.1416528,2.0400912 30.6026448,2.5072992 30.5960928,3.0784992 C30.5895408,3.6500352 30.1235088,4.1078352 29.5526448,4.1039712 M29.5756608,1.5110592 C28.7383488,1.4940912 28.0226688,2.2092672 28.0208171,3.0645552 C28.0189728,3.9294192 28.7104608,4.6247712 29.5655808,4.6175472 C30.4284288,4.6101552 31.1135328,3.9193392 31.1108527,3.0596832 C31.1084928,2.2250592 30.4175088,1.5283632 29.5756608,1.5110592" id="Fill-3" fill="#EC1E24"></path>
            <path d="M3.233244,2.3640792 C3.255084,1.9617192 2.754948,1.9183752 2.754948,1.9183752 L1.88538,1.9183752 L1.88538,2.8096152 L2.841972,2.8096152 C2.841972,2.8096152 3.211572,2.7664392 3.233244,2.3640792" id="Fill-5" fill="#EC1E24"></path>
            <path d="M2.8089768,3.2880792 L1.9392408,3.2880792 L1.9392408,4.1794872 L2.8960008,4.1794872 C2.8960008,4.1794872 3.2656008,4.1359752 3.2874408,3.7337832 C3.3091128,3.3315912 2.8089768,3.2880792 2.8089768,3.2880792" id="Fill-7" fill="#EC1E24"></path>
            <g id="Group-11" transform="translate(0.000000, 0.485974)">
                <mask id="mask-2" fill="white">
                    <use xlink:href="#path-1"></use>
                </mask>
                <g id="Clip-10"></g>
                <path d="M31.6895544,4.68227783 C27.0984504,4.6760616 22.5073464,4.6774056 17.9160744,4.6762296 C17.8994424,4.6762296 17.8828104,4.6617816 17.8319064,4.6382616 C18.5585064,4.2049896 19.0751064,3.6119496 19.3450824,2.8273896 C19.6128744,2.0493816 19.5690264,1.2696936 19.2730104,0.4773636 L19.6123704,0.4773636 C23.3661624,0.4773636 27.1199544,0.4772376 30.8735784,0.4775736 C31.6201704,0.4775736 31.8856104,0.7409976 31.8913224,1.4949816 C31.8990504,2.4729096 31.8993864,3.4505016 31.9095961,4.4282616 C31.9111464,4.5917256 31.8995544,4.6824456 31.6895544,4.68227783 L31.6895544,4.68227783 Z M15.7794504,4.1104056 C14.9315544,4.1046936 14.2664424,3.4197576 14.270789,2.5569096 C14.2753464,1.7328696 14.9785944,1.0391976 15.8006184,1.0484376 C16.6461624,1.0578456 17.3400024,1.7590776 17.3300904,2.5938696 C17.3200104,3.4432776 16.6322184,4.1159496 15.7794504,4.1104056 L15.7794504,4.1104056 Z M12.5995464,3.6243816 C13.1989704,3.6613416 13.4294664,3.2463816 13.4294664,3.2463816 L13.7705064,3.6060696 C13.3925064,4.1223336 12.6180264,4.0670616 12.6180264,4.0670616 C12.6180264,4.0670616 11.9542584,4.1776056 11.3919624,3.3940536 C10.8294984,2.6103336 11.3919624,1.7068296 11.3919624,1.7068296 C11.3919624,1.7068296 11.8989864,0.9968616 12.6825384,0.997533123 C13.4660904,0.9980376 13.9270824,1.6700376 13.9270824,1.6700376 L13.5583224,1.9650456 C13.5583224,1.9650456 13.1344584,1.4948136 12.6549864,1.4948136 C12.1756824,1.4948136 11.6684904,1.8360216 11.6132184,2.4351096 C11.5579464,3.0343656 12.0004584,3.5875896 12.5995464,3.6243816 L12.5995464,3.6243816 Z M10.5252504,4.0670616 L9.9814344,4.0670616 L8.2574184,1.8781896 L8.2666584,4.0670616 L7.7320824,4.0670616 L7.7320824,0.9975336 L8.3036184,0.9975336 L10.0089864,3.2478936 L10.0089864,0.9975336 L10.5252504,0.9975336 L10.5252504,4.0670616 Z M6.7086264,4.0670616 L6.3398664,3.2478936 L5.3533704,3.2478936 L5.5561464,2.8021896 L6.2108424,2.8021896 L5.6853384,1.6240056 L4.6990104,4.0670616 L4.1180664,4.0670616 L5.3995704,0.9975336 L5.9988264,0.9975336 L7.3540824,4.0670616 L6.7086264,4.0670616 Z M2.9289624,4.1500536 L1.3200264,4.1500536 L1.3200264,0.9975336 L2.9508024,0.9975336 C2.9508024,0.9975336 3.8637144,1.0192056 3.7985304,1.7585736 C3.7395624,2.4277176 3.2706744,2.4554376 3.1823064,2.4545976 C3.9068904,2.4646776 3.9072264,3.2153016 3.9072264,3.2153016 C3.9072264,4.0415256 2.9289624,4.1500536 2.9289624,4.1500536 L2.9289624,4.1500536 Z M32.2555464,1.2317256 C32.2452984,0.6544776 31.9037544,0.2882376 31.3391064,0.1545096 C31.1492664,0.1094856 30.9592584,0.1083096 30.7682424,0.1083096 C26.8308264,0.1074696 22.8935784,0.1078056 18.9561624,0.1078056 L18.6509064,0.1078056 C19.1381064,0.9113496 19.2867864,1.7248056 19.0326024,2.5779096 C18.7787544,3.4295016 18.2332584,4.0413576 17.3937624,4.3750056 C17.4053544,4.3583736 17.4147624,4.3400616 17.4282024,4.3256136 C18.1784904,3.5207256 18.3590904,2.5935336 17.9165784,1.5969576 C17.4676824,0.5867736 16.6352424,0.1160376 15.5333304,0.1160376 L0.4200504,0.1160376 C0.3394104,0.1160376 0.2580984,0.1217496 0.1779624,0.1150296 C0.0415464,0.1041096 0.0037464,0.1721496 0.0050904,0.2957976 C0.0205464,1.5862056 -0.0308616,2.8774536 0.0329784,4.1671896 C0.0558264,4.6273416 0.3772104,4.9465416 0.8345064,5.0085336 C0.9937704,5.0300376 1.1558904,5.0387736 1.3166664,5.0387736 C11.5132584,5.0401176 21.7100184,5.0401176 31.9067784,5.0399496 C31.9874184,5.0399496 32.0682264,5.0386056 32.1488664,5.0387736 C32.2479864,5.0389416 32.2844424,5.0013096 32.2832939,4.8921096 C32.2720104,3.6719256 32.2775544,2.4515736 32.2555464,1.2317256 L32.2555464,1.2317256 Z" id="Fill-9" fill="#EC1E24" mask="url(#mask-2)"></path>
            </g>
            <path d="M15.8010888,2.01725707 C15.2162808,2.015916 14.7531048,2.47758 14.7497279,3.065244 C14.7465528,3.66114 15.1946088,4.1097 15.7936968,4.1103732 C16.3956408,4.111212 16.8413448,3.670716 16.8448875,3.072132 C16.8478968,2.488836 16.3828728,2.018772 15.8010888,2.01725707" id="Fill-12" fill="#EC1E24"></path>
            <mask id="mask-4" fill="white">
                <use xlink:href="#path-3"></use>
            </mask>
            <g id="Clip-15"></g>
            <polygon id="Fill-14" fill="#EC1E24" mask="url(#mask-4)" points="23.706312 4.5949176 24.318672 4.5949176 24.318672 1.5032136 23.706312 1.5032136"></polygon>
            <path d="M21.8038128,4.0897033 L20.9821248,4.0897033 L20.9821248,1.9928832 L21.9464448,1.9928832 C21.9464448,1.9928832 22.5892128,1.9928832 22.5892128,3.0489312 C22.5892128,4.1049792 21.8038128,4.0897033 21.8038128,4.0897033 M22.1913888,1.5031632 L20.4157968,1.5031632 L20.4157968,4.5948672 L22.0842048,4.5948672 C22.0842048,4.5948672 23.0943888,4.5488352 23.1862848,3.1102512 C23.2778448,1.6713312 22.1913888,1.5031632 22.1913888,1.5031632" id="Fill-16" fill="#EC1E24" mask="url(#mask-4)"></path>
            <polygon id="Fill-17" fill="#EC1E24" mask="url(#mask-4)" points="27.6641232 4.575984 27.1203072 4.575984 25.3962912 2.387112 25.4055312 4.575984 24.8707872 4.575984 24.8707872 1.506456 25.4423232 1.506456 27.1478592 3.756816 27.1478592 1.506456 27.6641232 1.506456"></polygon>
        </g>
    </g>
</svg>