<?xml version="1.0" encoding="UTF-8"?>
<svg width="42px" height="42px" viewBox="0 0 42 42" version="1.1" xmlns="http://www.w3.org/2000/svg" xmlns:xlink="http://www.w3.org/1999/xlink">
    <title>[00515] Banco de China, Sucursal BsAs</title>
    <defs>
        <polygon id="path-1" points="2.16008209e-05 0 29.795832 0 29.795832 29.795964 2.16008209e-05 29.795964"></polygon>
    </defs>
    <g id="[00515]-Banco-de-China,-Sucursal-BsAs" stroke="none" stroke-width="1" fill="none" fill-rule="evenodd">
        <g id="Group-3" transform="translate(6.000000, 6.000000)">
            <mask id="mask-2" fill="white">
                <use xlink:href="#path-1"></use>
            </mask>
            <g id="Clip-2"></g>
            <path d="M17.48967,25.6743432 C16.927218,25.8126792 16.699254,25.7453592 16.766838,25.1021232 C16.774362,25.0315032 16.78017,24.9607512 16.784526,24.8898672 C16.815414,24.3934152 16.779378,23.8898352 16.779378,23.3902152 C16.77951,22.8795072 16.788222,22.3685352 16.783338,21.8580912 C16.781754,21.6879432 16.778586,21.5177952 16.773174,21.3477792 C16.761822,20.9977152 16.893558,20.8960752 17.23029,20.8948872 C17.865342,20.8925112 18.501978,20.9537592 19.135974,20.8453872 C20.706774,20.5768992 21.816498,19.3420392 21.83841,17.7513072 C21.864414,15.8627832 21.865074,13.9732032 21.838674,12.0848112 C21.813858,10.3201032 20.46495,8.9869032 18.695358,8.9300112 C18.234678,8.9152272 17.770698,8.8978032 17.312526,8.9351592 C16.859766,8.9722512 16.762482,8.7881112 16.770534,8.3704632 C16.794822,7.0970592 16.802214,5.8220712 16.768158,4.5491952 C16.754562,4.0388832 16.94649,4.0159152 17.35041,4.1241552 C21.82125,5.3219232 24.708882,8.1355032 25.714194,12.6574272 C27.009906,18.4864152 23.297934,24.2462352 17.48967,25.6743432 M11.757306,17.5533072 C11.37147,17.5564752 11.280654,17.4232872 11.28501,17.0616072 C11.302566,15.6125112 11.304942,14.1630192 11.283822,12.7139232 C11.278146,12.3300672 11.40909,12.2355552 11.77143,12.2429472 C12.034902,12.2480952 12.298242,12.2512632 12.561714,12.2528472 C13.351998,12.2578632 14.142678,12.2503392 14.933226,12.2503392 C15.690642,12.2503392 16.448322,12.2577312 17.20587,12.2528472 C17.458254,12.2513952 17.71077,12.2483592 17.963154,12.2432112 C18.330642,12.2358192 18.509502,12.2826792 18.499866,12.7289712 C18.468582,14.1775392 18.475842,15.6274272 18.496434,17.0762592 C18.501846,17.4540432 18.386082,17.5559472 18.014898,17.5530432 C15.929298,17.5366752 13.84317,17.5360152 11.757306,17.5533072 M12.338106,25.6794912 C8.110278,24.7129872 4.678938,21.0444432 3.973398,16.7228952 C3.034218,10.9713912 6.71649,5.4751752 12.38589,4.1362992 C12.856338,4.0251552 13.020942,4.0893072 12.992298,4.5981672 C12.974346,4.9158912 12.972102,5.2344072 12.974478,5.5533192 C12.976854,5.8722312 12.983586,6.1914072 12.983586,6.5101872 C12.983586,6.9882912 12.971046,7.4669232 12.977514,7.9448952 C12.979626,8.1042192 12.98385,8.2634112 12.991506,8.4223392 C13.011306,8.8389312 12.851718,8.9606352 12.458226,8.9334432 C12.042558,8.9045352 11.623326,8.9206392 11.20581,8.9281632 C9.357546,8.9612952 7.989366,10.2647952 7.945806,12.1191312 C7.902378,13.9646232 7.905942,15.8126232 7.944354,17.6583792 C7.983954,19.5682872 9.376026,20.8834032 11.297022,20.9014872 C11.692758,20.9051832 12.090606,20.9280192 12.483438,20.8951512 C12.906894,20.8597752 12.997314,21.0421992 12.99111,21.4280352 C12.971178,22.6807152 12.953622,23.9351112 12.99705,25.1867352 C13.016982,25.7654232 12.783342,25.7812632 12.338106,25.6794912 M14.89521,-5.47961149e-05 C6.83067,-0.0042768 0.090486,6.6959112 0.00099,14.6354472 C-0.092202,22.9078872 6.552414,29.7948552 14.872242,29.7960432 C23.067198,29.7965712 29.787054,23.1428472 29.7959065,15.0195672 C29.80461,6.7240272 23.138214,0.0043032 14.89521,-5.47961149e-05" id="Fill-1" fill="#B02244" mask="url(#mask-2)"></path>
        </g>
    </g>
</svg>