<?xml version="1.0" encoding="UTF-8"?>
<svg width="42px" height="42px" viewBox="0 0 42 42" version="1.1" xmlns="http://www.w3.org/2000/svg" xmlns:xlink="http://www.w3.org/1999/xlink">
    <title>[44059] Ford Credit</title>
    <defs>
        <polygon id="path-1" points="0.04090608 0.1141992 32.0119085 0.1141992 32.0119085 18.6477379 0.04090608 18.6477379"></polygon>
        <polygon id="path-3" points="0 0.04891104 31.9929601 0.04891104 31.9929601 10.2816 0 10.2816"></polygon>
    </defs>
    <g id="[44059]-Ford-Credit" stroke="none" stroke-width="1" fill="none" fill-rule="evenodd">
        <g id="Group-27" transform="translate(5.000000, 6.000000)">
            <g id="Group-3" transform="translate(0.000000, 0.253001)">
                <mask id="mask-2" fill="white">
                    <use xlink:href="#path-1"></use>
                </mask>
                <g id="Clip-2"></g>
                <path d="M29.8134821,0.13498272 C30.6562061,0.18712512 31.5598853,0.64245312 31.8885293,1.51124832 L31.9917125,1.96327152 L32.0119085,18.6268075 L0.04090608,18.6477379 L0.04090608,3.91567392 L0.08166528,1.75800672 C0.09231408,1.09667952 0.81973728,0.21907152 1.56148128,0.13498272 L1.91068848,0.11405232 L29.8134821,0.13498272 Z" id="Fill-1" fill="#C23E40" mask="url(#mask-2)"></path>
            </g>
            <path d="M19.1904962,5.093064 L19.169933,5.9765472 C18.8405546,5.9038416 18.4296578,5.9655312 18.1843682,6.2438688 C18.0448322,6.381936 17.9835098,6.5670048 17.9166794,6.7575816 L17.8961162,8.9765712 L17.012633,8.9765712 L16.992437,5.1551208 L17.8347938,5.1551208 C17.8906082,5.3339472 17.8395674,5.5597752 17.8759202,5.7507192 C18.075677,5.441904 18.3477722,5.1180336 18.6977138,5.0523048 C18.8838842,5.0203584 19.1302754,4.9986936 19.1904962,5.093064 L19.1904962,5.093064 Z M16.3344146,5.832972 C16.7453114,6.4175544 16.7860706,7.393572 16.478357,8.0519616 C16.2517946,8.5954176 15.681533,9.0268776 15.081161,9.07902 C14.3974346,9.1296936 13.7195834,8.9754696 13.2730682,8.401536 C12.8361002,7.74792 12.7277762,6.6485232 13.1291258,5.9563512 C13.5503042,5.210568 14.3515346,4.9230504 15.183977,5.0725008 C15.6459146,5.1540192 16.067093,5.410692 16.3344146,5.832972 L16.3344146,5.832972 Z M22.8066818,8.1338472 L22.827245,8.9563752 L21.9231986,8.9765712 C21.927605,8.847684 21.9485354,8.713656 21.9030026,8.6068008 C21.5839058,9.0375264 21.018785,9.1300608 20.4650474,9.0793872 C19.9197554,8.9864856 19.421465,8.4261384 19.2731162,7.9083864 C19.0821722,6.9881832 19.1031026,5.8171824 19.9718978,5.2373736 C20.3971154,4.9487544 21.0804746,5.0056704 21.4921058,5.2373736 C21.6349466,5.2983288 21.7583258,5.4422712 21.8416802,5.5660176 L21.8618762,3.8196144 L22.7864858,3.8196144 L22.8066818,8.1338472 Z M12.8004818,4.7229264 L10.3141706,4.7229264 L10.2936074,5.9354208 L10.3347338,5.97618 L12.492401,5.97618 L12.492401,6.8805936 L10.2936074,6.9011568 C10.303889,7.5859848 10.303889,8.2708128 10.2936074,8.956008 L9.18392904,8.976204 L9.16336584,3.8192472 L12.8001146,3.8192472 L12.8001146,4.7229264 L12.8004818,4.7229264 Z" id="Fill-4" fill="#FEFEFE"></path>
            <path d="M21.7178604,6.30548496 C21.9892212,6.81332256 21.968658,7.61969376 21.5735508,8.07245136 C21.3888492,8.26155936 21.1211604,8.33903856 20.83401,8.27771616 C20.5354764,8.20537776 20.2993668,7.90721136 20.2174812,7.62042816 C20.1194388,7.11626256 20.1245796,6.51038256 20.4436764,6.12078336 C20.6588556,5.89385376 20.9617956,5.85309456 21.2449068,5.91551856 C21.4501716,5.95003536 21.6245916,6.12959616 21.7178604,6.30548496 M15.4512252,6.22323216 C15.7431492,6.68994336 15.7229532,7.41920256 15.4714212,7.90794576 C15.3377604,8.08713936 15.1581996,8.27147376 14.9169492,8.29864656 C14.5670076,8.32838976 14.2332228,8.21015136 14.0540292,7.88774976 C13.822326,7.32189456 13.7914812,6.60254976 14.1568452,6.09948576 C14.3771652,5.84721936 14.7010356,5.81637456 14.999202,5.87365776 C15.1835364,5.94012096 15.3583236,6.03228816 15.4512252,6.22323216" id="Fill-6" fill="#C23E40"></path>
            <path d="M22.9503305,15.3459857 L22.0257209,15.3254225 L22.0257209,11.4628457 L22.9503305,11.4628457 L22.9503305,15.3459857 Z M17.0534657,12.0995705 C17.3663201,12.5354369 17.4180953,13.1361761 17.4030401,13.6612721 L14.8142801,13.6818353 C14.7981233,14.0299409 14.9009393,14.4048521 15.2251769,14.6266409 C15.5068193,14.8006937 15.9283649,14.7283553 16.1703497,14.5653185 C16.3139249,14.4459785 16.4013185,14.3174585 16.4376713,14.1749849 L17.3619137,14.1749849 C17.2488161,14.6923697 16.7861441,15.2215049 16.2526025,15.3871121 C15.4869905,15.5659385 14.6960417,15.3911513 14.1981185,14.7503873 C13.7611505,14.1738833 13.7659241,13.2646961 13.9311641,12.5927201 C14.1511169,11.9905121 14.7470825,11.4055625 15.3896825,11.3600297 C16.0205321,11.2513385 16.6781873,11.5285745 17.0534657,12.0995705 L17.0534657,12.0995705 Z M13.8893033,11.3600297 L13.9098665,12.3052025 C13.6631081,12.2677481 13.3036193,12.2475521 13.0675097,12.4282145 C12.7278497,12.6786449 12.6610193,13.0950497 12.6360497,13.5173297 L12.6360497,15.3250553 C12.3415553,15.3191801 12.0470609,15.3191801 11.7525665,15.3250553 L11.7525665,11.4419153 L12.5743601,11.4419153 C12.6305417,11.6310233 12.5795009,11.8568513 12.6151193,12.0584441 C12.8049617,11.7393473 13.1545361,11.3949137 13.5195329,11.3390993 C13.6833041,11.3130281 13.7762057,11.3486465 13.8893033,11.3600297 L13.8893033,11.3600297 Z M24.6563417,11.4419153 L25.2930665,11.4628457 L25.3139969,12.1406969 L24.6769049,12.1612601 C24.6710297,12.9309113 24.6196217,13.7681273 24.7172969,14.5241921 C24.8759273,14.6820881 25.1124041,14.6306801 25.3139969,14.6475713 L25.3139969,15.4282385 C24.8509577,15.4065737 24.2087249,15.5967833 23.9373641,15.0992273 C23.6847305,14.2146425 23.8488689,13.1618801 23.7930545,12.2023865 C23.6483777,12.1190321 23.4478865,12.1704401 23.2591457,12.1612601 L23.2591457,11.4830417 C23.4174089,11.4257585 23.6487449,11.4980969 23.7930545,11.4213521 L23.7930545,10.4765465 L24.6357785,10.4765465 L24.6563417,11.4419153 Z M22.9503305,10.9693289 L22.0257209,10.9902593 L22.0257209,10.1269721 L22.9503305,10.1269721 L22.9503305,10.9693289 Z M21.3276737,15.3459857 L20.4643865,15.3459857 L20.4232601,14.9762153 C20.0938817,15.4065737 19.5489569,15.4991081 19.0058681,15.4488017 C18.4969289,15.3503921 17.9931305,14.8778057 17.8345001,14.3806169 C17.6079377,13.5162281 17.6130785,12.4741145 18.2039033,11.7914897 C18.5733065,11.3794913 19.1079497,11.2766753 19.6220297,11.4011561 C19.9139537,11.4668849 20.1911897,11.5898969 20.3615705,11.8737425 L20.4026969,11.8326161 L20.4026969,10.1269721 L21.3273065,10.1269721 L21.3273065,15.3459857 L21.3276737,15.3459857 Z M11.0130257,10.9080065 C11.1668825,11.1896489 11.3361617,11.4720257 11.3211065,11.8326161 L10.2734849,11.8326161 C10.2676097,11.4929561 10.0006553,11.1896489 9.69771528,11.0519489 C9.36907128,10.8507233 8.80872408,10.8705521 8.48522088,11.1132713 C7.77138408,11.7081353 7.70418648,12.8174465 7.99243848,13.6612721 C8.17199928,14.0659265 8.56233288,14.5076681 9.04006008,14.5076681 C9.51264648,14.5796393 9.87250248,14.3328809 10.1086121,13.9902833 C10.1908649,13.7736353 10.3138769,13.5830585 10.3138769,13.3531913 L11.3618657,13.3326281 C11.3563577,14.1434057 10.8734897,14.9494097 10.1086121,15.2842961 C9.23504328,15.5916425 8.10516888,15.4785449 7.45816248,14.7503873 C6.69255048,13.9274921 6.62572008,12.5817041 6.94444968,11.5447313 C7.15448808,10.9274681 7.74053928,10.2800945 8.36184168,10.1064089 C9.34336728,9.78253848 10.4166929,10.0491257 11.0130257,10.9080065 L11.0130257,10.9080065 Z" id="Fill-8" fill="#FEFEFE"></path>
            <path d="M20.259085,12.654373 C20.4948274,13.1515618 20.4742642,13.834921 20.1973954,14.3185234 C20.0068186,14.5997986 19.667893,14.7029818 19.3139122,14.6266042 C18.9378994,14.517913 18.7689874,14.1018754 18.6977506,13.7636842 C18.676453,13.2081106 18.6871018,12.5555962 19.190533,12.2846026 C19.590781,12.0727282 20.0784226,12.2526562 20.259085,12.654373 M16.3344514,12.5721202 C16.385125,12.689257 16.4519554,12.8280586 16.416337,12.962821 L14.8348066,12.9833842 C14.8237906,12.6742018 14.998945,12.3866842 15.2662666,12.202717 C15.6613738,12.0011242 16.1438746,12.1553482 16.3344514,12.5721202" id="Fill-10" fill="#C23E40"></path>
            <g id="Group-14" transform="translate(0.000000, 19.714601)">
                <mask id="mask-4" fill="white">
                    <use xlink:href="#path-3"></use>
                </mask>
                <g id="Clip-13"></g>
                <path d="M31.0463194,1.05834384 L31.0463194,1.05834384 L31.025389,8.47321344 C30.997849,8.75265264 30.6291802,9.20614464 30.245089,9.29500704 L30.0188938,9.33613344 L2.07534096,9.31557024 C1.63323216,9.34164144 1.11951936,9.02034144 1.06811136,8.57602944 L1.02698496,8.34983424 L1.04791536,1.05577344 C1.87999056,1.01317824 31.0397098,1.05834384 31.0463194,1.05834384 L31.0463194,1.05577344 L31.0463194,1.05834384 Z M31.9914922,6.91151184 L31.9914922,0.04891104 L0.02085696,0.04891104 L-7.344e-05,8.22645504 L0.08217936,8.71997184 C0.24227856,9.55535184 1.14155136,10.1975846 1.91083536,10.240547 L29.9983306,10.2816734 C30.4977226,10.235039 30.9493786,10.0760414 31.313641,9.72646704 C32.1567322,8.99720784 31.9646866,7.94260944 31.9914922,6.91151184 L31.9914922,6.91151184 Z" id="Fill-12" fill="#1C5A98" mask="url(#mask-4)"></path>
            </g>
            <path d="M23.423688,23.1335633 C24.0236928,23.4765281 24.6196584,24.0769001 24.6769416,24.7771505 C24.7628664,25.5409265 24.2495208,26.1416657 23.6289528,26.5646801 C21.4808328,27.8164649 18.9280584,28.1138969 16.2728352,28.2086345 C13.6734264,28.2427841 11.120652,27.8836625 8.8961544,26.8525649 C8.172036,26.4401993 7.2525672,25.7259953 7.314624,24.7771505 C7.5657888,23.2191209 9.266292,22.7516753 10.4582232,22.3117697 C14.2231248,21.2571713 18.9078624,21.2927897 22.498344,22.6609769 L23.423688,23.1335633 Z" id="Fill-15" fill="#1C5A98"></path>
            <path d="M23.0127545,23.1948857 C23.5870553,23.5121465 24.2700473,23.9847329 24.3886529,24.6743345 C24.5116649,25.3301537 24.1110497,25.8647969 23.5672265,26.2565993 C21.3937697,27.6005513 18.7330385,27.8010425 16.0264073,27.9211169 C13.4218577,27.8836625 10.9204913,27.5752145 8.75290968,26.4416681 C8.12609928,26.0542721 7.46881128,25.4024921 7.62303528,24.5920817 C8.04384648,23.3887673 9.34373448,23.0189969 10.3557377,22.6400465 C14.2796369,21.4572953 19.3492001,21.5656193 23.0127545,23.1948857" id="Fill-17" fill="#FEFEFE"></path>
            <path d="M22.8477715,23.4003708 C23.3761723,23.6662236 23.9875603,24.0925428 24.1421515,24.6943836 C24.2490067,25.2069948 23.9567155,25.633314 23.5667491,25.9685676 C22.2257347,26.9225532 20.5972027,27.2100708 18.9437011,27.4685796 C15.5889619,27.9037116 11.8754683,27.6977124 8.95806432,26.2975788 C8.47996992,25.987662 7.89465312,25.530498 7.84838592,24.920946 C7.83296352,23.9486004 8.89123392,23.4657324 9.59478912,23.1536124 C13.6013083,21.7196964 18.9741787,21.7094148 22.8477715,23.4003708" id="Fill-19" fill="#1C5A98"></path>
            <path d="M18.3069029,22.845605 C18.3836477,22.8287138 18.4398293,22.849277 18.4714085,22.9072946 C18.3472949,23.3475674 17.8493717,23.4500162 17.4234197,23.4823298 C16.6625813,23.5113386 15.9641669,23.2447514 15.2455565,23.071433 C15.1779917,23.3317778 14.8710125,23.3299418 14.7112805,23.5645826 C14.5287821,23.758097 14.3976917,23.9842922 14.2386941,24.1811114 C14.4487325,24.1741346 14.7208277,24.215261 14.8963493,24.1194218 C14.8805597,23.9538146 14.9473901,23.835209 15.0197285,23.728721 C15.1269509,23.6402258 15.2708933,23.5888178 15.3894989,23.6468354 C15.4967213,23.7224786 15.5279333,23.8561394 15.4713845,23.9754794 C15.4504541,24.1230938 15.2863157,24.195065 15.1633037,24.2835602 L15.3072461,24.4480658 C15.2811749,24.5288498 15.2040629,24.4770746 15.1221773,24.4682618 L14.9371085,24.3044906 L14.0947517,24.4069394 C13.5861797,25.2735314 12.9079613,26.7015722 11.6290037,26.5440434 C11.3719637,26.4504074 11.0536013,26.2543226 10.9515197,25.968641 C10.8380549,25.5614162 10.9974197,25.1556602 11.2801637,24.900089 C11.4545837,24.7811162 11.6135813,24.5850314 11.8350029,24.694457 C11.8911845,24.723833 11.9323109,24.7858898 11.8757621,24.8387666 C11.6649893,24.9397466 11.4340205,25.1611682 11.3624165,25.4138018 C11.3624165,25.5562754 11.3778389,25.695077 11.4652325,25.8048698 C11.6752709,25.9774538 11.9580149,26.0597066 12.2051405,25.9480778 C12.8106533,25.6333874 13.2369725,25.0014362 13.6225325,24.4895594 C13.3809149,24.4212602 13.1701421,24.575117 12.9446813,24.6738938 C12.8877653,24.5446394 13.0364813,24.4212602 13.1293829,24.3863762 C13.3552109,24.3030218 13.5913205,24.2820914 13.8072341,24.242801 C14.1615821,23.7944498 14.5669709,23.2961594 15.0608549,23.071433 L14.9991653,23.0101106 C14.2849613,22.849277 13.2575357,22.6337306 12.6366005,23.1948122 C12.4922909,23.3475674 12.3843341,23.5531994 12.4515317,23.7907778 C12.5539805,23.943533 12.7489637,23.9126882 12.8829917,23.8935938 C13.1242421,23.8050986 13.2986621,23.5737626 13.4995205,23.4419378 C13.5296309,23.7485498 13.3038029,24.026153 13.0474973,24.2435354 C12.8367245,24.3650786 12.5389253,24.4267682 12.2668301,24.3463514 C12.1485917,24.2674034 12.0303533,24.174869 11.9793125,24.0379034 C11.8757621,23.6101154 12.0916757,23.2506266 12.4104053,23.0101106 C13.7664749,22.1971298 15.3792173,22.957601 16.8285557,22.9899146 C17.3308853,22.9983602 17.8596533,22.977797 18.3069029,22.845605" id="Fill-21" fill="#FEFEFE"></path>
            <path d="M21.0809887,23.8321246 C20.7563839,24.405691 19.9867327,25.5671446 19.9096207,25.6813438 C19.8214927,25.8645766 19.5490303,26.0647006 19.7039887,26.2978726 C20.1453631,26.3217406 20.3862463,25.854295 20.6697247,25.599091 C20.7361879,25.599091 20.7824551,25.622959 20.8136671,25.6813438 C20.4942031,26.1216166 20.0429143,26.665807 19.4370343,26.585023 C19.3184287,26.4965278 19.2773023,26.342671 19.2317695,26.2156198 C19.0055743,26.4194158 18.7584487,26.6551582 18.4103431,26.5644598 C18.2965111,26.5020358 18.1419199,26.4352054 18.0813319,26.2978726 C17.9932039,26.111335 18.1059343,25.8954214 18.0604015,25.7217358 C17.8701919,25.874491 17.6285743,26.008519 17.3414239,25.927735 C17.1714103,25.8333646 17.1302839,25.6482958 17.1155959,25.4757118 L16.4164471,26.5442638 L16.0059175,26.5442638 L16.0059175,26.4825742 C16.2985759,26.054419 16.5805855,25.6332406 16.7869519,25.1881942 C16.8020071,25.0989646 16.8020071,25.0016566 16.7046991,24.9829294 C16.4726287,24.9829294 16.3239127,25.2223438 16.1289295,25.373263 C15.7180327,25.8183094 15.4198663,26.7073006 14.6494807,26.5853902 C14.4232855,26.517091 14.1306271,26.3375302 14.0950087,26.0720446 C13.9609807,26.1678838 13.8427423,26.3378974 13.6635487,26.3797582 C13.4781127,26.1065614 13.8992911,25.9986046 13.9921927,25.7841598 C14.1919495,25.3097374 14.6032135,24.688435 15.1837567,24.7156078 C15.2862055,24.668239 15.2755567,24.7761958 15.3071359,24.818791 C15.3478951,24.9664054 15.1422631,24.9043486 15.0603775,24.9832966 C14.7930559,25.1305438 14.5720015,25.4129206 14.5059055,25.7224702 C14.4901159,25.8906478 14.5363831,26.059927 14.6704111,26.1539302 C14.7724927,26.2145182 14.9267167,26.193955 15.0196183,26.1748606 C15.3067687,26.0191678 15.5068927,25.731283 15.5744575,25.4555158 C15.7125247,25.151107 15.2964871,24.7449838 15.7797223,24.7156078 C15.9078751,24.868363 15.8975935,25.0791358 15.9442279,25.2708142 C16.2163231,24.9458422 16.5394591,24.539719 16.9716535,24.6340894 C17.0531719,24.662731 17.1049471,24.7093654 17.1155959,24.7982278 C17.1306511,24.8735038 17.1100879,24.9664054 17.1361591,25.0449862 C17.3663935,24.8070406 17.6182927,24.6014086 17.9370223,24.695779 C18.0240487,24.7247878 18.0754567,24.776563 18.1015279,24.8602846 C18.1529359,24.9781558 18.1290679,25.1154886 18.0402055,25.2091246 C17.9627263,25.3207534 17.8033615,25.3207534 17.6700679,25.2913774 C17.5364071,25.228219 17.6645599,25.022587 17.5264927,25.0034926 C17.4332239,25.0945582 17.3869567,25.2179374 17.3417911,25.353067 C17.3568463,25.4694694 17.3821831,25.5777934 17.4853663,25.6611478 C18.1422871,25.736791 18.4606495,24.8845198 19.0265047,24.7369054 C19.2163471,24.6987166 19.4414407,24.688435 19.5813439,24.7982278 C19.6940743,24.8635894 19.7142703,24.9715462 19.7660455,25.0651822 C20.0836735,24.6583246 20.3462215,24.179863 20.6704591,23.7917326 L21.0809887,23.8321246 Z" id="Fill-23" fill="#FEFEFE"></path>
            <path d="M19.4780873,25.1262842 C19.5342689,25.237913 19.3954673,25.4119658 19.4990177,25.5166178 C19.2875105,25.7769626 19.0458929,26.2756202 18.6155345,26.174273 C18.5068433,26.100833 18.5068433,25.9205378 18.5332817,25.8048698 C18.6405041,25.4846714 18.8872625,25.1248154 19.2111329,25.0238354 C19.3334105,24.9962954 19.4365937,25.0374218 19.4780873,25.1262842" id="Fill-25" fill="#1C5A98"></path>
        </g>
    </g>
</svg>