<?xml version="1.0" encoding="UTF-8"?>
<svg width="42px" height="42px" viewBox="0 0 42 42" version="1.1" xmlns="http://www.w3.org/2000/svg" xmlns:xlink="http://www.w3.org/1999/xlink">
    <title>[44088] Volkswagen</title>
    <defs>
        <polygon id="path-1" points="0 -2.26115073e-05 29.5115 -2.26115073e-05 29.5115 29.45085 0 29.45085"></polygon>
    </defs>
    <g id="[44088]-Volkswagen" stroke="none" stroke-width="1" fill="none" fill-rule="evenodd">
        <g id="Group-3" transform="translate(6.000000, 6.000000)">
            <mask id="mask-2" fill="white">
                <use xlink:href="#path-1"></use>
            </mask>
            <g id="Clip-2"></g>
            <path d="M22.8753,24.8635 C18.1633,28.696 11.5823,28.7535 6.7928,24.9865 C1.9008,21.1385 0.8643,14.9945 2.5183,10.573 C2.8293,11.1735 3.1263,11.7425 3.4198,12.3135 C5.5943,16.5535 7.7693,20.7935 9.9443,25.034 C9.9673,25.079 9.9938,25.1225 10.0163,25.1675 C10.1313,25.401 10.2548,25.6355 10.5643,25.6165 C10.8478,25.5995 10.9573,25.3735 11.0598,25.1485 C11.8578,23.395 12.6563,21.6425 13.4553,19.89 C13.8073,19.1175 14.1588,18.344 14.5173,17.5745 C14.5733,17.4545 14.5923,17.2635 14.7543,17.2605 C14.9208,17.257 14.9358,17.4495 14.9908,17.569 C16.1358,20.069 17.2778,22.571 18.4203,25.072 C18.5363,25.326 18.6293,25.616 18.9793,25.615 C19.3068,25.6145 19.4068,25.343 19.5288,25.105 C21.9763,20.335 24.4243,15.5655 26.8748,10.797 C26.9068,10.7355 26.9103,10.644 27.0038,10.625 C28.5828,14.7705 27.7448,20.902 22.8753,24.8635 M3.9423,7.607 C5.0668,5.9365 6.4898,4.5885 8.2093,3.544 C8.4598,3.392 8.5393,3.4205 8.6603,3.6865 C10.1018,6.8445 11.5653,9.993 13.0003,13.1545 C13.1948,13.5825 13.4153,13.784 13.9073,13.7465 C14.5263,13.699 15.1523,13.716 15.7733,13.7435 C16.1248,13.7585 16.2928,13.614 16.4323,13.308 C17.8913,10.116 19.3663,6.9315 20.8238,3.7385 C20.9598,3.4405 21.0483,3.3855 21.3493,3.5705 C23.0643,4.624 24.4833,5.9765 25.5978,7.6525 C25.7388,7.864 25.7613,8.0225 25.6373,8.26 C23.5018,12.3495 21.3778,16.445 19.2498,20.5385 C19.1938,20.646 19.1728,20.815 19.0273,20.8201165 C18.8508,20.8255 18.8403,20.635 18.7863,20.5175 C17.9898,18.7645 17.1948,17.0105 16.4103,15.2515 C16.2918,14.985 16.1418,14.8525 15.8368,14.872 C15.4698,14.8955 15.1003,14.8775 14.7323,14.8775 C14.3888,14.877 14.0448,14.896 13.7038,14.872 C13.3883,14.8495 13.2243,14.974 13.0968,15.26 C12.3198,17.0085 11.5268,18.75 10.7348,20.492 C10.6798,20.6125 10.6708,20.8045 10.5108,20.8165 C10.3168,20.8315 10.3048,20.6185 10.2403,20.494 C8.1268,16.436 6.0203,12.374 3.9018,8.3185 C3.7598,8.0465 3.7723,7.8595 3.9423,7.607 M10.9223,2.334 C12.1803,1.9505 13.4608,1.727 14.7353,1.759 C16.1128,1.734 17.4048,1.9615 18.6713,2.3645 C18.8993,2.4365 18.9393,2.5035 18.8363,2.726 C17.5603,5.4715 16.2943,8.2215 15.0258,10.9705 C14.9938,11.0395 14.9663,11.1105 14.9278,11.176 C14.8853,11.25 14.8568,11.3575 14.7533,11.3550428 C14.6513,11.353 14.6193,11.249 14.5828,11.1705 C14.3523,10.677 14.1233,10.183 13.8948,9.688 C12.8333,7.3885 11.7783,5.0855 10.7028,2.792 C10.5623,2.491 10.6513,2.417 10.9223,2.334 M29.2548,12.0685 C27.7808,4.1355 20.3998,-1.043 12.4483,0.178 C4.6433,1.376 -0.8992,8.6595 0.1208,16.5255 C0.8203,21.9155 3.7223,25.8 8.6133,28.1685 C10.1543,28.9155 11.7973,29.343 13.5168,29.4355 C14.0033,29.368 14.4893,29.4535 14.9758,29.451054 C15.3238,29.449 15.6718,29.337 16.0203,29.4355 C16.2343,29.4175 16.4493,29.4075 16.6623,29.3805 C24.8383,28.3495 30.8473,20.64 29.2548,12.0685" id="Fill-1" fill="#18224F" mask="url(#mask-2)"></path>
        </g>
    </g>
</svg>