<?xml version="1.0" encoding="UTF-8"?>
<svg width="42px" height="42px" viewBox="0 0 42 42" version="1.1" xmlns="http://www.w3.org/2000/svg" xmlns:xlink="http://www.w3.org/1999/xlink">
    <title>[44092] FCA Compañía Financiera</title>
    <defs>
        <polygon id="path-1" points="0.22919142 0.183547864 7.87074 0.183547864 7.87074 7.8 0.22919142 7.8"></polygon>
        <polygon id="path-3" points="0.05772 0.11547 8.7942 0.11547 8.7942 7.49127 0.05772 7.49127"></polygon>
    </defs>
    <g id="[44092]-FCA-Compañía-Financiera" stroke="none" stroke-width="1" fill="none" fill-rule="evenodd">
        <g id="Group-11" transform="translate(4.000000, 17.000000)">
            <polygon id="Fill-1" fill="#5C6CB2" points="10.1013 7.52268 10.1013 0.65838 16.8951 0.65838 16.8951 2.01438 11.5566 2.03268 11.5287 3.83538 16.6044 3.83538 16.6044 5.24988 11.5287 5.24988 11.5287 7.52268"></polygon>
            <g id="Group-10" transform="translate(0.000000, 0.184650)">
                <g id="Group-4" transform="translate(17.400000, 0.000000)">
                    <mask id="mask-2" fill="white">
                        <use xlink:href="#path-1"></use>
                    </mask>
                    <g id="Clip-3"></g>
                    <path d="M6.42834,3.23472 L7.87074,3.23472 C7.87074,3.23472 7.17714,0.21162 3.95994,0.18372 C0.74274,0.15612 0.27144,3.45672 0.27144,3.45672 C0.27144,3.45672 -0.32196,6.64992 2.93904,7.61712 C3.79854,7.87212 4.72224,7.87122 5.55804,7.54692 C6.45294,7.20012 7.49004,6.44202 7.87074,4.78812 L6.34524,4.78812 C6.34524,4.78812 5.77614,6.47982 4.04964,6.39672 C3.88584,6.38892 3.73224,6.36822 3.58794,6.33792 C1.91694,5.98512 1.07964,4.01982 2.00424,2.58342 C2.34054,2.06082 2.95524,1.63032 4.04964,1.54272 C4.04964,1.54272 5.81844,1.45962 6.42834,3.23472" id="Fill-2" fill="#5C6CB2" mask="url(#mask-2)"></path>
                </g>
                <g id="Group-7" transform="translate(25.200000, 0.000000)">
                    <mask id="mask-4" fill="white">
                        <use xlink:href="#path-3"></use>
                    </mask>
                    <g id="Clip-6"></g>
                    <polygon id="Fill-5" fill="#5C6CB2" mask="url(#mask-4)" points="0.05772 7.49127 4.43952 0.11547 8.79432 7.49127 7.10232 7.49127 4.42602 2.88897 1.69392 7.49127"></polygon>
                </g>
                <path d="M3.47052,0.54087 C2.20902,0.54087 1.10502,1.21377 0.49752,2.22057 L4.03182,2.22057 L3.66882,3.34917 L0.06402,3.34917 C0.02232,3.56367 0.00012,3.78477 0.00012,4.01127 C0.00012,4.21167 0.01782,4.40817 0.05082,4.59897 L3.14472,4.59897 L2.74152,5.80887 L0.50142,5.80887 C1.10952,6.81147 2.21172,7.48197 3.47052,7.48197 C5.38722,7.48197 6.94062,5.92797 6.94062,4.01127 C6.94062,2.09487 5.38722,0.54087 3.47052,0.54087" id="Fill-8" fill="#69C6B7"></path>
            </g>
        </g>
    </g>
</svg>