<?xml version="1.0" encoding="UTF-8"?>
<svg width="42px" height="42px" viewBox="0 0 42 42" version="1.1" xmlns="http://www.w3.org/2000/svg" xmlns:xlink="http://www.w3.org/1999/xlink">
    <title>[44090] Cordial Compañía Financiera</title>
    <defs>
        <polygon id="path-1" points="0 0.485013979 29.31016 0.485013979 29.31016 29.7822933 0 29.7822933"></polygon>
    </defs>
    <g id="[44090]-Cordial-Compañía-Financiera" stroke="none" stroke-width="1" fill="none" fill-rule="evenodd">
        <g id="Group-10" transform="translate(6.000000, 5.000000)">
            <g id="Group-3" transform="translate(0.000000, 1.299875)">
                <mask id="mask-2" fill="white">
                    <use xlink:href="#path-1"></use>
                </mask>
                <g id="Clip-2"></g>
                <path d="M19.9396973,1.31278125 C19.9396973,1.31278125 13.7099298,-0.83103625 8.28376725,1.78146375 C2.85812725,4.39396375 0.71430975,10.4230912 0.71430975,10.4230912 C0.71430975,10.4230912 -0.89290025,15.7813287 0.71430975,19.9352037 C2.32204225,24.0880337 6.87719725,29.8485963 14.6478173,29.7817163 C22.4179148,29.7148363 26.3037473,23.9542737 26.3037473,23.9542737 C26.3037473,23.9542737 32.9337498,15.8795588 26.5038648,6.81418375 C26.3732398,6.63078625 26.2034273,6.47821625 26.0106248,6.36169875 L25.2984573,5.93481625 L23.1546398,9.75272375 C23.1546398,9.75272375 25.0978173,12.2084737 25.0304148,15.1334287 L25.9014223,15.1334287 L25.6333798,23.2175487 L23.8918873,21.3417737 C23.8918873,21.3417737 20.9590948,27.8395837 14.6551323,27.8395837 C8.35064725,27.8395837 2.38892225,25.1602037 1.78647975,15.7813287 C1.78647975,15.7813287 2.32204225,6.67154125 10.8962673,4.86316875 C10.8962673,4.86316875 15.5183023,3.65723875 20.2077398,6.73842125 L21.8823523,3.65723875 L19.2029723,1.98262625 L19.9396973,1.31278125 Z" id="Fill-1" fill="#007CA7" mask="url(#mask-2)"></path>
            </g>
            <path d="M20.6096467,3.215256 L22.6860618,4.688706 L19.1189542,12.3961035 C18.9841493,12.6887035 18.8321017,12.972421 18.6628117,13.2467335 C17.8085243,14.6386735 15.1035417,18.797251 12.9560667,19.417981 C12.9560667,19.417981 16.0968143,18.750226 19.5578543,14.9375435 C19.9094967,14.5498485 20.2313568,14.135506 20.5223892,13.7002635 C21.6436743,12.0240835 24.5242168,7.2139485 24.9636392,6.0957985 L27.5092592,7.5692485 L26.0358092,0.0003135 L20.6096467,3.215256 Z" id="Fill-4" fill="#007CA7"></path>
            <path d="M20.107054,16.9477055 L25.164854,17.416388 L24.829409,22.574508 L23.289079,20.899373 C23.289079,20.899373 18.908439,23.4246155 15.049254,23.7799155 C11.1195315,24.143053 6.9938715,24.0986405 4.0636915,22.641388 C4.0636915,22.641388 10.0776665,24.010338 14.178769,22.775148 C18.174849,21.5728755 18.1983615,21.346633 21.6144665,18.8903605 L20.107054,16.9477055 Z" id="Fill-6" fill="#007CA7"></path>
            <path d="M9.958641,8.84231975 L15.3848035,9.31100225 L14.614116,12.9951497 L12.7054235,11.6559822 C12.7054235,11.6559822 10.2339985,13.5761698 9.958641,15.9430948 C9.679626,18.3418923 9.958641,21.7705373 9.958641,21.7705373 C9.958641,21.7705373 8.485191,16.7466997 9.0876335,14.2684822 C9.6905985,11.7897422 11.5444285,10.4500522 11.5444285,10.4500522 L9.958641,8.84231975 Z" id="Fill-8" fill="#007CA7"></path>
        </g>
    </g>
</svg>