<?xml version="1.0" encoding="UTF-8"?>
<svg width="42px" height="42px" viewBox="0 0 42 42" version="1.1" xmlns="http://www.w3.org/2000/svg" xmlns:xlink="http://www.w3.org/1999/xlink">
    <title>[44098] PSA Finance ARG Compañía Financiera</title>
    <defs>
        <polygon id="path-1" points="0.000127140804 0.000128 33.5541835 0.000128 33.5541835 11.2545206 0.000127140804 11.2545206"></polygon>
    </defs>
    <g id="[44098]-PSA-Finance-ARG-Compañía-Financiera" stroke="none" stroke-width="1" fill="none" fill-rule="evenodd">
        <g id="Group-3" transform="translate(4.000000, 15.000000)">
            <mask id="mask-2" fill="white">
                <use xlink:href="#path-1"></use>
            </mask>
            <g id="Clip-2"></g>
            <path d="M2.927168,6.861888 C3.183808,6.381568 3.423488,5.919168 3.681088,5.466688 C3.721088,5.396288 3.843328,5.333248 3.927808,5.332928 C5.289088,5.325568 6.650688,5.340928 8.011968,5.322368 C8.363328,5.317568 8.728128,5.258368 9.061248,5.147648 C9.703168,4.934528 10.063168,4.342848 10.050688,3.668928 C10.027328,2.443648 9.291008,1.964928 8.285888,1.862208 C7.862208,1.819008 7.431488,1.842368 7.003968,1.841728 C5.415488,1.839168 3.827328,1.838848 2.238848,1.838208 C1.859008,1.837888 1.767488,1.922048 1.767168,2.294528 C1.766528,4.982528 1.765248,7.670208 1.770368,10.358528 C1.771328,10.994048 1.770368,11.004928 1.144768,11.001728 C0.883008,11.000128 0.621248,11.007488 0.359488,11.003328 C0.099008,10.999168 0.003328,10.889728 0.003328,10.635648 C0.003648,7.310528 0.003008,3.985728 0.000127140804,0.660608 C0.000127140804,0.360768 0.088768,0.278848 0.444608,0.279168 C2.957888,0.280448 5.471488,0.286528 7.985088,0.278848 C8.680768,0.276608 9.371968,0.304768 10.007488,0.605248 C10.371008,0.777088 10.694848,1.031808 11.068288,1.269568 C11.500928,0.870208 12.070848,0.598848 12.676288,0.397888 C13.563648,0.103488 14.481728,0.012608 15.411008,0.001408 C17.004288,-0.017792 18.564288,0.157888 20.040128,0.809408 C20.239168,0.897088 20.428928,1.005568 20.620608,1.108928 C20.805248,1.208768 20.859328,1.362048 20.763008,1.548608 C20.607808,1.850368 20.444288,2.148288 20.278208,2.443968 C20.192128,2.596608 20.073088,2.633728 19.904448,2.549248 C18.065088,1.631168 16.116608,1.388288 14.097088,1.654848 C13.687168,1.708608 13.275008,1.825088 12.890688,1.979008 C12.427968,2.164288 12.060608,2.478848 12.058048,3.040128 C12.055808,3.471808 12.400768,3.895808 12.956928,4.041728 C13.518848,4.188928 14.099008,4.284608 14.677248,4.347008 C15.874048,4.475968 17.077248,4.545728 18.272768,4.682688 C19.115008,4.779328 19.930048,5.003648 20.697088,5.388608 C21.373888,5.728768 21.802048,6.246208 21.961088,6.987328 C21.967808,7.018048 21.992128,7.045568 22.016768,7.090368 C22.061248,7.062848 22.109888,7.050368 22.125568,7.020288 C23.259648,4.861888 24.391808,2.702528 25.520448,0.541248 C25.620928,0.349248 25.748608,0.268608 25.975808,0.275648 C26.560128,0.293888 27.145408,0.291328 27.729728,0.277888 C27.940288,0.273088 28.067968,0.336128 28.166848,0.525888 C28.762048,1.668608 29.365568,2.807168 29.967488,3.946688 C31.135168,6.157248 32.304768,8.366848 33.472128,10.577408 C33.636288,10.888128 33.557888,11.004288 33.203008,11.001408 C32.827968,10.997888 32.452608,10.993408 32.077568,11.003008 C31.858688,11.008768 31.723328,10.926848 31.626048,10.726208 C31.339648,10.139008 31.034048,9.561408 30.743808,8.975808 C30.607168,8.700928 30.428928,8.573568 30.091968,8.577088 C28.320448,8.597568 26.548928,8.587008 24.777408,8.586048 C24.752768,8.586048 24.727808,8.573888 24.673408,8.559168 C24.826688,8.262528 25.005248,7.985408 25.117888,7.683328 C25.313728,7.156608 25.635008,6.978368 26.214208,7.016128 C27.196608,7.080128 28.185728,7.033728 29.171968,7.032768 C29.585728,7.032128 29.651008,6.925568 29.462848,6.571328 C28.715008,5.162688 27.967488,3.754048 27.222528,2.344128 C27.145088,2.197568 27.063168,2.086848 26.871488,2.083648 C26.668928,2.080448 26.573888,2.196288 26.492928,2.349888 C25.568128,4.107648 24.644288,5.865088 23.717888,7.621248 C23.169408,8.660608 22.613888,9.696128 22.068928,10.737088 C21.966208,10.933888 21.831488,11.010688 21.610688,11.002048 C21.235968,10.988288 20.860288,10.996928 20.484928,11.001408 C20.133568,11.005248 20.078528,10.923648 20.233088,10.618048 C20.247168,10.590208 20.248448,10.556288 20.267008,10.476288 C20.110208,10.548608 19.993728,10.613568 19.870208,10.658368 C18.496128,11.160128 17.071488,11.295168 15.620608,11.244608 C14.206208,11.195648 12.823808,10.980928 11.513408,10.425088 C11.114048,10.255488 10.738048,10.029568 10.356928,9.819968 C10.165888,9.715008 10.121728,9.564608 10.240128,9.361408 C10.406208,9.075008 10.552128,8.777088 10.707968,8.485248 C10.808128,8.298368 10.929408,8.249088 11.130368,8.373248 C13.367488,9.752768 15.790208,9.995328 18.314688,9.483008 C18.753088,9.394048 19.209088,9.192128 19.562048,8.919808 C20.528448,8.172608 20.317888,6.958528 19.166208,6.553088 C18.735168,6.401408 18.270208,6.318528 17.813888,6.273088 C16.529088,6.145408 15.239808,6.064768 13.954048,5.943168 C13.137088,5.866048 12.328448,5.730368 11.558528,5.421248 C11.501568,5.398528 11.376128,5.427008 11.345408,5.473408 C10.661568,6.507008 9.609408,6.831808 8.471168,6.865088 C6.657408,6.918208 4.841088,6.887488 3.026048,6.891008 C3.001088,6.891008 2.976448,6.876928 2.927168,6.861888" id="Fill-1" fill="#1B335E" mask="url(#mask-2)"></path>
        </g>
    </g>
</svg>