<?xml version="1.0" encoding="UTF-8"?>
<svg width="42px" height="42px" viewBox="0 0 42 42" version="1.1" xmlns="http://www.w3.org/2000/svg" xmlns:xlink="http://www.w3.org/1999/xlink">
    <title>[44096] John Deere Compañía Financiera</title>
    <defs>
        <polygon id="path-1" points="0 0.3972 30.468 0.3972 30.468 27.9999353 0 27.9999353"></polygon>
    </defs>
    <g id="[44096]-John-Deere-Compañía-Financiera" stroke="none" stroke-width="1" fill="none" fill-rule="evenodd">
        <g id="Group-8" transform="translate(6.000000, 7.000000)">
            <g id="Group-3" transform="translate(0.000000, 0.002840)">
                <mask id="mask-2" fill="white">
                    <use xlink:href="#path-1"></use>
                </mask>
                <g id="Clip-2"></g>
                <path d="M15.66236,27.99924 C10.81676,28.01564 6.63436,27.08764 2.64436,25.25844 C2.28756,25.09484 2.07956,24.87324 1.94476,24.51444 C-0.62524,17.68084 -0.65924,10.84724 1.90876,4.00364 C2.06956,3.57484 2.29516,3.30364 2.72476,3.10764 C7.60756,0.88004 12.71836,0.05244 18.05636,0.52564 C21.47316,0.82884 24.73036,1.70484 27.84556,3.13284 C28.17396,3.28364 28.37916,3.47764 28.51356,3.82204 C29.87076,7.30444 30.51436,10.90724 30.46556,14.64724 C30.42156,17.96924 29.77676,21.16364 28.64556,24.27684 C28.44516,24.82804 28.12676,25.15444 27.59436,25.39004 C23.64756,27.13764 19.52556,28.02844 15.66236,27.99924" id="Fill-1" fill="#377C3C" mask="url(#mask-2)"></path>
            </g>
            <path d="M15.4014,26.8892 C11.2082,26.9056 7.3166,26.084 3.5906,24.4476 C3.2006,24.2768 3.0042,24.0352 2.8638,23.6472 C0.5934,17.3604 0.5966,11.0792 2.8514,4.7884 C3.0118,4.3404 3.265,4.0976 3.6886,3.9148 C8.1862,1.9792 12.865,1.2036 17.7494,1.624 C20.8982,1.8952 23.9122,2.6604 26.8114,3.9088 C27.211,4.0808 27.4622,4.3092 27.615,4.7304 C29.1346,8.9152 29.6642,13.2048 29.093,17.6328 C28.8322,19.6536 28.3342,21.6068 27.6838,23.5316 C27.5098,24.0472 27.2138,24.3432 26.719,24.5512 C23.0586,26.0912 19.2546,26.9068 15.4014,26.8892" id="Fill-4" fill="#FDDE00"></path>
            <path d="M16.31548,8.1462 C15.63428,8.249 14.95348,8.3522 14.22428,8.4622 C14.55708,6.8694 14.79228,5.3566 13.11348,4.3914 C13.28228,4.9294 13.63148,5.4134 13.60108,6.0122 C13.58628,6.3018 13.61588,6.7306 13.32828,6.7622 C12.98668,6.8002 12.53708,6.837 12.30708,6.3382 C12.00348,5.681 11.45708,5.2542 10.64348,4.9994 C10.93828,5.4662 11.30508,5.7514 11.47108,6.1854 C11.61148,6.5522 11.56788,6.7378 11.16308,6.7894 C10.71508,6.8466 10.27588,7.0546 9.87668,6.575 C9.67828,6.337 9.30828,6.2214 8.93748,6.2678 C8.95748,6.3218 8.96028,6.3702 8.98508,6.3882 C9.85908,7.0486 9.85828,7.0466 8.98748,7.6154 C8.76908,7.7582 8.55908,7.9146 8.39548,8.1506 C9.17348,7.9506 9.94908,7.7418 10.72948,7.5534 C11.28348,7.4194 11.85028,7.4258 12.41348,7.4798 C12.79908,7.517 13.14828,7.675 13.17708,8.1038 C13.20668,8.539 12.96108,8.7518 12.50148,8.8646 C11.47588,9.1158 10.47228,9.4554 9.46148,9.7662 C9.28228,9.8214 9.01908,9.8262 9.04828,10.1086 C9.07668,10.3826 9.25508,10.5362 9.53788,10.5814 C9.93748,10.6454 10.33348,10.7326 10.73188,10.8054 C10.98868,10.853 11.15748,10.9338 11.00508,11.2466 C10.42828,12.4302 10.04908,13.6746 9.88988,14.983 C9.84948,15.313 9.64628,15.3302 9.37228,15.3566 C8.25188,15.4662 7.12508,15.5502 6.04108,15.8902 C5.38108,16.0978 5.31668,16.2562 5.75588,16.819 C6.48348,17.7514 7.38348,18.5074 8.32468,19.2134 C9.15348,19.8346 10.02188,20.3946 11.08108,20.9318 C10.73188,20.251 10.51708,19.6902 9.79748,19.4606 C8.60548,19.0794 7.90988,18.1154 7.30108,17.0942 C7.07148,16.7098 7.37348,16.7502 7.60748,16.7706 C8.60308,16.857 9.55948,17.1206 10.48588,17.4754 C12.09148,18.0914 13.73228,18.1794 15.40708,17.8762 C16.30388,17.7142 17.20708,17.7598 18.10908,17.7622 C18.32388,17.7626 18.49868,17.8154 18.64028,17.9942 C19.62908,19.2386 21.00708,19.8278 22.47668,20.2622 C22.73628,20.3386 22.98468,20.4702 23.24788,20.511 C24.91348,20.7706 25.69788,22.0406 26.50908,23.297 C26.79628,23.7418 26.43908,23.775 26.18828,23.8866 C23.84388,24.9262 21.38668,25.5878 18.85108,25.901 C13.85028,26.5174 9.00668,25.8894 4.35308,23.9082 C3.93068,23.7286 3.68148,23.4942 3.52188,23.0374 C1.45028,17.1118 1.47348,11.199 3.55028,5.2818 C3.68108,4.9086 3.88188,4.697 4.24508,4.541 C8.69308,2.6322 13.32388,1.9686 18.13348,2.4366 C20.93868,2.7094 23.62108,3.4342 26.21348,4.5198 C26.51268,4.645 26.76188,4.7902 26.88348,5.1286 C28.95148,10.8898 29.05748,16.6786 27.14668,22.4986 C27.12748,22.5562 27.07828,22.6038 26.99108,22.733 C26.68668,22.2394 26.38948,21.8022 26.13668,21.3398 C25.75708,20.6466 25.25628,20.1066 24.50668,19.8018 C23.58548,19.4266 23.04708,18.7526 22.84508,17.753 C22.63428,16.7106 22.25228,15.7198 21.53148,14.9066 C21.58148,14.8566 21.60508,14.817 21.63908,14.8018 C22.53068,14.405 22.55708,14.3562 22.07388,13.5034 C21.57548,12.6242 20.84748,11.9802 19.93948,11.5206 C20.31428,12.1862 20.72348,12.8234 20.87388,13.577 C21.02748,14.3458 20.91868,14.4434 20.16628,14.299 C18.69668,14.0166 17.21028,13.955 15.71748,13.9982 C15.40148,14.007 15.08468,14.0066 14.76908,13.9918 C13.70348,13.9414 13.14548,13.3422 13.23308,12.2794 C13.30348,11.427 13.46948,10.5878 13.71588,9.7646 C13.78828,9.5234 13.85588,9.3234 14.15548,9.3758 C15.16108,9.5506 15.69628,8.8158 16.31548,8.1462" id="Fill-6" fill="#397C3C"></path>
        </g>
    </g>
</svg>