<?xml version="1.0" encoding="UTF-8"?>
<svg width="42px" height="42px" viewBox="0 0 42 42" version="1.1" xmlns="http://www.w3.org/2000/svg" xmlns:xlink="http://www.w3.org/1999/xlink">
    <title>[44093] GPAT Compañía Financiera</title>
    <defs>
        <polygon id="path-1" points="0 0.02394 8.22246774 0.02394 8.22246774 11.76 0 11.76"></polygon>
    </defs>
    <g id="[44093]-GPAT-Compañía-Financiera" stroke="none" stroke-width="1" fill="none" fill-rule="evenodd">
        <g id="Group-10" transform="translate(5.000000, 15.000000)">
            <path d="M20.796804,2.132172 C20.612844,2.711352 20.432244,3.277932 20.252484,3.844092 C19.416264,6.480852 18.579204,9.117192 17.748024,11.755212 C17.695104,11.923212 17.627064,11.987892 17.442684,11.980752 C17.006724,11.963952 16.569084,11.967312 16.132704,11.979072 C15.948744,11.984112 15.923964,11.938332 15.982344,11.769072 C16.842924,9.257472 17.697624,6.743352 18.553584,4.230072 C18.941664,3.091452 19.333944,1.954512 19.710264,0.812532 C19.768644,0.636552 19.846344,0.591192 20.021484,0.594972 C20.546484,0.607152 21.072744,0.607152 21.597744,0.594972 C21.767424,0.590772 21.840504,0.642432 21.895104,0.803292 C22.763664,3.359412 23.638944,5.913432 24.512544,8.467452 C24.882564,9.548952 25.253004,10.630032 25.623444,11.711952 C25.714164,11.975292 25.714584,11.975292 25.445364,11.975712 C25.023264,11.975712 24.601584,11.968152 24.179904,11.979072 C24.015684,11.983272 23.939664,11.943792 23.886744,11.772432 C23.514624,10.567872 23.124024,9.368352 22.748124,8.164632 C22.707384,8.034432 22.654044,7.992012 22.519644,7.993692 C21.882924,8.000832 21.245784,7.992012 20.609484,7.999992 C20.440644,8.002092 20.409984,7.964712 20.468364,7.803432 C20.583864,7.484652 20.685504,7.160832 20.777484,6.834072 C20.815284,6.700932 20.880804,6.668172 21.011004,6.671112 C21.381024,6.679512 21.751044,6.671952 22.121064,6.675312 C22.221864,6.676572 22.274784,6.665232 22.235724,6.543432 C21.769104,5.089812 21.305844,3.634932 20.840484,2.180892 C20.836704,2.168292 20.822004,2.159052 20.796804,2.132172" id="Fill-1" fill="#17467A"></path>
            <path d="M29.152074,6.940416 C29.152074,8.546076 29.149134,10.152156 29.156274,11.758656 C29.156694,11.931276 29.113854,11.985456 28.937034,11.979576 C28.530474,11.966136 28.122654,11.965716 27.716094,11.979576 C27.533394,11.986296 27.498114,11.922456 27.498534,11.754036 C27.503154,8.571696 27.499374,5.389356 27.506934,2.206596 C27.507774,1.984836 27.465774,1.910076 27.225954,1.915536 C26.441814,1.933176 25.657254,1.918056 24.872694,1.925616 C24.721074,1.926876 24.666894,1.892856 24.674034,1.733256 C24.687054,1.422456 24.689574,1.110816 24.673614,0.800856 C24.663954,0.620256 24.726534,0.585396 24.894534,0.585816 C27.019314,0.591696 29.143254,0.588336 31.268034,0.591696 C31.501974,0.591696 31.814454,0.490056 31.947174,0.635796 C32.063094,0.763056 31.982454,1.070916 31.982874,1.298976 C31.983294,1.498056 32.052174,1.763496 31.951794,1.878156 C31.835454,2.011716 31.562874,1.918056 31.358754,1.920156 C30.707334,1.926036 30.055914,1.929396 29.404914,1.917636 C29.210034,1.914276 29.144934,1.955436 29.146614,2.166696 C29.156694,3.758076 29.152074,5.349036 29.152074,6.940416" id="Fill-3" fill="#17467A"></path>
            <path d="M15.157548,4.16325 C15.038688,4.74747 14.676228,5.09271 14.115948,5.24811 C13.843368,5.32413 13.564488,5.35227 13.282248,5.35185 C12.926928,5.35101 12.571608,5.33925 12.217128,5.35647 C12.010908,5.36613 11.936148,5.32119 11.945388,5.09649 C11.964708,4.60929 11.951268,4.11999 11.951268,3.63153 C11.951268,3.11409 11.953368,2.59623 11.949588,2.07837 C11.948748,1.97337 11.962188,1.91499 12.090288,1.91961 C12.688368,1.94145 13.288128,1.88559 13.885788,1.96581 C14.663208,2.06955 15.135708,2.56263 15.187788,3.34677 C15.205848,3.61893 15.212988,3.89151 15.157548,4.16325 M16.889208,2.50719 C16.667448,1.66677 16.133208,1.12581 15.316728,0.84819 C14.770308,0.66255 14.203728,0.61215 13.635048,0.60291 C12.599328,0.58653 11.563188,0.59787 10.527888,0.584776313 C10.345188,0.58275 10.29688,0.62475 10.297728,0.81207 C10.305708,2.63193 10.302348,4.45179 10.302348,6.27207 C10.302348,8.09193 10.306548,9.91221 10.29688,11.73207 C10.296048,11.94459 10.361568,11.98659 10.554348,11.97945 C10.946208,11.96559 11.338908,11.96349 11.730768,11.98029 C11.924808,11.98869 11.956308,11.92149 11.955468,11.74467 C11.948328,10.25745 11.950848,8.77023 11.952108,7.28343 C11.952528,7.09233 11.889528,6.83949 11.986128,6.72567 C12.099528,6.59211 12.360768,6.68451 12.557328,6.68157 C13.288128,6.67191 14.021868,6.71727 14.743008,6.54045 C15.880368,6.26199 16.691808,5.63535 16.943808,4.43877 C17.079048,3.79491 17.058048,3.14685 16.889208,2.50719" id="Fill-5" fill="#17467A"></path>
            <g id="Group-9" transform="translate(0.000000, 0.395934)">
                <mask id="mask-2" fill="white">
                    <use xlink:href="#path-1"></use>
                </mask>
                <g id="Clip-8"></g>
                <path d="M6.233766,2.270268 C5.618046,1.022448 3.195066,0.938028 2.394126,2.604588 C2.092146,3.234588 1.936326,3.898608 1.889706,4.587408 C1.807386,5.807928 1.815366,7.025508 2.129946,8.221248 C2.205126,8.507688 2.308866,8.784048 2.444106,9.046968 C2.899806,9.935268 3.633546,10.399368 4.626426,10.435908 C5.235846,10.458588 5.834346,10.377528 6.411846,10.165428 C6.612606,10.091088 6.707526,9.985248 6.703746,9.746688 C6.688626,8.666448 6.693666,7.586208 6.700806,6.505968 C6.702066,6.337128 6.665946,6.278748 6.484506,6.282108 C5.810826,6.293868 5.137566,6.282108 4.463886,6.290088 C4.310586,6.291768 4.259766,6.251448 4.265646,6.093948 C4.277826,5.776428 4.273626,5.457648 4.266906,5.139708 C4.264806,5.014548 4.287066,4.954908 4.434066,4.955748 C5.640306,4.960788 6.846546,4.961208 8.052786,4.955328 C8.198946,4.954488 8.220786,5.009088 8.220366,5.135928 C8.217426,6.941508 8.216166,8.747088 8.22246774,10.552668 C8.222886,10.694208 8.147286,10.748808 8.056566,10.810128 C7.013286,11.509848 5.855766,11.791668 4.610886,11.757228 C3.924606,11.738328 3.260586,11.618628 2.635206,11.322948 C1.560426,10.814748 0.884226,9.951648 0.524286,8.848728 C-0.109494,6.903708 -0.189294,4.923828 0.397446,2.960328 C1.074066,0.695688 2.828826,-0.099792 4.906566,0.039228 C5.654166,0.089628 6.362706,0.276528 6.994806,0.697368 C7.536606,1.058568 7.536186,1.061088 7.073346,1.492008 C6.798246,1.749468 6.521046,2.003988 6.233766,2.270268" id="Fill-7" fill="#03A855" mask="url(#mask-2)"></path>
            </g>
        </g>
    </g>
</svg>