<?xml version="1.0" encoding="UTF-8"?>
<svg width="42px" height="42px" viewBox="0 0 42 42" version="1.1" xmlns="http://www.w3.org/2000/svg" xmlns:xlink="http://www.w3.org/1999/xlink">
    <title>[44099] Toyota Compañía Financiera</title>
    <defs>
        <polygon id="path-1" points="0 3.2874329e-05 32.2698693 3.2874329e-05 32.2698693 20.8532928 0 20.8532928"></polygon>
    </defs>
    <g id="[44099]-Toyota-Compañía-Financiera" stroke="none" stroke-width="1" fill="none" fill-rule="evenodd">
        <g id="Group-3" transform="translate(5.000000, 11.000000)">
            <mask id="mask-2" fill="white">
                <use xlink:href="#path-1"></use>
            </mask>
            <g id="Clip-2"></g>
            <path d="M29.4162976,13.0595756 C28.9153896,14.1467516 28.1952616,15.0732956 27.3242016,15.8869316 C26.1159696,17.0160116 24.7191696,17.8463316 23.1966576,18.4737276 C22.0671896,18.9389396 20.8985336,19.2726196 19.6965096,19.4918396 C18.9969456,19.6194916 18.2935016,19.7126116 17.5834616,19.7603356 C17.4581376,19.7684836 17.3332016,19.7898236 17.1822696,19.7766316 C17.2470656,19.7289076 17.2932376,19.6959276 17.3382456,19.6613956 C17.7526296,19.3451756 18.0715656,18.9451476 18.3454936,18.5067076 C18.8091536,17.7644636 19.1253736,16.9578116 19.3733056,16.1228356 C19.6553816,15.1741756 19.8361896,14.2053396 19.9479336,13.2229236 C20.0511416,12.3138396 20.0942096,11.4024276 20.0837336,10.4879116 C20.0833456,10.4634676 20.0856736,10.4382476 20.0825696,10.4141916 C20.0751976,10.3521116 20.1015816,10.3299956 20.1628856,10.3202956 C20.3770616,10.2869276 20.5908496,10.2485156 20.8042496,10.2073876 C22.2425656,9.9330716 23.6416936,9.5338196 24.9667136,8.8994396 C25.7264176,8.5358836 26.4418896,8.1009356 27.0611376,7.5220396 C27.4945336,7.1169676 27.8561496,6.6591276 28.0796376,6.1015716 C28.1867256,5.8338516 28.2445376,5.5548796 28.2744136,5.2374956 C28.4206896,5.4039476 28.5328216,5.5587596 28.6430136,5.7147356 C29.2661416,6.5947196 29.7204896,7.5511396 29.9412616,8.6107676 C30.2617496,10.1519036 30.0731816,11.6344516 29.4162976,13.0595756 M16.8229816,16.2861836 C16.3713496,16.6384876 15.8898416,16.6380996 15.4401496,16.2819156 C15.1732056,16.0700676 14.9768776,15.7988556 14.8084856,15.5059156 C14.4934296,14.9584476 14.2916696,14.3667476 14.1349176,13.7583636 C13.9413056,13.0060316 13.8295616,12.2408956 13.7717496,11.4668356 C13.7515736,11.2006676 13.7438136,10.9341116 13.7306216,10.6683316 C13.7240256,10.5290396 13.7259656,10.5243836 13.8613776,10.5352476 C14.2551976,10.5666756 14.6486296,10.5942236 15.0436136,10.6093556 C15.7742176,10.6372916 16.5048216,10.6376796 17.2350376,10.6089676 C17.6249776,10.5934476 18.0137536,10.5658996 18.4025296,10.5356356 C18.5592816,10.5232196 18.5445376,10.5220556 18.5398816,10.6757036 C18.5367776,10.7746436 18.5309576,10.8731956 18.5266896,10.9717476 C18.4789656,12.0251676 18.3431656,13.0650076 18.0455696,14.0792396 C17.8701936,14.6779236 17.6470936,15.2564316 17.2905216,15.7747996 C17.1582136,15.9668596 17.0076696,16.1422356 16.8229816,16.2861836 M14.4457056,19.7444276 C13.9343216,19.6990316 13.4248776,19.6357876 12.9181496,19.5523676 C11.8499856,19.3769916 10.8047136,19.1123756 9.7858256,18.7472676 C8.3316016,18.2265716 6.9736016,17.5258436 5.7517896,16.5752436 C4.6840136,15.7441476 3.7791976,14.7691036 3.1176576,13.5810476 C2.6388656,12.7212396 2.3276896,11.8059476 2.2194376,10.8266356 C2.0828616,9.5881396 2.2687136,8.3954276 2.7591456,7.2500516 C3.0582936,6.5520396 3.4528896,5.9102876 3.9262496,5.3162596 C3.9409936,5.2976356 3.9565136,5.2797876 3.9755256,5.2565076 C4.0104456,5.2875476 4.0050136,5.3240196 4.0077296,5.3546716 C4.0686456,5.9805156 4.3355896,6.5171196 4.7232016,7.0005676 C5.1705656,7.5588996 5.7242416,7.9934596 6.3279696,8.3678796 C7.2223096,8.9223316 8.1864896,9.3208076 9.1855896,9.6389676 C10.1078656,9.9319076 11.0491536,10.1491876 12.0051856,10.3016716 C12.1883216,10.3307716 12.1887096,10.3296076 12.1867696,10.5173996 C12.1751296,11.5215436 12.2259576,12.5221956 12.3563256,13.5181916 C12.5142416,14.7252596 12.7722616,15.9098236 13.2107016,17.0493796 C13.4563056,17.6872516 13.7535136,18.2983516 14.1585856,18.8528036 C14.4433776,19.2427436 14.6614336,19.4588596 15.0936656,19.7805116 C14.8550456,19.7882716 14.6497936,19.7618876 14.4457056,19.7444276 M18.2787576,7.8871476 C18.1262736,7.8980116 17.9741776,7.9115916 17.8213056,7.9216796 C17.2598696,7.9581516 16.6972696,7.9639716 16.2188656,7.9728956 C15.4385976,7.9678516 14.7433016,7.9461236 14.0491696,7.8918036 C14.0192936,7.8894756 13.9901936,7.8859836 13.9607056,7.8817156 C13.9222936,7.8766716 13.8994016,7.8634796 13.9075496,7.8145916 C14.0868056,6.7697076 14.3331856,5.7473276 14.8946216,4.8289316 C15.0110216,4.6391996 15.1479856,4.4645996 15.3090056,4.3097876 C15.4126016,4.2100716 15.5255096,4.1227716 15.6527736,4.0556476 C15.9790816,3.8841516 16.3046136,3.8857036 16.6282056,4.0630196 C16.8579016,4.1883436 17.0383216,4.3695396 17.1966256,4.5740156 C17.4740456,4.9321396 17.6695976,5.3356596 17.8306176,5.7558636 C18.0820416,6.4119716 18.2430616,7.0925236 18.3563576,7.7851036 C18.3687736,7.8619276 18.3447176,7.8821036 18.2787576,7.8871476 M7.0430536,3.7219676 C7.3084456,3.3743196 7.6491096,3.1147476 8.0196496,2.8920356 C8.6873976,2.4904556 9.4106296,2.2176916 10.1552016,1.9992476 C11.0041456,1.7505396 11.8693856,1.5798196 12.7454896,1.4599276 C13.5975376,1.3431396 14.4530776,1.2721356 15.3124976,1.2476916 C15.5891416,1.2395436 15.8657856,1.2325596 16.2526216,1.2310076 C16.9677056,1.2348876 17.7918176,1.2686436 18.6132136,1.3505116 C19.8676176,1.4754476 21.1061136,1.6857436 22.3124056,2.0589996 C22.9879136,2.2685196 23.6432456,2.5261516 24.2508536,2.8924236 C24.6206176,3.1159116 24.9628336,3.3735436 25.2262856,3.7227436 C25.4311496,3.9935676 25.5591896,4.2915516 25.5498776,4.6391996 C25.5428936,4.9154556 25.4443416,5.1595076 25.2945736,5.3853236 C25.1040656,5.6736076 24.8503136,5.9001996 24.5717296,6.1000196 C24.0339616,6.4856916 23.4364416,6.7537996 22.8175816,6.9765116 C21.9849336,7.2768236 21.1278416,7.4824636 20.2563936,7.6330076 C20.1543496,7.6508556 20.0519176,7.6675396 19.9506496,7.6873276 C19.8846896,7.7001316 19.8567536,7.6834476 19.8447256,7.6105036 C19.7935096,7.3035956 19.7407416,6.9970756 19.6771096,6.6928836 C19.4629336,5.6654596 19.1626216,4.6655836 18.6943056,3.7223556 C18.4250336,3.1803196 18.1060976,2.6716516 17.6754176,2.2394196 C17.3898496,1.9522996 17.0689736,1.7175596 16.6801976,1.5910716 C16.1777376,1.4277236 15.6962296,1.4932956 15.2372256,1.7454956 C14.8127536,1.9782956 14.4845056,2.3170196 14.1969976,2.6995876 C13.7907616,3.2400716 13.4923896,3.8399196 13.2444576,4.4665396 C12.8805136,5.3884276 12.6403416,6.3436836 12.4723376,7.3187276 C12.4556536,7.4161156 12.4347016,7.5131156 12.4253896,7.6112796 C12.4176296,7.6849996 12.3842616,7.6997436 12.3183016,7.6873276 C12.1483576,7.6558996 11.9776376,7.6306796 11.8080816,7.5984756 C10.9785376,7.4413356 10.1602456,7.2407396 9.3679496,6.9466356 C8.7743096,6.7266396 8.2008456,6.4643516 7.6851936,6.0910956 C7.4279496,5.9048556 7.1928216,5.6953356 7.0085216,5.4334356 C6.6100456,4.8673436 6.6220736,4.2733156 7.0430536,3.7219676 M32.0702176,8.7915756 C31.8292696,7.7951916 31.3846216,6.8919276 30.7898176,6.0608316 C30.0343816,5.0046956 29.0961976,4.1359636 28.0392856,3.3894516 C26.8601536,2.5564156 25.5813056,1.9123356 24.2322296,1.4059956 C22.7395936,0.8457236 21.2007856,0.4689756 19.6231776,0.2443236 C18.8157496,0.1290876 18.0048296,0.0510996 17.1904176,0.0208356 C16.2324456,-0.0148604 15.2744736,-0.0074884 14.3172776,0.0654556 C13.6278016,0.1182236 12.9418176,0.1962116 12.2585496,0.3032996 C11.2730296,0.4577236 10.3022536,0.6769436 9.3469976,0.9640636 C7.7433936,1.4459596 6.2170016,2.1032316 4.8019656,3.0057196 C3.6659016,3.7305036 2.6423576,4.5852676 1.7976816,5.6417916 C0.8866576,6.7813476 0.2639176,8.0524356 0.0637096,9.5109276 C-0.0290224,10.1810036 -0.0204864,10.8514676 0.0881536,11.5180516 C0.2670216,12.6172556 0.6922696,13.6190716 1.3080256,14.5428996 C1.9633576,15.5264796 2.7832016,16.3564116 3.7132376,17.0804196 C4.8217536,17.9433316 6.0381336,18.6207796 7.3309496,19.1651436 C9.4405056,20.0528876 11.6447336,20.5503036 13.9188016,20.7571076 C14.6517336,20.8238436 15.3873816,20.8595396 16.1238056,20.8525556 C16.4943456,20.8502276 16.8644976,20.8447956 17.2350376,20.8292756 C17.8127696,20.8048316 18.3889496,20.7617636 18.9628016,20.6954156 C19.8160136,20.5968636 20.6622416,20.4544676 21.4999336,20.2624076 C23.1997616,19.8736316 24.8324656,19.3032716 26.3739896,18.4838156 C27.6823256,17.7885196 28.8785296,16.9422916 29.9020736,15.8644276 C30.6741936,15.0519556 31.3058576,14.1444236 31.7311056,13.1022556 C32.3022416,11.7023516 32.4260136,10.2648116 32.0702176,8.7915756" id="Fill-1" fill="#EC2024" mask="url(#mask-2)"></path>
        </g>
    </g>
</svg>