<?xml version="1.0" encoding="UTF-8"?>
<svg width="42px" height="42px" viewBox="0 0 42 42" version="1.1" xmlns="http://www.w3.org/2000/svg" xmlns:xlink="http://www.w3.org/1999/xlink">
    <title>[44094] Mercedes Benz Compañía Financiera</title>
    <defs>
        <polygon id="path-1" points="0 0.2484 30.9408 0.2484 30.9408 31.2 0 31.2"></polygon>
    </defs>
    <g id="[44094]-Mercedes-Benz-Compañía-Financiera" stroke="none" stroke-width="1" fill="none" fill-rule="evenodd">
        <g id="Group-16" transform="translate(6.000000, 5.000000)">
            <g id="Group-3" transform="translate(0.000000, 0.351900)">
                <mask id="mask-2" fill="white">
                    <use xlink:href="#path-1"></use>
                </mask>
                <g id="Clip-2"></g>
                <path d="M26.71212,6.9102 C26.73072,6.9468 26.74692,6.9846 26.76912,7.0188 C28.26732,9.2712 29.16972,11.7504 29.43732,14.4324 C29.72472,17.3106 29.20092,20.3898 27.29052,23.2374 C24.04452,28.0752 19.46232,30.2352 13.65792,29.5932 C10.23252,29.2146 7.36392,27.6414 5.06052,25.0794 C4.48452,24.4386 4.02012,23.6982 3.49632,23.01 C3.41112,22.8984 3.17952,22.7526 3.18912,22.7388 C3.36672,22.473 3.10152,22.335 3.02112,22.1694 C1.93632,19.9482 1.29612,17.6274 1.37292,15.1362 C1.37832,14.9496 1.37412,14.7636 1.37412,14.577 C1.32792,14.5776 1.28292,14.5782 1.23732,14.5788 C1.23732,15.3966 1.20192,16.2162 1.24452,17.031 C1.34892,19.0362 1.76232,20.9688 2.74092,22.7478 C3.62592,24.357 4.76592,25.7616 6.19332,26.9178 C9.51312,29.6076 13.30572,30.7092 17.53932,30.1284 C20.61612,29.7066 23.33052,28.4232 25.54032,26.2284 C29.46192,22.3332 30.81552,17.6514 29.61552,12.2472 C29.50332,11.7426 29.33892,11.2494 29.19852,10.7514 C29.22792,10.7436 29.25792,10.7352 29.28852,10.7268 C29.94432,12.1482 30.27432,13.6608 30.47412,15.2142 C30.46812,14.5758 30.42732,13.9452 30.37512,13.3152 C30.25032,11.8098 29.85072,10.365 29.23812,8.9982 C28.41792,7.1694 27.20952,5.5956 25.69212,4.29 C21.89532,1.023 17.51412,-0.2406 12.57372,0.6804 C8.90232,1.3656 5.85852,3.1926 3.53952,6.1212 C0.56352,9.879 -0.45108,14.1552 0.47892,18.858 C0.82452,20.6082 1.39692,22.2954 2.53872,23.718 C3.06012,24.3672 3.62172,24.984 4.16412,25.6152 C3.82512,24.9738 3.41172,24.3954 3.06372,23.7792 C2.71452,23.1606 2.41272,22.5126 2.12112,21.8634 C0.78192,18.8874 0.43332,15.7938 1.11432,12.6024 C2.74272,4.974 10.10472,-0.0666 17.84832,1.2474 C23.25252,2.1654 26.99472,5.2842 29.14692,10.3188 C29.17932,10.3962 29.19072,10.4832 29.21232,10.566 C29.18172,10.581 29.15112,10.5966 29.12172,10.6122 C28.50312,9.2556 27.73572,7.9992 26.71212,6.9102 M3.54672,22.266 L3.56232,22.2822 C3.50112,22.3626 3.44052,22.4436 3.37992,22.524 C3.39432,22.5384 3.40812,22.5528 3.42252,22.5672 C7.37112,20.397 11.31912,18.2256 15.29952,16.0374 L15.29952,18.4626 C11.37012,19.8648 7.43712,21.2682 3.44112,22.6944 C6.33492,27.21 10.38792,29.6526 15.73392,29.5704 C20.78712,29.4924 24.63672,27.1086 27.40632,22.8678 C27.29892,22.8156 27.24972,22.7868 27.19812,22.7676 C25.76532,22.23 24.33252,21.6942 22.89972,21.1572 C20.59272,20.2932 18.28452,19.4292 15.97932,18.5592 C15.86412,18.5154 15.68592,18.4122 15.68292,18.3318 C15.66012,17.589 15.66972,16.845 15.66972,16.0452 C19.62612,18.2904 23.52672,20.5038 27.48252,22.749 C30.03372,17.883 30.12252,13.0734 27.19452,8.3994 C24.58692,4.2366 20.70372,2.1402 15.76632,1.8474 C15.86112,2.466 15.93972,3.0204 16.03032,3.5718 C16.60392,7.0434 17.18112,10.5144 17.75052,13.9866 C17.76732,14.0862 17.74392,14.256 17.68032,14.2938 C17.04192,14.673 16.39032,15.0306 15.64452,15.45 L15.64452,1.9014 C15.60972,1.9002 15.57492,1.8996 15.54072,1.8984 C15.03372,6.1164 14.52672,10.3338 14.01612,14.5854 C13.87512,14.508 13.77012,14.4336 13.65252,14.3886 C13.29432,14.25 13.23972,14.0232 13.31772,13.6506 C13.56312,12.4728 13.75752,11.2848 13.97592,10.101 C14.36892,7.9758 14.76612,5.8512 15.15732,3.7254 C15.26832,3.1206 15.36432,2.5128 15.47832,1.8414 C10.34952,2.0514 6.31632,4.1754 3.66492,8.5344 C0.93132,13.0284 0.98832,17.697 3.28392,22.3908 C3.40152,22.3344 3.47412,22.2996 3.54672,22.266 M30.9409266,15.702 C30.94872,24.2502 24.03792,31.1928 15.51312,31.2000056 C6.96852,31.2072 0.00852,24.2694 -0.000487614497,15.7338 C-0.00888,7.2426 6.93372,0.2484 15.37332,0.2478 C24.02232,0.2478 30.93252,7.1076 30.9409266,15.702" id="Fill-1" fill="#231F20" mask="url(#mask-2)"></path>
            </g>
            <path d="M26.71212,7.2621 C27.73572,8.3511 28.50312,9.6075 29.12172,10.9641 C29.15112,10.9485 29.18172,10.9329 29.21232,10.9179 C29.19072,10.8351 29.17932,10.7481 29.14692,10.6707 C26.99472,5.6361 23.25252,2.5173 17.84832,1.5993 C10.10472,0.2853 2.74272,5.3259 1.11432,12.9543 C0.43332,16.1457 0.78192,19.2393 2.12112,22.2153 C2.41272,22.8645 2.71452,23.5125 3.06372,24.1311 C3.41172,24.7473 3.82512,25.3257 4.16412,25.9671 C3.62172,25.3359 3.06012,24.7191 2.53872,24.0699 C1.39692,22.6473 0.82452,20.9601 0.47892,19.2099 C-0.45108,14.5071 0.56352,10.2309 3.53952,6.4731 C5.85852,3.5445 8.90232,1.7175 12.57372,1.0323 C17.51412,0.1113 21.89532,1.3749 25.69212,4.6419 C27.20952,5.9475 28.41792,7.5213 29.23812,9.3501 C29.85072,10.7169 30.25032,12.1617 30.37512,13.6671 C30.42732,14.2971 30.46812,14.9277 30.47412,15.5661 C30.27432,14.0127 29.94432,12.5001 29.28852,11.0787 C29.25792,11.0871 29.22792,11.0955 29.19852,11.1033 C29.33892,11.6013 29.50332,12.0945 29.61552,12.5991 C30.81552,18.0033 29.46192,22.6851 25.54032,26.5803 C23.33052,28.7751 20.61612,30.0585 17.53932,30.4803 C13.30572,31.0611 9.51312,29.9595 6.19332,27.2697 C4.76592,26.1135 3.62592,24.7089 2.74092,23.0997 C1.76232,21.3207 1.34892,19.3881 1.24452,17.3829 C1.20192,16.5681 1.23732,15.7485 1.23732,14.9307 C1.28292,14.9301 1.32792,14.9295 1.37412,14.9289 C1.37412,15.1155 1.37832,15.3015 1.37292,15.4881 C1.29612,17.9793 1.93632,20.3001 3.02112,22.5213 C3.10152,22.6869 3.36672,22.8249 3.18912,23.0907 C3.17952,23.1045 3.41112,23.2503 3.49632,23.3619 C4.02012,24.0501 4.48452,24.7905 5.06052,25.4313 C7.36392,27.9933 10.23252,29.5665 13.65792,29.9451 C19.46232,30.5871 24.04452,28.4271 27.29052,23.5893 C29.20092,20.7417 29.72472,17.6625 29.43732,14.7843 C29.16972,12.1023 28.26732,9.6231 26.76912,7.3707 C26.74692,7.3365 26.73072,7.2987 26.71212,7.2621" id="Fill-4" fill="#FEFEFE"></path>
            <path d="M3.54648,22.61778 C4.36428,21.93858 5.17788,21.25458 6.00168,20.58198 C8.32308,18.68778 10.64928,16.79898 13.00188,14.88438 C13.29228,15.04698 13.59288,15.21498 13.93968,15.40878 C13.38408,15.80058 12.86448,16.16898 12.34308,16.53378 C9.47868,18.53898 6.61308,20.54418 3.74748,22.54698 C3.69228,22.58538 3.62448,22.60518 3.56208,22.63398 L3.54648,22.61778 Z" id="Fill-6" fill="#231F20"></path>
            <path d="M17.25216,15.36912 C17.29296,15.33192 17.30076,15.32232 17.31036,15.31572 C17.83296,14.97192 17.83716,14.96712 18.31176,15.35592 C21.11196,17.64732 23.90976,19.94112 26.70876,22.23432 C26.84736,22.34892 26.98656,22.46352 27.08316,22.63152 C23.81496,20.21772 20.54676,17.80392 17.25216,15.36912" id="Fill-8" fill="#231F20"></path>
            <path d="M22.30062,19.76016 C20.17602,18.53676 18.05142,17.31396 15.92502,16.08996 C16.24602,15.75516 16.51362,15.79776 16.86102,16.03416 C18.62682,17.23776 20.41242,18.41316 22.19082,19.59756 C22.23882,19.62996 22.28682,19.66176 22.33482,19.69356 C22.32282,19.71576 22.31202,19.73796 22.30062,19.76016" id="Fill-10" fill="#231F20"></path>
            <path d="M15.30096,7.91892 L15.30096,15.67992 C14.96196,15.58092 14.77656,15.43632 14.80836,15.02832 C14.94216,13.31052 15.04356,11.59092 15.15336,9.87192 C15.19476,9.21792 15.22596,8.56332 15.26196,7.90872 C15.27456,7.91172 15.28776,7.91532 15.30096,7.91892" id="Fill-12" fill="#231F20"></path>
            <path d="M15.11874,16.0986 C14.21394,16.6068 13.34574,17.0946 12.47694,17.583 C12.44394,17.547 12.41154,17.511 12.37914,17.4756 C12.46254,17.4318 12.55554,17.3988 12.62874,17.3418 C13.16334,16.9272 13.69434,16.5072 14.22714,16.0896 C14.62554,15.777 14.62614,15.7776 15.11874,16.0986" id="Fill-14" fill="#231F20"></path>
        </g>
    </g>
</svg>