<?xml version="1.0" encoding="UTF-8"?>
<svg width="42px" height="42px" viewBox="0 0 42 42" version="1.1" xmlns="http://www.w3.org/2000/svg" xmlns:xlink="http://www.w3.org/1999/xlink">
    <title>[45056] Montemar Compañía Financiera</title>
    <defs>
        <polygon id="path-1" points="0 -0.000135591716 30.4535496 -0.000135591716 30.4535496 22.1762038 0 22.1762038"></polygon>
    </defs>
    <g id="[45056]-Montemar-Compañía-Financiera" stroke="none" stroke-width="1" fill="none" fill-rule="evenodd">
        <g id="Group-3" transform="translate(6.000000, 10.000000)">
            <mask id="mask-2" fill="white">
                <use xlink:href="#path-1"></use>
            </mask>
            <g id="Clip-2"></g>
            <path d="M26.74008,18.325665 C26.44668,18.858465 25.90623,18.983115 25.33653,18.983565 C23.17968,18.985365 21.02238,18.984465 18.86553,18.984465 L15.21648,18.984465 C11.92383,18.984465 8.63163,18.986715 5.33898,18.979965 C5.05458,18.979515 4.76523,18.943965 4.48623,18.885915 C3.70863,18.723465 3.37698,17.933265 3.85263,17.290665 C4.69593,16.150365 5.58378,15.042915 6.44868,13.918365 C7.61508,12.401415 8.76978,10.875915 9.94293,9.364815 C11.24388,7.688115 12.56058,6.023565 13.86963,4.353615 C14.00778,4.177665 14.14863,4.003515 14.27688,3.820365 C14.82453,3.036915 15.56523,3.002265 16.16193,3.749265 C16.62048,4.323015 17.05698,4.912965 17.50653,5.493465 C18.60948,6.916815 19.71378,8.338815 20.81673,9.761715 C21.70548,10.909215 22.59648,12.054915 23.48163,13.205115 C24.44463,14.456115 25.39458,15.717465 26.36748,16.960365 C26.69193,17.375265 27.03888,17.783865 26.74008,18.325665 M30.42918,2.250315 C30.42828,1.884465 30.33468,1.492515 30.18393,1.158615 C29.78613,0.277065 28.99953,0.010665 28.10403,0.009315 C23.80698,0.002565 19.51083,0.006165 15.21378,0.006165 C10.90053,0.006165 6.58728,-0.013635 2.27448,0.016965 C0.90423,0.027315 0.01323,0.828315 0.01008,2.238165 C-0.00612,8.141715 -0.00207,14.045265 0.01458,19.948815 C0.01548,20.313765 0.12618,20.707965 0.29043,21.036015 C0.72468,21.905415 1.52613,22.169115 2.43243,22.172265 C4.49208,22.179915 6.55128,22.174065 8.61048,22.174065 C15.08013,22.174515 21.54978,22.177665 28.01943,22.173165 C29.41533,22.171815 30.46338,21.379815 30.4535496,19.766115 C30.41793,13.927815 30.44403,8.089065 30.42918,2.250315" id="Fill-1" fill="#1E3C71" mask="url(#mask-2)"></path>
        </g>
    </g>
</svg>