<?xml version="1.0" encoding="UTF-8"?>
<svg width="42px" height="42px" viewBox="0 0 42 42" version="1.1" xmlns="http://www.w3.org/2000/svg" xmlns:xlink="http://www.w3.org/1999/xlink">
    <title>[65203] Crédito Regional Compañía Financiera</title>
    <defs>
        <polygon id="path-1" points="0 0.34734 29.57598 0.34734 29.57598 31.0799024 0 31.0799024"></polygon>
    </defs>
    <g id="[65203]-Crédito-Regional-Compañía-Financiera" stroke="none" stroke-width="1" fill="none" fill-rule="evenodd">
        <g id="Group-10" transform="translate(6.000000, 5.000000)">
            <g id="Group-3" transform="translate(0.000000, 0.072660)">
                <mask id="mask-2" fill="white">
                    <use xlink:href="#path-1"></use>
                </mask>
                <g id="Clip-2"></g>
                <path d="M29.574342,9.589608 C28.563822,9.589608 27.626802,9.529128 26.693982,9.566508 C26.364702,9.579948 26.462562,9.552648 26.034582,9.078048 C23.310882,5.039748 18.993282,2.846088 13.843662,3.414348 C7.422702,4.121628 2.638062,9.933588 2.995482,16.384368 C3.332742,22.467228 8.019102,27.392568 14.154042,27.993168 C19.294842,28.497168 23.255442,26.434968 26.098422,22.175328 C26.460042,21.647808 26.520102,21.607908 27.108102,21.632688 C27.925842,21.668388 28.745682,21.642348 29.576022,21.642348 C28.491162,25.420248 23.320962,30.881088 15.857562,31.074708 C7.920822,31.280928 0.984942,25.322808 0.100842,17.496108 C-0.808038,9.447648 4.523442,2.310588 12.157362,0.708708 C20.776182,-1.099812 27.459222,4.193448 29.574342,9.589608" id="Fill-1" fill="#231F20" mask="url(#mask-2)"></path>
            </g>
            <polygon id="Fill-4" fill="#EB1F26" points="13.06473 23.496018 13.06473 8.076558 9.90927 11.113158 9.90927 20.400198"></polygon>
            <polygon id="Fill-6" fill="#231F20" points="13.06473 8.076642 17.70867 8.076642 20.69403 11.139702 20.69403 12.304362 17.55369 15.692922 17.55369 10.993542 13.06473 10.993542"></polygon>
            <polygon id="Fill-8" fill="#231F20" points="13.06473 15.692796 17.51043 15.692796 20.69403 18.780636 20.69403 23.495976 17.53941 23.495976 17.53941 18.663456 16.07613 18.663456"></polygon>
        </g>
    </g>
</svg>