<svg xmlns="http://www.w3.org/2000/svg" width="29" height="29" viewBox="0 0 29 29">
    <g fill="none" fill-rule="evenodd">
        <g>
            <g>
                <g>
                    <g>
                        <g>
                            <g>
                                <g>
                                    <g>
                                        <g>
                                            <path fill="#E7E5E2" d="M1.442 1.869L4.319 1.869 4.319 11.096 1.442 11.096z" transform="translate(-655 -482) translate(580 299) translate(55 162) translate(0 18) translate(18) translate(0 1) translate(2 2) translate(2.636 2.636) translate(16.544 7.858)"/>
                                            <path fill="#D6D1CA" d="M2.886 1.869L4.319 1.869 4.319 11.096 2.886 11.096z" transform="translate(-655 -482) translate(580 299) translate(55 162) translate(0 18) translate(18) translate(0 1) translate(2 2) translate(2.636 2.636) translate(16.544 7.858)"/>
                                            <path fill="#AFAAA3" d="M4.743 13.116H1.018c-.557 0-1.008-.452-1.008-1.01s.451-1.01 1.008-1.01h3.725c.557 0 1.008.452 1.008 1.01s-.451 1.01-1.008 1.01z" transform="translate(-655 -482) translate(580 299) translate(55 162) translate(0 18) translate(18) translate(0 1) translate(2 2) translate(2.636 2.636) translate(16.544 7.858)"/>
                                            <path fill="#5B5B5B" d="M4.743 11.096H3.31c.556 0 1.008.452 1.008 1.01s-.452 1.01-1.008 1.01h1.432c.557 0 1.008-.452 1.008-1.01s-.451-1.01-1.008-1.01z" transform="translate(-655 -482) translate(580 299) translate(55 162) translate(0 18) translate(18) translate(0 1) translate(2 2) translate(2.636 2.636) translate(16.544 7.858)"/>
                                            <path fill="#AFAAA3" d="M4.743.041H1.018C.46.041.01.493.01 1.051s.451 1.01 1.008 1.01h3.725c.557 0 1.008-.452 1.008-1.01S5.3.041 4.743.041z" transform="translate(-655 -482) translate(580 299) translate(55 162) translate(0 18) translate(18) translate(0 1) translate(2 2) translate(2.636 2.636) translate(16.544 7.858)"/>
                                            <path fill="#5B5B5B" d="M4.743.041H3.31c.556 0 1.008.452 1.008 1.01s-.452 1.01-1.008 1.01h1.432c.557 0 1.008-.452 1.008-1.01S5.3.041 4.743.041z" transform="translate(-655 -482) translate(580 299) translate(55 162) translate(0 18) translate(18) translate(0 1) translate(2 2) translate(2.636 2.636) translate(16.544 7.858)"/>
                                        </g>
                                        <g>
                                            <path fill="#E7E5E2" d="M1.435 1.869L4.311 1.869 4.311 11.096 1.435 11.096z" transform="translate(-655 -482) translate(580 299) translate(55 162) translate(0 18) translate(18) translate(0 1) translate(2 2) translate(2.636 2.636) translate(8.99 7.858)"/>
                                            <path fill="#D6D1CA" d="M2.873 1.869L4.305 1.869 4.305 11.096 2.873 11.096z" transform="translate(-655 -482) translate(580 299) translate(55 162) translate(0 18) translate(18) translate(0 1) translate(2 2) translate(2.636 2.636) translate(8.99 7.858)"/>
                                            <path fill="#AFAAA3" d="M4.736 13.116H1.01c-.557 0-1.008-.452-1.008-1.01s.451-1.01 1.008-1.01h3.725c.556 0 1.008.452 1.008 1.01s-.452 1.01-1.008 1.01z" transform="translate(-655 -482) translate(580 299) translate(55 162) translate(0 18) translate(18) translate(0 1) translate(2 2) translate(2.636 2.636) translate(8.99 7.858)"/>
                                            <path fill="#5B5B5B" d="M4.736 11.096H3.304c.556 0 1.008.452 1.008 1.01s-.452 1.01-1.008 1.01h1.432c.556 0 1.008-.452 1.008-1.01s-.452-1.01-1.008-1.01z" transform="translate(-655 -482) translate(580 299) translate(55 162) translate(0 18) translate(18) translate(0 1) translate(2 2) translate(2.636 2.636) translate(8.99 7.858)"/>
                                            <path fill="#AFAAA3" d="M4.736.041H1.01C.454.041.003.493.003 1.051s.451 1.01 1.008 1.01h3.725c.556 0 1.008-.452 1.008-1.01S5.292.041 4.736.041z" transform="translate(-655 -482) translate(580 299) translate(55 162) translate(0 18) translate(18) translate(0 1) translate(2 2) translate(2.636 2.636) translate(8.99 7.858)"/>
                                            <path fill="#5B5B5B" d="M4.736.041H3.304c.556 0 1.008.452 1.008 1.01s-.452 1.01-1.008 1.01h1.432c.556 0 1.008-.452 1.008-1.01S5.292.041 4.736.041z" transform="translate(-655 -482) translate(580 299) translate(55 162) translate(0 18) translate(18) translate(0 1) translate(2 2) translate(2.636 2.636) translate(8.99 7.858)"/>
                                        </g>
                                        <g>
                                            <path fill="#E7E5E2" d="M1.474 1.869L4.351 1.869 4.351 11.096 1.474 11.096z" transform="translate(-655 -482) translate(580 299) translate(55 162) translate(0 18) translate(18) translate(0 1) translate(2 2) translate(2.636 2.636) translate(1.39 7.858)"/>
                                            <path fill="#D6D1CA" d="M2.918 1.869L4.351 1.869 4.351 11.096 2.918 11.096z" transform="translate(-655 -482) translate(580 299) translate(55 162) translate(0 18) translate(18) translate(0 1) translate(2 2) translate(2.636 2.636) translate(1.39 7.858)"/>
                                            <path fill="#AFAAA3" d="M4.775 13.116H1.05c-.557 0-1.008-.452-1.008-1.01s.451-1.01 1.008-1.01h3.725c.557 0 1.008.452 1.008 1.01s-.451 1.01-1.008 1.01z" transform="translate(-655 -482) translate(580 299) translate(55 162) translate(0 18) translate(18) translate(0 1) translate(2 2) translate(2.636 2.636) translate(1.39 7.858)"/>
                                            <path fill="#5B5B5B" d="M4.775 11.096H3.343c.556 0 1.008.452 1.008 1.01s-.452 1.01-1.008 1.01h1.432c.557 0 1.008-.452 1.008-1.01s-.451-1.01-1.008-1.01z" transform="translate(-655 -482) translate(580 299) translate(55 162) translate(0 18) translate(18) translate(0 1) translate(2 2) translate(2.636 2.636) translate(1.39 7.858)"/>
                                            <path fill="#AFAAA3" d="M4.775.041H1.05C.493.041.042.493.042 1.051s.451 1.01 1.008 1.01h3.725c.557 0 1.008-.452 1.008-1.01S5.332.041 4.775.041z" transform="translate(-655 -482) translate(580 299) translate(55 162) translate(0 18) translate(18) translate(0 1) translate(2 2) translate(2.636 2.636) translate(1.39 7.858)"/>
                                            <path fill="#5B5B5B" d="M4.775.041H3.343c.556 0 1.008.452 1.008 1.01s-.452 1.01-1.008 1.01h1.432c.557 0 1.008-.452 1.008-1.01S5.332.041 4.775.041z" transform="translate(-655 -482) translate(580 299) translate(55 162) translate(0 18) translate(18) translate(0 1) translate(2 2) translate(2.636 2.636) translate(1.39 7.858)"/>
                                        </g>
                                        <path fill="#E7E5E2" d="M23.136 20.974c.264 0 .477.214.477.478v.479c0 .264-.213.478-.477.478H.55c-.264 0-.478-.214-.478-.478v-.479c0-.264.214-.478.478-.478h22.586z" transform="translate(-655 -482) translate(580 299) translate(55 162) translate(0 18) translate(18) translate(0 1) translate(2 2) translate(2.636 2.636)"/>
                                        <path fill="#AFAAA3" d="M23.613 6.474v.957c0 .264-.213.478-.477.478H.55c-.264 0-.478-.214-.478-.478v-.957h23.541z" transform="translate(-655 -482) translate(580 299) translate(55 162) translate(0 18) translate(18) translate(0 1) translate(2 2) translate(2.636 2.636)"/>
                                        <path fill="#5B5B5B" d="M23.613 6.474v.957c0 .264-.213.478-.477.478h-1.318c.263 0 .477-.214.477-.478v-.957h1.318z" transform="translate(-655 -482) translate(580 299) translate(55 162) translate(0 18) translate(18) translate(0 1) translate(2 2) translate(2.636 2.636)"/>
                                        <path fill="#E7E5E2" d="M11.113.566c.46-.205 1.04-.205 1.501 0l11 5.908H.071L11.113.566z" transform="translate(-655 -482) translate(580 299) translate(55 162) translate(0 18) translate(18) translate(0 1) translate(2 2) translate(2.636 2.636)"/>
                                        <path fill="#D6D1CA" d="M12.614.566l11 5.908h-1.319L11.296.566c-.03-.013-.06-.026-.09-.037l-.093.037c.46-.205 1.04-.205 1.501 0zM23.136 20.974h-1.432c.263 0 .477.214.477.478v.479c0 .264-.214.478-.477.478h1.432c.264 0 .477-.214.477-.478v-.479c0-.264-.213-.478-.477-.478z" transform="translate(-655 -482) translate(580 299) translate(55 162) translate(0 18) translate(18) translate(0 1) translate(2 2) translate(2.636 2.636)"/>
                                    </g>
                                </g>
                            </g>
                        </g>
                    </g>
                </g>
            </g>
        </g>
    </g>
</svg>
